<?xml version="1.0" encoding="utf-8"?>
<svg xmlns="http://www.w3.org/2000/svg" xmlns:xlink="http://www.w3.org/1999/xlink" width="600" height="400" viewBox="0 0 2400 1600">
<defs>
  <clipPath id="clip710">
    <rect x="0" y="0" width="2400" height="1600"/>
  </clipPath>
</defs>
<path clip-path="url(#clip710)" d="M0 1600 L2400 1600 L2400 0 L0 0  Z" fill="#ffffff" fill-rule="evenodd" fill-opacity="1"/>
<defs>
  <clipPath id="clip711">
    <rect x="480" y="0" width="1681" height="1600"/>
  </clipPath>
</defs>
<path clip-path="url(#clip710)" d="M223.528 1474.16 L2352.76 1474.16 L2352.76 47.2441 L223.528 47.2441  Z" fill="#ffffff" fill-rule="evenodd" fill-opacity="1"/>
<defs>
  <clipPath id="clip712">
    <rect x="223" y="47" width="2130" height="1428"/>
  </clipPath>
</defs>
<polyline clip-path="url(#clip712)" style="stroke:#000000; stroke-linecap:round; stroke-linejoin:round; stroke-width:2; stroke-opacity:0.1; fill:none" points="283.789,1474.16 283.789,47.2441 "/>
<polyline clip-path="url(#clip712)" style="stroke:#000000; stroke-linecap:round; stroke-linejoin:round; stroke-width:2; stroke-opacity:0.1; fill:none" points="785.965,1474.16 785.965,47.2441 "/>
<polyline clip-path="url(#clip712)" style="stroke:#000000; stroke-linecap:round; stroke-linejoin:round; stroke-width:2; stroke-opacity:0.1; fill:none" points="1288.14,1474.16 1288.14,47.2441 "/>
<polyline clip-path="url(#clip712)" style="stroke:#000000; stroke-linecap:round; stroke-linejoin:round; stroke-width:2; stroke-opacity:0.1; fill:none" points="1790.32,1474.16 1790.32,47.2441 "/>
<polyline clip-path="url(#clip712)" style="stroke:#000000; stroke-linecap:round; stroke-linejoin:round; stroke-width:2; stroke-opacity:0.1; fill:none" points="2292.49,1474.16 2292.49,47.2441 "/>
<polyline clip-path="url(#clip710)" style="stroke:#000000; stroke-linecap:round; stroke-linejoin:round; stroke-width:4; stroke-opacity:1; fill:none" points="223.528,1474.16 2352.76,1474.16 "/>
<polyline clip-path="url(#clip710)" style="stroke:#000000; stroke-linecap:round; stroke-linejoin:round; stroke-width:4; stroke-opacity:1; fill:none" points="283.789,1474.16 283.789,1455.27 "/>
<polyline clip-path="url(#clip710)" style="stroke:#000000; stroke-linecap:round; stroke-linejoin:round; stroke-width:4; stroke-opacity:1; fill:none" points="785.965,1474.16 785.965,1455.27 "/>
<polyline clip-path="url(#clip710)" style="stroke:#000000; stroke-linecap:round; stroke-linejoin:round; stroke-width:4; stroke-opacity:1; fill:none" points="1288.14,1474.16 1288.14,1455.27 "/>
<polyline clip-path="url(#clip710)" style="stroke:#000000; stroke-linecap:round; stroke-linejoin:round; stroke-width:4; stroke-opacity:1; fill:none" points="1790.32,1474.16 1790.32,1455.27 "/>
<polyline clip-path="url(#clip710)" style="stroke:#000000; stroke-linecap:round; stroke-linejoin:round; stroke-width:4; stroke-opacity:1; fill:none" points="2292.49,1474.16 2292.49,1455.27 "/>
<path clip-path="url(#clip710)" d="M273.142 1520.38 Q273.142 1512.95 275.019 1508.9 Q277.638 1502.87 283.813 1502.87 Q285.123 1502.87 286.481 1503.24 Q287.865 1503.59 289.594 1504.94 Q291.348 1506.3 292.41 1508.53 Q294.436 1512.82 294.436 1520.38 Q294.436 1527.77 292.558 1531.8 Q289.816 1537.68 283.764 1537.68 Q281.491 1537.68 279.169 1536.52 Q276.872 1535.35 275.414 1532.56 Q273.142 1528.39 273.142 1520.38 M277.341 1519.77 Q277.341 1527.4 277.885 1530.44 Q278.502 1533.72 280.182 1535.16 Q281.887 1536.56 283.764 1536.56 Q285.79 1536.56 287.47 1535.06 Q289.174 1533.53 289.693 1530.24 Q290.261 1527 290.236 1519.77 Q290.236 1512.73 289.742 1509.91 Q289.075 1506.62 287.297 1505.31 Q285.543 1503.98 283.764 1503.98 Q283.097 1503.98 282.381 1504.18 Q281.689 1504.38 280.676 1504.94 Q279.663 1505.51 278.873 1506.92 Q278.107 1508.33 277.736 1510.45 Q277.341 1513.2 277.341 1519.77 Z" fill="#000000" fill-rule="nonzero" fill-opacity="1" /><path clip-path="url(#clip710)" d="M690.084 1544.07 Q690.084 1542.57 690.899 1542 Q691.714 1541.4 692.579 1541.4 Q693.74 1541.4 694.407 1542.15 Q695.099 1542.86 695.099 1543.87 Q695.099 1544.89 694.407 1545.63 Q693.74 1546.35 692.579 1546.35 Q692.011 1546.35 691.714 1546.25 Q692.381 1548.57 694.407 1550.25 Q696.457 1551.93 699.15 1551.93 Q702.534 1551.93 704.56 1548.64 Q705.77 1546.52 705.77 1541.7 Q705.77 1537.45 704.856 1535.33 Q703.448 1532.09 700.558 1532.09 Q696.457 1532.09 694.036 1535.62 Q693.74 1536.07 693.394 1536.09 Q692.9 1536.09 692.776 1535.82 Q692.678 1535.53 692.678 1534.76 L692.678 1519.79 Q692.678 1518.58 693.172 1518.58 Q693.369 1518.58 693.789 1518.73 Q696.976 1520.14 700.509 1520.16 Q704.14 1520.16 707.401 1518.68 Q707.648 1518.53 707.796 1518.53 Q708.29 1518.53 708.315 1519.1 Q708.315 1519.3 707.895 1519.89 Q707.5 1520.46 706.635 1521.22 Q705.77 1521.96 704.659 1522.68 Q703.547 1523.4 701.917 1523.89 Q700.311 1524.36 698.532 1524.36 Q696.408 1524.36 694.234 1523.69 L694.234 1533.55 Q696.853 1530.98 700.657 1530.98 Q704.708 1530.98 707.5 1534.24 Q710.291 1537.5 710.291 1542.05 Q710.291 1546.81 706.981 1550.08 Q703.695 1553.34 699.249 1553.34 Q695.197 1553.34 692.628 1550.45 Q690.084 1547.56 690.084 1544.07 Z" fill="#000000" fill-rule="nonzero" fill-opacity="1" /><path clip-path="url(#clip710)" d="M717.924 1551.41 Q717.159 1550.59 717.159 1549.53 Q717.159 1548.47 717.924 1547.7 Q718.69 1546.91 719.851 1546.91 Q720.963 1546.91 721.704 1547.65 Q722.47 1548.37 722.47 1549.56 Q722.47 1550.72 721.655 1551.48 Q720.864 1552.22 719.851 1552.22 Q718.69 1552.22 717.924 1551.41 Z" fill="#000000" fill-rule="nonzero" fill-opacity="1" /><path clip-path="url(#clip710)" d="M728.893 1536.04 Q728.893 1528.61 730.77 1524.56 Q733.389 1518.53 739.565 1518.53 Q740.874 1518.53 742.233 1518.9 Q743.616 1519.25 745.345 1520.6 Q747.099 1521.96 748.161 1524.19 Q750.187 1528.48 750.187 1536.04 Q750.187 1543.43 748.31 1547.46 Q745.568 1553.34 739.515 1553.34 Q737.243 1553.34 734.92 1552.18 Q732.623 1551.01 731.165 1548.22 Q728.893 1544.05 728.893 1536.04 M733.092 1535.43 Q733.092 1543.06 733.636 1546.1 Q734.253 1549.38 735.933 1550.82 Q737.638 1552.22 739.515 1552.22 Q741.541 1552.22 743.221 1550.72 Q744.925 1549.19 745.444 1545.9 Q746.012 1542.66 745.988 1535.43 Q745.988 1528.39 745.493 1525.57 Q744.826 1522.28 743.048 1520.97 Q741.294 1519.64 739.515 1519.64 Q738.848 1519.64 738.132 1519.84 Q737.44 1520.04 736.427 1520.6 Q735.414 1521.17 734.624 1522.58 Q733.858 1523.99 733.488 1526.11 Q733.092 1528.86 733.092 1535.43 Z" fill="#000000" fill-rule="nonzero" fill-opacity="1" /><path clip-path="url(#clip710)" d="M754.189 1536.04 Q754.189 1528.61 756.066 1524.56 Q758.685 1518.53 764.861 1518.53 Q766.17 1518.53 767.529 1518.9 Q768.912 1519.25 770.641 1520.6 Q772.395 1521.96 773.458 1524.19 Q775.483 1528.48 775.483 1536.04 Q775.483 1543.43 773.606 1547.46 Q770.864 1553.34 764.811 1553.34 Q762.539 1553.34 760.217 1552.18 Q757.919 1551.01 756.462 1548.22 Q754.189 1544.05 754.189 1536.04 M758.389 1535.43 Q758.389 1543.06 758.932 1546.1 Q759.55 1549.38 761.229 1550.82 Q762.934 1552.22 764.811 1552.22 Q766.837 1552.22 768.517 1550.72 Q770.222 1549.19 770.74 1545.9 Q771.308 1542.66 771.284 1535.43 Q771.284 1528.39 770.79 1525.57 Q770.123 1522.28 768.344 1520.97 Q766.59 1519.64 764.811 1519.64 Q764.144 1519.64 763.428 1519.84 Q762.736 1520.04 761.724 1520.6 Q760.711 1521.17 759.92 1522.58 Q759.154 1523.99 758.784 1526.11 Q758.389 1528.86 758.389 1535.43 Z" fill="#000000" fill-rule="nonzero" fill-opacity="1" /><path clip-path="url(#clip710)" d="M809.08 1551.46 Q808.833 1551.76 808.388 1551.76 Q807.968 1551.76 807.672 1551.46 L797.198 1540.98 L786.723 1551.46 Q786.427 1551.76 785.982 1551.76 Q785.562 1551.76 785.291 1551.46 Q784.994 1551.19 784.994 1550.77 Q784.994 1550.35 785.291 1550.05 L795.765 1539.58 L785.291 1529.1 Q784.994 1528.81 784.994 1528.39 Q784.994 1527.94 785.291 1527.69 Q785.562 1527.4 785.982 1527.4 Q786.427 1527.4 786.723 1527.69 L797.198 1538.17 L807.672 1527.69 Q807.968 1527.4 808.388 1527.4 Q808.833 1527.4 809.08 1527.69 Q809.376 1527.94 809.376 1528.39 Q809.376 1528.81 809.08 1529.1 L798.606 1539.58 L809.08 1550.05 Q809.376 1550.35 809.376 1550.79 Q809.376 1551.21 809.08 1551.46 Z" fill="#000000" fill-rule="nonzero" fill-opacity="1" /><path clip-path="url(#clip710)" d="M821.357 1523.35 L821.357 1521.77 Q827.434 1521.77 830.572 1518.53 Q831.436 1518.53 831.585 1518.73 Q831.733 1518.92 831.733 1519.84 L831.733 1548.22 Q831.733 1549.73 832.474 1550.2 Q833.215 1550.67 836.451 1550.67 L838.057 1550.67 L838.057 1552.22 Q836.278 1552.08 829.855 1552.08 Q823.433 1552.08 821.679 1552.22 L821.679 1550.67 L823.284 1550.67 Q826.471 1550.67 827.237 1550.22 Q828.003 1549.75 828.003 1548.22 L828.003 1522.01 Q825.359 1523.35 821.357 1523.35 Z" fill="#000000" fill-rule="nonzero" fill-opacity="1" /><path clip-path="url(#clip710)" d="M844.134 1536.04 Q844.134 1528.61 846.011 1524.56 Q848.63 1518.53 854.806 1518.53 Q856.115 1518.53 857.474 1518.9 Q858.857 1519.25 860.586 1520.6 Q862.34 1521.96 863.403 1524.19 Q865.428 1528.48 865.428 1536.04 Q865.428 1543.43 863.551 1547.46 Q860.809 1553.34 854.756 1553.34 Q852.484 1553.34 850.162 1552.18 Q847.864 1551.01 846.407 1548.22 Q844.134 1544.05 844.134 1536.04 M848.334 1535.43 Q848.334 1543.06 848.877 1546.1 Q849.495 1549.38 851.174 1550.82 Q852.879 1552.22 854.756 1552.22 Q856.782 1552.22 858.462 1550.72 Q860.166 1549.19 860.685 1545.9 Q861.253 1542.66 861.229 1535.43 Q861.229 1528.39 860.735 1525.57 Q860.068 1522.28 858.289 1520.97 Q856.535 1519.64 854.756 1519.64 Q854.089 1519.64 853.373 1519.84 Q852.681 1520.04 851.668 1520.6 Q850.656 1521.17 849.865 1522.58 Q849.099 1523.99 848.729 1526.11 Q848.334 1528.86 848.334 1535.43 Z" fill="#000000" fill-rule="nonzero" fill-opacity="1" /><path clip-path="url(#clip710)" d="M865.428 1518.19 Q865.428 1516.97 866.091 1516.5 Q866.753 1516.02 867.455 1516.02 Q868.399 1516.02 868.941 1516.63 Q869.503 1517.21 869.503 1518.03 Q869.503 1518.85 868.941 1519.46 Q868.399 1520.04 867.455 1520.04 Q866.994 1520.04 866.753 1519.96 Q867.295 1521.84 868.941 1523.21 Q870.607 1524.57 872.794 1524.57 Q875.544 1524.57 877.19 1521.9 Q878.174 1520.18 878.174 1516.26 Q878.174 1512.81 877.431 1511.09 Q876.287 1508.46 873.939 1508.46 Q870.607 1508.46 868.64 1511.33 Q868.399 1511.69 868.118 1511.71 Q867.716 1511.71 867.616 1511.49 Q867.536 1511.25 867.536 1510.62 L867.536 1498.46 Q867.536 1497.48 867.937 1497.48 Q868.098 1497.48 868.439 1497.6 Q871.028 1498.74 873.898 1498.76 Q876.849 1498.76 879.498 1497.56 Q879.699 1497.44 879.82 1497.44 Q880.221 1497.44 880.241 1497.9 Q880.241 1498.06 879.9 1498.54 Q879.579 1499 878.876 1499.62 Q878.174 1500.23 877.27 1500.81 Q876.367 1501.39 875.042 1501.79 Q873.738 1502.17 872.293 1502.17 Q870.567 1502.17 868.8 1501.63 L868.8 1509.64 Q870.928 1507.55 874.019 1507.55 Q877.311 1507.55 879.579 1510.2 Q881.847 1512.85 881.847 1516.54 Q881.847 1520.42 879.157 1523.07 Q876.488 1525.72 872.875 1525.72 Q869.583 1525.72 867.496 1523.37 Q865.428 1521.02 865.428 1518.19 Z" fill="#000000" fill-rule="nonzero" fill-opacity="1" /><path clip-path="url(#clip710)" d="M1192.93 1523.35 L1192.93 1521.77 Q1199 1521.77 1202.14 1518.53 Q1203.01 1518.53 1203.15 1518.73 Q1203.3 1518.92 1203.3 1519.84 L1203.3 1548.22 Q1203.3 1549.73 1204.04 1550.2 Q1204.78 1550.67 1208.02 1550.67 L1209.63 1550.67 L1209.63 1552.22 Q1207.85 1552.08 1201.43 1552.08 Q1195 1552.08 1193.25 1552.22 L1193.25 1550.67 L1194.85 1550.67 Q1198.04 1550.67 1198.81 1550.22 Q1199.57 1549.75 1199.57 1548.22 L1199.57 1522.01 Q1196.93 1523.35 1192.93 1523.35 Z" fill="#000000" fill-rule="nonzero" fill-opacity="1" /><path clip-path="url(#clip710)" d="M1218.79 1551.41 Q1218.03 1550.59 1218.03 1549.53 Q1218.03 1548.47 1218.79 1547.7 Q1219.56 1546.91 1220.72 1546.91 Q1221.83 1546.91 1222.57 1547.65 Q1223.34 1548.37 1223.34 1549.56 Q1223.34 1550.72 1222.52 1551.48 Q1221.73 1552.22 1220.72 1552.22 Q1219.56 1552.22 1218.79 1551.41 Z" fill="#000000" fill-rule="nonzero" fill-opacity="1" /><path clip-path="url(#clip710)" d="M1229.76 1536.04 Q1229.76 1528.61 1231.64 1524.56 Q1234.26 1518.53 1240.43 1518.53 Q1241.74 1518.53 1243.1 1518.9 Q1244.48 1519.25 1246.21 1520.6 Q1247.97 1521.96 1249.03 1524.19 Q1251.05 1528.48 1251.05 1536.04 Q1251.05 1543.43 1249.18 1547.46 Q1246.43 1553.34 1240.38 1553.34 Q1238.11 1553.34 1235.79 1552.18 Q1233.49 1551.01 1232.03 1548.22 Q1229.76 1544.05 1229.76 1536.04 M1233.96 1535.43 Q1233.96 1543.06 1234.5 1546.1 Q1235.12 1549.38 1236.8 1550.82 Q1238.5 1552.22 1240.38 1552.22 Q1242.41 1552.22 1244.09 1550.72 Q1245.79 1549.19 1246.31 1545.9 Q1246.88 1542.66 1246.85 1535.43 Q1246.85 1528.39 1246.36 1525.57 Q1245.69 1522.28 1243.92 1520.97 Q1242.16 1519.64 1240.38 1519.64 Q1239.72 1519.64 1239 1519.84 Q1238.31 1520.04 1237.29 1520.6 Q1236.28 1521.17 1235.49 1522.58 Q1234.73 1523.99 1234.35 1526.11 Q1233.96 1528.86 1233.96 1535.43 Z" fill="#000000" fill-rule="nonzero" fill-opacity="1" /><path clip-path="url(#clip710)" d="M1255.06 1536.04 Q1255.06 1528.61 1256.93 1524.56 Q1259.55 1518.53 1265.73 1518.53 Q1267.04 1518.53 1268.4 1518.9 Q1269.78 1519.25 1271.51 1520.6 Q1273.26 1521.96 1274.32 1524.19 Q1276.35 1528.48 1276.35 1536.04 Q1276.35 1543.43 1274.47 1547.46 Q1271.73 1553.34 1265.68 1553.34 Q1263.41 1553.34 1261.08 1552.18 Q1258.79 1551.01 1257.33 1548.22 Q1255.06 1544.05 1255.06 1536.04 M1259.26 1535.43 Q1259.26 1543.06 1259.8 1546.1 Q1260.42 1549.38 1262.1 1550.82 Q1263.8 1552.22 1265.68 1552.22 Q1267.7 1552.22 1269.38 1550.72 Q1271.09 1549.19 1271.61 1545.9 Q1272.18 1542.66 1272.15 1535.43 Q1272.15 1528.39 1271.66 1525.57 Q1270.99 1522.28 1269.21 1520.97 Q1267.46 1519.64 1265.68 1519.64 Q1265.01 1519.64 1264.3 1519.84 Q1263.6 1520.04 1262.59 1520.6 Q1261.58 1521.17 1260.79 1522.58 Q1260.02 1523.99 1259.65 1526.11 Q1259.26 1528.86 1259.26 1535.43 Z" fill="#000000" fill-rule="nonzero" fill-opacity="1" /><path clip-path="url(#clip710)" d="M1309.95 1551.46 Q1309.7 1551.76 1309.26 1551.76 Q1308.84 1551.76 1308.54 1551.46 L1298.06 1540.98 L1287.59 1551.46 Q1287.29 1551.76 1286.85 1551.76 Q1286.43 1551.76 1286.16 1551.46 Q1285.86 1551.19 1285.86 1550.77 Q1285.86 1550.35 1286.16 1550.05 L1296.63 1539.58 L1286.16 1529.1 Q1285.86 1528.81 1285.86 1528.39 Q1285.86 1527.94 1286.16 1527.69 Q1286.43 1527.4 1286.85 1527.4 Q1287.29 1527.4 1287.59 1527.69 L1298.06 1538.17 L1308.54 1527.69 Q1308.84 1527.4 1309.26 1527.4 Q1309.7 1527.4 1309.95 1527.69 Q1310.24 1527.94 1310.24 1528.39 Q1310.24 1528.81 1309.95 1529.1 L1299.47 1539.58 L1309.95 1550.05 Q1310.24 1550.35 1310.24 1550.79 Q1310.24 1551.21 1309.95 1551.46 Z" fill="#000000" fill-rule="nonzero" fill-opacity="1" /><path clip-path="url(#clip710)" d="M1322.22 1523.35 L1322.22 1521.77 Q1328.3 1521.77 1331.44 1518.53 Q1332.3 1518.53 1332.45 1518.73 Q1332.6 1518.92 1332.6 1519.84 L1332.6 1548.22 Q1332.6 1549.73 1333.34 1550.2 Q1334.08 1550.67 1337.32 1550.67 L1338.92 1550.67 L1338.92 1552.22 Q1337.15 1552.08 1330.72 1552.08 Q1324.3 1552.08 1322.55 1552.22 L1322.55 1550.67 L1324.15 1550.67 Q1327.34 1550.67 1328.1 1550.22 Q1328.87 1549.75 1328.87 1548.22 L1328.87 1522.01 Q1326.23 1523.35 1322.22 1523.35 Z" fill="#000000" fill-rule="nonzero" fill-opacity="1" /><path clip-path="url(#clip710)" d="M1345 1536.04 Q1345 1528.61 1346.88 1524.56 Q1349.5 1518.53 1355.67 1518.53 Q1356.98 1518.53 1358.34 1518.9 Q1359.72 1519.25 1361.45 1520.6 Q1363.21 1521.96 1364.27 1524.19 Q1366.3 1528.48 1366.3 1536.04 Q1366.3 1543.43 1364.42 1547.46 Q1361.68 1553.34 1355.62 1553.34 Q1353.35 1553.34 1351.03 1552.18 Q1348.73 1551.01 1347.27 1548.22 Q1345 1544.05 1345 1536.04 M1349.2 1535.43 Q1349.2 1543.06 1349.74 1546.1 Q1350.36 1549.38 1352.04 1550.82 Q1353.75 1552.22 1355.62 1552.22 Q1357.65 1552.22 1359.33 1550.72 Q1361.03 1549.19 1361.55 1545.9 Q1362.12 1542.66 1362.1 1535.43 Q1362.1 1528.39 1361.6 1525.57 Q1360.93 1522.28 1359.16 1520.97 Q1357.4 1519.64 1355.62 1519.64 Q1354.96 1519.64 1354.24 1519.84 Q1353.55 1520.04 1352.54 1520.6 Q1351.52 1521.17 1350.73 1522.58 Q1349.97 1523.99 1349.6 1526.11 Q1349.2 1528.86 1349.2 1535.43 Z" fill="#000000" fill-rule="nonzero" fill-opacity="1" /><path clip-path="url(#clip710)" d="M1366.3 1511.83 Q1366.3 1505.37 1369.59 1501.41 Q1372.88 1497.44 1377.11 1497.44 Q1379.58 1497.44 1380.95 1498.7 Q1382.33 1499.95 1382.33 1501.87 Q1382.33 1502.94 1381.71 1503.4 Q1381.09 1503.86 1380.45 1503.86 Q1379.7 1503.86 1379.12 1503.36 Q1378.54 1502.86 1378.54 1501.95 Q1378.54 1500.11 1380.81 1500.11 Q1379.74 1498.46 1377.19 1498.46 Q1376.41 1498.46 1375.61 1498.7 Q1374.81 1498.92 1373.76 1499.68 Q1372.72 1500.45 1371.92 1501.65 Q1371.11 1502.86 1370.55 1505.12 Q1369.99 1507.39 1369.99 1510.34 L1369.99 1511.33 Q1371.67 1507.25 1375.13 1507.27 Q1378.58 1507.27 1380.97 1509.9 Q1383.36 1512.53 1383.36 1516.42 Q1383.36 1520.42 1380.87 1523.07 Q1378.38 1525.72 1374.89 1525.72 Q1373.32 1525.72 1371.9 1525.06 Q1370.49 1524.41 1369.17 1522.93 Q1367.86 1521.44 1367.08 1518.59 Q1366.3 1515.74 1366.3 1511.83 M1370.07 1515.52 Q1370.07 1519.56 1370.81 1521.48 Q1370.93 1521.8 1371.19 1522.25 Q1371.47 1522.69 1371.94 1523.27 Q1372.42 1523.83 1373.2 1524.21 Q1373.98 1524.57 1374.89 1524.57 Q1377.64 1524.57 1378.96 1521.9 Q1379.66 1520.42 1379.66 1516.38 Q1379.66 1512.27 1378.92 1510.76 Q1377.66 1508.22 1375.09 1508.22 Q1373.36 1508.22 1372.16 1509.4 Q1370.97 1510.58 1370.51 1512.17 Q1370.07 1513.75 1370.07 1515.52 Z" fill="#000000" fill-rule="nonzero" fill-opacity="1" /><path clip-path="url(#clip710)" d="M1695.1 1523.35 L1695.1 1521.77 Q1701.18 1521.77 1704.32 1518.53 Q1705.18 1518.53 1705.33 1518.73 Q1705.48 1518.92 1705.48 1519.84 L1705.48 1548.22 Q1705.48 1549.73 1706.22 1550.2 Q1706.96 1550.67 1710.2 1550.67 L1711.8 1550.67 L1711.8 1552.22 Q1710.02 1552.08 1703.6 1552.08 Q1697.18 1552.08 1695.42 1552.22 L1695.42 1550.67 L1697.03 1550.67 Q1700.22 1550.67 1700.98 1550.22 Q1701.75 1549.75 1701.75 1548.22 L1701.75 1522.01 Q1699.11 1523.35 1695.1 1523.35 Z" fill="#000000" fill-rule="nonzero" fill-opacity="1" /><path clip-path="url(#clip710)" d="M1720.97 1551.41 Q1720.2 1550.59 1720.2 1549.53 Q1720.2 1548.47 1720.97 1547.7 Q1721.73 1546.91 1722.9 1546.91 Q1724.01 1546.91 1724.75 1547.65 Q1725.51 1548.37 1725.51 1549.56 Q1725.51 1550.72 1724.7 1551.48 Q1723.91 1552.22 1722.9 1552.22 Q1721.73 1552.22 1720.97 1551.41 Z" fill="#000000" fill-rule="nonzero" fill-opacity="1" /><path clip-path="url(#clip710)" d="M1732.48 1544.07 Q1732.48 1542.57 1733.3 1542 Q1734.11 1541.4 1734.97 1541.4 Q1736.14 1541.4 1736.8 1542.15 Q1737.49 1542.86 1737.49 1543.87 Q1737.49 1544.89 1736.8 1545.63 Q1736.14 1546.35 1734.97 1546.35 Q1734.41 1546.35 1734.11 1546.25 Q1734.78 1548.57 1736.8 1550.25 Q1738.85 1551.93 1741.55 1551.93 Q1744.93 1551.93 1746.96 1548.64 Q1748.17 1546.52 1748.17 1541.7 Q1748.17 1537.45 1747.25 1535.33 Q1745.84 1532.09 1742.95 1532.09 Q1738.85 1532.09 1736.43 1535.62 Q1736.14 1536.07 1735.79 1536.09 Q1735.3 1536.09 1735.17 1535.82 Q1735.07 1535.53 1735.07 1534.76 L1735.07 1519.79 Q1735.07 1518.58 1735.57 1518.58 Q1735.77 1518.58 1736.19 1518.73 Q1739.37 1520.14 1742.9 1520.16 Q1746.54 1520.16 1749.8 1518.68 Q1750.04 1518.53 1750.19 1518.53 Q1750.69 1518.53 1750.71 1519.1 Q1750.71 1519.3 1750.29 1519.89 Q1749.9 1520.46 1749.03 1521.22 Q1748.17 1521.96 1747.05 1522.68 Q1745.94 1523.4 1744.31 1523.89 Q1742.71 1524.36 1740.93 1524.36 Q1738.8 1524.36 1736.63 1523.69 L1736.63 1533.55 Q1739.25 1530.98 1743.05 1530.98 Q1747.1 1530.98 1749.9 1534.24 Q1752.69 1537.5 1752.69 1542.05 Q1752.69 1546.81 1749.38 1550.08 Q1746.09 1553.34 1741.64 1553.34 Q1737.59 1553.34 1735.02 1550.45 Q1732.48 1547.56 1732.48 1544.07 Z" fill="#000000" fill-rule="nonzero" fill-opacity="1" /><path clip-path="url(#clip710)" d="M1757.23 1536.04 Q1757.23 1528.61 1759.11 1524.56 Q1761.73 1518.53 1767.9 1518.53 Q1769.21 1518.53 1770.57 1518.9 Q1771.96 1519.25 1773.69 1520.6 Q1775.44 1521.96 1776.5 1524.19 Q1778.53 1528.48 1778.53 1536.04 Q1778.53 1543.43 1776.65 1547.46 Q1773.91 1553.34 1767.86 1553.34 Q1765.58 1553.34 1763.26 1552.18 Q1760.96 1551.01 1759.51 1548.22 Q1757.23 1544.05 1757.23 1536.04 M1761.43 1535.43 Q1761.43 1543.06 1761.98 1546.1 Q1762.59 1549.38 1764.27 1550.82 Q1765.98 1552.22 1767.86 1552.22 Q1769.88 1552.22 1771.56 1550.72 Q1773.27 1549.19 1773.78 1545.9 Q1774.35 1542.66 1774.33 1535.43 Q1774.33 1528.39 1773.83 1525.57 Q1773.17 1522.28 1771.39 1520.97 Q1769.63 1519.64 1767.86 1519.64 Q1767.19 1519.64 1766.47 1519.84 Q1765.78 1520.04 1764.77 1520.6 Q1763.75 1521.17 1762.96 1522.58 Q1762.2 1523.99 1761.83 1526.11 Q1761.43 1528.86 1761.43 1535.43 Z" fill="#000000" fill-rule="nonzero" fill-opacity="1" /><path clip-path="url(#clip710)" d="M1812.12 1551.46 Q1811.88 1551.76 1811.43 1551.76 Q1811.01 1551.76 1810.72 1551.46 L1800.24 1540.98 L1789.77 1551.46 Q1789.47 1551.76 1789.03 1551.76 Q1788.61 1551.76 1788.33 1551.46 Q1788.04 1551.19 1788.04 1550.77 Q1788.04 1550.35 1788.33 1550.05 L1798.81 1539.58 L1788.33 1529.1 Q1788.04 1528.81 1788.04 1528.39 Q1788.04 1527.94 1788.33 1527.69 Q1788.61 1527.4 1789.03 1527.4 Q1789.47 1527.4 1789.77 1527.69 L1800.24 1538.17 L1810.72 1527.69 Q1811.01 1527.4 1811.43 1527.4 Q1811.88 1527.4 1812.12 1527.69 Q1812.42 1527.94 1812.42 1528.39 Q1812.42 1528.81 1812.12 1529.1 L1801.65 1539.58 L1812.12 1550.05 Q1812.42 1550.35 1812.42 1550.79 Q1812.42 1551.21 1812.12 1551.46 Z" fill="#000000" fill-rule="nonzero" fill-opacity="1" /><path clip-path="url(#clip710)" d="M1824.4 1523.35 L1824.4 1521.77 Q1830.48 1521.77 1833.62 1518.53 Q1834.48 1518.53 1834.63 1518.73 Q1834.78 1518.92 1834.78 1519.84 L1834.78 1548.22 Q1834.78 1549.73 1835.52 1550.2 Q1836.26 1550.67 1839.49 1550.67 L1841.1 1550.67 L1841.1 1552.22 Q1839.32 1552.08 1832.9 1552.08 Q1826.48 1552.08 1824.72 1552.22 L1824.72 1550.67 L1826.33 1550.67 Q1829.51 1550.67 1830.28 1550.22 Q1831.05 1549.75 1831.05 1548.22 L1831.05 1522.01 Q1828.4 1523.35 1824.4 1523.35 Z" fill="#000000" fill-rule="nonzero" fill-opacity="1" /><path clip-path="url(#clip710)" d="M1847.18 1536.04 Q1847.18 1528.61 1849.06 1524.56 Q1851.67 1518.53 1857.85 1518.53 Q1859.16 1518.53 1860.52 1518.9 Q1861.9 1519.25 1863.63 1520.6 Q1865.38 1521.96 1866.45 1524.19 Q1868.47 1528.48 1868.47 1536.04 Q1868.47 1543.43 1866.59 1547.46 Q1863.85 1553.34 1857.8 1553.34 Q1855.53 1553.34 1853.21 1552.18 Q1850.91 1551.01 1849.45 1548.22 Q1847.18 1544.05 1847.18 1536.04 M1851.38 1535.43 Q1851.38 1543.06 1851.92 1546.1 Q1852.54 1549.38 1854.22 1550.82 Q1855.92 1552.22 1857.8 1552.22 Q1859.83 1552.22 1861.51 1550.72 Q1863.21 1549.19 1863.73 1545.9 Q1864.3 1542.66 1864.27 1535.43 Q1864.27 1528.39 1863.78 1525.57 Q1863.11 1522.28 1861.33 1520.97 Q1859.58 1519.64 1857.8 1519.64 Q1857.13 1519.64 1856.42 1519.84 Q1855.73 1520.04 1854.71 1520.6 Q1853.7 1521.17 1852.91 1522.58 Q1852.14 1523.99 1851.77 1526.11 Q1851.38 1528.86 1851.38 1535.43 Z" fill="#000000" fill-rule="nonzero" fill-opacity="1" /><path clip-path="url(#clip710)" d="M1868.47 1511.83 Q1868.47 1505.37 1871.76 1501.41 Q1875.06 1497.44 1879.29 1497.44 Q1881.76 1497.44 1883.12 1498.7 Q1884.51 1499.95 1884.51 1501.87 Q1884.51 1502.94 1883.89 1503.4 Q1883.26 1503.86 1882.62 1503.86 Q1881.88 1503.86 1881.3 1503.36 Q1880.72 1502.86 1880.72 1501.95 Q1880.72 1500.11 1882.98 1500.11 Q1881.92 1498.46 1879.37 1498.46 Q1878.59 1498.46 1877.79 1498.7 Q1876.98 1498.92 1875.94 1499.68 Q1874.89 1500.45 1874.09 1501.65 Q1873.29 1502.86 1872.73 1505.12 Q1872.17 1507.39 1872.17 1510.34 L1872.17 1511.33 Q1873.85 1507.25 1877.3 1507.27 Q1880.76 1507.27 1883.14 1509.9 Q1885.53 1512.53 1885.53 1516.42 Q1885.53 1520.42 1883.04 1523.07 Q1880.55 1525.72 1877.06 1525.72 Q1875.5 1525.72 1874.07 1525.06 Q1872.67 1524.41 1871.34 1522.93 Q1870.04 1521.44 1869.25 1518.59 Q1868.47 1515.74 1868.47 1511.83 M1872.25 1515.52 Q1872.25 1519.56 1872.99 1521.48 Q1873.11 1521.8 1873.37 1522.25 Q1873.65 1522.69 1874.11 1523.27 Q1874.59 1523.83 1875.38 1524.21 Q1876.16 1524.57 1877.06 1524.57 Q1879.81 1524.57 1881.14 1521.9 Q1881.84 1520.42 1881.84 1516.38 Q1881.84 1512.27 1881.1 1510.76 Q1879.83 1508.22 1877.26 1508.22 Q1875.54 1508.22 1874.33 1509.4 Q1873.15 1510.58 1872.69 1512.17 Q1872.25 1513.75 1872.25 1515.52 Z" fill="#000000" fill-rule="nonzero" fill-opacity="1" /><path clip-path="url(#clip710)" d="M2196.29 1552.22 Q2196.29 1551.31 2196.37 1551.04 Q2196.47 1550.77 2196.86 1550.35 L2206.57 1539.53 Q2211.88 1533.55 2211.88 1528.34 Q2211.88 1524.95 2210.1 1522.53 Q2208.35 1520.11 2205.11 1520.11 Q2202.89 1520.11 2201.01 1521.47 Q2199.13 1522.83 2198.27 1525.25 Q2198.42 1525.2 2198.94 1525.2 Q2200.2 1525.2 2200.89 1525.99 Q2201.6 1526.78 2201.6 1527.84 Q2201.6 1529.2 2200.71 1529.87 Q2199.85 1530.51 2198.98 1530.51 Q2198.64 1530.51 2198.17 1530.44 Q2197.72 1530.36 2197.01 1529.67 Q2196.29 1528.95 2196.29 1527.69 Q2196.29 1524.16 2198.96 1521.35 Q2201.65 1518.53 2205.75 1518.53 Q2210.4 1518.53 2213.44 1521.3 Q2216.5 1524.04 2216.5 1528.34 Q2216.5 1529.84 2216.03 1531.23 Q2215.59 1532.59 2214.97 1533.65 Q2214.37 1534.71 2212.74 1536.41 Q2211.11 1538.12 2209.8 1539.33 Q2208.5 1540.54 2205.56 1543.11 L2200.2 1548.32 L2209.31 1548.32 Q2213.76 1548.32 2214.1 1547.93 Q2214.6 1547.21 2215.21 1543.43 L2216.5 1543.43 L2215.07 1552.22 L2196.29 1552.22 Z" fill="#000000" fill-rule="nonzero" fill-opacity="1" /><path clip-path="url(#clip710)" d="M2224.13 1551.41 Q2223.37 1550.59 2223.37 1549.53 Q2223.37 1548.47 2224.13 1547.7 Q2224.9 1546.91 2226.06 1546.91 Q2227.17 1546.91 2227.91 1547.65 Q2228.68 1548.37 2228.68 1549.56 Q2228.68 1550.72 2227.86 1551.48 Q2227.07 1552.22 2226.06 1552.22 Q2224.9 1552.22 2224.13 1551.41 Z" fill="#000000" fill-rule="nonzero" fill-opacity="1" /><path clip-path="url(#clip710)" d="M2235.1 1536.04 Q2235.1 1528.61 2236.98 1524.56 Q2239.6 1518.53 2245.77 1518.53 Q2247.08 1518.53 2248.44 1518.9 Q2249.82 1519.25 2251.55 1520.6 Q2253.31 1521.96 2254.37 1524.19 Q2256.4 1528.48 2256.4 1536.04 Q2256.4 1543.43 2254.52 1547.46 Q2251.78 1553.34 2245.72 1553.34 Q2243.45 1553.34 2241.13 1552.18 Q2238.83 1551.01 2237.37 1548.22 Q2235.1 1544.05 2235.1 1536.04 M2239.3 1535.43 Q2239.3 1543.06 2239.84 1546.1 Q2240.46 1549.38 2242.14 1550.82 Q2243.85 1552.22 2245.72 1552.22 Q2247.75 1552.22 2249.43 1550.72 Q2251.13 1549.19 2251.65 1545.9 Q2252.22 1542.66 2252.2 1535.43 Q2252.2 1528.39 2251.7 1525.57 Q2251.03 1522.28 2249.26 1520.97 Q2247.5 1519.64 2245.72 1519.64 Q2245.06 1519.64 2244.34 1519.84 Q2243.65 1520.04 2242.64 1520.6 Q2241.62 1521.17 2240.83 1522.58 Q2240.07 1523.99 2239.7 1526.11 Q2239.3 1528.86 2239.3 1535.43 Z" fill="#000000" fill-rule="nonzero" fill-opacity="1" /><path clip-path="url(#clip710)" d="M2260.4 1536.04 Q2260.4 1528.61 2262.27 1524.56 Q2264.89 1518.53 2271.07 1518.53 Q2272.38 1518.53 2273.74 1518.9 Q2275.12 1519.25 2276.85 1520.6 Q2278.6 1521.96 2279.67 1524.19 Q2281.69 1528.48 2281.69 1536.04 Q2281.69 1543.43 2279.81 1547.46 Q2277.07 1553.34 2271.02 1553.34 Q2268.75 1553.34 2266.42 1552.18 Q2264.13 1551.01 2262.67 1548.22 Q2260.4 1544.05 2260.4 1536.04 M2264.6 1535.43 Q2264.6 1543.06 2265.14 1546.1 Q2265.76 1549.38 2267.44 1550.82 Q2269.14 1552.22 2271.02 1552.22 Q2273.05 1552.22 2274.73 1550.72 Q2276.43 1549.19 2276.95 1545.9 Q2277.52 1542.66 2277.49 1535.43 Q2277.49 1528.39 2277 1525.57 Q2276.33 1522.28 2274.55 1520.97 Q2272.8 1519.64 2271.02 1519.64 Q2270.35 1519.64 2269.64 1519.84 Q2268.94 1520.04 2267.93 1520.6 Q2266.92 1521.17 2266.13 1522.58 Q2265.36 1523.99 2264.99 1526.11 Q2264.6 1528.86 2264.6 1535.43 Z" fill="#000000" fill-rule="nonzero" fill-opacity="1" /><path clip-path="url(#clip710)" d="M2315.29 1551.46 Q2315.04 1551.76 2314.6 1551.76 Q2314.18 1551.76 2313.88 1551.46 L2303.41 1540.98 L2292.93 1551.46 Q2292.64 1551.76 2292.19 1551.76 Q2291.77 1551.76 2291.5 1551.46 Q2291.2 1551.19 2291.2 1550.77 Q2291.2 1550.35 2291.5 1550.05 L2301.97 1539.58 L2291.5 1529.1 Q2291.2 1528.81 2291.2 1528.39 Q2291.2 1527.94 2291.5 1527.69 Q2291.77 1527.4 2292.19 1527.4 Q2292.64 1527.4 2292.93 1527.69 L2303.41 1538.17 L2313.88 1527.69 Q2314.18 1527.4 2314.6 1527.4 Q2315.04 1527.4 2315.29 1527.69 Q2315.58 1527.94 2315.58 1528.39 Q2315.58 1528.81 2315.29 1529.1 L2304.81 1539.58 L2315.29 1550.05 Q2315.58 1550.35 2315.58 1550.79 Q2315.58 1551.21 2315.29 1551.46 Z" fill="#000000" fill-rule="nonzero" fill-opacity="1" /><path clip-path="url(#clip710)" d="M2327.57 1523.35 L2327.57 1521.77 Q2333.64 1521.77 2336.78 1518.53 Q2337.64 1518.53 2337.79 1518.73 Q2337.94 1518.92 2337.94 1519.84 L2337.94 1548.22 Q2337.94 1549.73 2338.68 1550.2 Q2339.42 1550.67 2342.66 1550.67 L2344.27 1550.67 L2344.27 1552.22 Q2342.49 1552.08 2336.06 1552.08 Q2329.64 1552.08 2327.89 1552.22 L2327.89 1550.67 L2329.49 1550.67 Q2332.68 1550.67 2333.45 1550.22 Q2334.21 1549.75 2334.21 1548.22 L2334.21 1522.01 Q2331.57 1523.35 2327.57 1523.35 Z" fill="#000000" fill-rule="nonzero" fill-opacity="1" /><path clip-path="url(#clip710)" d="M2350.34 1536.04 Q2350.34 1528.61 2352.22 1524.56 Q2354.84 1518.53 2361.01 1518.53 Q2362.32 1518.53 2363.68 1518.9 Q2365.07 1519.25 2366.79 1520.6 Q2368.55 1521.96 2369.61 1524.19 Q2371.64 1528.48 2371.64 1536.04 Q2371.64 1543.43 2369.76 1547.46 Q2367.02 1553.34 2360.96 1553.34 Q2358.69 1553.34 2356.37 1552.18 Q2354.07 1551.01 2352.61 1548.22 Q2350.34 1544.05 2350.34 1536.04 M2354.54 1535.43 Q2354.54 1543.06 2355.09 1546.1 Q2355.7 1549.38 2357.38 1550.82 Q2359.09 1552.22 2360.96 1552.22 Q2362.99 1552.22 2364.67 1550.72 Q2366.37 1549.19 2366.89 1545.9 Q2367.46 1542.66 2367.44 1535.43 Q2367.44 1528.39 2366.94 1525.57 Q2366.28 1522.28 2364.5 1520.97 Q2362.74 1519.64 2360.96 1519.64 Q2360.3 1519.64 2359.58 1519.84 Q2358.89 1520.04 2357.88 1520.6 Q2356.86 1521.17 2356.07 1522.58 Q2355.31 1523.99 2354.94 1526.11 Q2354.54 1528.86 2354.54 1535.43 Z" fill="#000000" fill-rule="nonzero" fill-opacity="1" /><path clip-path="url(#clip710)" d="M2371.64 1511.83 Q2371.64 1505.37 2374.93 1501.41 Q2378.22 1497.44 2382.46 1497.44 Q2384.92 1497.44 2386.29 1498.7 Q2387.67 1499.95 2387.67 1501.87 Q2387.67 1502.94 2387.05 1503.4 Q2386.43 1503.86 2385.79 1503.86 Q2385.04 1503.86 2384.46 1503.36 Q2383.88 1502.86 2383.88 1501.95 Q2383.88 1500.11 2386.15 1500.11 Q2385.08 1498.46 2382.54 1498.46 Q2381.75 1498.46 2380.95 1498.7 Q2380.15 1498.92 2379.1 1499.68 Q2378.06 1500.45 2377.26 1501.65 Q2376.45 1502.86 2375.89 1505.12 Q2375.33 1507.39 2375.33 1510.34 L2375.33 1511.33 Q2377.02 1507.25 2380.47 1507.27 Q2383.92 1507.27 2386.31 1509.9 Q2388.7 1512.53 2388.7 1516.42 Q2388.7 1520.42 2386.21 1523.07 Q2383.72 1525.72 2380.23 1525.72 Q2378.66 1525.72 2377.24 1525.06 Q2375.83 1524.41 2374.51 1522.93 Q2373.2 1521.44 2372.42 1518.59 Q2371.64 1515.74 2371.64 1511.83 M2375.41 1515.52 Q2375.41 1519.56 2376.15 1521.48 Q2376.27 1521.8 2376.53 1522.25 Q2376.82 1522.69 2377.28 1523.27 Q2377.76 1523.83 2378.54 1524.21 Q2379.32 1524.57 2380.23 1524.57 Q2382.98 1524.57 2384.3 1521.9 Q2385 1520.42 2385 1516.38 Q2385 1512.27 2384.26 1510.76 Q2383 1508.22 2380.43 1508.22 Q2378.7 1508.22 2377.5 1509.4 Q2376.31 1510.58 2375.85 1512.17 Q2375.41 1513.75 2375.41 1515.52 Z" fill="#000000" fill-rule="nonzero" fill-opacity="1" /><polyline clip-path="url(#clip712)" style="stroke:#000000; stroke-linecap:round; stroke-linejoin:round; stroke-width:2; stroke-opacity:0.1; fill:none" points="223.528,1220.32 2352.76,1220.32 "/>
<polyline clip-path="url(#clip712)" style="stroke:#000000; stroke-linecap:round; stroke-linejoin:round; stroke-width:2; stroke-opacity:0.1; fill:none" points="223.528,963.894 2352.76,963.894 "/>
<polyline clip-path="url(#clip712)" style="stroke:#000000; stroke-linecap:round; stroke-linejoin:round; stroke-width:2; stroke-opacity:0.1; fill:none" points="223.528,707.466 2352.76,707.466 "/>
<polyline clip-path="url(#clip712)" style="stroke:#000000; stroke-linecap:round; stroke-linejoin:round; stroke-width:2; stroke-opacity:0.1; fill:none" points="223.528,451.039 2352.76,451.039 "/>
<polyline clip-path="url(#clip712)" style="stroke:#000000; stroke-linecap:round; stroke-linejoin:round; stroke-width:2; stroke-opacity:0.1; fill:none" points="223.528,194.612 2352.76,194.612 "/>
<polyline clip-path="url(#clip710)" style="stroke:#000000; stroke-linecap:round; stroke-linejoin:round; stroke-width:4; stroke-opacity:1; fill:none" points="223.528,1474.16 223.528,47.2441 "/>
<polyline clip-path="url(#clip710)" style="stroke:#000000; stroke-linecap:round; stroke-linejoin:round; stroke-width:4; stroke-opacity:1; fill:none" points="223.528,1220.32 242.425,1220.32 "/>
<polyline clip-path="url(#clip710)" style="stroke:#000000; stroke-linecap:round; stroke-linejoin:round; stroke-width:4; stroke-opacity:1; fill:none" points="223.528,963.894 242.425,963.894 "/>
<polyline clip-path="url(#clip710)" style="stroke:#000000; stroke-linecap:round; stroke-linejoin:round; stroke-width:4; stroke-opacity:1; fill:none" points="223.528,707.466 242.425,707.466 "/>
<polyline clip-path="url(#clip710)" style="stroke:#000000; stroke-linecap:round; stroke-linejoin:round; stroke-width:4; stroke-opacity:1; fill:none" points="223.528,451.039 242.425,451.039 "/>
<polyline clip-path="url(#clip710)" style="stroke:#000000; stroke-linecap:round; stroke-linejoin:round; stroke-width:4; stroke-opacity:1; fill:none" points="223.528,194.612 242.425,194.612 "/>
<path clip-path="url(#clip710)" d="M51.5356 1221.42 Q51.5356 1213.98 53.4131 1209.93 Q56.0316 1203.91 62.2075 1203.91 Q63.5167 1203.91 64.8754 1204.28 Q66.2588 1204.62 67.988 1205.98 Q69.742 1207.34 70.8042 1209.56 Q72.8299 1213.86 72.8299 1221.42 Q72.8299 1228.81 70.9524 1232.83 Q68.2104 1238.71 62.158 1238.71 Q59.8853 1238.71 57.5632 1237.55 Q55.2658 1236.39 53.8083 1233.6 Q51.5356 1229.42 51.5356 1221.42 M55.7352 1220.8 Q55.7352 1228.44 56.2786 1231.47 Q56.8962 1234.76 58.5761 1236.19 Q60.2806 1237.6 62.158 1237.6 Q64.1837 1237.6 65.8635 1236.09 Q67.5681 1234.56 68.0869 1231.28 Q68.655 1228.04 68.6303 1220.8 Q68.6303 1213.76 68.1363 1210.95 Q67.4693 1207.66 65.6906 1206.35 Q63.9367 1205.02 62.158 1205.02 Q61.4911 1205.02 60.7747 1205.21 Q60.083 1205.41 59.0701 1205.98 Q58.0573 1206.55 57.2668 1207.96 Q56.501 1209.37 56.1304 1211.49 Q55.7352 1214.23 55.7352 1220.8 Z" fill="#000000" fill-rule="nonzero" fill-opacity="1" /><path clip-path="url(#clip710)" d="M79.9198 1236.79 Q79.154 1235.97 79.154 1234.91 Q79.154 1233.85 79.9198 1233.08 Q80.6856 1232.29 81.8466 1232.29 Q82.9583 1232.29 83.6994 1233.03 Q84.4652 1233.75 84.4652 1234.93 Q84.4652 1236.09 83.65 1236.86 Q82.8595 1237.6 81.8466 1237.6 Q80.6856 1237.6 79.9198 1236.79 Z" fill="#000000" fill-rule="nonzero" fill-opacity="1" /><path clip-path="url(#clip710)" d="M90.8881 1221.42 Q90.8881 1213.98 92.7655 1209.93 Q95.3841 1203.91 101.56 1203.91 Q102.869 1203.91 104.228 1204.28 Q105.611 1204.62 107.34 1205.98 Q109.094 1207.34 110.157 1209.56 Q112.182 1213.86 112.182 1221.42 Q112.182 1228.81 110.305 1232.83 Q107.563 1238.71 101.51 1238.71 Q99.2378 1238.71 96.9157 1237.55 Q94.6183 1236.39 93.1608 1233.6 Q90.8881 1229.42 90.8881 1221.42 M95.0876 1220.8 Q95.0876 1228.44 95.6311 1231.47 Q96.2487 1234.76 97.9285 1236.19 Q99.633 1237.6 101.51 1237.6 Q103.536 1237.6 105.216 1236.09 Q106.921 1234.56 107.439 1231.28 Q108.007 1228.04 107.983 1220.8 Q107.983 1213.76 107.489 1210.95 Q106.822 1207.66 105.043 1206.35 Q103.289 1205.02 101.51 1205.02 Q100.844 1205.02 100.127 1205.21 Q99.4354 1205.41 98.4226 1205.98 Q97.4097 1206.55 96.6192 1207.96 Q95.8534 1209.37 95.4829 1211.49 Q95.0876 1214.23 95.0876 1220.8 Z" fill="#000000" fill-rule="nonzero" fill-opacity="1" /><path clip-path="url(#clip710)" d="M116.184 1221.42 Q116.184 1213.98 118.062 1209.93 Q120.68 1203.91 126.856 1203.91 Q128.165 1203.91 129.524 1204.28 Q130.907 1204.62 132.637 1205.98 Q134.391 1207.34 135.453 1209.56 Q137.479 1213.86 137.479 1221.42 Q137.479 1228.81 135.601 1232.83 Q132.859 1238.71 126.807 1238.71 Q124.534 1238.71 122.212 1237.55 Q119.914 1236.39 118.457 1233.6 Q116.184 1229.42 116.184 1221.42 M120.384 1220.8 Q120.384 1228.44 120.927 1231.47 Q121.545 1234.76 123.225 1236.19 Q124.929 1237.6 126.807 1237.6 Q128.832 1237.6 130.512 1236.09 Q132.217 1234.56 132.736 1231.28 Q133.304 1228.04 133.279 1220.8 Q133.279 1213.76 132.785 1210.95 Q132.118 1207.66 130.339 1206.35 Q128.585 1205.02 126.807 1205.02 Q126.14 1205.02 125.423 1205.21 Q124.732 1205.41 123.719 1205.98 Q122.706 1206.55 121.915 1207.96 Q121.15 1209.37 120.779 1211.49 Q120.384 1214.23 120.384 1220.8 Z" fill="#000000" fill-rule="nonzero" fill-opacity="1" /><path clip-path="url(#clip710)" d="M141.481 1221.42 Q141.481 1213.98 143.358 1209.93 Q145.977 1203.91 152.152 1203.91 Q153.462 1203.91 154.82 1204.28 Q156.204 1204.62 157.933 1205.98 Q159.687 1207.34 160.749 1209.56 Q162.775 1213.86 162.775 1221.42 Q162.775 1228.81 160.897 1232.83 Q158.155 1238.71 152.103 1238.71 Q149.83 1238.71 147.508 1237.55 Q145.211 1236.39 143.753 1233.6 Q141.481 1229.42 141.481 1221.42 M145.68 1220.8 Q145.68 1228.44 146.224 1231.47 Q146.841 1234.76 148.521 1236.19 Q150.226 1237.6 152.103 1237.6 Q154.129 1237.6 155.808 1236.09 Q157.513 1234.56 158.032 1231.28 Q158.6 1228.04 158.575 1220.8 Q158.575 1213.76 158.081 1210.95 Q157.414 1207.66 155.636 1206.35 Q153.882 1205.02 152.103 1205.02 Q151.436 1205.02 150.72 1205.21 Q150.028 1205.41 149.015 1205.98 Q148.002 1206.55 147.212 1207.96 Q146.446 1209.37 146.075 1211.49 Q145.68 1214.23 145.68 1220.8 Z" fill="#000000" fill-rule="nonzero" fill-opacity="1" /><path clip-path="url(#clip710)" d="M167.32 1229.45 Q167.32 1227.94 168.135 1227.37 Q168.951 1226.78 169.815 1226.78 Q170.976 1226.78 171.643 1227.52 Q172.335 1228.24 172.335 1229.25 Q172.335 1230.26 171.643 1231.01 Q170.976 1231.72 169.815 1231.72 Q169.247 1231.72 168.951 1231.62 Q169.618 1233.94 171.643 1235.62 Q173.694 1237.3 176.386 1237.3 Q179.771 1237.3 181.796 1234.02 Q183.007 1231.89 183.007 1227.08 Q183.007 1222.83 182.093 1220.7 Q180.685 1217.47 177.794 1217.47 Q173.694 1217.47 171.273 1221 Q170.976 1221.45 170.63 1221.47 Q170.136 1221.47 170.013 1221.2 Q169.914 1220.9 169.914 1220.14 L169.914 1205.17 Q169.914 1203.96 170.408 1203.96 Q170.606 1203.96 171.026 1204.1 Q174.212 1205.51 177.745 1205.54 Q181.376 1205.54 184.637 1204.05 Q184.884 1203.91 185.033 1203.91 Q185.527 1203.91 185.551 1204.47 Q185.551 1204.67 185.131 1205.26 Q184.736 1205.83 183.871 1206.6 Q183.007 1207.34 181.895 1208.06 Q180.784 1208.77 179.153 1209.27 Q177.547 1209.74 175.769 1209.74 Q173.644 1209.74 171.47 1209.07 L171.47 1218.93 Q174.089 1216.36 177.893 1216.36 Q181.945 1216.36 184.736 1219.62 Q187.528 1222.88 187.528 1227.42 Q187.528 1232.19 184.217 1235.45 Q180.932 1238.71 176.485 1238.71 Q172.434 1238.71 169.865 1235.82 Q167.32 1232.93 167.32 1229.45 Z" fill="#000000" fill-rule="nonzero" fill-opacity="1" /><path clip-path="url(#clip710)" d="M50.9921 964.993 Q50.9921 957.557 52.8696 953.506 Q55.4881 947.478 61.664 947.478 Q62.9733 947.478 64.3319 947.849 Q65.7153 948.195 67.4446 949.553 Q69.1985 950.912 70.2607 953.135 Q72.2864 957.434 72.2864 964.993 Q72.2864 972.379 70.409 976.406 Q67.6669 982.285 61.6146 982.285 Q59.3419 982.285 57.0197 981.124 Q54.7223 979.963 53.2648 977.172 Q50.9921 972.997 50.9921 964.993 M55.1917 964.375 Q55.1917 972.009 55.7352 975.047 Q56.3528 978.333 58.0326 979.766 Q59.7371 981.174 61.6146 981.174 Q63.6402 981.174 65.3201 979.667 Q67.0246 978.135 67.5434 974.85 Q68.1116 971.613 68.0869 964.375 Q68.0869 957.335 67.5928 954.519 Q66.9258 951.233 65.1472 949.924 Q63.3932 948.59 61.6146 948.59 Q60.9476 948.59 60.2312 948.788 Q59.5395 948.985 58.5267 949.553 Q57.5138 950.122 56.7233 951.53 Q55.9575 952.938 55.587 955.062 Q55.1917 957.804 55.1917 964.375 Z" fill="#000000" fill-rule="nonzero" fill-opacity="1" /><path clip-path="url(#clip710)" d="M79.3763 980.358 Q78.6105 979.543 78.6105 978.481 Q78.6105 977.419 79.3763 976.653 Q80.1421 975.862 81.3031 975.862 Q82.4148 975.862 83.1559 976.604 Q83.9217 977.32 83.9217 978.506 Q83.9217 979.667 83.1065 980.433 Q82.316 981.174 81.3031 981.174 Q80.1421 981.174 79.3763 980.358 Z" fill="#000000" fill-rule="nonzero" fill-opacity="1" /><path clip-path="url(#clip710)" d="M90.3446 964.993 Q90.3446 957.557 92.222 953.506 Q94.8406 947.478 101.016 947.478 Q102.326 947.478 103.684 947.849 Q105.068 948.195 106.797 949.553 Q108.551 950.912 109.613 953.135 Q111.639 957.434 111.639 964.993 Q111.639 972.379 109.761 976.406 Q107.019 982.285 100.967 982.285 Q98.6943 982.285 96.3722 981.124 Q94.0748 979.963 92.6173 977.172 Q90.3446 972.997 90.3446 964.993 M94.5441 964.375 Q94.5441 972.009 95.0876 975.047 Q95.7052 978.333 97.385 979.766 Q99.0896 981.174 100.967 981.174 Q102.993 981.174 104.673 979.667 Q106.377 978.135 106.896 974.85 Q107.464 971.613 107.439 964.375 Q107.439 957.335 106.945 954.519 Q106.278 951.233 104.5 949.924 Q102.746 948.59 100.967 948.59 Q100.3 948.59 99.5836 948.788 Q98.8919 948.985 97.8791 949.553 Q96.8663 950.122 96.0758 951.53 Q95.31 952.938 94.9394 955.062 Q94.5441 957.804 94.5441 964.375 Z" fill="#000000" fill-rule="nonzero" fill-opacity="1" /><path clip-path="url(#clip710)" d="M115.641 964.993 Q115.641 957.557 117.518 953.506 Q120.137 947.478 126.313 947.478 Q127.622 947.478 128.981 947.849 Q130.364 948.195 132.093 949.553 Q133.847 950.912 134.909 953.135 Q136.935 957.434 136.935 964.993 Q136.935 972.379 135.058 976.406 Q132.316 982.285 126.263 982.285 Q123.991 982.285 121.668 981.124 Q119.371 979.963 117.914 977.172 Q115.641 972.997 115.641 964.993 M119.84 964.375 Q119.84 972.009 120.384 975.047 Q121.001 978.333 122.681 979.766 Q124.386 981.174 126.263 981.174 Q128.289 981.174 129.969 979.667 Q131.673 978.135 132.192 974.85 Q132.76 971.613 132.736 964.375 Q132.736 957.335 132.241 954.519 Q131.574 951.233 129.796 949.924 Q128.042 948.59 126.263 948.59 Q125.596 948.59 124.88 948.788 Q124.188 948.985 123.175 949.553 Q122.163 950.122 121.372 951.53 Q120.606 952.938 120.236 955.062 Q119.84 957.804 119.84 964.375 Z" fill="#000000" fill-rule="nonzero" fill-opacity="1" /><path clip-path="url(#clip710)" d="M143.457 952.295 L143.457 950.714 Q149.534 950.714 152.671 947.478 Q153.536 947.478 153.684 947.676 Q153.832 947.874 153.832 948.788 L153.832 977.172 Q153.832 978.679 154.573 979.148 Q155.314 979.617 158.551 979.617 L160.156 979.617 L160.156 981.174 Q158.378 981.025 151.955 981.025 Q145.532 981.025 143.778 981.174 L143.778 979.617 L145.384 979.617 Q148.57 979.617 149.336 979.173 Q150.102 978.703 150.102 977.172 L150.102 950.961 Q147.459 952.295 143.457 952.295 Z" fill="#000000" fill-rule="nonzero" fill-opacity="1" /><path clip-path="url(#clip710)" d="M166.233 964.993 Q166.233 957.557 168.111 953.506 Q170.729 947.478 176.905 947.478 Q178.214 947.478 179.573 947.849 Q180.957 948.195 182.686 949.553 Q184.44 950.912 185.502 953.135 Q187.528 957.434 187.528 964.993 Q187.528 972.379 185.65 976.406 Q182.908 982.285 176.856 982.285 Q174.583 982.285 172.261 981.124 Q169.964 979.963 168.506 977.172 Q166.233 972.997 166.233 964.993 M170.433 964.375 Q170.433 972.009 170.976 975.047 Q171.594 978.333 173.274 979.766 Q174.978 981.174 176.856 981.174 Q178.881 981.174 180.561 979.667 Q182.266 978.135 182.785 974.85 Q183.353 971.613 183.328 964.375 Q183.328 957.335 182.834 954.519 Q182.167 951.233 180.388 949.924 Q178.634 948.59 176.856 948.59 Q176.189 948.59 175.472 948.788 Q174.781 948.985 173.768 949.553 Q172.755 950.122 171.964 951.53 Q171.199 952.938 170.828 955.062 Q170.433 957.804 170.433 964.375 Z" fill="#000000" fill-rule="nonzero" fill-opacity="1" /><path clip-path="url(#clip710)" d="M51.5356 708.566 Q51.5356 701.13 53.4131 697.079 Q56.0316 691.051 62.2075 691.051 Q63.5167 691.051 64.8754 691.421 Q66.2588 691.767 67.988 693.126 Q69.742 694.485 70.8042 696.708 Q72.8299 701.006 72.8299 708.566 Q72.8299 715.952 70.9524 719.979 Q68.2104 725.858 62.158 725.858 Q59.8853 725.858 57.5632 724.697 Q55.2658 723.536 53.8083 720.744 Q51.5356 716.569 51.5356 708.566 M55.7352 707.948 Q55.7352 715.581 56.2786 718.62 Q56.8962 721.905 58.5761 723.338 Q60.2806 724.746 62.158 724.746 Q64.1837 724.746 65.8635 723.239 Q67.5681 721.708 68.0869 718.422 Q68.655 715.186 68.6303 707.948 Q68.6303 700.908 68.1363 698.091 Q67.4693 694.806 65.6906 693.497 Q63.9367 692.163 62.158 692.163 Q61.4911 692.163 60.7747 692.36 Q60.083 692.558 59.0701 693.126 Q58.0573 693.694 57.2668 695.102 Q56.501 696.51 56.1304 698.635 Q55.7352 701.377 55.7352 707.948 Z" fill="#000000" fill-rule="nonzero" fill-opacity="1" /><path clip-path="url(#clip710)" d="M79.9198 723.931 Q79.154 723.116 79.154 722.054 Q79.154 720.991 79.9198 720.226 Q80.6856 719.435 81.8466 719.435 Q82.9583 719.435 83.6994 720.176 Q84.4652 720.893 84.4652 722.078 Q84.4652 723.239 83.65 724.005 Q82.8595 724.746 81.8466 724.746 Q80.6856 724.746 79.9198 723.931 Z" fill="#000000" fill-rule="nonzero" fill-opacity="1" /><path clip-path="url(#clip710)" d="M90.8881 708.566 Q90.8881 701.13 92.7655 697.079 Q95.3841 691.051 101.56 691.051 Q102.869 691.051 104.228 691.421 Q105.611 691.767 107.34 693.126 Q109.094 694.485 110.157 696.708 Q112.182 701.006 112.182 708.566 Q112.182 715.952 110.305 719.979 Q107.563 725.858 101.51 725.858 Q99.2378 725.858 96.9157 724.697 Q94.6183 723.536 93.1608 720.744 Q90.8881 716.569 90.8881 708.566 M95.0876 707.948 Q95.0876 715.581 95.6311 718.62 Q96.2487 721.905 97.9285 723.338 Q99.633 724.746 101.51 724.746 Q103.536 724.746 105.216 723.239 Q106.921 721.708 107.439 718.422 Q108.007 715.186 107.983 707.948 Q107.983 700.908 107.489 698.091 Q106.822 694.806 105.043 693.497 Q103.289 692.163 101.51 692.163 Q100.844 692.163 100.127 692.36 Q99.4354 692.558 98.4226 693.126 Q97.4097 693.694 96.6192 695.102 Q95.8534 696.51 95.4829 698.635 Q95.0876 701.377 95.0876 707.948 Z" fill="#000000" fill-rule="nonzero" fill-opacity="1" /><path clip-path="url(#clip710)" d="M116.184 708.566 Q116.184 701.13 118.062 697.079 Q120.68 691.051 126.856 691.051 Q128.165 691.051 129.524 691.421 Q130.907 691.767 132.637 693.126 Q134.391 694.485 135.453 696.708 Q137.479 701.006 137.479 708.566 Q137.479 715.952 135.601 719.979 Q132.859 725.858 126.807 725.858 Q124.534 725.858 122.212 724.697 Q119.914 723.536 118.457 720.744 Q116.184 716.569 116.184 708.566 M120.384 707.948 Q120.384 715.581 120.927 718.62 Q121.545 721.905 123.225 723.338 Q124.929 724.746 126.807 724.746 Q128.832 724.746 130.512 723.239 Q132.217 721.708 132.736 718.422 Q133.304 715.186 133.279 707.948 Q133.279 700.908 132.785 698.091 Q132.118 694.806 130.339 693.497 Q128.585 692.163 126.807 692.163 Q126.14 692.163 125.423 692.36 Q124.732 692.558 123.719 693.126 Q122.706 693.694 121.915 695.102 Q121.15 696.51 120.779 698.635 Q120.384 701.377 120.384 707.948 Z" fill="#000000" fill-rule="nonzero" fill-opacity="1" /><path clip-path="url(#clip710)" d="M144 695.868 L144 694.287 Q150.077 694.287 153.215 691.051 Q154.079 691.051 154.227 691.249 Q154.376 691.446 154.376 692.36 L154.376 720.744 Q154.376 722.251 155.117 722.721 Q155.858 723.19 159.094 723.19 L160.7 723.19 L160.7 724.746 Q158.921 724.598 152.498 724.598 Q146.075 724.598 144.321 724.746 L144.321 723.19 L145.927 723.19 Q149.114 723.19 149.88 722.745 Q150.645 722.276 150.645 720.744 L150.645 694.534 Q148.002 695.868 144 695.868 Z" fill="#000000" fill-rule="nonzero" fill-opacity="1" /><path clip-path="url(#clip710)" d="M167.32 716.594 Q167.32 715.087 168.135 714.519 Q168.951 713.926 169.815 713.926 Q170.976 713.926 171.643 714.667 Q172.335 715.384 172.335 716.397 Q172.335 717.409 171.643 718.15 Q170.976 718.867 169.815 718.867 Q169.247 718.867 168.951 718.768 Q169.618 721.09 171.643 722.77 Q173.694 724.45 176.386 724.45 Q179.771 724.45 181.796 721.164 Q183.007 719.04 183.007 714.223 Q183.007 709.974 182.093 707.849 Q180.685 704.613 177.794 704.613 Q173.694 704.613 171.273 708.146 Q170.976 708.59 170.63 708.615 Q170.136 708.615 170.013 708.343 Q169.914 708.047 169.914 707.281 L169.914 692.311 Q169.914 691.1 170.408 691.1 Q170.606 691.1 171.026 691.249 Q174.212 692.657 177.745 692.681 Q181.376 692.681 184.637 691.199 Q184.884 691.051 185.033 691.051 Q185.527 691.051 185.551 691.619 Q185.551 691.817 185.131 692.41 Q184.736 692.978 183.871 693.744 Q183.007 694.485 181.895 695.201 Q180.784 695.917 179.153 696.412 Q177.547 696.881 175.769 696.881 Q173.644 696.881 171.47 696.214 L171.47 706.071 Q174.089 703.501 177.893 703.501 Q181.945 703.501 184.736 706.762 Q187.528 710.023 187.528 714.569 Q187.528 719.336 184.217 722.597 Q180.932 725.858 176.485 725.858 Q172.434 725.858 169.865 722.968 Q167.32 720.077 167.32 716.594 Z" fill="#000000" fill-rule="nonzero" fill-opacity="1" /><path clip-path="url(#clip710)" d="M50.9921 452.138 Q50.9921 444.702 52.8696 440.651 Q55.4881 434.624 61.664 434.624 Q62.9733 434.624 64.3319 434.994 Q65.7153 435.34 67.4446 436.699 Q69.1985 438.057 70.2607 440.281 Q72.2864 444.579 72.2864 452.138 Q72.2864 459.525 70.409 463.551 Q67.6669 469.431 61.6146 469.431 Q59.3419 469.431 57.0197 468.27 Q54.7223 467.108 53.2648 464.317 Q50.9921 460.142 50.9921 452.138 M55.1917 451.521 Q55.1917 459.154 55.7352 462.192 Q56.3528 465.478 58.0326 466.911 Q59.7371 468.319 61.6146 468.319 Q63.6402 468.319 65.3201 466.812 Q67.0246 465.28 67.5434 461.995 Q68.1116 458.759 68.0869 451.521 Q68.0869 444.48 67.5928 441.664 Q66.9258 438.378 65.1472 437.069 Q63.3932 435.735 61.6146 435.735 Q60.9476 435.735 60.2312 435.933 Q59.5395 436.13 58.5267 436.699 Q57.5138 437.267 56.7233 438.675 Q55.9575 440.083 55.587 442.207 Q55.1917 444.95 55.1917 451.521 Z" fill="#000000" fill-rule="nonzero" fill-opacity="1" /><path clip-path="url(#clip710)" d="M79.3763 467.504 Q78.6105 466.688 78.6105 465.626 Q78.6105 464.564 79.3763 463.798 Q80.1421 463.008 81.3031 463.008 Q82.4148 463.008 83.1559 463.749 Q83.9217 464.465 83.9217 465.651 Q83.9217 466.812 83.1065 467.578 Q82.316 468.319 81.3031 468.319 Q80.1421 468.319 79.3763 467.504 Z" fill="#000000" fill-rule="nonzero" fill-opacity="1" /><path clip-path="url(#clip710)" d="M90.3446 452.138 Q90.3446 444.702 92.222 440.651 Q94.8406 434.624 101.016 434.624 Q102.326 434.624 103.684 434.994 Q105.068 435.34 106.797 436.699 Q108.551 438.057 109.613 440.281 Q111.639 444.579 111.639 452.138 Q111.639 459.525 109.761 463.551 Q107.019 469.431 100.967 469.431 Q98.6943 469.431 96.3722 468.27 Q94.0748 467.108 92.6173 464.317 Q90.3446 460.142 90.3446 452.138 M94.5441 451.521 Q94.5441 459.154 95.0876 462.192 Q95.7052 465.478 97.385 466.911 Q99.0896 468.319 100.967 468.319 Q102.993 468.319 104.673 466.812 Q106.377 465.28 106.896 461.995 Q107.464 458.759 107.439 451.521 Q107.439 444.48 106.945 441.664 Q106.278 438.378 104.5 437.069 Q102.746 435.735 100.967 435.735 Q100.3 435.735 99.5836 435.933 Q98.8919 436.13 97.8791 436.699 Q96.8663 437.267 96.0758 438.675 Q95.31 440.083 94.9394 442.207 Q94.5441 444.95 94.5441 451.521 Z" fill="#000000" fill-rule="nonzero" fill-opacity="1" /><path clip-path="url(#clip710)" d="M115.641 452.138 Q115.641 444.702 117.518 440.651 Q120.137 434.624 126.313 434.624 Q127.622 434.624 128.981 434.994 Q130.364 435.34 132.093 436.699 Q133.847 438.057 134.909 440.281 Q136.935 444.579 136.935 452.138 Q136.935 459.525 135.058 463.551 Q132.316 469.431 126.263 469.431 Q123.991 469.431 121.668 468.27 Q119.371 467.108 117.914 464.317 Q115.641 460.142 115.641 452.138 M119.84 451.521 Q119.84 459.154 120.384 462.192 Q121.001 465.478 122.681 466.911 Q124.386 468.319 126.263 468.319 Q128.289 468.319 129.969 466.812 Q131.673 465.28 132.192 461.995 Q132.76 458.759 132.736 451.521 Q132.736 444.48 132.241 441.664 Q131.574 438.378 129.796 437.069 Q128.042 435.735 126.263 435.735 Q125.596 435.735 124.88 435.933 Q124.188 436.13 123.175 436.699 Q122.163 437.267 121.372 438.675 Q120.606 440.083 120.236 442.207 Q119.84 444.95 119.84 451.521 Z" fill="#000000" fill-rule="nonzero" fill-opacity="1" /><path clip-path="url(#clip710)" d="M141.481 468.319 Q141.481 467.405 141.555 467.133 Q141.653 466.861 142.049 466.441 L151.757 455.621 Q157.068 449.643 157.068 444.431 Q157.068 441.046 155.29 438.625 Q153.536 436.205 150.3 436.205 Q148.076 436.205 146.199 437.563 Q144.321 438.922 143.457 441.343 Q143.605 441.293 144.124 441.293 Q145.384 441.293 146.075 442.084 Q146.792 442.874 146.792 443.937 Q146.792 445.295 145.902 445.962 Q145.038 446.605 144.173 446.605 Q143.827 446.605 143.358 446.531 Q142.913 446.456 142.197 445.765 Q141.481 445.048 141.481 443.788 Q141.481 440.256 144.148 437.44 Q146.841 434.624 150.942 434.624 Q155.586 434.624 158.625 437.39 Q161.688 440.132 161.688 444.431 Q161.688 445.938 161.219 447.321 Q160.774 448.68 160.156 449.742 Q159.563 450.804 157.933 452.509 Q156.303 454.213 154.993 455.424 Q153.684 456.634 150.744 459.203 L145.384 464.416 L154.499 464.416 Q158.946 464.416 159.292 464.021 Q159.786 463.304 160.403 459.525 L161.688 459.525 L160.255 468.319 L141.481 468.319 Z" fill="#000000" fill-rule="nonzero" fill-opacity="1" /><path clip-path="url(#clip710)" d="M166.233 452.138 Q166.233 444.702 168.111 440.651 Q170.729 434.624 176.905 434.624 Q178.214 434.624 179.573 434.994 Q180.957 435.34 182.686 436.699 Q184.44 438.057 185.502 440.281 Q187.528 444.579 187.528 452.138 Q187.528 459.525 185.65 463.551 Q182.908 469.431 176.856 469.431 Q174.583 469.431 172.261 468.27 Q169.964 467.108 168.506 464.317 Q166.233 460.142 166.233 452.138 M170.433 451.521 Q170.433 459.154 170.976 462.192 Q171.594 465.478 173.274 466.911 Q174.978 468.319 176.856 468.319 Q178.881 468.319 180.561 466.812 Q182.266 465.28 182.785 461.995 Q183.353 458.759 183.328 451.521 Q183.328 444.48 182.834 441.664 Q182.167 438.378 180.388 437.069 Q178.634 435.735 176.856 435.735 Q176.189 435.735 175.472 435.933 Q174.781 436.13 173.768 436.699 Q172.755 437.267 171.964 438.675 Q171.199 440.083 170.828 442.207 Q170.433 444.95 170.433 451.521 Z" fill="#000000" fill-rule="nonzero" fill-opacity="1" /><path clip-path="url(#clip710)" d="M51.5356 195.711 Q51.5356 188.275 53.4131 184.224 Q56.0316 178.196 62.2075 178.196 Q63.5167 178.196 64.8754 178.567 Q66.2588 178.913 67.988 180.271 Q69.742 181.63 70.8042 183.853 Q72.8299 188.152 72.8299 195.711 Q72.8299 203.097 70.9524 207.124 Q68.2104 213.003 62.158 213.003 Q59.8853 213.003 57.5632 211.842 Q55.2658 210.681 53.8083 207.89 Q51.5356 203.715 51.5356 195.711 M55.7352 195.093 Q55.7352 202.727 56.2786 205.765 Q56.8962 209.051 58.5761 210.483 Q60.2806 211.892 62.158 211.892 Q64.1837 211.892 65.8635 210.385 Q67.5681 208.853 68.0869 205.567 Q68.655 202.331 68.6303 195.093 Q68.6303 188.053 68.1363 185.237 Q67.4693 181.951 65.6906 180.642 Q63.9367 179.308 62.158 179.308 Q61.4911 179.308 60.7747 179.505 Q60.083 179.703 59.0701 180.271 Q58.0573 180.839 57.2668 182.248 Q56.501 183.656 56.1304 185.78 Q55.7352 188.522 55.7352 195.093 Z" fill="#000000" fill-rule="nonzero" fill-opacity="1" /><path clip-path="url(#clip710)" d="M79.9198 211.076 Q79.154 210.261 79.154 209.199 Q79.154 208.137 79.9198 207.371 Q80.6856 206.58 81.8466 206.58 Q82.9583 206.58 83.6994 207.321 Q84.4652 208.038 84.4652 209.224 Q84.4652 210.385 83.65 211.15 Q82.8595 211.892 81.8466 211.892 Q80.6856 211.892 79.9198 211.076 Z" fill="#000000" fill-rule="nonzero" fill-opacity="1" /><path clip-path="url(#clip710)" d="M90.8881 195.711 Q90.8881 188.275 92.7655 184.224 Q95.3841 178.196 101.56 178.196 Q102.869 178.196 104.228 178.567 Q105.611 178.913 107.34 180.271 Q109.094 181.63 110.157 183.853 Q112.182 188.152 112.182 195.711 Q112.182 203.097 110.305 207.124 Q107.563 213.003 101.51 213.003 Q99.2378 213.003 96.9157 211.842 Q94.6183 210.681 93.1608 207.89 Q90.8881 203.715 90.8881 195.711 M95.0876 195.093 Q95.0876 202.727 95.6311 205.765 Q96.2487 209.051 97.9285 210.483 Q99.633 211.892 101.51 211.892 Q103.536 211.892 105.216 210.385 Q106.921 208.853 107.439 205.567 Q108.007 202.331 107.983 195.093 Q107.983 188.053 107.489 185.237 Q106.822 181.951 105.043 180.642 Q103.289 179.308 101.51 179.308 Q100.844 179.308 100.127 179.505 Q99.4354 179.703 98.4226 180.271 Q97.4097 180.839 96.6192 182.248 Q95.8534 183.656 95.4829 185.78 Q95.0876 188.522 95.0876 195.093 Z" fill="#000000" fill-rule="nonzero" fill-opacity="1" /><path clip-path="url(#clip710)" d="M116.184 195.711 Q116.184 188.275 118.062 184.224 Q120.68 178.196 126.856 178.196 Q128.165 178.196 129.524 178.567 Q130.907 178.913 132.637 180.271 Q134.391 181.63 135.453 183.853 Q137.479 188.152 137.479 195.711 Q137.479 203.097 135.601 207.124 Q132.859 213.003 126.807 213.003 Q124.534 213.003 122.212 211.842 Q119.914 210.681 118.457 207.89 Q116.184 203.715 116.184 195.711 M120.384 195.093 Q120.384 202.727 120.927 205.765 Q121.545 209.051 123.225 210.483 Q124.929 211.892 126.807 211.892 Q128.832 211.892 130.512 210.385 Q132.217 208.853 132.736 205.567 Q133.304 202.331 133.279 195.093 Q133.279 188.053 132.785 185.237 Q132.118 181.951 130.339 180.642 Q128.585 179.308 126.807 179.308 Q126.14 179.308 125.423 179.505 Q124.732 179.703 123.719 180.271 Q122.706 180.839 121.915 182.248 Q121.15 183.656 120.779 185.78 Q120.384 188.522 120.384 195.093 Z" fill="#000000" fill-rule="nonzero" fill-opacity="1" /><path clip-path="url(#clip710)" d="M142.024 211.892 Q142.024 210.978 142.098 210.706 Q142.197 210.434 142.592 210.014 L152.301 199.194 Q157.612 193.216 157.612 188.003 Q157.612 184.619 155.833 182.198 Q154.079 179.777 150.843 179.777 Q148.62 179.777 146.742 181.136 Q144.865 182.495 144 184.915 Q144.148 184.866 144.667 184.866 Q145.927 184.866 146.619 185.657 Q147.335 186.447 147.335 187.509 Q147.335 188.868 146.446 189.535 Q145.581 190.177 144.717 190.177 Q144.371 190.177 143.901 190.103 Q143.457 190.029 142.74 189.337 Q142.024 188.621 142.024 187.361 Q142.024 183.829 144.692 181.012 Q147.385 178.196 151.485 178.196 Q156.13 178.196 159.168 180.963 Q162.231 183.705 162.231 188.003 Q162.231 189.51 161.762 190.894 Q161.317 192.252 160.7 193.315 Q160.107 194.377 158.476 196.081 Q156.846 197.786 155.537 198.996 Q154.227 200.207 151.288 202.776 L145.927 207.988 L155.043 207.988 Q159.489 207.988 159.835 207.593 Q160.329 206.877 160.947 203.097 L162.231 203.097 L160.799 211.892 L142.024 211.892 Z" fill="#000000" fill-rule="nonzero" fill-opacity="1" /><path clip-path="url(#clip710)" d="M167.32 203.739 Q167.32 202.233 168.135 201.664 Q168.951 201.071 169.815 201.071 Q170.976 201.071 171.643 201.813 Q172.335 202.529 172.335 203.542 Q172.335 204.555 171.643 205.296 Q170.976 206.012 169.815 206.012 Q169.247 206.012 168.951 205.913 Q169.618 208.235 171.643 209.915 Q173.694 211.595 176.386 211.595 Q179.771 211.595 181.796 208.31 Q183.007 206.185 183.007 201.368 Q183.007 197.119 182.093 194.994 Q180.685 191.758 177.794 191.758 Q173.694 191.758 171.273 195.291 Q170.976 195.736 170.63 195.76 Q170.136 195.76 170.013 195.489 Q169.914 195.192 169.914 194.426 L169.914 179.456 Q169.914 178.246 170.408 178.246 Q170.606 178.246 171.026 178.394 Q174.212 179.802 177.745 179.827 Q181.376 179.827 184.637 178.344 Q184.884 178.196 185.033 178.196 Q185.527 178.196 185.551 178.764 Q185.551 178.962 185.131 179.555 Q184.736 180.123 183.871 180.889 Q183.007 181.63 181.895 182.346 Q180.784 183.063 179.153 183.557 Q177.547 184.026 175.769 184.026 Q173.644 184.026 171.47 183.359 L171.47 193.216 Q174.089 190.647 177.893 190.647 Q181.945 190.647 184.736 193.907 Q187.528 197.168 187.528 201.714 Q187.528 206.481 184.217 209.742 Q180.932 213.003 176.485 213.003 Q172.434 213.003 169.865 210.113 Q167.32 207.223 167.32 203.739 Z" fill="#000000" fill-rule="nonzero" fill-opacity="1" /><polyline clip-path="url(#clip712)" style="stroke:#009af9; stroke-linecap:round; stroke-linejoin:round; stroke-width:4; stroke-opacity:1; fill:none" points="283.789,87.6286 293.832,567.596 303.876,788.595 313.919,921.622 323.963,1011.11 334.006,1075.6 344.05,1124.32 354.093,1162.45 364.137,1193.11 374.181,1218.31 384.224,1239.39 394.268,1257.29 404.311,1272.67 414.355,1286.04 424.398,1297.76 434.442,1308.12 444.485,1317.35 454.529,1325.62 464.572,1333.07 474.616,1339.82 484.659,1345.97 494.703,1351.59 504.746,1356.74 514.79,1361.49 524.833,1365.87 534.877,1369.94 544.921,1373.71 554.964,1377.23 565.008,1380.51 575.051,1383.59 585.095,1386.47 595.138,1389.18 605.182,1391.73 615.225,1394.13 625.269,1396.4 635.312,1398.55 645.356,1400.58 655.399,1402.51 665.443,1404.34 675.486,1406.07 685.53,1407.73 695.573,1409.3 705.617,1410.8 715.661,1412.23 725.704,1413.59 735.748,1414.89 745.791,1416.13 755.835,1417.32 765.878,1418.45 775.922,1419.53 785.965,1420.56 796.009,1421.55 806.052,1422.49 816.096,1423.39 826.139,1424.25 836.183,1425.06 846.226,1425.84 856.27,1426.57 866.313,1427.27 876.357,1427.93 886.401,1428.56 896.444,1429.14 906.488,1429.7 916.531,1430.21 926.575,1430.7 936.618,1431.14 946.662,1431.56 956.705,1431.93 966.749,1432.27 976.792,1432.58 986.836,1432.85 996.879,1433.09 1006.92,1433.29 1016.97,1433.46 1027.01,1433.59 1037.05,1433.69 1047.1,1433.75 1057.14,1433.78 1067.18,1433.77 1077.23,1433.73 1087.27,1433.65 1097.31,1433.54 1107.36,1433.4 1117.4,1433.22 1127.45,1433.01 1137.49,1432.76 1147.53,1432.48 1157.58,1432.17 1167.62,1431.83 1177.66,1431.46 1187.71,1431.05 1197.75,1430.62 1207.79,1430.16 1217.84,1429.67 1227.88,1429.15 1237.92,1428.6 1247.97,1428.03 1258.01,1427.44 1268.05,1426.81 1278.1,1426.17 1288.14,1425.5 1298.19,1424.8 1308.23,1424.09 1318.27,1423.35 1328.32,1422.6 1338.36,1421.82 1348.4,1421.03 1358.45,1420.21 1368.49,1419.38 1378.53,1418.53 1388.58,1417.66 1398.62,1416.78 1408.66,1415.88 1418.71,1414.97 1428.75,1414.05 1438.79,1413.1 1448.84,1412.15 1458.88,1411.18 1468.93,1410.2 1478.97,1409.21 1489.01,1408.21 1499.06,1407.2 1509.1,1406.17 1519.14,1405.14 1529.19,1404.1 1539.23,1403.04 1549.27,1401.98 1559.32,1400.91 1569.36,1399.83 1579.4,1398.74 1589.45,1397.64 1599.49,1396.54 1609.53,1395.43 1619.58,1394.31 1629.62,1393.19 1639.67,1392.06 1649.71,1390.92 1659.75,1389.78 1669.8,1388.63 1679.84,1387.48 1689.88,1386.32 1699.93,1385.16 1709.97,1383.99 1720.01,1382.82 1730.06,1381.64 1740.1,1380.46 1750.14,1379.28 1760.19,1378.09 1770.23,1376.9 1780.27,1375.7 1790.32,1374.5 1800.36,1373.3 1810.41,1372.09 1820.45,1370.89 1830.49,1369.67 1840.54,1368.46 1850.58,1367.24 1860.62,1366.03 1870.67,1364.8 1880.71,1363.58 1890.75,1362.36 1900.8,1361.13 1910.84,1359.9 1920.88,1358.67 1930.93,1357.44 1940.97,1356.21 1951.01,1354.97 1961.06,1353.74 1971.1,1352.5 1981.15,1351.26 1991.19,1350.02 2001.23,1348.78 2011.28,1347.54 2021.32,1346.3 2031.36,1345.05 2041.41,1343.81 2051.45,1342.57 2061.49,1341.32 2071.54,1340.08 2081.58,1338.83 2091.62,1337.59 2101.67,1336.34 2111.71,1335.1 2121.75,1333.85 2131.8,1332.6 2141.84,1331.36 2151.89,1330.11 2161.93,1328.87 2171.97,1327.62 2182.02,1326.37 2192.06,1325.13 2202.1,1323.88 2212.15,1322.64 2222.19,1321.39 2232.23,1320.15 2242.28,1318.91 2252.32,1317.66 2262.36,1316.42 2272.41,1315.18 2282.45,1313.94 2292.49,1312.7 "/>
</svg>
