<?xml version="1.0" encoding="utf-8"?>
<svg xmlns="http://www.w3.org/2000/svg" xmlns:xlink="http://www.w3.org/1999/xlink" width="600" height="400" viewBox="0 0 2400 1600">
<defs>
  <clipPath id="clip840">
    <rect x="0" y="0" width="2400" height="1600"/>
  </clipPath>
</defs>
<path clip-path="url(#clip840)" d="M0 1600 L2400 1600 L2400 0 L0 0  Z" fill="#ffffff" fill-rule="evenodd" fill-opacity="1"/>
<defs>
  <clipPath id="clip841">
    <rect x="480" y="0" width="1681" height="1600"/>
  </clipPath>
</defs>
<path clip-path="url(#clip840)" d="M175.445 1410.9 L2352.76 1410.9 L2352.76 47.2441 L175.445 47.2441  Z" fill="#ffffff" fill-rule="evenodd" fill-opacity="1"/>
<defs>
  <clipPath id="clip842">
    <rect x="175" y="47" width="2178" height="1365"/>
  </clipPath>
</defs>
<polyline clip-path="url(#clip842)" style="stroke:#000000; stroke-linecap:round; stroke-linejoin:round; stroke-width:2; stroke-opacity:0.1; fill:none" points="237.067,1410.9 237.067,47.2441 "/>
<polyline clip-path="url(#clip842)" style="stroke:#000000; stroke-linecap:round; stroke-linejoin:round; stroke-width:2; stroke-opacity:0.1; fill:none" points="750.584,1410.9 750.584,47.2441 "/>
<polyline clip-path="url(#clip842)" style="stroke:#000000; stroke-linecap:round; stroke-linejoin:round; stroke-width:2; stroke-opacity:0.1; fill:none" points="1264.1,1410.9 1264.1,47.2441 "/>
<polyline clip-path="url(#clip842)" style="stroke:#000000; stroke-linecap:round; stroke-linejoin:round; stroke-width:2; stroke-opacity:0.1; fill:none" points="1777.62,1410.9 1777.62,47.2441 "/>
<polyline clip-path="url(#clip842)" style="stroke:#000000; stroke-linecap:round; stroke-linejoin:round; stroke-width:2; stroke-opacity:0.1; fill:none" points="2291.13,1410.9 2291.13,47.2441 "/>
<polyline clip-path="url(#clip840)" style="stroke:#000000; stroke-linecap:round; stroke-linejoin:round; stroke-width:4; stroke-opacity:1; fill:none" points="175.445,1410.9 2352.76,1410.9 "/>
<polyline clip-path="url(#clip840)" style="stroke:#000000; stroke-linecap:round; stroke-linejoin:round; stroke-width:4; stroke-opacity:1; fill:none" points="237.067,1410.9 237.067,1392 "/>
<polyline clip-path="url(#clip840)" style="stroke:#000000; stroke-linecap:round; stroke-linejoin:round; stroke-width:4; stroke-opacity:1; fill:none" points="750.584,1410.9 750.584,1392 "/>
<polyline clip-path="url(#clip840)" style="stroke:#000000; stroke-linecap:round; stroke-linejoin:round; stroke-width:4; stroke-opacity:1; fill:none" points="1264.1,1410.9 1264.1,1392 "/>
<polyline clip-path="url(#clip840)" style="stroke:#000000; stroke-linecap:round; stroke-linejoin:round; stroke-width:4; stroke-opacity:1; fill:none" points="1777.62,1410.9 1777.62,1392 "/>
<polyline clip-path="url(#clip840)" style="stroke:#000000; stroke-linecap:round; stroke-linejoin:round; stroke-width:4; stroke-opacity:1; fill:none" points="2291.13,1410.9 2291.13,1392 "/>
<path clip-path="url(#clip840)" d="M237.067 1441.82 Q233.456 1441.82 231.627 1445.38 Q229.822 1448.92 229.822 1456.05 Q229.822 1463.16 231.627 1466.72 Q233.456 1470.26 237.067 1470.26 Q240.701 1470.26 242.507 1466.72 Q244.336 1463.16 244.336 1456.05 Q244.336 1448.92 242.507 1445.38 Q240.701 1441.82 237.067 1441.82 M237.067 1438.11 Q242.877 1438.11 245.933 1442.72 Q249.012 1447.3 249.012 1456.05 Q249.012 1464.78 245.933 1469.38 Q242.877 1473.97 237.067 1473.97 Q231.257 1473.97 228.178 1469.38 Q225.123 1464.78 225.123 1456.05 Q225.123 1447.3 228.178 1442.72 Q231.257 1438.11 237.067 1438.11 Z" fill="#000000" fill-rule="nonzero" fill-opacity="1" /><path clip-path="url(#clip840)" d="M642.413 1454.4 L660.77 1454.4 L660.77 1458.33 L646.696 1458.33 L646.696 1466.8 Q647.714 1466.46 648.733 1466.29 Q649.751 1466.11 650.77 1466.11 Q656.557 1466.11 659.936 1469.28 Q663.316 1472.45 663.316 1477.87 Q663.316 1483.45 659.844 1486.55 Q656.371 1489.63 650.052 1489.63 Q647.876 1489.63 645.608 1489.26 Q643.362 1488.89 640.955 1488.15 L640.955 1483.45 Q643.038 1484.58 645.26 1485.14 Q647.483 1485.69 649.959 1485.69 Q653.964 1485.69 656.302 1483.59 Q658.64 1481.48 658.64 1477.87 Q658.64 1474.26 656.302 1472.15 Q653.964 1470.04 649.959 1470.04 Q648.084 1470.04 646.209 1470.46 Q644.358 1470.88 642.413 1471.76 L642.413 1454.4 Z" fill="#000000" fill-rule="nonzero" fill-opacity="1" /><path clip-path="url(#clip840)" d="M672.529 1483.08 L677.413 1483.08 L677.413 1488.96 L672.529 1488.96 L672.529 1483.08 Z" fill="#000000" fill-rule="nonzero" fill-opacity="1" /><path clip-path="url(#clip840)" d="M697.598 1457.48 Q693.987 1457.48 692.158 1461.04 Q690.353 1464.58 690.353 1471.71 Q690.353 1478.82 692.158 1482.38 Q693.987 1485.92 697.598 1485.92 Q701.232 1485.92 703.038 1482.38 Q704.867 1478.82 704.867 1471.71 Q704.867 1464.58 703.038 1461.04 Q701.232 1457.48 697.598 1457.48 M697.598 1453.77 Q703.408 1453.77 706.464 1458.38 Q709.542 1462.96 709.542 1471.71 Q709.542 1480.44 706.464 1485.04 Q703.408 1489.63 697.598 1489.63 Q691.788 1489.63 688.709 1485.04 Q685.654 1480.44 685.654 1471.71 Q685.654 1462.96 688.709 1458.38 Q691.788 1453.77 697.598 1453.77 Z" fill="#000000" fill-rule="nonzero" fill-opacity="1" /><path clip-path="url(#clip840)" d="M727.76 1457.48 Q724.149 1457.48 722.32 1461.04 Q720.515 1464.58 720.515 1471.71 Q720.515 1478.82 722.32 1482.38 Q724.149 1485.92 727.76 1485.92 Q731.394 1485.92 733.2 1482.38 Q735.028 1478.82 735.028 1471.71 Q735.028 1464.58 733.2 1461.04 Q731.394 1457.48 727.76 1457.48 M727.76 1453.77 Q733.57 1453.77 736.626 1458.38 Q739.704 1462.96 739.704 1471.71 Q739.704 1480.44 736.626 1485.04 Q733.57 1489.63 727.76 1489.63 Q721.95 1489.63 718.871 1485.04 Q715.816 1480.44 715.816 1471.71 Q715.816 1462.96 718.871 1458.38 Q721.95 1453.77 727.76 1453.77 Z" fill="#000000" fill-rule="nonzero" fill-opacity="1" /><path clip-path="url(#clip840)" d="M776.093 1463.49 L765.514 1474.12 L776.093 1484.7 L773.338 1487.5 L762.713 1476.87 L752.089 1487.5 L749.357 1484.7 L759.913 1474.12 L749.357 1463.49 L752.089 1460.69 L762.713 1471.32 L773.338 1460.69 L776.093 1463.49 Z" fill="#000000" fill-rule="nonzero" fill-opacity="1" /><path clip-path="url(#clip840)" d="M788.454 1485.02 L796.093 1485.02 L796.093 1458.66 L787.783 1460.32 L787.783 1456.06 L796.047 1454.4 L800.723 1454.4 L800.723 1485.02 L808.361 1485.02 L808.361 1488.96 L788.454 1488.96 L788.454 1485.02 Z" fill="#000000" fill-rule="nonzero" fill-opacity="1" /><path clip-path="url(#clip840)" d="M827.806 1457.48 Q824.195 1457.48 822.366 1461.04 Q820.56 1464.58 820.56 1471.71 Q820.56 1478.82 822.366 1482.38 Q824.195 1485.92 827.806 1485.92 Q831.44 1485.92 833.245 1482.38 Q835.074 1478.82 835.074 1471.71 Q835.074 1464.58 833.245 1461.04 Q831.44 1457.48 827.806 1457.48 M827.806 1453.77 Q833.616 1453.77 836.671 1458.38 Q839.75 1462.96 839.75 1471.71 Q839.75 1480.44 836.671 1485.04 Q833.616 1489.63 827.806 1489.63 Q821.996 1489.63 818.917 1485.04 Q815.861 1480.44 815.861 1471.71 Q815.861 1462.96 818.917 1458.38 Q821.996 1453.77 827.806 1453.77 Z" fill="#000000" fill-rule="nonzero" fill-opacity="1" /><path clip-path="url(#clip840)" d="M852.427 1436.78 L842.835 1451.77 L852.427 1451.77 L852.427 1436.78 M851.43 1433.47 L856.207 1433.47 L856.207 1451.77 L860.213 1451.77 L860.213 1454.93 L856.207 1454.93 L856.207 1461.55 L852.427 1461.55 L852.427 1454.93 L839.75 1454.93 L839.75 1451.26 L851.43 1433.47 Z" fill="#000000" fill-rule="nonzero" fill-opacity="1" /><path clip-path="url(#clip840)" d="M1157.07 1485.02 L1164.7 1485.02 L1164.7 1458.66 L1156.39 1460.32 L1156.39 1456.06 L1164.66 1454.4 L1169.33 1454.4 L1169.33 1485.02 L1176.97 1485.02 L1176.97 1488.96 L1157.07 1488.96 L1157.07 1485.02 Z" fill="#000000" fill-rule="nonzero" fill-opacity="1" /><path clip-path="url(#clip840)" d="M1186.42 1483.08 L1191.3 1483.08 L1191.3 1488.96 L1186.42 1488.96 L1186.42 1483.08 Z" fill="#000000" fill-rule="nonzero" fill-opacity="1" /><path clip-path="url(#clip840)" d="M1211.49 1457.48 Q1207.88 1457.48 1206.05 1461.04 Q1204.24 1464.58 1204.24 1471.71 Q1204.24 1478.82 1206.05 1482.38 Q1207.88 1485.92 1211.49 1485.92 Q1215.12 1485.92 1216.93 1482.38 Q1218.76 1478.82 1218.76 1471.71 Q1218.76 1464.58 1216.93 1461.04 Q1215.12 1457.48 1211.49 1457.48 M1211.49 1453.77 Q1217.3 1453.77 1220.35 1458.38 Q1223.43 1462.96 1223.43 1471.71 Q1223.43 1480.44 1220.35 1485.04 Q1217.3 1489.63 1211.49 1489.63 Q1205.68 1489.63 1202.6 1485.04 Q1199.54 1480.44 1199.54 1471.71 Q1199.54 1462.96 1202.6 1458.38 Q1205.68 1453.77 1211.49 1453.77 Z" fill="#000000" fill-rule="nonzero" fill-opacity="1" /><path clip-path="url(#clip840)" d="M1241.65 1457.48 Q1238.04 1457.48 1236.21 1461.04 Q1234.4 1464.58 1234.4 1471.71 Q1234.4 1478.82 1236.21 1482.38 Q1238.04 1485.92 1241.65 1485.92 Q1245.28 1485.92 1247.09 1482.38 Q1248.92 1478.82 1248.92 1471.71 Q1248.92 1464.58 1247.09 1461.04 Q1245.28 1457.48 1241.65 1457.48 M1241.65 1453.77 Q1247.46 1453.77 1250.51 1458.38 Q1253.59 1462.96 1253.59 1471.71 Q1253.59 1480.44 1250.51 1485.04 Q1247.46 1489.63 1241.65 1489.63 Q1235.84 1489.63 1232.76 1485.04 Q1229.7 1480.44 1229.7 1471.71 Q1229.7 1462.96 1232.76 1458.38 Q1235.84 1453.77 1241.65 1453.77 Z" fill="#000000" fill-rule="nonzero" fill-opacity="1" /><path clip-path="url(#clip840)" d="M1289.98 1463.49 L1279.4 1474.12 L1289.98 1484.7 L1287.23 1487.5 L1276.6 1476.87 L1265.98 1487.5 L1263.25 1484.7 L1273.8 1474.12 L1263.25 1463.49 L1265.98 1460.69 L1276.6 1471.32 L1287.23 1460.69 L1289.98 1463.49 Z" fill="#000000" fill-rule="nonzero" fill-opacity="1" /><path clip-path="url(#clip840)" d="M1302.34 1485.02 L1309.98 1485.02 L1309.98 1458.66 L1301.67 1460.32 L1301.67 1456.06 L1309.94 1454.4 L1314.61 1454.4 L1314.61 1485.02 L1322.25 1485.02 L1322.25 1488.96 L1302.34 1488.96 L1302.34 1485.02 Z" fill="#000000" fill-rule="nonzero" fill-opacity="1" /><path clip-path="url(#clip840)" d="M1341.69 1457.48 Q1338.08 1457.48 1336.25 1461.04 Q1334.45 1464.58 1334.45 1471.71 Q1334.45 1478.82 1336.25 1482.38 Q1338.08 1485.92 1341.69 1485.92 Q1345.33 1485.92 1347.13 1482.38 Q1348.96 1478.82 1348.96 1471.71 Q1348.96 1464.58 1347.13 1461.04 Q1345.33 1457.48 1341.69 1457.48 M1341.69 1453.77 Q1347.5 1453.77 1350.56 1458.38 Q1353.64 1462.96 1353.64 1471.71 Q1353.64 1480.44 1350.56 1485.04 Q1347.5 1489.63 1341.69 1489.63 Q1335.88 1489.63 1332.81 1485.04 Q1329.75 1480.44 1329.75 1471.71 Q1329.75 1462.96 1332.81 1458.38 Q1335.88 1453.77 1341.69 1453.77 Z" fill="#000000" fill-rule="nonzero" fill-opacity="1" /><path clip-path="url(#clip840)" d="M1354.82 1433.47 L1369.74 1433.47 L1369.74 1436.66 L1358.3 1436.66 L1358.3 1443.55 Q1359.13 1443.27 1359.96 1443.13 Q1360.79 1442.98 1361.61 1442.98 Q1366.31 1442.98 1369.06 1445.56 Q1371.81 1448.14 1371.81 1452.54 Q1371.81 1457.07 1368.99 1459.59 Q1366.16 1462.09 1361.03 1462.09 Q1359.26 1462.09 1357.42 1461.79 Q1355.59 1461.49 1353.64 1460.89 L1353.64 1457.07 Q1355.33 1457.99 1357.14 1458.44 Q1358.94 1458.89 1360.95 1458.89 Q1364.21 1458.89 1366.11 1457.18 Q1368.01 1455.47 1368.01 1452.54 Q1368.01 1449.6 1366.11 1447.89 Q1364.21 1446.18 1360.95 1446.18 Q1359.43 1446.18 1357.91 1446.52 Q1356.4 1446.86 1354.82 1447.57 L1354.82 1433.47 Z" fill="#000000" fill-rule="nonzero" fill-opacity="1" /><path clip-path="url(#clip840)" d="M1670.58 1485.02 L1678.22 1485.02 L1678.22 1458.66 L1669.91 1460.32 L1669.91 1456.06 L1678.17 1454.4 L1682.85 1454.4 L1682.85 1485.02 L1690.49 1485.02 L1690.49 1488.96 L1670.58 1488.96 L1670.58 1485.02 Z" fill="#000000" fill-rule="nonzero" fill-opacity="1" /><path clip-path="url(#clip840)" d="M1699.93 1483.08 L1704.82 1483.08 L1704.82 1488.96 L1699.93 1488.96 L1699.93 1483.08 Z" fill="#000000" fill-rule="nonzero" fill-opacity="1" /><path clip-path="url(#clip840)" d="M1715.05 1454.4 L1733.41 1454.4 L1733.41 1458.33 L1719.33 1458.33 L1719.33 1466.8 Q1720.35 1466.46 1721.37 1466.29 Q1722.39 1466.11 1723.41 1466.11 Q1729.19 1466.11 1732.57 1469.28 Q1735.95 1472.45 1735.95 1477.87 Q1735.95 1483.45 1732.48 1486.55 Q1729.01 1489.63 1722.69 1489.63 Q1720.51 1489.63 1718.24 1489.26 Q1716 1488.89 1713.59 1488.15 L1713.59 1483.45 Q1715.67 1484.58 1717.9 1485.14 Q1720.12 1485.69 1722.6 1485.69 Q1726.6 1485.69 1728.94 1483.59 Q1731.28 1481.48 1731.28 1477.87 Q1731.28 1474.26 1728.94 1472.15 Q1726.6 1470.04 1722.6 1470.04 Q1720.72 1470.04 1718.85 1470.46 Q1716.99 1470.88 1715.05 1471.76 L1715.05 1454.4 Z" fill="#000000" fill-rule="nonzero" fill-opacity="1" /><path clip-path="url(#clip840)" d="M1755.17 1457.48 Q1751.55 1457.48 1749.73 1461.04 Q1747.92 1464.58 1747.92 1471.71 Q1747.92 1478.82 1749.73 1482.38 Q1751.55 1485.92 1755.17 1485.92 Q1758.8 1485.92 1760.6 1482.38 Q1762.43 1478.82 1762.43 1471.71 Q1762.43 1464.58 1760.6 1461.04 Q1758.8 1457.48 1755.17 1457.48 M1755.17 1453.77 Q1760.98 1453.77 1764.03 1458.38 Q1767.11 1462.96 1767.11 1471.71 Q1767.11 1480.44 1764.03 1485.04 Q1760.98 1489.63 1755.17 1489.63 Q1749.35 1489.63 1746.28 1485.04 Q1743.22 1480.44 1743.22 1471.71 Q1743.22 1462.96 1746.28 1458.38 Q1749.35 1453.77 1755.17 1453.77 Z" fill="#000000" fill-rule="nonzero" fill-opacity="1" /><path clip-path="url(#clip840)" d="M1803.5 1463.49 L1792.92 1474.12 L1803.5 1484.7 L1800.74 1487.5 L1790.12 1476.87 L1779.49 1487.5 L1776.76 1484.7 L1787.32 1474.12 L1776.76 1463.49 L1779.49 1460.69 L1790.12 1471.32 L1800.74 1460.69 L1803.5 1463.49 Z" fill="#000000" fill-rule="nonzero" fill-opacity="1" /><path clip-path="url(#clip840)" d="M1815.86 1485.02 L1823.5 1485.02 L1823.5 1458.66 L1815.19 1460.32 L1815.19 1456.06 L1823.45 1454.4 L1828.13 1454.4 L1828.13 1485.02 L1835.77 1485.02 L1835.77 1488.96 L1815.86 1488.96 L1815.86 1485.02 Z" fill="#000000" fill-rule="nonzero" fill-opacity="1" /><path clip-path="url(#clip840)" d="M1855.21 1457.48 Q1851.6 1457.48 1849.77 1461.04 Q1847.97 1464.58 1847.97 1471.71 Q1847.97 1478.82 1849.77 1482.38 Q1851.6 1485.92 1855.21 1485.92 Q1858.85 1485.92 1860.65 1482.38 Q1862.48 1478.82 1862.48 1471.71 Q1862.48 1464.58 1860.65 1461.04 Q1858.85 1457.48 1855.21 1457.48 M1855.21 1453.77 Q1861.02 1453.77 1864.08 1458.38 Q1867.16 1462.96 1867.16 1471.71 Q1867.16 1480.44 1864.08 1485.04 Q1861.02 1489.63 1855.21 1489.63 Q1849.4 1489.63 1846.32 1485.04 Q1843.27 1480.44 1843.27 1471.71 Q1843.27 1462.96 1846.32 1458.38 Q1849.4 1453.77 1855.21 1453.77 Z" fill="#000000" fill-rule="nonzero" fill-opacity="1" /><path clip-path="url(#clip840)" d="M1868.34 1433.47 L1883.25 1433.47 L1883.25 1436.66 L1871.82 1436.66 L1871.82 1443.55 Q1872.65 1443.27 1873.47 1443.13 Q1874.3 1442.98 1875.13 1442.98 Q1879.83 1442.98 1882.58 1445.56 Q1885.32 1448.14 1885.32 1452.54 Q1885.32 1457.07 1882.5 1459.59 Q1879.68 1462.09 1874.55 1462.09 Q1872.78 1462.09 1870.94 1461.79 Q1869.11 1461.49 1867.16 1460.89 L1867.16 1457.07 Q1868.85 1457.99 1870.65 1458.44 Q1872.46 1458.89 1874.47 1458.89 Q1877.73 1458.89 1879.62 1457.18 Q1881.52 1455.47 1881.52 1452.54 Q1881.52 1449.6 1879.62 1447.89 Q1877.73 1446.18 1874.47 1446.18 Q1872.95 1446.18 1871.42 1446.52 Q1869.92 1446.86 1868.34 1447.57 L1868.34 1433.47 Z" fill="#000000" fill-rule="nonzero" fill-opacity="1" /><path clip-path="url(#clip840)" d="M2188.18 1485.02 L2204.5 1485.02 L2204.5 1488.96 L2182.56 1488.96 L2182.56 1485.02 Q2185.22 1482.27 2189.8 1477.64 Q2194.41 1472.98 2195.59 1471.64 Q2197.84 1469.12 2198.72 1467.38 Q2199.62 1465.62 2199.62 1463.93 Q2199.62 1461.18 2197.68 1459.44 Q2195.75 1457.71 2192.65 1457.71 Q2190.45 1457.71 2188 1458.47 Q2185.57 1459.23 2182.79 1460.79 L2182.79 1456.06 Q2185.62 1454.93 2188.07 1454.35 Q2190.52 1453.77 2192.56 1453.77 Q2197.93 1453.77 2201.12 1456.46 Q2204.32 1459.14 2204.32 1463.63 Q2204.32 1465.76 2203.51 1467.68 Q2202.72 1469.58 2200.62 1472.17 Q2200.04 1472.85 2196.93 1476.06 Q2193.83 1479.26 2188.18 1485.02 Z" fill="#000000" fill-rule="nonzero" fill-opacity="1" /><path clip-path="url(#clip840)" d="M2214.32 1483.08 L2219.2 1483.08 L2219.2 1488.96 L2214.32 1488.96 L2214.32 1483.08 Z" fill="#000000" fill-rule="nonzero" fill-opacity="1" /><path clip-path="url(#clip840)" d="M2239.39 1457.48 Q2235.78 1457.48 2233.95 1461.04 Q2232.14 1464.58 2232.14 1471.71 Q2232.14 1478.82 2233.95 1482.38 Q2235.78 1485.92 2239.39 1485.92 Q2243.02 1485.92 2244.83 1482.38 Q2246.66 1478.82 2246.66 1471.71 Q2246.66 1464.58 2244.83 1461.04 Q2243.02 1457.48 2239.39 1457.48 M2239.39 1453.77 Q2245.2 1453.77 2248.25 1458.38 Q2251.33 1462.96 2251.33 1471.71 Q2251.33 1480.44 2248.25 1485.04 Q2245.2 1489.63 2239.39 1489.63 Q2233.58 1489.63 2230.5 1485.04 Q2227.44 1480.44 2227.44 1471.71 Q2227.44 1462.96 2230.5 1458.38 Q2233.58 1453.77 2239.39 1453.77 Z" fill="#000000" fill-rule="nonzero" fill-opacity="1" /><path clip-path="url(#clip840)" d="M2269.55 1457.48 Q2265.94 1457.48 2264.11 1461.04 Q2262.3 1464.58 2262.3 1471.71 Q2262.3 1478.82 2264.11 1482.38 Q2265.94 1485.92 2269.55 1485.92 Q2273.18 1485.92 2274.99 1482.38 Q2276.82 1478.82 2276.82 1471.71 Q2276.82 1464.58 2274.99 1461.04 Q2273.18 1457.48 2269.55 1457.48 M2269.55 1453.77 Q2275.36 1453.77 2278.42 1458.38 Q2281.49 1462.96 2281.49 1471.71 Q2281.49 1480.44 2278.42 1485.04 Q2275.36 1489.63 2269.55 1489.63 Q2263.74 1489.63 2260.66 1485.04 Q2257.61 1480.44 2257.61 1471.71 Q2257.61 1462.96 2260.66 1458.38 Q2263.74 1453.77 2269.55 1453.77 Z" fill="#000000" fill-rule="nonzero" fill-opacity="1" /><path clip-path="url(#clip840)" d="M2317.88 1463.49 L2307.3 1474.12 L2317.88 1484.7 L2315.13 1487.5 L2304.5 1476.87 L2293.88 1487.5 L2291.15 1484.7 L2301.7 1474.12 L2291.15 1463.49 L2293.88 1460.69 L2304.5 1471.32 L2315.13 1460.69 L2317.88 1463.49 Z" fill="#000000" fill-rule="nonzero" fill-opacity="1" /><path clip-path="url(#clip840)" d="M2330.24 1485.02 L2337.88 1485.02 L2337.88 1458.66 L2329.57 1460.32 L2329.57 1456.06 L2337.84 1454.4 L2342.51 1454.4 L2342.51 1485.02 L2350.15 1485.02 L2350.15 1488.96 L2330.24 1488.96 L2330.24 1485.02 Z" fill="#000000" fill-rule="nonzero" fill-opacity="1" /><path clip-path="url(#clip840)" d="M2369.6 1457.48 Q2365.98 1457.48 2364.16 1461.04 Q2362.35 1464.58 2362.35 1471.71 Q2362.35 1478.82 2364.16 1482.38 Q2365.98 1485.92 2369.6 1485.92 Q2373.23 1485.92 2375.04 1482.38 Q2376.86 1478.82 2376.86 1471.71 Q2376.86 1464.58 2375.04 1461.04 Q2373.23 1457.48 2369.6 1457.48 M2369.6 1453.77 Q2375.41 1453.77 2378.46 1458.38 Q2381.54 1462.96 2381.54 1471.71 Q2381.54 1480.44 2378.46 1485.04 Q2375.41 1489.63 2369.6 1489.63 Q2363.79 1489.63 2360.71 1485.04 Q2357.65 1480.44 2357.65 1471.71 Q2357.65 1462.96 2360.71 1458.38 Q2363.79 1453.77 2369.6 1453.77 Z" fill="#000000" fill-rule="nonzero" fill-opacity="1" /><path clip-path="url(#clip840)" d="M2382.72 1433.47 L2397.64 1433.47 L2397.64 1436.66 L2386.2 1436.66 L2386.2 1443.55 Q2387.03 1443.27 2387.86 1443.13 Q2388.69 1442.98 2389.51 1442.98 Q2394.22 1442.98 2396.96 1445.56 Q2399.71 1448.14 2399.71 1452.54 Q2399.71 1457.07 2396.89 1459.59 Q2394.07 1462.09 2388.93 1462.09 Q2387.16 1462.09 2385.32 1461.79 Q2383.5 1461.49 2381.54 1460.89 L2381.54 1457.07 Q2383.23 1457.99 2385.04 1458.44 Q2386.84 1458.89 2388.86 1458.89 Q2392.11 1458.89 2394.01 1457.18 Q2395.91 1455.47 2395.91 1452.54 Q2395.91 1449.6 2394.01 1447.89 Q2392.11 1446.18 2388.86 1446.18 Q2387.33 1446.18 2385.81 1446.52 Q2384.3 1446.86 2382.72 1447.57 L2382.72 1433.47 Z" fill="#000000" fill-rule="nonzero" fill-opacity="1" /><path clip-path="url(#clip840)" d="M1197.1 1556.27 Q1190 1556.27 1187.27 1557.89 Q1184.53 1559.51 1184.53 1563.43 Q1184.53 1566.55 1186.57 1568.39 Q1188.64 1570.21 1192.17 1570.21 Q1197.04 1570.21 1199.97 1566.77 Q1202.93 1563.3 1202.93 1557.57 L1202.93 1556.27 L1197.1 1556.27 M1208.78 1553.85 L1208.78 1574.19 L1202.93 1574.19 L1202.93 1568.77 Q1200.92 1572.02 1197.93 1573.58 Q1194.94 1575.11 1190.61 1575.11 Q1185.13 1575.11 1181.89 1572.05 Q1178.67 1568.97 1178.67 1563.81 Q1178.67 1557.79 1182.68 1554.74 Q1186.73 1551.68 1194.71 1551.68 L1202.93 1551.68 L1202.93 1551.11 Q1202.93 1547.07 1200.25 1544.87 Q1197.61 1542.64 1192.8 1542.64 Q1189.75 1542.64 1186.85 1543.38 Q1183.96 1544.11 1181.28 1545.57 L1181.28 1540.16 Q1184.5 1538.92 1187.52 1538.31 Q1190.54 1537.68 1193.41 1537.68 Q1201.14 1537.68 1204.96 1541.69 Q1208.78 1545.7 1208.78 1553.85 Z" fill="#000000" fill-rule="nonzero" fill-opacity="1" /><path clip-path="url(#clip840)" d="M1220.85 1524.66 L1226.7 1524.66 L1226.7 1574.19 L1220.85 1574.19 L1220.85 1524.66 Z" fill="#000000" fill-rule="nonzero" fill-opacity="1" /><path clip-path="url(#clip840)" d="M1244.62 1568.84 L1244.62 1587.74 L1238.73 1587.74 L1238.73 1538.54 L1244.62 1538.54 L1244.62 1543.95 Q1246.47 1540.77 1249.27 1539.24 Q1252.1 1537.68 1256.02 1537.68 Q1262.51 1537.68 1266.55 1542.83 Q1270.63 1547.99 1270.63 1556.39 Q1270.63 1564.8 1266.55 1569.95 Q1262.51 1575.11 1256.02 1575.11 Q1252.1 1575.11 1249.27 1573.58 Q1246.47 1572.02 1244.62 1568.84 M1264.55 1556.39 Q1264.55 1549.93 1261.87 1546.27 Q1259.23 1542.58 1254.58 1542.58 Q1249.94 1542.58 1247.26 1546.27 Q1244.62 1549.93 1244.62 1556.39 Q1244.62 1562.85 1247.26 1566.55 Q1249.94 1570.21 1254.58 1570.21 Q1259.23 1570.21 1261.87 1566.55 Q1264.55 1562.85 1264.55 1556.39 Z" fill="#000000" fill-rule="nonzero" fill-opacity="1" /><path clip-path="url(#clip840)" d="M1309.97 1552.67 L1309.97 1574.19 L1304.11 1574.19 L1304.11 1552.86 Q1304.11 1547.8 1302.14 1545.29 Q1300.16 1542.77 1296.22 1542.77 Q1291.47 1542.77 1288.74 1545.79 Q1286 1548.82 1286 1554.04 L1286 1574.19 L1280.11 1574.19 L1280.11 1524.66 L1286 1524.66 L1286 1544.08 Q1288.1 1540.86 1290.93 1539.27 Q1293.8 1537.68 1297.52 1537.68 Q1303.66 1537.68 1306.81 1541.5 Q1309.97 1545.29 1309.97 1552.67 Z" fill="#000000" fill-rule="nonzero" fill-opacity="1" /><path clip-path="url(#clip840)" d="M1337.85 1556.27 Q1330.75 1556.27 1328.01 1557.89 Q1325.27 1559.51 1325.27 1563.43 Q1325.27 1566.55 1327.31 1568.39 Q1329.38 1570.21 1332.91 1570.21 Q1337.78 1570.21 1340.71 1566.77 Q1343.67 1563.3 1343.67 1557.57 L1343.67 1556.27 L1337.85 1556.27 M1349.53 1553.85 L1349.53 1574.19 L1343.67 1574.19 L1343.67 1568.77 Q1341.67 1572.02 1338.67 1573.58 Q1335.68 1575.11 1331.35 1575.11 Q1325.88 1575.11 1322.63 1572.05 Q1319.42 1568.97 1319.42 1563.81 Q1319.42 1557.79 1323.43 1554.74 Q1327.47 1551.68 1335.46 1551.68 L1343.67 1551.68 L1343.67 1551.11 Q1343.67 1547.07 1341 1544.87 Q1338.36 1542.64 1333.55 1542.64 Q1330.49 1542.64 1327.6 1543.38 Q1324.7 1544.11 1322.03 1545.57 L1322.03 1540.16 Q1325.24 1538.92 1328.27 1538.31 Q1331.29 1537.68 1334.16 1537.68 Q1341.89 1537.68 1345.71 1541.69 Q1349.53 1545.7 1349.53 1553.85 Z" fill="#000000" fill-rule="nonzero" fill-opacity="1" /><polyline clip-path="url(#clip842)" style="stroke:#000000; stroke-linecap:round; stroke-linejoin:round; stroke-width:2; stroke-opacity:0.1; fill:none" points="175.445,1294.74 2352.76,1294.74 "/>
<polyline clip-path="url(#clip842)" style="stroke:#000000; stroke-linecap:round; stroke-linejoin:round; stroke-width:2; stroke-opacity:0.1; fill:none" points="175.445,975.857 2352.76,975.857 "/>
<polyline clip-path="url(#clip842)" style="stroke:#000000; stroke-linecap:round; stroke-linejoin:round; stroke-width:2; stroke-opacity:0.1; fill:none" points="175.445,656.978 2352.76,656.978 "/>
<polyline clip-path="url(#clip842)" style="stroke:#000000; stroke-linecap:round; stroke-linejoin:round; stroke-width:2; stroke-opacity:0.1; fill:none" points="175.445,338.099 2352.76,338.099 "/>
<polyline clip-path="url(#clip840)" style="stroke:#000000; stroke-linecap:round; stroke-linejoin:round; stroke-width:4; stroke-opacity:1; fill:none" points="175.445,1410.9 175.445,47.2441 "/>
<polyline clip-path="url(#clip840)" style="stroke:#000000; stroke-linecap:round; stroke-linejoin:round; stroke-width:4; stroke-opacity:1; fill:none" points="175.445,1294.74 194.343,1294.74 "/>
<polyline clip-path="url(#clip840)" style="stroke:#000000; stroke-linecap:round; stroke-linejoin:round; stroke-width:4; stroke-opacity:1; fill:none" points="175.445,975.857 194.343,975.857 "/>
<polyline clip-path="url(#clip840)" style="stroke:#000000; stroke-linecap:round; stroke-linejoin:round; stroke-width:4; stroke-opacity:1; fill:none" points="175.445,656.978 194.343,656.978 "/>
<polyline clip-path="url(#clip840)" style="stroke:#000000; stroke-linecap:round; stroke-linejoin:round; stroke-width:4; stroke-opacity:1; fill:none" points="175.445,338.099 194.343,338.099 "/>
<path clip-path="url(#clip840)" d="M119.538 1308.08 L127.177 1308.08 L127.177 1281.72 L118.867 1283.38 L118.867 1279.12 L127.13 1277.46 L131.806 1277.46 L131.806 1308.08 L139.445 1308.08 L139.445 1312.02 L119.538 1312.02 L119.538 1308.08 Z" fill="#000000" fill-rule="nonzero" fill-opacity="1" /><path clip-path="url(#clip840)" d="M123.126 989.202 L139.445 989.202 L139.445 993.137 L117.501 993.137 L117.501 989.202 Q120.163 986.448 124.746 981.818 Q129.353 977.165 130.533 975.823 Q132.779 973.299 133.658 971.563 Q134.561 969.804 134.561 968.114 Q134.561 965.36 132.617 963.624 Q130.695 961.887 127.593 961.887 Q125.394 961.887 122.941 962.651 Q120.51 963.415 117.732 964.966 L117.732 960.244 Q120.556 959.11 123.01 958.531 Q125.464 957.952 127.501 957.952 Q132.871 957.952 136.066 960.637 Q139.26 963.323 139.26 967.813 Q139.26 969.943 138.45 971.864 Q137.663 973.762 135.556 976.355 Q134.978 977.026 131.876 980.244 Q128.774 983.438 123.126 989.202 Z" fill="#000000" fill-rule="nonzero" fill-opacity="1" /><path clip-path="url(#clip840)" d="M132.316 655.624 Q135.672 656.341 137.547 658.61 Q139.445 660.878 139.445 664.212 Q139.445 669.327 135.927 672.128 Q132.408 674.929 125.927 674.929 Q123.751 674.929 121.436 674.489 Q119.144 674.073 116.691 673.216 L116.691 668.702 Q118.635 669.837 120.95 670.415 Q123.265 670.994 125.788 670.994 Q130.186 670.994 132.478 669.258 Q134.792 667.522 134.792 664.212 Q134.792 661.156 132.64 659.443 Q130.51 657.707 126.691 657.707 L122.663 657.707 L122.663 653.865 L126.876 653.865 Q130.325 653.865 132.154 652.499 Q133.982 651.11 133.982 648.517 Q133.982 645.855 132.084 644.443 Q130.209 643.008 126.691 643.008 Q124.769 643.008 122.57 643.425 Q120.371 643.841 117.732 644.721 L117.732 640.554 Q120.394 639.814 122.709 639.443 Q125.047 639.073 127.107 639.073 Q132.431 639.073 135.533 641.504 Q138.635 643.911 138.635 648.031 Q138.635 650.902 136.992 652.892 Q135.348 654.86 132.316 655.624 Z" fill="#000000" fill-rule="nonzero" fill-opacity="1" /><path clip-path="url(#clip840)" d="M129.862 324.893 L118.056 343.342 L129.862 343.342 L129.862 324.893 M128.635 320.819 L134.515 320.819 L134.515 343.342 L139.445 343.342 L139.445 347.231 L134.515 347.231 L134.515 355.379 L129.862 355.379 L129.862 347.231 L114.26 347.231 L114.26 342.717 L128.635 320.819 Z" fill="#000000" fill-rule="nonzero" fill-opacity="1" /><path clip-path="url(#clip840)" d="M44.7161 773.137 L47.5806 773.137 L47.5806 800.064 Q53.6281 799.682 56.8109 796.435 Q59.9619 793.157 59.9619 787.332 Q59.9619 783.959 59.1344 780.808 Q58.3069 777.625 56.6518 774.506 L62.1899 774.506 Q63.5267 777.657 64.227 780.967 Q64.9272 784.277 64.9272 787.683 Q64.9272 796.213 59.9619 801.21 Q54.9967 806.175 46.5303 806.175 Q37.7774 806.175 32.6531 801.464 Q27.4968 796.722 27.4968 788.701 Q27.4968 781.508 32.1438 777.338 Q36.7589 773.137 44.7161 773.137 M42.9973 778.993 Q38.1912 779.057 35.3266 781.699 Q32.4621 784.309 32.4621 788.637 Q32.4621 793.539 35.2312 796.499 Q38.0002 799.427 43.0292 799.873 L42.9973 778.993 Z" fill="#000000" fill-rule="nonzero" fill-opacity="1" /><path clip-path="url(#clip840)" d="M33.8307 742.868 Q33.2578 743.855 33.0032 745.032 Q32.7167 746.178 32.7167 747.579 Q32.7167 752.544 35.9632 755.218 Q39.1779 757.859 45.2253 757.859 L64.0042 757.859 L64.0042 763.748 L28.3562 763.748 L28.3562 757.859 L33.8944 757.859 Q30.6479 756.013 29.0883 753.053 Q27.4968 750.093 27.4968 745.86 Q27.4968 745.255 27.5923 744.523 Q27.656 743.791 27.8151 742.9 L33.8307 742.868 Z" fill="#000000" fill-rule="nonzero" fill-opacity="1" /><path clip-path="url(#clip840)" d="M33.8307 717.214 Q33.2578 718.201 33.0032 719.379 Q32.7167 720.524 32.7167 721.925 Q32.7167 726.89 35.9632 729.564 Q39.1779 732.205 45.2253 732.205 L64.0042 732.205 L64.0042 738.094 L28.3562 738.094 L28.3562 732.205 L33.8944 732.205 Q30.6479 730.359 29.0883 727.399 Q27.4968 724.439 27.4968 720.206 Q27.4968 719.601 27.5923 718.869 Q27.656 718.137 27.8151 717.246 L33.8307 717.214 Z" fill="#000000" fill-rule="nonzero" fill-opacity="1" /><path clip-path="url(#clip840)" d="M32.4621 698.69 Q32.4621 703.401 36.1542 706.138 Q39.8145 708.875 46.212 708.875 Q52.6095 708.875 56.3017 706.17 Q59.9619 703.432 59.9619 698.69 Q59.9619 694.011 56.2698 691.274 Q52.5777 688.537 46.212 688.537 Q39.8781 688.537 36.186 691.274 Q32.4621 694.011 32.4621 698.69 M27.4968 698.69 Q27.4968 691.051 32.4621 686.691 Q37.4273 682.33 46.212 682.33 Q54.9649 682.33 59.9619 686.691 Q64.9272 691.051 64.9272 698.69 Q64.9272 706.361 59.9619 710.721 Q54.9649 715.05 46.212 715.05 Q37.4273 715.05 32.4621 710.721 Q27.4968 706.361 27.4968 698.69 Z" fill="#000000" fill-rule="nonzero" fill-opacity="1" /><path clip-path="url(#clip840)" d="M33.8307 651.966 Q33.2578 652.952 33.0032 654.13 Q32.7167 655.276 32.7167 656.676 Q32.7167 661.642 35.9632 664.315 Q39.1779 666.957 45.2253 666.957 L64.0042 666.957 L64.0042 672.845 L28.3562 672.845 L28.3562 666.957 L33.8944 666.957 Q30.6479 665.111 29.0883 662.151 Q27.4968 659.191 27.4968 654.958 Q27.4968 654.353 27.5923 653.621 Q27.656 652.889 27.8151 651.998 L33.8307 651.966 Z" fill="#000000" fill-rule="nonzero" fill-opacity="1" /><polyline clip-path="url(#clip842)" style="stroke:#009af9; stroke-linecap:round; stroke-linejoin:round; stroke-width:4; stroke-opacity:1; fill:none" points="237.067,85.838 247.338,254.155 257.608,375.323 267.878,473.092 278.149,555.498 288.419,626.627 298.689,688.966 308.96,744.202 319.23,793.551 329.5,837.931 339.771,878.061 350.041,914.511 360.311,947.749 370.582,978.16 380.852,1006.06 391.122,1031.74 401.393,1055.41 411.663,1077.28 421.933,1097.52 432.204,1116.29 442.474,1133.72 452.744,1149.91 463.015,1164.99 473.285,1179.03 483.555,1192.12 493.826,1204.34 504.096,1215.75 514.366,1226.41 524.637,1236.37 534.907,1245.69 545.177,1254.41 555.448,1262.56 565.718,1270.2 575.988,1277.35 586.259,1284.04 596.529,1290.3 606.799,1296.17 617.07,1301.66 627.34,1306.81 637.61,1311.62 647.881,1316.13 658.151,1320.34 668.421,1324.29 678.692,1327.98 688.962,1331.43 699.232,1334.65 709.503,1337.66 719.773,1340.47 730.043,1343.1 740.314,1345.54 750.584,1347.83 760.854,1349.95 771.125,1351.93 781.395,1353.77 791.665,1355.48 801.936,1357.06 812.206,1358.53 822.476,1359.9 832.747,1361.16 843.017,1362.32 853.287,1363.4 863.558,1364.39 873.828,1365.3 884.098,1366.13 894.369,1366.89 904.639,1367.59 914.909,1368.22 925.18,1368.8 935.45,1369.32 945.72,1369.79 955.991,1370.2 966.261,1370.58 976.531,1370.9 986.802,1371.19 997.072,1371.44 1007.34,1371.65 1017.61,1371.83 1027.88,1371.98 1038.15,1372.1 1048.42,1372.19 1058.69,1372.25 1068.96,1372.29 1079.23,1372.3 1089.5,1372.3 1099.78,1372.27 1110.05,1372.22 1120.32,1372.15 1130.59,1372.07 1140.86,1371.97 1151.13,1371.86 1161.4,1371.73 1171.67,1371.59 1181.94,1371.44 1192.21,1371.28 1202.48,1371.1 1212.75,1370.92 1223.02,1370.72 1233.29,1370.52 1243.56,1370.31 1253.83,1370.09 1264.1,1369.87 1274.37,1369.63 1284.64,1369.4 1294.91,1369.15 1305.18,1368.9 1315.45,1368.65 1325.72,1368.39 1335.99,1368.13 1346.26,1367.86 1356.53,1367.59 1366.8,1367.32 1377.07,1367.04 1387.34,1366.76 1397.61,1366.48 1407.89,1366.2 1418.16,1365.92 1428.43,1365.63 1438.7,1365.34 1448.97,1365.05 1459.24,1364.76 1469.51,1364.47 1479.78,1364.18 1490.05,1363.88 1500.32,1363.59 1510.59,1363.3 1520.86,1363 1531.13,1362.71 1541.4,1362.41 1551.67,1362.12 1561.94,1361.82 1572.21,1361.53 1582.48,1361.23 1592.75,1360.94 1603.02,1360.65 1613.29,1360.35 1623.56,1360.06 1633.83,1359.77 1644.1,1359.48 1654.37,1359.19 1664.64,1358.9 1674.91,1358.61 1685.18,1358.33 1695.45,1358.04 1705.72,1357.75 1716,1357.47 1726.27,1357.19 1736.54,1356.91 1746.81,1356.62 1757.08,1356.35 1767.35,1356.07 1777.62,1355.79 1787.89,1355.51 1798.16,1355.24 1808.43,1354.97 1818.7,1354.69 1828.97,1354.42 1839.24,1354.15 1849.51,1353.89 1859.78,1353.62 1870.05,1353.35 1880.32,1353.09 1890.59,1352.83 1900.86,1352.57 1911.13,1352.31 1921.4,1352.05 1931.67,1351.79 1941.94,1351.53 1952.21,1351.28 1962.48,1351.03 1972.75,1350.78 1983.02,1350.53 1993.29,1350.28 2003.56,1350.03 2013.83,1349.79 2024.11,1349.54 2034.38,1349.3 2044.65,1349.06 2054.92,1348.82 2065.19,1348.58 2075.46,1348.34 2085.73,1348.11 2096,1347.87 2106.27,1347.64 2116.54,1347.41 2126.81,1347.18 2137.08,1346.95 2147.35,1346.72 2157.62,1346.5 2167.89,1346.27 2178.16,1346.05 2188.43,1345.83 2198.7,1345.61 2208.97,1345.39 2219.24,1345.17 2229.51,1344.95 2239.78,1344.74 2250.05,1344.52 2260.32,1344.31 2270.59,1344.1 2280.86,1343.89 2291.13,1343.68 "/>
<path clip-path="url(#clip840)" d="M2010.02 196.379 L2280.18 196.379 L2280.18 92.6992 L2010.02 92.6992  Z" fill="#ffffff" fill-rule="evenodd" fill-opacity="1"/>
<polyline clip-path="url(#clip840)" style="stroke:#000000; stroke-linecap:round; stroke-linejoin:round; stroke-width:4; stroke-opacity:1; fill:none" points="2010.02,196.379 2280.18,196.379 2280.18,92.6992 2010.02,92.6992 2010.02,196.379 "/>
<polyline clip-path="url(#clip840)" style="stroke:#009af9; stroke-linecap:round; stroke-linejoin:round; stroke-width:4; stroke-opacity:1; fill:none" points="2034.21,144.539 2179.36,144.539 "/>
<path clip-path="url(#clip840)" d="M2217.4 164.227 Q2215.59 168.856 2213.88 170.268 Q2212.17 171.68 2209.3 171.68 L2205.89 171.68 L2205.89 168.115 L2208.39 168.115 Q2210.15 168.115 2211.13 167.282 Q2212.1 166.449 2213.28 163.347 L2214.04 161.403 L2203.56 135.893 L2208.07 135.893 L2216.17 156.171 L2224.27 135.893 L2228.79 135.893 L2217.4 164.227 Z" fill="#000000" fill-rule="nonzero" fill-opacity="1" /><path clip-path="url(#clip840)" d="M2236.08 157.884 L2243.72 157.884 L2243.72 131.518 L2235.41 133.185 L2235.41 128.926 L2243.67 127.259 L2248.35 127.259 L2248.35 157.884 L2255.99 157.884 L2255.99 161.819 L2236.08 161.819 L2236.08 157.884 Z" fill="#000000" fill-rule="nonzero" fill-opacity="1" /></svg>
