<?xml version="1.0" encoding="utf-8"?>
<svg xmlns="http://www.w3.org/2000/svg" xmlns:xlink="http://www.w3.org/1999/xlink" width="600" height="400" viewBox="0 0 2400 1600">
<defs>
  <clipPath id="clip470">
    <rect x="0" y="0" width="2400" height="1600"/>
  </clipPath>
</defs>
<path clip-path="url(#clip470)" d="M0 1600 L2400 1600 L2400 0 L0 0  Z" fill="#ffffff" fill-rule="evenodd" fill-opacity="1"/>
<defs>
  <clipPath id="clip471">
    <rect x="480" y="0" width="1681" height="1600"/>
  </clipPath>
</defs>
<path clip-path="url(#clip470)" d="M364.559 1315.18 L2352.76 1315.18 L2352.76 47.2441 L364.559 47.2441  Z" fill="#ffffff" fill-rule="evenodd" fill-opacity="1"/>
<defs>
  <clipPath id="clip472">
    <rect x="364" y="47" width="1989" height="1269"/>
  </clipPath>
</defs>
<polyline clip-path="url(#clip472)" style="stroke:#000000; stroke-linecap:round; stroke-linejoin:round; stroke-width:2; stroke-opacity:0.1; fill:none" points="418.993,1315.18 418.993,47.2441 "/>
<polyline clip-path="url(#clip472)" style="stroke:#000000; stroke-linecap:round; stroke-linejoin:round; stroke-width:2; stroke-opacity:0.1; fill:none" points="877.814,1315.18 877.814,47.2441 "/>
<polyline clip-path="url(#clip472)" style="stroke:#000000; stroke-linecap:round; stroke-linejoin:round; stroke-width:2; stroke-opacity:0.1; fill:none" points="1336.63,1315.18 1336.63,47.2441 "/>
<polyline clip-path="url(#clip472)" style="stroke:#000000; stroke-linecap:round; stroke-linejoin:round; stroke-width:2; stroke-opacity:0.1; fill:none" points="1795.45,1315.18 1795.45,47.2441 "/>
<polyline clip-path="url(#clip472)" style="stroke:#000000; stroke-linecap:round; stroke-linejoin:round; stroke-width:2; stroke-opacity:0.1; fill:none" points="2254.27,1315.18 2254.27,47.2441 "/>
<polyline clip-path="url(#clip470)" style="stroke:#000000; stroke-linecap:round; stroke-linejoin:round; stroke-width:4; stroke-opacity:1; fill:none" points="364.559,1315.18 2352.76,1315.18 "/>
<polyline clip-path="url(#clip470)" style="stroke:#000000; stroke-linecap:round; stroke-linejoin:round; stroke-width:4; stroke-opacity:1; fill:none" points="418.993,1315.18 418.993,1296.28 "/>
<polyline clip-path="url(#clip470)" style="stroke:#000000; stroke-linecap:round; stroke-linejoin:round; stroke-width:4; stroke-opacity:1; fill:none" points="877.814,1315.18 877.814,1296.28 "/>
<polyline clip-path="url(#clip470)" style="stroke:#000000; stroke-linecap:round; stroke-linejoin:round; stroke-width:4; stroke-opacity:1; fill:none" points="1336.63,1315.18 1336.63,1296.28 "/>
<polyline clip-path="url(#clip470)" style="stroke:#000000; stroke-linecap:round; stroke-linejoin:round; stroke-width:4; stroke-opacity:1; fill:none" points="1795.45,1315.18 1795.45,1296.28 "/>
<polyline clip-path="url(#clip470)" style="stroke:#000000; stroke-linecap:round; stroke-linejoin:round; stroke-width:4; stroke-opacity:1; fill:none" points="2254.27,1315.18 2254.27,1296.28 "/>
<path clip-path="url(#clip470)" d="M389.714 1408.68 Q389.714 1388.23 394.877 1377.09 Q402.078 1360.52 419.061 1360.52 Q422.662 1360.52 426.398 1361.54 Q430.202 1362.49 434.958 1366.22 Q439.781 1369.96 442.702 1376.07 Q448.273 1387.9 448.273 1408.68 Q448.273 1429 443.11 1440.07 Q435.569 1456.24 418.925 1456.24 Q412.675 1456.24 406.289 1453.04 Q399.972 1449.85 395.963 1442.17 Q389.714 1430.69 389.714 1408.68 M401.262 1406.98 Q401.262 1427.98 402.757 1436.33 Q404.455 1445.37 409.075 1449.31 Q413.762 1453.18 418.925 1453.18 Q424.496 1453.18 429.115 1449.04 Q433.803 1444.82 435.229 1435.79 Q436.792 1426.89 436.724 1406.98 Q436.724 1387.62 435.365 1379.88 Q433.531 1370.84 428.64 1367.24 Q423.816 1363.57 418.925 1363.57 Q417.091 1363.57 415.121 1364.12 Q413.219 1364.66 410.433 1366.22 Q407.648 1367.79 405.474 1371.66 Q403.368 1375.53 402.349 1381.37 Q401.262 1388.91 401.262 1406.98 Z" fill="#000000" fill-rule="nonzero" fill-opacity="1" /><path clip-path="url(#clip470)" d="M779.717 1453.18 Q779.717 1450.67 779.92 1449.92 Q780.192 1449.17 781.279 1448.02 L807.977 1418.26 Q822.583 1401.82 822.583 1387.49 Q822.583 1378.18 817.692 1371.52 Q812.868 1364.87 803.969 1364.87 Q797.855 1364.87 792.692 1368.6 Q787.529 1372.34 785.151 1379 Q785.559 1378.86 786.985 1378.86 Q790.45 1378.86 792.352 1381.03 Q794.322 1383.21 794.322 1386.13 Q794.322 1389.87 791.877 1391.7 Q789.499 1393.47 787.121 1393.47 Q786.17 1393.47 784.88 1393.26 Q783.657 1393.06 781.687 1391.16 Q779.717 1389.19 779.717 1385.72 Q779.717 1376.01 787.053 1368.26 Q794.458 1360.52 805.735 1360.52 Q818.507 1360.52 826.863 1368.13 Q835.287 1375.67 835.287 1387.49 Q835.287 1391.63 833.996 1395.44 Q832.773 1399.17 831.075 1402.09 Q829.444 1405.01 824.961 1409.7 Q820.477 1414.39 816.877 1417.72 Q813.276 1421.05 805.192 1428.11 L790.45 1442.45 L815.518 1442.45 Q827.746 1442.45 828.697 1441.36 Q830.056 1439.39 831.754 1429 L835.287 1429 L831.347 1453.18 L779.717 1453.18 Z" fill="#000000" fill-rule="nonzero" fill-opacity="1" /><path clip-path="url(#clip470)" d="M849.281 1430.76 Q849.281 1426.62 851.523 1425.06 Q853.765 1423.42 856.143 1423.42 Q859.335 1423.42 861.17 1425.46 Q863.072 1427.43 863.072 1430.22 Q863.072 1433 861.17 1435.04 Q859.335 1437.01 856.143 1437.01 Q854.58 1437.01 853.765 1436.74 Q855.599 1443.13 861.17 1447.75 Q866.808 1452.36 874.213 1452.36 Q883.52 1452.36 889.091 1443.33 Q892.419 1437.49 892.419 1424.24 Q892.419 1412.56 889.906 1406.71 Q886.034 1397.81 878.085 1397.81 Q866.808 1397.81 860.151 1407.53 Q859.335 1408.75 858.384 1408.82 Q857.026 1408.82 856.686 1408.07 Q856.414 1407.26 856.414 1405.15 L856.414 1363.98 Q856.414 1360.65 857.773 1360.65 Q858.316 1360.65 859.471 1361.06 Q868.235 1364.93 877.949 1365 Q887.936 1365 896.903 1360.93 Q897.582 1360.52 897.99 1360.52 Q899.349 1360.52 899.417 1362.08 Q899.417 1362.62 898.262 1364.25 Q897.175 1365.82 894.797 1367.92 Q892.419 1369.96 889.362 1371.93 Q886.305 1373.9 881.822 1375.26 Q877.406 1376.55 872.515 1376.55 Q866.672 1376.55 860.694 1374.72 L860.694 1401.82 Q867.895 1394.76 878.357 1394.76 Q889.498 1394.76 897.175 1403.72 Q904.851 1412.69 904.851 1425.19 Q904.851 1438.3 895.748 1447.27 Q886.713 1456.24 874.485 1456.24 Q863.344 1456.24 856.278 1448.29 Q849.281 1440.34 849.281 1430.76 Z" fill="#000000" fill-rule="nonzero" fill-opacity="1" /><path clip-path="url(#clip470)" d="M917.351 1408.68 Q917.351 1388.23 922.514 1377.09 Q929.715 1360.52 946.699 1360.52 Q950.299 1360.52 954.036 1361.54 Q957.84 1362.49 962.595 1366.22 Q967.419 1369.96 970.34 1376.07 Q975.911 1387.9 975.911 1408.68 Q975.911 1429 970.748 1440.07 Q963.207 1456.24 946.563 1456.24 Q940.313 1456.24 933.927 1453.04 Q927.609 1449.85 923.601 1442.17 Q917.351 1430.69 917.351 1408.68 M928.9 1406.98 Q928.9 1427.98 930.395 1436.33 Q932.093 1445.37 936.713 1449.31 Q941.4 1453.18 946.563 1453.18 Q952.134 1453.18 956.753 1449.04 Q961.441 1444.82 962.867 1435.79 Q964.43 1426.89 964.362 1406.98 Q964.362 1387.62 963.003 1379.88 Q961.169 1370.84 956.278 1367.24 Q951.454 1363.57 946.563 1363.57 Q944.729 1363.57 942.759 1364.12 Q940.857 1364.66 938.071 1366.22 Q935.286 1367.79 933.112 1371.66 Q931.006 1375.53 929.987 1381.37 Q928.9 1388.91 928.9 1406.98 Z" fill="#000000" fill-rule="nonzero" fill-opacity="1" /><path clip-path="url(#clip470)" d="M1238.54 1430.76 Q1238.54 1426.62 1240.78 1425.06 Q1243.02 1423.42 1245.4 1423.42 Q1248.59 1423.42 1250.43 1425.46 Q1252.33 1427.43 1252.33 1430.22 Q1252.33 1433 1250.43 1435.04 Q1248.59 1437.01 1245.4 1437.01 Q1243.84 1437.01 1243.02 1436.74 Q1244.85 1443.13 1250.43 1447.75 Q1256.06 1452.36 1263.47 1452.36 Q1272.78 1452.36 1278.35 1443.33 Q1281.68 1437.49 1281.68 1424.24 Q1281.68 1412.56 1279.16 1406.71 Q1275.29 1397.81 1267.34 1397.81 Q1256.06 1397.81 1249.41 1407.53 Q1248.59 1408.75 1247.64 1408.82 Q1246.28 1408.82 1245.94 1408.07 Q1245.67 1407.26 1245.67 1405.15 L1245.67 1363.98 Q1245.67 1360.65 1247.03 1360.65 Q1247.57 1360.65 1248.73 1361.06 Q1257.49 1364.93 1267.21 1365 Q1277.19 1365 1286.16 1360.93 Q1286.84 1360.52 1287.25 1360.52 Q1288.6 1360.52 1288.67 1362.08 Q1288.67 1362.62 1287.52 1364.25 Q1286.43 1365.82 1284.05 1367.92 Q1281.68 1369.96 1278.62 1371.93 Q1275.56 1373.9 1271.08 1375.26 Q1266.66 1376.55 1261.77 1376.55 Q1255.93 1376.55 1249.95 1374.72 L1249.95 1401.82 Q1257.15 1394.76 1267.61 1394.76 Q1278.75 1394.76 1286.43 1403.72 Q1294.11 1412.69 1294.11 1425.19 Q1294.11 1438.3 1285 1447.27 Q1275.97 1456.24 1263.74 1456.24 Q1252.6 1456.24 1245.53 1448.29 Q1238.54 1440.34 1238.54 1430.76 Z" fill="#000000" fill-rule="nonzero" fill-opacity="1" /><path clip-path="url(#clip470)" d="M1306.61 1408.68 Q1306.61 1388.23 1311.77 1377.09 Q1318.97 1360.52 1335.95 1360.52 Q1339.56 1360.52 1343.29 1361.54 Q1347.1 1362.49 1351.85 1366.22 Q1356.67 1369.96 1359.6 1376.07 Q1365.17 1387.9 1365.17 1408.68 Q1365.17 1429 1360 1440.07 Q1352.46 1456.24 1335.82 1456.24 Q1329.57 1456.24 1323.18 1453.04 Q1316.87 1449.85 1312.86 1442.17 Q1306.61 1430.69 1306.61 1408.68 M1318.16 1406.98 Q1318.16 1427.98 1319.65 1436.33 Q1321.35 1445.37 1325.97 1449.31 Q1330.66 1453.18 1335.82 1453.18 Q1341.39 1453.18 1346.01 1449.04 Q1350.7 1444.82 1352.12 1435.79 Q1353.69 1426.89 1353.62 1406.98 Q1353.62 1387.62 1352.26 1379.88 Q1350.42 1370.84 1345.53 1367.24 Q1340.71 1363.57 1335.82 1363.57 Q1333.98 1363.57 1332.01 1364.12 Q1330.11 1364.66 1327.33 1366.22 Q1324.54 1367.79 1322.37 1371.66 Q1320.26 1375.53 1319.24 1381.37 Q1318.16 1388.91 1318.16 1406.98 Z" fill="#000000" fill-rule="nonzero" fill-opacity="1" /><path clip-path="url(#clip470)" d="M1376.17 1408.68 Q1376.17 1388.23 1381.33 1377.09 Q1388.54 1360.52 1405.52 1360.52 Q1409.12 1360.52 1412.86 1361.54 Q1416.66 1362.49 1421.42 1366.22 Q1426.24 1369.96 1429.16 1376.07 Q1434.73 1387.9 1434.73 1408.68 Q1434.73 1429 1429.57 1440.07 Q1422.03 1456.24 1405.38 1456.24 Q1399.13 1456.24 1392.75 1453.04 Q1386.43 1449.85 1382.42 1442.17 Q1376.17 1430.69 1376.17 1408.68 M1387.72 1406.98 Q1387.72 1427.98 1389.22 1436.33 Q1390.91 1445.37 1395.53 1449.31 Q1400.22 1453.18 1405.38 1453.18 Q1410.95 1453.18 1415.57 1449.04 Q1420.26 1444.82 1421.69 1435.79 Q1423.25 1426.89 1423.18 1406.98 Q1423.18 1387.62 1421.82 1379.88 Q1419.99 1370.84 1415.1 1367.24 Q1410.27 1363.57 1405.38 1363.57 Q1403.55 1363.57 1401.58 1364.12 Q1399.68 1364.66 1396.89 1366.22 Q1394.11 1367.79 1391.93 1371.66 Q1389.83 1375.53 1388.81 1381.37 Q1387.72 1388.91 1387.72 1406.98 Z" fill="#000000" fill-rule="nonzero" fill-opacity="1" /><path clip-path="url(#clip470)" d="M1697.8 1387.76 L1702.35 1359.16 L1705.82 1359.16 Q1706.22 1360.86 1706.9 1361.6 Q1707.65 1362.35 1711.59 1362.96 Q1715.6 1363.57 1723.68 1363.57 L1757.45 1363.57 Q1757.45 1366.77 1756.22 1368.47 L1737.4 1394.89 Q1731.43 1403.25 1728.78 1418.67 Q1727.21 1429 1727.28 1441.5 L1727.28 1448.56 Q1727.28 1456.24 1720.83 1456.24 Q1714.44 1456.24 1714.44 1448.56 Q1714.44 1422 1731.56 1396.25 Q1733.4 1393.6 1740.12 1384.16 Q1746.92 1374.72 1747.19 1374.31 L1718.38 1374.31 Q1705.75 1374.31 1704.73 1375.12 Q1703.37 1376.35 1701.26 1387.76 L1697.8 1387.76 Z" fill="#000000" fill-rule="nonzero" fill-opacity="1" /><path clip-path="url(#clip470)" d="M1766.48 1430.76 Q1766.48 1426.62 1768.72 1425.06 Q1770.96 1423.42 1773.34 1423.42 Q1776.53 1423.42 1778.37 1425.46 Q1780.27 1427.43 1780.27 1430.22 Q1780.27 1433 1778.37 1435.04 Q1776.53 1437.01 1773.34 1437.01 Q1771.78 1437.01 1770.96 1436.74 Q1772.8 1443.13 1778.37 1447.75 Q1784.01 1452.36 1791.41 1452.36 Q1800.72 1452.36 1806.29 1443.33 Q1809.62 1437.49 1809.62 1424.24 Q1809.62 1412.56 1807.11 1406.71 Q1803.23 1397.81 1795.28 1397.81 Q1784.01 1397.81 1777.35 1407.53 Q1776.53 1408.75 1775.58 1408.82 Q1774.22 1408.82 1773.89 1408.07 Q1773.61 1407.26 1773.61 1405.15 L1773.61 1363.98 Q1773.61 1360.65 1774.97 1360.65 Q1775.52 1360.65 1776.67 1361.06 Q1785.43 1364.93 1795.15 1365 Q1805.13 1365 1814.1 1360.93 Q1814.78 1360.52 1815.19 1360.52 Q1816.55 1360.52 1816.62 1362.08 Q1816.62 1362.62 1815.46 1364.25 Q1814.37 1365.82 1812 1367.92 Q1809.62 1369.96 1806.56 1371.93 Q1803.5 1373.9 1799.02 1375.26 Q1794.61 1376.55 1789.71 1376.55 Q1783.87 1376.55 1777.89 1374.72 L1777.89 1401.82 Q1785.09 1394.76 1795.56 1394.76 Q1806.7 1394.76 1814.37 1403.72 Q1822.05 1412.69 1822.05 1425.19 Q1822.05 1438.3 1812.95 1447.27 Q1803.91 1456.24 1791.68 1456.24 Q1780.54 1456.24 1773.48 1448.29 Q1766.48 1440.34 1766.48 1430.76 Z" fill="#000000" fill-rule="nonzero" fill-opacity="1" /><path clip-path="url(#clip470)" d="M1834.55 1408.68 Q1834.55 1388.23 1839.71 1377.09 Q1846.91 1360.52 1863.9 1360.52 Q1867.5 1360.52 1871.23 1361.54 Q1875.04 1362.49 1879.79 1366.22 Q1884.62 1369.96 1887.54 1376.07 Q1893.11 1387.9 1893.11 1408.68 Q1893.11 1429 1887.95 1440.07 Q1880.41 1456.24 1863.76 1456.24 Q1857.51 1456.24 1851.13 1453.04 Q1844.81 1449.85 1840.8 1442.17 Q1834.55 1430.69 1834.55 1408.68 M1846.1 1406.98 Q1846.1 1427.98 1847.59 1436.33 Q1849.29 1445.37 1853.91 1449.31 Q1858.6 1453.18 1863.76 1453.18 Q1869.33 1453.18 1873.95 1449.04 Q1878.64 1444.82 1880.07 1435.79 Q1881.63 1426.89 1881.56 1406.98 Q1881.56 1387.62 1880.2 1379.88 Q1878.37 1370.84 1873.48 1367.24 Q1868.65 1363.57 1863.76 1363.57 Q1861.93 1363.57 1859.96 1364.12 Q1858.06 1364.66 1855.27 1366.22 Q1852.49 1367.79 1850.31 1371.66 Q1848.21 1375.53 1847.19 1381.37 Q1846.1 1388.91 1846.1 1406.98 Z" fill="#000000" fill-rule="nonzero" fill-opacity="1" /><path clip-path="url(#clip470)" d="M2124.11 1373.76 L2124.11 1369.42 Q2140.82 1369.42 2149.45 1360.52 Q2151.83 1360.52 2152.24 1361.06 Q2152.65 1361.6 2152.65 1364.12 L2152.65 1442.17 Q2152.65 1446.32 2154.68 1447.61 Q2156.72 1448.9 2165.62 1448.9 L2170.04 1448.9 L2170.04 1453.18 Q2165.14 1452.77 2147.48 1452.77 Q2129.82 1452.77 2125 1453.18 L2125 1448.9 L2129.41 1448.9 Q2138.18 1448.9 2140.28 1447.68 Q2142.39 1446.39 2142.39 1442.17 L2142.39 1370.1 Q2135.12 1373.76 2124.11 1373.76 Z" fill="#000000" fill-rule="nonzero" fill-opacity="1" /><path clip-path="url(#clip470)" d="M2186.75 1408.68 Q2186.75 1388.23 2191.91 1377.09 Q2199.11 1360.52 2216.1 1360.52 Q2219.7 1360.52 2223.43 1361.54 Q2227.24 1362.49 2231.99 1366.22 Q2236.82 1369.96 2239.74 1376.07 Q2245.31 1387.9 2245.31 1408.68 Q2245.31 1429 2240.14 1440.07 Q2232.6 1456.24 2215.96 1456.24 Q2209.71 1456.24 2203.32 1453.04 Q2197.01 1449.85 2193 1442.17 Q2186.75 1430.69 2186.75 1408.68 M2198.3 1406.98 Q2198.3 1427.98 2199.79 1436.33 Q2201.49 1445.37 2206.11 1449.31 Q2210.8 1453.18 2215.96 1453.18 Q2221.53 1453.18 2226.15 1449.04 Q2230.84 1444.82 2232.26 1435.79 Q2233.83 1426.89 2233.76 1406.98 Q2233.76 1387.62 2232.4 1379.88 Q2230.57 1370.84 2225.67 1367.24 Q2220.85 1363.57 2215.96 1363.57 Q2214.13 1363.57 2212.16 1364.12 Q2210.25 1364.66 2207.47 1366.22 Q2204.68 1367.79 2202.51 1371.66 Q2200.4 1375.53 2199.38 1381.37 Q2198.3 1388.91 2198.3 1406.98 Z" fill="#000000" fill-rule="nonzero" fill-opacity="1" /><path clip-path="url(#clip470)" d="M2256.31 1408.68 Q2256.31 1388.23 2261.48 1377.09 Q2268.68 1360.52 2285.66 1360.52 Q2289.26 1360.52 2293 1361.54 Q2296.8 1362.49 2301.56 1366.22 Q2306.38 1369.96 2309.3 1376.07 Q2314.87 1387.9 2314.87 1408.68 Q2314.87 1429 2309.71 1440.07 Q2302.17 1456.24 2285.52 1456.24 Q2279.27 1456.24 2272.89 1453.04 Q2266.57 1449.85 2262.56 1442.17 Q2256.31 1430.69 2256.31 1408.68 M2267.86 1406.98 Q2267.86 1427.98 2269.36 1436.33 Q2271.05 1445.37 2275.67 1449.31 Q2280.36 1453.18 2285.52 1453.18 Q2291.1 1453.18 2295.71 1449.04 Q2300.4 1444.82 2301.83 1435.79 Q2303.39 1426.89 2303.32 1406.98 Q2303.32 1387.62 2301.96 1379.88 Q2300.13 1370.84 2295.24 1367.24 Q2290.42 1363.57 2285.52 1363.57 Q2283.69 1363.57 2281.72 1364.12 Q2279.82 1364.66 2277.03 1366.22 Q2274.25 1367.79 2272.07 1371.66 Q2269.97 1375.53 2268.95 1381.37 Q2267.86 1388.91 2267.86 1406.98 Z" fill="#000000" fill-rule="nonzero" fill-opacity="1" /><path clip-path="url(#clip470)" d="M2325.88 1408.68 Q2325.88 1388.23 2331.04 1377.09 Q2338.24 1360.52 2355.22 1360.52 Q2358.83 1360.52 2362.56 1361.54 Q2366.37 1362.49 2371.12 1366.22 Q2375.94 1369.96 2378.87 1376.07 Q2384.44 1387.9 2384.44 1408.68 Q2384.44 1429 2379.27 1440.07 Q2371.73 1456.24 2355.09 1456.24 Q2348.84 1456.24 2342.45 1453.04 Q2336.14 1449.85 2332.13 1442.17 Q2325.88 1430.69 2325.88 1408.68 M2337.43 1406.98 Q2337.43 1427.98 2338.92 1436.33 Q2340.62 1445.37 2345.24 1449.31 Q2349.93 1453.18 2355.09 1453.18 Q2360.66 1453.18 2365.28 1449.04 Q2369.97 1444.82 2371.39 1435.79 Q2372.96 1426.89 2372.89 1406.98 Q2372.89 1387.62 2371.53 1379.88 Q2369.69 1370.84 2364.8 1367.24 Q2359.98 1363.57 2355.09 1363.57 Q2353.25 1363.57 2351.28 1364.12 Q2349.38 1364.66 2346.6 1366.22 Q2343.81 1367.79 2341.64 1371.66 Q2339.53 1375.53 2338.51 1381.37 Q2337.43 1388.91 2337.43 1406.98 Z" fill="#000000" fill-rule="nonzero" fill-opacity="1" /><path clip-path="url(#clip470)" d="M975.984 1605.95 L975.984 1587.61 Q975.984 1586.05 976.052 1585.51 Q976.12 1584.96 976.527 1584.55 Q976.935 1584.15 977.75 1584.15 Q978.701 1584.15 979.041 1584.55 Q979.448 1584.96 979.72 1586.52 Q981.826 1596.1 986.31 1601.2 Q990.861 1606.23 999.081 1606.23 Q1006.89 1606.23 1010.83 1602.76 Q1014.77 1599.3 1014.77 1593.59 Q1014.77 1583.4 1000.3 1580.82 Q991.948 1579.12 988.484 1578.03 Q985.019 1576.88 981.962 1574.36 Q975.984 1569.47 975.984 1562.54 Q975.984 1555.61 981.215 1550.52 Q986.514 1545.42 998.198 1545.42 Q1006.01 1545.42 1011.31 1549.36 Q1012.87 1548.14 1013.69 1547.12 Q1015.52 1545.42 1016.47 1545.42 Q1017.56 1545.42 1017.76 1546.17 Q1017.97 1546.85 1017.97 1548.82 L1017.97 1562.82 Q1017.97 1564.38 1017.9 1564.92 Q1017.83 1565.46 1017.42 1565.87 Q1017.02 1566.21 1016.13 1566.21 Q1014.57 1566.21 1014.5 1564.92 Q1013.42 1548.07 998.198 1548.07 Q989.978 1548.07 986.31 1551.27 Q982.641 1554.39 982.641 1558.67 Q982.641 1561.05 983.728 1562.88 Q984.883 1564.65 986.31 1565.74 Q987.804 1566.76 990.522 1567.77 Q993.239 1568.73 994.869 1569.07 Q996.568 1569.4 999.761 1570.08 Q1010.9 1572.19 1015.59 1576.74 Q1021.43 1582.58 1021.43 1589.99 Q1021.43 1598.21 1015.86 1603.78 Q1010.29 1609.35 999.081 1609.35 Q990.046 1609.35 983.728 1603.3 Q982.913 1604.12 982.302 1604.87 Q981.69 1605.55 981.418 1605.82 Q981.215 1606.09 981.147 1606.29 Q981.079 1606.43 980.943 1606.57 Q978.158 1609.35 977.478 1609.35 Q976.391 1609.35 976.188 1608.6 Q975.984 1607.92 975.984 1605.95 Z" fill="#000000" fill-rule="nonzero" fill-opacity="1" /><path clip-path="url(#clip470)" d="M1030.6 1552.15 L1030.6 1547.8 L1051.05 1546.31 L1051.05 1592.5 Q1051.05 1595.83 1051.32 1597.8 Q1051.59 1599.7 1052.68 1601.95 Q1053.84 1604.19 1056.42 1605.21 Q1059.07 1606.23 1063.28 1606.23 Q1070.82 1606.23 1075.44 1600.04 Q1080.13 1593.86 1080.13 1584.69 L1080.13 1559.89 Q1080.13 1554.73 1078.29 1553.44 Q1076.46 1552.15 1069.26 1552.15 L1069.26 1547.8 L1089.71 1546.31 L1089.71 1595.7 Q1089.71 1600.86 1091.47 1602.22 Q1093.31 1603.51 1100.58 1603.51 L1100.58 1607.79 L1080.53 1609.35 L1080.53 1596.78 Q1074.69 1609.28 1062.6 1609.35 Q1056.49 1609.35 1052.27 1607.79 Q1048.13 1606.23 1046.02 1604.32 Q1043.92 1602.35 1042.76 1598.62 Q1041.68 1594.88 1041.54 1592.57 Q1041.4 1590.26 1041.4 1585.78 L1041.4 1564.92 Q1041.4 1555.48 1040.05 1553.85 Q1038.69 1552.15 1030.6 1552.15 Z" fill="#000000" fill-rule="nonzero" fill-opacity="1" /><path clip-path="url(#clip470)" d="M1107.16 1517.1 L1107.16 1512.75 L1127.21 1511.25 L1127.21 1555.34 Q1135.29 1546.31 1146.29 1546.31 Q1158.25 1546.31 1167.01 1555.48 Q1175.78 1564.65 1175.78 1577.76 Q1175.78 1591.01 1166.61 1600.18 Q1157.44 1609.35 1144.73 1609.35 Q1133.18 1609.35 1126.53 1599.16 Q1121.63 1607.65 1121.5 1607.79 L1118.03 1607.79 L1118.03 1524.84 Q1118.03 1519.68 1116.2 1518.39 Q1114.37 1517.1 1107.16 1517.1 M1127.61 1591.96 Q1127.61 1594.88 1129.58 1597.8 Q1135.09 1606.23 1144.05 1606.23 Q1144.12 1606.23 1144.19 1606.23 Q1153.9 1606.23 1159.95 1597.33 Q1164.23 1590.67 1164.23 1577.63 Q1164.23 1564.72 1160.22 1558.26 Q1154.65 1549.36 1145.62 1549.36 Q1135.43 1549.36 1129.18 1558.26 Q1127.61 1560.51 1127.61 1563.29 L1127.61 1591.96 Z" fill="#000000" fill-rule="nonzero" fill-opacity="1" /><path clip-path="url(#clip470)" d="M1181.82 1581.9 L1181.82 1573.68 L1218.85 1573.68 L1218.85 1581.9 L1181.82 1581.9 Z" fill="#000000" fill-rule="nonzero" fill-opacity="1" /><path clip-path="url(#clip470)" d="M1231.35 1607.79 L1231.35 1603.51 Q1238.75 1603.51 1240.45 1602.62 Q1242.15 1601.67 1242.15 1597.19 L1242.15 1559.76 Q1242.15 1554.6 1240.38 1553.37 Q1238.69 1552.15 1231.89 1552.15 L1231.89 1547.8 L1251.32 1546.31 L1251.32 1597.33 Q1251.32 1601.47 1252.82 1602.49 Q1254.31 1603.51 1261.1 1603.51 L1261.1 1607.79 Q1246.91 1607.38 1246.63 1607.38 Q1244.73 1607.38 1231.35 1607.79 M1237.19 1522.05 Q1237.19 1519.27 1239.3 1517.03 Q1241.47 1514.72 1244.53 1514.72 Q1247.58 1514.72 1249.76 1516.82 Q1251.93 1518.86 1251.93 1522.12 Q1251.93 1525.32 1249.76 1527.42 Q1247.58 1529.46 1244.53 1529.46 Q1241.33 1529.46 1239.23 1527.22 Q1237.19 1524.98 1237.19 1522.05 Z" fill="#000000" fill-rule="nonzero" fill-opacity="1" /><path clip-path="url(#clip470)" d="M1267.9 1552.15 L1267.9 1549.09 Q1274.28 1548.82 1278.49 1544.34 Q1282.77 1539.79 1284.2 1534.22 Q1285.7 1528.64 1285.83 1522.19 L1289.3 1522.19 L1289.3 1547.8 L1309.2 1547.8 L1309.2 1552.15 L1289.3 1552.15 L1289.3 1590.8 Q1289.3 1605.82 1298.67 1605.82 Q1302.68 1605.82 1305.33 1601.74 Q1307.98 1597.6 1307.98 1590.26 L1307.98 1582.58 L1311.44 1582.58 L1311.44 1590.53 Q1311.44 1598.07 1307.98 1603.71 Q1304.51 1609.35 1297.65 1609.35 Q1295.14 1609.35 1292.63 1608.67 Q1290.18 1608.06 1286.92 1606.43 Q1283.73 1604.73 1281.69 1600.65 Q1279.72 1596.51 1279.72 1590.53 L1279.72 1552.15 L1267.9 1552.15 Z" fill="#000000" fill-rule="nonzero" fill-opacity="1" /><path clip-path="url(#clip470)" d="M1323.06 1577.15 Q1323.06 1564.04 1331.48 1554.73 Q1339.91 1545.42 1352 1545.42 Q1364.23 1545.42 1370.55 1553.37 Q1376.93 1561.32 1376.93 1572.73 Q1376.93 1574.84 1376.39 1575.25 Q1375.84 1575.65 1373.47 1575.65 L1334.61 1575.65 Q1334.61 1589.85 1338.82 1596.51 Q1344.66 1605.82 1354.51 1605.82 Q1355.87 1605.82 1357.5 1605.55 Q1359.13 1605.27 1362.46 1604.12 Q1365.79 1602.9 1368.71 1599.7 Q1371.63 1596.51 1373.33 1591.48 Q1373.74 1589.51 1375.1 1589.58 Q1376.93 1589.58 1376.93 1591.21 Q1376.93 1592.43 1375.57 1595.22 Q1374.28 1597.94 1371.77 1601.2 Q1369.26 1604.46 1364.36 1606.9 Q1359.54 1609.35 1353.7 1609.35 Q1341.47 1609.35 1332.23 1600.11 Q1323.06 1590.8 1323.06 1577.15 M1334.74 1572.73 L1367.76 1572.73 Q1367.76 1569.81 1367.22 1566.55 Q1366.74 1563.29 1365.25 1558.81 Q1363.82 1554.26 1360.42 1551.4 Q1357.03 1548.55 1352 1548.55 Q1349.76 1548.55 1347.31 1549.5 Q1344.93 1550.45 1342.01 1552.76 Q1339.09 1555.07 1337.05 1560.3 Q1335.02 1565.53 1334.74 1572.73 Z" fill="#000000" fill-rule="nonzero" fill-opacity="1" /><path clip-path="url(#clip470)" d="M1384.81 1607.79 L1384.81 1603.51 Q1392.22 1603.51 1393.92 1602.62 Q1395.68 1601.67 1395.68 1597.19 L1395.68 1559.89 Q1395.68 1554.73 1393.85 1553.44 Q1392.08 1552.15 1384.81 1552.15 L1384.81 1547.8 L1404.17 1546.31 L1404.17 1561.59 Q1406.14 1555.61 1410.29 1550.99 Q1414.5 1546.31 1421.29 1546.31 Q1425.78 1546.31 1428.63 1548.82 Q1431.55 1551.33 1431.55 1554.8 Q1431.55 1557.86 1429.65 1559.42 Q1427.81 1560.91 1425.57 1560.91 Q1423.06 1560.91 1421.29 1559.35 Q1419.59 1557.72 1419.59 1554.94 Q1419.59 1553.24 1420.34 1551.95 Q1421.16 1550.59 1421.77 1550.11 Q1422.38 1549.64 1422.79 1549.5 Q1422.52 1549.36 1421.29 1549.36 Q1413.62 1549.36 1409.2 1557.04 Q1404.85 1564.65 1404.85 1575.52 L1404.85 1596.92 Q1404.85 1600.93 1406.48 1602.22 Q1408.18 1603.51 1415.45 1603.51 L1418.37 1603.51 L1418.37 1607.79 Q1412.8 1607.38 1400.71 1607.38 Q1399.01 1607.38 1396.36 1607.45 Q1393.71 1607.52 1390.25 1607.65 Q1386.78 1607.79 1384.81 1607.79 Z" fill="#000000" fill-rule="nonzero" fill-opacity="1" /><path clip-path="url(#clip470)" d="M1441.13 1594.54 Q1441.13 1582.72 1455.06 1576.47 Q1463.41 1572.46 1480.67 1571.44 L1480.67 1566.35 Q1480.67 1557.72 1476.12 1553.17 Q1471.63 1548.55 1465.93 1548.55 Q1455.74 1548.55 1450.84 1554.94 Q1454.99 1555.07 1456.48 1557.18 Q1457.98 1559.21 1457.98 1561.32 Q1457.98 1564.11 1456.21 1565.94 Q1454.51 1567.71 1451.59 1567.71 Q1448.81 1567.71 1446.97 1566.01 Q1445.14 1564.24 1445.14 1561.18 Q1445.14 1554.39 1451.25 1549.91 Q1457.43 1545.42 1466.2 1545.42 Q1477.61 1545.42 1485.22 1553.1 Q1487.6 1555.48 1488.75 1558.54 Q1489.97 1561.59 1490.11 1563.63 Q1490.25 1565.6 1490.25 1569.54 L1490.25 1597.33 Q1490.25 1598.14 1490.52 1599.5 Q1490.79 1600.86 1492.01 1602.62 Q1493.3 1604.32 1495.41 1604.32 Q1500.44 1604.32 1500.37 1595.42 L1500.37 1587.61 L1503.9 1587.61 L1503.9 1595.42 Q1503.9 1602.83 1499.96 1605.75 Q1496.09 1608.6 1492.49 1608.6 Q1487.87 1608.6 1484.95 1605.21 Q1482.03 1601.81 1481.62 1597.19 Q1479.51 1602.49 1474.69 1605.95 Q1469.93 1609.35 1463.41 1609.35 Q1458.38 1609.35 1453.63 1608.06 Q1448.94 1606.84 1445 1603.37 Q1441.13 1599.84 1441.13 1594.54 M1451.86 1594.4 Q1451.86 1599.57 1455.53 1602.9 Q1459.2 1606.23 1464.36 1606.23 Q1470.21 1606.23 1475.44 1601.74 Q1480.67 1597.19 1480.67 1588.29 L1480.67 1574.36 Q1465.25 1574.91 1458.52 1581.09 Q1451.86 1587.2 1451.86 1594.4 Z" fill="#000000" fill-rule="nonzero" fill-opacity="1" /><path clip-path="url(#clip470)" d="M1507.5 1552.15 L1507.5 1549.09 Q1513.89 1548.82 1518.1 1544.34 Q1522.38 1539.79 1523.81 1534.22 Q1525.3 1528.64 1525.44 1522.19 L1528.9 1522.19 L1528.9 1547.8 L1548.81 1547.8 L1548.81 1552.15 L1528.9 1552.15 L1528.9 1590.8 Q1528.9 1605.82 1538.28 1605.82 Q1542.28 1605.82 1544.93 1601.74 Q1547.58 1597.6 1547.58 1590.26 L1547.58 1582.58 L1551.05 1582.58 L1551.05 1590.53 Q1551.05 1598.07 1547.58 1603.71 Q1544.12 1609.35 1537.26 1609.35 Q1534.74 1609.35 1532.23 1608.67 Q1529.78 1608.06 1526.52 1606.43 Q1523.33 1604.73 1521.29 1600.65 Q1519.32 1596.51 1519.32 1590.53 L1519.32 1552.15 L1507.5 1552.15 Z" fill="#000000" fill-rule="nonzero" fill-opacity="1" /><path clip-path="url(#clip470)" d="M1563.41 1607.79 L1563.41 1603.51 Q1570.82 1603.51 1572.51 1602.62 Q1574.21 1601.67 1574.21 1597.19 L1574.21 1559.76 Q1574.21 1554.6 1572.45 1553.37 Q1570.75 1552.15 1563.95 1552.15 L1563.95 1547.8 L1583.38 1546.31 L1583.38 1597.33 Q1583.38 1601.47 1584.88 1602.49 Q1586.37 1603.51 1593.17 1603.51 L1593.17 1607.79 Q1578.97 1607.38 1578.7 1607.38 Q1576.79 1607.38 1563.41 1607.79 M1569.25 1522.05 Q1569.25 1519.27 1571.36 1517.03 Q1573.53 1514.72 1576.59 1514.72 Q1579.65 1514.72 1581.82 1516.82 Q1584 1518.86 1584 1522.12 Q1584 1525.32 1581.82 1527.42 Q1579.65 1529.46 1576.59 1529.46 Q1573.4 1529.46 1571.29 1527.22 Q1569.25 1524.98 1569.25 1522.05 Z" fill="#000000" fill-rule="nonzero" fill-opacity="1" /><path clip-path="url(#clip470)" d="M1610.35 1600.32 Q1601.18 1591.21 1601.18 1578.03 Q1601.18 1564.79 1610.15 1555.14 Q1619.19 1545.42 1632.09 1545.42 Q1644.73 1545.42 1653.76 1555.07 Q1662.87 1564.65 1662.87 1578.03 Q1662.87 1591.14 1653.7 1600.25 Q1644.59 1609.35 1631.96 1609.35 Q1619.59 1609.35 1610.35 1600.32 M1612.73 1576.88 Q1612.73 1590.4 1616.26 1596.51 Q1621.7 1605.82 1632.09 1605.82 Q1637.26 1605.82 1641.54 1603.03 Q1645.88 1600.25 1648.26 1595.56 Q1651.32 1589.45 1651.32 1576.88 Q1651.32 1563.49 1647.65 1557.58 Q1642.21 1548.55 1631.96 1548.55 Q1627.47 1548.55 1623.06 1550.93 Q1618.71 1553.24 1616.06 1557.86 Q1612.73 1563.97 1612.73 1576.88 Z" fill="#000000" fill-rule="nonzero" fill-opacity="1" /><path clip-path="url(#clip470)" d="M1671.36 1607.79 L1671.36 1603.51 Q1678.76 1603.51 1680.46 1602.62 Q1682.16 1601.67 1682.16 1597.19 L1682.16 1559.89 Q1682.16 1554.73 1680.33 1553.44 Q1678.56 1552.15 1671.36 1552.15 L1671.36 1547.8 L1690.92 1546.31 L1690.92 1560.91 Q1697.45 1546.31 1711.51 1546.31 Q1721.97 1546.31 1726.11 1551.47 Q1729.17 1554.94 1729.78 1558.81 Q1730.46 1562.68 1730.46 1572.73 L1730.46 1599.3 Q1730.6 1602.22 1732.84 1602.9 Q1735.08 1603.51 1741.33 1603.51 L1741.33 1607.79 Q1727.13 1607.38 1725.71 1607.38 Q1724.62 1607.38 1710.01 1607.79 L1710.01 1603.51 Q1717.42 1603.51 1719.12 1602.62 Q1720.88 1601.67 1720.88 1597.19 L1720.88 1564.79 Q1720.88 1557.72 1718.71 1553.58 Q1716.53 1549.36 1710.56 1549.36 Q1703.36 1549.36 1697.58 1555.41 Q1691.81 1561.46 1691.81 1571.65 L1691.81 1597.19 Q1691.81 1601.67 1693.51 1602.62 Q1695.27 1603.51 1702.61 1603.51 L1702.61 1607.79 Q1688.41 1607.38 1687.05 1607.38 Q1685.96 1607.38 1671.36 1607.79 Z" fill="#000000" fill-rule="nonzero" fill-opacity="1" /><polyline clip-path="url(#clip472)" style="stroke:#000000; stroke-linecap:round; stroke-linejoin:round; stroke-width:2; stroke-opacity:0.1; fill:none" points="364.559,1279.29 2352.76,1279.29 "/>
<polyline clip-path="url(#clip472)" style="stroke:#000000; stroke-linecap:round; stroke-linejoin:round; stroke-width:2; stroke-opacity:0.1; fill:none" points="364.559,885.643 2352.76,885.643 "/>
<polyline clip-path="url(#clip472)" style="stroke:#000000; stroke-linecap:round; stroke-linejoin:round; stroke-width:2; stroke-opacity:0.1; fill:none" points="364.559,491.992 2352.76,491.992 "/>
<polyline clip-path="url(#clip472)" style="stroke:#000000; stroke-linecap:round; stroke-linejoin:round; stroke-width:2; stroke-opacity:0.1; fill:none" points="364.559,98.3405 2352.76,98.3405 "/>
<polyline clip-path="url(#clip470)" style="stroke:#000000; stroke-linecap:round; stroke-linejoin:round; stroke-width:4; stroke-opacity:1; fill:none" points="364.559,1315.18 364.559,47.2441 "/>
<polyline clip-path="url(#clip470)" style="stroke:#000000; stroke-linecap:round; stroke-linejoin:round; stroke-width:4; stroke-opacity:1; fill:none" points="364.559,1279.29 383.456,1279.29 "/>
<polyline clip-path="url(#clip470)" style="stroke:#000000; stroke-linecap:round; stroke-linejoin:round; stroke-width:4; stroke-opacity:1; fill:none" points="364.559,885.643 383.456,885.643 "/>
<polyline clip-path="url(#clip470)" style="stroke:#000000; stroke-linecap:round; stroke-linejoin:round; stroke-width:4; stroke-opacity:1; fill:none" points="364.559,491.992 383.456,491.992 "/>
<polyline clip-path="url(#clip470)" style="stroke:#000000; stroke-linecap:round; stroke-linejoin:round; stroke-width:4; stroke-opacity:1; fill:none" points="364.559,98.3405 383.456,98.3405 "/>
<path clip-path="url(#clip470)" d="M161.78 1282.32 Q161.78 1261.87 166.943 1250.73 Q174.144 1234.15 191.128 1234.15 Q194.728 1234.15 198.465 1235.17 Q202.269 1236.12 207.024 1239.86 Q211.848 1243.6 214.769 1249.71 Q220.339 1261.53 220.339 1282.32 Q220.339 1302.63 215.176 1313.7 Q207.636 1329.87 190.992 1329.87 Q184.742 1329.87 178.356 1326.68 Q172.038 1323.49 168.03 1315.81 Q161.78 1304.33 161.78 1282.32 M173.329 1280.62 Q173.329 1301.61 174.824 1309.97 Q176.522 1319 181.141 1322.94 Q185.829 1326.81 190.992 1326.81 Q196.562 1326.81 201.182 1322.67 Q205.869 1318.46 207.296 1309.42 Q208.859 1300.52 208.791 1280.62 Q208.791 1261.26 207.432 1253.51 Q205.598 1244.48 200.706 1240.88 Q195.883 1237.21 190.992 1237.21 Q189.158 1237.21 187.188 1237.75 Q185.285 1238.3 182.5 1239.86 Q179.715 1241.42 177.541 1245.29 Q175.435 1249.17 174.416 1255.01 Q173.329 1262.55 173.329 1280.62 Z" fill="#000000" fill-rule="nonzero" fill-opacity="1" /><path clip-path="url(#clip470)" d="M239.837 1324.57 Q237.731 1322.33 237.731 1319.41 Q237.731 1316.49 239.837 1314.38 Q241.943 1312.21 245.135 1312.21 Q248.193 1312.21 250.231 1314.25 Q252.336 1316.22 252.336 1319.48 Q252.336 1322.67 250.095 1324.78 Q247.921 1326.81 245.135 1326.81 Q241.943 1326.81 239.837 1324.57 Z" fill="#000000" fill-rule="nonzero" fill-opacity="1" /><path clip-path="url(#clip470)" d="M269.999 1282.32 Q269.999 1261.87 275.162 1250.73 Q282.363 1234.15 299.347 1234.15 Q302.948 1234.15 306.684 1235.17 Q310.488 1236.12 315.244 1239.86 Q320.067 1243.6 322.988 1249.71 Q328.559 1261.53 328.559 1282.32 Q328.559 1302.63 323.396 1313.7 Q315.855 1329.87 299.211 1329.87 Q292.961 1329.87 286.575 1326.68 Q280.257 1323.49 276.249 1315.81 Q269.999 1304.33 269.999 1282.32 M281.548 1280.62 Q281.548 1301.61 283.043 1309.97 Q284.741 1319 289.361 1322.94 Q294.048 1326.81 299.211 1326.81 Q304.782 1326.81 309.401 1322.67 Q314.089 1318.46 315.515 1309.42 Q317.078 1300.52 317.01 1280.62 Q317.01 1261.26 315.651 1253.51 Q313.817 1244.48 308.926 1240.88 Q304.102 1237.21 299.211 1237.21 Q297.377 1237.21 295.407 1237.75 Q293.505 1238.3 290.719 1239.86 Q287.934 1241.42 285.76 1245.29 Q283.654 1249.17 282.635 1255.01 Q281.548 1262.55 281.548 1280.62 Z" fill="#000000" fill-rule="nonzero" fill-opacity="1" /><path clip-path="url(#clip470)" d="M163.275 888.666 Q163.275 868.218 168.438 857.077 Q175.639 840.501 192.622 840.501 Q196.223 840.501 199.959 841.52 Q203.764 842.471 208.519 846.208 Q213.342 849.944 216.263 856.058 Q221.834 867.879 221.834 888.666 Q221.834 908.979 216.671 920.052 Q209.13 936.22 192.486 936.22 Q186.236 936.22 179.851 933.028 Q173.533 929.835 169.525 922.158 Q163.275 910.677 163.275 888.666 M174.824 886.968 Q174.824 907.96 176.318 916.316 Q178.016 925.351 182.636 929.291 Q187.323 933.163 192.486 933.163 Q198.057 933.163 202.677 929.019 Q207.364 924.808 208.791 915.772 Q210.353 906.873 210.285 886.968 Q210.285 867.607 208.927 859.862 Q207.092 850.827 202.201 847.227 Q197.378 843.558 192.486 843.558 Q190.652 843.558 188.682 844.102 Q186.78 844.645 183.995 846.208 Q181.209 847.77 179.035 851.642 Q176.929 855.515 175.91 861.357 Q174.824 868.898 174.824 886.968 Z" fill="#000000" fill-rule="nonzero" fill-opacity="1" /><path clip-path="url(#clip470)" d="M241.331 930.922 Q239.225 928.68 239.225 925.759 Q239.225 922.837 241.331 920.731 Q243.437 918.558 246.63 918.558 Q249.687 918.558 251.725 920.596 Q253.831 922.566 253.831 925.827 Q253.831 929.019 251.589 931.125 Q249.415 933.163 246.63 933.163 Q243.437 933.163 241.331 930.922 Z" fill="#000000" fill-rule="nonzero" fill-opacity="1" /><path clip-path="url(#clip470)" d="M272.989 910.745 Q272.989 906.601 275.23 905.039 Q277.472 903.408 279.85 903.408 Q283.043 903.408 284.877 905.446 Q286.779 907.416 286.779 910.202 Q286.779 912.987 284.877 915.025 Q283.043 916.995 279.85 916.995 Q278.287 916.995 277.472 916.723 Q279.306 923.109 284.877 927.729 Q290.516 932.348 297.92 932.348 Q307.227 932.348 312.798 923.313 Q316.127 917.471 316.127 904.223 Q316.127 892.539 313.613 886.696 Q309.741 877.797 301.793 877.797 Q290.516 877.797 283.858 887.512 Q283.043 888.734 282.092 888.802 Q280.733 888.802 280.393 888.055 Q280.122 887.24 280.122 885.134 L280.122 843.966 Q280.122 840.637 281.48 840.637 Q282.024 840.637 283.179 841.045 Q291.942 844.917 301.657 844.985 Q311.643 844.985 320.61 840.909 Q321.29 840.501 321.697 840.501 Q323.056 840.501 323.124 842.064 Q323.124 842.607 321.969 844.238 Q320.882 845.8 318.504 847.906 Q316.127 849.944 313.07 851.914 Q310.013 853.884 305.529 855.243 Q301.113 856.534 296.222 856.534 Q290.38 856.534 284.401 854.699 L284.401 881.805 Q291.602 874.74 302.064 874.74 Q313.206 874.74 320.882 883.707 Q328.559 892.675 328.559 905.175 Q328.559 918.286 319.456 927.253 Q310.42 936.22 298.192 936.22 Q287.051 936.22 279.986 928.272 Q272.989 920.324 272.989 910.745 Z" fill="#000000" fill-rule="nonzero" fill-opacity="1" /><path clip-path="url(#clip470)" d="M168.709 460.097 L168.709 455.749 Q185.421 455.749 194.049 446.85 Q196.427 446.85 196.834 447.393 Q197.242 447.937 197.242 450.45 L197.242 528.507 Q197.242 532.651 199.28 533.941 Q201.318 535.232 210.217 535.232 L214.633 535.232 L214.633 539.512 Q209.742 539.104 192.079 539.104 Q174.416 539.104 169.593 539.512 L169.593 535.232 L174.008 535.232 Q182.772 535.232 184.878 534.009 Q186.984 532.719 186.984 528.507 L186.984 456.428 Q179.715 460.097 168.709 460.097 Z" fill="#000000" fill-rule="nonzero" fill-opacity="1" /><path clip-path="url(#clip470)" d="M239.837 537.27 Q237.731 535.028 237.731 532.107 Q237.731 529.186 239.837 527.08 Q241.943 524.906 245.135 524.906 Q248.193 524.906 250.231 526.944 Q252.336 528.914 252.336 532.175 Q252.336 535.368 250.095 537.474 Q247.921 539.512 245.135 539.512 Q241.943 539.512 239.837 537.27 Z" fill="#000000" fill-rule="nonzero" fill-opacity="1" /><path clip-path="url(#clip470)" d="M269.999 495.015 Q269.999 474.567 275.162 463.426 Q282.363 446.85 299.347 446.85 Q302.948 446.85 306.684 447.869 Q310.488 448.82 315.244 452.556 Q320.067 456.293 322.988 462.407 Q328.559 474.227 328.559 495.015 Q328.559 515.327 323.396 526.401 Q315.855 542.569 299.211 542.569 Q292.961 542.569 286.575 539.376 Q280.257 536.183 276.249 528.507 Q269.999 517.026 269.999 495.015 M281.548 493.317 Q281.548 514.308 283.043 522.664 Q284.741 531.7 289.361 535.64 Q294.048 539.512 299.211 539.512 Q304.782 539.512 309.401 535.368 Q314.089 531.156 315.515 522.121 Q317.078 513.221 317.01 493.317 Q317.01 473.955 315.651 466.211 Q313.817 457.176 308.926 453.575 Q304.102 449.907 299.211 449.907 Q297.377 449.907 295.407 450.45 Q293.505 450.994 290.719 452.556 Q287.934 454.119 285.76 457.991 Q283.654 461.863 282.635 467.705 Q281.548 475.246 281.548 493.317 Z" fill="#000000" fill-rule="nonzero" fill-opacity="1" /><path clip-path="url(#clip470)" d="M170.204 66.4454 L170.204 62.0976 Q186.916 62.0976 195.543 53.1982 Q197.921 53.1982 198.329 53.7417 Q198.736 54.2852 198.736 56.7987 L198.736 134.855 Q198.736 138.999 200.774 140.29 Q202.812 141.581 211.712 141.581 L216.128 141.581 L216.128 145.861 Q211.236 145.453 193.573 145.453 Q175.91 145.453 171.087 145.861 L171.087 141.581 L175.503 141.581 Q184.266 141.581 186.372 140.358 Q188.478 139.067 188.478 134.855 L188.478 62.777 Q181.209 66.4454 170.204 66.4454 Z" fill="#000000" fill-rule="nonzero" fill-opacity="1" /><path clip-path="url(#clip470)" d="M241.331 143.619 Q239.225 141.377 239.225 138.456 Q239.225 135.535 241.331 133.429 Q243.437 131.255 246.63 131.255 Q249.687 131.255 251.725 133.293 Q253.831 135.263 253.831 138.524 Q253.831 141.717 251.589 143.823 Q249.415 145.861 246.63 145.861 Q243.437 145.861 241.331 143.619 Z" fill="#000000" fill-rule="nonzero" fill-opacity="1" /><path clip-path="url(#clip470)" d="M272.989 123.442 Q272.989 119.298 275.23 117.736 Q277.472 116.105 279.85 116.105 Q283.043 116.105 284.877 118.143 Q286.779 120.113 286.779 122.899 Q286.779 125.684 284.877 127.722 Q283.043 129.692 279.85 129.692 Q278.287 129.692 277.472 129.42 Q279.306 135.806 284.877 140.426 Q290.516 145.045 297.92 145.045 Q307.227 145.045 312.798 136.01 Q316.127 130.168 316.127 116.921 Q316.127 105.236 313.613 99.3935 Q309.741 90.4941 301.793 90.4941 Q290.516 90.4941 283.858 100.209 Q283.043 101.432 282.092 101.499 Q280.733 101.499 280.393 100.752 Q280.122 99.937 280.122 97.831 L280.122 56.6629 Q280.122 53.3341 281.48 53.3341 Q282.024 53.3341 283.179 53.7417 Q291.942 57.614 301.657 57.6819 Q311.643 57.6819 320.61 53.6058 Q321.29 53.1982 321.697 53.1982 Q323.056 53.1982 323.124 54.7607 Q323.124 55.3042 321.969 56.9346 Q320.882 58.4971 318.504 60.6031 Q316.127 62.6411 313.07 64.6112 Q310.013 66.5813 305.529 67.94 Q301.113 69.2307 296.222 69.2307 Q290.38 69.2307 284.401 67.3965 L284.401 94.5022 Q291.602 87.4371 302.064 87.4371 Q313.206 87.4371 320.882 96.4044 Q328.559 105.372 328.559 117.872 Q328.559 130.983 319.456 139.95 Q310.42 148.918 298.192 148.918 Q287.051 148.918 279.986 140.969 Q272.989 133.021 272.989 123.442 Z" fill="#000000" fill-rule="nonzero" fill-opacity="1" /><path clip-path="url(#clip470)" d="M67.3771 966.332 Q54.1299 966.332 44.9588 957.093 Q35.7877 947.854 35.7877 935.354 Q35.7877 924.756 44.4153 917.827 L14.3205 917.827 Q9.15745 917.827 7.8667 919.661 Q6.57595 921.427 6.57595 928.628 L2.22816 928.628 L0.733604 908.588 L85.1759 908.588 Q90.3389 908.588 91.6975 906.822 Q92.9883 904.987 92.9883 897.786 L97.2682 897.786 L98.8306 918.235 L89.5916 918.235 Q98.7627 925.436 98.8306 936.849 Q98.8306 948.805 89.6595 957.568 Q80.4884 966.332 67.3771 966.332 M67.513 954.783 Q80.4205 954.783 86.8063 950.775 Q95.7057 945.204 95.7057 936.169 Q95.7057 925.843 85.9911 919.729 Q83.6134 918.167 80.8281 918.235 L52.2957 918.235 Q49.5104 918.235 47.2006 919.729 Q38.8447 925.436 38.8447 934.743 Q38.8447 944.457 47.7441 950.503 Q54.4017 954.783 67.513 954.783 Z" fill="#000000" fill-rule="nonzero" fill-opacity="1" /><path clip-path="url(#clip470)" d="M97.2682 889.295 L92.9883 889.295 Q92.9883 881.89 92.1052 880.191 Q91.1541 878.493 86.6704 878.493 L49.2387 878.493 Q44.0756 878.493 42.8528 880.259 Q41.63 881.958 41.63 888.751 L37.2822 888.751 L35.7877 869.322 L86.8063 869.322 Q90.9503 869.322 91.9693 867.827 Q92.9883 866.333 92.9883 859.539 L97.2682 859.539 Q96.8606 873.738 96.8606 874.009 Q96.8606 875.911 97.2682 889.295 M11.5351 883.452 Q8.74984 883.452 6.50801 881.346 Q4.19825 879.172 4.19825 876.115 Q4.19825 873.058 6.30421 870.884 Q8.34224 868.71 11.6031 868.71 Q14.796 868.71 16.902 870.884 Q18.94 873.058 18.94 876.115 Q18.94 879.308 16.6982 881.414 Q14.4563 883.452 11.5351 883.452 Z" fill="#000000" fill-rule="nonzero" fill-opacity="1" /><path clip-path="url(#clip470)" d="M41.63 850.776 L37.2822 850.776 L37.2822 839.838 L21.3177 839.838 Q10.9917 839.838 5.0814 833.181 Q-0.828883 826.455 -0.828883 818.235 Q-0.828883 812.801 2.09229 809.268 Q5.01346 805.735 8.95365 805.735 Q11.6031 805.735 13.3694 807.366 Q15.0677 808.928 15.0677 811.85 Q15.0677 814.635 13.3014 816.265 Q11.5351 817.828 9.08952 817.828 Q4.60586 817.828 3.24717 813.684 Q2.29609 815.79 2.22816 818.235 Q2.22816 823.262 7.39116 827.203 Q12.5542 831.075 21.1818 831.075 L37.2822 831.075 L37.2822 814.771 L41.63 814.771 L41.63 830.599 L86.3987 830.599 Q90.4068 830.599 91.6975 828.969 Q92.9883 827.271 92.9883 820.07 L92.9883 817.148 L97.2682 817.148 Q96.8606 822.719 96.8606 834.811 Q96.8606 836.51 96.9285 839.159 Q96.9964 841.741 97.1323 845.273 Q97.2682 848.738 97.2682 850.64 L92.9883 850.64 Q92.9883 843.235 92.1052 841.537 Q91.1541 839.838 86.6704 839.838 L41.63 839.838 L41.63 850.776 Z" fill="#000000" fill-rule="nonzero" fill-opacity="1" /><path clip-path="url(#clip470)" d="M41.63 808.385 L37.2822 808.385 L37.2822 797.447 L21.3177 797.447 Q10.9917 797.447 5.0814 790.79 Q-0.828883 784.064 -0.828883 775.844 Q-0.828883 770.41 2.09229 766.877 Q5.01346 763.344 8.95365 763.344 Q11.6031 763.344 13.3694 764.975 Q15.0677 766.537 15.0677 769.459 Q15.0677 772.244 13.3014 773.874 Q11.5351 775.437 9.08952 775.437 Q4.60586 775.437 3.24717 771.293 Q2.29609 773.399 2.22816 775.844 Q2.22816 780.871 7.39116 784.812 Q12.5542 788.684 21.1818 788.684 L37.2822 788.684 L37.2822 772.38 L41.63 772.38 L41.63 788.208 L86.3987 788.208 Q90.4068 788.208 91.6975 786.578 Q92.9883 784.88 92.9883 777.679 L92.9883 774.757 L97.2682 774.757 Q96.8606 780.328 96.8606 792.42 Q96.8606 794.119 96.9285 796.768 Q96.9964 799.35 97.1323 802.882 Q97.2682 806.347 97.2682 808.249 L92.9883 808.249 Q92.9883 800.844 92.1052 799.146 Q91.1541 797.447 86.6704 797.447 L41.63 797.447 L41.63 808.385 Z" fill="#000000" fill-rule="nonzero" fill-opacity="1" /><path clip-path="url(#clip470)" d="M66.6298 766.741 Q53.5185 766.741 44.2115 758.317 Q34.9045 749.893 34.9045 737.801 Q34.9045 725.573 42.8528 719.255 Q50.8011 712.869 62.2141 712.869 Q64.3201 712.869 64.7277 713.413 Q65.1353 713.956 65.1353 716.334 L65.1353 755.192 Q79.3335 755.192 85.9911 750.98 Q95.2981 745.138 95.2981 735.288 Q95.2981 733.929 95.0263 732.299 Q94.7546 730.668 93.5997 727.339 Q92.3769 724.011 89.184 721.089 Q85.9911 718.168 80.9639 716.47 Q78.9938 716.062 79.0618 714.704 Q79.0618 712.869 80.6922 712.869 Q81.915 712.869 84.7003 714.228 Q87.4177 715.519 90.6785 718.032 Q93.9394 720.546 96.385 725.437 Q98.8306 730.26 98.8306 736.103 Q98.8306 748.331 89.5916 757.57 Q80.2846 766.741 66.6298 766.741 M62.2141 755.056 L62.2141 722.04 Q59.2929 722.04 56.0321 722.584 Q52.7712 723.059 48.2876 724.554 Q43.736 725.981 40.8827 729.377 Q38.0295 732.774 38.0295 737.801 Q38.0295 740.043 38.9806 742.489 Q39.9317 744.866 42.2414 747.788 Q44.5512 750.709 49.7821 752.747 Q55.0131 754.785 62.2141 755.056 Z" fill="#000000" fill-rule="nonzero" fill-opacity="1" /><path clip-path="url(#clip470)" d="M97.2682 704.989 L92.9883 704.989 Q92.9883 697.584 92.1052 695.886 Q91.1541 694.119 86.6704 694.119 L49.3745 694.119 Q44.2115 694.119 42.9208 695.954 Q41.63 697.72 41.63 704.989 L37.2822 704.989 L35.7877 685.628 L51.0729 685.628 Q45.0947 683.658 40.4751 679.514 Q35.7877 675.302 35.7877 668.508 Q35.7877 664.025 38.3012 661.171 Q40.8148 658.25 44.2795 658.25 Q47.3365 658.25 48.899 660.152 Q50.3935 661.987 50.3935 664.228 Q50.3935 666.742 48.831 668.508 Q47.2006 670.207 44.4153 670.207 Q42.717 670.207 41.4262 669.459 Q40.0675 668.644 39.592 668.033 Q39.1164 667.421 38.9806 667.014 Q38.8447 667.285 38.8447 668.508 Q38.8447 676.185 46.5213 680.601 Q54.1299 684.948 64.9994 684.948 L86.3987 684.948 Q90.4068 684.948 91.6975 683.318 Q92.9883 681.62 92.9883 674.351 L92.9883 671.429 L97.2682 671.429 Q96.8606 677 96.8606 689.092 Q96.8606 690.791 96.9285 693.44 Q96.9964 696.09 97.1323 699.554 Q97.2682 703.019 97.2682 704.989 Z" fill="#000000" fill-rule="nonzero" fill-opacity="1" /><path clip-path="url(#clip470)" d="M66.6298 650.642 Q53.5185 650.642 44.2115 642.218 Q34.9045 633.794 34.9045 621.702 Q34.9045 609.473 42.8528 603.156 Q50.8011 596.77 62.2141 596.77 Q64.3201 596.77 64.7277 597.313 Q65.1353 597.857 65.1353 600.234 L65.1353 639.093 Q79.3335 639.093 85.9911 634.881 Q95.2981 629.038 95.2981 619.188 Q95.2981 617.829 95.0263 616.199 Q94.7546 614.568 93.5997 611.24 Q92.3769 607.911 89.184 604.99 Q85.9911 602.069 80.9639 600.37 Q78.9938 599.963 79.0618 598.604 Q79.0618 596.77 80.6922 596.77 Q81.915 596.77 84.7003 598.128 Q87.4177 599.419 90.6785 601.933 Q93.9394 604.446 96.385 609.338 Q98.8306 614.161 98.8306 620.003 Q98.8306 632.231 89.5916 641.47 Q80.2846 650.642 66.6298 650.642 M62.2141 638.957 L62.2141 605.941 Q59.2929 605.941 56.0321 606.484 Q52.7712 606.96 48.2876 608.454 Q43.736 609.881 40.8827 613.278 Q38.0295 616.674 38.0295 621.702 Q38.0295 623.943 38.9806 626.389 Q39.9317 628.767 42.2414 631.688 Q44.5512 634.609 49.7821 636.647 Q55.0131 638.685 62.2141 638.957 Z" fill="#000000" fill-rule="nonzero" fill-opacity="1" /><path clip-path="url(#clip470)" d="M97.2682 588.278 L92.9883 588.278 Q92.9883 580.873 92.1052 579.175 Q91.1541 577.476 86.6704 577.476 L49.3745 577.476 Q44.2115 577.476 42.9208 579.311 Q41.63 581.077 41.63 588.278 L37.2822 588.278 L35.7877 568.713 L50.3935 568.713 Q35.7877 562.191 35.7877 548.129 Q35.7877 537.667 40.9507 533.523 Q44.4153 530.466 48.2876 529.854 Q52.1598 529.175 62.2141 529.175 L88.7764 529.175 Q91.6975 529.039 92.3769 526.797 Q92.9883 524.556 92.9883 518.306 L97.2682 518.306 Q96.8606 532.504 96.8606 533.931 Q96.8606 535.017 97.2682 549.623 L92.9883 549.623 Q92.9883 542.219 92.1052 540.52 Q91.1541 538.754 86.6704 538.754 L54.2658 538.754 Q47.2006 538.754 43.0566 540.928 Q38.8447 543.102 38.8447 549.08 Q38.8447 556.281 44.8909 562.055 Q50.937 567.83 61.1271 567.83 L86.6704 567.83 Q91.1541 567.83 92.1052 566.131 Q92.9883 564.365 92.9883 557.028 L97.2682 557.028 Q96.8606 571.226 96.8606 572.585 Q96.8606 573.672 97.2682 588.278 Z" fill="#000000" fill-rule="nonzero" fill-opacity="1" /><path clip-path="url(#clip470)" d="M89.6595 502.001 Q80.4205 510.833 67.2412 510.833 Q53.994 510.833 44.4833 502.137 Q34.9045 493.442 34.9045 480.67 Q34.9045 472.178 38.9806 465.792 Q42.9887 459.407 49.8501 459.407 Q52.9071 459.407 54.6734 461.241 Q56.3717 463.007 56.3717 465.792 Q56.3717 468.714 54.6055 470.48 Q52.7712 472.178 49.9859 472.178 Q48.7631 472.178 47.5403 471.771 Q46.3175 471.363 45.0267 469.869 Q43.736 468.306 43.5322 465.657 Q38.4371 470.616 38.4371 480.262 Q38.4371 480.398 38.4371 480.534 Q38.4371 487.599 45.0947 493.442 Q51.7522 499.284 66.9695 499.284 Q74.9178 499.284 80.7601 497.382 Q86.5345 495.412 89.5237 492.219 Q92.5128 489.026 93.9394 485.901 Q95.2981 482.776 95.2981 479.719 Q95.2981 466.064 80.6922 461.445 Q79.3335 461.037 79.3335 459.678 Q79.3335 457.844 80.6922 457.844 Q81.3715 457.844 83.1378 458.388 Q84.9041 458.931 87.6894 460.629 Q90.4747 462.328 92.9204 464.773 Q95.2981 467.151 97.0644 471.431 Q98.8306 475.643 98.8306 480.942 Q98.8306 493.17 89.6595 502.001 Z" fill="#000000" fill-rule="nonzero" fill-opacity="1" /><path clip-path="url(#clip470)" d="M66.6298 449.964 Q53.5185 449.964 44.2115 441.54 Q34.9045 433.116 34.9045 421.024 Q34.9045 408.796 42.8528 402.478 Q50.8011 396.092 62.2141 396.092 Q64.3201 396.092 64.7277 396.635 Q65.1353 397.179 65.1353 399.557 L65.1353 438.415 Q79.3335 438.415 85.9911 434.203 Q95.2981 428.361 95.2981 418.51 Q95.2981 417.152 95.0263 415.521 Q94.7546 413.891 93.5997 410.562 Q92.3769 407.233 89.184 404.312 Q85.9911 401.391 80.9639 399.692 Q78.9938 399.285 79.0618 397.926 Q79.0618 396.092 80.6922 396.092 Q81.915 396.092 84.7003 397.451 Q87.4177 398.741 90.6785 401.255 Q93.9394 403.769 96.385 408.66 Q98.8306 413.483 98.8306 419.325 Q98.8306 431.554 89.5916 440.793 Q80.2846 449.964 66.6298 449.964 M62.2141 438.279 L62.2141 405.263 Q59.2929 405.263 56.0321 405.807 Q52.7712 406.282 48.2876 407.777 Q43.736 409.203 40.8827 412.6 Q38.0295 415.997 38.0295 421.024 Q38.0295 423.266 38.9806 425.711 Q39.9317 428.089 42.2414 431.01 Q44.5512 433.931 49.7821 435.969 Q55.0131 438.007 62.2141 438.279 Z" fill="#000000" fill-rule="nonzero" fill-opacity="1" /><polyline clip-path="url(#clip472)" style="stroke:#009af9; stroke-linecap:round; stroke-linejoin:round; stroke-width:4; stroke-opacity:1; fill:none" points="420.828,1279.29 422.664,1279.29 424.499,1279.29 426.334,1279.29 428.17,1279.29 430.005,1279.29 431.84,1279.29 433.675,1279.29 435.511,1279.29 437.346,1279.29 439.181,1279.29 441.017,1279.29 442.852,1279.29 444.687,1279.29 446.522,1279.29 448.358,1279.29 450.193,1279.29 452.028,1279.29 453.864,1279.29 455.699,1279.29 457.534,1279.29 459.369,1279.29 461.205,1279.29 463.04,1279.29 464.875,1279.29 466.71,1279.29 468.546,1279.29 470.381,1279.29 472.216,1279.29 474.052,1279.29 475.887,1279.29 477.722,1279.29 479.557,1279.29 481.393,1279.29 483.228,1279.29 485.063,1279.29 486.899,1279.29 488.734,1279.29 490.569,1279.29 492.404,1279.29 494.24,1279.29 496.075,1279.29 497.91,1279.29 499.746,1279.29 501.581,1279.29 503.416,1279.29 505.251,1279.29 507.087,1279.29 508.922,1279.29 510.757,1279.29 512.593,1279.29 514.428,1279.29 516.263,1279.29 518.098,1279.29 519.934,1279.29 521.769,1279.29 523.604,1279.29 525.439,1279.29 527.275,1279.29 529.11,1279.29 530.945,1279.29 532.781,1279.29 534.616,1279.29 "/>
<polyline clip-path="url(#clip472)" style="stroke:#e26f46; stroke-linecap:round; stroke-linejoin:round; stroke-width:4; stroke-opacity:1; fill:none" points="420.828,83.1291 422.664,268.378 424.499,419.45 426.334,542.983 428.17,644.324 430.005,727.781 431.84,796.821 433.675,854.232 435.511,902.254 437.346,942.681 439.181,976.95 441.017,1006.21 442.852,1031.37 444.687,1053.17 446.522,1072.2 448.358,1088.92 450.193,1103.7 452.028,1116.85 453.864,1128.62 455.699,1139.21 457.534,1148.77 459.369,1157.45 461.205,1165.36 463.04,1172.58 464.875,1179.21 466.71,1185.3 468.546,1190.92 470.381,1196.1 472.216,1200.91 474.052,1205.37 475.887,1209.51 477.722,1213.37 479.557,1216.96 481.393,1220.32 483.228,1223.46 485.063,1226.4 486.899,1229.15 488.734,1231.73 490.569,1234.16 492.404,1236.44 494.24,1238.58 496.075,1240.6 497.91,1242.5 499.746,1244.3 501.581,1245.99 503.416,1247.59 505.251,1249.1 507.087,1250.52 508.922,1251.87 510.757,1253.15 512.593,1254.36 514.428,1255.51 516.263,1256.6 518.098,1257.63 519.934,1258.61 521.769,1259.54 523.604,1260.42 525.439,1261.26 527.275,1262.06 529.11,1262.81 530.945,1263.53 532.781,1264.22 534.616,1264.87 536.451,1265.49 538.286,1266.09 540.122,1266.65 541.957,1267.19 543.792,1267.7 545.628,1268.19 547.463,1268.66 549.298,1269.1 551.133,1269.52 552.969,1269.93 554.804,1270.32 556.639,1270.69 558.475,1271.04 560.31,1271.38 562.145,1271.7 563.98,1272.01 565.816,1272.3 567.651,1272.59 569.486,1272.86 571.322,1273.11 573.157,1273.36 574.992,1273.6 576.827,1273.82 578.663,1274.04 580.498,1274.25 582.333,1274.45 584.169,1274.64 586.004,1274.82 587.839,1274.99 589.674,1275.16 591.51,1275.32 593.345,1275.48 595.18,1275.62 597.015,1275.77 598.851,1275.9 600.686,1276.03 602.521,1276.16 604.357,1276.28 606.192,1276.39 608.027,1276.5 609.862,1276.61 611.698,1276.71 613.533,1276.81 615.368,1276.9 617.204,1276.99 619.039,1277.08 620.874,1277.16 622.709,1277.24 624.545,1277.32 626.38,1277.39 628.215,1277.46 630.051,1277.53 631.886,1277.6 633.721,1277.66 635.556,1277.72 637.392,1277.78 639.227,1277.84 641.062,1277.89 642.898,1277.94 644.733,1277.99 646.568,1278.04 648.403,1278.08 650.239,1278.13 652.074,1278.17 653.909,1278.21 655.744,1278.25 657.58,1278.29 659.415,1278.33 661.25,1278.36 663.086,1278.39 664.921,1278.43 666.756,1278.46 668.591,1278.49 670.427,1278.52 672.262,1278.55 674.097,1278.57 675.933,1278.6 677.768,1278.62 679.603,1278.65 681.438,1278.67 683.274,1278.69 685.109,1278.71 686.944,1278.74 688.78,1278.76 690.615,1278.77 692.45,1278.79 694.285,1278.81 696.121,1278.83 697.956,1278.84 699.791,1278.86 701.627,1278.88 703.462,1278.89 705.297,1278.91 707.132,1278.92 708.968,1278.93 710.803,1278.94 712.638,1278.96 714.473,1278.97 716.309,1278.98 718.144,1278.99 719.979,1279 721.815,1279.01 723.65,1279.02 725.485,1279.03 727.32,1279.04 729.156,1279.05 730.991,1279.06 732.826,1279.07 734.662,1279.07 736.497,1279.08 738.332,1279.09 740.167,1279.1 742.003,1279.1 743.838,1279.11 745.673,1279.12 747.509,1279.12 749.344,1279.13 751.179,1279.13 753.014,1279.14 754.85,1279.15 756.685,1279.15 758.52,1279.16 760.356,1279.16 762.191,1279.17 764.026,1279.17 765.861,1279.17 767.697,1279.18 769.532,1279.18 771.367,1279.19 773.203,1279.19 775.038,1279.19 776.873,1279.2 778.708,1279.2 780.544,1279.2 782.379,1279.21 784.214,1279.21 786.049,1279.21 787.885,1279.22 789.72,1279.22 791.555,1279.22 793.391,1279.22 795.226,1279.23 797.061,1279.23 798.896,1279.23 800.732,1279.23 802.567,1279.23 804.402,1279.24 806.238,1279.24 808.073,1279.24 809.908,1279.24 811.743,1279.24 813.579,1279.25 815.414,1279.25 817.249,1279.25 819.085,1279.25 820.92,1279.25 822.755,1279.25 824.59,1279.26 826.426,1279.26 828.261,1279.26 830.096,1279.26 831.932,1279.26 833.767,1279.26 835.602,1279.26 837.437,1279.26 839.273,1279.26 841.108,1279.27 842.943,1279.27 844.778,1279.27 846.614,1279.27 848.449,1279.27 850.284,1279.27 852.12,1279.27 853.955,1279.27 855.79,1279.27 857.625,1279.27 859.461,1279.27 861.296,1279.27 863.131,1279.28 864.967,1279.28 866.802,1279.28 868.637,1279.28 870.472,1279.28 872.308,1279.28 874.143,1279.28 875.978,1279.28 877.814,1279.28 879.649,1279.28 881.484,1279.28 883.319,1279.28 885.155,1279.28 886.99,1279.28 888.825,1279.28 890.661,1279.28 892.496,1279.28 894.331,1279.28 896.166,1279.28 898.002,1279.28 899.837,1279.29 901.672,1279.29 903.507,1279.29 905.343,1279.29 907.178,1279.29 909.013,1279.29 910.849,1279.29 912.684,1279.29 914.519,1279.29 916.354,1279.29 918.19,1279.29 920.025,1279.29 921.86,1279.29 923.696,1279.29 925.531,1279.29 927.366,1279.29 929.201,1279.29 931.037,1279.29 932.872,1279.29 934.707,1279.29 936.543,1279.29 938.378,1279.29 940.213,1279.29 942.048,1279.29 943.884,1279.29 945.719,1279.29 947.554,1279.29 949.39,1279.29 951.225,1279.29 953.06,1279.29 954.895,1279.29 956.731,1279.29 958.566,1279.29 960.401,1279.29 962.236,1279.29 964.072,1279.29 965.907,1279.29 967.742,1279.29 969.578,1279.29 971.413,1279.29 973.248,1279.29 975.083,1279.29 976.919,1279.29 978.754,1279.29 980.589,1279.29 982.425,1279.29 984.26,1279.29 986.095,1279.29 987.93,1279.29 989.766,1279.29 991.601,1279.29 993.436,1279.29 995.272,1279.29 997.107,1279.29 998.942,1279.29 1000.78,1279.29 1002.61,1279.29 1004.45,1279.29 1006.28,1279.29 1008.12,1279.29 1009.95,1279.29 1011.79,1279.29 1013.62,1279.29 1015.46,1279.29 1017.29,1279.29 1019.13,1279.29 1020.97,1279.29 1022.8,1279.29 1024.64,1279.29 1026.47,1279.29 1028.31,1279.29 1030.14,1279.29 1031.98,1279.29 1033.81,1279.29 1035.65,1279.29 1037.48,1279.29 1039.32,1279.29 1041.15,1279.29 1042.99,1279.29 1044.82,1279.29 1046.66,1279.29 1048.49,1279.29 1050.33,1279.29 1052.17,1279.29 1054,1279.29 1055.84,1279.29 1057.67,1279.29 1059.51,1279.29 1061.34,1279.29 1063.18,1279.29 1065.01,1279.29 1066.85,1279.29 1068.68,1279.29 1070.52,1279.29 1072.35,1279.29 1074.19,1279.29 1076.02,1279.29 1077.86,1279.29 1079.69,1279.29 1081.53,1279.29 1083.37,1279.29 1085.2,1279.29 1087.04,1279.29 1088.87,1279.29 1090.71,1279.29 1092.54,1279.29 1094.38,1279.29 1096.21,1279.29 1098.05,1279.29 1099.88,1279.29 1101.72,1279.29 1103.55,1279.29 1105.39,1279.29 1107.22,1279.29 1109.06,1279.29 1110.89,1279.29 1112.73,1279.29 1114.56,1279.29 1116.4,1279.29 1118.24,1279.29 1120.07,1279.29 1121.91,1279.29 1123.74,1279.29 1125.58,1279.29 1127.41,1279.29 1129.25,1279.29 1131.08,1279.29 1132.92,1279.29 1134.75,1279.29 1136.59,1279.29 1138.42,1279.29 1140.26,1279.29 1142.09,1279.29 1143.93,1279.29 1145.76,1279.29 1147.6,1279.29 1149.44,1279.29 1151.27,1279.29 1153.11,1279.29 1154.94,1279.29 1156.78,1279.29 1158.61,1279.29 1160.45,1279.29 1162.28,1279.29 1164.12,1279.29 1165.95,1279.29 1167.79,1279.29 1169.62,1279.29 1171.46,1279.29 1173.29,1279.29 1175.13,1279.29 1176.96,1279.29 1178.8,1279.29 1180.64,1279.29 1182.47,1279.29 1184.31,1279.29 1186.14,1279.29 1187.98,1279.29 1189.81,1279.29 1191.65,1279.29 1193.48,1279.29 1195.32,1279.29 1197.15,1279.29 1198.99,1279.29 1200.82,1279.29 1202.66,1279.29 1204.49,1279.29 1206.33,1279.29 1208.16,1279.29 1210,1279.29 1211.83,1279.29 1213.67,1279.29 1215.51,1279.29 1217.34,1279.29 1219.18,1279.29 1221.01,1279.29 1222.85,1279.29 1224.68,1279.29 1226.52,1279.29 1228.35,1279.29 1230.19,1279.29 1232.02,1279.29 1233.86,1279.29 1235.69,1279.29 1237.53,1279.29 1239.36,1279.29 1241.2,1279.29 1243.03,1279.29 1244.87,1279.29 1246.71,1279.29 1248.54,1279.29 1250.38,1279.29 1252.21,1279.29 1254.05,1279.29 1255.88,1279.29 1257.72,1279.29 1259.55,1279.29 1261.39,1279.29 1263.22,1279.29 1265.06,1279.29 1266.89,1279.29 1268.73,1279.29 1270.56,1279.29 1272.4,1279.29 1274.23,1279.29 1276.07,1279.29 1277.9,1279.29 1279.74,1279.29 1281.58,1279.29 1283.41,1279.29 1285.25,1279.29 1287.08,1279.29 1288.92,1279.29 1290.75,1279.29 1292.59,1279.29 1294.42,1279.29 1296.26,1279.29 1298.09,1279.29 1299.93,1279.29 1301.76,1279.29 1303.6,1279.29 1305.43,1279.29 1307.27,1279.29 1309.1,1279.29 1310.94,1279.29 1312.78,1279.29 1314.61,1279.29 1316.45,1279.29 1318.28,1279.29 1320.12,1279.29 1321.95,1279.29 1323.79,1279.29 1325.62,1279.29 1327.46,1279.29 1329.29,1279.29 1331.13,1279.29 1332.96,1279.29 1334.8,1279.29 1336.63,1279.29 1338.47,1279.29 1340.3,1279.29 1342.14,1279.29 1343.98,1279.29 1345.81,1279.29 1347.65,1279.29 1349.48,1279.29 1351.32,1279.29 1353.15,1279.29 1354.99,1279.29 1356.82,1279.29 1358.66,1279.29 1360.49,1279.29 1362.33,1279.29 1364.16,1279.29 1366,1279.29 1367.83,1279.29 1369.67,1279.29 1371.5,1279.29 1373.34,1279.29 1375.17,1279.29 1377.01,1279.29 1378.85,1279.29 1380.68,1279.29 1382.52,1279.29 1384.35,1279.29 1386.19,1279.29 1388.02,1279.29 1389.86,1279.29 1391.69,1279.29 1393.53,1279.29 1395.36,1279.29 1397.2,1279.29 1399.03,1279.29 1400.87,1279.29 1402.7,1279.29 1404.54,1279.29 1406.37,1279.29 1408.21,1279.29 1410.05,1279.29 1411.88,1279.29 1413.72,1279.29 1415.55,1279.29 1417.39,1279.29 1419.22,1279.29 1421.06,1279.29 1422.89,1279.29 1424.73,1279.29 1426.56,1279.29 1428.4,1279.29 1430.23,1279.29 1432.07,1279.29 1433.9,1279.29 1435.74,1279.29 1437.57,1279.29 1439.41,1279.29 1441.24,1279.29 1443.08,1279.29 1444.92,1279.29 1446.75,1279.29 1448.59,1279.29 1450.42,1279.29 1452.26,1279.29 1454.09,1279.29 1455.93,1279.29 1457.76,1279.29 1459.6,1279.29 1461.43,1279.29 1463.27,1279.29 1465.1,1279.29 1466.94,1279.29 1468.77,1279.29 1470.61,1279.29 1472.44,1279.29 1474.28,1279.29 1476.12,1279.29 1477.95,1279.29 1479.79,1279.29 1481.62,1279.29 1483.46,1279.29 1485.29,1279.29 1487.13,1279.29 1488.96,1279.29 1490.8,1279.29 1492.63,1279.29 1494.47,1279.29 1496.3,1279.29 1498.14,1279.29 1499.97,1279.29 1501.81,1279.29 1503.64,1279.29 1505.48,1279.29 1507.32,1279.29 1509.15,1279.29 1510.99,1279.29 1512.82,1279.29 1514.66,1279.29 1516.49,1279.29 1518.33,1279.29 1520.16,1279.29 1522,1279.29 1523.83,1279.29 1525.67,1279.29 1527.5,1279.29 1529.34,1279.29 1531.17,1279.29 1533.01,1279.29 1534.84,1279.29 1536.68,1279.29 1538.51,1279.29 1540.35,1279.29 1542.19,1279.29 1544.02,1279.29 1545.86,1279.29 1547.69,1279.29 1549.53,1279.29 1551.36,1279.29 1553.2,1279.29 1555.03,1279.29 1556.87,1279.29 1558.7,1279.29 1560.54,1279.29 1562.37,1279.29 1564.21,1279.29 1566.04,1279.29 1567.88,1279.29 1569.71,1279.29 1571.55,1279.29 1573.39,1279.29 1575.22,1279.29 1577.06,1279.29 1578.89,1279.29 1580.73,1279.29 1582.56,1279.29 1584.4,1279.29 1586.23,1279.29 1588.07,1279.29 1589.9,1279.29 1591.74,1279.29 1593.57,1279.29 1595.41,1279.29 1597.24,1279.29 1599.08,1279.29 1600.91,1279.29 1602.75,1279.29 1604.59,1279.29 1606.42,1279.29 1608.26,1279.29 1610.09,1279.29 1611.93,1279.29 1613.76,1279.29 1615.6,1279.29 1617.43,1279.29 1619.27,1279.29 1621.1,1279.29 1622.94,1279.29 1624.77,1279.29 1626.61,1279.29 1628.44,1279.29 1630.28,1279.29 1632.11,1279.29 1633.95,1279.29 1635.78,1279.29 1637.62,1279.29 1639.46,1279.29 1641.29,1279.29 1643.13,1279.29 1644.96,1279.29 1646.8,1279.29 1648.63,1279.29 1650.47,1279.29 1652.3,1279.29 1654.14,1279.29 1655.97,1279.29 1657.81,1279.29 1659.64,1279.29 1661.48,1279.29 1663.31,1279.29 1665.15,1279.29 1666.98,1279.29 1668.82,1279.29 1670.66,1279.29 1672.49,1279.29 1674.33,1279.29 1676.16,1279.29 1678,1279.29 1679.83,1279.29 1681.67,1279.29 1683.5,1279.29 1685.34,1279.29 1687.17,1279.29 1689.01,1279.29 1690.84,1279.29 1692.68,1279.29 1694.51,1279.29 1696.35,1279.29 1698.18,1279.29 1700.02,1279.29 1701.85,1279.29 1703.69,1279.29 1705.53,1279.29 1707.36,1279.29 1709.2,1279.29 1711.03,1279.29 1712.87,1279.29 1714.7,1279.29 1716.54,1279.29 1718.37,1279.29 1720.21,1279.29 1722.04,1279.29 1723.88,1279.29 1725.71,1279.29 1727.55,1279.29 1729.38,1279.29 1731.22,1279.29 1733.05,1279.29 1734.89,1279.29 1736.73,1279.29 1738.56,1279.29 1740.4,1279.29 1742.23,1279.29 1744.07,1279.29 1745.9,1279.29 1747.74,1279.29 1749.57,1279.29 1751.41,1279.29 1753.24,1279.29 1755.08,1279.29 1756.91,1279.29 1758.75,1279.29 1760.58,1279.29 1762.42,1279.29 1764.25,1279.29 1766.09,1279.29 1767.93,1279.29 1769.76,1279.29 1771.6,1279.29 1773.43,1279.29 1775.27,1279.29 1777.1,1279.29 1778.94,1279.29 1780.77,1279.29 1782.61,1279.29 1784.44,1279.29 1786.28,1279.29 1788.11,1279.29 1789.95,1279.29 1791.78,1279.29 1793.62,1279.29 1795.45,1279.29 1797.29,1279.29 1799.12,1279.29 1800.96,1279.29 1802.8,1279.29 1804.63,1279.29 1806.47,1279.29 1808.3,1279.29 1810.14,1279.29 1811.97,1279.29 1813.81,1279.29 1815.64,1279.29 1817.48,1279.29 1819.31,1279.29 1821.15,1279.29 1822.98,1279.29 1824.82,1279.29 1826.65,1279.29 1828.49,1279.29 1830.32,1279.29 1832.16,1279.29 1834,1279.29 1835.83,1279.29 1837.67,1279.29 1839.5,1279.29 1841.34,1279.29 1843.17,1279.29 1845.01,1279.29 1846.84,1279.29 1848.68,1279.29 1850.51,1279.29 1852.35,1279.29 1854.18,1279.29 1856.02,1279.29 1857.85,1279.29 1859.69,1279.29 1861.52,1279.29 1863.36,1279.29 1865.2,1279.29 1867.03,1279.29 1868.87,1279.29 1870.7,1279.29 1872.54,1279.29 1874.37,1279.29 1876.21,1279.29 1878.04,1279.29 1879.88,1279.29 1881.71,1279.29 1883.55,1279.29 1885.38,1279.29 1887.22,1279.29 1889.05,1279.29 1890.89,1279.29 1892.72,1279.29 1894.56,1279.29 1896.39,1279.29 1898.23,1279.29 1900.07,1279.29 1901.9,1279.29 1903.74,1279.29 1905.57,1279.29 1907.41,1279.29 1909.24,1279.29 1911.08,1279.29 1912.91,1279.29 1914.75,1279.29 1916.58,1279.29 1918.42,1279.29 1920.25,1279.29 1922.09,1279.29 1923.92,1279.29 1925.76,1279.29 1927.59,1279.29 1929.43,1279.29 1931.27,1279.29 1933.1,1279.29 1934.94,1279.29 1936.77,1279.29 1938.61,1279.29 1940.44,1279.29 1942.28,1279.29 1944.11,1279.29 1945.95,1279.29 1947.78,1279.29 1949.62,1279.29 1951.45,1279.29 1953.29,1279.29 1955.12,1279.29 1956.96,1279.29 1958.79,1279.29 1960.63,1279.29 1962.46,1279.29 1964.3,1279.29 1966.14,1279.29 1967.97,1279.29 1969.81,1279.29 1971.64,1279.29 1973.48,1279.29 1975.31,1279.29 1977.15,1279.29 1978.98,1279.29 1980.82,1279.29 1982.65,1279.29 1984.49,1279.29 1986.32,1279.29 1988.16,1279.29 1989.99,1279.29 1991.83,1279.29 1993.66,1279.29 1995.5,1279.29 1997.34,1279.29 1999.17,1279.29 2001.01,1279.29 2002.84,1279.29 2004.68,1279.29 2006.51,1279.29 2008.35,1279.29 2010.18,1279.29 2012.02,1279.29 2013.85,1279.29 2015.69,1279.29 2017.52,1279.29 2019.36,1279.29 2021.19,1279.29 2023.03,1279.29 2024.86,1279.29 2026.7,1279.29 2028.54,1279.29 2030.37,1279.29 2032.21,1279.29 2034.04,1279.29 2035.88,1279.29 2037.71,1279.29 2039.55,1279.29 2041.38,1279.29 2043.22,1279.29 2045.05,1279.29 2046.89,1279.29 2048.72,1279.29 2050.56,1279.29 2052.39,1279.29 2054.23,1279.29 2056.06,1279.29 2057.9,1279.29 2059.73,1279.29 2061.57,1279.29 2063.41,1279.29 2065.24,1279.29 2067.08,1279.29 2068.91,1279.29 2070.75,1279.29 2072.58,1279.29 2074.42,1279.29 2076.25,1279.29 2078.09,1279.29 2079.92,1279.29 2081.76,1279.29 2083.59,1279.29 2085.43,1279.29 2087.26,1279.29 2089.1,1279.29 2090.93,1279.29 2092.77,1279.29 2094.61,1279.29 2096.44,1279.29 2098.28,1279.29 2100.11,1279.29 2101.95,1279.29 2103.78,1279.29 2105.62,1279.29 2107.45,1279.29 2109.29,1279.29 2111.12,1279.29 2112.96,1279.29 2114.79,1279.29 2116.63,1279.29 2118.46,1279.29 2120.3,1279.29 2122.13,1279.29 2123.97,1279.29 2125.8,1279.29 2127.64,1279.29 2129.48,1279.29 2131.31,1279.29 2133.15,1279.29 2134.98,1279.29 2136.82,1279.29 2138.65,1279.29 2140.49,1279.29 2142.32,1279.29 2144.16,1279.29 2145.99,1279.29 2147.83,1279.29 2149.66,1279.29 2151.5,1279.29 2153.33,1279.29 2155.17,1279.29 2157,1279.29 2158.84,1279.29 2160.68,1279.29 2162.51,1279.29 2164.35,1279.29 2166.18,1279.29 2168.02,1279.29 2169.85,1279.29 2171.69,1279.29 2173.52,1279.29 2175.36,1279.29 2177.19,1279.29 2179.03,1279.29 2180.86,1279.29 2182.7,1279.29 2184.53,1279.29 2186.37,1279.29 2188.2,1279.29 2190.04,1279.29 2191.88,1279.29 2193.71,1279.29 2195.55,1279.29 2197.38,1279.29 2199.22,1279.29 2201.05,1279.29 2202.89,1279.29 2204.72,1279.29 2206.56,1279.29 2208.39,1279.29 2210.23,1279.29 2212.06,1279.29 2213.9,1279.29 2215.73,1279.29 2217.57,1279.29 2219.4,1279.29 2221.24,1279.29 2223.07,1279.29 2224.91,1279.29 2226.75,1279.29 2228.58,1279.29 2230.42,1279.29 2232.25,1279.29 2234.09,1279.29 2235.92,1279.29 2237.76,1279.29 2239.59,1279.29 2241.43,1279.29 2243.26,1279.29 2245.1,1279.29 2246.93,1279.29 2248.77,1279.29 2250.6,1279.29 2252.44,1279.29 2254.27,1279.29 2256.11,1279.29 2257.95,1279.29 2259.78,1279.29 2261.62,1279.29 2263.45,1279.29 2265.29,1279.29 2267.12,1279.29 2268.96,1279.29 2270.79,1279.29 2272.63,1279.29 2274.46,1279.29 2276.3,1279.29 2278.13,1279.29 2279.97,1279.29 2281.8,1279.29 2283.64,1279.29 2285.47,1279.29 2287.31,1279.29 2289.15,1279.29 2290.98,1279.29 2292.82,1279.29 2294.65,1279.29 2296.49,1279.29 "/>
<path clip-path="url(#clip470)" d="M966.205 517.189 L2286.48 517.189 L2286.48 89.5086 L966.205 89.5086  Z" fill="#ffffff" fill-rule="evenodd" fill-opacity="1"/>
<polyline clip-path="url(#clip470)" style="stroke:#000000; stroke-linecap:round; stroke-linejoin:round; stroke-width:4; stroke-opacity:1; fill:none" points="966.205,517.189 2286.48,517.189 2286.48,89.5086 966.205,89.5086 966.205,517.189 "/>
<polyline clip-path="url(#clip470)" style="stroke:#009af9; stroke-linecap:round; stroke-linejoin:round; stroke-width:11; stroke-opacity:1; fill:none" points="988.296,232.069 1120.84,232.069 "/>
<path clip-path="url(#clip470)" d="M1152.1 272.116 Q1142.93 263.013 1142.93 249.833 Q1142.93 236.586 1151.9 226.94 Q1160.94 217.225 1173.84 217.225 Q1186.48 217.225 1195.51 226.872 Q1204.62 236.45 1204.62 249.833 Q1204.62 262.945 1195.45 272.048 Q1186.34 281.151 1173.71 281.151 Q1161.34 281.151 1152.1 272.116 M1154.48 248.679 Q1154.48 262.197 1158.01 268.312 Q1163.45 277.619 1173.84 277.619 Q1179.01 277.619 1183.29 274.833 Q1187.63 272.048 1190.01 267.36 Q1193.07 261.246 1193.07 248.679 Q1193.07 235.295 1189.4 229.385 Q1183.97 220.35 1173.71 220.35 Q1169.22 220.35 1164.81 222.728 Q1160.46 225.037 1157.81 229.657 Q1154.48 235.771 1154.48 248.679 Z" fill="#000000" fill-rule="nonzero" fill-opacity="1" /><path clip-path="url(#clip470)" d="M1212.5 279.589 L1212.5 275.309 Q1219.9 275.309 1221.6 274.426 Q1223.37 273.475 1223.37 268.991 L1223.37 231.695 Q1223.37 226.532 1221.53 225.241 Q1219.77 223.95 1212.5 223.95 L1212.5 219.603 L1231.86 218.108 L1231.86 233.393 Q1233.83 227.415 1237.97 222.796 Q1242.19 218.108 1248.98 218.108 Q1253.46 218.108 1256.32 220.622 Q1259.24 223.135 1259.24 226.6 Q1259.24 229.657 1257.33 231.219 Q1255.5 232.714 1253.26 232.714 Q1250.74 232.714 1248.98 231.152 Q1247.28 229.521 1247.28 226.736 Q1247.28 225.037 1248.03 223.747 Q1248.84 222.388 1249.45 221.912 Q1250.07 221.437 1250.47 221.301 Q1250.2 221.165 1248.98 221.165 Q1241.3 221.165 1236.89 228.842 Q1232.54 236.45 1232.54 247.32 L1232.54 268.719 Q1232.54 272.727 1234.17 274.018 Q1235.87 275.309 1243.14 275.309 L1246.06 275.309 L1246.06 279.589 Q1240.49 279.181 1228.39 279.181 Q1226.7 279.181 1224.05 279.249 Q1221.4 279.317 1217.93 279.453 Q1214.47 279.589 1212.5 279.589 Z" fill="#000000" fill-rule="nonzero" fill-opacity="1" /><path clip-path="url(#clip470)" d="M1267.59 279.589 L1267.59 275.309 Q1275 275.309 1276.7 274.426 Q1278.39 273.475 1278.39 268.991 L1278.39 231.559 Q1278.39 226.396 1276.63 225.173 Q1274.93 223.95 1268.14 223.95 L1268.14 219.603 L1287.57 218.108 L1287.57 269.127 Q1287.57 273.271 1289.06 274.29 Q1290.55 275.309 1297.35 275.309 L1297.35 279.589 Q1283.15 279.181 1282.88 279.181 Q1280.98 279.181 1267.59 279.589 M1273.43 193.856 Q1273.43 191.07 1275.54 188.828 Q1277.71 186.519 1280.77 186.519 Q1283.83 186.519 1286 188.625 Q1288.18 190.663 1288.18 193.924 Q1288.18 197.116 1286 199.222 Q1283.83 201.26 1280.77 201.26 Q1277.58 201.26 1275.47 199.019 Q1273.43 196.777 1273.43 193.856 Z" fill="#000000" fill-rule="nonzero" fill-opacity="1" /><path clip-path="url(#clip470)" d="M1305.36 290.594 Q1305.36 286.11 1308.76 282.238 Q1312.23 278.366 1318.2 276.667 Q1312.09 272.795 1312.09 264.303 Q1312.09 257.782 1316.37 252.755 Q1309.85 247.32 1309.85 238.42 Q1309.85 230.2 1316.37 224.154 Q1322.89 218.108 1332.4 218.108 Q1340.76 218.108 1347.14 223.135 Q1353.8 216.614 1361.89 216.546 Q1365.49 216.546 1367.18 218.787 Q1368.95 221.029 1368.95 223.407 Q1368.95 225.513 1367.59 226.532 Q1366.3 227.551 1364.94 227.551 Q1363.24 227.551 1362.02 226.464 Q1360.87 225.309 1360.87 223.543 Q1360.87 220.622 1363.11 219.739 Q1362.7 219.603 1361.75 219.603 Q1354.96 219.603 1349.18 225.037 Q1354.89 230.336 1354.89 238.556 Q1354.89 246.776 1348.37 252.823 Q1341.84 258.869 1332.4 258.869 Q1324.59 258.869 1318.61 254.521 Q1316.23 257.306 1316.23 261.111 Q1316.23 264.575 1318.34 267.293 Q1320.45 270.01 1323.64 270.417 Q1324.59 270.553 1334.03 270.553 Q1339.6 270.553 1342.66 270.689 Q1345.72 270.825 1350.06 271.776 Q1354.48 272.659 1357.95 274.426 Q1366.98 279.453 1367.05 290.322 Q1367.05 298.271 1357.88 303.23 Q1348.77 308.257 1336.14 308.257 Q1323.37 308.257 1314.33 303.162 Q1305.36 298.135 1305.36 290.594 M1312.63 290.594 Q1312.63 296.3 1319.36 300.648 Q1326.08 305.064 1336.27 305.064 Q1346.26 305.064 1352.99 300.716 Q1359.78 296.436 1359.78 290.594 Q1359.78 286.45 1357.4 283.801 Q1355.02 281.151 1350.13 280.064 Q1345.31 279.045 1341.91 278.841 Q1338.52 278.638 1332.27 278.638 L1324.05 278.638 Q1319.29 278.909 1315.96 282.374 Q1312.63 285.839 1312.63 290.594 M1320.24 238.556 Q1320.24 255.676 1332.4 255.676 Q1338.52 255.676 1342.25 250.105 Q1344.49 246.369 1344.49 238.42 Q1344.49 221.301 1332.4 221.301 Q1326.29 221.301 1322.48 226.872 Q1320.24 230.608 1320.24 238.556 Z" fill="#000000" fill-rule="nonzero" fill-opacity="1" /><path clip-path="url(#clip470)" d="M1375.68 279.589 L1375.68 275.309 Q1383.08 275.309 1384.78 274.426 Q1386.48 273.475 1386.48 268.991 L1386.48 231.559 Q1386.48 226.396 1384.71 225.173 Q1383.01 223.95 1376.22 223.95 L1376.22 219.603 L1395.65 218.108 L1395.65 269.127 Q1395.65 273.271 1397.14 274.29 Q1398.64 275.309 1405.43 275.309 L1405.43 279.589 Q1391.23 279.181 1390.96 279.181 Q1389.06 279.181 1375.68 279.589 M1381.52 193.856 Q1381.52 191.07 1383.62 188.828 Q1385.8 186.519 1388.86 186.519 Q1391.91 186.519 1394.09 188.625 Q1396.26 190.663 1396.26 193.924 Q1396.26 197.116 1394.09 199.222 Q1391.91 201.26 1388.86 201.26 Q1385.66 201.26 1383.56 199.019 Q1381.52 196.777 1381.52 193.856 Z" fill="#000000" fill-rule="nonzero" fill-opacity="1" /><path clip-path="url(#clip470)" d="M1414.06 279.589 L1414.06 275.309 Q1421.46 275.309 1423.16 274.426 Q1424.86 273.475 1424.86 268.991 L1424.86 231.695 Q1424.86 226.532 1423.03 225.241 Q1421.26 223.95 1414.06 223.95 L1414.06 219.603 L1433.62 218.108 L1433.62 232.714 Q1440.15 218.108 1454.21 218.108 Q1464.67 218.108 1468.81 223.271 Q1471.87 226.736 1472.48 230.608 Q1473.16 234.48 1473.16 244.535 L1473.16 271.097 Q1473.3 274.018 1475.54 274.697 Q1477.78 275.309 1484.03 275.309 L1484.03 279.589 Q1469.83 279.181 1468.41 279.181 Q1467.32 279.181 1452.71 279.589 L1452.71 275.309 Q1460.12 275.309 1461.82 274.426 Q1463.58 273.475 1463.58 268.991 L1463.58 236.586 Q1463.58 229.521 1461.41 225.377 Q1459.23 221.165 1453.26 221.165 Q1446.06 221.165 1440.28 227.211 Q1434.51 233.257 1434.51 243.448 L1434.51 268.991 Q1434.51 273.475 1436.21 274.426 Q1437.97 275.309 1445.31 275.309 L1445.31 279.589 Q1431.11 279.181 1429.75 279.181 Q1428.66 279.181 1414.06 279.589 Z" fill="#000000" fill-rule="nonzero" fill-opacity="1" /><path clip-path="url(#clip470)" d="M1492.59 266.341 Q1492.59 254.521 1506.52 248.271 Q1514.87 244.263 1532.13 243.244 L1532.13 238.149 Q1532.13 229.521 1527.58 224.969 Q1523.09 220.35 1517.39 220.35 Q1507.2 220.35 1502.31 226.736 Q1506.45 226.872 1507.94 228.978 Q1509.44 231.016 1509.44 233.122 Q1509.44 235.907 1507.67 237.741 Q1505.97 239.507 1503.05 239.507 Q1500.27 239.507 1498.43 237.809 Q1496.6 236.043 1496.6 232.986 Q1496.6 226.192 1502.71 221.709 Q1508.89 217.225 1517.66 217.225 Q1529.07 217.225 1536.68 224.902 Q1539.06 227.279 1540.21 230.336 Q1541.44 233.393 1541.57 235.431 Q1541.71 237.401 1541.71 241.342 L1541.71 269.127 Q1541.71 269.942 1541.98 271.301 Q1542.25 272.659 1543.47 274.426 Q1544.76 276.124 1546.87 276.124 Q1551.9 276.124 1551.83 267.225 L1551.83 259.412 L1555.36 259.412 L1555.36 267.225 Q1555.36 274.629 1551.42 277.551 Q1547.55 280.404 1543.95 280.404 Q1539.33 280.404 1536.41 277.007 Q1533.49 273.61 1533.08 268.991 Q1530.97 274.29 1526.15 277.754 Q1521.39 281.151 1514.87 281.151 Q1509.85 281.151 1505.09 279.86 Q1500.4 278.638 1496.46 275.173 Q1492.59 271.64 1492.59 266.341 M1503.32 266.206 Q1503.32 271.369 1506.99 274.697 Q1510.66 278.026 1515.82 278.026 Q1521.67 278.026 1526.9 273.542 Q1532.13 268.991 1532.13 260.091 L1532.13 246.165 Q1516.71 246.708 1509.98 252.89 Q1503.32 259.005 1503.32 266.206 Z" fill="#000000" fill-rule="nonzero" fill-opacity="1" /><path clip-path="url(#clip470)" d="M1560.93 279.589 L1560.93 275.309 Q1568.34 275.309 1570.04 274.426 Q1571.73 273.475 1571.73 268.991 L1571.73 196.641 Q1571.73 191.478 1569.9 190.187 Q1568.13 188.896 1560.93 188.896 L1560.93 184.549 L1580.91 183.054 L1580.91 268.991 Q1580.91 273.475 1582.67 274.426 Q1584.44 275.309 1591.77 275.309 L1591.77 279.589 Q1590.08 279.589 1586.54 279.453 Q1583.01 279.317 1580.43 279.249 Q1577.85 279.181 1576.35 279.181 Q1574.72 279.181 1560.93 279.589 Z" fill="#000000" fill-rule="nonzero" fill-opacity="1" /><polyline clip-path="url(#clip470)" style="stroke:#e26f46; stroke-linecap:round; stroke-linejoin:round; stroke-width:11; stroke-opacity:1; fill:none" points="988.296,374.629 1120.84,374.629 "/>
<path clip-path="url(#clip470)" d="M1142.93 408.901 Q1142.93 397.081 1156.86 390.831 Q1165.22 386.823 1182.47 385.804 L1182.47 380.709 Q1182.47 372.081 1177.92 367.529 Q1173.44 362.91 1167.73 362.91 Q1157.54 362.91 1152.65 369.296 Q1156.79 369.432 1158.29 371.538 Q1159.78 373.576 1159.78 375.682 Q1159.78 378.467 1158.01 380.301 Q1156.32 382.067 1153.4 382.067 Q1150.61 382.067 1148.78 380.369 Q1146.94 378.603 1146.94 375.546 Q1146.94 368.752 1153.06 364.269 Q1159.24 359.785 1168 359.785 Q1179.41 359.785 1187.02 367.462 Q1189.4 369.839 1190.56 372.896 Q1191.78 375.953 1191.91 377.991 Q1192.05 379.961 1192.05 383.902 L1192.05 411.687 Q1192.05 412.502 1192.32 413.861 Q1192.59 415.219 1193.82 416.986 Q1195.11 418.684 1197.21 418.684 Q1202.24 418.684 1202.17 409.785 L1202.17 401.972 L1205.7 401.972 L1205.7 409.785 Q1205.7 417.189 1201.76 420.111 Q1197.89 422.964 1194.29 422.964 Q1189.67 422.964 1186.75 419.567 Q1183.83 416.17 1183.42 411.551 Q1181.32 416.85 1176.49 420.314 Q1171.74 423.711 1165.22 423.711 Q1160.19 423.711 1155.43 422.42 Q1150.75 421.198 1146.81 417.733 Q1142.93 414.2 1142.93 408.901 M1153.67 408.766 Q1153.67 413.929 1157.34 417.257 Q1161 420.586 1166.17 420.586 Q1172.01 420.586 1177.24 416.102 Q1182.47 411.551 1182.47 402.651 L1182.47 388.725 Q1167.05 389.268 1160.32 395.45 Q1153.67 401.565 1153.67 408.766 Z" fill="#000000" fill-rule="nonzero" fill-opacity="1" /><path clip-path="url(#clip470)" d="M1211.28 422.149 L1211.28 417.869 Q1218.68 417.869 1220.38 416.986 Q1222.08 416.035 1222.08 411.551 L1222.08 339.201 Q1222.08 334.038 1220.24 332.747 Q1218.48 331.456 1211.28 331.456 L1211.28 327.109 L1231.25 325.614 L1231.25 411.551 Q1231.25 416.035 1233.01 416.986 Q1234.78 417.869 1242.12 417.869 L1242.12 422.149 Q1240.42 422.149 1236.89 422.013 Q1233.35 421.877 1230.77 421.809 Q1228.19 421.741 1226.7 421.741 Q1225.07 421.741 1211.28 422.149 Z" fill="#000000" fill-rule="nonzero" fill-opacity="1" /><path clip-path="url(#clip470)" d="M1247.82 366.51 L1247.82 363.453 Q1254.21 363.182 1258.42 358.698 Q1262.7 354.146 1264.13 348.576 Q1265.62 343.005 1265.76 336.551 L1269.22 336.551 L1269.22 362.163 L1289.13 362.163 L1289.13 366.51 L1269.22 366.51 L1269.22 405.165 Q1269.22 420.179 1278.6 420.179 Q1282.61 420.179 1285.26 416.102 Q1287.9 411.958 1287.9 404.622 L1287.9 396.945 L1291.37 396.945 L1291.37 404.893 Q1291.37 412.434 1287.9 418.073 Q1284.44 423.711 1277.58 423.711 Q1275.07 423.711 1272.55 423.032 Q1270.11 422.42 1266.85 420.79 Q1263.65 419.092 1261.61 415.016 Q1259.64 410.872 1259.64 404.893 L1259.64 366.51 L1247.82 366.51 Z" fill="#000000" fill-rule="nonzero" fill-opacity="1" /><path clip-path="url(#clip470)" d="M1302.99 391.51 Q1302.99 378.399 1311.41 369.092 Q1319.83 359.785 1331.93 359.785 Q1344.15 359.785 1350.47 367.733 Q1356.86 375.682 1356.86 387.095 Q1356.86 389.201 1356.31 389.608 Q1355.77 390.016 1353.39 390.016 L1314.54 390.016 Q1314.54 404.214 1318.75 410.872 Q1324.59 420.179 1334.44 420.179 Q1335.8 420.179 1337.43 419.907 Q1339.06 419.635 1342.39 418.48 Q1345.72 417.257 1348.64 414.064 Q1351.56 410.872 1353.26 405.844 Q1353.67 403.874 1355.02 403.942 Q1356.86 403.942 1356.86 405.573 Q1356.86 406.795 1355.5 409.581 Q1354.21 412.298 1351.7 415.559 Q1349.18 418.82 1344.29 421.265 Q1339.47 423.711 1333.62 423.711 Q1321.4 423.711 1312.16 414.472 Q1302.99 405.165 1302.99 391.51 M1314.67 387.095 L1347.69 387.095 Q1347.69 384.173 1347.14 380.913 Q1346.67 377.652 1345.17 373.168 Q1343.75 368.616 1340.35 365.763 Q1336.95 362.91 1331.93 362.91 Q1329.68 362.91 1327.24 363.861 Q1324.86 364.812 1321.94 367.122 Q1319.02 369.432 1316.98 374.663 Q1314.94 379.894 1314.67 387.095 Z" fill="#000000" fill-rule="nonzero" fill-opacity="1" /><path clip-path="url(#clip470)" d="M1364.74 422.149 L1364.74 417.869 Q1372.14 417.869 1373.84 416.986 Q1375.61 416.035 1375.61 411.551 L1375.61 374.255 Q1375.61 369.092 1373.77 367.801 Q1372.01 366.51 1364.74 366.51 L1364.74 362.163 L1384.1 360.668 L1384.1 375.953 Q1386.07 369.975 1390.21 365.356 Q1394.43 360.668 1401.22 360.668 Q1405.7 360.668 1408.56 363.182 Q1411.48 365.695 1411.48 369.16 Q1411.48 372.217 1409.58 373.779 Q1407.74 375.274 1405.5 375.274 Q1402.99 375.274 1401.22 373.712 Q1399.52 372.081 1399.52 369.296 Q1399.52 367.597 1400.27 366.307 Q1401.08 364.948 1401.69 364.472 Q1402.31 363.997 1402.71 363.861 Q1402.44 363.725 1401.22 363.725 Q1393.54 363.725 1389.13 371.402 Q1384.78 379.01 1384.78 389.88 L1384.78 411.279 Q1384.78 415.287 1386.41 416.578 Q1388.11 417.869 1395.38 417.869 L1398.3 417.869 L1398.3 422.149 Q1392.73 421.741 1380.64 421.741 Q1378.94 421.741 1376.29 421.809 Q1373.64 421.877 1370.17 422.013 Q1366.71 422.149 1364.74 422.149 Z" fill="#000000" fill-rule="nonzero" fill-opacity="1" /><path clip-path="url(#clip470)" d="M1419.7 422.149 L1419.7 417.869 Q1427.1 417.869 1428.8 416.986 Q1430.5 416.035 1430.5 411.551 L1430.5 374.255 Q1430.5 369.092 1428.66 367.801 Q1426.9 366.51 1419.7 366.51 L1419.7 362.163 L1439.26 360.668 L1439.26 375.274 Q1445.78 360.668 1459.85 360.668 Q1470.31 360.668 1474.45 365.831 Q1477.51 369.296 1478.12 373.168 Q1478.8 377.04 1478.8 387.095 L1478.8 413.657 Q1478.94 416.578 1481.18 417.257 Q1483.42 417.869 1489.67 417.869 L1489.67 422.149 Q1475.47 421.741 1474.04 421.741 Q1472.96 421.741 1458.35 422.149 L1458.35 417.869 Q1465.76 417.869 1467.46 416.986 Q1469.22 416.035 1469.22 411.551 L1469.22 379.146 Q1469.22 372.081 1467.05 367.937 Q1464.87 363.725 1458.9 363.725 Q1451.69 363.725 1445.92 369.771 Q1440.15 375.817 1440.15 386.008 L1440.15 411.551 Q1440.15 416.035 1441.84 416.986 Q1443.61 417.869 1450.95 417.869 L1450.95 422.149 Q1436.75 421.741 1435.39 421.741 Q1434.3 421.741 1419.7 422.149 Z" fill="#000000" fill-rule="nonzero" fill-opacity="1" /><path clip-path="url(#clip470)" d="M1498.23 408.901 Q1498.23 397.081 1512.16 390.831 Q1520.51 386.823 1537.77 385.804 L1537.77 380.709 Q1537.77 372.081 1533.22 367.529 Q1528.73 362.91 1523.03 362.91 Q1512.84 362.91 1507.94 369.296 Q1512.09 369.432 1513.58 371.538 Q1515.08 373.576 1515.08 375.682 Q1515.08 378.467 1513.31 380.301 Q1511.61 382.067 1508.69 382.067 Q1505.91 382.067 1504.07 380.369 Q1502.24 378.603 1502.24 375.546 Q1502.24 368.752 1508.35 364.269 Q1514.53 359.785 1523.3 359.785 Q1534.71 359.785 1542.32 367.462 Q1544.7 369.839 1545.85 372.896 Q1547.07 375.953 1547.21 377.991 Q1547.35 379.961 1547.35 383.902 L1547.35 411.687 Q1547.35 412.502 1547.62 413.861 Q1547.89 415.219 1549.11 416.986 Q1550.4 418.684 1552.51 418.684 Q1557.54 418.684 1557.47 409.785 L1557.47 401.972 L1561 401.972 L1561 409.785 Q1561 417.189 1557.06 420.111 Q1553.19 422.964 1549.59 422.964 Q1544.97 422.964 1542.05 419.567 Q1539.13 416.17 1538.72 411.551 Q1536.61 416.85 1531.79 420.314 Q1527.03 423.711 1520.51 423.711 Q1515.48 423.711 1510.73 422.42 Q1506.04 421.198 1502.1 417.733 Q1498.23 414.2 1498.23 408.901 M1508.96 408.766 Q1508.96 413.929 1512.63 417.257 Q1516.3 420.586 1521.46 420.586 Q1527.31 420.586 1532.54 416.102 Q1537.77 411.551 1537.77 402.651 L1537.77 388.725 Q1522.35 389.268 1515.62 395.45 Q1508.96 401.565 1508.96 408.766 Z" fill="#000000" fill-rule="nonzero" fill-opacity="1" /><path clip-path="url(#clip470)" d="M1564.6 366.51 L1564.6 363.453 Q1570.99 363.182 1575.2 358.698 Q1579.48 354.146 1580.91 348.576 Q1582.4 343.005 1582.54 336.551 L1586 336.551 L1586 362.163 L1605.91 362.163 L1605.91 366.51 L1586 366.51 L1586 405.165 Q1586 420.179 1595.38 420.179 Q1599.38 420.179 1602.03 416.102 Q1604.68 411.958 1604.68 404.622 L1604.68 396.945 L1608.15 396.945 L1608.15 404.893 Q1608.15 412.434 1604.68 418.073 Q1601.22 423.711 1594.36 423.711 Q1591.84 423.711 1589.33 423.032 Q1586.88 422.42 1583.62 420.79 Q1580.43 419.092 1578.39 415.016 Q1576.42 410.872 1576.42 404.893 L1576.42 366.51 L1564.6 366.51 Z" fill="#000000" fill-rule="nonzero" fill-opacity="1" /><path clip-path="url(#clip470)" d="M1620.51 422.149 L1620.51 417.869 Q1627.92 417.869 1629.61 416.986 Q1631.31 416.035 1631.31 411.551 L1631.31 374.119 Q1631.31 368.956 1629.55 367.733 Q1627.85 366.51 1621.05 366.51 L1621.05 362.163 L1640.48 360.668 L1640.48 411.687 Q1640.48 415.831 1641.98 416.85 Q1643.47 417.869 1650.27 417.869 L1650.27 422.149 Q1636.07 421.741 1635.8 421.741 Q1633.89 421.741 1620.51 422.149 M1626.35 336.416 Q1626.35 333.63 1628.46 331.388 Q1630.63 329.079 1633.69 329.079 Q1636.75 329.079 1638.92 331.185 Q1641.09 333.223 1641.09 336.484 Q1641.09 339.676 1638.92 341.782 Q1636.75 343.82 1633.69 343.82 Q1630.5 343.82 1628.39 341.579 Q1626.35 339.337 1626.35 336.416 Z" fill="#000000" fill-rule="nonzero" fill-opacity="1" /><path clip-path="url(#clip470)" d="M1657.06 366.51 L1657.06 362.163 Q1663.31 362.57 1670.58 362.57 Q1673.23 362.57 1685.73 362.163 L1685.73 366.51 Q1677.78 366.51 1677.78 370.111 Q1677.78 370.654 1678.59 372.489 L1694.22 411.279 L1708.42 375.817 Q1709.23 373.44 1709.23 372.489 Q1709.23 370.111 1707.6 368.413 Q1706.04 366.646 1702.58 366.51 L1702.58 362.163 Q1709.64 362.57 1714.67 362.57 Q1720.37 362.57 1725.06 362.163 L1725.06 366.51 Q1720.92 366.51 1718 368.413 Q1715.08 370.247 1714.12 371.877 Q1713.24 373.44 1712.29 375.817 L1694.08 421.062 Q1693 423.711 1691.16 423.711 Q1689.94 423.711 1689.4 423.168 Q1688.92 422.692 1688.24 421.062 L1668.2 371.673 Q1666.84 368.209 1665.08 367.394 Q1663.31 366.51 1657.06 366.51 Z" fill="#000000" fill-rule="nonzero" fill-opacity="1" /><path clip-path="url(#clip470)" d="M1727.71 391.51 Q1727.71 378.399 1736.13 369.092 Q1744.56 359.785 1756.65 359.785 Q1768.88 359.785 1775.2 367.733 Q1781.58 375.682 1781.58 387.095 Q1781.58 389.201 1781.04 389.608 Q1780.5 390.016 1778.12 390.016 L1739.26 390.016 Q1739.26 404.214 1743.47 410.872 Q1749.31 420.179 1759.16 420.179 Q1760.52 420.179 1762.15 419.907 Q1763.78 419.635 1767.11 418.48 Q1770.44 417.257 1773.36 414.064 Q1776.28 410.872 1777.98 405.844 Q1778.39 403.874 1779.75 403.942 Q1781.58 403.942 1781.58 405.573 Q1781.58 406.795 1780.22 409.581 Q1778.93 412.298 1776.42 415.559 Q1773.91 418.82 1769.02 421.265 Q1764.19 423.711 1758.35 423.711 Q1746.12 423.711 1736.88 414.472 Q1727.71 405.165 1727.71 391.51 M1739.4 387.095 L1772.41 387.095 Q1772.41 384.173 1771.87 380.913 Q1771.39 377.652 1769.9 373.168 Q1768.47 368.616 1765.07 365.763 Q1761.68 362.91 1756.65 362.91 Q1754.41 362.91 1751.96 363.861 Q1749.59 364.812 1746.66 367.122 Q1743.74 369.432 1741.71 374.663 Q1739.67 379.894 1739.4 387.095 Z" fill="#000000" fill-rule="nonzero" fill-opacity="1" /><path clip-path="url(#clip470)" d="M1835.73 422.149 L1835.73 417.869 Q1843.13 417.869 1844.83 416.986 Q1846.6 416.035 1846.6 411.551 L1846.6 374.255 Q1846.6 369.092 1844.76 367.801 Q1843 366.51 1835.73 366.51 L1835.73 362.163 L1855.09 360.668 L1855.09 375.953 Q1857.06 369.975 1861.2 365.356 Q1865.41 360.668 1872.21 360.668 Q1876.69 360.668 1879.54 363.182 Q1882.47 365.695 1882.47 369.16 Q1882.47 372.217 1880.56 373.779 Q1878.73 375.274 1876.49 375.274 Q1873.97 375.274 1872.21 373.712 Q1870.51 372.081 1870.51 369.296 Q1870.51 367.597 1871.26 366.307 Q1872.07 364.948 1872.68 364.472 Q1873.29 363.997 1873.7 363.861 Q1873.43 363.725 1872.21 363.725 Q1864.53 363.725 1860.11 371.402 Q1855.77 379.01 1855.77 389.88 L1855.77 411.279 Q1855.77 415.287 1857.4 416.578 Q1859.1 417.869 1866.36 417.869 L1869.29 417.869 L1869.29 422.149 Q1863.72 421.741 1851.62 421.741 Q1849.92 421.741 1847.28 421.809 Q1844.63 421.877 1841.16 422.013 Q1837.7 422.149 1835.73 422.149 Z" fill="#000000" fill-rule="nonzero" fill-opacity="1" /><path clip-path="url(#clip470)" d="M1890.07 391.51 Q1890.07 378.399 1898.5 369.092 Q1906.92 359.785 1919.01 359.785 Q1931.24 359.785 1937.56 367.733 Q1943.95 375.682 1943.95 387.095 Q1943.95 389.201 1943.4 389.608 Q1942.86 390.016 1940.48 390.016 L1901.62 390.016 Q1901.62 404.214 1905.83 410.872 Q1911.68 420.179 1921.53 420.179 Q1922.89 420.179 1924.52 419.907 Q1926.15 419.635 1929.48 418.48 Q1932.8 417.257 1935.73 414.064 Q1938.65 410.872 1940.35 405.844 Q1940.75 403.874 1942.11 403.942 Q1943.95 403.942 1943.95 405.573 Q1943.95 406.795 1942.59 409.581 Q1941.3 412.298 1938.78 415.559 Q1936.27 418.82 1931.38 421.265 Q1926.55 423.711 1920.71 423.711 Q1908.48 423.711 1899.25 414.472 Q1890.07 405.165 1890.07 391.51 M1901.76 387.095 L1934.77 387.095 Q1934.77 384.173 1934.23 380.913 Q1933.76 377.652 1932.26 373.168 Q1930.83 368.616 1927.44 365.763 Q1924.04 362.91 1919.01 362.91 Q1916.77 362.91 1914.33 363.861 Q1911.95 364.812 1909.03 367.122 Q1906.11 369.432 1904.07 374.663 Q1902.03 379.894 1901.76 387.095 Z" fill="#000000" fill-rule="nonzero" fill-opacity="1" /><path clip-path="url(#clip470)" d="M1952.57 422.149 L1952.57 417.869 Q1959.98 417.869 1961.68 416.986 Q1963.37 416.035 1963.37 411.551 L1963.37 339.201 Q1963.37 334.038 1961.54 332.747 Q1959.77 331.456 1952.57 331.456 L1952.57 327.109 L1972.55 325.614 L1972.55 411.551 Q1972.55 416.035 1974.31 416.986 Q1976.08 417.869 1983.42 417.869 L1983.42 422.149 Q1981.72 422.149 1978.18 422.013 Q1974.65 421.877 1972.07 421.809 Q1969.49 421.741 1967.99 421.741 Q1966.36 421.741 1952.57 422.149 Z" fill="#000000" fill-rule="nonzero" fill-opacity="1" /><path clip-path="url(#clip470)" d="M1992.31 408.901 Q1992.31 397.081 2006.24 390.831 Q2014.6 386.823 2031.85 385.804 L2031.85 380.709 Q2031.85 372.081 2027.3 367.529 Q2022.82 362.91 2017.11 362.91 Q2006.92 362.91 2002.03 369.296 Q2006.17 369.432 2007.67 371.538 Q2009.16 373.576 2009.16 375.682 Q2009.16 378.467 2007.4 380.301 Q2005.7 382.067 2002.78 382.067 Q1999.99 382.067 1998.16 380.369 Q1996.32 378.603 1996.32 375.546 Q1996.32 368.752 2002.44 364.269 Q2008.62 359.785 2017.38 359.785 Q2028.8 359.785 2036.4 367.462 Q2038.78 369.839 2039.94 372.896 Q2041.16 375.953 2041.3 377.991 Q2041.43 379.961 2041.43 383.902 L2041.43 411.687 Q2041.43 412.502 2041.7 413.861 Q2041.97 415.219 2043.2 416.986 Q2044.49 418.684 2046.59 418.684 Q2051.62 418.684 2051.55 409.785 L2051.55 401.972 L2055.09 401.972 L2055.09 409.785 Q2055.09 417.189 2051.15 420.111 Q2047.27 422.964 2043.67 422.964 Q2039.05 422.964 2036.13 419.567 Q2033.21 416.17 2032.8 411.551 Q2030.7 416.85 2025.87 420.314 Q2021.12 423.711 2014.6 423.711 Q2009.57 423.711 2004.81 422.42 Q2000.13 421.198 1996.19 417.733 Q1992.31 414.2 1992.31 408.901 M2003.05 408.766 Q2003.05 413.929 2006.72 417.257 Q2010.39 420.586 2015.55 420.586 Q2021.39 420.586 2026.62 416.102 Q2031.85 411.551 2031.85 402.651 L2031.85 388.725 Q2016.43 389.268 2009.71 395.45 Q2003.05 401.565 2003.05 408.766 Z" fill="#000000" fill-rule="nonzero" fill-opacity="1" /><path clip-path="url(#clip470)" d="M2057.74 422.149 L2057.74 417.869 Q2068.61 417.869 2075.53 409.513 Q2075.53 409.513 2088.58 392.937 L2074.79 375.002 Q2069.9 368.752 2067.72 367.665 Q2065.62 366.51 2058.41 366.51 L2058.41 362.163 Q2064.12 362.57 2071.59 362.57 Q2075.74 362.57 2086.68 362.163 L2086.68 366.51 Q2081.78 366.782 2081.78 369.975 Q2081.78 371.062 2083.01 372.489 L2093.88 386.551 L2102.5 375.682 Q2104.61 373.168 2104.61 370.79 Q2104.61 366.918 2100.53 366.51 L2100.53 362.163 Q2105.97 362.57 2113.92 362.57 Q2119.9 362.57 2125.33 362.163 L2125.33 366.51 Q2114.73 366.782 2108.75 373.712 Q2106.1 376.633 2095.98 389.472 L2114.6 413.521 Q2116.84 416.442 2119.35 417.189 Q2121.87 417.869 2127.84 417.869 L2127.84 422.149 Q2121.59 421.741 2114.46 421.741 Q2111.95 421.741 2099.45 422.149 L2099.45 417.869 Q2101.96 417.733 2103.18 416.646 Q2104.47 415.491 2104.47 414.336 Q2104.47 413.793 2101.55 409.785 L2090.96 395.858 Q2080.36 408.358 2079 411.279 Q2078.46 412.502 2078.46 413.521 Q2078.46 417.257 2082.46 417.869 L2082.46 422.149 Q2072.48 421.741 2069.28 421.741 Q2063.17 421.741 2057.74 422.149 Z" fill="#000000" fill-rule="nonzero" fill-opacity="1" /><path clip-path="url(#clip470)" d="M2133.21 391.51 Q2133.21 378.399 2141.63 369.092 Q2150.06 359.785 2162.15 359.785 Q2174.38 359.785 2180.7 367.733 Q2187.08 375.682 2187.08 387.095 Q2187.08 389.201 2186.54 389.608 Q2186 390.016 2183.62 390.016 L2144.76 390.016 Q2144.76 404.214 2148.97 410.872 Q2154.81 420.179 2164.66 420.179 Q2166.02 420.179 2167.65 419.907 Q2169.28 419.635 2172.61 418.48 Q2175.94 417.257 2178.86 414.064 Q2181.78 410.872 2183.48 405.844 Q2183.89 403.874 2185.25 403.942 Q2187.08 403.942 2187.08 405.573 Q2187.08 406.795 2185.72 409.581 Q2184.43 412.298 2181.92 415.559 Q2179.41 418.82 2174.51 421.265 Q2169.69 423.711 2163.85 423.711 Q2151.62 423.711 2142.38 414.472 Q2133.21 405.165 2133.21 391.51 M2144.9 387.095 L2177.91 387.095 Q2177.91 384.173 2177.37 380.913 Q2176.89 377.652 2175.4 373.168 Q2173.97 368.616 2170.57 365.763 Q2167.18 362.91 2162.15 362.91 Q2159.91 362.91 2157.46 363.861 Q2155.09 364.812 2152.16 367.122 Q2149.24 369.432 2147.21 374.663 Q2145.17 379.894 2144.9 387.095 Z" fill="#000000" fill-rule="nonzero" fill-opacity="1" /><path clip-path="url(#clip470)" d="M2195.85 392.258 Q2195.85 379.01 2205.08 369.839 Q2214.32 360.668 2226.82 360.668 Q2237.42 360.668 2244.35 369.296 L2244.35 339.201 Q2244.35 334.038 2242.52 332.747 Q2240.75 331.456 2233.55 331.456 L2233.55 327.109 L2253.59 325.614 L2253.59 410.056 Q2253.59 415.219 2255.36 416.578 Q2257.19 417.869 2264.39 417.869 L2264.39 422.149 L2243.94 423.711 L2243.94 414.472 Q2236.74 423.643 2225.33 423.711 Q2213.37 423.711 2204.61 414.54 Q2195.85 405.369 2195.85 392.258 M2207.39 392.393 Q2207.39 405.301 2211.4 411.687 Q2216.97 420.586 2226.01 420.586 Q2236.33 420.586 2242.45 410.872 Q2244.01 408.494 2243.94 405.709 L2243.94 377.176 Q2243.94 374.391 2242.45 372.081 Q2236.74 363.725 2227.44 363.725 Q2217.72 363.725 2211.67 372.625 Q2207.39 379.282 2207.39 392.393 Z" fill="#000000" fill-rule="nonzero" fill-opacity="1" /></svg>
