<?xml version="1.0" encoding="utf-8"?>
<svg xmlns="http://www.w3.org/2000/svg" xmlns:xlink="http://www.w3.org/1999/xlink" width="600" height="400" viewBox="0 0 2400 1600">
<defs>
  <clipPath id="clip200">
    <rect x="0" y="0" width="2400" height="1600"/>
  </clipPath>
</defs>
<path clip-path="url(#clip200)" d="M0 1600 L2400 1600 L2400 0 L0 0  Z" fill="#ffffff" fill-rule="evenodd" fill-opacity="1"/>
<defs>
  <clipPath id="clip201">
    <rect x="480" y="0" width="1681" height="1600"/>
  </clipPath>
</defs>
<defs>
  <clipPath id="clip202">
    <rect x="310" y="201" width="2043" height="1175"/>
  </clipPath>
</defs>
<path clip-path="url(#clip200)" d="M310.977 1375.66 L2352.76 1375.66 L2352.76 201.232 L310.977 201.232  Z" fill="#ffffff" fill-rule="evenodd" fill-opacity="1"/>
<polyline clip-path="url(#clip202)" style="stroke:#000000; stroke-linecap:round; stroke-linejoin:round; stroke-width:2; stroke-opacity:0.1; fill:none" points="337.695,1375.66 337.695,201.232 "/>
<polyline clip-path="url(#clip202)" style="stroke:#000000; stroke-linecap:round; stroke-linejoin:round; stroke-width:2; stroke-opacity:0.1; fill:none" points="648.374,1375.66 648.374,201.232 "/>
<polyline clip-path="url(#clip202)" style="stroke:#000000; stroke-linecap:round; stroke-linejoin:round; stroke-width:2; stroke-opacity:0.1; fill:none" points="959.052,1375.66 959.052,201.232 "/>
<polyline clip-path="url(#clip202)" style="stroke:#000000; stroke-linecap:round; stroke-linejoin:round; stroke-width:2; stroke-opacity:0.1; fill:none" points="1269.73,1375.66 1269.73,201.232 "/>
<polyline clip-path="url(#clip202)" style="stroke:#000000; stroke-linecap:round; stroke-linejoin:round; stroke-width:2; stroke-opacity:0.1; fill:none" points="1580.41,1375.66 1580.41,201.232 "/>
<polyline clip-path="url(#clip202)" style="stroke:#000000; stroke-linecap:round; stroke-linejoin:round; stroke-width:2; stroke-opacity:0.1; fill:none" points="1891.09,1375.66 1891.09,201.232 "/>
<polyline clip-path="url(#clip202)" style="stroke:#000000; stroke-linecap:round; stroke-linejoin:round; stroke-width:2; stroke-opacity:0.1; fill:none" points="2201.77,1375.66 2201.77,201.232 "/>
<polyline clip-path="url(#clip200)" style="stroke:#000000; stroke-linecap:round; stroke-linejoin:round; stroke-width:4; stroke-opacity:1; fill:none" points="310.977,1375.66 2352.76,1375.66 "/>
<polyline clip-path="url(#clip200)" style="stroke:#000000; stroke-linecap:round; stroke-linejoin:round; stroke-width:4; stroke-opacity:1; fill:none" points="337.695,1375.66 337.695,1356.76 "/>
<polyline clip-path="url(#clip200)" style="stroke:#000000; stroke-linecap:round; stroke-linejoin:round; stroke-width:4; stroke-opacity:1; fill:none" points="648.374,1375.66 648.374,1356.76 "/>
<polyline clip-path="url(#clip200)" style="stroke:#000000; stroke-linecap:round; stroke-linejoin:round; stroke-width:4; stroke-opacity:1; fill:none" points="959.052,1375.66 959.052,1356.76 "/>
<polyline clip-path="url(#clip200)" style="stroke:#000000; stroke-linecap:round; stroke-linejoin:round; stroke-width:4; stroke-opacity:1; fill:none" points="1269.73,1375.66 1269.73,1356.76 "/>
<polyline clip-path="url(#clip200)" style="stroke:#000000; stroke-linecap:round; stroke-linejoin:round; stroke-width:4; stroke-opacity:1; fill:none" points="1580.41,1375.66 1580.41,1356.76 "/>
<polyline clip-path="url(#clip200)" style="stroke:#000000; stroke-linecap:round; stroke-linejoin:round; stroke-width:4; stroke-opacity:1; fill:none" points="1891.09,1375.66 1891.09,1356.76 "/>
<polyline clip-path="url(#clip200)" style="stroke:#000000; stroke-linecap:round; stroke-linejoin:round; stroke-width:4; stroke-opacity:1; fill:none" points="2201.77,1375.66 2201.77,1356.76 "/>
<path clip-path="url(#clip200)" d="M327.048 1421.88 Q327.048 1414.44 328.926 1410.39 Q331.544 1404.36 337.72 1404.36 Q339.029 1404.36 340.388 1404.74 Q341.772 1405.08 343.501 1406.44 Q345.255 1407.8 346.317 1410.02 Q348.343 1414.32 348.343 1421.88 Q348.343 1429.27 346.465 1433.29 Q343.723 1439.17 337.671 1439.17 Q335.398 1439.17 333.076 1438.01 Q330.779 1436.85 329.321 1434.06 Q327.048 1429.88 327.048 1421.88 M331.248 1421.26 Q331.248 1428.89 331.791 1431.93 Q332.409 1435.22 334.089 1436.65 Q335.793 1438.06 337.671 1438.06 Q339.696 1438.06 341.376 1436.55 Q343.081 1435.02 343.6 1431.74 Q344.168 1428.5 344.143 1421.26 Q344.143 1414.22 343.649 1411.4 Q342.982 1408.12 341.203 1406.81 Q339.449 1405.48 337.671 1405.48 Q337.004 1405.48 336.287 1405.67 Q335.596 1405.87 334.583 1406.44 Q333.57 1407.01 332.78 1408.42 Q332.014 1409.82 331.643 1411.95 Q331.248 1414.69 331.248 1421.26 Z" fill="#000000" fill-rule="nonzero" fill-opacity="1" /><path clip-path="url(#clip200)" d="M626.339 1409.18 L626.339 1407.6 Q632.416 1407.6 635.553 1404.36 Q636.417 1404.36 636.566 1404.56 Q636.714 1404.76 636.714 1405.67 L636.714 1434.06 Q636.714 1435.56 637.455 1436.03 Q638.196 1436.5 641.432 1436.5 L643.038 1436.5 L643.038 1438.06 Q641.259 1437.91 634.836 1437.91 Q628.414 1437.91 626.66 1438.06 L626.66 1436.5 L628.265 1436.5 Q631.452 1436.5 632.218 1436.06 Q632.984 1435.59 632.984 1434.06 L632.984 1407.85 Q630.34 1409.18 626.339 1409.18 Z" fill="#000000" fill-rule="nonzero" fill-opacity="1" /><path clip-path="url(#clip200)" d="M649.115 1421.88 Q649.115 1414.44 650.992 1410.39 Q653.611 1404.36 659.787 1404.36 Q661.096 1404.36 662.455 1404.74 Q663.838 1405.08 665.567 1406.44 Q667.321 1407.8 668.384 1410.02 Q670.409 1414.32 670.409 1421.88 Q670.409 1429.27 668.532 1433.29 Q665.79 1439.17 659.737 1439.17 Q657.465 1439.17 655.143 1438.01 Q652.845 1436.85 651.388 1434.06 Q649.115 1429.88 649.115 1421.88 M653.315 1421.26 Q653.315 1428.89 653.858 1431.93 Q654.476 1435.22 656.155 1436.65 Q657.86 1438.06 659.737 1438.06 Q661.763 1438.06 663.443 1436.55 Q665.148 1435.02 665.666 1431.74 Q666.234 1428.5 666.21 1421.26 Q666.21 1414.22 665.716 1411.4 Q665.049 1408.12 663.27 1406.81 Q661.516 1405.48 659.737 1405.48 Q659.07 1405.48 658.354 1405.67 Q657.662 1405.87 656.65 1406.44 Q655.637 1407.01 654.846 1408.42 Q654.08 1409.82 653.71 1411.95 Q653.315 1414.69 653.315 1421.26 Z" fill="#000000" fill-rule="nonzero" fill-opacity="1" /><path clip-path="url(#clip200)" d="M936.029 1438.06 Q936.029 1437.15 936.103 1436.87 Q936.202 1436.6 936.597 1436.18 L946.305 1425.36 Q951.617 1419.38 951.617 1414.17 Q951.617 1410.79 949.838 1408.37 Q948.084 1405.95 944.848 1405.95 Q942.625 1405.95 940.747 1407.3 Q938.87 1408.66 938.005 1411.08 Q938.153 1411.03 938.672 1411.03 Q939.932 1411.03 940.624 1411.82 Q941.34 1412.62 941.34 1413.68 Q941.34 1415.04 940.451 1415.7 Q939.586 1416.35 938.722 1416.35 Q938.376 1416.35 937.906 1416.27 Q937.462 1416.2 936.745 1415.51 Q936.029 1414.79 936.029 1413.53 Q936.029 1410 938.697 1407.18 Q941.389 1404.36 945.49 1404.36 Q950.134 1404.36 953.173 1407.13 Q956.236 1409.87 956.236 1414.17 Q956.236 1415.68 955.767 1417.06 Q955.322 1418.42 954.705 1419.48 Q954.112 1420.55 952.481 1422.25 Q950.851 1423.95 949.542 1425.16 Q948.232 1426.38 945.293 1428.94 L939.932 1434.16 L949.048 1434.16 Q953.494 1434.16 953.84 1433.76 Q954.334 1433.05 954.952 1429.27 L956.236 1429.27 L954.803 1438.06 L936.029 1438.06 Z" fill="#000000" fill-rule="nonzero" fill-opacity="1" /><path clip-path="url(#clip200)" d="M960.782 1421.88 Q960.782 1414.44 962.659 1410.39 Q965.278 1404.36 971.453 1404.36 Q972.763 1404.36 974.121 1404.74 Q975.505 1405.08 977.234 1406.44 Q978.988 1407.8 980.05 1410.02 Q982.076 1414.32 982.076 1421.88 Q982.076 1429.27 980.198 1433.29 Q977.456 1439.17 971.404 1439.17 Q969.131 1439.17 966.809 1438.01 Q964.512 1436.85 963.054 1434.06 Q960.782 1429.88 960.782 1421.88 M964.981 1421.26 Q964.981 1428.89 965.525 1431.93 Q966.142 1435.22 967.822 1436.65 Q969.527 1438.06 971.404 1438.06 Q973.43 1438.06 975.11 1436.55 Q976.814 1435.02 977.333 1431.74 Q977.901 1428.5 977.876 1421.26 Q977.876 1414.22 977.382 1411.4 Q976.715 1408.12 974.937 1406.81 Q973.183 1405.48 971.404 1405.48 Q970.737 1405.48 970.021 1405.67 Q969.329 1405.87 968.316 1406.44 Q967.303 1407.01 966.513 1408.42 Q965.747 1409.82 965.376 1411.95 Q964.981 1414.69 964.981 1421.26 Z" fill="#000000" fill-rule="nonzero" fill-opacity="1" /><path clip-path="url(#clip200)" d="M1246.51 1431.24 Q1246.51 1429.73 1247.37 1429.02 Q1248.24 1428.3 1249.35 1428.3 Q1250.51 1428.3 1251.33 1429.07 Q1252.17 1429.81 1252.17 1431.12 Q1252.17 1432.53 1251.18 1433.32 Q1250.22 1434.11 1248.83 1433.91 Q1250.04 1435.94 1252.27 1436.85 Q1254.51 1437.76 1256.59 1437.76 Q1258.76 1437.76 1260.52 1435.89 Q1262.3 1434.01 1262.3 1429.41 Q1262.3 1425.51 1260.76 1423.26 Q1259.26 1421.01 1256.27 1421.01 L1254.04 1421.01 Q1253.28 1421.01 1253.06 1420.94 Q1252.83 1420.87 1252.83 1420.45 Q1252.83 1419.95 1253.6 1419.85 Q1254.37 1419.85 1255.58 1419.71 Q1258.52 1419.61 1260.07 1417.06 Q1261.48 1414.69 1261.48 1411.31 Q1261.48 1408.22 1260 1406.93 Q1258.54 1405.62 1256.64 1405.62 Q1254.86 1405.62 1252.91 1406.37 Q1250.96 1407.11 1249.89 1408.76 Q1253.03 1408.76 1253.03 1411.31 Q1253.03 1412.42 1252.31 1413.16 Q1251.62 1413.88 1250.46 1413.88 Q1249.35 1413.88 1248.61 1413.18 Q1247.87 1412.47 1247.87 1411.26 Q1247.87 1408.37 1250.44 1406.37 Q1253.03 1404.36 1256.84 1404.36 Q1260.59 1404.36 1263.36 1406.34 Q1266.15 1408.32 1266.15 1411.36 Q1266.15 1414.34 1264.17 1416.79 Q1262.2 1419.24 1259.06 1420.25 Q1262.91 1421.01 1265.21 1423.63 Q1267.51 1426.23 1267.51 1429.41 Q1267.51 1433.37 1264.39 1436.28 Q1261.28 1439.17 1256.74 1439.17 Q1252.54 1439.17 1249.52 1436.9 Q1246.51 1434.63 1246.51 1431.24 Z" fill="#000000" fill-rule="nonzero" fill-opacity="1" /><path clip-path="url(#clip200)" d="M1271.66 1421.88 Q1271.66 1414.44 1273.54 1410.39 Q1276.15 1404.36 1282.33 1404.36 Q1283.64 1404.36 1285 1404.74 Q1286.38 1405.08 1288.11 1406.44 Q1289.86 1407.8 1290.93 1410.02 Q1292.95 1414.32 1292.95 1421.88 Q1292.95 1429.27 1291.07 1433.29 Q1288.33 1439.17 1282.28 1439.17 Q1280.01 1439.17 1277.69 1438.01 Q1275.39 1436.85 1273.93 1434.06 Q1271.66 1429.88 1271.66 1421.88 M1275.86 1421.26 Q1275.86 1428.89 1276.4 1431.93 Q1277.02 1435.22 1278.7 1436.65 Q1280.4 1438.06 1282.28 1438.06 Q1284.31 1438.06 1285.99 1436.55 Q1287.69 1435.02 1288.21 1431.74 Q1288.78 1428.5 1288.75 1421.26 Q1288.75 1414.22 1288.26 1411.4 Q1287.59 1408.12 1285.81 1406.81 Q1284.06 1405.48 1282.28 1405.48 Q1281.61 1405.48 1280.9 1405.67 Q1280.21 1405.87 1279.19 1406.44 Q1278.18 1407.01 1277.39 1408.42 Q1276.62 1409.82 1276.25 1411.95 Q1275.86 1414.69 1275.86 1421.26 Z" fill="#000000" fill-rule="nonzero" fill-opacity="1" /><path clip-path="url(#clip200)" d="M1556.83 1429.71 L1556.83 1428.15 L1572.37 1404.41 Q1572.76 1403.8 1573.38 1403.82 Q1573.95 1403.82 1574.07 1404.04 Q1574.2 1404.27 1574.2 1405.13 L1574.2 1428.15 L1579.26 1428.15 L1579.26 1429.71 L1574.2 1429.71 L1574.2 1434.11 Q1574.2 1435.56 1574.79 1436.03 Q1575.41 1436.5 1578.03 1436.5 L1579.09 1436.5 L1579.09 1438.06 Q1577.01 1437.91 1572.22 1437.91 Q1567.45 1437.91 1565.38 1438.06 L1565.38 1436.5 L1566.44 1436.5 Q1569.06 1436.5 1569.68 1436.06 Q1570.29 1435.59 1570.29 1434.11 L1570.29 1429.71 L1556.83 1429.71 M1558.26 1428.15 L1570.59 1428.15 L1570.59 1409.28 L1558.26 1428.15 Z" fill="#000000" fill-rule="nonzero" fill-opacity="1" /><path clip-path="url(#clip200)" d="M1582.69 1421.88 Q1582.69 1414.44 1584.57 1410.39 Q1587.19 1404.36 1593.37 1404.36 Q1594.68 1404.36 1596.03 1404.74 Q1597.42 1405.08 1599.15 1406.44 Q1600.9 1407.8 1601.96 1410.02 Q1603.99 1414.32 1603.99 1421.88 Q1603.99 1429.27 1602.11 1433.29 Q1599.37 1439.17 1593.32 1439.17 Q1591.04 1439.17 1588.72 1438.01 Q1586.42 1436.85 1584.97 1434.06 Q1582.69 1429.88 1582.69 1421.88 M1586.89 1421.26 Q1586.89 1428.89 1587.44 1431.93 Q1588.05 1435.22 1589.73 1436.65 Q1591.44 1438.06 1593.32 1438.06 Q1595.34 1438.06 1597.02 1436.55 Q1598.73 1435.02 1599.25 1431.74 Q1599.81 1428.5 1599.79 1421.26 Q1599.79 1414.22 1599.29 1411.4 Q1598.63 1408.12 1596.85 1406.81 Q1595.1 1405.48 1593.32 1405.48 Q1592.65 1405.48 1591.93 1405.67 Q1591.24 1405.87 1590.23 1406.44 Q1589.22 1407.01 1588.43 1408.42 Q1587.66 1409.82 1587.29 1411.95 Q1586.89 1414.69 1586.89 1421.26 Z" fill="#000000" fill-rule="nonzero" fill-opacity="1" /><path clip-path="url(#clip200)" d="M1868.06 1429.91 Q1868.06 1428.4 1868.88 1427.83 Q1869.69 1427.24 1870.56 1427.24 Q1871.72 1427.24 1872.39 1427.98 Q1873.08 1428.7 1873.08 1429.71 Q1873.08 1430.72 1872.39 1431.46 Q1871.72 1432.18 1870.56 1432.18 Q1869.99 1432.18 1869.69 1432.08 Q1870.36 1434.4 1872.39 1436.08 Q1874.44 1437.76 1877.13 1437.76 Q1880.51 1437.76 1882.54 1434.48 Q1883.75 1432.35 1883.75 1427.54 Q1883.75 1423.29 1882.84 1421.16 Q1881.43 1417.93 1878.54 1417.93 Q1874.44 1417.93 1872.02 1421.46 Q1871.72 1421.9 1871.37 1421.93 Q1870.88 1421.93 1870.76 1421.66 Q1870.66 1421.36 1870.66 1420.59 L1870.66 1405.62 Q1870.66 1404.41 1871.15 1404.41 Q1871.35 1404.41 1871.77 1404.56 Q1874.96 1405.97 1878.49 1405.99 Q1882.12 1405.99 1885.38 1404.51 Q1885.63 1404.36 1885.78 1404.36 Q1886.27 1404.36 1886.3 1404.93 Q1886.3 1405.13 1885.88 1405.72 Q1885.48 1406.29 1884.62 1407.06 Q1883.75 1407.8 1882.64 1408.51 Q1881.53 1409.23 1879.9 1409.73 Q1878.29 1410.19 1876.51 1410.19 Q1874.39 1410.19 1872.21 1409.53 L1872.21 1419.38 Q1874.83 1416.81 1878.64 1416.81 Q1882.69 1416.81 1885.48 1420.08 Q1888.27 1423.34 1888.27 1427.88 Q1888.27 1432.65 1884.96 1435.91 Q1881.68 1439.17 1877.23 1439.17 Q1873.18 1439.17 1870.61 1436.28 Q1868.06 1433.39 1868.06 1429.91 Z" fill="#000000" fill-rule="nonzero" fill-opacity="1" /><path clip-path="url(#clip200)" d="M1892.82 1421.88 Q1892.82 1414.44 1894.69 1410.39 Q1897.31 1404.36 1903.49 1404.36 Q1904.8 1404.36 1906.16 1404.74 Q1907.54 1405.08 1909.27 1406.44 Q1911.02 1407.8 1912.09 1410.02 Q1914.11 1414.32 1914.11 1421.88 Q1914.11 1429.27 1912.23 1433.29 Q1909.49 1439.17 1903.44 1439.17 Q1901.17 1439.17 1898.84 1438.01 Q1896.55 1436.85 1895.09 1434.06 Q1892.82 1429.88 1892.82 1421.88 M1897.02 1421.26 Q1897.02 1428.89 1897.56 1431.93 Q1898.18 1435.22 1899.86 1436.65 Q1901.56 1438.06 1903.44 1438.06 Q1905.47 1438.06 1907.14 1436.55 Q1908.85 1435.02 1909.37 1431.74 Q1909.94 1428.5 1909.91 1421.26 Q1909.91 1414.22 1909.42 1411.4 Q1908.75 1408.12 1906.97 1406.81 Q1905.22 1405.48 1903.44 1405.48 Q1902.77 1405.48 1902.06 1405.67 Q1901.36 1405.87 1900.35 1406.44 Q1899.34 1407.01 1898.55 1408.42 Q1897.78 1409.82 1897.41 1411.95 Q1897.02 1414.69 1897.02 1421.26 Z" fill="#000000" fill-rule="nonzero" fill-opacity="1" /><path clip-path="url(#clip200)" d="M2178.55 1422.08 Q2178.55 1414.12 2182.6 1409.26 Q2186.65 1404.36 2191.86 1404.36 Q2194.9 1404.36 2196.58 1405.92 Q2198.28 1407.45 2198.28 1409.82 Q2198.28 1411.13 2197.52 1411.7 Q2196.75 1412.27 2195.96 1412.27 Q2195.05 1412.27 2194.33 1411.65 Q2193.61 1411.03 2193.61 1409.92 Q2193.61 1407.65 2196.41 1407.65 Q2195.1 1405.62 2191.96 1405.62 Q2191 1405.62 2190.01 1405.92 Q2189.02 1406.19 2187.73 1407.13 Q2186.45 1408.07 2185.46 1409.55 Q2184.47 1411.03 2183.78 1413.83 Q2183.09 1416.62 2183.09 1420.25 L2183.09 1421.46 Q2185.17 1416.44 2189.41 1416.47 Q2193.66 1416.47 2196.6 1419.71 Q2199.54 1422.94 2199.54 1427.73 Q2199.54 1432.65 2196.48 1435.91 Q2193.42 1439.17 2189.12 1439.17 Q2187.19 1439.17 2185.44 1438.36 Q2183.71 1437.57 2182.08 1435.74 Q2180.47 1433.91 2179.51 1430.4 Q2178.55 1426.89 2178.55 1422.08 M2183.19 1426.62 Q2183.19 1431.59 2184.1 1433.96 Q2184.25 1434.35 2184.57 1434.9 Q2184.92 1435.44 2185.49 1436.16 Q2186.08 1436.85 2187.04 1437.32 Q2188.01 1437.76 2189.12 1437.76 Q2192.5 1437.76 2194.13 1434.48 Q2195 1432.65 2195 1427.68 Q2195 1422.62 2194.08 1420.77 Q2192.53 1417.63 2189.37 1417.63 Q2187.24 1417.63 2185.76 1419.09 Q2184.3 1420.55 2183.73 1422.5 Q2183.19 1424.45 2183.19 1426.62 Z" fill="#000000" fill-rule="nonzero" fill-opacity="1" /><path clip-path="url(#clip200)" d="M2203.69 1421.88 Q2203.69 1414.44 2205.57 1410.39 Q2208.19 1404.36 2214.36 1404.36 Q2215.67 1404.36 2217.03 1404.74 Q2218.42 1405.08 2220.15 1406.44 Q2221.9 1407.8 2222.96 1410.02 Q2224.99 1414.32 2224.99 1421.88 Q2224.99 1429.27 2223.11 1433.29 Q2220.37 1439.17 2214.32 1439.17 Q2212.04 1439.17 2209.72 1438.01 Q2207.42 1436.85 2205.97 1434.06 Q2203.69 1429.88 2203.69 1421.88 M2207.89 1421.26 Q2207.89 1428.89 2208.44 1431.93 Q2209.05 1435.22 2210.73 1436.65 Q2212.44 1438.06 2214.32 1438.06 Q2216.34 1438.06 2218.02 1436.55 Q2219.73 1435.02 2220.24 1431.74 Q2220.81 1428.5 2220.79 1421.26 Q2220.79 1414.22 2220.29 1411.4 Q2219.63 1408.12 2217.85 1406.81 Q2216.09 1405.48 2214.32 1405.48 Q2213.65 1405.48 2212.93 1405.67 Q2212.24 1405.87 2211.23 1406.44 Q2210.21 1407.01 2209.42 1408.42 Q2208.66 1409.82 2208.29 1411.95 Q2207.89 1414.69 2207.89 1421.26 Z" fill="#000000" fill-rule="nonzero" fill-opacity="1" /><path clip-path="url(#clip200)" d="M922.8 1575.71 L922.8 1557.37 Q922.8 1555.81 922.868 1555.27 Q922.936 1554.72 923.344 1554.31 Q923.752 1553.91 924.567 1553.91 Q925.518 1553.91 925.858 1554.31 Q926.265 1554.72 926.537 1556.28 Q928.643 1565.86 933.127 1570.96 Q937.678 1575.99 945.898 1575.99 Q953.711 1575.99 957.651 1572.52 Q961.591 1569.06 961.591 1563.35 Q961.591 1553.16 947.121 1550.58 Q938.765 1548.88 935.3 1547.79 Q931.836 1546.64 928.779 1544.12 Q922.8 1539.23 922.8 1532.3 Q922.8 1525.37 928.031 1520.28 Q933.33 1515.18 945.015 1515.18 Q952.827 1515.18 958.126 1519.12 Q959.689 1517.9 960.504 1516.88 Q962.338 1515.18 963.289 1515.18 Q964.376 1515.18 964.58 1515.93 Q964.784 1516.61 964.784 1518.58 L964.784 1532.58 Q964.784 1534.14 964.716 1534.68 Q964.648 1535.22 964.24 1535.63 Q963.833 1535.97 962.95 1535.97 Q961.387 1535.97 961.319 1534.68 Q960.232 1517.83 945.015 1517.83 Q936.795 1517.83 933.127 1521.03 Q929.458 1524.15 929.458 1528.43 Q929.458 1530.81 930.545 1532.64 Q931.7 1534.41 933.127 1535.5 Q934.621 1536.52 937.338 1537.53 Q940.056 1538.49 941.686 1538.83 Q943.385 1539.16 946.577 1539.84 Q957.719 1541.95 962.406 1546.5 Q968.249 1552.34 968.249 1559.75 Q968.249 1567.97 962.678 1573.54 Q957.107 1579.11 945.898 1579.11 Q936.863 1579.11 930.545 1573.06 Q929.73 1573.88 929.118 1574.63 Q928.507 1575.31 928.235 1575.58 Q928.031 1575.85 927.963 1576.05 Q927.896 1576.19 927.76 1576.33 Q924.974 1579.11 924.295 1579.11 Q923.208 1579.11 923.004 1578.36 Q922.8 1577.68 922.8 1575.71 Z" fill="#000000" fill-rule="nonzero" fill-opacity="1" /><path clip-path="url(#clip200)" d="M977.42 1521.91 L977.42 1517.56 L997.868 1516.07 L997.868 1562.26 Q997.868 1565.59 998.14 1567.56 Q998.411 1569.46 999.498 1571.71 Q1000.65 1573.95 1003.23 1574.97 Q1005.88 1575.99 1010.1 1575.99 Q1017.64 1575.99 1022.26 1569.8 Q1026.94 1563.62 1026.94 1554.45 L1026.94 1529.65 Q1026.94 1524.49 1025.11 1523.2 Q1023.28 1521.91 1016.07 1521.91 L1016.07 1517.56 L1036.52 1516.07 L1036.52 1565.46 Q1036.52 1570.62 1038.29 1571.98 Q1040.12 1573.27 1047.39 1573.27 L1047.39 1577.55 L1027.35 1579.11 L1027.35 1566.54 Q1021.51 1579.04 1009.42 1579.11 Q1003.3 1579.11 999.091 1577.55 Q994.947 1575.99 992.841 1574.08 Q990.735 1572.11 989.58 1568.38 Q988.493 1564.64 988.357 1562.33 Q988.221 1560.02 988.221 1555.54 L988.221 1534.68 Q988.221 1525.24 986.862 1523.61 Q985.504 1521.91 977.42 1521.91 Z" fill="#000000" fill-rule="nonzero" fill-opacity="1" /><path clip-path="url(#clip200)" d="M1053.98 1486.86 L1053.98 1482.51 L1074.02 1481.01 L1074.02 1525.1 Q1082.11 1516.07 1093.11 1516.07 Q1105.07 1516.07 1113.83 1525.24 Q1122.6 1534.41 1122.6 1547.52 Q1122.6 1560.77 1113.42 1569.94 Q1104.25 1579.11 1091.55 1579.11 Q1080 1579.11 1073.34 1568.92 Q1068.45 1577.41 1068.32 1577.55 L1064.85 1577.55 L1064.85 1494.6 Q1064.85 1489.44 1063.02 1488.15 Q1061.18 1486.86 1053.98 1486.86 M1074.43 1561.72 Q1074.43 1564.64 1076.4 1567.56 Q1081.9 1575.99 1090.87 1575.99 Q1090.94 1575.99 1091.01 1575.99 Q1100.72 1575.99 1106.77 1567.09 Q1111.05 1560.43 1111.05 1547.39 Q1111.05 1534.48 1107.04 1528.02 Q1101.47 1519.12 1092.43 1519.12 Q1082.24 1519.12 1075.99 1528.02 Q1074.43 1530.27 1074.43 1533.05 L1074.43 1561.72 Z" fill="#000000" fill-rule="nonzero" fill-opacity="1" /><path clip-path="url(#clip200)" d="M1128.64 1551.66 L1128.64 1543.44 L1165.67 1543.44 L1165.67 1551.66 L1128.64 1551.66 Z" fill="#000000" fill-rule="nonzero" fill-opacity="1" /><path clip-path="url(#clip200)" d="M1178.17 1577.55 L1178.17 1573.27 Q1185.57 1573.27 1187.27 1572.38 Q1188.97 1571.43 1188.97 1566.95 L1188.97 1529.52 Q1188.97 1524.36 1187.2 1523.13 Q1185.5 1521.91 1178.71 1521.91 L1178.71 1517.56 L1198.14 1516.07 L1198.14 1567.09 Q1198.14 1571.23 1199.63 1572.25 Q1201.13 1573.27 1207.92 1573.27 L1207.92 1577.55 Q1193.72 1577.14 1193.45 1577.14 Q1191.55 1577.14 1178.17 1577.55 M1184.01 1491.81 Q1184.01 1489.03 1186.11 1486.79 Q1188.29 1484.48 1191.34 1484.48 Q1194.4 1484.48 1196.58 1486.58 Q1198.75 1488.62 1198.75 1491.88 Q1198.75 1495.08 1196.58 1497.18 Q1194.4 1499.22 1191.34 1499.22 Q1188.15 1499.22 1186.05 1496.98 Q1184.01 1494.74 1184.01 1491.81 Z" fill="#000000" fill-rule="nonzero" fill-opacity="1" /><path clip-path="url(#clip200)" d="M1214.71 1521.91 L1214.71 1518.85 Q1221.1 1518.58 1225.31 1514.1 Q1229.59 1509.55 1231.02 1503.98 Q1232.51 1498.4 1232.65 1491.95 L1236.11 1491.95 L1236.11 1517.56 L1256.02 1517.56 L1256.02 1521.91 L1236.11 1521.91 L1236.11 1560.56 Q1236.11 1575.58 1245.49 1575.58 Q1249.5 1575.58 1252.15 1571.5 Q1254.8 1567.36 1254.8 1560.02 L1254.8 1552.34 L1258.26 1552.34 L1258.26 1560.29 Q1258.26 1567.83 1254.8 1573.47 Q1251.33 1579.11 1244.47 1579.11 Q1241.96 1579.11 1239.44 1578.43 Q1237 1577.82 1233.74 1576.19 Q1230.54 1574.49 1228.5 1570.41 Q1226.53 1566.27 1226.53 1560.29 L1226.53 1521.91 L1214.71 1521.91 Z" fill="#000000" fill-rule="nonzero" fill-opacity="1" /><path clip-path="url(#clip200)" d="M1269.88 1546.91 Q1269.88 1533.8 1278.3 1524.49 Q1286.72 1515.18 1298.82 1515.18 Q1311.04 1515.18 1317.36 1523.13 Q1323.75 1531.08 1323.75 1542.49 Q1323.75 1544.6 1323.2 1545.01 Q1322.66 1545.41 1320.28 1545.41 L1281.43 1545.41 Q1281.43 1559.61 1285.64 1566.27 Q1291.48 1575.58 1301.33 1575.58 Q1302.69 1575.58 1304.32 1575.31 Q1305.95 1575.03 1309.28 1573.88 Q1312.61 1572.66 1315.53 1569.46 Q1318.45 1566.27 1320.15 1561.24 Q1320.56 1559.27 1321.91 1559.34 Q1323.75 1559.34 1323.75 1560.97 Q1323.75 1562.19 1322.39 1564.98 Q1321.1 1567.7 1318.59 1570.96 Q1316.07 1574.22 1311.18 1576.66 Q1306.36 1579.11 1300.51 1579.11 Q1288.29 1579.11 1279.05 1569.87 Q1269.88 1560.56 1269.88 1546.91 M1281.56 1542.49 L1314.58 1542.49 Q1314.58 1539.57 1314.03 1536.31 Q1313.56 1533.05 1312.06 1528.57 Q1310.64 1524.02 1307.24 1521.16 Q1303.84 1518.31 1298.82 1518.31 Q1296.57 1518.31 1294.13 1519.26 Q1291.75 1520.21 1288.83 1522.52 Q1285.91 1524.83 1283.87 1530.06 Q1281.83 1535.29 1281.56 1542.49 Z" fill="#000000" fill-rule="nonzero" fill-opacity="1" /><path clip-path="url(#clip200)" d="M1331.63 1577.55 L1331.63 1573.27 Q1339.03 1573.27 1340.73 1572.38 Q1342.5 1571.43 1342.5 1566.95 L1342.5 1529.65 Q1342.5 1524.49 1340.66 1523.2 Q1338.9 1521.91 1331.63 1521.91 L1331.63 1517.56 L1350.99 1516.07 L1350.99 1531.35 Q1352.96 1525.37 1357.1 1520.75 Q1361.32 1516.07 1368.11 1516.07 Q1372.59 1516.07 1375.45 1518.58 Q1378.37 1521.09 1378.37 1524.56 Q1378.37 1527.62 1376.47 1529.18 Q1374.63 1530.67 1372.39 1530.67 Q1369.88 1530.67 1368.11 1529.11 Q1366.41 1527.48 1366.41 1524.7 Q1366.41 1523 1367.16 1521.71 Q1367.97 1520.35 1368.58 1519.87 Q1369.2 1519.4 1369.6 1519.26 Q1369.33 1519.12 1368.11 1519.12 Q1360.43 1519.12 1356.02 1526.8 Q1351.67 1534.41 1351.67 1545.28 L1351.67 1566.68 Q1351.67 1570.69 1353.3 1571.98 Q1355 1573.27 1362.27 1573.27 L1365.19 1573.27 L1365.19 1577.55 Q1359.62 1577.14 1347.53 1577.14 Q1345.83 1577.14 1343.18 1577.21 Q1340.53 1577.28 1337.06 1577.41 Q1333.6 1577.55 1331.63 1577.55 Z" fill="#000000" fill-rule="nonzero" fill-opacity="1" /><path clip-path="url(#clip200)" d="M1387.95 1564.3 Q1387.95 1552.48 1401.87 1546.23 Q1410.23 1542.22 1427.48 1541.2 L1427.48 1536.11 Q1427.48 1527.48 1422.93 1522.93 Q1418.45 1518.31 1412.74 1518.31 Q1402.55 1518.31 1397.66 1524.7 Q1401.8 1524.83 1403.3 1526.94 Q1404.79 1528.97 1404.79 1531.08 Q1404.79 1533.87 1403.03 1535.7 Q1401.33 1537.47 1398.41 1537.47 Q1395.62 1537.47 1393.79 1535.77 Q1391.95 1534 1391.95 1530.94 Q1391.95 1524.15 1398.07 1519.67 Q1404.25 1515.18 1413.01 1515.18 Q1424.43 1515.18 1432.04 1522.86 Q1434.41 1525.24 1435.57 1528.3 Q1436.79 1531.35 1436.93 1533.39 Q1437.06 1535.36 1437.06 1539.3 L1437.06 1567.09 Q1437.06 1567.9 1437.33 1569.26 Q1437.61 1570.62 1438.83 1572.38 Q1440.12 1574.08 1442.23 1574.08 Q1447.25 1574.08 1447.18 1565.18 L1447.18 1557.37 L1450.72 1557.37 L1450.72 1565.18 Q1450.72 1572.59 1446.78 1575.51 Q1442.91 1578.36 1439.3 1578.36 Q1434.68 1578.36 1431.76 1574.97 Q1428.84 1571.57 1428.44 1566.95 Q1426.33 1572.25 1421.51 1575.71 Q1416.75 1579.11 1410.23 1579.11 Q1405.2 1579.11 1400.45 1577.82 Q1395.76 1576.6 1391.82 1573.13 Q1387.95 1569.6 1387.95 1564.3 M1398.68 1564.16 Q1398.68 1569.33 1402.35 1572.66 Q1406.02 1575.99 1411.18 1575.99 Q1417.02 1575.99 1422.25 1571.5 Q1427.48 1566.95 1427.48 1558.05 L1427.48 1544.12 Q1412.06 1544.67 1405.34 1550.85 Q1398.68 1556.96 1398.68 1564.16 Z" fill="#000000" fill-rule="nonzero" fill-opacity="1" /><path clip-path="url(#clip200)" d="M1454.32 1521.91 L1454.32 1518.85 Q1460.7 1518.58 1464.92 1514.1 Q1469.2 1509.55 1470.62 1503.98 Q1472.12 1498.4 1472.25 1491.95 L1475.72 1491.95 L1475.72 1517.56 L1495.62 1517.56 L1495.62 1521.91 L1475.72 1521.91 L1475.72 1560.56 Q1475.72 1575.58 1485.09 1575.58 Q1489.1 1575.58 1491.75 1571.5 Q1494.4 1567.36 1494.4 1560.02 L1494.4 1552.34 L1497.86 1552.34 L1497.86 1560.29 Q1497.86 1567.83 1494.4 1573.47 Q1490.93 1579.11 1484.07 1579.11 Q1481.56 1579.11 1479.05 1578.43 Q1476.6 1577.82 1473.34 1576.19 Q1470.15 1574.49 1468.11 1570.41 Q1466.14 1566.27 1466.14 1560.29 L1466.14 1521.91 L1454.32 1521.91 Z" fill="#000000" fill-rule="nonzero" fill-opacity="1" /><path clip-path="url(#clip200)" d="M1510.23 1577.55 L1510.23 1573.27 Q1517.63 1573.27 1519.33 1572.38 Q1521.03 1571.43 1521.03 1566.95 L1521.03 1529.52 Q1521.03 1524.36 1519.26 1523.13 Q1517.56 1521.91 1510.77 1521.91 L1510.77 1517.56 L1530.2 1516.07 L1530.2 1567.09 Q1530.2 1571.23 1531.7 1572.25 Q1533.19 1573.27 1539.98 1573.27 L1539.98 1577.55 Q1525.78 1577.14 1525.51 1577.14 Q1523.61 1577.14 1510.23 1577.55 M1516.07 1491.81 Q1516.07 1489.03 1518.18 1486.79 Q1520.35 1484.48 1523.41 1484.48 Q1526.46 1484.48 1528.64 1486.58 Q1530.81 1488.62 1530.81 1491.88 Q1530.81 1495.08 1528.64 1497.18 Q1526.46 1499.22 1523.41 1499.22 Q1520.21 1499.22 1518.11 1496.98 Q1516.07 1494.74 1516.07 1491.81 Z" fill="#000000" fill-rule="nonzero" fill-opacity="1" /><path clip-path="url(#clip200)" d="M1557.17 1570.08 Q1548 1560.97 1548 1547.79 Q1548 1534.55 1556.97 1524.9 Q1566 1515.18 1578.91 1515.18 Q1591.55 1515.18 1600.58 1524.83 Q1609.68 1534.41 1609.68 1547.79 Q1609.68 1560.9 1600.51 1570.01 Q1591.41 1579.11 1578.77 1579.11 Q1566.41 1579.11 1557.17 1570.08 M1559.55 1546.64 Q1559.55 1560.16 1563.08 1566.27 Q1568.52 1575.58 1578.91 1575.58 Q1584.07 1575.58 1588.35 1572.79 Q1592.7 1570.01 1595.08 1565.32 Q1598.13 1559.21 1598.13 1546.64 Q1598.13 1533.25 1594.47 1527.34 Q1589.03 1518.31 1578.77 1518.31 Q1574.29 1518.31 1569.87 1520.69 Q1565.53 1523 1562.88 1527.62 Q1559.55 1533.73 1559.55 1546.64 Z" fill="#000000" fill-rule="nonzero" fill-opacity="1" /><path clip-path="url(#clip200)" d="M1618.18 1577.55 L1618.18 1573.27 Q1625.58 1573.27 1627.28 1572.38 Q1628.98 1571.43 1628.98 1566.95 L1628.98 1529.65 Q1628.98 1524.49 1627.14 1523.2 Q1625.38 1521.91 1618.18 1521.91 L1618.18 1517.56 L1637.74 1516.07 L1637.74 1530.67 Q1644.26 1516.07 1658.32 1516.07 Q1668.79 1516.07 1672.93 1521.23 Q1675.99 1524.7 1676.6 1528.57 Q1677.28 1532.44 1677.28 1542.49 L1677.28 1569.06 Q1677.41 1571.98 1679.66 1572.66 Q1681.9 1573.27 1688.15 1573.27 L1688.15 1577.55 Q1673.95 1577.14 1672.52 1577.14 Q1671.44 1577.14 1656.83 1577.55 L1656.83 1573.27 Q1664.23 1573.27 1665.93 1572.38 Q1667.7 1571.43 1667.7 1566.95 L1667.7 1534.55 Q1667.7 1527.48 1665.53 1523.34 Q1663.35 1519.12 1657.37 1519.12 Q1650.17 1519.12 1644.4 1525.17 Q1638.62 1531.22 1638.62 1541.41 L1638.62 1566.95 Q1638.62 1571.43 1640.32 1572.38 Q1642.09 1573.27 1649.43 1573.27 L1649.43 1577.55 Q1635.23 1577.14 1633.87 1577.14 Q1632.78 1577.14 1618.18 1577.55 Z" fill="#000000" fill-rule="nonzero" fill-opacity="1" /><path clip-path="url(#clip200)" d="M1695.48 1575.71 L1695.48 1557.37 Q1695.48 1555.81 1695.55 1555.27 Q1695.62 1554.72 1696.03 1554.31 Q1696.44 1553.91 1697.25 1553.91 Q1698.2 1553.91 1698.54 1554.31 Q1698.95 1554.72 1699.22 1556.28 Q1701.33 1565.86 1705.81 1570.96 Q1710.36 1575.99 1718.58 1575.99 Q1726.39 1575.99 1730.33 1572.52 Q1734.27 1569.06 1734.27 1563.35 Q1734.27 1553.16 1719.8 1550.58 Q1711.45 1548.88 1707.98 1547.79 Q1704.52 1546.64 1701.46 1544.12 Q1695.48 1539.23 1695.48 1532.3 Q1695.48 1525.37 1700.72 1520.28 Q1706.01 1515.18 1717.7 1515.18 Q1725.51 1515.18 1730.81 1519.12 Q1732.37 1517.9 1733.19 1516.88 Q1735.02 1515.18 1735.97 1515.18 Q1737.06 1515.18 1737.26 1515.93 Q1737.47 1516.61 1737.47 1518.58 L1737.47 1532.58 Q1737.47 1534.14 1737.4 1534.68 Q1737.33 1535.22 1736.92 1535.63 Q1736.52 1535.97 1735.63 1535.97 Q1734.07 1535.97 1734 1534.68 Q1732.92 1517.83 1717.7 1517.83 Q1709.48 1517.83 1705.81 1521.03 Q1702.14 1524.15 1702.14 1528.43 Q1702.14 1530.81 1703.23 1532.64 Q1704.38 1534.41 1705.81 1535.5 Q1707.31 1536.52 1710.02 1537.53 Q1712.74 1538.49 1714.37 1538.83 Q1716.07 1539.16 1719.26 1539.84 Q1730.4 1541.95 1735.09 1546.5 Q1740.93 1552.34 1740.93 1559.75 Q1740.93 1567.97 1735.36 1573.54 Q1729.79 1579.11 1718.58 1579.11 Q1709.55 1579.11 1703.23 1573.06 Q1702.41 1573.88 1701.8 1574.63 Q1701.19 1575.31 1700.92 1575.58 Q1700.72 1575.85 1700.65 1576.05 Q1700.58 1576.19 1700.44 1576.33 Q1697.66 1579.11 1696.98 1579.11 Q1695.89 1579.11 1695.69 1578.36 Q1695.48 1577.68 1695.48 1575.71 Z" fill="#000000" fill-rule="nonzero" fill-opacity="1" /><polyline clip-path="url(#clip202)" style="stroke:#000000; stroke-linecap:round; stroke-linejoin:round; stroke-width:2; stroke-opacity:0.1; fill:none" points="310.977,1054.01 2352.76,1054.01 "/>
<polyline clip-path="url(#clip202)" style="stroke:#000000; stroke-linecap:round; stroke-linejoin:round; stroke-width:2; stroke-opacity:0.1; fill:none" points="310.977,699.824 2352.76,699.824 "/>
<polyline clip-path="url(#clip202)" style="stroke:#000000; stroke-linecap:round; stroke-linejoin:round; stroke-width:2; stroke-opacity:0.1; fill:none" points="310.977,345.636 2352.76,345.636 "/>
<polyline clip-path="url(#clip200)" style="stroke:#000000; stroke-linecap:round; stroke-linejoin:round; stroke-width:4; stroke-opacity:1; fill:none" points="310.977,1375.66 310.977,201.232 "/>
<polyline clip-path="url(#clip200)" style="stroke:#000000; stroke-linecap:round; stroke-linejoin:round; stroke-width:4; stroke-opacity:1; fill:none" points="310.977,1054.01 329.875,1054.01 "/>
<polyline clip-path="url(#clip200)" style="stroke:#000000; stroke-linecap:round; stroke-linejoin:round; stroke-width:4; stroke-opacity:1; fill:none" points="310.977,699.824 329.875,699.824 "/>
<polyline clip-path="url(#clip200)" style="stroke:#000000; stroke-linecap:round; stroke-linejoin:round; stroke-width:4; stroke-opacity:1; fill:none" points="310.977,345.636 329.875,345.636 "/>
<path clip-path="url(#clip200)" d="M161.78 1048.86 L161.78 1047.28 Q167.857 1047.28 170.995 1044.04 Q171.859 1044.04 172.007 1044.24 Q172.156 1044.44 172.156 1045.35 L172.156 1073.74 Q172.156 1075.25 172.897 1075.71 Q173.638 1076.18 176.874 1076.18 L178.48 1076.18 L178.48 1077.74 Q176.701 1077.59 170.278 1077.59 Q163.855 1077.59 162.101 1077.74 L162.101 1076.18 L163.707 1076.18 Q166.894 1076.18 167.66 1075.74 Q168.425 1075.27 168.425 1073.74 L168.425 1047.53 Q165.782 1048.86 161.78 1048.86 Z" fill="#000000" fill-rule="nonzero" fill-opacity="1" /><path clip-path="url(#clip200)" d="M184.557 1061.56 Q184.557 1054.12 186.434 1050.07 Q189.053 1044.04 195.229 1044.04 Q196.538 1044.04 197.896 1044.42 Q199.28 1044.76 201.009 1046.12 Q202.763 1047.48 203.825 1049.7 Q205.851 1054 205.851 1061.56 Q205.851 1068.95 203.973 1072.97 Q201.231 1078.85 195.179 1078.85 Q192.906 1078.85 190.584 1077.69 Q188.287 1076.53 186.829 1073.74 Q184.557 1069.56 184.557 1061.56 M188.756 1060.94 Q188.756 1068.58 189.3 1071.61 Q189.917 1074.9 191.597 1076.33 Q193.302 1077.74 195.179 1077.74 Q197.205 1077.74 198.885 1076.23 Q200.589 1074.7 201.108 1071.42 Q201.676 1068.18 201.651 1060.94 Q201.651 1053.9 201.157 1051.09 Q200.49 1047.8 198.712 1046.49 Q196.958 1045.16 195.179 1045.16 Q194.512 1045.16 193.796 1045.35 Q193.104 1045.55 192.091 1046.12 Q191.078 1046.69 190.288 1048.1 Q189.522 1049.5 189.151 1051.63 Q188.756 1054.37 188.756 1060.94 Z" fill="#000000" fill-rule="nonzero" fill-opacity="1" /><path clip-path="url(#clip200)" d="M232.988 1039.47 Q233.228 1039.71 233.228 1040.05 Q233.228 1040.39 232.988 1040.64 Q232.747 1040.88 232.406 1040.88 L206.674 1040.88 Q206.333 1040.88 206.092 1040.64 Q205.851 1040.39 205.851 1040.05 Q205.851 1039.71 206.092 1039.47 Q206.333 1039.23 206.674 1039.23 L232.406 1039.23 Q232.747 1039.23 232.988 1039.47 Z" fill="#000000" fill-rule="nonzero" fill-opacity="1" /><path clip-path="url(#clip200)" d="M239.17 1026.87 L239.17 1025.58 Q244.107 1025.58 246.656 1022.95 Q247.359 1022.95 247.479 1023.11 Q247.6 1023.27 247.6 1024.02 L247.6 1047.08 Q247.6 1048.3 248.202 1048.68 Q248.804 1049.07 251.433 1049.07 L252.738 1049.07 L252.738 1050.33 Q251.293 1050.21 246.074 1050.21 Q240.856 1050.21 239.431 1050.33 L239.431 1049.07 L240.735 1049.07 Q243.324 1049.07 243.947 1048.7 Q244.569 1048.32 244.569 1047.08 L244.569 1025.78 Q242.421 1026.87 239.17 1026.87 Z" fill="#000000" fill-rule="nonzero" fill-opacity="1" /><path clip-path="url(#clip200)" d="M257.676 1037.18 Q257.676 1031.14 259.201 1027.85 Q261.329 1022.95 266.346 1022.95 Q267.41 1022.95 268.514 1023.25 Q269.638 1023.53 271.043 1024.64 Q272.468 1025.74 273.331 1027.55 Q274.977 1031.04 274.977 1037.18 Q274.977 1043.18 273.452 1046.46 Q271.224 1051.23 266.306 1051.23 Q264.46 1051.23 262.573 1050.29 Q260.706 1049.35 259.522 1047.08 Q257.676 1043.69 257.676 1037.18 M261.088 1036.68 Q261.088 1042.88 261.529 1045.35 Q262.031 1048.02 263.396 1049.19 Q264.781 1050.33 266.306 1050.33 Q267.952 1050.33 269.317 1049.11 Q270.702 1047.86 271.123 1045.19 Q271.585 1042.56 271.565 1036.68 Q271.565 1030.96 271.164 1028.67 Q270.622 1026 269.176 1024.94 Q267.751 1023.86 266.306 1023.86 Q265.764 1023.86 265.182 1024.02 Q264.62 1024.18 263.797 1024.64 Q262.974 1025.1 262.332 1026.24 Q261.71 1027.39 261.409 1029.11 Q261.088 1031.34 261.088 1036.68 Z" fill="#000000" fill-rule="nonzero" fill-opacity="1" /><path clip-path="url(#clip200)" d="M182.775 694.674 L182.775 693.093 Q188.852 693.093 191.989 689.857 Q192.854 689.857 193.002 690.054 Q193.15 690.252 193.15 691.166 L193.15 719.55 Q193.15 721.057 193.891 721.526 Q194.633 721.996 197.869 721.996 L199.474 721.996 L199.474 723.552 Q197.696 723.404 191.273 723.404 Q184.85 723.404 183.096 723.552 L183.096 721.996 L184.702 721.996 Q187.889 721.996 188.654 721.551 Q189.42 721.082 189.42 719.55 L189.42 693.34 Q186.777 694.674 182.775 694.674 Z" fill="#000000" fill-rule="nonzero" fill-opacity="1" /><path clip-path="url(#clip200)" d="M205.551 707.371 Q205.551 699.936 207.429 695.884 Q210.047 689.857 216.223 689.857 Q217.533 689.857 218.891 690.227 Q220.275 690.573 222.004 691.932 Q223.758 693.29 224.82 695.514 Q226.846 699.812 226.846 707.371 Q226.846 714.758 224.968 718.784 Q222.226 724.664 216.174 724.664 Q213.901 724.664 211.579 723.503 Q209.282 722.342 207.824 719.55 Q205.551 715.375 205.551 707.371 M209.751 706.754 Q209.751 714.387 210.294 717.426 Q210.912 720.711 212.592 722.144 Q214.296 723.552 216.174 723.552 Q218.2 723.552 219.879 722.045 Q221.584 720.514 222.103 717.228 Q222.671 713.992 222.646 706.754 Q222.646 699.713 222.152 696.897 Q221.485 693.612 219.706 692.302 Q217.953 690.968 216.174 690.968 Q215.507 690.968 214.79 691.166 Q214.099 691.364 213.086 691.932 Q212.073 692.5 211.283 693.908 Q210.517 695.316 210.146 697.441 Q209.751 700.183 209.751 706.754 Z" fill="#000000" fill-rule="nonzero" fill-opacity="1" /><path clip-path="url(#clip200)" d="M253.982 685.283 Q254.223 685.524 254.223 685.865 Q254.223 686.206 253.982 686.447 Q253.742 686.688 253.4 686.688 L227.669 686.688 Q227.327 686.688 227.087 686.447 Q226.846 686.206 226.846 685.865 Q226.846 685.524 227.087 685.283 Q227.327 685.042 227.669 685.042 L253.4 685.042 Q253.742 685.042 253.982 685.283 Z" fill="#000000" fill-rule="nonzero" fill-opacity="1" /><path clip-path="url(#clip200)" d="M258.559 689.518 Q258.559 688.294 259.221 687.832 Q259.883 687.35 260.586 687.35 Q261.529 687.35 262.071 687.952 Q262.633 688.535 262.633 689.357 Q262.633 690.18 262.071 690.783 Q261.529 691.365 260.586 691.365 Q260.124 691.365 259.883 691.284 Q260.425 693.171 262.071 694.536 Q263.737 695.901 265.925 695.901 Q268.675 695.901 270.321 693.231 Q271.304 691.505 271.304 687.591 Q271.304 684.139 270.561 682.413 Q269.417 679.783 267.069 679.783 Q263.737 679.783 261.77 682.654 Q261.529 683.015 261.248 683.035 Q260.847 683.035 260.746 682.814 Q260.666 682.573 260.666 681.951 L260.666 669.788 Q260.666 668.804 261.068 668.804 Q261.228 668.804 261.569 668.925 Q264.159 670.069 267.029 670.089 Q269.979 670.089 272.629 668.885 Q272.829 668.764 272.95 668.764 Q273.351 668.764 273.371 669.226 Q273.371 669.386 273.03 669.868 Q272.709 670.33 272.007 670.952 Q271.304 671.554 270.401 672.136 Q269.498 672.718 268.173 673.12 Q266.868 673.501 265.423 673.501 Q263.697 673.501 261.931 672.959 L261.931 680.968 Q264.058 678.88 267.149 678.88 Q270.441 678.88 272.709 681.53 Q274.977 684.179 274.977 687.872 Q274.977 691.746 272.288 694.395 Q269.618 697.045 266.005 697.045 Q262.713 697.045 260.626 694.696 Q258.559 692.348 258.559 689.518 Z" fill="#000000" fill-rule="nonzero" fill-opacity="1" /><path clip-path="url(#clip200)" d="M213.605 340.486 L213.605 338.905 Q219.682 338.905 222.819 335.668 Q223.684 335.668 223.832 335.866 Q223.98 336.064 223.98 336.978 L223.98 365.362 Q223.98 366.869 224.721 367.338 Q225.462 367.807 228.698 367.807 L230.304 367.807 L230.304 369.364 Q228.526 369.216 222.103 369.216 Q215.68 369.216 213.926 369.364 L213.926 367.807 L215.532 367.807 Q218.718 367.807 219.484 367.363 Q220.25 366.893 220.25 365.362 L220.25 339.152 Q217.607 340.486 213.605 340.486 Z" fill="#000000" fill-rule="nonzero" fill-opacity="1" /><path clip-path="url(#clip200)" d="M236.381 353.183 Q236.381 345.747 238.259 341.696 Q240.877 335.668 247.053 335.668 Q248.362 335.668 249.721 336.039 Q251.104 336.385 252.834 337.743 Q254.588 339.102 255.65 341.325 Q257.676 345.624 257.676 353.183 Q257.676 360.569 255.798 364.596 Q253.056 370.475 247.004 370.475 Q244.731 370.475 242.409 369.314 Q240.111 368.153 238.654 365.362 Q236.381 361.187 236.381 353.183 M240.581 352.566 Q240.581 360.199 241.124 363.237 Q241.742 366.523 243.422 367.956 Q245.126 369.364 247.004 369.364 Q249.029 369.364 250.709 367.857 Q252.414 366.325 252.932 363.04 Q253.501 359.804 253.476 352.566 Q253.476 345.525 252.982 342.709 Q252.315 339.423 250.536 338.114 Q248.782 336.78 247.004 336.78 Q246.337 336.78 245.62 336.978 Q244.929 337.175 243.916 337.743 Q242.903 338.312 242.112 339.72 Q241.347 341.128 240.976 343.252 Q240.581 345.994 240.581 352.566 Z" fill="#000000" fill-rule="nonzero" fill-opacity="1" /><path clip-path="url(#clip200)" d="M257.676 328.807 Q257.676 322.765 259.201 319.473 Q261.329 314.576 266.346 314.576 Q267.41 314.576 268.514 314.877 Q269.638 315.158 271.043 316.262 Q272.468 317.366 273.331 319.172 Q274.977 322.665 274.977 328.807 Q274.977 334.808 273.452 338.08 Q271.224 342.857 266.306 342.857 Q264.46 342.857 262.573 341.913 Q260.706 340.97 259.522 338.702 Q257.676 335.31 257.676 328.807 M261.088 328.305 Q261.088 334.507 261.529 336.976 Q262.031 339.645 263.396 340.809 Q264.781 341.953 266.306 341.953 Q267.952 341.953 269.317 340.729 Q270.702 339.485 271.123 336.815 Q271.585 334.186 271.565 328.305 Q271.565 322.584 271.164 320.296 Q270.622 317.627 269.176 316.563 Q267.751 315.479 266.306 315.479 Q265.764 315.479 265.182 315.64 Q264.62 315.8 263.797 316.262 Q262.974 316.724 262.332 317.868 Q261.71 319.012 261.409 320.738 Q261.088 322.966 261.088 328.305 Z" fill="#000000" fill-rule="nonzero" fill-opacity="1" /><path clip-path="url(#clip200)" d="M67.3771 1042.69 Q54.1299 1042.69 44.9588 1033.45 Q35.7877 1024.21 35.7877 1011.71 Q35.7877 1001.11 44.4153 994.185 L14.3205 994.185 Q9.15745 994.185 7.8667 996.019 Q6.57595 997.785 6.57595 1004.99 L2.22816 1004.99 L0.733604 984.946 L85.1759 984.946 Q90.3389 984.946 91.6975 983.179 Q92.9883 981.345 92.9883 974.144 L97.2682 974.144 L98.8306 994.592 L89.5916 994.592 Q98.7627 1001.79 98.8306 1013.21 Q98.8306 1025.16 89.6595 1033.93 Q80.4884 1042.69 67.3771 1042.69 M67.513 1031.14 Q80.4205 1031.14 86.8063 1027.13 Q95.7057 1021.56 95.7057 1012.53 Q95.7057 1002.2 85.9911 996.087 Q83.6134 994.524 80.8281 994.592 L52.2957 994.592 Q49.5104 994.592 47.2006 996.087 Q38.8447 1001.79 38.8447 1011.1 Q38.8447 1020.82 47.7441 1026.86 Q54.4017 1031.14 67.513 1031.14 Z" fill="#000000" fill-rule="nonzero" fill-opacity="1" /><path clip-path="url(#clip200)" d="M97.2682 965.652 L92.9883 965.652 Q92.9883 958.248 92.1052 956.549 Q91.1541 954.851 86.6704 954.851 L49.2387 954.851 Q44.0756 954.851 42.8528 956.617 Q41.63 958.316 41.63 965.109 L37.2822 965.109 L35.7877 945.68 L86.8063 945.68 Q90.9503 945.68 91.9693 944.185 Q92.9883 942.691 92.9883 935.897 L97.2682 935.897 Q96.8606 950.096 96.8606 950.367 Q96.8606 952.269 97.2682 965.652 M11.5351 959.81 Q8.74984 959.81 6.50801 957.704 Q4.19825 955.53 4.19825 952.473 Q4.19825 949.416 6.30421 947.242 Q8.34224 945.068 11.6031 945.068 Q14.796 945.068 16.902 947.242 Q18.94 949.416 18.94 952.473 Q18.94 955.666 16.6982 957.772 Q14.4563 959.81 11.5351 959.81 Z" fill="#000000" fill-rule="nonzero" fill-opacity="1" /><path clip-path="url(#clip200)" d="M41.63 927.134 L37.2822 927.134 L37.2822 916.196 L21.3177 916.196 Q10.9917 916.196 5.0814 909.539 Q-0.828883 902.813 -0.828883 894.593 Q-0.828883 889.158 2.09229 885.626 Q5.01346 882.093 8.95365 882.093 Q11.6031 882.093 13.3694 883.724 Q15.0677 885.286 15.0677 888.207 Q15.0677 890.993 13.3014 892.623 Q11.5351 894.186 9.08952 894.186 Q4.60586 894.186 3.24717 890.042 Q2.29609 892.148 2.22816 894.593 Q2.22816 899.62 7.39116 903.561 Q12.5542 907.433 21.1818 907.433 L37.2822 907.433 L37.2822 891.129 L41.63 891.129 L41.63 906.957 L86.3987 906.957 Q90.4068 906.957 91.6975 905.327 Q92.9883 903.628 92.9883 896.427 L92.9883 893.506 L97.2682 893.506 Q96.8606 899.077 96.8606 911.169 Q96.8606 912.868 96.9285 915.517 Q96.9964 918.098 97.1323 921.631 Q97.2682 925.096 97.2682 926.998 L92.9883 926.998 Q92.9883 919.593 92.1052 917.895 Q91.1541 916.196 86.6704 916.196 L41.63 916.196 L41.63 927.134 Z" fill="#000000" fill-rule="nonzero" fill-opacity="1" /><path clip-path="url(#clip200)" d="M41.63 884.743 L37.2822 884.743 L37.2822 873.805 L21.3177 873.805 Q10.9917 873.805 5.0814 867.148 Q-0.828883 860.422 -0.828883 852.202 Q-0.828883 846.768 2.09229 843.235 Q5.01346 839.702 8.95365 839.702 Q11.6031 839.702 13.3694 841.333 Q15.0677 842.895 15.0677 845.816 Q15.0677 848.602 13.3014 850.232 Q11.5351 851.795 9.08952 851.795 Q4.60586 851.795 3.24717 847.651 Q2.29609 849.757 2.22816 852.202 Q2.22816 857.229 7.39116 861.17 Q12.5542 865.042 21.1818 865.042 L37.2822 865.042 L37.2822 848.738 L41.63 848.738 L41.63 864.566 L86.3987 864.566 Q90.4068 864.566 91.6975 862.936 Q92.9883 861.238 92.9883 854.036 L92.9883 851.115 L97.2682 851.115 Q96.8606 856.686 96.8606 868.778 Q96.8606 870.477 96.9285 873.126 Q96.9964 875.708 97.1323 879.24 Q97.2682 882.705 97.2682 884.607 L92.9883 884.607 Q92.9883 877.202 92.1052 875.504 Q91.1541 873.805 86.6704 873.805 L41.63 873.805 L41.63 884.743 Z" fill="#000000" fill-rule="nonzero" fill-opacity="1" /><path clip-path="url(#clip200)" d="M97.2682 843.099 L92.9883 843.099 Q92.9883 835.694 92.1052 833.996 Q91.1541 832.23 86.6704 832.23 L49.3745 832.23 Q44.2115 832.23 42.9208 834.064 Q41.63 835.83 41.63 843.099 L37.2822 843.099 L35.7877 823.738 L51.0729 823.738 Q45.0947 821.768 40.4751 817.624 Q35.7877 813.412 35.7877 806.618 Q35.7877 802.135 38.3012 799.281 Q40.8148 796.36 44.2795 796.36 Q47.3365 796.36 48.899 798.262 Q50.3935 800.097 50.3935 802.339 Q50.3935 804.852 48.831 806.618 Q47.2006 808.317 44.4153 808.317 Q42.717 808.317 41.4262 807.569 Q40.0675 806.754 39.592 806.143 Q39.1164 805.531 38.9806 805.124 Q38.8447 805.396 38.8447 806.618 Q38.8447 814.295 46.5213 818.711 Q54.1299 823.058 64.9994 823.058 L86.3987 823.058 Q90.4068 823.058 91.6975 821.428 Q92.9883 819.73 92.9883 812.461 L92.9883 809.54 L97.2682 809.54 Q96.8606 815.11 96.8606 827.202 Q96.8606 828.901 96.9285 831.55 Q96.9964 834.2 97.1323 837.664 Q97.2682 841.129 97.2682 843.099 Z" fill="#000000" fill-rule="nonzero" fill-opacity="1" /><path clip-path="url(#clip200)" d="M66.6298 788.752 Q53.5185 788.752 44.2115 780.328 Q34.9045 771.904 34.9045 759.812 Q34.9045 747.584 42.8528 741.266 Q50.8011 734.88 62.2141 734.88 Q64.3201 734.88 64.7277 735.423 Q65.1353 735.967 65.1353 738.344 L65.1353 777.203 Q79.3335 777.203 85.9911 772.991 Q95.2981 767.149 95.2981 757.298 Q95.2981 755.939 95.0263 754.309 Q94.7546 752.679 93.5997 749.35 Q92.3769 746.021 89.184 743.1 Q85.9911 740.179 80.9639 738.48 Q78.9938 738.073 79.0618 736.714 Q79.0618 734.88 80.6922 734.88 Q81.915 734.88 84.7003 736.239 Q87.4177 737.529 90.6785 740.043 Q93.9394 742.556 96.385 747.448 Q98.8306 752.271 98.8306 758.113 Q98.8306 770.342 89.5916 779.581 Q80.2846 788.752 66.6298 788.752 M62.2141 777.067 L62.2141 744.051 Q59.2929 744.051 56.0321 744.594 Q52.7712 745.07 48.2876 746.565 Q43.736 747.991 40.8827 751.388 Q38.0295 754.785 38.0295 759.812 Q38.0295 762.054 38.9806 764.499 Q39.9317 766.877 42.2414 769.798 Q44.5512 772.719 49.7821 774.757 Q55.0131 776.795 62.2141 777.067 Z" fill="#000000" fill-rule="nonzero" fill-opacity="1" /><path clip-path="url(#clip200)" d="M97.2682 726.388 L92.9883 726.388 Q92.9883 718.983 92.1052 717.285 Q91.1541 715.587 86.6704 715.587 L49.3745 715.587 Q44.2115 715.587 42.9208 717.421 Q41.63 719.187 41.63 726.388 L37.2822 726.388 L35.7877 706.823 L50.3935 706.823 Q35.7877 700.301 35.7877 686.239 Q35.7877 675.777 40.9507 671.633 Q44.4153 668.576 48.2876 667.965 Q52.1598 667.285 62.2141 667.285 L88.7764 667.285 Q91.6975 667.149 92.3769 664.908 Q92.9883 662.666 92.9883 656.416 L97.2682 656.416 Q96.8606 670.614 96.8606 672.041 Q96.8606 673.128 97.2682 687.733 L92.9883 687.733 Q92.9883 680.329 92.1052 678.63 Q91.1541 676.864 86.6704 676.864 L54.2658 676.864 Q47.2006 676.864 43.0566 679.038 Q38.8447 681.212 38.8447 687.19 Q38.8447 694.391 44.8909 700.165 Q50.937 705.94 61.1271 705.94 L86.6704 705.94 Q91.1541 705.94 92.1052 704.241 Q92.9883 702.475 92.9883 695.138 L97.2682 695.138 Q96.8606 709.337 96.8606 710.695 Q96.8606 711.782 97.2682 726.388 Z" fill="#000000" fill-rule="nonzero" fill-opacity="1" /><path clip-path="url(#clip200)" d="M89.6595 640.112 Q80.4205 648.943 67.2412 648.943 Q53.994 648.943 44.4833 640.247 Q34.9045 631.552 34.9045 618.78 Q34.9045 610.288 38.9806 603.903 Q42.9887 597.517 49.8501 597.517 Q52.9071 597.517 54.6734 599.351 Q56.3717 601.117 56.3717 603.903 Q56.3717 606.824 54.6055 608.59 Q52.7712 610.288 49.9859 610.288 Q48.7631 610.288 47.5403 609.881 Q46.3175 609.473 45.0267 607.979 Q43.736 606.416 43.5322 603.767 Q38.4371 608.726 38.4371 618.373 Q38.4371 618.508 38.4371 618.644 Q38.4371 625.71 45.0947 631.552 Q51.7522 637.394 66.9695 637.394 Q74.9178 637.394 80.7601 635.492 Q86.5345 633.522 89.5237 630.329 Q92.5128 627.136 93.9394 624.011 Q95.2981 620.886 95.2981 617.829 Q95.2981 604.174 80.6922 599.555 Q79.3335 599.147 79.3335 597.789 Q79.3335 595.954 80.6922 595.954 Q81.3715 595.954 83.1378 596.498 Q84.9041 597.041 87.6894 598.74 Q90.4747 600.438 92.9204 602.884 Q95.2981 605.261 97.0644 609.541 Q98.8306 613.753 98.8306 619.052 Q98.8306 631.28 89.6595 640.112 Z" fill="#000000" fill-rule="nonzero" fill-opacity="1" /><path clip-path="url(#clip200)" d="M66.6298 588.074 Q53.5185 588.074 44.2115 579.65 Q34.9045 571.226 34.9045 559.134 Q34.9045 546.906 42.8528 540.588 Q50.8011 534.202 62.2141 534.202 Q64.3201 534.202 64.7277 534.746 Q65.1353 535.289 65.1353 537.667 L65.1353 576.525 Q79.3335 576.525 85.9911 572.313 Q95.2981 566.471 95.2981 556.62 Q95.2981 555.262 95.0263 553.631 Q94.7546 552.001 93.5997 548.672 Q92.3769 545.343 89.184 542.422 Q85.9911 539.501 80.9639 537.803 Q78.9938 537.395 79.0618 536.036 Q79.0618 534.202 80.6922 534.202 Q81.915 534.202 84.7003 535.561 Q87.4177 536.852 90.6785 539.365 Q93.9394 541.879 96.385 546.77 Q98.8306 551.593 98.8306 557.436 Q98.8306 569.664 89.5916 578.903 Q80.2846 588.074 66.6298 588.074 M62.2141 576.389 L62.2141 543.373 Q59.2929 543.373 56.0321 543.917 Q52.7712 544.392 48.2876 545.887 Q43.736 547.313 40.8827 550.71 Q38.0295 554.107 38.0295 559.134 Q38.0295 561.376 38.9806 563.821 Q39.9317 566.199 42.2414 569.12 Q44.5512 572.041 49.7821 574.079 Q55.0131 576.118 62.2141 576.389 Z" fill="#000000" fill-rule="nonzero" fill-opacity="1" /><path clip-path="url(#clip200)" d="M890.269 165.888 L890.269 159.663 L895.111 159.663 Q906.079 159.663 908.55 157.884 Q911.119 156.007 911.119 150.078 L911.119 43.4582 Q911.119 37.6282 908.55 35.8495 Q905.981 33.9721 895.111 33.9721 L890.269 33.9721 L890.269 27.648 L964.281 27.648 Q983.549 27.648 996.395 38.0234 Q1009.24 48.3 1009.24 61.8374 Q1009.24 73.0034 999.755 81.8966 Q990.367 90.7898 975.644 93.6554 Q992.442 95.434 1003.51 105.612 Q1014.68 115.691 1014.68 128.833 Q1014.68 143.655 1001.93 154.821 Q989.182 165.888 969.616 165.888 L890.269 165.888 M927.917 151.56 Q927.917 156.797 929.399 158.279 Q930.882 159.663 937.799 159.663 L963.095 159.663 Q977.62 159.663 986.019 150.177 Q994.419 140.592 994.419 128.635 Q994.419 116.679 987.008 106.501 Q979.695 96.2245 965.96 96.2245 L927.917 96.2245 L927.917 151.56 M927.917 91.7779 L957.265 91.7779 Q972.877 91.7779 981.178 82.3906 Q989.577 73.0034 989.577 61.8374 Q989.577 51.9561 982.857 42.9641 Q976.237 33.9721 962.897 33.9721 L937.799 33.9721 Q930.882 33.9721 929.399 35.3554 Q927.917 36.7388 927.917 42.0748 L927.917 91.7779 Z" fill="#000000" fill-rule="nonzero" fill-opacity="1" /><path clip-path="url(#clip200)" d="M1031.77 121.323 Q1031.77 102.252 1044.02 88.7147 Q1056.28 75.1773 1073.86 75.1773 Q1091.65 75.1773 1100.84 86.7384 Q1110.13 98.2996 1110.13 114.9 Q1110.13 117.963 1109.34 118.556 Q1108.55 119.149 1105.09 119.149 L1048.57 119.149 Q1048.57 139.801 1054.69 149.485 Q1063.19 163.022 1077.52 163.022 Q1079.5 163.022 1081.87 162.627 Q1084.24 162.232 1089.08 160.552 Q1093.92 158.773 1098.17 154.129 Q1102.42 149.485 1104.89 142.173 Q1105.48 139.307 1107.46 139.406 Q1110.13 139.406 1110.13 141.778 Q1110.13 143.556 1108.15 147.608 Q1106.28 151.56 1102.62 156.303 Q1098.96 161.046 1091.85 164.603 Q1084.83 168.161 1076.33 168.161 Q1058.55 168.161 1045.11 154.722 Q1031.77 141.185 1031.77 121.323 M1048.77 114.9 L1096.79 114.9 Q1096.79 110.651 1096 105.908 Q1095.31 101.165 1093.13 94.6435 Q1091.06 88.023 1086.12 83.8728 Q1081.18 79.7227 1073.86 79.7227 Q1070.6 79.7227 1067.05 81.1061 Q1063.59 82.4895 1059.34 85.8491 Q1055.09 89.2088 1052.13 96.8174 Q1049.16 104.426 1048.77 114.9 Z" fill="#000000" fill-rule="nonzero" fill-opacity="1" /><path clip-path="url(#clip200)" d="M1122.48 165.888 L1122.48 159.663 Q1133.25 159.663 1135.72 158.378 Q1138.19 156.995 1138.19 150.473 L1138.19 45.2368 Q1138.19 37.727 1135.52 35.8495 Q1132.96 33.9721 1122.48 33.9721 L1122.48 27.648 L1151.53 25.4741 L1151.53 95.8293 L1151.73 95.8293 Q1154.99 88.5171 1162.3 82.4895 Q1169.61 76.4618 1180.88 76.4618 Q1196.1 76.4618 1202.12 83.9717 Q1206.57 89.0111 1207.46 94.6435 Q1208.45 100.276 1208.45 114.9 L1208.45 153.536 Q1208.65 157.785 1211.91 158.773 Q1215.17 159.663 1224.26 159.663 L1224.26 165.888 Q1203.61 165.295 1201.53 165.295 Q1199.95 165.295 1178.71 165.888 L1178.71 159.663 Q1189.48 159.663 1191.95 158.378 Q1194.52 156.995 1194.52 150.473 L1194.52 103.339 Q1194.52 93.0625 1191.35 87.0349 Q1188.19 80.9084 1179.5 80.9084 Q1169.02 80.9084 1160.62 89.7028 Q1152.22 98.4972 1152.22 113.319 L1152.22 150.473 Q1152.22 156.995 1154.69 158.378 Q1157.26 159.663 1167.94 159.663 L1167.94 165.888 Q1147.28 165.295 1145.31 165.295 Q1143.73 165.295 1122.48 165.888 Z" fill="#000000" fill-rule="nonzero" fill-opacity="1" /><path clip-path="url(#clip200)" d="M1236.71 146.619 Q1236.71 129.426 1256.97 120.335 Q1269.12 114.505 1294.22 113.023 L1294.22 105.612 Q1294.22 93.0625 1287.6 86.442 Q1281.08 79.7227 1272.78 79.7227 Q1257.95 79.7227 1250.84 89.0111 Q1256.87 89.2088 1259.04 92.272 Q1261.21 95.2364 1261.21 98.2996 Q1261.21 102.351 1258.65 105.019 Q1256.18 107.588 1251.93 107.588 Q1247.88 107.588 1245.21 105.118 Q1242.54 102.549 1242.54 98.102 Q1242.54 88.2206 1251.43 81.699 Q1260.42 75.1773 1273.17 75.1773 Q1289.77 75.1773 1300.84 86.3432 Q1304.3 89.8017 1305.98 94.2483 Q1307.76 98.6949 1307.95 101.659 Q1308.15 104.525 1308.15 110.256 L1308.15 150.671 Q1308.15 151.856 1308.55 153.833 Q1308.94 155.809 1310.72 158.378 Q1312.6 160.849 1315.66 160.849 Q1322.97 160.849 1322.87 147.904 L1322.87 136.54 L1328.01 136.54 L1328.01 147.904 Q1328.01 158.675 1322.28 162.924 Q1316.65 167.074 1311.41 167.074 Q1304.69 167.074 1300.44 162.133 Q1296.19 157.192 1295.6 150.473 Q1292.54 158.181 1285.52 163.22 Q1278.61 168.161 1269.12 168.161 Q1261.81 168.161 1254.89 166.283 Q1248.07 164.505 1242.34 159.465 Q1236.71 154.327 1236.71 146.619 M1252.32 146.422 Q1252.32 153.932 1257.66 158.773 Q1262.99 163.615 1270.5 163.615 Q1279 163.615 1286.61 157.094 Q1294.22 150.473 1294.22 137.529 L1294.22 117.272 Q1271.79 118.062 1262.01 127.054 Q1252.32 135.948 1252.32 146.422 Z" fill="#000000" fill-rule="nonzero" fill-opacity="1" /><path clip-path="url(#clip200)" d="M1327.62 84.9598 L1327.62 78.6357 Q1336.71 79.2286 1347.28 79.2286 Q1351.14 79.2286 1369.32 78.6357 L1369.32 84.9598 Q1357.76 84.9598 1357.76 90.1969 Q1357.76 90.9874 1358.94 93.6554 L1381.67 150.078 L1402.32 98.4972 Q1403.51 95.0388 1403.51 93.6554 Q1403.51 90.1969 1401.13 87.7266 Q1398.86 85.1574 1393.82 84.9598 L1393.82 78.6357 Q1404.1 79.2286 1411.41 79.2286 Q1419.71 79.2286 1426.53 78.6357 L1426.53 84.9598 Q1420.5 84.9598 1416.25 87.7266 Q1412 90.3945 1410.62 92.7661 Q1409.34 95.0388 1407.95 98.4972 L1381.47 164.307 Q1379.89 168.161 1377.22 168.161 Q1375.44 168.161 1374.65 167.37 Q1373.96 166.679 1372.97 164.307 L1343.82 92.4696 Q1341.85 87.4301 1339.28 86.2444 Q1336.71 84.9598 1327.62 84.9598 Z" fill="#000000" fill-rule="nonzero" fill-opacity="1" /><path clip-path="url(#clip200)" d="M1437.1 165.888 L1437.1 159.663 Q1447.87 159.663 1450.34 158.378 Q1452.81 156.995 1452.81 150.473 L1452.81 96.0269 Q1452.81 88.5171 1450.25 86.7384 Q1447.77 84.9598 1437.89 84.9598 L1437.89 78.6357 L1466.15 76.4618 L1466.15 150.671 Q1466.15 156.698 1468.33 158.181 Q1470.5 159.663 1480.38 159.663 L1480.38 165.888 Q1459.73 165.295 1459.34 165.295 Q1456.57 165.295 1437.1 165.888 M1445.6 41.1854 Q1445.6 37.1341 1448.66 33.8732 Q1451.83 30.5136 1456.27 30.5136 Q1460.72 30.5136 1463.88 33.5768 Q1467.04 36.5412 1467.04 41.2843 Q1467.04 45.9285 1463.88 48.9917 Q1460.72 51.9561 1456.27 51.9561 Q1451.63 51.9561 1448.57 48.6953 Q1445.6 45.4344 1445.6 41.1854 Z" fill="#000000" fill-rule="nonzero" fill-opacity="1" /><path clip-path="url(#clip200)" d="M1505.38 155.019 Q1492.04 141.778 1492.04 122.608 Q1492.04 103.339 1505.09 89.3076 Q1518.23 75.1773 1537 75.1773 Q1555.38 75.1773 1568.52 89.2088 Q1581.77 103.141 1581.77 122.608 Q1581.77 141.679 1568.43 154.92 Q1555.18 168.161 1536.81 168.161 Q1518.82 168.161 1505.38 155.019 M1508.84 120.928 Q1508.84 140.592 1513.98 149.485 Q1521.88 163.022 1537 163.022 Q1544.51 163.022 1550.74 158.971 Q1557.06 154.92 1560.52 148.102 Q1564.97 139.208 1564.97 120.928 Q1564.97 101.462 1559.63 92.8649 Q1551.73 79.7227 1536.81 79.7227 Q1530.28 79.7227 1523.86 83.1812 Q1517.54 86.5408 1513.68 93.2601 Q1508.84 102.153 1508.84 120.928 Z" fill="#000000" fill-rule="nonzero" fill-opacity="1" /><path clip-path="url(#clip200)" d="M1594.12 84.9598 L1594.12 78.6357 L1623.86 76.4618 L1623.86 143.655 Q1623.86 148.497 1624.26 151.362 Q1624.65 154.129 1626.23 157.39 Q1627.91 160.651 1631.67 162.133 Q1635.52 163.615 1641.65 163.615 Q1652.61 163.615 1659.33 154.623 Q1666.15 145.631 1666.15 132.291 L1666.15 96.2245 Q1666.15 88.7147 1663.48 86.8372 Q1660.82 84.9598 1650.34 84.9598 L1650.34 78.6357 L1680.09 76.4618 L1680.09 148.299 Q1680.09 155.809 1682.65 157.785 Q1685.32 159.663 1695.9 159.663 L1695.9 165.888 L1666.75 168.161 L1666.75 149.88 Q1658.25 168.062 1640.66 168.161 Q1631.77 168.161 1625.64 165.888 Q1619.61 163.615 1616.55 160.849 Q1613.48 157.983 1611.8 152.548 Q1610.22 147.113 1610.03 143.754 Q1609.83 140.394 1609.83 133.872 L1609.83 103.537 Q1609.83 89.8017 1607.85 87.4301 Q1605.88 84.9598 1594.12 84.9598 Z" fill="#000000" fill-rule="nonzero" fill-opacity="1" /><path clip-path="url(#clip200)" d="M1705.48 165.888 L1705.48 159.663 Q1716.25 159.663 1718.72 158.378 Q1721.29 156.995 1721.29 150.473 L1721.29 96.2245 Q1721.29 88.7147 1718.62 86.8372 Q1716.05 84.9598 1705.48 84.9598 L1705.48 78.6357 L1733.64 76.4618 L1733.64 98.6949 Q1736.51 89.9993 1742.54 83.28 Q1748.66 76.4618 1758.54 76.4618 Q1765.06 76.4618 1769.21 80.1179 Q1773.46 83.774 1773.46 88.8135 Q1773.46 93.2601 1770.7 95.5328 Q1768.03 97.7067 1764.77 97.7067 Q1761.11 97.7067 1758.54 95.434 Q1756.07 93.0625 1756.07 89.0111 Q1756.07 86.5408 1757.16 84.6634 Q1758.35 82.6871 1759.23 81.9954 Q1760.12 81.3037 1760.72 81.1061 Q1760.32 80.9084 1758.54 80.9084 Q1747.38 80.9084 1740.95 92.0744 Q1734.63 103.141 1734.63 118.952 L1734.63 150.078 Q1734.63 155.908 1737 157.785 Q1739.47 159.663 1750.04 159.663 L1754.29 159.663 L1754.29 165.888 Q1746.19 165.295 1728.6 165.295 Q1726.13 165.295 1722.28 165.394 Q1718.42 165.493 1713.39 165.69 Q1708.35 165.888 1705.48 165.888 Z" fill="#000000" fill-rule="nonzero" fill-opacity="1" /><polyline clip-path="url(#clip202)" style="stroke:#009af9; stroke-linecap:round; stroke-linejoin:round; stroke-width:4; stroke-opacity:1; fill:none" points="368.763,234.471 399.831,796.69 430.899,1159.02 461.967,1332.58 493.035,1332.12 524.103,1331.8 555.17,1333.47 586.238,1334.13 617.306,1336.89 648.374,1335.41 679.442,1340.03 710.51,1338.53 741.577,1337.41 772.645,1337.62 803.713,1337.84 834.781,1338.08 865.849,1339.51 896.917,1339.99 927.985,1339.46 959.052,1338.16 990.12,1337.45 1021.19,1338.32 1052.26,1339.35 1083.32,1338.6 1114.39,1339.98 1145.46,1339.75 1176.53,1338.77 1207.6,1337.72 1238.66,1335.52 1269.73,1336.41 1300.8,1337.38 1331.87,1338.23 1362.93,1336.67 1394,1338.15 1425.07,1337.38 1456.14,1337.17 1487.21,1337.29 1518.27,1337.96 1549.34,1336.46 1580.41,1340.23 1611.48,1338.76 1642.54,1340.29 1673.61,1337 1704.68,1338.34 1735.75,1336.95 1766.82,1336.5 1797.88,1339.34 1828.95,1338.67 1860.02,1340.24 1891.09,1340.55 1922.16,1337.8 1953.22,1334.94 1984.29,1334.83 2015.36,1342.42 2046.43,1339.6 2077.49,1339.05 2108.56,1338.27 2139.63,1337.44 2170.7,1335.16 2201.77,1337.56 2232.83,1340.15 2263.9,1339.23 2294.97,1338.58 "/>
<path clip-path="url(#clip200)" d="M1564.85 401.655 L2284.7 401.655 L2284.7 240.38 L1564.85 240.38  Z" fill="#ffffff" fill-rule="evenodd" fill-opacity="1"/>
<polyline clip-path="url(#clip200)" style="stroke:#000000; stroke-linecap:round; stroke-linejoin:round; stroke-width:4; stroke-opacity:1; fill:none" points="1564.85,401.655 2284.7,401.655 2284.7,240.38 1564.85,240.38 1564.85,401.655 "/>
<polyline clip-path="url(#clip200)" style="stroke:#009af9; stroke-linecap:round; stroke-linejoin:round; stroke-width:4; stroke-opacity:1; fill:none" points="1587.54,321.017 1723.66,321.017 "/>
<path clip-path="url(#clip200)" d="M1746.34 346.082 L1746.34 301.415 Q1746.34 299.635 1747.3 299.635 Q1748.26 299.635 1748.26 301.064 L1748.26 345.73 Q1748.26 347.51 1747.3 347.51 Q1746.34 347.51 1746.34 346.082 Z" fill="#000000" fill-rule="nonzero" fill-opacity="1" /><path clip-path="url(#clip200)" d="M1791.29 322.987 Q1791.29 325.353 1790.07 327.718 Q1788.86 330.084 1786.87 331.911 Q1784.87 333.715 1782.16 334.886 Q1779.44 336.057 1776.61 336.151 L1774.78 343.294 Q1774.43 345.028 1774.24 345.215 Q1774.05 345.402 1773.77 345.402 Q1773.19 345.402 1773.19 344.864 Q1773.19 344.7 1774.24 340.648 L1775.37 336.151 Q1771.1 335.916 1768.62 333.457 Q1766.14 330.998 1766.14 327.461 Q1766.14 325.072 1767.35 322.706 Q1768.6 320.317 1770.59 318.513 Q1772.6 316.71 1775.32 315.562 Q1778.04 314.414 1780.82 314.321 L1783.61 303.242 Q1783.75 302.61 1783.87 302.446 Q1783.98 302.282 1784.34 302.282 Q1784.59 302.282 1784.73 302.399 Q1784.87 302.516 1784.87 302.633 L1784.9 302.75 L1784.76 303.429 L1782.06 314.321 Q1784.45 314.485 1786.3 315.328 Q1788.15 316.171 1789.21 317.436 Q1790.26 318.677 1790.78 320.083 Q1791.29 321.488 1791.29 322.987 M1780.54 315.375 Q1777.97 315.609 1775.79 316.874 Q1773.61 318.139 1772.2 320.012 Q1770.8 321.863 1770.03 324.088 Q1769.25 326.29 1769.25 328.468 Q1769.25 330.178 1769.81 331.489 Q1770.4 332.801 1771.36 333.551 Q1772.32 334.277 1773.37 334.675 Q1774.45 335.05 1775.6 335.097 L1780.54 315.375 M1788.15 321.98 Q1788.15 318.935 1786.4 317.225 Q1784.64 315.515 1781.78 315.375 L1776.84 335.097 Q1778.93 334.933 1780.75 334.066 Q1782.6 333.176 1783.94 331.864 Q1785.27 330.529 1786.23 328.89 Q1787.19 327.227 1787.66 325.47 Q1788.15 323.69 1788.15 321.98 Z" fill="#000000" fill-rule="nonzero" fill-opacity="1" /><path clip-path="url(#clip200)" d="M1814.36 298.043 Q1814.36 298.174 1814.21 298.682 Q1814.07 299.191 1813.71 299.978 Q1813.36 300.765 1812.89 301.486 Q1812.41 302.191 1811.62 302.716 Q1810.85 303.224 1809.97 303.224 Q1808.79 303.224 1808 302.437 Q1807.21 301.65 1807.21 300.47 Q1807.21 299.814 1807.56 298.912 Q1809.74 293.092 1809.74 291.091 Q1809.74 288.747 1807.92 288.747 Q1807.02 288.747 1806.16 289.091 Q1805.33 289.419 1804.75 289.878 Q1804.18 290.337 1803.66 290.976 Q1803.15 291.6 1802.89 292.026 Q1802.64 292.436 1802.44 292.846 L1802.02 294.518 Q1801.92 294.977 1801.44 296.764 L1800.7 299.797 Q1800.18 302.06 1800.07 302.273 Q1799.9 302.732 1799.54 302.978 Q1799.18 303.224 1798.82 303.224 Q1798.41 303.224 1798.13 302.978 Q1797.85 302.732 1797.85 302.306 Q1797.85 302.24 1797.9 301.994 Q1797.95 301.748 1798.03 301.404 Q1798.11 301.06 1798.15 300.863 L1800.1 293.108 Q1800.46 291.698 1800.54 291.255 Q1800.64 290.796 1800.64 290.288 Q1800.64 288.747 1799.59 288.747 Q1798.74 288.747 1798.18 289.763 Q1797.62 290.78 1797.15 292.747 Q1797 293.288 1796.9 293.403 Q1796.82 293.518 1796.57 293.518 Q1796.16 293.501 1796.16 293.174 Q1796.16 293.092 1796.29 292.55 Q1796.43 292.009 1796.67 291.239 Q1796.93 290.452 1797.18 289.927 Q1797.39 289.534 1797.51 289.353 Q1797.64 289.157 1797.95 288.779 Q1798.28 288.386 1798.7 288.206 Q1799.15 288.009 1799.69 288.009 Q1800.9 288.009 1801.79 288.796 Q1802.67 289.566 1802.79 290.927 Q1804.97 288.009 1808.02 288.009 Q1809.82 288.009 1810.85 288.96 Q1811.89 289.911 1811.89 291.6 Q1811.89 291.993 1811.8 292.501 Q1811.74 292.993 1811.58 293.616 Q1811.43 294.239 1811.3 294.715 Q1811.17 295.19 1810.9 295.961 Q1810.64 296.715 1810.53 297.043 Q1810.41 297.371 1810.13 298.141 Q1809.87 298.896 1809.84 298.978 Q1809.23 300.502 1809.23 301.371 Q1809.23 301.945 1809.41 302.208 Q1809.61 302.47 1810.03 302.47 Q1811.18 302.47 1812.03 301.339 Q1812.9 300.191 1813.46 298.322 Q1813.59 297.912 1813.66 297.813 Q1813.74 297.715 1813.97 297.715 Q1814.36 297.715 1814.36 298.043 Z" fill="#000000" fill-rule="nonzero" fill-opacity="1" /><path clip-path="url(#clip200)" d="M1826.18 294.862 Q1825.41 294.862 1825.41 294.452 Q1825.41 294.042 1826.22 294.042 Q1826.32 294.042 1826.48 294.059 Q1826.66 294.075 1826.69 294.075 L1836.15 294.075 L1836.15 284.582 Q1836.15 284.549 1836.14 284.402 Q1836.12 284.238 1836.12 284.139 Q1836.12 283.336 1836.51 283.336 Q1836.92 283.336 1836.92 284.139 L1836.92 294.075 L1846.4 294.075 Q1846.43 294.075 1846.6 294.059 Q1846.76 294.042 1846.86 294.042 Q1847.63 294.042 1847.63 294.452 Q1847.65 294.862 1846.83 294.862 Q1846.73 294.862 1846.58 294.846 Q1846.43 294.829 1846.4 294.829 L1836.92 294.829 L1836.92 304.798 Q1836.92 305.569 1836.51 305.569 Q1836.12 305.569 1836.12 304.765 Q1836.12 304.667 1836.14 304.503 Q1836.15 304.355 1836.15 304.323 L1836.15 294.829 L1826.69 294.829 Q1826.66 294.829 1826.46 294.846 Q1826.28 294.862 1826.18 294.862 Z" fill="#000000" fill-rule="nonzero" fill-opacity="1" /><path clip-path="url(#clip200)" d="M1860.59 283.68 L1860.59 282.631 Q1864.62 282.631 1866.71 280.483 Q1867.28 280.483 1867.38 280.614 Q1867.48 280.746 1867.48 281.352 L1867.48 300.191 Q1867.48 301.191 1867.97 301.503 Q1868.46 301.814 1870.61 301.814 L1871.67 301.814 L1871.67 302.847 Q1870.49 302.749 1866.23 302.749 Q1861.97 302.749 1860.8 302.847 L1860.8 301.814 L1861.87 301.814 Q1863.98 301.814 1864.49 301.519 Q1865 301.207 1865 300.191 L1865 282.795 Q1863.25 283.68 1860.59 283.68 Z" fill="#000000" fill-rule="nonzero" fill-opacity="1" /><path clip-path="url(#clip200)" d="M1877.69 302.306 Q1877.21 301.765 1877.21 301.06 Q1877.21 300.355 1877.67 299.83 Q1878.15 299.289 1879 299.289 Q1880 299.289 1880.58 300.256 Q1881.15 301.207 1881.15 302.814 Q1881.15 304.552 1880.44 306.159 Q1879.74 307.782 1879.05 308.553 Q1878.36 309.323 1878.08 309.323 Q1877.76 309.323 1877.76 308.963 Q1877.76 308.831 1877.99 308.585 Q1880.4 305.995 1880.41 302.814 Q1880.41 302.306 1880.35 302.306 L1880.26 302.372 Q1879.69 302.847 1879 302.847 Q1878.17 302.847 1877.69 302.306 Z" fill="#000000" fill-rule="nonzero" fill-opacity="1" /><path clip-path="url(#clip200)" d="M1919.25 298.043 Q1919.25 298.174 1919.11 298.682 Q1918.96 299.191 1918.6 299.978 Q1918.25 300.765 1917.76 301.486 Q1917.29 302.191 1916.5 302.716 Q1915.73 303.224 1914.84 303.224 Q1913.66 303.224 1912.88 302.437 Q1912.09 301.65 1912.09 300.47 Q1912.09 299.83 1912.53 298.617 Q1914.61 293.075 1914.61 291.091 Q1914.61 288.747 1912.79 288.747 Q1911.76 288.747 1910.83 289.173 Q1909.89 289.599 1909.29 290.189 Q1908.68 290.78 1908.2 291.452 Q1907.73 292.124 1907.51 292.567 Q1907.32 293.01 1907.27 293.206 L1905.25 301.306 Q1905.09 301.994 1904.97 302.322 Q1904.86 302.65 1904.55 302.929 Q1904.24 303.224 1903.74 303.224 Q1903.33 303.224 1903.04 302.978 Q1902.76 302.732 1902.76 302.306 Q1902.76 302.24 1902.84 301.896 Q1902.92 301.552 1903.04 301.076 Q1903.15 300.601 1903.2 300.322 Q1903.79 298.092 1903.87 297.781 L1904.81 293.879 Q1905.32 291.944 1905.32 291.091 Q1905.32 288.747 1903.5 288.747 Q1902.6 288.747 1901.74 289.091 Q1900.91 289.419 1900.33 289.878 Q1899.76 290.337 1899.23 290.976 Q1898.73 291.6 1898.46 292.026 Q1898.22 292.436 1898.02 292.846 L1897.6 294.518 Q1897.5 294.977 1897.02 296.764 L1896.28 299.797 Q1895.76 302.06 1895.64 302.273 Q1895.48 302.732 1895.12 302.978 Q1894.76 303.224 1894.4 303.224 Q1893.99 303.224 1893.71 302.978 Q1893.43 302.732 1893.43 302.306 Q1893.43 302.24 1893.48 301.994 Q1893.53 301.748 1893.61 301.404 Q1893.69 301.06 1893.73 300.863 L1895.68 293.108 Q1896.04 291.698 1896.12 291.255 Q1896.22 290.796 1896.22 290.288 Q1896.22 288.747 1895.17 288.747 Q1894.32 288.747 1893.76 289.763 Q1893.2 290.78 1892.73 292.747 Q1892.58 293.288 1892.48 293.403 Q1892.4 293.518 1892.15 293.518 Q1891.74 293.501 1891.74 293.174 Q1891.74 293.092 1891.87 292.567 Q1892 292.042 1892.25 291.255 Q1892.51 290.452 1892.79 289.927 Q1892.96 289.583 1893.1 289.353 Q1893.25 289.124 1893.55 288.763 Q1893.84 288.402 1894.28 288.206 Q1894.73 288.009 1895.27 288.009 Q1896.46 288.009 1897.35 288.779 Q1898.25 289.55 1898.37 290.927 Q1900.55 288.009 1903.6 288.009 Q1905.32 288.009 1906.35 288.878 Q1907.32 289.714 1907.43 291.255 Q1909.7 288.009 1912.91 288.009 Q1914.76 288.009 1915.76 288.976 Q1916.76 289.927 1916.76 291.6 Q1916.76 292.468 1916.32 294.124 Q1915.88 295.764 1915.58 296.584 Q1915.29 297.404 1914.71 298.978 Q1914.11 300.486 1914.11 301.371 Q1914.11 301.945 1914.3 302.208 Q1914.5 302.47 1914.93 302.47 Q1915.58 302.47 1916.16 302.093 Q1916.73 301.699 1917.14 301.06 Q1917.57 300.404 1917.84 299.748 Q1918.12 299.076 1918.34 298.322 Q1918.47 297.912 1918.53 297.813 Q1918.61 297.715 1918.84 297.715 Q1919.25 297.715 1919.25 298.043 Z" fill="#000000" fill-rule="nonzero" fill-opacity="1" /><path clip-path="url(#clip200)" d="M1971.03 322.893 Q1971.31 323.174 1971.31 323.573 Q1971.31 323.971 1971.03 324.252 Q1970.74 324.533 1970.35 324.533 L1940.32 324.533 Q1939.92 324.533 1939.64 324.252 Q1939.36 323.971 1939.36 323.573 Q1939.36 323.174 1939.64 322.893 Q1939.92 322.612 1940.32 322.612 L1970.35 322.612 Q1970.74 322.612 1971.03 322.893 Z" fill="#000000" fill-rule="nonzero" fill-opacity="1" /><path clip-path="url(#clip200)" d="M2014.77 322.987 Q2014.77 325.353 2013.55 327.718 Q2012.33 330.084 2010.34 331.911 Q2008.35 333.715 2005.63 334.886 Q2002.91 336.057 2000.08 336.151 L1998.25 343.294 Q1997.9 345.028 1997.71 345.215 Q1997.53 345.402 1997.25 345.402 Q1996.66 345.402 1996.66 344.864 Q1996.66 344.7 1997.71 340.648 L1998.84 336.151 Q1994.58 335.916 1992.09 333.457 Q1989.61 330.998 1989.61 327.461 Q1989.61 325.072 1990.83 322.706 Q1992.07 320.317 1994.06 318.513 Q1996.07 316.71 1998.79 315.562 Q2001.51 314.414 2004.3 314.321 L2007.08 303.242 Q2007.22 302.61 2007.34 302.446 Q2007.46 302.282 2007.81 302.282 Q2008.07 302.282 2008.21 302.399 Q2008.35 302.516 2008.35 302.633 L2008.37 302.75 L2008.23 303.429 L2005.54 314.321 Q2007.93 314.485 2009.78 315.328 Q2011.63 316.171 2012.68 317.436 Q2013.73 318.677 2014.25 320.083 Q2014.77 321.488 2014.77 322.987 M2004.01 315.375 Q2001.44 315.609 1999.26 316.874 Q1997.08 318.139 1995.68 320.012 Q1994.27 321.863 1993.5 324.088 Q1992.72 326.29 1992.72 328.468 Q1992.72 330.178 1993.29 331.489 Q1993.87 332.801 1994.83 333.551 Q1995.79 334.277 1996.85 334.675 Q1997.92 335.05 1999.07 335.097 L2004.01 315.375 M2011.63 321.98 Q2011.63 318.935 2009.87 317.225 Q2008.11 315.515 2005.26 315.375 L2000.31 335.097 Q2002.4 334.933 2004.23 334.066 Q2006.08 333.176 2007.41 331.864 Q2008.75 330.529 2009.71 328.89 Q2010.67 327.227 2011.13 325.47 Q2011.63 323.69 2011.63 321.98 Z" fill="#000000" fill-rule="nonzero" fill-opacity="1" /><path clip-path="url(#clip200)" d="M2037.84 298.043 Q2037.84 298.174 2037.69 298.682 Q2037.54 299.191 2037.18 299.978 Q2036.84 300.765 2036.36 301.486 Q2035.88 302.191 2035.1 302.716 Q2034.33 303.224 2033.44 303.224 Q2032.26 303.224 2031.47 302.437 Q2030.69 301.65 2030.69 300.47 Q2030.69 299.814 2031.03 298.912 Q2033.21 293.092 2033.21 291.091 Q2033.21 288.747 2031.39 288.747 Q2030.49 288.747 2029.64 289.091 Q2028.8 289.419 2028.23 289.878 Q2027.65 290.337 2027.13 290.976 Q2026.62 291.6 2026.36 292.026 Q2026.11 292.436 2025.92 292.846 L2025.49 294.518 Q2025.39 294.977 2024.92 296.764 L2024.18 299.797 Q2023.65 302.06 2023.54 302.273 Q2023.37 302.732 2023.01 302.978 Q2022.65 303.224 2022.29 303.224 Q2021.88 303.224 2021.6 302.978 Q2021.32 302.732 2021.32 302.306 Q2021.32 302.24 2021.37 301.994 Q2021.42 301.748 2021.51 301.404 Q2021.59 301.06 2021.62 300.863 L2023.57 293.108 Q2023.93 291.698 2024.01 291.255 Q2024.11 290.796 2024.11 290.288 Q2024.11 288.747 2023.06 288.747 Q2022.21 288.747 2021.65 289.763 Q2021.1 290.78 2020.62 292.747 Q2020.47 293.288 2020.37 293.403 Q2020.29 293.518 2020.05 293.518 Q2019.64 293.501 2019.64 293.174 Q2019.64 293.092 2019.77 292.55 Q2019.9 292.009 2020.14 291.239 Q2020.41 290.452 2020.65 289.927 Q2020.87 289.534 2020.98 289.353 Q2021.11 289.157 2021.42 288.779 Q2021.75 288.386 2022.18 288.206 Q2022.62 288.009 2023.16 288.009 Q2024.37 288.009 2025.26 288.796 Q2026.15 289.566 2026.26 290.927 Q2028.44 288.009 2031.49 288.009 Q2033.29 288.009 2034.33 288.96 Q2035.36 289.911 2035.36 291.6 Q2035.36 291.993 2035.28 292.501 Q2035.21 292.993 2035.05 293.616 Q2034.9 294.239 2034.77 294.715 Q2034.64 295.19 2034.38 295.961 Q2034.11 296.715 2034 297.043 Q2033.88 297.371 2033.61 298.141 Q2033.34 298.896 2033.31 298.978 Q2032.7 300.502 2032.7 301.371 Q2032.7 301.945 2032.88 302.208 Q2033.08 302.47 2033.51 302.47 Q2034.65 302.47 2035.51 301.339 Q2036.38 300.191 2036.93 298.322 Q2037.06 297.912 2037.13 297.813 Q2037.21 297.715 2037.44 297.715 Q2037.84 297.715 2037.84 298.043 Z" fill="#000000" fill-rule="nonzero" fill-opacity="1" /><path clip-path="url(#clip200)" d="M2049.66 294.862 Q2048.89 294.862 2048.89 294.452 Q2048.89 294.042 2049.69 294.042 Q2049.79 294.042 2049.95 294.059 Q2050.13 294.075 2050.17 294.075 L2059.63 294.075 L2059.63 284.582 Q2059.63 284.549 2059.61 284.402 Q2059.59 284.238 2059.59 284.139 Q2059.59 283.336 2059.99 283.336 Q2060.4 283.336 2060.4 284.139 L2060.4 294.075 L2069.87 294.075 Q2069.91 294.075 2070.07 294.059 Q2070.23 294.042 2070.33 294.042 Q2071.1 294.042 2071.1 294.452 Q2071.12 294.862 2070.3 294.862 Q2070.2 294.862 2070.05 294.846 Q2069.91 294.829 2069.87 294.829 L2060.4 294.829 L2060.4 304.798 Q2060.4 305.569 2059.99 305.569 Q2059.59 305.569 2059.59 304.765 Q2059.59 304.667 2059.61 304.503 Q2059.63 304.355 2059.63 304.323 L2059.63 294.829 L2050.17 294.829 Q2050.13 294.829 2049.94 294.846 Q2049.76 294.862 2049.66 294.862 Z" fill="#000000" fill-rule="nonzero" fill-opacity="1" /><path clip-path="url(#clip200)" d="M2084.06 283.68 L2084.06 282.631 Q2088.1 282.631 2090.18 280.483 Q2090.75 280.483 2090.85 280.614 Q2090.95 280.746 2090.95 281.352 L2090.95 300.191 Q2090.95 301.191 2091.44 301.503 Q2091.93 301.814 2094.08 301.814 L2095.15 301.814 L2095.15 302.847 Q2093.97 302.749 2089.7 302.749 Q2085.44 302.749 2084.28 302.847 L2084.28 301.814 L2085.34 301.814 Q2087.46 301.814 2087.96 301.519 Q2088.47 301.207 2088.47 300.191 L2088.47 282.795 Q2086.72 283.68 2084.06 283.68 Z" fill="#000000" fill-rule="nonzero" fill-opacity="1" /><path clip-path="url(#clip200)" d="M2101.16 302.306 Q2100.69 301.765 2100.69 301.06 Q2100.69 300.355 2101.15 299.83 Q2101.62 299.289 2102.47 299.289 Q2103.47 299.289 2104.05 300.256 Q2104.62 301.207 2104.62 302.814 Q2104.62 304.552 2103.92 306.159 Q2103.21 307.782 2102.52 308.553 Q2101.84 309.323 2101.56 309.323 Q2101.23 309.323 2101.23 308.963 Q2101.23 308.831 2101.46 308.585 Q2103.87 305.995 2103.88 302.814 Q2103.88 302.306 2103.82 302.306 L2103.74 302.372 Q2103.16 302.847 2102.47 302.847 Q2101.64 302.847 2101.16 302.306 Z" fill="#000000" fill-rule="nonzero" fill-opacity="1" /><path clip-path="url(#clip200)" d="M2142.73 298.043 Q2142.73 298.174 2142.58 298.682 Q2142.43 299.191 2142.07 299.978 Q2141.73 300.765 2141.23 301.486 Q2140.76 302.191 2139.97 302.716 Q2139.2 303.224 2138.32 303.224 Q2137.14 303.224 2136.35 302.437 Q2135.56 301.65 2135.56 300.47 Q2135.56 299.83 2136 298.617 Q2138.09 293.075 2138.09 291.091 Q2138.09 288.747 2136.27 288.747 Q2135.23 288.747 2134.3 289.173 Q2133.36 289.599 2132.76 290.189 Q2132.15 290.78 2131.68 291.452 Q2131.2 292.124 2130.99 292.567 Q2130.79 293.01 2130.74 293.206 L2128.72 301.306 Q2128.56 301.994 2128.45 302.322 Q2128.33 302.65 2128.02 302.929 Q2127.71 303.224 2127.22 303.224 Q2126.81 303.224 2126.51 302.978 Q2126.23 302.732 2126.23 302.306 Q2126.23 302.24 2126.31 301.896 Q2126.4 301.552 2126.51 301.076 Q2126.63 300.601 2126.68 300.322 Q2127.27 298.092 2127.35 297.781 L2128.28 293.879 Q2128.79 291.944 2128.79 291.091 Q2128.79 288.747 2126.97 288.747 Q2126.07 288.747 2125.22 289.091 Q2124.38 289.419 2123.81 289.878 Q2123.23 290.337 2122.71 290.976 Q2122.2 291.6 2121.94 292.026 Q2121.69 292.436 2121.49 292.846 L2121.07 294.518 Q2120.97 294.977 2120.49 296.764 L2119.76 299.797 Q2119.23 302.06 2119.12 302.273 Q2118.95 302.732 2118.59 302.978 Q2118.23 303.224 2117.87 303.224 Q2117.46 303.224 2117.18 302.978 Q2116.9 302.732 2116.9 302.306 Q2116.9 302.24 2116.95 301.994 Q2117 301.748 2117.08 301.404 Q2117.17 301.06 2117.2 300.863 L2119.15 293.108 Q2119.51 291.698 2119.59 291.255 Q2119.69 290.796 2119.69 290.288 Q2119.69 288.747 2118.64 288.747 Q2117.79 288.747 2117.23 289.763 Q2116.67 290.78 2116.2 292.747 Q2116.05 293.288 2115.95 293.403 Q2115.87 293.518 2115.62 293.518 Q2115.21 293.501 2115.21 293.174 Q2115.21 293.092 2115.35 292.567 Q2115.48 292.042 2115.72 291.255 Q2115.99 290.452 2116.26 289.927 Q2116.43 289.583 2116.58 289.353 Q2116.72 289.124 2117.02 288.763 Q2117.31 288.402 2117.76 288.206 Q2118.2 288.009 2118.74 288.009 Q2119.94 288.009 2120.82 288.779 Q2121.72 289.55 2121.84 290.927 Q2124.02 288.009 2127.07 288.009 Q2128.79 288.009 2129.82 288.878 Q2130.79 289.714 2130.91 291.255 Q2133.17 288.009 2136.38 288.009 Q2138.23 288.009 2139.23 288.976 Q2140.23 289.927 2140.23 291.6 Q2140.23 292.468 2139.79 294.124 Q2139.35 295.764 2139.05 296.584 Q2138.76 297.404 2138.19 298.978 Q2137.58 300.486 2137.58 301.371 Q2137.58 301.945 2137.78 302.208 Q2137.97 302.47 2138.4 302.47 Q2139.05 302.47 2139.63 302.093 Q2140.2 301.699 2140.61 301.06 Q2141.04 300.404 2141.32 299.748 Q2141.6 299.076 2141.81 298.322 Q2141.94 297.912 2142.01 297.813 Q2142.09 297.715 2142.32 297.715 Q2142.73 297.715 2142.73 298.043 Z" fill="#000000" fill-rule="nonzero" fill-opacity="1" /><path clip-path="url(#clip200)" d="M2175.89 293.977 Q2176.08 294.174 2176.08 294.452 Q2176.08 294.731 2175.89 294.928 Q2175.69 295.125 2175.41 295.125 L2154.39 295.125 Q2154.11 295.125 2153.92 294.928 Q2153.72 294.731 2153.72 294.452 Q2153.72 294.174 2153.92 293.977 Q2154.11 293.78 2154.39 293.78 L2175.41 293.78 Q2175.69 293.78 2175.89 293.977 Z" fill="#000000" fill-rule="nonzero" fill-opacity="1" /><path clip-path="url(#clip200)" d="M2188.9 283.68 L2188.9 282.631 Q2192.93 282.631 2195.01 280.483 Q2195.58 280.483 2195.68 280.614 Q2195.78 280.746 2195.78 281.352 L2195.78 300.191 Q2195.78 301.191 2196.27 301.503 Q2196.77 301.814 2198.91 301.814 L2199.98 301.814 L2199.98 302.847 Q2198.8 302.749 2194.54 302.749 Q2190.27 302.749 2189.11 302.847 L2189.11 301.814 L2190.17 301.814 Q2192.29 301.814 2192.8 301.519 Q2193.31 301.207 2193.31 300.191 L2193.31 282.795 Q2191.55 283.68 2188.9 283.68 Z" fill="#000000" fill-rule="nonzero" fill-opacity="1" /><path clip-path="url(#clip200)" d="M2210.64 346.082 L2210.64 301.415 Q2210.64 299.635 2211.6 299.635 Q2212.56 299.635 2212.56 301.064 L2212.56 345.73 Q2212.56 347.51 2211.6 347.51 Q2210.64 347.51 2210.64 346.082 Z" fill="#000000" fill-rule="nonzero" fill-opacity="1" /><path clip-path="url(#clip200)" d="M2241.49 339.043 L2240.82 344.847 Q2240.77 345.372 2240.69 345.536 Q2240.61 345.684 2240.34 345.684 Q2239.95 345.684 2239.95 345.29 Q2239.95 345.126 2240.01 344.683 Q2240.11 343.782 2240.11 342.863 Q2240.11 341.831 2239.92 341.191 Q2239.74 340.535 2239.21 340.06 Q2238.69 339.584 2237.72 339.388 Q2236.75 339.174 2235.21 339.174 L2230.78 339.174 Q2229.7 339.174 2229.44 339.371 Q2229.19 339.568 2228.96 340.486 L2226.82 349.012 L2229.87 349.012 Q2232 349.012 2232.83 348.389 Q2233.67 347.766 2234.19 345.782 Q2234.28 345.47 2234.31 345.356 Q2234.36 345.224 2234.44 345.159 Q2234.54 345.077 2234.7 345.077 Q2234.85 345.077 2234.95 345.175 Q2235.05 345.257 2235.08 345.356 L2235.11 345.454 Q2235.11 345.618 2235.01 345.995 L2233.16 353.275 Q2233.03 353.767 2232.95 353.881 Q2232.88 353.98 2232.65 353.98 Q2232.49 353.98 2232.37 353.865 Q2232.26 353.75 2232.26 353.57 Q2232.29 353.373 2232.36 353.209 Q2232.59 352.209 2232.59 351.57 Q2232.59 351.16 2232.51 350.914 Q2232.42 350.668 2232.14 350.455 Q2231.87 350.242 2231.29 350.143 Q2230.72 350.045 2229.8 350.045 L2226.55 350.045 L2224.47 358.407 L2224.32 359.177 Q2224.32 359.522 2224.5 359.653 Q2224.7 359.784 2225.41 359.849 Q2226.46 359.931 2227.14 359.931 Q2228 359.931 2228.1 359.964 Q2228.29 360.063 2228.29 360.325 Q2228.29 360.62 2228.16 360.784 Q2228.03 360.932 2227.91 360.948 Q2227.8 360.964 2227.59 360.964 L2222.59 360.866 L2218.16 360.964 Q2217.65 360.964 2217.65 360.554 Q2217.65 360.243 2217.78 360.112 Q2217.91 359.964 2218.06 359.948 Q2218.21 359.931 2218.59 359.931 Q2219.41 359.931 2219.9 359.882 Q2220.39 359.833 2220.7 359.767 Q2221.03 359.685 2221.19 359.456 Q2221.37 359.226 2221.45 359.03 Q2221.54 358.816 2221.65 358.341 L2226.08 340.584 Q2226.24 339.978 2226.24 339.781 Q2226.24 339.568 2226.09 339.437 Q2225.96 339.306 2225.6 339.256 Q2225.24 339.191 2224.95 339.191 Q2224.67 339.174 2224.06 339.174 Q2223.67 339.174 2223.5 339.158 Q2223.36 339.142 2223.24 339.06 Q2223.13 338.978 2223.13 338.797 Q2223.13 338.338 2223.32 338.24 Q2223.54 338.125 2224.13 338.125 L2240.59 338.125 Q2241.24 338.125 2241.39 338.273 Q2241.56 338.404 2241.49 339.043 Z" fill="#000000" fill-rule="nonzero" fill-opacity="1" /><path clip-path="url(#clip200)" d="M2255.58 348.307 Q2255.58 349.176 2255.01 349.733 Q2254.45 350.291 2253.73 350.291 Q2253.1 350.291 2252.78 349.93 Q2252.45 349.569 2252.45 349.11 Q2252.45 348.454 2252.96 347.913 Q2253.46 347.372 2254.2 347.258 Q2253.66 346.864 2252.79 346.864 Q2251.37 346.864 2250.1 347.963 Q2249.55 348.471 2248.94 349.405 Q2248.33 350.324 2248.22 350.717 L2247.15 355.095 Q2247.05 355.587 2246.45 357.948 Q2245.86 360.292 2245.81 360.39 Q2245.64 360.85 2245.28 361.095 Q2244.92 361.341 2244.56 361.341 Q2244.15 361.341 2243.87 361.095 Q2243.59 360.85 2243.59 360.423 Q2243.59 360.358 2243.64 360.112 Q2243.69 359.866 2243.77 359.522 Q2243.86 359.177 2243.89 358.98 L2245.84 351.225 Q2246.2 349.815 2246.28 349.373 Q2246.38 348.913 2246.38 348.405 Q2246.38 347.52 2246.1 347.192 Q2245.82 346.864 2245.33 346.864 Q2244.48 346.864 2243.92 347.881 Q2243.36 348.897 2242.89 350.865 Q2242.74 351.406 2242.64 351.52 Q2242.56 351.635 2242.31 351.635 Q2241.9 351.619 2241.9 351.291 Q2241.9 351.209 2242.04 350.684 Q2242.17 350.143 2242.41 349.356 Q2242.68 348.553 2242.95 348.045 Q2243.12 347.7 2243.27 347.471 Q2243.41 347.241 2243.71 346.88 Q2244 346.52 2244.45 346.323 Q2244.89 346.126 2245.43 346.126 Q2246.61 346.126 2247.45 346.848 Q2248.3 347.569 2248.5 348.7 Q2248.91 348.11 2249.41 347.602 Q2249.92 347.077 2250.86 346.602 Q2251.79 346.126 2252.79 346.126 Q2254.04 346.126 2254.81 346.766 Q2255.58 347.389 2255.58 348.307 Z" fill="#000000" fill-rule="nonzero" fill-opacity="1" /></svg>
