<?xml version="1.0" encoding="utf-8"?>
<svg xmlns="http://www.w3.org/2000/svg" xmlns:xlink="http://www.w3.org/1999/xlink" width="600" height="400" viewBox="0 0 2400 1600">
<defs>
  <clipPath id="clip720">
    <rect x="0" y="0" width="2400" height="1600"/>
  </clipPath>
</defs>
<path clip-path="url(#clip720)" d="M0 1600 L2400 1600 L2400 0 L0 0  Z" fill="#ffffff" fill-rule="evenodd" fill-opacity="1"/>
<defs>
  <clipPath id="clip721">
    <rect x="480" y="0" width="1681" height="1600"/>
  </clipPath>
</defs>
<defs>
  <clipPath id="clip722">
    <rect x="2160" y="285" width="73" height="1040"/>
  </clipPath>
</defs>
<path clip-path="url(#clip720)" d="M276.876 1423.18 L2352.76 1423.18 L2352.76 123.472 L276.876 123.472  Z" fill="#ffffff" fill-rule="evenodd" fill-opacity="1"/>
<defs>
  <clipPath id="clip723">
    <rect x="276" y="123" width="2077" height="1301"/>
  </clipPath>
</defs>
<polyline clip-path="url(#clip723)" style="stroke:#000000; stroke-linecap:round; stroke-linejoin:round; stroke-width:2; stroke-opacity:0.1; fill:none" points="304.04,1423.18 304.04,123.472 "/>
<polyline clip-path="url(#clip723)" style="stroke:#000000; stroke-linecap:round; stroke-linejoin:round; stroke-width:2; stroke-opacity:0.1; fill:none" points="619.907,1423.18 619.907,123.472 "/>
<polyline clip-path="url(#clip723)" style="stroke:#000000; stroke-linecap:round; stroke-linejoin:round; stroke-width:2; stroke-opacity:0.1; fill:none" points="935.775,1423.18 935.775,123.472 "/>
<polyline clip-path="url(#clip723)" style="stroke:#000000; stroke-linecap:round; stroke-linejoin:round; stroke-width:2; stroke-opacity:0.1; fill:none" points="1251.64,1423.18 1251.64,123.472 "/>
<polyline clip-path="url(#clip723)" style="stroke:#000000; stroke-linecap:round; stroke-linejoin:round; stroke-width:2; stroke-opacity:0.1; fill:none" points="1567.51,1423.18 1567.51,123.472 "/>
<polyline clip-path="url(#clip723)" style="stroke:#000000; stroke-linecap:round; stroke-linejoin:round; stroke-width:2; stroke-opacity:0.1; fill:none" points="1883.38,1423.18 1883.38,123.472 "/>
<polyline clip-path="url(#clip723)" style="stroke:#000000; stroke-linecap:round; stroke-linejoin:round; stroke-width:2; stroke-opacity:0.1; fill:none" points="2199.24,1423.18 2199.24,123.472 "/>
<polyline clip-path="url(#clip720)" style="stroke:#000000; stroke-linecap:round; stroke-linejoin:round; stroke-width:4; stroke-opacity:1; fill:none" points="276.876,1423.18 2352.76,1423.18 "/>
<polyline clip-path="url(#clip720)" style="stroke:#000000; stroke-linecap:round; stroke-linejoin:round; stroke-width:4; stroke-opacity:1; fill:none" points="304.04,1423.18 304.04,1404.28 "/>
<polyline clip-path="url(#clip720)" style="stroke:#000000; stroke-linecap:round; stroke-linejoin:round; stroke-width:4; stroke-opacity:1; fill:none" points="619.907,1423.18 619.907,1404.28 "/>
<polyline clip-path="url(#clip720)" style="stroke:#000000; stroke-linecap:round; stroke-linejoin:round; stroke-width:4; stroke-opacity:1; fill:none" points="935.775,1423.18 935.775,1404.28 "/>
<polyline clip-path="url(#clip720)" style="stroke:#000000; stroke-linecap:round; stroke-linejoin:round; stroke-width:4; stroke-opacity:1; fill:none" points="1251.64,1423.18 1251.64,1404.28 "/>
<polyline clip-path="url(#clip720)" style="stroke:#000000; stroke-linecap:round; stroke-linejoin:round; stroke-width:4; stroke-opacity:1; fill:none" points="1567.51,1423.18 1567.51,1404.28 "/>
<polyline clip-path="url(#clip720)" style="stroke:#000000; stroke-linecap:round; stroke-linejoin:round; stroke-width:4; stroke-opacity:1; fill:none" points="1883.38,1423.18 1883.38,1404.28 "/>
<polyline clip-path="url(#clip720)" style="stroke:#000000; stroke-linecap:round; stroke-linejoin:round; stroke-width:4; stroke-opacity:1; fill:none" points="2199.24,1423.18 2199.24,1404.28 "/>
<path clip-path="url(#clip720)" d="M304.04 1454.1 Q300.429 1454.1 298.6 1457.66 Q296.795 1461.2 296.795 1468.33 Q296.795 1475.44 298.6 1479.01 Q300.429 1482.55 304.04 1482.55 Q307.674 1482.55 309.48 1479.01 Q311.309 1475.44 311.309 1468.33 Q311.309 1461.2 309.48 1457.66 Q307.674 1454.1 304.04 1454.1 M304.04 1450.39 Q309.85 1450.39 312.906 1455 Q315.984 1459.58 315.984 1468.33 Q315.984 1477.06 312.906 1481.67 Q309.85 1486.25 304.04 1486.25 Q298.23 1486.25 295.151 1481.67 Q292.096 1477.06 292.096 1468.33 Q292.096 1459.58 295.151 1455 Q298.23 1450.39 304.04 1450.39 Z" fill="#000000" fill-rule="nonzero" fill-opacity="1" /><path clip-path="url(#clip720)" d="M594.595 1481.64 L602.234 1481.64 L602.234 1455.28 L593.924 1456.95 L593.924 1452.69 L602.188 1451.02 L606.864 1451.02 L606.864 1481.64 L614.502 1481.64 L614.502 1485.58 L594.595 1485.58 L594.595 1481.64 Z" fill="#000000" fill-rule="nonzero" fill-opacity="1" /><path clip-path="url(#clip720)" d="M633.947 1454.1 Q630.336 1454.1 628.507 1457.66 Q626.701 1461.2 626.701 1468.33 Q626.701 1475.44 628.507 1479.01 Q630.336 1482.55 633.947 1482.55 Q637.581 1482.55 639.387 1479.01 Q641.215 1475.44 641.215 1468.33 Q641.215 1461.2 639.387 1457.66 Q637.581 1454.1 633.947 1454.1 M633.947 1450.39 Q639.757 1450.39 642.812 1455 Q645.891 1459.58 645.891 1468.33 Q645.891 1477.06 642.812 1481.67 Q639.757 1486.25 633.947 1486.25 Q628.137 1486.25 625.058 1481.67 Q622.002 1477.06 622.002 1468.33 Q622.002 1459.58 625.058 1455 Q628.137 1450.39 633.947 1450.39 Z" fill="#000000" fill-rule="nonzero" fill-opacity="1" /><path clip-path="url(#clip720)" d="M914.548 1481.64 L930.867 1481.64 L930.867 1485.58 L908.923 1485.58 L908.923 1481.64 Q911.585 1478.89 916.168 1474.26 Q920.775 1469.61 921.955 1468.27 Q924.201 1465.74 925.08 1464.01 Q925.983 1462.25 925.983 1460.56 Q925.983 1457.8 924.039 1456.07 Q922.118 1454.33 919.016 1454.33 Q916.817 1454.33 914.363 1455.09 Q911.932 1455.86 909.155 1457.41 L909.155 1452.69 Q911.979 1451.55 914.432 1450.97 Q916.886 1450.39 918.923 1450.39 Q924.293 1450.39 927.488 1453.08 Q930.682 1455.77 930.682 1460.26 Q930.682 1462.39 929.872 1464.31 Q929.085 1466.2 926.979 1468.8 Q926.4 1469.47 923.298 1472.69 Q920.196 1475.88 914.548 1481.64 Z" fill="#000000" fill-rule="nonzero" fill-opacity="1" /><path clip-path="url(#clip720)" d="M950.682 1454.1 Q947.071 1454.1 945.242 1457.66 Q943.437 1461.2 943.437 1468.33 Q943.437 1475.44 945.242 1479.01 Q947.071 1482.55 950.682 1482.55 Q954.316 1482.55 956.122 1479.01 Q957.951 1475.44 957.951 1468.33 Q957.951 1461.2 956.122 1457.66 Q954.316 1454.1 950.682 1454.1 M950.682 1450.39 Q956.492 1450.39 959.548 1455 Q962.627 1459.58 962.627 1468.33 Q962.627 1477.06 959.548 1481.67 Q956.492 1486.25 950.682 1486.25 Q944.872 1486.25 941.793 1481.67 Q938.738 1477.06 938.738 1468.33 Q938.738 1459.58 941.793 1455 Q944.872 1450.39 950.682 1450.39 Z" fill="#000000" fill-rule="nonzero" fill-opacity="1" /><path clip-path="url(#clip720)" d="M1240.48 1466.95 Q1243.84 1467.66 1245.72 1469.93 Q1247.61 1472.2 1247.61 1475.53 Q1247.61 1480.65 1244.1 1483.45 Q1240.58 1486.25 1234.1 1486.25 Q1231.92 1486.25 1229.61 1485.81 Q1227.31 1485.39 1224.86 1484.54 L1224.86 1480.02 Q1226.8 1481.16 1229.12 1481.74 Q1231.43 1482.32 1233.96 1482.32 Q1238.36 1482.32 1240.65 1480.58 Q1242.96 1478.84 1242.96 1475.53 Q1242.96 1472.48 1240.81 1470.77 Q1238.68 1469.03 1234.86 1469.03 L1230.83 1469.03 L1230.83 1465.19 L1235.05 1465.19 Q1238.49 1465.19 1240.32 1463.82 Q1242.15 1462.43 1242.15 1459.84 Q1242.15 1457.18 1240.25 1455.77 Q1238.38 1454.33 1234.86 1454.33 Q1232.94 1454.33 1230.74 1454.75 Q1228.54 1455.16 1225.9 1456.04 L1225.9 1451.88 Q1228.56 1451.14 1230.88 1450.77 Q1233.22 1450.39 1235.28 1450.39 Q1240.6 1450.39 1243.7 1452.83 Q1246.8 1455.23 1246.8 1459.35 Q1246.8 1462.22 1245.16 1464.21 Q1243.52 1466.18 1240.48 1466.95 Z" fill="#000000" fill-rule="nonzero" fill-opacity="1" /><path clip-path="url(#clip720)" d="M1266.48 1454.1 Q1262.87 1454.1 1261.04 1457.66 Q1259.23 1461.2 1259.23 1468.33 Q1259.23 1475.44 1261.04 1479.01 Q1262.87 1482.55 1266.48 1482.55 Q1270.11 1482.55 1271.92 1479.01 Q1273.75 1475.44 1273.75 1468.33 Q1273.75 1461.2 1271.92 1457.66 Q1270.11 1454.1 1266.48 1454.1 M1266.48 1450.39 Q1272.29 1450.39 1275.35 1455 Q1278.42 1459.58 1278.42 1468.33 Q1278.42 1477.06 1275.35 1481.67 Q1272.29 1486.25 1266.48 1486.25 Q1260.67 1486.25 1257.59 1481.67 Q1254.54 1477.06 1254.54 1468.33 Q1254.54 1459.58 1257.59 1455 Q1260.67 1450.39 1266.48 1450.39 Z" fill="#000000" fill-rule="nonzero" fill-opacity="1" /><path clip-path="url(#clip720)" d="M1555.68 1455.09 L1543.88 1473.54 L1555.68 1473.54 L1555.68 1455.09 M1554.45 1451.02 L1560.33 1451.02 L1560.33 1473.54 L1565.26 1473.54 L1565.26 1477.43 L1560.33 1477.43 L1560.33 1485.58 L1555.68 1485.58 L1555.68 1477.43 L1540.08 1477.43 L1540.08 1472.92 L1554.45 1451.02 Z" fill="#000000" fill-rule="nonzero" fill-opacity="1" /><path clip-path="url(#clip720)" d="M1583 1454.1 Q1579.38 1454.1 1577.56 1457.66 Q1575.75 1461.2 1575.75 1468.33 Q1575.75 1475.44 1577.56 1479.01 Q1579.38 1482.55 1583 1482.55 Q1586.63 1482.55 1588.44 1479.01 Q1590.26 1475.44 1590.26 1468.33 Q1590.26 1461.2 1588.44 1457.66 Q1586.63 1454.1 1583 1454.1 M1583 1450.39 Q1588.81 1450.39 1591.86 1455 Q1594.94 1459.58 1594.94 1468.33 Q1594.94 1477.06 1591.86 1481.67 Q1588.81 1486.25 1583 1486.25 Q1577.19 1486.25 1574.11 1481.67 Q1571.05 1477.06 1571.05 1468.33 Q1571.05 1459.58 1574.11 1455 Q1577.19 1450.39 1583 1450.39 Z" fill="#000000" fill-rule="nonzero" fill-opacity="1" /><path clip-path="url(#clip720)" d="M1858.08 1451.02 L1876.43 1451.02 L1876.43 1454.96 L1862.36 1454.96 L1862.36 1463.43 Q1863.38 1463.08 1864.4 1462.92 Q1865.41 1462.73 1866.43 1462.73 Q1872.22 1462.73 1875.6 1465.9 Q1878.98 1469.08 1878.98 1474.49 Q1878.98 1480.07 1875.51 1483.17 Q1872.03 1486.25 1865.72 1486.25 Q1863.54 1486.25 1861.27 1485.88 Q1859.03 1485.51 1856.62 1484.77 L1856.62 1480.07 Q1858.7 1481.2 1860.92 1481.76 Q1863.15 1482.32 1865.62 1482.32 Q1869.63 1482.32 1871.97 1480.21 Q1874.3 1478.1 1874.3 1474.49 Q1874.3 1470.88 1871.97 1468.77 Q1869.63 1466.67 1865.62 1466.67 Q1863.75 1466.67 1861.87 1467.08 Q1860.02 1467.5 1858.08 1468.38 L1858.08 1451.02 Z" fill="#000000" fill-rule="nonzero" fill-opacity="1" /><path clip-path="url(#clip720)" d="M1898.19 1454.1 Q1894.58 1454.1 1892.75 1457.66 Q1890.95 1461.2 1890.95 1468.33 Q1890.95 1475.44 1892.75 1479.01 Q1894.58 1482.55 1898.19 1482.55 Q1901.83 1482.55 1903.63 1479.01 Q1905.46 1475.44 1905.46 1468.33 Q1905.46 1461.2 1903.63 1457.66 Q1901.83 1454.1 1898.19 1454.1 M1898.19 1450.39 Q1904 1450.39 1907.06 1455 Q1910.14 1459.58 1910.14 1468.33 Q1910.14 1477.06 1907.06 1481.67 Q1904 1486.25 1898.19 1486.25 Q1892.38 1486.25 1889.3 1481.67 Q1886.25 1477.06 1886.25 1468.33 Q1886.25 1459.58 1889.3 1455 Q1892.38 1450.39 1898.19 1450.39 Z" fill="#000000" fill-rule="nonzero" fill-opacity="1" /><path clip-path="url(#clip720)" d="M2184.65 1466.44 Q2181.5 1466.44 2179.65 1468.59 Q2177.82 1470.74 2177.82 1474.49 Q2177.82 1478.22 2179.65 1480.39 Q2181.5 1482.55 2184.65 1482.55 Q2187.8 1482.55 2189.63 1480.39 Q2191.48 1478.22 2191.48 1474.49 Q2191.48 1470.74 2189.63 1468.59 Q2187.8 1466.44 2184.65 1466.44 M2193.93 1451.78 L2193.93 1456.04 Q2192.17 1455.21 2190.37 1454.77 Q2188.58 1454.33 2186.83 1454.33 Q2182.2 1454.33 2179.74 1457.45 Q2177.31 1460.58 2176.96 1466.9 Q2178.33 1464.89 2180.39 1463.82 Q2182.45 1462.73 2184.93 1462.73 Q2190.14 1462.73 2193.14 1465.9 Q2196.18 1469.05 2196.18 1474.49 Q2196.18 1479.82 2193.03 1483.03 Q2189.88 1486.25 2184.65 1486.25 Q2178.65 1486.25 2175.48 1481.67 Q2172.31 1477.06 2172.31 1468.33 Q2172.31 1460.14 2176.2 1455.28 Q2180.09 1450.39 2186.64 1450.39 Q2188.4 1450.39 2190.18 1450.74 Q2191.99 1451.09 2193.93 1451.78 Z" fill="#000000" fill-rule="nonzero" fill-opacity="1" /><path clip-path="url(#clip720)" d="M2214.23 1454.1 Q2210.62 1454.1 2208.79 1457.66 Q2206.99 1461.2 2206.99 1468.33 Q2206.99 1475.44 2208.79 1479.01 Q2210.62 1482.55 2214.23 1482.55 Q2217.87 1482.55 2219.67 1479.01 Q2221.5 1475.44 2221.5 1468.33 Q2221.5 1461.2 2219.67 1457.66 Q2217.87 1454.1 2214.23 1454.1 M2214.23 1450.39 Q2220.04 1450.39 2223.1 1455 Q2226.18 1459.58 2226.18 1468.33 Q2226.18 1477.06 2223.1 1481.67 Q2220.04 1486.25 2214.23 1486.25 Q2208.42 1486.25 2205.34 1481.67 Q2202.29 1477.06 2202.29 1468.33 Q2202.29 1459.58 2205.34 1455 Q2208.42 1450.39 2214.23 1450.39 Z" fill="#000000" fill-rule="nonzero" fill-opacity="1" /><path clip-path="url(#clip720)" d="M934.146 1550.12 Q927.049 1550.12 924.311 1551.75 Q921.574 1553.37 921.574 1557.29 Q921.574 1560.4 923.611 1562.25 Q925.68 1564.07 929.213 1564.07 Q934.083 1564.07 937.011 1560.63 Q939.971 1557.16 939.971 1551.43 L939.971 1550.12 L934.146 1550.12 M945.828 1547.71 L945.828 1568.04 L939.971 1568.04 L939.971 1562.63 Q937.966 1565.88 934.974 1567.44 Q931.982 1568.97 927.653 1568.97 Q922.179 1568.97 918.932 1565.91 Q915.718 1562.82 915.718 1557.67 Q915.718 1551.65 919.728 1548.6 Q923.77 1545.54 931.759 1545.54 L939.971 1545.54 L939.971 1544.97 Q939.971 1540.93 937.297 1538.73 Q934.656 1536.5 929.85 1536.5 Q926.794 1536.5 923.898 1537.23 Q921.001 1537.97 918.328 1539.43 L918.328 1534.02 Q921.542 1532.78 924.566 1532.17 Q927.59 1531.54 930.454 1531.54 Q938.189 1531.54 942.008 1535.55 Q945.828 1539.56 945.828 1547.71 Z" fill="#000000" fill-rule="nonzero" fill-opacity="1" /><path clip-path="url(#clip720)" d="M985.645 1539.24 Q987.841 1535.29 990.897 1533.41 Q993.952 1531.54 998.09 1531.54 Q1003.66 1531.54 1006.68 1535.45 Q1009.71 1539.33 1009.71 1546.53 L1009.71 1568.04 L1003.82 1568.04 L1003.82 1546.72 Q1003.82 1541.59 1002 1539.11 Q1000.19 1536.63 996.467 1536.63 Q991.915 1536.63 989.273 1539.65 Q986.632 1542.68 986.632 1547.9 L986.632 1568.04 L980.743 1568.04 L980.743 1546.72 Q980.743 1541.56 978.929 1539.11 Q977.115 1536.63 973.327 1536.63 Q968.84 1536.63 966.198 1539.68 Q963.556 1542.71 963.556 1547.9 L963.556 1568.04 L957.668 1568.04 L957.668 1532.4 L963.556 1532.4 L963.556 1537.93 Q965.561 1534.66 968.362 1533.1 Q971.163 1531.54 975.014 1531.54 Q978.897 1531.54 981.603 1533.51 Q984.34 1535.48 985.645 1539.24 Z" fill="#000000" fill-rule="nonzero" fill-opacity="1" /><path clip-path="url(#clip720)" d="M1035.2 1536.5 Q1030.49 1536.5 1027.75 1540.19 Q1025.02 1543.85 1025.02 1550.25 Q1025.02 1556.65 1027.72 1560.34 Q1030.46 1564 1035.2 1564 Q1039.88 1564 1042.62 1560.31 Q1045.36 1556.62 1045.36 1550.25 Q1045.36 1543.92 1042.62 1540.23 Q1039.88 1536.5 1035.2 1536.5 M1035.2 1531.54 Q1042.84 1531.54 1047.2 1536.5 Q1051.56 1541.47 1051.56 1550.25 Q1051.56 1559 1047.2 1564 Q1042.84 1568.97 1035.2 1568.97 Q1027.53 1568.97 1023.17 1564 Q1018.84 1559 1018.84 1550.25 Q1018.84 1541.47 1023.17 1536.5 Q1027.53 1531.54 1035.2 1531.54 Z" fill="#000000" fill-rule="nonzero" fill-opacity="1" /><path clip-path="url(#clip720)" d="M1060.66 1553.98 L1060.66 1532.4 L1066.52 1532.4 L1066.52 1553.75 Q1066.52 1558.81 1068.49 1561.36 Q1070.47 1563.87 1074.41 1563.87 Q1079.16 1563.87 1081.89 1560.85 Q1084.66 1557.83 1084.66 1552.61 L1084.66 1532.4 L1090.52 1532.4 L1090.52 1568.04 L1084.66 1568.04 L1084.66 1562.57 Q1082.53 1565.82 1079.7 1567.41 Q1076.9 1568.97 1073.17 1568.97 Q1067.03 1568.97 1063.85 1565.15 Q1060.66 1561.33 1060.66 1553.98 M1075.4 1531.54 L1075.4 1531.54 Z" fill="#000000" fill-rule="nonzero" fill-opacity="1" /><path clip-path="url(#clip720)" d="M1132.22 1546.53 L1132.22 1568.04 L1126.36 1568.04 L1126.36 1546.72 Q1126.36 1541.66 1124.39 1539.14 Q1122.41 1536.63 1118.47 1536.63 Q1113.72 1536.63 1110.99 1539.65 Q1108.25 1542.68 1108.25 1547.9 L1108.25 1568.04 L1102.36 1568.04 L1102.36 1532.4 L1108.25 1532.4 L1108.25 1537.93 Q1110.35 1534.72 1113.18 1533.13 Q1116.05 1531.54 1119.77 1531.54 Q1125.91 1531.54 1129.06 1535.36 Q1132.22 1539.14 1132.22 1546.53 Z" fill="#000000" fill-rule="nonzero" fill-opacity="1" /><path clip-path="url(#clip720)" d="M1149.69 1522.27 L1149.69 1532.4 L1161.75 1532.4 L1161.75 1536.95 L1149.69 1536.95 L1149.69 1556.3 Q1149.69 1560.66 1150.87 1561.9 Q1152.08 1563.14 1155.74 1563.14 L1161.75 1563.14 L1161.75 1568.04 L1155.74 1568.04 Q1148.96 1568.04 1146.38 1565.53 Q1143.8 1562.98 1143.8 1556.3 L1143.8 1536.95 L1139.5 1536.95 L1139.5 1532.4 L1143.8 1532.4 L1143.8 1522.27 L1149.69 1522.27 Z" fill="#000000" fill-rule="nonzero" fill-opacity="1" /><path clip-path="url(#clip720)" d="M1203.99 1536.5 Q1199.28 1536.5 1196.54 1540.19 Q1193.8 1543.85 1193.8 1550.25 Q1193.8 1556.65 1196.51 1560.34 Q1199.25 1564 1203.99 1564 Q1208.67 1564 1211.4 1560.31 Q1214.14 1556.62 1214.14 1550.25 Q1214.14 1543.92 1211.4 1540.23 Q1208.67 1536.5 1203.99 1536.5 M1203.99 1531.54 Q1211.63 1531.54 1215.99 1536.5 Q1220.35 1541.47 1220.35 1550.25 Q1220.35 1559 1215.99 1564 Q1211.63 1568.97 1203.99 1568.97 Q1196.32 1568.97 1191.96 1564 Q1187.63 1559 1187.63 1550.25 Q1187.63 1541.47 1191.96 1536.5 Q1196.32 1531.54 1203.99 1531.54 Z" fill="#000000" fill-rule="nonzero" fill-opacity="1" /><path clip-path="url(#clip720)" d="M1248.1 1518.52 L1248.1 1523.39 L1242.5 1523.39 Q1239.35 1523.39 1238.11 1524.66 Q1236.9 1525.93 1236.9 1529.24 L1236.9 1532.4 L1246.54 1532.4 L1246.54 1536.95 L1236.9 1536.95 L1236.9 1568.04 L1231.01 1568.04 L1231.01 1536.95 L1225.41 1536.95 L1225.41 1532.4 L1231.01 1532.4 L1231.01 1529.91 Q1231.01 1523.96 1233.78 1521.26 Q1236.55 1518.52 1242.56 1518.52 L1248.1 1518.52 Z" fill="#000000" fill-rule="nonzero" fill-opacity="1" /><path clip-path="url(#clip720)" d="M1296.45 1533.45 L1296.45 1538.98 Q1293.97 1537.71 1291.29 1537.07 Q1288.62 1536.44 1285.76 1536.44 Q1281.4 1536.44 1279.2 1537.77 Q1277.04 1539.11 1277.04 1541.79 Q1277.04 1543.82 1278.59 1545 Q1280.15 1546.15 1284.87 1547.2 L1286.87 1547.64 Q1293.11 1548.98 1295.72 1551.43 Q1298.36 1553.85 1298.36 1558.21 Q1298.36 1563.17 1294.41 1566.07 Q1290.5 1568.97 1283.62 1568.97 Q1280.76 1568.97 1277.64 1568.39 Q1274.55 1567.85 1271.12 1566.74 L1271.12 1560.69 Q1274.36 1562.38 1277.51 1563.24 Q1280.66 1564.07 1283.75 1564.07 Q1287.89 1564.07 1290.12 1562.66 Q1292.34 1561.23 1292.34 1558.65 Q1292.34 1556.27 1290.72 1554.99 Q1289.13 1553.72 1283.69 1552.54 L1281.65 1552.07 Q1276.21 1550.92 1273.79 1548.56 Q1271.37 1546.18 1271.37 1542.04 Q1271.37 1537.01 1274.93 1534.27 Q1278.5 1531.54 1285.06 1531.54 Q1288.3 1531.54 1291.17 1532.01 Q1294.03 1532.49 1296.45 1533.45 Z" fill="#000000" fill-rule="nonzero" fill-opacity="1" /><path clip-path="url(#clip720)" d="M1307.08 1553.98 L1307.08 1532.4 L1312.94 1532.4 L1312.94 1553.75 Q1312.94 1558.81 1314.91 1561.36 Q1316.88 1563.87 1320.83 1563.87 Q1325.57 1563.87 1328.31 1560.85 Q1331.08 1557.83 1331.08 1552.61 L1331.08 1532.4 L1336.94 1532.4 L1336.94 1568.04 L1331.08 1568.04 L1331.08 1562.57 Q1328.95 1565.82 1326.11 1567.41 Q1323.31 1568.97 1319.59 1568.97 Q1313.45 1568.97 1310.26 1565.15 Q1307.08 1561.33 1307.08 1553.98 M1321.82 1531.54 L1321.82 1531.54 Z" fill="#000000" fill-rule="nonzero" fill-opacity="1" /><path clip-path="url(#clip720)" d="M1374.59 1550.25 Q1374.59 1543.79 1371.92 1540.13 Q1369.27 1536.44 1364.63 1536.44 Q1359.98 1536.44 1357.31 1540.13 Q1354.67 1543.79 1354.67 1550.25 Q1354.67 1556.71 1357.31 1560.4 Q1359.98 1564.07 1364.63 1564.07 Q1369.27 1564.07 1371.92 1560.4 Q1374.59 1556.71 1374.59 1550.25 M1354.67 1537.81 Q1356.51 1534.62 1359.31 1533.1 Q1362.14 1531.54 1366.06 1531.54 Q1372.55 1531.54 1376.59 1536.69 Q1380.67 1541.85 1380.67 1550.25 Q1380.67 1558.65 1376.59 1563.81 Q1372.55 1568.97 1366.06 1568.97 Q1362.14 1568.97 1359.31 1567.44 Q1356.51 1565.88 1354.67 1562.7 L1354.67 1568.04 L1348.78 1568.04 L1348.78 1518.52 L1354.67 1518.52 L1354.67 1537.81 Z" fill="#000000" fill-rule="nonzero" fill-opacity="1" /><path clip-path="url(#clip720)" d="M1387.42 1547.58 L1404.57 1547.58 L1404.57 1552.8 L1387.42 1552.8 L1387.42 1547.58 Z" fill="#000000" fill-rule="nonzero" fill-opacity="1" /><path clip-path="url(#clip720)" d="M1413.9 1532.4 L1419.75 1532.4 L1419.75 1568.04 L1413.9 1568.04 L1413.9 1532.4 M1413.9 1518.52 L1419.75 1518.52 L1419.75 1525.93 L1413.9 1525.93 L1413.9 1518.52 Z" fill="#000000" fill-rule="nonzero" fill-opacity="1" /><path clip-path="url(#clip720)" d="M1437.8 1522.27 L1437.8 1532.4 L1449.86 1532.4 L1449.86 1536.95 L1437.8 1536.95 L1437.8 1556.3 Q1437.8 1560.66 1438.98 1561.9 Q1440.19 1563.14 1443.85 1563.14 L1449.86 1563.14 L1449.86 1568.04 L1443.85 1568.04 Q1437.07 1568.04 1434.49 1565.53 Q1431.91 1562.98 1431.91 1556.3 L1431.91 1536.95 L1427.62 1536.95 L1427.62 1532.4 L1431.91 1532.4 L1431.91 1522.27 L1437.8 1522.27 Z" fill="#000000" fill-rule="nonzero" fill-opacity="1" /><path clip-path="url(#clip720)" d="M1488.06 1548.76 L1488.06 1551.62 L1461.13 1551.62 Q1461.51 1557.67 1464.76 1560.85 Q1468.04 1564 1473.86 1564 Q1477.24 1564 1480.39 1563.17 Q1483.57 1562.35 1486.69 1560.69 L1486.69 1566.23 Q1483.54 1567.57 1480.23 1568.27 Q1476.92 1568.97 1473.51 1568.97 Q1464.98 1568.97 1459.99 1564 Q1455.02 1559.04 1455.02 1550.57 Q1455.02 1541.82 1459.73 1536.69 Q1464.47 1531.54 1472.49 1531.54 Q1479.69 1531.54 1483.86 1536.18 Q1488.06 1540.8 1488.06 1548.76 M1482.2 1547.04 Q1482.14 1542.23 1479.5 1539.37 Q1476.89 1536.5 1472.56 1536.5 Q1467.66 1536.5 1464.7 1539.27 Q1461.77 1542.04 1461.32 1547.07 L1482.2 1547.04 Z" fill="#000000" fill-rule="nonzero" fill-opacity="1" /><path clip-path="url(#clip720)" d="M1518.33 1537.87 Q1517.34 1537.3 1516.16 1537.04 Q1515.02 1536.76 1513.62 1536.76 Q1508.65 1536.76 1505.98 1540 Q1503.34 1543.22 1503.34 1549.27 L1503.34 1568.04 L1497.45 1568.04 L1497.45 1532.4 L1503.34 1532.4 L1503.34 1537.93 Q1505.18 1534.69 1508.14 1533.13 Q1511.1 1531.54 1515.34 1531.54 Q1515.94 1531.54 1516.67 1531.63 Q1517.4 1531.7 1518.3 1531.85 L1518.33 1537.87 Z" fill="#000000" fill-rule="nonzero" fill-opacity="1" /><path clip-path="url(#clip720)" d="M1540.67 1550.12 Q1533.57 1550.12 1530.84 1551.75 Q1528.1 1553.37 1528.1 1557.29 Q1528.1 1560.4 1530.14 1562.25 Q1532.2 1564.07 1535.74 1564.07 Q1540.61 1564.07 1543.54 1560.63 Q1546.5 1557.16 1546.5 1551.43 L1546.5 1550.12 L1540.67 1550.12 M1552.35 1547.71 L1552.35 1568.04 L1546.5 1568.04 L1546.5 1562.63 Q1544.49 1565.88 1541.5 1567.44 Q1538.51 1568.97 1534.18 1568.97 Q1528.7 1568.97 1525.46 1565.91 Q1522.24 1562.82 1522.24 1557.67 Q1522.24 1551.65 1526.25 1548.6 Q1530.29 1545.54 1538.28 1545.54 L1546.5 1545.54 L1546.5 1544.97 Q1546.5 1540.93 1543.82 1538.73 Q1541.18 1536.5 1536.37 1536.5 Q1533.32 1536.5 1530.42 1537.23 Q1527.53 1537.97 1524.85 1539.43 L1524.85 1534.02 Q1528.07 1532.78 1531.09 1532.17 Q1534.11 1531.54 1536.98 1531.54 Q1544.71 1531.54 1548.53 1535.55 Q1552.35 1539.56 1552.35 1547.71 Z" fill="#000000" fill-rule="nonzero" fill-opacity="1" /><path clip-path="url(#clip720)" d="M1570.21 1522.27 L1570.21 1532.4 L1582.27 1532.4 L1582.27 1536.95 L1570.21 1536.95 L1570.21 1556.3 Q1570.21 1560.66 1571.39 1561.9 Q1572.59 1563.14 1576.26 1563.14 L1582.27 1563.14 L1582.27 1568.04 L1576.26 1568.04 Q1569.48 1568.04 1566.9 1565.53 Q1564.32 1562.98 1564.32 1556.3 L1564.32 1536.95 L1560.02 1536.95 L1560.02 1532.4 L1564.32 1532.4 L1564.32 1522.27 L1570.21 1522.27 Z" fill="#000000" fill-rule="nonzero" fill-opacity="1" /><path clip-path="url(#clip720)" d="M1589.97 1532.4 L1595.83 1532.4 L1595.83 1568.04 L1589.97 1568.04 L1589.97 1532.4 M1589.97 1518.52 L1595.83 1518.52 L1595.83 1525.93 L1589.97 1525.93 L1589.97 1518.52 Z" fill="#000000" fill-rule="nonzero" fill-opacity="1" /><path clip-path="url(#clip720)" d="M1621.9 1536.5 Q1617.19 1536.5 1614.45 1540.19 Q1611.71 1543.85 1611.71 1550.25 Q1611.71 1556.65 1614.42 1560.34 Q1617.15 1564 1621.9 1564 Q1626.58 1564 1629.31 1560.31 Q1632.05 1556.62 1632.05 1550.25 Q1632.05 1543.92 1629.31 1540.23 Q1626.58 1536.5 1621.9 1536.5 M1621.9 1531.54 Q1629.54 1531.54 1633.9 1536.5 Q1638.26 1541.47 1638.26 1550.25 Q1638.26 1559 1633.9 1564 Q1629.54 1568.97 1621.9 1568.97 Q1614.23 1568.97 1609.87 1564 Q1605.54 1559 1605.54 1550.25 Q1605.54 1541.47 1609.87 1536.5 Q1614.23 1531.54 1621.9 1531.54 Z" fill="#000000" fill-rule="nonzero" fill-opacity="1" /><path clip-path="url(#clip720)" d="M1677.6 1546.53 L1677.6 1568.04 L1671.74 1568.04 L1671.74 1546.72 Q1671.74 1541.66 1669.77 1539.14 Q1667.79 1536.63 1663.85 1536.63 Q1659.1 1536.63 1656.37 1539.65 Q1653.63 1542.68 1653.63 1547.9 L1653.63 1568.04 L1647.74 1568.04 L1647.74 1532.4 L1653.63 1532.4 L1653.63 1537.93 Q1655.73 1534.72 1658.56 1533.13 Q1661.43 1531.54 1665.15 1531.54 Q1671.3 1531.54 1674.45 1535.36 Q1677.6 1539.14 1677.6 1546.53 Z" fill="#000000" fill-rule="nonzero" fill-opacity="1" /><path clip-path="url(#clip720)" d="M1712 1533.45 L1712 1538.98 Q1709.52 1537.71 1706.85 1537.07 Q1704.17 1536.44 1701.31 1536.44 Q1696.95 1536.44 1694.75 1537.77 Q1692.59 1539.11 1692.59 1541.79 Q1692.59 1543.82 1694.15 1545 Q1695.71 1546.15 1700.42 1547.2 L1702.42 1547.64 Q1708.66 1548.98 1711.27 1551.43 Q1713.91 1553.85 1713.91 1558.21 Q1713.91 1563.17 1709.97 1566.07 Q1706.05 1568.97 1699.18 1568.97 Q1696.31 1568.97 1693.19 1568.39 Q1690.11 1567.85 1686.67 1566.74 L1686.67 1560.69 Q1689.91 1562.38 1693.07 1563.24 Q1696.22 1564.07 1699.3 1564.07 Q1703.44 1564.07 1705.67 1562.66 Q1707.9 1561.23 1707.9 1558.65 Q1707.9 1556.27 1706.27 1554.99 Q1704.68 1553.72 1699.24 1552.54 L1697.2 1552.07 Q1691.76 1550.92 1689.34 1548.56 Q1686.92 1546.18 1686.92 1542.04 Q1686.92 1537.01 1690.49 1534.27 Q1694.05 1531.54 1700.61 1531.54 Q1703.86 1531.54 1706.72 1532.01 Q1709.59 1532.49 1712 1533.45 Z" fill="#000000" fill-rule="nonzero" fill-opacity="1" /><polyline clip-path="url(#clip723)" style="stroke:#000000; stroke-linecap:round; stroke-linejoin:round; stroke-width:2; stroke-opacity:0.1; fill:none" points="276.876,1064.51 2352.76,1064.51 "/>
<polyline clip-path="url(#clip723)" style="stroke:#000000; stroke-linecap:round; stroke-linejoin:round; stroke-width:2; stroke-opacity:0.1; fill:none" points="276.876,556.153 2352.76,556.153 "/>
<polyline clip-path="url(#clip720)" style="stroke:#000000; stroke-linecap:round; stroke-linejoin:round; stroke-width:4; stroke-opacity:1; fill:none" points="276.876,1423.18 276.876,123.472 "/>
<polyline clip-path="url(#clip720)" style="stroke:#000000; stroke-linecap:round; stroke-linejoin:round; stroke-width:4; stroke-opacity:1; fill:none" points="276.876,1064.51 295.773,1064.51 "/>
<polyline clip-path="url(#clip720)" style="stroke:#000000; stroke-linecap:round; stroke-linejoin:round; stroke-width:4; stroke-opacity:1; fill:none" points="276.876,556.153 295.773,556.153 "/>
<path clip-path="url(#clip720)" d="M114.931 1084.3 L122.57 1084.3 L122.57 1057.94 L114.26 1059.6 L114.26 1055.35 L122.524 1053.68 L127.2 1053.68 L127.2 1084.3 L134.839 1084.3 L134.839 1088.24 L114.931 1088.24 L114.931 1084.3 Z" fill="#000000" fill-rule="nonzero" fill-opacity="1" /><path clip-path="url(#clip720)" d="M154.283 1056.76 Q150.672 1056.76 148.843 1060.32 Q147.038 1063.86 147.038 1070.99 Q147.038 1078.1 148.843 1081.66 Q150.672 1085.21 154.283 1085.21 Q157.917 1085.21 159.723 1081.66 Q161.552 1078.1 161.552 1070.99 Q161.552 1063.86 159.723 1060.32 Q157.917 1056.76 154.283 1056.76 M154.283 1053.05 Q160.093 1053.05 163.149 1057.66 Q166.227 1062.24 166.227 1070.99 Q166.227 1079.72 163.149 1084.33 Q160.093 1088.91 154.283 1088.91 Q148.473 1088.91 145.394 1084.33 Q142.339 1079.72 142.339 1070.99 Q142.339 1062.24 145.394 1057.66 Q148.473 1053.05 154.283 1053.05 Z" fill="#000000" fill-rule="nonzero" fill-opacity="1" /><path clip-path="url(#clip720)" d="M166.227 1047.16 L190.339 1047.16 L190.339 1050.35 L166.227 1050.35 L166.227 1047.16 Z" fill="#000000" fill-rule="nonzero" fill-opacity="1" /><path clip-path="url(#clip720)" d="M199.197 1057.63 L205.404 1057.63 L205.404 1036.21 L198.652 1037.56 L198.652 1034.1 L205.366 1032.75 L209.166 1032.75 L209.166 1057.63 L215.372 1057.63 L215.372 1060.83 L199.197 1060.83 L199.197 1057.63 Z" fill="#000000" fill-rule="nonzero" fill-opacity="1" /><path clip-path="url(#clip720)" d="M231.171 1035.25 Q228.237 1035.25 226.751 1038.15 Q225.284 1041.02 225.284 1046.82 Q225.284 1052.59 226.751 1055.49 Q228.237 1058.36 231.171 1058.36 Q234.124 1058.36 235.591 1055.49 Q237.076 1052.59 237.076 1046.82 Q237.076 1041.02 235.591 1038.15 Q234.124 1035.25 231.171 1035.25 M231.171 1032.24 Q235.891 1032.24 238.374 1035.98 Q240.876 1039.71 240.876 1046.82 Q240.876 1053.91 238.374 1057.65 Q235.891 1061.37 231.171 1061.37 Q226.45 1061.37 223.949 1057.65 Q221.466 1053.91 221.466 1046.82 Q221.466 1039.71 223.949 1035.98 Q226.45 1032.24 231.171 1032.24 Z" fill="#000000" fill-rule="nonzero" fill-opacity="1" /><path clip-path="url(#clip720)" d="M140.247 575.945 L147.886 575.945 L147.886 549.58 L139.575 551.246 L139.575 546.987 L147.839 545.321 L152.515 545.321 L152.515 575.945 L160.154 575.945 L160.154 579.881 L140.247 579.881 L140.247 575.945 Z" fill="#000000" fill-rule="nonzero" fill-opacity="1" /><path clip-path="url(#clip720)" d="M179.598 548.399 Q175.987 548.399 174.159 551.964 Q172.353 555.506 172.353 562.635 Q172.353 569.742 174.159 573.307 Q175.987 576.848 179.598 576.848 Q183.233 576.848 185.038 573.307 Q186.867 569.742 186.867 562.635 Q186.867 555.506 185.038 551.964 Q183.233 548.399 179.598 548.399 M179.598 544.696 Q185.409 544.696 188.464 549.302 Q191.543 553.885 191.543 562.635 Q191.543 571.362 188.464 575.969 Q185.409 580.552 179.598 580.552 Q173.788 580.552 170.71 575.969 Q167.654 571.362 167.654 562.635 Q167.654 553.885 170.71 549.302 Q173.788 544.696 179.598 544.696 Z" fill="#000000" fill-rule="nonzero" fill-opacity="1" /><path clip-path="url(#clip720)" d="M191.543 538.797 L215.654 538.797 L215.654 541.994 L191.543 541.994 L191.543 538.797 Z" fill="#000000" fill-rule="nonzero" fill-opacity="1" /><path clip-path="url(#clip720)" d="M223.892 524.39 L238.807 524.39 L238.807 527.588 L227.372 527.588 L227.372 534.471 Q228.199 534.189 229.027 534.057 Q229.854 533.907 230.682 533.907 Q235.384 533.907 238.13 536.484 Q240.876 539.06 240.876 543.461 Q240.876 547.994 238.054 550.514 Q235.233 553.016 230.099 553.016 Q228.331 553.016 226.488 552.715 Q224.663 552.414 222.707 551.812 L222.707 547.994 Q224.4 548.916 226.205 549.367 Q228.011 549.818 230.023 549.818 Q233.277 549.818 235.177 548.107 Q237.076 546.395 237.076 543.461 Q237.076 540.527 235.177 538.816 Q233.277 537.104 230.023 537.104 Q228.5 537.104 226.977 537.443 Q225.472 537.781 223.892 538.496 L223.892 524.39 Z" fill="#000000" fill-rule="nonzero" fill-opacity="1" /><path clip-path="url(#clip720)" d="M33.7671 1297.73 L14.479 1297.73 L14.479 1291.88 L64.0042 1291.88 L64.0042 1297.73 L58.657 1297.73 Q61.8398 1299.58 63.3994 1302.41 Q64.9272 1305.21 64.9272 1309.16 Q64.9272 1315.62 59.771 1319.69 Q54.6147 1323.74 46.212 1323.74 Q37.8093 1323.74 32.6531 1319.69 Q27.4968 1315.62 27.4968 1309.16 Q27.4968 1305.21 29.0564 1302.41 Q30.5842 1299.58 33.7671 1297.73 M46.212 1317.69 Q52.6732 1317.69 56.3653 1315.05 Q60.0256 1312.37 60.0256 1307.73 Q60.0256 1303.08 56.3653 1300.41 Q52.6732 1297.73 46.212 1297.73 Q39.7508 1297.73 36.0905 1300.41 Q32.3984 1303.08 32.3984 1307.73 Q32.3984 1312.37 36.0905 1315.05 Q39.7508 1317.69 46.212 1317.69 Z" fill="#000000" fill-rule="nonzero" fill-opacity="1" /><path clip-path="url(#clip720)" d="M28.3562 1279.81 L28.3562 1273.96 L64.0042 1273.96 L64.0042 1279.81 L28.3562 1279.81 M14.479 1279.81 L14.479 1273.96 L21.895 1273.96 L21.895 1279.81 L14.479 1279.81 Z" fill="#000000" fill-rule="nonzero" fill-opacity="1" /><path clip-path="url(#clip720)" d="M14.479 1243.66 L19.3487 1243.66 L19.3487 1249.26 Q19.3487 1252.41 20.6219 1253.65 Q21.895 1254.86 25.2052 1254.86 L28.3562 1254.86 L28.3562 1245.22 L32.9077 1245.22 L32.9077 1254.86 L64.0042 1254.86 L64.0042 1260.75 L32.9077 1260.75 L32.9077 1266.35 L28.3562 1266.35 L28.3562 1260.75 L25.8736 1260.75 Q19.9216 1260.75 17.2162 1257.98 Q14.479 1255.21 14.479 1249.19 L14.479 1243.66 Z" fill="#000000" fill-rule="nonzero" fill-opacity="1" /><path clip-path="url(#clip720)" d="M14.479 1220.71 L19.3487 1220.71 L19.3487 1226.31 Q19.3487 1229.46 20.6219 1230.7 Q21.895 1231.91 25.2052 1231.91 L28.3562 1231.91 L28.3562 1222.27 L32.9077 1222.27 L32.9077 1231.91 L64.0042 1231.91 L64.0042 1237.8 L32.9077 1237.8 L32.9077 1243.4 L28.3562 1243.4 L28.3562 1237.8 L25.8736 1237.8 Q19.9216 1237.8 17.2162 1235.03 Q14.479 1232.26 14.479 1226.25 L14.479 1220.71 Z" fill="#000000" fill-rule="nonzero" fill-opacity="1" /><path clip-path="url(#clip720)" d="M33.8307 1195.15 Q33.2578 1196.14 33.0032 1197.31 Q32.7167 1198.46 32.7167 1199.86 Q32.7167 1204.83 35.9632 1207.5 Q39.1779 1210.14 45.2253 1210.14 L64.0042 1210.14 L64.0042 1216.03 L28.3562 1216.03 L28.3562 1210.14 L33.8944 1210.14 Q30.6479 1208.29 29.0883 1205.33 Q27.4968 1202.37 27.4968 1198.14 Q27.4968 1197.54 27.5923 1196.8 Q27.656 1196.07 27.8151 1195.18 L33.8307 1195.15 Z" fill="#000000" fill-rule="nonzero" fill-opacity="1" /><path clip-path="url(#clip720)" d="M44.7161 1159.95 L47.5806 1159.95 L47.5806 1186.87 Q53.6281 1186.49 56.8109 1183.25 Q59.9619 1179.97 59.9619 1174.14 Q59.9619 1170.77 59.1344 1167.62 Q58.3069 1164.43 56.6518 1161.32 L62.1899 1161.32 Q63.5267 1164.47 64.227 1167.78 Q64.9272 1171.09 64.9272 1174.49 Q64.9272 1183.02 59.9619 1188.02 Q54.9967 1192.99 46.5303 1192.99 Q37.7774 1192.99 32.6531 1188.27 Q27.4968 1183.53 27.4968 1175.51 Q27.4968 1168.32 32.1438 1164.15 Q36.7589 1159.95 44.7161 1159.95 M42.9973 1165.8 Q38.1912 1165.87 35.3266 1168.51 Q32.4621 1171.12 32.4621 1175.45 Q32.4621 1180.35 35.2312 1183.31 Q38.0002 1186.24 43.0292 1186.68 L42.9973 1165.8 Z" fill="#000000" fill-rule="nonzero" fill-opacity="1" /><path clip-path="url(#clip720)" d="M42.4881 1120.7 L64.0042 1120.7 L64.0042 1126.56 L42.679 1126.56 Q37.6183 1126.56 35.1038 1128.53 Q32.5894 1130.51 32.5894 1134.45 Q32.5894 1139.19 35.6131 1141.93 Q38.6368 1144.67 43.8567 1144.67 L64.0042 1144.67 L64.0042 1150.56 L28.3562 1150.56 L28.3562 1144.67 L33.8944 1144.67 Q30.6797 1142.57 29.0883 1139.74 Q27.4968 1136.87 27.4968 1133.15 Q27.4968 1127 31.3163 1123.85 Q35.1038 1120.7 42.4881 1120.7 Z" fill="#000000" fill-rule="nonzero" fill-opacity="1" /><path clip-path="url(#clip720)" d="M29.7248 1083.37 L35.1993 1083.37 Q33.8307 1085.85 33.1623 1088.36 Q32.4621 1090.85 32.4621 1093.39 Q32.4621 1099.09 36.0905 1102.24 Q39.6872 1105.39 46.212 1105.39 Q52.7369 1105.39 56.3653 1102.24 Q59.9619 1099.09 59.9619 1093.39 Q59.9619 1090.85 59.2935 1088.36 Q58.5933 1085.85 57.2247 1083.37 L62.6355 1083.37 Q63.7814 1085.82 64.3543 1088.46 Q64.9272 1091.07 64.9272 1094.03 Q64.9272 1102.08 59.8664 1106.83 Q54.8057 1111.57 46.212 1111.57 Q37.491 1111.57 32.4939 1106.79 Q27.4968 1101.99 27.4968 1093.65 Q27.4968 1090.94 28.0697 1088.36 Q28.6108 1085.79 29.7248 1083.37 Z" fill="#000000" fill-rule="nonzero" fill-opacity="1" /><path clip-path="url(#clip720)" d="M44.7161 1042.69 L47.5806 1042.69 L47.5806 1069.62 Q53.6281 1069.24 56.8109 1065.99 Q59.9619 1062.71 59.9619 1056.89 Q59.9619 1053.51 59.1344 1050.36 Q58.3069 1047.18 56.6518 1044.06 L62.1899 1044.06 Q63.5267 1047.21 64.227 1050.52 Q64.9272 1053.83 64.9272 1057.24 Q64.9272 1065.77 59.9619 1070.76 Q54.9967 1075.73 46.5303 1075.73 Q37.7774 1075.73 32.6531 1071.02 Q27.4968 1066.28 27.4968 1058.26 Q27.4968 1051.06 32.1438 1046.89 Q36.7589 1042.69 44.7161 1042.69 M42.9973 1048.55 Q38.1912 1048.61 35.3266 1051.25 Q32.4621 1053.86 32.4621 1058.19 Q32.4621 1063.09 35.2312 1066.05 Q38.0002 1068.98 43.0292 1069.43 L42.9973 1048.55 Z" fill="#000000" fill-rule="nonzero" fill-opacity="1" /><path clip-path="url(#clip720)" d="M18.2347 1006.57 L28.3562 1006.57 L28.3562 994.502 L32.9077 994.502 L32.9077 1006.57 L52.2594 1006.57 Q56.6199 1006.57 57.8613 1005.39 Q59.1026 1004.18 59.1026 1000.52 L59.1026 994.502 L64.0042 994.502 L64.0042 1000.52 Q64.0042 1007.3 61.4897 1009.88 Q58.9434 1012.45 52.2594 1012.45 L32.9077 1012.45 L32.9077 1016.75 L28.3562 1016.75 L28.3562 1012.45 L18.2347 1012.45 L18.2347 1006.57 Z" fill="#000000" fill-rule="nonzero" fill-opacity="1" /><path clip-path="url(#clip720)" d="M32.4621 972.986 Q32.4621 977.697 36.1542 980.434 Q39.8145 983.172 46.212 983.172 Q52.6095 983.172 56.3017 980.466 Q59.9619 977.729 59.9619 972.986 Q59.9619 968.308 56.2698 965.57 Q52.5777 962.833 46.212 962.833 Q39.8781 962.833 36.186 965.57 Q32.4621 968.308 32.4621 972.986 M27.4968 972.986 Q27.4968 965.348 32.4621 960.987 Q37.4273 956.627 46.212 956.627 Q54.9649 956.627 59.9619 960.987 Q64.9272 965.348 64.9272 972.986 Q64.9272 980.657 59.9619 985.018 Q54.9649 989.346 46.212 989.346 Q37.4273 989.346 32.4621 985.018 Q27.4968 980.657 27.4968 972.986 Z" fill="#000000" fill-rule="nonzero" fill-opacity="1" /><path clip-path="url(#clip720)" d="M58.657 920.533 L77.5631 920.533 L77.5631 926.421 L28.3562 926.421 L28.3562 920.533 L33.7671 920.533 Q30.5842 918.687 29.0564 915.886 Q27.4968 913.053 27.4968 909.138 Q27.4968 902.645 32.6531 898.603 Q37.8093 894.529 46.212 894.529 Q54.6147 894.529 59.771 898.603 Q64.9272 902.645 64.9272 909.138 Q64.9272 913.053 63.3994 915.886 Q61.8398 918.687 58.657 920.533 M46.212 900.608 Q39.7508 900.608 36.0905 903.282 Q32.3984 905.924 32.3984 910.571 Q32.3984 915.218 36.0905 917.891 Q39.7508 920.533 46.212 920.533 Q52.6732 920.533 56.3653 917.891 Q60.0256 915.218 60.0256 910.571 Q60.0256 905.924 56.3653 903.282 Q52.6732 900.608 46.212 900.608 Z" fill="#000000" fill-rule="nonzero" fill-opacity="1" /><path clip-path="url(#clip720)" d="M33.8307 864.165 Q33.2578 865.151 33.0032 866.329 Q32.7167 867.475 32.7167 868.875 Q32.7167 873.84 35.9632 876.514 Q39.1779 879.156 45.2253 879.156 L64.0042 879.156 L64.0042 885.044 L28.3562 885.044 L28.3562 879.156 L33.8944 879.156 Q30.6479 877.31 29.0883 874.35 Q27.4968 871.39 27.4968 867.156 Q27.4968 866.552 27.5923 865.82 Q27.656 865.088 27.8151 864.196 L33.8307 864.165 Z" fill="#000000" fill-rule="nonzero" fill-opacity="1" /><path clip-path="url(#clip720)" d="M44.7161 828.962 L47.5806 828.962 L47.5806 855.889 Q53.6281 855.507 56.8109 852.261 Q59.9619 848.982 59.9619 843.158 Q59.9619 839.784 59.1344 836.633 Q58.3069 833.45 56.6518 830.331 L62.1899 830.331 Q63.5267 833.482 64.227 836.792 Q64.9272 840.102 64.9272 843.508 Q64.9272 852.038 59.9619 857.035 Q54.9967 862 46.5303 862 Q37.7774 862 32.6531 857.29 Q27.4968 852.547 27.4968 844.526 Q27.4968 837.333 32.1438 833.164 Q36.7589 828.962 44.7161 828.962 M42.9973 834.819 Q38.1912 834.882 35.3266 837.524 Q32.4621 840.134 32.4621 844.463 Q32.4621 849.364 35.2312 852.324 Q38.0002 855.253 43.0292 855.698 L42.9973 834.819 Z" fill="#000000" fill-rule="nonzero" fill-opacity="1" /><path clip-path="url(#clip720)" d="M28.3562 823.551 L28.3562 817.345 L58.275 806.205 L28.3562 795.065 L28.3562 788.858 L64.0042 802.226 L64.0042 810.183 L28.3562 823.551 Z" fill="#000000" fill-rule="nonzero" fill-opacity="1" /><path clip-path="url(#clip720)" d="M28.3562 780.774 L28.3562 774.917 L64.0042 774.917 L64.0042 780.774 L28.3562 780.774 M14.479 780.774 L14.479 774.917 L21.895 774.917 L21.895 780.774 L14.479 780.774 Z" fill="#000000" fill-rule="nonzero" fill-opacity="1" /><path clip-path="url(#clip720)" d="M32.4621 748.85 Q32.4621 753.56 36.1542 756.298 Q39.8145 759.035 46.212 759.035 Q52.6095 759.035 56.3017 756.33 Q59.9619 753.592 59.9619 748.85 Q59.9619 744.171 56.2698 741.434 Q52.5777 738.697 46.212 738.697 Q39.8781 738.697 36.186 741.434 Q32.4621 744.171 32.4621 748.85 M27.4968 748.85 Q27.4968 741.211 32.4621 736.85 Q37.4273 732.49 46.212 732.49 Q54.9649 732.49 59.9619 736.85 Q64.9272 741.211 64.9272 748.85 Q64.9272 756.521 59.9619 760.881 Q54.9649 765.21 46.212 765.21 Q37.4273 765.21 32.4621 760.881 Q27.4968 756.521 27.4968 748.85 Z" fill="#000000" fill-rule="nonzero" fill-opacity="1" /><path clip-path="url(#clip720)" d="M49.9359 723.387 L28.3562 723.387 L28.3562 717.531 L49.7131 717.531 Q54.7739 717.531 57.3202 715.557 Q59.8346 713.584 59.8346 709.637 Q59.8346 704.895 56.8109 702.157 Q53.7872 699.388 48.5673 699.388 L28.3562 699.388 L28.3562 693.532 L64.0042 693.532 L64.0042 699.388 L58.5296 699.388 Q61.7762 701.521 63.3676 704.354 Q64.9272 707.154 64.9272 710.878 Q64.9272 717.021 61.1078 720.204 Q57.2883 723.387 49.9359 723.387 M27.4968 708.65 L27.4968 708.65 Z" fill="#000000" fill-rule="nonzero" fill-opacity="1" /><path clip-path="url(#clip720)" d="M29.4065 658.743 L34.9447 658.743 Q33.6716 661.226 33.035 663.899 Q32.3984 666.573 32.3984 669.438 Q32.3984 673.798 33.7352 675.994 Q35.072 678.159 37.7456 678.159 Q39.7826 678.159 40.9603 676.599 Q42.1061 675.039 43.1565 670.329 L43.6021 668.324 Q44.9389 662.085 47.3897 659.475 Q49.8086 656.834 54.1691 656.834 Q59.1344 656.834 62.0308 660.78 Q64.9272 664.695 64.9272 671.57 Q64.9272 674.435 64.3543 677.554 Q63.8132 680.641 62.6992 684.079 L56.6518 684.079 Q58.3387 680.832 59.198 677.681 Q60.0256 674.53 60.0256 671.443 Q60.0256 667.305 58.6251 665.077 Q57.1929 662.849 54.6147 662.849 Q52.2276 662.849 50.9545 664.472 Q49.6813 666.064 48.5037 671.507 L48.0262 673.544 Q46.8804 678.986 44.5251 681.405 Q42.138 683.824 38.0002 683.824 Q32.9713 683.824 30.2341 680.259 Q27.4968 676.695 27.4968 670.138 Q27.4968 666.891 27.9743 664.027 Q28.4517 661.162 29.4065 658.743 Z" fill="#000000" fill-rule="nonzero" fill-opacity="1" /><path clip-path="url(#clip720)" d="M29.4065 604.062 L34.9447 604.062 Q33.6716 606.544 33.035 609.218 Q32.3984 611.892 32.3984 614.756 Q32.3984 619.117 33.7352 621.313 Q35.072 623.477 37.7456 623.477 Q39.7826 623.477 40.9603 621.918 Q42.1061 620.358 43.1565 615.647 L43.6021 613.642 Q44.9389 607.404 47.3897 604.794 Q49.8086 602.152 54.1691 602.152 Q59.1344 602.152 62.0308 606.099 Q64.9272 610.014 64.9272 616.889 Q64.9272 619.753 64.3543 622.873 Q63.8132 625.96 62.6992 629.397 L56.6518 629.397 Q58.3387 626.151 59.198 623 Q60.0256 619.849 60.0256 616.761 Q60.0256 612.624 58.6251 610.396 Q57.1929 608.168 54.6147 608.168 Q52.2276 608.168 50.9545 609.791 Q49.6813 611.382 48.5037 616.825 L48.0262 618.862 Q46.8804 624.305 44.5251 626.724 Q42.138 629.143 38.0002 629.143 Q32.9713 629.143 30.2341 625.578 Q27.4968 622.013 27.4968 615.456 Q27.4968 612.21 27.9743 609.345 Q28.4517 606.481 29.4065 604.062 Z" fill="#000000" fill-rule="nonzero" fill-opacity="1" /><path clip-path="url(#clip720)" d="M49.9359 593.431 L28.3562 593.431 L28.3562 587.575 L49.7131 587.575 Q54.7739 587.575 57.3202 585.601 Q59.8346 583.628 59.8346 579.681 Q59.8346 574.939 56.8109 572.201 Q53.7872 569.432 48.5673 569.432 L28.3562 569.432 L28.3562 563.576 L64.0042 563.576 L64.0042 569.432 L58.5296 569.432 Q61.7762 571.565 63.3676 574.398 Q64.9272 577.199 64.9272 580.923 Q64.9272 587.065 61.1078 590.248 Q57.2883 593.431 49.9359 593.431 M27.4968 578.695 L27.4968 578.695 Z" fill="#000000" fill-rule="nonzero" fill-opacity="1" /><path clip-path="url(#clip720)" d="M46.212 525.923 Q39.7508 525.923 36.0905 528.596 Q32.3984 531.238 32.3984 535.885 Q32.3984 540.532 36.0905 543.206 Q39.7508 545.847 46.212 545.847 Q52.6732 545.847 56.3653 543.206 Q60.0256 540.532 60.0256 535.885 Q60.0256 531.238 56.3653 528.596 Q52.6732 525.923 46.212 525.923 M33.7671 545.847 Q30.5842 544.001 29.0564 541.2 Q27.4968 538.368 27.4968 534.453 Q27.4968 527.96 32.6531 523.918 Q37.8093 519.844 46.212 519.844 Q54.6147 519.844 59.771 523.918 Q64.9272 527.96 64.9272 534.453 Q64.9272 538.368 63.3994 541.2 Q61.8398 544.001 58.657 545.847 L64.0042 545.847 L64.0042 551.736 L14.479 551.736 L14.479 545.847 L33.7671 545.847 Z" fill="#000000" fill-rule="nonzero" fill-opacity="1" /><path clip-path="url(#clip720)" d="M43.5384 513.096 L43.5384 495.94 L48.7583 495.94 L48.7583 513.096 L43.5384 513.096 Z" fill="#000000" fill-rule="nonzero" fill-opacity="1" /><path clip-path="url(#clip720)" d="M28.3562 486.615 L28.3562 480.758 L64.0042 480.758 L64.0042 486.615 L28.3562 486.615 M14.479 486.615 L14.479 480.758 L21.895 480.758 L21.895 486.615 L14.479 486.615 Z" fill="#000000" fill-rule="nonzero" fill-opacity="1" /><path clip-path="url(#clip720)" d="M18.2347 462.711 L28.3562 462.711 L28.3562 450.648 L32.9077 450.648 L32.9077 462.711 L52.2594 462.711 Q56.6199 462.711 57.8613 461.534 Q59.1026 460.324 59.1026 456.664 L59.1026 450.648 L64.0042 450.648 L64.0042 456.664 Q64.0042 463.443 61.4897 466.021 Q58.9434 468.6 52.2594 468.6 L32.9077 468.6 L32.9077 472.896 L28.3562 472.896 L28.3562 468.6 L18.2347 468.6 L18.2347 462.711 Z" fill="#000000" fill-rule="nonzero" fill-opacity="1" /><path clip-path="url(#clip720)" d="M44.7161 412.454 L47.5806 412.454 L47.5806 439.381 Q53.6281 438.999 56.8109 435.753 Q59.9619 432.474 59.9619 426.65 Q59.9619 423.276 59.1344 420.125 Q58.3069 416.942 56.6518 413.823 L62.1899 413.823 Q63.5267 416.974 64.227 420.284 Q64.9272 423.594 64.9272 427 Q64.9272 435.53 59.9619 440.527 Q54.9967 445.492 46.5303 445.492 Q37.7774 445.492 32.6531 440.781 Q27.4968 436.039 27.4968 428.018 Q27.4968 420.825 32.1438 416.655 Q36.7589 412.454 44.7161 412.454 M42.9973 418.311 Q38.1912 418.374 35.3266 421.016 Q32.4621 423.626 32.4621 427.955 Q32.4621 432.856 35.2312 435.816 Q38.0002 438.744 43.0292 439.19 L42.9973 418.311 Z" fill="#000000" fill-rule="nonzero" fill-opacity="1" /><path clip-path="url(#clip720)" d="M33.8307 382.185 Q33.2578 383.172 33.0032 384.349 Q32.7167 385.495 32.7167 386.896 Q32.7167 391.861 35.9632 394.535 Q39.1779 397.176 45.2253 397.176 L64.0042 397.176 L64.0042 403.065 L28.3562 403.065 L28.3562 397.176 L33.8944 397.176 Q30.6479 395.33 29.0883 392.37 Q27.4968 389.41 27.4968 385.177 Q27.4968 384.572 27.5923 383.84 Q27.656 383.108 27.8151 382.217 L33.8307 382.185 Z" fill="#000000" fill-rule="nonzero" fill-opacity="1" /><path clip-path="url(#clip720)" d="M46.0847 359.842 Q46.0847 366.939 47.7079 369.677 Q49.3312 372.414 53.2461 372.414 Q56.3653 372.414 58.2114 370.377 Q60.0256 368.308 60.0256 364.775 Q60.0256 359.905 56.5881 356.977 Q53.1188 354.017 47.3897 354.017 L46.0847 354.017 L46.0847 359.842 M43.6657 348.16 L64.0042 348.16 L64.0042 354.017 L58.5933 354.017 Q61.8398 356.022 63.3994 359.014 Q64.9272 362.006 64.9272 366.335 Q64.9272 371.809 61.8716 375.056 Q58.7843 378.27 53.6281 378.27 Q47.6125 378.27 44.5569 374.26 Q41.5014 370.218 41.5014 362.229 L41.5014 354.017 L40.9285 354.017 Q36.8862 354.017 34.6901 356.69 Q32.4621 359.332 32.4621 364.138 Q32.4621 367.194 33.1941 370.09 Q33.9262 372.987 35.3903 375.66 L29.9795 375.66 Q28.7381 372.446 28.1334 369.422 Q27.4968 366.398 27.4968 363.534 Q27.4968 355.799 31.5072 351.98 Q35.5176 348.16 43.6657 348.16 Z" fill="#000000" fill-rule="nonzero" fill-opacity="1" /><path clip-path="url(#clip720)" d="M18.2347 330.305 L28.3562 330.305 L28.3562 318.242 L32.9077 318.242 L32.9077 330.305 L52.2594 330.305 Q56.6199 330.305 57.8613 329.127 Q59.1026 327.917 59.1026 324.257 L59.1026 318.242 L64.0042 318.242 L64.0042 324.257 Q64.0042 331.037 61.4897 333.615 Q58.9434 336.193 52.2594 336.193 L32.9077 336.193 L32.9077 340.49 L28.3562 340.49 L28.3562 336.193 L18.2347 336.193 L18.2347 330.305 Z" fill="#000000" fill-rule="nonzero" fill-opacity="1" /><path clip-path="url(#clip720)" d="M28.3562 310.539 L28.3562 304.683 L64.0042 304.683 L64.0042 310.539 L28.3562 310.539 M14.479 310.539 L14.479 304.683 L21.895 304.683 L21.895 310.539 L14.479 310.539 Z" fill="#000000" fill-rule="nonzero" fill-opacity="1" /><path clip-path="url(#clip720)" d="M32.4621 278.615 Q32.4621 283.326 36.1542 286.063 Q39.8145 288.8 46.212 288.8 Q52.6095 288.8 56.3017 286.095 Q59.9619 283.358 59.9619 278.615 Q59.9619 273.936 56.2698 271.199 Q52.5777 268.462 46.212 268.462 Q39.8781 268.462 36.186 271.199 Q32.4621 273.936 32.4621 278.615 M27.4968 278.615 Q27.4968 270.976 32.4621 266.616 Q37.4273 262.255 46.212 262.255 Q54.9649 262.255 59.9619 266.616 Q64.9272 270.976 64.9272 278.615 Q64.9272 286.286 59.9619 290.646 Q54.9649 294.975 46.212 294.975 Q37.4273 294.975 32.4621 290.646 Q27.4968 286.286 27.4968 278.615 Z" fill="#000000" fill-rule="nonzero" fill-opacity="1" /><path clip-path="url(#clip720)" d="M42.4881 222.915 L64.0042 222.915 L64.0042 228.772 L42.679 228.772 Q37.6183 228.772 35.1038 230.745 Q32.5894 232.718 32.5894 236.665 Q32.5894 241.408 35.6131 244.145 Q38.6368 246.882 43.8567 246.882 L64.0042 246.882 L64.0042 252.77 L28.3562 252.77 L28.3562 246.882 L33.8944 246.882 Q30.6797 244.781 29.0883 241.949 Q27.4968 239.084 27.4968 235.36 Q27.4968 229.217 31.3163 226.066 Q35.1038 222.915 42.4881 222.915 Z" fill="#000000" fill-rule="nonzero" fill-opacity="1" /><path clip-path="url(#clip720)" d="M275.536 43.6931 L275.536 65.8515 L288.661 65.8515 Q295.264 65.8515 298.424 63.1374 Q301.624 60.3828 301.624 54.752 Q301.624 49.0808 298.424 46.4072 Q295.264 43.6931 288.661 43.6931 L275.536 43.6931 M275.536 18.8205 L275.536 37.0496 L287.648 37.0496 Q293.644 37.0496 296.56 34.8216 Q299.517 32.5531 299.517 27.935 Q299.517 23.3575 296.56 21.089 Q293.644 18.8205 287.648 18.8205 L275.536 18.8205 M267.353 12.096 L288.256 12.096 Q297.613 12.096 302.677 15.9849 Q307.741 19.8737 307.741 27.0438 Q307.741 32.5936 305.148 35.8748 Q302.556 39.156 297.532 39.9662 Q303.568 41.2625 306.89 45.3944 Q310.252 49.4858 310.252 55.6432 Q310.252 63.745 304.743 68.1605 Q299.234 72.576 289.066 72.576 L267.353 72.576 L267.353 12.096 Z" fill="#000000" fill-rule="nonzero" fill-opacity="1" /><path clip-path="url(#clip720)" d="M362.752 48.0275 L362.752 51.6733 L328.481 51.6733 Q328.967 59.3701 333.099 63.421 Q337.272 67.4314 344.685 67.4314 Q348.979 67.4314 352.989 66.3781 Q357.04 65.3249 361.01 63.2184 L361.01 70.267 Q357 71.9684 352.787 72.8596 Q348.574 73.7508 344.239 73.7508 Q333.383 73.7508 327.023 67.4314 Q320.704 61.1119 320.704 50.3365 Q320.704 39.1965 326.699 32.6746 Q332.735 26.1121 342.943 26.1121 Q352.098 26.1121 357.405 32.0264 Q362.752 37.9003 362.752 48.0275 M355.298 45.84 Q355.217 39.7232 351.855 36.0774 Q348.533 32.4315 343.024 32.4315 Q336.786 32.4315 333.018 35.9558 Q329.291 39.4801 328.724 45.8805 L355.298 45.84 Z" fill="#000000" fill-rule="nonzero" fill-opacity="1" /><path clip-path="url(#clip720)" d="M395.605 49.7694 Q386.571 49.7694 383.087 51.8354 Q379.604 53.9013 379.604 58.8839 Q379.604 62.8538 382.196 65.2034 Q384.829 67.5124 389.326 67.5124 Q395.524 67.5124 399.251 63.1374 Q403.018 58.7219 403.018 51.4303 L403.018 49.7694 L395.605 49.7694 M410.472 46.6907 L410.472 72.576 L403.018 72.576 L403.018 65.6895 Q400.466 69.8214 396.658 71.8063 Q392.85 73.7508 387.341 73.7508 Q380.373 73.7508 376.241 69.8619 Q372.15 65.9325 372.15 59.3701 Q372.15 51.7138 377.254 47.825 Q382.399 43.9361 392.567 43.9361 L403.018 43.9361 L403.018 43.2069 Q403.018 38.0623 399.615 35.2672 Q396.253 32.4315 390.136 32.4315 Q386.247 32.4315 382.561 33.3632 Q378.875 34.295 375.472 36.1584 L375.472 29.2718 Q379.563 27.692 383.412 26.9223 Q387.26 26.1121 390.906 26.1121 Q400.749 26.1121 405.611 31.2163 Q410.472 36.3204 410.472 46.6907 Z" fill="#000000" fill-rule="nonzero" fill-opacity="1" /><path clip-path="url(#clip720)" d="M420.477 27.2059 L428.377 27.2059 L442.555 65.2844 L456.733 27.2059 L464.632 27.2059 L447.618 72.576 L437.491 72.576 L420.477 27.2059 Z" fill="#000000" fill-rule="nonzero" fill-opacity="1" /><path clip-path="url(#clip720)" d="M474.921 27.2059 L482.375 27.2059 L482.375 72.576 L474.921 72.576 L474.921 27.2059 M474.921 9.54393 L482.375 9.54393 L482.375 18.9825 L474.921 18.9825 L474.921 9.54393 Z" fill="#000000" fill-rule="nonzero" fill-opacity="1" /><path clip-path="url(#clip720)" d="M515.552 32.4315 Q509.557 32.4315 506.073 37.1306 Q502.589 41.7891 502.589 49.9314 Q502.589 58.0738 506.032 62.7728 Q509.516 67.4314 515.552 67.4314 Q521.507 67.4314 524.991 62.7323 Q528.474 58.0333 528.474 49.9314 Q528.474 41.8701 524.991 37.1711 Q521.507 32.4315 515.552 32.4315 M515.552 26.1121 Q525.274 26.1121 530.824 32.4315 Q536.374 38.7509 536.374 49.9314 Q536.374 61.0714 530.824 67.4314 Q525.274 73.7508 515.552 73.7508 Q505.789 73.7508 500.24 67.4314 Q494.73 61.0714 494.73 49.9314 Q494.73 38.7509 500.24 32.4315 Q505.789 26.1121 515.552 26.1121 Z" fill="#000000" fill-rule="nonzero" fill-opacity="1" /><path clip-path="url(#clip720)" d="M547.959 54.671 L547.959 27.2059 L555.413 27.2059 L555.413 54.3874 Q555.413 60.8284 557.925 64.0691 Q560.436 67.2693 565.459 67.2693 Q571.495 67.2693 574.979 63.421 Q578.503 59.5726 578.503 52.9291 L578.503 27.2059 L585.957 27.2059 L585.957 72.576 L578.503 72.576 L578.503 65.6084 Q575.789 69.7404 572.184 71.7658 Q568.619 73.7508 563.879 73.7508 Q556.061 73.7508 552.01 68.8897 Q547.959 64.0286 547.959 54.671 M566.715 26.1121 L566.715 26.1121 Z" fill="#000000" fill-rule="nonzero" fill-opacity="1" /><path clip-path="url(#clip720)" d="M627.6 34.1734 Q626.344 33.4443 624.845 33.1202 Q623.387 32.7556 621.605 32.7556 Q615.285 32.7556 611.883 36.8875 Q608.52 40.9789 608.52 48.6757 L608.52 72.576 L601.026 72.576 L601.026 27.2059 L608.52 27.2059 L608.52 34.2544 Q610.87 30.1225 614.637 28.1376 Q618.405 26.1121 623.792 26.1121 Q624.562 26.1121 625.494 26.2337 Q626.425 26.3147 627.56 26.5172 L627.6 34.1734 Z" fill="#000000" fill-rule="nonzero" fill-opacity="1" /><path clip-path="url(#clip720)" d="M679.371 32.4315 Q673.375 32.4315 669.892 37.1306 Q666.408 41.7891 666.408 49.9314 Q666.408 58.0738 669.851 62.7728 Q673.335 67.4314 679.371 67.4314 Q685.325 67.4314 688.809 62.7323 Q692.293 58.0333 692.293 49.9314 Q692.293 41.8701 688.809 37.1711 Q685.325 32.4315 679.371 32.4315 M679.371 26.1121 Q689.093 26.1121 694.643 32.4315 Q700.192 38.7509 700.192 49.9314 Q700.192 61.0714 694.643 67.4314 Q689.093 73.7508 679.371 73.7508 Q669.608 73.7508 664.058 67.4314 Q658.549 61.0714 658.549 49.9314 Q658.549 38.7509 664.058 32.4315 Q669.608 26.1121 679.371 26.1121 Z" fill="#000000" fill-rule="nonzero" fill-opacity="1" /><path clip-path="url(#clip720)" d="M735.516 9.54393 L735.516 15.7418 L728.387 15.7418 Q724.376 15.7418 722.796 17.3622 Q721.257 18.9825 721.257 23.1955 L721.257 27.2059 L733.531 27.2059 L733.531 32.9987 L721.257 32.9987 L721.257 72.576 L713.763 72.576 L713.763 32.9987 L706.633 32.9987 L706.633 27.2059 L713.763 27.2059 L713.763 24.0462 Q713.763 16.471 717.287 13.0277 Q720.811 9.54393 728.468 9.54393 L735.516 9.54393 Z" fill="#000000" fill-rule="nonzero" fill-opacity="1" /><path clip-path="url(#clip720)" d="M775.499 14.324 L775.499 27.2059 L790.852 27.2059 L790.852 32.9987 L775.499 32.9987 L775.499 57.6282 Q775.499 63.1779 776.997 64.7578 Q778.537 66.3376 783.195 66.3376 L790.852 66.3376 L790.852 72.576 L783.195 72.576 Q774.567 72.576 771.286 69.3758 Q768.004 66.1351 768.004 57.6282 L768.004 32.9987 L762.536 32.9987 L762.536 27.2059 L768.004 27.2059 L768.004 14.324 L775.499 14.324 Z" fill="#000000" fill-rule="nonzero" fill-opacity="1" /><path clip-path="url(#clip720)" d="M838.369 45.1919 L838.369 72.576 L830.915 72.576 L830.915 45.4349 Q830.915 38.994 828.403 35.7938 Q825.892 32.5936 820.869 32.5936 Q814.833 32.5936 811.349 36.4419 Q807.865 40.2903 807.865 46.9338 L807.865 72.576 L800.371 72.576 L800.371 9.54393 L807.865 9.54393 L807.865 34.2544 Q810.539 30.163 814.144 28.1376 Q817.79 26.1121 822.53 26.1121 Q830.348 26.1121 834.358 30.9732 Q838.369 35.7938 838.369 45.1919 Z" fill="#000000" fill-rule="nonzero" fill-opacity="1" /><path clip-path="url(#clip720)" d="M892.043 48.0275 L892.043 51.6733 L857.772 51.6733 Q858.259 59.3701 862.39 63.421 Q866.563 67.4314 873.976 67.4314 Q878.27 67.4314 882.28 66.3781 Q886.331 65.3249 890.301 63.2184 L890.301 70.267 Q886.291 71.9684 882.078 72.8596 Q877.865 73.7508 873.53 73.7508 Q862.674 73.7508 856.314 67.4314 Q849.995 61.1119 849.995 50.3365 Q849.995 39.1965 855.99 32.6746 Q862.026 26.1121 872.234 26.1121 Q881.389 26.1121 886.696 32.0264 Q892.043 37.9003 892.043 48.0275 M884.589 45.84 Q884.508 39.7232 881.146 36.0774 Q877.824 32.4315 872.315 32.4315 Q866.077 32.4315 862.309 35.9558 Q858.583 39.4801 858.015 45.8805 L884.589 45.84 Z" fill="#000000" fill-rule="nonzero" fill-opacity="1" /><path clip-path="url(#clip720)" d="M959.572 28.5427 L959.572 35.5912 Q956.412 33.9709 953.009 33.1607 Q949.606 32.3505 945.961 32.3505 Q940.411 32.3505 937.616 34.0519 Q934.861 35.7533 934.861 39.156 Q934.861 41.7486 936.846 43.2475 Q938.831 44.7058 944.826 46.0426 L947.378 46.6097 Q955.318 48.3111 958.64 51.4303 Q962.002 54.509 962.002 60.0587 Q962.002 66.3781 956.979 70.0644 Q951.996 73.7508 943.247 73.7508 Q939.601 73.7508 935.631 73.0216 Q931.701 72.3329 927.326 70.9151 L927.326 63.2184 Q931.458 65.3654 935.469 66.4591 Q939.479 67.5124 943.409 67.5124 Q948.675 67.5124 951.51 65.73 Q954.346 63.9071 954.346 60.6258 Q954.346 57.5877 952.28 55.9673 Q950.255 54.3469 943.328 52.8481 L940.735 52.2405 Q933.808 50.7821 930.729 47.7845 Q927.651 44.7463 927.651 39.4801 Q927.651 33.0797 932.188 29.5959 Q936.725 26.1121 945.069 26.1121 Q949.201 26.1121 952.847 26.7198 Q956.493 27.3274 959.572 28.5427 Z" fill="#000000" fill-rule="nonzero" fill-opacity="1" /><path clip-path="url(#clip720)" d="M991.452 32.4315 Q985.457 32.4315 981.973 37.1306 Q978.489 41.7891 978.489 49.9314 Q978.489 58.0738 981.933 62.7728 Q985.416 67.4314 991.452 67.4314 Q997.407 67.4314 1000.89 62.7323 Q1004.37 58.0333 1004.37 49.9314 Q1004.37 41.8701 1000.89 37.1711 Q997.407 32.4315 991.452 32.4315 M991.452 26.1121 Q1001.17 26.1121 1006.72 32.4315 Q1012.27 38.7509 1012.27 49.9314 Q1012.27 61.0714 1006.72 67.4314 Q1001.17 73.7508 991.452 73.7508 Q981.69 73.7508 976.14 67.4314 Q970.631 61.0714 970.631 49.9314 Q970.631 38.7509 976.14 32.4315 Q981.69 26.1121 991.452 26.1121 Z" fill="#000000" fill-rule="nonzero" fill-opacity="1" /><path clip-path="url(#clip720)" d="M1024.63 9.54393 L1032.08 9.54393 L1032.08 72.576 L1024.63 72.576 L1024.63 9.54393 Z" fill="#000000" fill-rule="nonzero" fill-opacity="1" /><path clip-path="url(#clip720)" d="M1042.33 27.2059 L1050.23 27.2059 L1064.41 65.2844 L1078.59 27.2059 L1086.49 27.2059 L1069.47 72.576 L1059.35 72.576 L1042.33 27.2059 Z" fill="#000000" fill-rule="nonzero" fill-opacity="1" /><path clip-path="url(#clip720)" d="M1135.58 48.0275 L1135.58 51.6733 L1101.31 51.6733 Q1101.8 59.3701 1105.93 63.421 Q1110.1 67.4314 1117.52 67.4314 Q1121.81 67.4314 1125.82 66.3781 Q1129.87 65.3249 1133.84 63.2184 L1133.84 70.267 Q1129.83 71.9684 1125.62 72.8596 Q1121.41 73.7508 1117.07 73.7508 Q1106.21 73.7508 1099.85 67.4314 Q1093.54 61.1119 1093.54 50.3365 Q1093.54 39.1965 1099.53 32.6746 Q1105.57 26.1121 1115.77 26.1121 Q1124.93 26.1121 1130.24 32.0264 Q1135.58 37.9003 1135.58 48.0275 M1128.13 45.84 Q1128.05 39.7232 1124.69 36.0774 Q1121.36 32.4315 1115.86 32.4315 Q1109.62 32.4315 1105.85 35.9558 Q1102.12 39.4801 1101.56 45.8805 L1128.13 45.84 Z" fill="#000000" fill-rule="nonzero" fill-opacity="1" /><path clip-path="url(#clip720)" d="M1174.11 34.1734 Q1172.85 33.4443 1171.35 33.1202 Q1169.89 32.7556 1168.11 32.7556 Q1161.79 32.7556 1158.39 36.8875 Q1155.03 40.9789 1155.03 48.6757 L1155.03 72.576 L1147.53 72.576 L1147.53 27.2059 L1155.03 27.2059 L1155.03 34.2544 Q1157.38 30.1225 1161.14 28.1376 Q1164.91 26.1121 1170.3 26.1121 Q1171.07 26.1121 1172 26.2337 Q1172.93 26.3147 1174.07 26.5172 L1174.11 34.1734 Z" fill="#000000" fill-rule="nonzero" fill-opacity="1" /><path clip-path="url(#clip720)" d="M1231.27 9.54393 L1231.27 15.7418 L1224.14 15.7418 Q1220.13 15.7418 1218.55 17.3622 Q1217.01 18.9825 1217.01 23.1955 L1217.01 27.2059 L1229.28 27.2059 L1229.28 32.9987 L1217.01 32.9987 L1217.01 72.576 L1209.51 72.576 L1209.51 32.9987 L1202.38 32.9987 L1202.38 27.2059 L1209.51 27.2059 L1209.51 24.0462 Q1209.51 16.471 1213.04 13.0277 Q1216.56 9.54393 1224.22 9.54393 L1231.27 9.54393 Z" fill="#000000" fill-rule="nonzero" fill-opacity="1" /><path clip-path="url(#clip720)" d="M1255.09 32.4315 Q1249.09 32.4315 1245.61 37.1306 Q1242.12 41.7891 1242.12 49.9314 Q1242.12 58.0738 1245.57 62.7728 Q1249.05 67.4314 1255.09 67.4314 Q1261.04 67.4314 1264.52 62.7323 Q1268.01 58.0333 1268.01 49.9314 Q1268.01 41.8701 1264.52 37.1711 Q1261.04 32.4315 1255.09 32.4315 M1255.09 26.1121 Q1264.81 26.1121 1270.36 32.4315 Q1275.91 38.7509 1275.91 49.9314 Q1275.91 61.0714 1270.36 67.4314 Q1264.81 73.7508 1255.09 73.7508 Q1245.32 73.7508 1239.77 67.4314 Q1234.26 61.0714 1234.26 49.9314 Q1234.26 38.7509 1239.77 32.4315 Q1245.32 26.1121 1255.09 26.1121 Z" fill="#000000" fill-rule="nonzero" fill-opacity="1" /><path clip-path="url(#clip720)" d="M1314.55 34.1734 Q1313.3 33.4443 1311.8 33.1202 Q1310.34 32.7556 1308.56 32.7556 Q1302.24 32.7556 1298.83 36.8875 Q1295.47 40.9789 1295.47 48.6757 L1295.47 72.576 L1287.98 72.576 L1287.98 27.2059 L1295.47 27.2059 L1295.47 34.2544 Q1297.82 30.1225 1301.59 28.1376 Q1305.36 26.1121 1310.74 26.1121 Q1311.51 26.1121 1312.45 26.2337 Q1313.38 26.3147 1314.51 26.5172 L1314.55 34.1734 Z" fill="#000000" fill-rule="nonzero" fill-opacity="1" /><path clip-path="url(#clip720)" d="M1348.74 27.2059 L1356.2 27.2059 L1356.2 72.576 L1348.74 72.576 L1348.74 27.2059 M1348.74 9.54393 L1356.2 9.54393 L1356.2 18.9825 L1348.74 18.9825 L1348.74 9.54393 Z" fill="#000000" fill-rule="nonzero" fill-opacity="1" /><path clip-path="url(#clip720)" d="M1409.51 45.1919 L1409.51 72.576 L1402.05 72.576 L1402.05 45.4349 Q1402.05 38.994 1399.54 35.7938 Q1397.03 32.5936 1392.01 32.5936 Q1385.97 32.5936 1382.49 36.4419 Q1379 40.2903 1379 46.9338 L1379 72.576 L1371.51 72.576 L1371.51 27.2059 L1379 27.2059 L1379 34.2544 Q1381.68 30.163 1385.28 28.1376 Q1388.93 26.1121 1393.67 26.1121 Q1401.48 26.1121 1405.5 30.9732 Q1409.51 35.7938 1409.51 45.1919 Z" fill="#000000" fill-rule="nonzero" fill-opacity="1" /><path clip-path="url(#clip720)" d="M1457.02 28.9478 L1457.02 35.9153 Q1453.86 34.1734 1450.66 33.3227 Q1447.5 32.4315 1444.26 32.4315 Q1437.01 32.4315 1433 37.0496 Q1428.99 41.6271 1428.99 49.9314 Q1428.99 58.2358 1433 62.8538 Q1437.01 67.4314 1444.26 67.4314 Q1447.5 67.4314 1450.66 66.5807 Q1453.86 65.6895 1457.02 63.9476 L1457.02 70.8341 Q1453.9 72.2924 1450.54 73.0216 Q1447.22 73.7508 1443.45 73.7508 Q1433.2 73.7508 1427.17 67.3098 Q1421.13 60.8689 1421.13 49.9314 Q1421.13 38.832 1427.21 32.472 Q1433.32 26.1121 1443.94 26.1121 Q1447.38 26.1121 1450.66 26.8413 Q1453.94 27.5299 1457.02 28.9478 Z" fill="#000000" fill-rule="nonzero" fill-opacity="1" /><path clip-path="url(#clip720)" d="M1496.28 34.1734 Q1495.02 33.4443 1493.52 33.1202 Q1492.06 32.7556 1490.28 32.7556 Q1483.96 32.7556 1480.56 36.8875 Q1477.2 40.9789 1477.2 48.6757 L1477.2 72.576 L1469.7 72.576 L1469.7 27.2059 L1477.2 27.2059 L1477.2 34.2544 Q1479.55 30.1225 1483.31 28.1376 Q1487.08 26.1121 1492.47 26.1121 Q1493.24 26.1121 1494.17 26.2337 Q1495.1 26.3147 1496.24 26.5172 L1496.28 34.1734 Z" fill="#000000" fill-rule="nonzero" fill-opacity="1" /><path clip-path="url(#clip720)" d="M1541.08 48.0275 L1541.08 51.6733 L1506.81 51.6733 Q1507.29 59.3701 1511.43 63.421 Q1515.6 67.4314 1523.01 67.4314 Q1527.31 67.4314 1531.32 66.3781 Q1535.37 65.3249 1539.34 63.2184 L1539.34 70.267 Q1535.33 71.9684 1531.11 72.8596 Q1526.9 73.7508 1522.57 73.7508 Q1511.71 73.7508 1505.35 67.4314 Q1499.03 61.1119 1499.03 50.3365 Q1499.03 39.1965 1505.03 32.6746 Q1511.06 26.1121 1521.27 26.1121 Q1530.43 26.1121 1535.73 32.0264 Q1541.08 37.9003 1541.08 48.0275 M1533.63 45.84 Q1533.54 39.7232 1530.18 36.0774 Q1526.86 32.4315 1521.35 32.4315 Q1515.11 32.4315 1511.35 35.9558 Q1507.62 39.4801 1507.05 45.8805 L1533.63 45.84 Z" fill="#000000" fill-rule="nonzero" fill-opacity="1" /><path clip-path="url(#clip720)" d="M1573.93 49.7694 Q1564.9 49.7694 1561.41 51.8354 Q1557.93 53.9013 1557.93 58.8839 Q1557.93 62.8538 1560.52 65.2034 Q1563.16 67.5124 1567.65 67.5124 Q1573.85 67.5124 1577.58 63.1374 Q1581.34 58.7219 1581.34 51.4303 L1581.34 49.7694 L1573.93 49.7694 M1588.8 46.6907 L1588.8 72.576 L1581.34 72.576 L1581.34 65.6895 Q1578.79 69.8214 1574.99 71.8063 Q1571.18 73.7508 1565.67 73.7508 Q1558.7 73.7508 1554.57 69.8619 Q1550.48 65.9325 1550.48 59.3701 Q1550.48 51.7138 1555.58 47.825 Q1560.73 43.9361 1570.89 43.9361 L1581.34 43.9361 L1581.34 43.2069 Q1581.34 38.0623 1577.94 35.2672 Q1574.58 32.4315 1568.46 32.4315 Q1564.57 32.4315 1560.89 33.3632 Q1557.2 34.295 1553.8 36.1584 L1553.8 29.2718 Q1557.89 27.692 1561.74 26.9223 Q1565.59 26.1121 1569.23 26.1121 Q1579.08 26.1121 1583.94 31.2163 Q1588.8 36.3204 1588.8 46.6907 Z" fill="#000000" fill-rule="nonzero" fill-opacity="1" /><path clip-path="url(#clip720)" d="M1633.07 28.5427 L1633.07 35.5912 Q1629.92 33.9709 1626.51 33.1607 Q1623.11 32.3505 1619.46 32.3505 Q1613.91 32.3505 1611.12 34.0519 Q1608.36 35.7533 1608.36 39.156 Q1608.36 41.7486 1610.35 43.2475 Q1612.33 44.7058 1618.33 46.0426 L1620.88 46.6097 Q1628.82 48.3111 1632.14 51.4303 Q1635.51 54.509 1635.51 60.0587 Q1635.51 66.3781 1630.48 70.0644 Q1625.5 73.7508 1616.75 73.7508 Q1613.1 73.7508 1609.13 73.0216 Q1605.2 72.3329 1600.83 70.9151 L1600.83 63.2184 Q1604.96 65.3654 1608.97 66.4591 Q1612.98 67.5124 1616.91 67.5124 Q1622.18 67.5124 1625.01 65.73 Q1627.85 63.9071 1627.85 60.6258 Q1627.85 57.5877 1625.78 55.9673 Q1623.76 54.3469 1616.83 52.8481 L1614.24 52.2405 Q1607.31 50.7821 1604.23 47.7845 Q1601.15 44.7463 1601.15 39.4801 Q1601.15 33.0797 1605.69 29.5959 Q1610.23 26.1121 1618.57 26.1121 Q1622.7 26.1121 1626.35 26.7198 Q1630 27.3274 1633.07 28.5427 Z" fill="#000000" fill-rule="nonzero" fill-opacity="1" /><path clip-path="url(#clip720)" d="M1647.37 27.2059 L1654.83 27.2059 L1654.83 72.576 L1647.37 72.576 L1647.37 27.2059 M1647.37 9.54393 L1654.83 9.54393 L1654.83 18.9825 L1647.37 18.9825 L1647.37 9.54393 Z" fill="#000000" fill-rule="nonzero" fill-opacity="1" /><path clip-path="url(#clip720)" d="M1708.14 45.1919 L1708.14 72.576 L1700.68 72.576 L1700.68 45.4349 Q1700.68 38.994 1698.17 35.7938 Q1695.66 32.5936 1690.64 32.5936 Q1684.6 32.5936 1681.12 36.4419 Q1677.63 40.2903 1677.63 46.9338 L1677.63 72.576 L1670.14 72.576 L1670.14 27.2059 L1677.63 27.2059 L1677.63 34.2544 Q1680.31 30.163 1683.91 28.1376 Q1687.56 26.1121 1692.3 26.1121 Q1700.12 26.1121 1704.13 30.9732 Q1708.14 35.7938 1708.14 45.1919 Z" fill="#000000" fill-rule="nonzero" fill-opacity="1" /><path clip-path="url(#clip720)" d="M1752.86 49.3643 Q1752.86 41.2625 1749.5 36.8065 Q1746.18 32.3505 1740.14 32.3505 Q1734.15 32.3505 1730.78 36.8065 Q1727.46 41.2625 1727.46 49.3643 Q1727.46 57.4256 1730.78 61.8816 Q1734.15 66.3376 1740.14 66.3376 Q1746.18 66.3376 1749.5 61.8816 Q1752.86 57.4256 1752.86 49.3643 M1760.31 66.9452 Q1760.31 78.5308 1755.17 84.1616 Q1750.02 89.8329 1739.41 89.8329 Q1735.48 89.8329 1732 89.2252 Q1728.51 88.6581 1725.23 87.4428 L1725.23 80.1917 Q1728.51 81.9741 1731.71 82.8248 Q1734.91 83.6755 1738.24 83.6755 Q1745.57 83.6755 1749.21 79.8271 Q1752.86 76.0193 1752.86 68.282 L1752.86 64.5957 Q1750.55 68.6061 1746.95 70.5911 Q1743.34 72.576 1738.32 72.576 Q1729.97 72.576 1724.87 66.2161 Q1719.76 59.8562 1719.76 49.3643 Q1719.76 38.832 1724.87 32.472 Q1729.97 26.1121 1738.32 26.1121 Q1743.34 26.1121 1746.95 28.0971 Q1750.55 30.082 1752.86 34.0924 L1752.86 27.2059 L1760.31 27.2059 L1760.31 66.9452 Z" fill="#000000" fill-rule="nonzero" fill-opacity="1" /><path clip-path="url(#clip720)" d="M1830.96 28.5427 L1830.96 35.5912 Q1827.8 33.9709 1824.4 33.1607 Q1821 32.3505 1817.35 32.3505 Q1811.8 32.3505 1809.01 34.0519 Q1806.25 35.7533 1806.25 39.156 Q1806.25 41.7486 1808.24 43.2475 Q1810.22 44.7058 1816.22 46.0426 L1818.77 46.6097 Q1826.71 48.3111 1830.03 51.4303 Q1833.39 54.509 1833.39 60.0587 Q1833.39 66.3781 1828.37 70.0644 Q1823.39 73.7508 1814.64 73.7508 Q1810.99 73.7508 1807.02 73.0216 Q1803.09 72.3329 1798.72 70.9151 L1798.72 63.2184 Q1802.85 65.3654 1806.86 66.4591 Q1810.87 67.5124 1814.8 67.5124 Q1820.06 67.5124 1822.9 65.73 Q1825.74 63.9071 1825.74 60.6258 Q1825.74 57.5877 1823.67 55.9673 Q1821.64 54.3469 1814.72 52.8481 L1812.12 52.2405 Q1805.2 50.7821 1802.12 47.7845 Q1799.04 44.7463 1799.04 39.4801 Q1799.04 33.0797 1803.58 29.5959 Q1808.11 26.1121 1816.46 26.1121 Q1820.59 26.1121 1824.24 26.7198 Q1827.88 27.3274 1830.96 28.5427 Z" fill="#000000" fill-rule="nonzero" fill-opacity="1" /><path clip-path="url(#clip720)" d="M1844.49 54.671 L1844.49 27.2059 L1851.95 27.2059 L1851.95 54.3874 Q1851.95 60.8284 1854.46 64.0691 Q1856.97 67.2693 1861.99 67.2693 Q1868.03 67.2693 1871.51 63.421 Q1875.04 59.5726 1875.04 52.9291 L1875.04 27.2059 L1882.49 27.2059 L1882.49 72.576 L1875.04 72.576 L1875.04 65.6084 Q1872.32 69.7404 1868.72 71.7658 Q1865.15 73.7508 1860.41 73.7508 Q1852.59 73.7508 1848.54 68.8897 Q1844.49 64.0286 1844.49 54.671 M1863.25 26.1121 L1863.25 26.1121 Z" fill="#000000" fill-rule="nonzero" fill-opacity="1" /><path clip-path="url(#clip720)" d="M1930.41 49.9314 Q1930.41 41.7081 1927.01 37.0496 Q1923.65 32.3505 1917.73 32.3505 Q1911.82 32.3505 1908.41 37.0496 Q1905.05 41.7081 1905.05 49.9314 Q1905.05 58.1548 1908.41 62.8538 Q1911.82 67.5124 1917.73 67.5124 Q1923.65 67.5124 1927.01 62.8538 Q1930.41 58.1548 1930.41 49.9314 M1905.05 34.0924 Q1907.4 30.0415 1910.97 28.0971 Q1914.57 26.1121 1919.55 26.1121 Q1927.82 26.1121 1932.96 32.6746 Q1938.15 39.2371 1938.15 49.9314 Q1938.15 60.6258 1932.96 67.1883 Q1927.82 73.7508 1919.55 73.7508 Q1914.57 73.7508 1910.97 71.8063 Q1907.4 69.8214 1905.05 65.7705 L1905.05 72.576 L1897.56 72.576 L1897.56 9.54393 L1905.05 9.54393 L1905.05 34.0924 Z" fill="#000000" fill-rule="nonzero" fill-opacity="1" /><path clip-path="url(#clip720)" d="M1946.74 46.5287 L1968.57 46.5287 L1968.57 53.1722 L1946.74 53.1722 L1946.74 46.5287 Z" fill="#000000" fill-rule="nonzero" fill-opacity="1" /><path clip-path="url(#clip720)" d="M1980.44 27.2059 L1987.89 27.2059 L1987.89 72.576 L1980.44 72.576 L1980.44 27.2059 M1980.44 9.54393 L1987.89 9.54393 L1987.89 18.9825 L1980.44 18.9825 L1980.44 9.54393 Z" fill="#000000" fill-rule="nonzero" fill-opacity="1" /><path clip-path="url(#clip720)" d="M2010.86 14.324 L2010.86 27.2059 L2026.22 27.2059 L2026.22 32.9987 L2010.86 32.9987 L2010.86 57.6282 Q2010.86 63.1779 2012.36 64.7578 Q2013.9 66.3376 2018.56 66.3376 L2026.22 66.3376 L2026.22 72.576 L2018.56 72.576 Q2009.93 72.576 2006.65 69.3758 Q2003.37 66.1351 2003.37 57.6282 L2003.37 32.9987 L1997.9 32.9987 L1997.9 27.2059 L2003.37 27.2059 L2003.37 14.324 L2010.86 14.324 Z" fill="#000000" fill-rule="nonzero" fill-opacity="1" /><path clip-path="url(#clip720)" d="M2074.83 48.0275 L2074.83 51.6733 L2040.56 51.6733 Q2041.04 59.3701 2045.17 63.421 Q2049.35 67.4314 2056.76 67.4314 Q2061.05 67.4314 2065.06 66.3781 Q2069.11 65.3249 2073.08 63.2184 L2073.08 70.267 Q2069.07 71.9684 2064.86 72.8596 Q2060.65 73.7508 2056.31 73.7508 Q2045.46 73.7508 2039.1 67.4314 Q2032.78 61.1119 2032.78 50.3365 Q2032.78 39.1965 2038.77 32.6746 Q2044.81 26.1121 2055.02 26.1121 Q2064.17 26.1121 2069.48 32.0264 Q2074.83 37.9003 2074.83 48.0275 M2067.37 45.84 Q2067.29 39.7232 2063.93 36.0774 Q2060.61 32.4315 2055.1 32.4315 Q2048.86 32.4315 2045.09 35.9558 Q2041.37 39.4801 2040.8 45.8805 L2067.37 45.84 Z" fill="#000000" fill-rule="nonzero" fill-opacity="1" /><path clip-path="url(#clip720)" d="M2113.35 34.1734 Q2112.09 33.4443 2110.6 33.1202 Q2109.14 32.7556 2107.35 32.7556 Q2101.04 32.7556 2097.63 36.8875 Q2094.27 40.9789 2094.27 48.6757 L2094.27 72.576 L2086.78 72.576 L2086.78 27.2059 L2094.27 27.2059 L2094.27 34.2544 Q2096.62 30.1225 2100.39 28.1376 Q2104.15 26.1121 2109.54 26.1121 Q2110.31 26.1121 2111.24 26.2337 Q2112.18 26.3147 2113.31 26.5172 L2113.35 34.1734 Z" fill="#000000" fill-rule="nonzero" fill-opacity="1" /><path clip-path="url(#clip720)" d="M2141.79 49.7694 Q2132.75 49.7694 2129.27 51.8354 Q2125.79 53.9013 2125.79 58.8839 Q2125.79 62.8538 2128.38 65.2034 Q2131.01 67.5124 2135.51 67.5124 Q2141.71 67.5124 2145.43 63.1374 Q2149.2 58.7219 2149.2 51.4303 L2149.2 49.7694 L2141.79 49.7694 M2156.65 46.6907 L2156.65 72.576 L2149.2 72.576 L2149.2 65.6895 Q2146.65 69.8214 2142.84 71.8063 Q2139.03 73.7508 2133.52 73.7508 Q2126.56 73.7508 2122.42 69.8619 Q2118.33 65.9325 2118.33 59.3701 Q2118.33 51.7138 2123.44 47.825 Q2128.58 43.9361 2138.75 43.9361 L2149.2 43.9361 L2149.2 43.2069 Q2149.2 38.0623 2145.8 35.2672 Q2142.44 32.4315 2136.32 32.4315 Q2132.43 32.4315 2128.74 33.3632 Q2125.06 34.295 2121.65 36.1584 L2121.65 29.2718 Q2125.75 27.692 2129.59 26.9223 Q2133.44 26.1121 2137.09 26.1121 Q2146.93 26.1121 2151.79 31.2163 Q2156.65 36.3204 2156.65 46.6907 Z" fill="#000000" fill-rule="nonzero" fill-opacity="1" /><path clip-path="url(#clip720)" d="M2179.38 14.324 L2179.38 27.2059 L2194.73 27.2059 L2194.73 32.9987 L2179.38 32.9987 L2179.38 57.6282 Q2179.38 63.1779 2180.88 64.7578 Q2182.42 66.3376 2187.08 66.3376 L2194.73 66.3376 L2194.73 72.576 L2187.08 72.576 Q2178.45 72.576 2175.17 69.3758 Q2171.89 66.1351 2171.89 57.6282 L2171.89 32.9987 L2166.42 32.9987 L2166.42 27.2059 L2171.89 27.2059 L2171.89 14.324 L2179.38 14.324 Z" fill="#000000" fill-rule="nonzero" fill-opacity="1" /><path clip-path="url(#clip720)" d="M2204.54 27.2059 L2211.99 27.2059 L2211.99 72.576 L2204.54 72.576 L2204.54 27.2059 M2204.54 9.54393 L2211.99 9.54393 L2211.99 18.9825 L2204.54 18.9825 L2204.54 9.54393 Z" fill="#000000" fill-rule="nonzero" fill-opacity="1" /><path clip-path="url(#clip720)" d="M2245.17 32.4315 Q2239.17 32.4315 2235.69 37.1306 Q2232.2 41.7891 2232.2 49.9314 Q2232.2 58.0738 2235.65 62.7728 Q2239.13 67.4314 2245.17 67.4314 Q2251.12 67.4314 2254.61 62.7323 Q2258.09 58.0333 2258.09 49.9314 Q2258.09 41.8701 2254.61 37.1711 Q2251.12 32.4315 2245.17 32.4315 M2245.17 26.1121 Q2254.89 26.1121 2260.44 32.4315 Q2265.99 38.7509 2265.99 49.9314 Q2265.99 61.0714 2260.44 67.4314 Q2254.89 73.7508 2245.17 73.7508 Q2235.4 73.7508 2229.85 67.4314 Q2224.34 61.0714 2224.34 49.9314 Q2224.34 38.7509 2229.85 32.4315 Q2235.4 26.1121 2245.17 26.1121 Z" fill="#000000" fill-rule="nonzero" fill-opacity="1" /><path clip-path="url(#clip720)" d="M2316.06 45.1919 L2316.06 72.576 L2308.6 72.576 L2308.6 45.4349 Q2308.6 38.994 2306.09 35.7938 Q2303.58 32.5936 2298.56 32.5936 Q2292.52 32.5936 2289.04 36.4419 Q2285.55 40.2903 2285.55 46.9338 L2285.55 72.576 L2278.06 72.576 L2278.06 27.2059 L2285.55 27.2059 L2285.55 34.2544 Q2288.23 30.163 2291.83 28.1376 Q2295.48 26.1121 2300.22 26.1121 Q2308.04 26.1121 2312.05 30.9732 Q2316.06 35.7938 2316.06 45.1919 Z" fill="#000000" fill-rule="nonzero" fill-opacity="1" /><path clip-path="url(#clip720)" d="M2359.85 28.5427 L2359.85 35.5912 Q2356.69 33.9709 2353.29 33.1607 Q2349.88 32.3505 2346.24 32.3505 Q2340.69 32.3505 2337.89 34.0519 Q2335.14 35.7533 2335.14 39.156 Q2335.14 41.7486 2337.12 43.2475 Q2339.11 44.7058 2345.1 46.0426 L2347.65 46.6097 Q2355.59 48.3111 2358.92 51.4303 Q2362.28 54.509 2362.28 60.0587 Q2362.28 66.3781 2357.26 70.0644 Q2352.27 73.7508 2343.52 73.7508 Q2339.88 73.7508 2335.91 73.0216 Q2331.98 72.3329 2327.6 70.9151 L2327.6 63.2184 Q2331.73 65.3654 2335.74 66.4591 Q2339.76 67.5124 2343.68 67.5124 Q2348.95 67.5124 2351.79 65.73 Q2354.62 63.9071 2354.62 60.6258 Q2354.62 57.5877 2352.56 55.9673 Q2350.53 54.3469 2343.6 52.8481 L2341.01 52.2405 Q2334.08 50.7821 2331.01 47.7845 Q2327.93 44.7463 2327.93 39.4801 Q2327.93 33.0797 2332.46 29.5959 Q2337 26.1121 2345.35 26.1121 Q2349.48 26.1121 2353.12 26.7198 Q2356.77 27.3274 2359.85 28.5427 Z" fill="#000000" fill-rule="nonzero" fill-opacity="1" /><polyline clip-path="url(#clip723)" style="stroke:#009af9; stroke-linecap:round; stroke-linejoin:round; stroke-width:4; stroke-opacity:1; fill:none" points="335.627,160.256 367.214,191.901 398.8,219.305 430.387,243.965 461.974,266.815 493.561,288.499 525.147,309.435 556.734,329.879 588.321,349.992 619.907,369.875 651.494,389.594 683.081,409.19 714.668,428.695 746.254,448.129 777.841,467.509 809.428,486.846 841.015,506.148 872.601,525.424 904.188,544.677 935.775,563.913 967.362,583.135 998.948,602.345 1030.54,621.546 1062.12,640.739 1093.71,659.925 1125.3,679.106 1156.88,698.283 1188.47,717.456 1220.06,736.626 1251.64,755.793 1283.23,774.959 1314.82,794.122 1346.4,813.284 1377.99,832.445 1409.58,851.604 1441.16,870.763 1472.75,889.921 1504.34,909.078 1535.92,928.235 1567.51,947.391 1599.1,966.547 1630.68,985.703 1662.27,1004.86 1693.86,1024.01 1725.44,1043.17 1757.03,1062.32 1788.62,1081.48 1820.2,1100.63 1851.79,1119.79 1883.38,1138.94 1914.96,1158.09 1946.55,1177.25 1978.14,1196.4 2009.72,1215.55 2041.31,1234.73 2072.9,1253.86 2104.48,1273 2136.07,1292.25 2167.66,1311.21 2199.24,1330.54 2230.83,1349.26 2262.42,1368.28 2294,1386.4 "/>
<path clip-path="url(#clip720)" d="M1560.3 328.071 L2283.56 328.071 L2283.56 166.796 L1560.3 166.796  Z" fill="#ffffff" fill-rule="evenodd" fill-opacity="1"/>
<polyline clip-path="url(#clip720)" style="stroke:#000000; stroke-linecap:round; stroke-linejoin:round; stroke-width:4; stroke-opacity:1; fill:none" points="1560.3,328.071 2283.56,328.071 2283.56,166.796 1560.3,166.796 1560.3,328.071 "/>
<polyline clip-path="url(#clip720)" style="stroke:#009af9; stroke-linecap:round; stroke-linejoin:round; stroke-width:4; stroke-opacity:1; fill:none" points="1583.37,247.433 1721.76,247.433 "/>
<path clip-path="url(#clip720)" d="M1744.83 272.498 L1744.83 227.831 Q1744.83 226.051 1745.79 226.051 Q1746.75 226.051 1746.75 227.48 L1746.75 272.146 Q1746.75 273.926 1745.79 273.926 Q1744.83 273.926 1744.83 272.498 Z" fill="#000000" fill-rule="nonzero" fill-opacity="1" /><path clip-path="url(#clip720)" d="M1789.78 249.403 Q1789.78 251.769 1788.56 254.134 Q1787.34 256.5 1785.35 258.327 Q1783.36 260.131 1780.64 261.302 Q1777.93 262.473 1775.09 262.567 L1773.26 269.71 Q1772.91 271.444 1772.73 271.631 Q1772.54 271.818 1772.26 271.818 Q1771.67 271.818 1771.67 271.28 Q1771.67 271.116 1772.73 267.064 L1773.85 262.567 Q1769.59 262.332 1767.1 259.873 Q1764.62 257.414 1764.62 253.877 Q1764.62 251.488 1765.84 249.122 Q1767.08 246.733 1769.07 244.929 Q1771.09 243.126 1773.8 241.978 Q1776.52 240.83 1779.31 240.737 L1782.09 229.658 Q1782.24 229.026 1782.35 228.862 Q1782.47 228.698 1782.82 228.698 Q1783.08 228.698 1783.22 228.815 Q1783.36 228.932 1783.36 229.049 L1783.38 229.166 L1783.24 229.845 L1780.55 240.737 Q1782.94 240.901 1784.79 241.744 Q1786.64 242.587 1787.69 243.852 Q1788.75 245.093 1789.26 246.499 Q1789.78 247.904 1789.78 249.403 M1779.03 241.791 Q1776.45 242.025 1774.27 243.29 Q1772.09 244.555 1770.69 246.428 Q1769.28 248.279 1768.51 250.504 Q1767.74 252.706 1767.74 254.884 Q1767.74 256.594 1768.3 257.905 Q1768.88 259.217 1769.84 259.967 Q1770.8 260.693 1771.86 261.091 Q1772.94 261.466 1774.08 261.513 L1779.03 241.791 M1786.64 248.396 Q1786.64 245.351 1784.88 243.641 Q1783.13 241.931 1780.27 241.791 L1775.33 261.513 Q1777.41 261.349 1779.24 260.482 Q1781.09 259.592 1782.42 258.28 Q1783.76 256.945 1784.72 255.306 Q1785.68 253.643 1786.15 251.886 Q1786.64 250.106 1786.64 248.396 Z" fill="#000000" fill-rule="nonzero" fill-opacity="1" /><path clip-path="url(#clip720)" d="M1812.85 224.459 Q1812.85 224.59 1812.7 225.098 Q1812.55 225.607 1812.19 226.394 Q1811.85 227.181 1811.37 227.902 Q1810.9 228.607 1810.11 229.132 Q1809.34 229.64 1808.45 229.64 Q1807.27 229.64 1806.49 228.853 Q1805.7 228.066 1805.7 226.886 Q1805.7 226.23 1806.04 225.328 Q1808.22 219.508 1808.22 217.507 Q1808.22 215.163 1806.4 215.163 Q1805.5 215.163 1804.65 215.507 Q1803.81 215.835 1803.24 216.294 Q1802.67 216.753 1802.14 217.392 Q1801.63 218.016 1801.37 218.442 Q1801.12 218.852 1800.93 219.262 L1800.5 220.934 Q1800.4 221.393 1799.93 223.18 L1799.19 226.213 Q1798.66 228.476 1798.55 228.689 Q1798.39 229.148 1798.03 229.394 Q1797.66 229.64 1797.3 229.64 Q1796.89 229.64 1796.62 229.394 Q1796.34 229.148 1796.34 228.722 Q1796.34 228.656 1796.39 228.41 Q1796.43 228.164 1796.52 227.82 Q1796.6 227.476 1796.63 227.279 L1798.58 219.524 Q1798.94 218.114 1799.03 217.671 Q1799.12 217.212 1799.12 216.704 Q1799.12 215.163 1798.07 215.163 Q1797.22 215.163 1796.66 216.179 Q1796.11 217.196 1795.63 219.163 Q1795.48 219.704 1795.39 219.819 Q1795.3 219.934 1795.06 219.934 Q1794.65 219.917 1794.65 219.59 Q1794.65 219.508 1794.78 218.966 Q1794.91 218.425 1795.16 217.655 Q1795.42 216.868 1795.66 216.343 Q1795.88 215.95 1795.99 215.769 Q1796.12 215.573 1796.43 215.195 Q1796.76 214.802 1797.19 214.622 Q1797.63 214.425 1798.17 214.425 Q1799.39 214.425 1800.27 215.212 Q1801.16 215.982 1801.27 217.343 Q1803.45 214.425 1806.5 214.425 Q1808.31 214.425 1809.34 215.376 Q1810.37 216.327 1810.37 218.016 Q1810.37 218.409 1810.29 218.917 Q1810.22 219.409 1810.06 220.032 Q1809.91 220.655 1809.78 221.131 Q1809.65 221.606 1809.39 222.377 Q1809.13 223.131 1809.01 223.459 Q1808.9 223.787 1808.62 224.557 Q1808.35 225.312 1808.32 225.394 Q1807.72 226.918 1807.72 227.787 Q1807.72 228.361 1807.9 228.624 Q1808.09 228.886 1808.52 228.886 Q1809.67 228.886 1810.52 227.755 Q1811.39 226.607 1811.95 224.738 Q1812.08 224.328 1812.14 224.229 Q1812.22 224.131 1812.45 224.131 Q1812.85 224.131 1812.85 224.459 Z" fill="#000000" fill-rule="nonzero" fill-opacity="1" /><path clip-path="url(#clip720)" d="M1824.67 221.278 Q1823.9 221.278 1823.9 220.868 Q1823.9 220.458 1824.7 220.458 Q1824.8 220.458 1824.96 220.475 Q1825.14 220.491 1825.18 220.491 L1834.64 220.491 L1834.64 210.998 Q1834.64 210.965 1834.62 210.818 Q1834.6 210.654 1834.6 210.555 Q1834.6 209.752 1835 209.752 Q1835.41 209.752 1835.41 210.555 L1835.41 220.491 L1844.88 220.491 Q1844.92 220.491 1845.08 220.475 Q1845.25 220.458 1845.34 220.458 Q1846.11 220.458 1846.11 220.868 Q1846.13 221.278 1845.31 221.278 Q1845.21 221.278 1845.06 221.262 Q1844.92 221.245 1844.88 221.245 L1835.41 221.245 L1835.41 231.214 Q1835.41 231.985 1835 231.985 Q1834.6 231.985 1834.6 231.181 Q1834.6 231.083 1834.62 230.919 Q1834.64 230.771 1834.64 230.739 L1834.64 221.245 L1825.18 221.245 Q1825.14 221.245 1824.95 221.262 Q1824.77 221.278 1824.67 221.278 Z" fill="#000000" fill-rule="nonzero" fill-opacity="1" /><path clip-path="url(#clip720)" d="M1859.07 210.096 L1859.07 209.047 Q1863.11 209.047 1865.19 206.899 Q1865.76 206.899 1865.86 207.03 Q1865.96 207.162 1865.96 207.768 L1865.96 226.607 Q1865.96 227.607 1866.45 227.919 Q1866.94 228.23 1869.09 228.23 L1870.16 228.23 L1870.16 229.263 Q1868.98 229.165 1864.71 229.165 Q1860.45 229.165 1859.29 229.263 L1859.29 228.23 L1860.35 228.23 Q1862.47 228.23 1862.98 227.935 Q1863.48 227.623 1863.48 226.607 L1863.48 209.211 Q1861.73 210.096 1859.07 210.096 Z" fill="#000000" fill-rule="nonzero" fill-opacity="1" /><path clip-path="url(#clip720)" d="M1876.17 228.722 Q1875.7 228.181 1875.7 227.476 Q1875.7 226.771 1876.16 226.246 Q1876.63 225.705 1877.49 225.705 Q1878.49 225.705 1879.06 226.672 Q1879.63 227.623 1879.63 229.23 Q1879.63 230.968 1878.93 232.575 Q1878.22 234.198 1877.54 234.969 Q1876.85 235.739 1876.57 235.739 Q1876.24 235.739 1876.24 235.379 Q1876.24 235.247 1876.47 235.001 Q1878.88 232.411 1878.9 229.23 Q1878.9 228.722 1878.83 228.722 L1878.75 228.788 Q1878.17 229.263 1877.49 229.263 Q1876.65 229.263 1876.17 228.722 Z" fill="#000000" fill-rule="nonzero" fill-opacity="1" /><path clip-path="url(#clip720)" d="M1917.74 224.459 Q1917.74 224.59 1917.59 225.098 Q1917.44 225.607 1917.08 226.394 Q1916.74 227.181 1916.25 227.902 Q1915.77 228.607 1914.98 229.132 Q1914.21 229.64 1913.33 229.64 Q1912.15 229.64 1911.36 228.853 Q1910.57 228.066 1910.57 226.886 Q1910.57 226.246 1911.02 225.033 Q1913.1 219.491 1913.1 217.507 Q1913.1 215.163 1911.28 215.163 Q1910.25 215.163 1909.31 215.589 Q1908.38 216.015 1907.77 216.605 Q1907.16 217.196 1906.69 217.868 Q1906.21 218.54 1906 218.983 Q1905.8 219.426 1905.75 219.622 L1903.74 227.722 Q1903.57 228.41 1903.46 228.738 Q1903.34 229.066 1903.03 229.345 Q1902.72 229.64 1902.23 229.64 Q1901.82 229.64 1901.52 229.394 Q1901.24 229.148 1901.24 228.722 Q1901.24 228.656 1901.33 228.312 Q1901.41 227.968 1901.52 227.492 Q1901.64 227.017 1901.69 226.738 Q1902.28 224.508 1902.36 224.197 L1903.29 220.295 Q1903.8 218.36 1903.8 217.507 Q1903.8 215.163 1901.98 215.163 Q1901.08 215.163 1900.23 215.507 Q1899.39 215.835 1898.82 216.294 Q1898.24 216.753 1897.72 217.392 Q1897.21 218.016 1896.95 218.442 Q1896.7 218.852 1896.51 219.262 L1896.08 220.934 Q1895.98 221.393 1895.51 223.18 L1894.77 226.213 Q1894.24 228.476 1894.13 228.689 Q1893.96 229.148 1893.6 229.394 Q1893.24 229.64 1892.88 229.64 Q1892.47 229.64 1892.19 229.394 Q1891.92 229.148 1891.92 228.722 Q1891.92 228.656 1891.96 228.41 Q1892.01 228.164 1892.1 227.82 Q1892.18 227.476 1892.21 227.279 L1894.16 219.524 Q1894.52 218.114 1894.6 217.671 Q1894.7 217.212 1894.7 216.704 Q1894.7 215.163 1893.65 215.163 Q1892.8 215.163 1892.24 216.179 Q1891.69 217.196 1891.21 219.163 Q1891.06 219.704 1890.96 219.819 Q1890.88 219.934 1890.64 219.934 Q1890.23 219.917 1890.23 219.59 Q1890.23 219.508 1890.36 218.983 Q1890.49 218.458 1890.73 217.671 Q1891 216.868 1891.28 216.343 Q1891.44 215.999 1891.59 215.769 Q1891.73 215.54 1892.03 215.179 Q1892.33 214.818 1892.77 214.622 Q1893.21 214.425 1893.75 214.425 Q1894.95 214.425 1895.83 215.195 Q1896.74 215.966 1896.85 217.343 Q1899.03 214.425 1902.08 214.425 Q1903.8 214.425 1904.84 215.294 Q1905.8 216.13 1905.92 217.671 Q1908.18 214.425 1911.39 214.425 Q1913.25 214.425 1914.25 215.392 Q1915.25 216.343 1915.25 218.016 Q1915.25 218.884 1914.8 220.54 Q1914.36 222.18 1914.07 223 Q1913.77 223.82 1913.2 225.394 Q1912.59 226.902 1912.59 227.787 Q1912.59 228.361 1912.79 228.624 Q1912.98 228.886 1913.41 228.886 Q1914.07 228.886 1914.64 228.509 Q1915.21 228.115 1915.62 227.476 Q1916.05 226.82 1916.33 226.164 Q1916.61 225.492 1916.82 224.738 Q1916.95 224.328 1917.02 224.229 Q1917.1 224.131 1917.33 224.131 Q1917.74 224.131 1917.74 224.459 Z" fill="#000000" fill-rule="nonzero" fill-opacity="1" /><path clip-path="url(#clip720)" d="M1969.51 249.309 Q1969.79 249.59 1969.79 249.989 Q1969.79 250.387 1969.51 250.668 Q1969.23 250.949 1968.83 250.949 L1938.8 250.949 Q1938.4 250.949 1938.12 250.668 Q1937.84 250.387 1937.84 249.989 Q1937.84 249.59 1938.12 249.309 Q1938.4 249.028 1938.8 249.028 L1968.83 249.028 Q1969.23 249.028 1969.51 249.309 Z" fill="#000000" fill-rule="nonzero" fill-opacity="1" /><path clip-path="url(#clip720)" d="M2013.25 249.403 Q2013.25 251.769 2012.03 254.134 Q2010.81 256.5 2008.82 258.327 Q2006.83 260.131 2004.11 261.302 Q2001.4 262.473 1998.56 262.567 L1996.74 269.71 Q1996.39 271.444 1996.2 271.631 Q1996.01 271.818 1995.73 271.818 Q1995.14 271.818 1995.14 271.28 Q1995.14 271.116 1996.2 267.064 L1997.32 262.567 Q1993.06 262.332 1990.58 259.873 Q1988.09 257.414 1988.09 253.877 Q1988.09 251.488 1989.31 249.122 Q1990.55 246.733 1992.54 244.929 Q1994.56 243.126 1997.28 241.978 Q1999.99 240.83 2002.78 240.737 L2005.57 229.658 Q2005.71 229.026 2005.82 228.862 Q2005.94 228.698 2006.29 228.698 Q2006.55 228.698 2006.69 228.815 Q2006.83 228.932 2006.83 229.049 L2006.86 229.166 L2006.71 229.845 L2004.02 240.737 Q2006.41 240.901 2008.26 241.744 Q2010.11 242.587 2011.17 243.852 Q2012.22 245.093 2012.73 246.499 Q2013.25 247.904 2013.25 249.403 M2002.5 241.791 Q1999.92 242.025 1997.74 243.29 Q1995.57 244.555 1994.16 246.428 Q1992.76 248.279 1991.98 250.504 Q1991.21 252.706 1991.21 254.884 Q1991.21 256.594 1991.77 257.905 Q1992.36 259.217 1993.32 259.967 Q1994.28 260.693 1995.33 261.091 Q1996.41 261.466 1997.56 261.513 L2002.5 241.791 M2010.11 248.396 Q2010.11 245.351 2008.35 243.641 Q2006.6 241.931 2003.74 241.791 L1998.8 261.513 Q2000.88 261.349 2002.71 260.482 Q2004.56 259.592 2005.9 258.28 Q2007.23 256.945 2008.19 255.306 Q2009.15 253.643 2009.62 251.886 Q2010.11 250.106 2010.11 248.396 Z" fill="#000000" fill-rule="nonzero" fill-opacity="1" /><path clip-path="url(#clip720)" d="M2036.32 224.459 Q2036.32 224.59 2036.17 225.098 Q2036.02 225.607 2035.66 226.394 Q2035.32 227.181 2034.84 227.902 Q2034.37 228.607 2033.58 229.132 Q2032.81 229.64 2031.93 229.64 Q2030.74 229.64 2029.96 228.853 Q2029.17 228.066 2029.17 226.886 Q2029.17 226.23 2029.52 225.328 Q2031.7 219.508 2031.7 217.507 Q2031.7 215.163 2029.88 215.163 Q2028.97 215.163 2028.12 215.507 Q2027.29 215.835 2026.71 216.294 Q2026.14 216.753 2025.61 217.392 Q2025.1 218.016 2024.84 218.442 Q2024.6 218.852 2024.4 219.262 L2023.97 220.934 Q2023.88 221.393 2023.4 223.18 L2022.66 226.213 Q2022.14 228.476 2022.02 228.689 Q2021.86 229.148 2021.5 229.394 Q2021.14 229.64 2020.78 229.64 Q2020.37 229.64 2020.09 229.394 Q2019.81 229.148 2019.81 228.722 Q2019.81 228.656 2019.86 228.41 Q2019.91 228.164 2019.99 227.82 Q2020.07 227.476 2020.1 227.279 L2022.06 219.524 Q2022.42 218.114 2022.5 217.671 Q2022.6 217.212 2022.6 216.704 Q2022.6 215.163 2021.55 215.163 Q2020.69 215.163 2020.14 216.179 Q2019.58 217.196 2019.1 219.163 Q2018.96 219.704 2018.86 219.819 Q2018.78 219.934 2018.53 219.934 Q2018.12 219.917 2018.12 219.59 Q2018.12 219.508 2018.25 218.966 Q2018.38 218.425 2018.63 217.655 Q2018.89 216.868 2019.14 216.343 Q2019.35 215.95 2019.46 215.769 Q2019.6 215.573 2019.91 215.195 Q2020.24 214.802 2020.66 214.622 Q2021.1 214.425 2021.65 214.425 Q2022.86 214.425 2023.74 215.212 Q2024.63 215.982 2024.74 217.343 Q2026.92 214.425 2029.97 214.425 Q2031.78 214.425 2032.81 215.376 Q2033.84 216.327 2033.84 218.016 Q2033.84 218.409 2033.76 218.917 Q2033.7 219.409 2033.53 220.032 Q2033.38 220.655 2033.25 221.131 Q2033.12 221.606 2032.86 222.377 Q2032.6 223.131 2032.48 223.459 Q2032.37 223.787 2032.09 224.557 Q2031.83 225.312 2031.79 225.394 Q2031.19 226.918 2031.19 227.787 Q2031.19 228.361 2031.37 228.624 Q2031.56 228.886 2031.99 228.886 Q2033.14 228.886 2033.99 227.755 Q2034.86 226.607 2035.42 224.738 Q2035.55 224.328 2035.61 224.229 Q2035.7 224.131 2035.93 224.131 Q2036.32 224.131 2036.32 224.459 Z" fill="#000000" fill-rule="nonzero" fill-opacity="1" /><path clip-path="url(#clip720)" d="M2048.14 221.278 Q2047.37 221.278 2047.37 220.868 Q2047.37 220.458 2048.17 220.458 Q2048.27 220.458 2048.44 220.475 Q2048.62 220.491 2048.65 220.491 L2058.11 220.491 L2058.11 210.998 Q2058.11 210.965 2058.09 210.818 Q2058.08 210.654 2058.08 210.555 Q2058.08 209.752 2058.47 209.752 Q2058.88 209.752 2058.88 210.555 L2058.88 220.491 L2068.36 220.491 Q2068.39 220.491 2068.55 220.475 Q2068.72 220.458 2068.82 220.458 Q2069.59 220.458 2069.59 220.868 Q2069.6 221.278 2068.78 221.278 Q2068.69 221.278 2068.54 221.262 Q2068.39 221.245 2068.36 221.245 L2058.88 221.245 L2058.88 231.214 Q2058.88 231.985 2058.47 231.985 Q2058.08 231.985 2058.08 231.181 Q2058.08 231.083 2058.09 230.919 Q2058.11 230.771 2058.11 230.739 L2058.11 221.245 L2048.65 221.245 Q2048.62 221.245 2048.42 221.262 Q2048.24 221.278 2048.14 221.278 Z" fill="#000000" fill-rule="nonzero" fill-opacity="1" /><path clip-path="url(#clip720)" d="M2082.55 210.096 L2082.55 209.047 Q2086.58 209.047 2088.66 206.899 Q2089.24 206.899 2089.33 207.03 Q2089.43 207.162 2089.43 207.768 L2089.43 226.607 Q2089.43 227.607 2089.92 227.919 Q2090.42 228.23 2092.56 228.23 L2093.63 228.23 L2093.63 229.263 Q2092.45 229.165 2088.19 229.165 Q2083.92 229.165 2082.76 229.263 L2082.76 228.23 L2083.83 228.23 Q2085.94 228.23 2086.45 227.935 Q2086.96 227.623 2086.96 226.607 L2086.96 209.211 Q2085.2 210.096 2082.55 210.096 Z" fill="#000000" fill-rule="nonzero" fill-opacity="1" /><path clip-path="url(#clip720)" d="M2099.65 228.722 Q2099.17 228.181 2099.17 227.476 Q2099.17 226.771 2099.63 226.246 Q2100.11 225.705 2100.96 225.705 Q2101.96 225.705 2102.53 226.672 Q2103.11 227.623 2103.11 229.23 Q2103.11 230.968 2102.4 232.575 Q2101.7 234.198 2101.01 234.969 Q2100.32 235.739 2100.04 235.739 Q2099.71 235.739 2099.71 235.379 Q2099.71 235.247 2099.94 235.001 Q2102.35 232.411 2102.37 229.23 Q2102.37 228.722 2102.3 228.722 L2102.22 228.788 Q2101.65 229.263 2100.96 229.263 Q2100.12 229.263 2099.65 228.722 Z" fill="#000000" fill-rule="nonzero" fill-opacity="1" /><path clip-path="url(#clip720)" d="M2141.21 224.459 Q2141.21 224.59 2141.06 225.098 Q2140.92 225.607 2140.56 226.394 Q2140.21 227.181 2139.72 227.902 Q2139.24 228.607 2138.46 229.132 Q2137.69 229.64 2136.8 229.64 Q2135.62 229.64 2134.83 228.853 Q2134.05 228.066 2134.05 226.886 Q2134.05 226.246 2134.49 225.033 Q2136.57 219.491 2136.57 217.507 Q2136.57 215.163 2134.75 215.163 Q2133.72 215.163 2132.78 215.589 Q2131.85 216.015 2131.24 216.605 Q2130.64 217.196 2130.16 217.868 Q2129.68 218.54 2129.47 218.983 Q2129.28 219.426 2129.23 219.622 L2127.21 227.722 Q2127.05 228.41 2126.93 228.738 Q2126.82 229.066 2126.5 229.345 Q2126.19 229.64 2125.7 229.64 Q2125.29 229.64 2125 229.394 Q2124.72 229.148 2124.72 228.722 Q2124.72 228.656 2124.8 228.312 Q2124.88 227.968 2125 227.492 Q2125.11 227.017 2125.16 226.738 Q2125.75 224.508 2125.83 224.197 L2126.77 220.295 Q2127.27 218.36 2127.27 217.507 Q2127.27 215.163 2125.45 215.163 Q2124.55 215.163 2123.7 215.507 Q2122.86 215.835 2122.29 216.294 Q2121.72 216.753 2121.19 217.392 Q2120.68 218.016 2120.42 218.442 Q2120.18 218.852 2119.98 219.262 L2119.55 220.934 Q2119.45 221.393 2118.98 223.18 L2118.24 226.213 Q2117.72 228.476 2117.6 228.689 Q2117.44 229.148 2117.08 229.394 Q2116.72 229.64 2116.36 229.64 Q2115.95 229.64 2115.67 229.394 Q2115.39 229.148 2115.39 228.722 Q2115.39 228.656 2115.44 228.41 Q2115.49 228.164 2115.57 227.82 Q2115.65 227.476 2115.68 227.279 L2117.63 219.524 Q2117.99 218.114 2118.08 217.671 Q2118.18 217.212 2118.18 216.704 Q2118.18 215.163 2117.13 215.163 Q2116.27 215.163 2115.72 216.179 Q2115.16 217.196 2114.68 219.163 Q2114.54 219.704 2114.44 219.819 Q2114.35 219.934 2114.11 219.934 Q2113.7 219.917 2113.7 219.59 Q2113.7 219.508 2113.83 218.983 Q2113.96 218.458 2114.21 217.671 Q2114.47 216.868 2114.75 216.343 Q2114.91 215.999 2115.06 215.769 Q2115.21 215.54 2115.5 215.179 Q2115.8 214.818 2116.24 214.622 Q2116.68 214.425 2117.22 214.425 Q2118.42 214.425 2119.31 215.195 Q2120.21 215.966 2120.32 217.343 Q2122.5 214.425 2125.55 214.425 Q2127.27 214.425 2128.31 215.294 Q2129.28 216.13 2129.39 217.671 Q2131.65 214.425 2134.87 214.425 Q2136.72 214.425 2137.72 215.392 Q2138.72 216.343 2138.72 218.016 Q2138.72 218.884 2138.28 220.54 Q2137.83 222.18 2137.54 223 Q2137.24 223.82 2136.67 225.394 Q2136.06 226.902 2136.06 227.787 Q2136.06 228.361 2136.26 228.624 Q2136.46 228.886 2136.88 228.886 Q2137.54 228.886 2138.11 228.509 Q2138.69 228.115 2139.1 227.476 Q2139.52 226.82 2139.8 226.164 Q2140.08 225.492 2140.29 224.738 Q2140.42 224.328 2140.49 224.229 Q2140.57 224.131 2140.8 224.131 Q2141.21 224.131 2141.21 224.459 Z" fill="#000000" fill-rule="nonzero" fill-opacity="1" /><path clip-path="url(#clip720)" d="M2174.37 220.393 Q2174.57 220.59 2174.57 220.868 Q2174.57 221.147 2174.37 221.344 Q2174.17 221.541 2173.9 221.541 L2152.88 221.541 Q2152.6 221.541 2152.4 221.344 Q2152.2 221.147 2152.2 220.868 Q2152.2 220.59 2152.4 220.393 Q2152.6 220.196 2152.88 220.196 L2173.9 220.196 Q2174.17 220.196 2174.37 220.393 Z" fill="#000000" fill-rule="nonzero" fill-opacity="1" /><path clip-path="url(#clip720)" d="M2187.38 210.096 L2187.38 209.047 Q2191.41 209.047 2193.5 206.899 Q2194.07 206.899 2194.17 207.03 Q2194.27 207.162 2194.27 207.768 L2194.27 226.607 Q2194.27 227.607 2194.76 227.919 Q2195.25 228.23 2197.4 228.23 L2198.46 228.23 L2198.46 229.263 Q2197.28 229.165 2193.02 229.165 Q2188.76 229.165 2187.59 229.263 L2187.59 228.23 L2188.66 228.23 Q2190.77 228.23 2191.28 227.935 Q2191.79 227.623 2191.79 226.607 L2191.79 209.211 Q2190.04 210.096 2187.38 210.096 Z" fill="#000000" fill-rule="nonzero" fill-opacity="1" /><path clip-path="url(#clip720)" d="M2209.12 272.498 L2209.12 227.831 Q2209.12 226.051 2210.09 226.051 Q2211.05 226.051 2211.05 227.48 L2211.05 272.146 Q2211.05 273.926 2210.09 273.926 Q2209.12 273.926 2209.12 272.498 Z" fill="#000000" fill-rule="nonzero" fill-opacity="1" /><path clip-path="url(#clip720)" d="M2239.97 265.459 L2239.3 271.263 Q2239.25 271.788 2239.17 271.952 Q2239.09 272.1 2238.83 272.1 Q2238.43 272.1 2238.43 271.706 Q2238.43 271.542 2238.5 271.099 Q2238.6 270.198 2238.6 269.279 Q2238.6 268.247 2238.4 267.607 Q2238.22 266.951 2237.7 266.476 Q2237.17 266 2236.2 265.804 Q2235.24 265.59 2233.7 265.59 L2229.27 265.59 Q2228.19 265.59 2227.92 265.787 Q2227.68 265.984 2227.45 266.902 L2225.3 275.428 L2228.35 275.428 Q2230.48 275.428 2231.32 274.805 Q2232.15 274.182 2232.68 272.198 Q2232.76 271.886 2232.79 271.772 Q2232.84 271.64 2232.92 271.575 Q2233.02 271.493 2233.19 271.493 Q2233.33 271.493 2233.43 271.591 Q2233.53 271.673 2233.56 271.772 L2233.6 271.87 Q2233.6 272.034 2233.5 272.411 L2231.65 279.691 Q2231.51 280.183 2231.43 280.297 Q2231.37 280.396 2231.14 280.396 Q2230.97 280.396 2230.86 280.281 Q2230.74 280.166 2230.74 279.986 Q2230.78 279.789 2230.84 279.625 Q2231.07 278.625 2231.07 277.986 Q2231.07 277.576 2230.99 277.33 Q2230.91 277.084 2230.63 276.871 Q2230.35 276.658 2229.78 276.559 Q2229.2 276.461 2228.28 276.461 L2225.04 276.461 L2222.96 284.823 L2222.81 285.593 Q2222.81 285.938 2222.99 286.069 Q2223.19 286.2 2223.89 286.265 Q2224.94 286.347 2225.63 286.347 Q2226.48 286.347 2226.58 286.38 Q2226.78 286.479 2226.78 286.741 Q2226.78 287.036 2226.65 287.2 Q2226.51 287.348 2226.4 287.364 Q2226.28 287.38 2226.07 287.38 L2221.07 287.282 L2216.64 287.38 Q2216.14 287.38 2216.14 286.97 Q2216.14 286.659 2216.27 286.528 Q2216.4 286.38 2216.55 286.364 Q2216.69 286.347 2217.07 286.347 Q2217.89 286.347 2218.38 286.298 Q2218.87 286.249 2219.19 286.183 Q2219.51 286.101 2219.68 285.872 Q2219.86 285.642 2219.94 285.446 Q2220.02 285.232 2220.14 284.757 L2224.56 267 Q2224.73 266.394 2224.73 266.197 Q2224.73 265.984 2224.58 265.853 Q2224.45 265.722 2224.09 265.672 Q2223.73 265.607 2223.43 265.607 Q2223.15 265.59 2222.55 265.59 Q2222.15 265.59 2221.99 265.574 Q2221.84 265.558 2221.73 265.476 Q2221.61 265.394 2221.61 265.213 Q2221.61 264.754 2221.81 264.656 Q2222.02 264.541 2222.61 264.541 L2239.07 264.541 Q2239.73 264.541 2239.88 264.689 Q2240.04 264.82 2239.97 265.459 Z" fill="#000000" fill-rule="nonzero" fill-opacity="1" /><path clip-path="url(#clip720)" d="M2254.06 274.723 Q2254.06 275.592 2253.49 276.149 Q2252.93 276.707 2252.21 276.707 Q2251.59 276.707 2251.26 276.346 Q2250.93 275.985 2250.93 275.526 Q2250.93 274.87 2251.44 274.329 Q2251.95 273.788 2252.69 273.674 Q2252.15 273.28 2251.28 273.28 Q2249.85 273.28 2248.59 274.379 Q2248.03 274.887 2247.42 275.821 Q2246.82 276.74 2246.7 277.133 L2245.64 281.511 Q2245.54 282.003 2244.93 284.364 Q2244.34 286.708 2244.29 286.806 Q2244.13 287.266 2243.77 287.511 Q2243.41 287.757 2243.05 287.757 Q2242.64 287.757 2242.36 287.511 Q2242.08 287.266 2242.08 286.839 Q2242.08 286.774 2242.13 286.528 Q2242.18 286.282 2242.26 285.938 Q2242.34 285.593 2242.37 285.396 L2244.32 277.641 Q2244.69 276.231 2244.77 275.789 Q2244.87 275.329 2244.87 274.821 Q2244.87 273.936 2244.59 273.608 Q2244.31 273.28 2243.82 273.28 Q2242.96 273.28 2242.41 274.297 Q2241.85 275.313 2241.37 277.281 Q2241.23 277.822 2241.13 277.936 Q2241.05 278.051 2240.8 278.051 Q2240.39 278.035 2240.39 277.707 Q2240.39 277.625 2240.52 277.1 Q2240.65 276.559 2240.9 275.772 Q2241.16 274.969 2241.44 274.461 Q2241.6 274.116 2241.75 273.887 Q2241.9 273.657 2242.19 273.296 Q2242.49 272.936 2242.93 272.739 Q2243.37 272.542 2243.91 272.542 Q2245.09 272.542 2245.93 273.264 Q2246.78 273.985 2246.98 275.116 Q2247.39 274.526 2247.9 274.018 Q2248.41 273.493 2249.34 273.018 Q2250.28 272.542 2251.28 272.542 Q2252.52 272.542 2253.29 273.182 Q2254.06 273.805 2254.06 274.723 Z" fill="#000000" fill-rule="nonzero" fill-opacity="1" /></svg>
