<?xml version="1.0" encoding="utf-8"?>
<svg xmlns="http://www.w3.org/2000/svg" xmlns:xlink="http://www.w3.org/1999/xlink" width="600" height="400" viewBox="0 0 2400 1600">
<defs>
  <clipPath id="clip430">
    <rect x="0" y="0" width="2400" height="1600"/>
  </clipPath>
</defs>
<path clip-path="url(#clip430)" d="M0 1600 L2400 1600 L2400 0 L0 0  Z" fill="#ffffff" fill-rule="evenodd" fill-opacity="1"/>
<defs>
  <clipPath id="clip431">
    <rect x="480" y="0" width="1681" height="1600"/>
  </clipPath>
</defs>
<path clip-path="url(#clip430)" d="M213.607 1486.45 L2352.76 1486.45 L2352.76 47.2441 L213.607 47.2441  Z" fill="#ffffff" fill-rule="evenodd" fill-opacity="1"/>
<defs>
  <clipPath id="clip432">
    <rect x="213" y="47" width="2140" height="1440"/>
  </clipPath>
</defs>
<polyline clip-path="url(#clip432)" style="stroke:#000000; stroke-linecap:round; stroke-linejoin:round; stroke-width:2; stroke-opacity:0.1; fill:none" points="241.6,1486.45 241.6,47.2441 "/>
<polyline clip-path="url(#clip432)" style="stroke:#000000; stroke-linecap:round; stroke-linejoin:round; stroke-width:2; stroke-opacity:0.1; fill:none" points="567.094,1486.45 567.094,47.2441 "/>
<polyline clip-path="url(#clip432)" style="stroke:#000000; stroke-linecap:round; stroke-linejoin:round; stroke-width:2; stroke-opacity:0.1; fill:none" points="892.589,1486.45 892.589,47.2441 "/>
<polyline clip-path="url(#clip432)" style="stroke:#000000; stroke-linecap:round; stroke-linejoin:round; stroke-width:2; stroke-opacity:0.1; fill:none" points="1218.08,1486.45 1218.08,47.2441 "/>
<polyline clip-path="url(#clip432)" style="stroke:#000000; stroke-linecap:round; stroke-linejoin:round; stroke-width:2; stroke-opacity:0.1; fill:none" points="1543.58,1486.45 1543.58,47.2441 "/>
<polyline clip-path="url(#clip432)" style="stroke:#000000; stroke-linecap:round; stroke-linejoin:round; stroke-width:2; stroke-opacity:0.1; fill:none" points="1869.07,1486.45 1869.07,47.2441 "/>
<polyline clip-path="url(#clip432)" style="stroke:#000000; stroke-linecap:round; stroke-linejoin:round; stroke-width:2; stroke-opacity:0.1; fill:none" points="2194.57,1486.45 2194.57,47.2441 "/>
<polyline clip-path="url(#clip430)" style="stroke:#000000; stroke-linecap:round; stroke-linejoin:round; stroke-width:4; stroke-opacity:1; fill:none" points="213.607,1486.45 2352.76,1486.45 "/>
<polyline clip-path="url(#clip430)" style="stroke:#000000; stroke-linecap:round; stroke-linejoin:round; stroke-width:4; stroke-opacity:1; fill:none" points="241.6,1486.45 241.6,1467.55 "/>
<polyline clip-path="url(#clip430)" style="stroke:#000000; stroke-linecap:round; stroke-linejoin:round; stroke-width:4; stroke-opacity:1; fill:none" points="567.094,1486.45 567.094,1467.55 "/>
<polyline clip-path="url(#clip430)" style="stroke:#000000; stroke-linecap:round; stroke-linejoin:round; stroke-width:4; stroke-opacity:1; fill:none" points="892.589,1486.45 892.589,1467.55 "/>
<polyline clip-path="url(#clip430)" style="stroke:#000000; stroke-linecap:round; stroke-linejoin:round; stroke-width:4; stroke-opacity:1; fill:none" points="1218.08,1486.45 1218.08,1467.55 "/>
<polyline clip-path="url(#clip430)" style="stroke:#000000; stroke-linecap:round; stroke-linejoin:round; stroke-width:4; stroke-opacity:1; fill:none" points="1543.58,1486.45 1543.58,1467.55 "/>
<polyline clip-path="url(#clip430)" style="stroke:#000000; stroke-linecap:round; stroke-linejoin:round; stroke-width:4; stroke-opacity:1; fill:none" points="1869.07,1486.45 1869.07,1467.55 "/>
<polyline clip-path="url(#clip430)" style="stroke:#000000; stroke-linecap:round; stroke-linejoin:round; stroke-width:4; stroke-opacity:1; fill:none" points="2194.57,1486.45 2194.57,1467.55 "/>
<path clip-path="url(#clip430)" d="M241.6 1517.37 Q237.989 1517.37 236.16 1520.93 Q234.355 1524.47 234.355 1531.6 Q234.355 1538.71 236.16 1542.27 Q237.989 1545.82 241.6 1545.82 Q245.234 1545.82 247.04 1542.27 Q248.868 1538.71 248.868 1531.6 Q248.868 1524.47 247.04 1520.93 Q245.234 1517.37 241.6 1517.37 M241.6 1513.66 Q247.41 1513.66 250.466 1518.27 Q253.544 1522.85 253.544 1531.6 Q253.544 1540.33 250.466 1544.94 Q247.41 1549.52 241.6 1549.52 Q235.79 1549.52 232.711 1544.94 Q229.656 1540.33 229.656 1531.6 Q229.656 1522.85 232.711 1518.27 Q235.79 1513.66 241.6 1513.66 Z" fill="#000000" fill-rule="nonzero" fill-opacity="1" /><path clip-path="url(#clip430)" d="M541.782 1544.91 L549.421 1544.91 L549.421 1518.55 L541.111 1520.21 L541.111 1515.95 L549.374 1514.29 L554.05 1514.29 L554.05 1544.91 L561.689 1544.91 L561.689 1548.85 L541.782 1548.85 L541.782 1544.91 Z" fill="#000000" fill-rule="nonzero" fill-opacity="1" /><path clip-path="url(#clip430)" d="M581.134 1517.37 Q577.522 1517.37 575.694 1520.93 Q573.888 1524.47 573.888 1531.6 Q573.888 1538.71 575.694 1542.27 Q577.522 1545.82 581.134 1545.82 Q584.768 1545.82 586.573 1542.27 Q588.402 1538.71 588.402 1531.6 Q588.402 1524.47 586.573 1520.93 Q584.768 1517.37 581.134 1517.37 M581.134 1513.66 Q586.944 1513.66 589.999 1518.27 Q593.078 1522.85 593.078 1531.6 Q593.078 1540.33 589.999 1544.94 Q586.944 1549.52 581.134 1549.52 Q575.323 1549.52 572.245 1544.94 Q569.189 1540.33 569.189 1531.6 Q569.189 1522.85 572.245 1518.27 Q575.323 1513.66 581.134 1513.66 Z" fill="#000000" fill-rule="nonzero" fill-opacity="1" /><path clip-path="url(#clip430)" d="M871.362 1544.91 L887.681 1544.91 L887.681 1548.85 L865.737 1548.85 L865.737 1544.91 Q868.399 1542.16 872.982 1537.53 Q877.589 1532.88 878.769 1531.53 Q881.015 1529.01 881.894 1527.27 Q882.797 1525.51 882.797 1523.82 Q882.797 1521.07 880.853 1519.33 Q878.931 1517.6 875.829 1517.6 Q873.63 1517.6 871.177 1518.36 Q868.746 1519.13 865.968 1520.68 L865.968 1515.95 Q868.792 1514.82 871.246 1514.24 Q873.7 1513.66 875.737 1513.66 Q881.107 1513.66 884.302 1516.35 Q887.496 1519.03 887.496 1523.52 Q887.496 1525.65 886.686 1527.57 Q885.899 1529.47 883.792 1532.07 Q883.214 1532.74 880.112 1535.95 Q877.01 1539.15 871.362 1544.91 Z" fill="#000000" fill-rule="nonzero" fill-opacity="1" /><path clip-path="url(#clip430)" d="M907.496 1517.37 Q903.885 1517.37 902.056 1520.93 Q900.251 1524.47 900.251 1531.6 Q900.251 1538.71 902.056 1542.27 Q903.885 1545.82 907.496 1545.82 Q911.13 1545.82 912.936 1542.27 Q914.764 1538.71 914.764 1531.6 Q914.764 1524.47 912.936 1520.93 Q911.13 1517.37 907.496 1517.37 M907.496 1513.66 Q913.306 1513.66 916.362 1518.27 Q919.44 1522.85 919.44 1531.6 Q919.44 1540.33 916.362 1544.94 Q913.306 1549.52 907.496 1549.52 Q901.686 1549.52 898.607 1544.94 Q895.551 1540.33 895.551 1531.6 Q895.551 1522.85 898.607 1518.27 Q901.686 1513.66 907.496 1513.66 Z" fill="#000000" fill-rule="nonzero" fill-opacity="1" /><path clip-path="url(#clip430)" d="M1206.93 1530.21 Q1210.28 1530.93 1212.16 1533.2 Q1214.06 1535.47 1214.06 1538.8 Q1214.06 1543.92 1210.54 1546.72 Q1207.02 1549.52 1200.54 1549.52 Q1198.36 1549.52 1196.05 1549.08 Q1193.75 1548.66 1191.3 1547.81 L1191.3 1543.29 Q1193.25 1544.43 1195.56 1545.01 Q1197.87 1545.58 1200.4 1545.58 Q1204.8 1545.58 1207.09 1543.85 Q1209.4 1542.11 1209.4 1538.8 Q1209.4 1535.75 1207.25 1534.03 Q1205.12 1532.3 1201.3 1532.3 L1197.27 1532.3 L1197.27 1528.45 L1201.49 1528.45 Q1204.93 1528.45 1206.76 1527.09 Q1208.59 1525.7 1208.59 1523.11 Q1208.59 1520.45 1206.69 1519.03 Q1204.82 1517.6 1201.3 1517.6 Q1199.38 1517.6 1197.18 1518.01 Q1194.98 1518.43 1192.34 1519.31 L1192.34 1515.14 Q1195 1514.4 1197.32 1514.03 Q1199.66 1513.66 1201.72 1513.66 Q1207.04 1513.66 1210.14 1516.09 Q1213.24 1518.5 1213.24 1522.62 Q1213.24 1525.49 1211.6 1527.48 Q1209.96 1529.45 1206.93 1530.21 Z" fill="#000000" fill-rule="nonzero" fill-opacity="1" /><path clip-path="url(#clip430)" d="M1232.92 1517.37 Q1229.31 1517.37 1227.48 1520.93 Q1225.68 1524.47 1225.68 1531.6 Q1225.68 1538.71 1227.48 1542.27 Q1229.31 1545.82 1232.92 1545.82 Q1236.55 1545.82 1238.36 1542.27 Q1240.19 1538.71 1240.19 1531.6 Q1240.19 1524.47 1238.36 1520.93 Q1236.55 1517.37 1232.92 1517.37 M1232.92 1513.66 Q1238.73 1513.66 1241.79 1518.27 Q1244.87 1522.85 1244.87 1531.6 Q1244.87 1540.33 1241.79 1544.94 Q1238.73 1549.52 1232.92 1549.52 Q1227.11 1549.52 1224.03 1544.94 Q1220.98 1540.33 1220.98 1531.6 Q1220.98 1522.85 1224.03 1518.27 Q1227.11 1513.66 1232.92 1513.66 Z" fill="#000000" fill-rule="nonzero" fill-opacity="1" /><path clip-path="url(#clip430)" d="M1531.75 1518.36 L1519.94 1536.81 L1531.75 1536.81 L1531.75 1518.36 M1530.52 1514.29 L1536.4 1514.29 L1536.4 1536.81 L1541.33 1536.81 L1541.33 1540.7 L1536.4 1540.7 L1536.4 1548.85 L1531.75 1548.85 L1531.75 1540.7 L1516.15 1540.7 L1516.15 1536.19 L1530.52 1514.29 Z" fill="#000000" fill-rule="nonzero" fill-opacity="1" /><path clip-path="url(#clip430)" d="M1559.06 1517.37 Q1555.45 1517.37 1553.62 1520.93 Q1551.82 1524.47 1551.82 1531.6 Q1551.82 1538.71 1553.62 1542.27 Q1555.45 1545.82 1559.06 1545.82 Q1562.7 1545.82 1564.5 1542.27 Q1566.33 1538.71 1566.33 1531.6 Q1566.33 1524.47 1564.5 1520.93 Q1562.7 1517.37 1559.06 1517.37 M1559.06 1513.66 Q1564.87 1513.66 1567.93 1518.27 Q1571.01 1522.85 1571.01 1531.6 Q1571.01 1540.33 1567.93 1544.94 Q1564.87 1549.52 1559.06 1549.52 Q1553.25 1549.52 1550.17 1544.94 Q1547.12 1540.33 1547.12 1531.6 Q1547.12 1522.85 1550.17 1518.27 Q1553.25 1513.66 1559.06 1513.66 Z" fill="#000000" fill-rule="nonzero" fill-opacity="1" /><path clip-path="url(#clip430)" d="M1843.77 1514.29 L1862.13 1514.29 L1862.13 1518.22 L1848.05 1518.22 L1848.05 1526.7 Q1849.07 1526.35 1850.09 1526.19 Q1851.11 1526 1852.13 1526 Q1857.91 1526 1861.29 1529.17 Q1864.67 1532.34 1864.67 1537.76 Q1864.67 1543.34 1861.2 1546.44 Q1857.73 1549.52 1851.41 1549.52 Q1849.23 1549.52 1846.97 1549.15 Q1844.72 1548.78 1842.31 1548.04 L1842.31 1543.34 Q1844.4 1544.47 1846.62 1545.03 Q1848.84 1545.58 1851.32 1545.58 Q1855.32 1545.58 1857.66 1543.48 Q1860 1541.37 1860 1537.76 Q1860 1534.15 1857.66 1532.04 Q1855.32 1529.94 1851.32 1529.94 Q1849.44 1529.94 1847.57 1530.35 Q1845.72 1530.77 1843.77 1531.65 L1843.77 1514.29 Z" fill="#000000" fill-rule="nonzero" fill-opacity="1" /><path clip-path="url(#clip430)" d="M1883.89 1517.37 Q1880.28 1517.37 1878.45 1520.93 Q1876.64 1524.47 1876.64 1531.6 Q1876.64 1538.71 1878.45 1542.27 Q1880.28 1545.82 1883.89 1545.82 Q1887.52 1545.82 1889.33 1542.27 Q1891.15 1538.71 1891.15 1531.6 Q1891.15 1524.47 1889.33 1520.93 Q1887.52 1517.37 1883.89 1517.37 M1883.89 1513.66 Q1889.7 1513.66 1892.75 1518.27 Q1895.83 1522.85 1895.83 1531.6 Q1895.83 1540.33 1892.75 1544.94 Q1889.7 1549.52 1883.89 1549.52 Q1878.08 1549.52 1875 1544.94 Q1871.94 1540.33 1871.94 1531.6 Q1871.94 1522.85 1875 1518.27 Q1878.08 1513.66 1883.89 1513.66 Z" fill="#000000" fill-rule="nonzero" fill-opacity="1" /><path clip-path="url(#clip430)" d="M2179.97 1529.7 Q2176.82 1529.7 2174.97 1531.86 Q2173.14 1534.01 2173.14 1537.76 Q2173.14 1541.49 2174.97 1543.66 Q2176.82 1545.82 2179.97 1545.82 Q2183.12 1545.82 2184.95 1543.66 Q2186.8 1541.49 2186.8 1537.76 Q2186.8 1534.01 2184.95 1531.86 Q2183.12 1529.7 2179.97 1529.7 M2189.25 1515.05 L2189.25 1519.31 Q2187.49 1518.48 2185.69 1518.04 Q2183.91 1517.6 2182.15 1517.6 Q2177.52 1517.6 2175.06 1520.72 Q2172.63 1523.85 2172.29 1530.17 Q2173.65 1528.15 2175.71 1527.09 Q2177.77 1526 2180.25 1526 Q2185.46 1526 2188.47 1529.17 Q2191.5 1532.32 2191.5 1537.76 Q2191.5 1543.08 2188.35 1546.3 Q2185.2 1549.52 2179.97 1549.52 Q2173.98 1549.52 2170.8 1544.94 Q2167.63 1540.33 2167.63 1531.6 Q2167.63 1523.41 2171.52 1518.55 Q2175.41 1513.66 2181.96 1513.66 Q2183.72 1513.66 2185.5 1514.01 Q2187.31 1514.36 2189.25 1515.05 Z" fill="#000000" fill-rule="nonzero" fill-opacity="1" /><path clip-path="url(#clip430)" d="M2209.55 1517.37 Q2205.94 1517.37 2204.11 1520.93 Q2202.31 1524.47 2202.31 1531.6 Q2202.31 1538.71 2204.11 1542.27 Q2205.94 1545.82 2209.55 1545.82 Q2213.19 1545.82 2214.99 1542.27 Q2216.82 1538.71 2216.82 1531.6 Q2216.82 1524.47 2214.99 1520.93 Q2213.19 1517.37 2209.55 1517.37 M2209.55 1513.66 Q2215.36 1513.66 2218.42 1518.27 Q2221.5 1522.85 2221.5 1531.6 Q2221.5 1540.33 2218.42 1544.94 Q2215.36 1549.52 2209.55 1549.52 Q2203.74 1549.52 2200.67 1544.94 Q2197.61 1540.33 2197.61 1531.6 Q2197.61 1522.85 2200.67 1518.27 Q2203.74 1513.66 2209.55 1513.66 Z" fill="#000000" fill-rule="nonzero" fill-opacity="1" /><polyline clip-path="url(#clip432)" style="stroke:#000000; stroke-linecap:round; stroke-linejoin:round; stroke-width:2; stroke-opacity:0.1; fill:none" points="213.607,965.599 2352.76,965.599 "/>
<polyline clip-path="url(#clip432)" style="stroke:#000000; stroke-linecap:round; stroke-linejoin:round; stroke-width:2; stroke-opacity:0.1; fill:none" points="213.607,436.438 2352.76,436.438 "/>
<polyline clip-path="url(#clip430)" style="stroke:#000000; stroke-linecap:round; stroke-linejoin:round; stroke-width:4; stroke-opacity:1; fill:none" points="213.607,1486.45 213.607,47.2441 "/>
<polyline clip-path="url(#clip430)" style="stroke:#000000; stroke-linecap:round; stroke-linejoin:round; stroke-width:4; stroke-opacity:1; fill:none" points="213.607,965.599 232.505,965.599 "/>
<polyline clip-path="url(#clip430)" style="stroke:#000000; stroke-linecap:round; stroke-linejoin:round; stroke-width:4; stroke-opacity:1; fill:none" points="213.607,436.438 232.505,436.438 "/>
<path clip-path="url(#clip430)" d="M51.6634 985.391 L59.3023 985.391 L59.3023 959.025 L50.9921 960.692 L50.9921 956.433 L59.256 954.766 L63.9319 954.766 L63.9319 985.391 L71.5707 985.391 L71.5707 989.326 L51.6634 989.326 L51.6634 985.391 Z" fill="#000000" fill-rule="nonzero" fill-opacity="1" /><path clip-path="url(#clip430)" d="M91.0151 957.845 Q87.404 957.845 85.5753 961.41 Q83.7697 964.951 83.7697 972.081 Q83.7697 979.187 85.5753 982.752 Q87.404 986.294 91.0151 986.294 Q94.6493 986.294 96.4548 982.752 Q98.2835 979.187 98.2835 972.081 Q98.2835 964.951 96.4548 961.41 Q94.6493 957.845 91.0151 957.845 M91.0151 954.141 Q96.8252 954.141 99.8808 958.748 Q102.959 963.331 102.959 972.081 Q102.959 980.808 99.8808 985.414 Q96.8252 989.997 91.0151 989.997 Q85.2049 989.997 82.1262 985.414 Q79.0707 980.808 79.0707 972.081 Q79.0707 963.331 82.1262 958.748 Q85.2049 954.141 91.0151 954.141 Z" fill="#000000" fill-rule="nonzero" fill-opacity="1" /><path clip-path="url(#clip430)" d="M102.959 948.243 L127.071 948.243 L127.071 951.44 L102.959 951.44 L102.959 948.243 Z" fill="#000000" fill-rule="nonzero" fill-opacity="1" /><path clip-path="url(#clip430)" d="M135.929 958.718 L142.136 958.718 L142.136 937.296 L135.384 938.651 L135.384 935.19 L142.098 933.836 L145.898 933.836 L145.898 958.718 L152.104 958.718 L152.104 961.916 L135.929 961.916 L135.929 958.718 Z" fill="#000000" fill-rule="nonzero" fill-opacity="1" /><path clip-path="url(#clip430)" d="M167.903 936.337 Q164.969 936.337 163.483 939.234 Q162.016 942.111 162.016 947.904 Q162.016 953.678 163.483 956.574 Q164.969 959.452 167.903 959.452 Q170.855 959.452 172.322 956.574 Q173.808 953.678 173.808 947.904 Q173.808 942.111 172.322 939.234 Q170.855 936.337 167.903 936.337 M167.903 933.328 Q172.623 933.328 175.106 937.071 Q177.607 940.795 177.607 947.904 Q177.607 954.995 175.106 958.737 Q172.623 962.461 167.903 962.461 Q163.182 962.461 160.68 958.737 Q158.198 954.995 158.198 947.904 Q158.198 940.795 160.68 937.071 Q163.182 933.328 167.903 933.328 Z" fill="#000000" fill-rule="nonzero" fill-opacity="1" /><path clip-path="url(#clip430)" d="M76.9787 456.231 L84.6175 456.231 L84.6175 429.865 L76.3074 431.532 L76.3074 427.273 L84.5712 425.606 L89.2471 425.606 L89.2471 456.231 L96.886 456.231 L96.886 460.166 L76.9787 460.166 L76.9787 456.231 Z" fill="#000000" fill-rule="nonzero" fill-opacity="1" /><path clip-path="url(#clip430)" d="M116.33 428.685 Q112.719 428.685 110.891 432.249 Q109.085 435.791 109.085 442.921 Q109.085 450.027 110.891 453.592 Q112.719 457.133 116.33 457.133 Q119.965 457.133 121.77 453.592 Q123.599 450.027 123.599 442.921 Q123.599 435.791 121.77 432.249 Q119.965 428.685 116.33 428.685 M116.33 424.981 Q122.14 424.981 125.196 429.587 Q128.275 434.171 128.275 442.921 Q128.275 451.647 125.196 456.254 Q122.14 460.837 116.33 460.837 Q110.52 460.837 107.441 456.254 Q104.386 451.647 104.386 442.921 Q104.386 434.171 107.441 429.587 Q110.52 424.981 116.33 424.981 Z" fill="#000000" fill-rule="nonzero" fill-opacity="1" /><path clip-path="url(#clip430)" d="M128.275 419.082 L152.386 419.082 L152.386 422.28 L128.275 422.28 L128.275 419.082 Z" fill="#000000" fill-rule="nonzero" fill-opacity="1" /><path clip-path="url(#clip430)" d="M160.624 404.675 L175.539 404.675 L175.539 407.873 L164.103 407.873 L164.103 414.756 Q164.931 414.474 165.759 414.343 Q166.586 414.192 167.414 414.192 Q172.116 414.192 174.862 416.769 Q177.607 419.346 177.607 423.747 Q177.607 428.279 174.786 430.799 Q171.965 433.301 166.831 433.301 Q165.063 433.301 163.22 433 Q161.395 432.699 159.439 432.097 L159.439 428.279 Q161.132 429.201 162.937 429.652 Q164.743 430.104 166.755 430.104 Q170.009 430.104 171.909 428.392 Q173.808 426.681 173.808 423.747 Q173.808 420.813 171.909 419.101 Q170.009 417.39 166.755 417.39 Q165.232 417.39 163.709 417.728 Q162.204 418.067 160.624 418.781 L160.624 404.675 Z" fill="#000000" fill-rule="nonzero" fill-opacity="1" /><polyline clip-path="url(#clip432)" style="stroke:#009af9; stroke-linecap:round; stroke-linejoin:round; stroke-width:4; stroke-opacity:1; fill:none" points="274.149,87.9763 306.699,132.914 339.248,168.317 371.798,203.261 404.347,238.193 436.897,273.134 469.446,308.078 501.995,343.024 534.545,377.97 567.094,412.916 599.644,447.862 632.193,482.808 664.743,517.755 697.292,552.701 729.841,587.647 762.391,622.593 794.94,657.539 827.49,692.485 860.039,727.432 892.589,762.378 925.138,797.324 957.687,832.27 990.237,867.216 1022.79,902.163 1055.34,937.109 1087.89,972.055 1120.43,1007 1152.98,1041.95 1185.53,1076.89 1218.08,1111.84 1250.63,1146.79 1283.18,1181.73 1315.73,1216.62 1348.28,1251.78 1380.83,1286.01 1413.38,1320.95 1445.93,1354.84 1478.48,1383.48 1511.03,1403.81 1543.58,1419.27 1576.13,1419.42 1608.68,1432.88 1641.23,1431.27 1673.77,1430.87 1706.32,1433.43 1738.87,1430.31 1771.42,1436.9 1803.97,1437.86 1836.52,1431.76 1869.07,1431.81 1901.62,1428.68 1934.17,1434 1966.72,1437.34 1999.27,1434.15 2031.82,1429.65 2064.37,1432.19 2096.92,1445.72 2129.47,1431.9 2162.02,1429.32 2194.57,1433.63 2227.12,1437.38 2259.66,1439.79 2292.21,1441.75 "/>
<path clip-path="url(#clip430)" d="M2015.11 198.898 L2281.45 198.898 L2281.45 95.2176 L2015.11 95.2176  Z" fill="#ffffff" fill-rule="evenodd" fill-opacity="1"/>
<polyline clip-path="url(#clip430)" style="stroke:#000000; stroke-linecap:round; stroke-linejoin:round; stroke-width:4; stroke-opacity:1; fill:none" points="2015.11,198.898 2281.45,198.898 2281.45,95.2176 2015.11,95.2176 2015.11,198.898 "/>
<polyline clip-path="url(#clip430)" style="stroke:#009af9; stroke-linecap:round; stroke-linejoin:round; stroke-width:4; stroke-opacity:1; fill:none" points="2038.87,147.058 2181.48,147.058 "/>
<path clip-path="url(#clip430)" d="M2219.09 166.745 Q2217.29 171.375 2215.58 172.787 Q2213.86 174.199 2210.99 174.199 L2207.59 174.199 L2207.59 170.634 L2210.09 170.634 Q2211.85 170.634 2212.82 169.8 Q2213.79 168.967 2214.97 165.865 L2215.74 163.921 L2205.25 138.412 L2209.77 138.412 L2217.87 158.689 L2225.97 138.412 L2230.48 138.412 L2219.09 166.745 Z" fill="#000000" fill-rule="nonzero" fill-opacity="1" /><path clip-path="url(#clip430)" d="M2237.78 160.402 L2245.41 160.402 L2245.41 134.037 L2237.1 135.703 L2237.1 131.444 L2245.37 129.778 L2250.04 129.778 L2250.04 160.402 L2257.68 160.402 L2257.68 164.338 L2237.78 164.338 L2237.78 160.402 Z" fill="#000000" fill-rule="nonzero" fill-opacity="1" /></svg>
