<?xml version="1.0" encoding="utf-8"?>
<svg xmlns="http://www.w3.org/2000/svg" xmlns:xlink="http://www.w3.org/1999/xlink" width="600" height="400" viewBox="0 0 2400 1600">
<defs>
  <clipPath id="clip990">
    <rect x="0" y="0" width="2400" height="1600"/>
  </clipPath>
</defs>
<path clip-path="url(#clip990)" d="M0 1600 L2400 1600 L2400 0 L0 0  Z" fill="#ffffff" fill-rule="evenodd" fill-opacity="1"/>
<defs>
  <clipPath id="clip991">
    <rect x="480" y="0" width="1681" height="1600"/>
  </clipPath>
</defs>
<path clip-path="url(#clip990)" d="M219.38 1423.18 L2352.76 1423.18 L2352.76 47.2441 L219.38 47.2441  Z" fill="#ffffff" fill-rule="evenodd" fill-opacity="1"/>
<defs>
  <clipPath id="clip992">
    <rect x="219" y="47" width="2134" height="1377"/>
  </clipPath>
</defs>
<polyline clip-path="url(#clip992)" style="stroke:#000000; stroke-linecap:round; stroke-linejoin:round; stroke-width:2; stroke-opacity:0.1; fill:none" points="219.38,1423.18 219.38,47.2441 "/>
<polyline clip-path="url(#clip992)" style="stroke:#000000; stroke-linecap:round; stroke-linejoin:round; stroke-width:2; stroke-opacity:0.1; fill:none" points="752.724,1423.18 752.724,47.2441 "/>
<polyline clip-path="url(#clip992)" style="stroke:#000000; stroke-linecap:round; stroke-linejoin:round; stroke-width:2; stroke-opacity:0.1; fill:none" points="1286.07,1423.18 1286.07,47.2441 "/>
<polyline clip-path="url(#clip992)" style="stroke:#000000; stroke-linecap:round; stroke-linejoin:round; stroke-width:2; stroke-opacity:0.1; fill:none" points="1819.41,1423.18 1819.41,47.2441 "/>
<polyline clip-path="url(#clip992)" style="stroke:#000000; stroke-linecap:round; stroke-linejoin:round; stroke-width:2; stroke-opacity:0.1; fill:none" points="2352.76,1423.18 2352.76,47.2441 "/>
<polyline clip-path="url(#clip990)" style="stroke:#000000; stroke-linecap:round; stroke-linejoin:round; stroke-width:4; stroke-opacity:1; fill:none" points="219.38,1423.18 2352.76,1423.18 "/>
<polyline clip-path="url(#clip990)" style="stroke:#000000; stroke-linecap:round; stroke-linejoin:round; stroke-width:4; stroke-opacity:1; fill:none" points="219.38,1423.18 219.38,1404.28 "/>
<polyline clip-path="url(#clip990)" style="stroke:#000000; stroke-linecap:round; stroke-linejoin:round; stroke-width:4; stroke-opacity:1; fill:none" points="752.724,1423.18 752.724,1404.28 "/>
<polyline clip-path="url(#clip990)" style="stroke:#000000; stroke-linecap:round; stroke-linejoin:round; stroke-width:4; stroke-opacity:1; fill:none" points="1286.07,1423.18 1286.07,1404.28 "/>
<polyline clip-path="url(#clip990)" style="stroke:#000000; stroke-linecap:round; stroke-linejoin:round; stroke-width:4; stroke-opacity:1; fill:none" points="1819.41,1423.18 1819.41,1404.28 "/>
<polyline clip-path="url(#clip990)" style="stroke:#000000; stroke-linecap:round; stroke-linejoin:round; stroke-width:4; stroke-opacity:1; fill:none" points="2352.76,1423.18 2352.76,1404.28 "/>
<path clip-path="url(#clip990)" d="M189.322 1468.75 L218.998 1468.75 L218.998 1472.69 L189.322 1472.69 L189.322 1468.75 Z" fill="#000000" fill-rule="nonzero" fill-opacity="1" /><path clip-path="url(#clip990)" d="M233.119 1481.64 L249.438 1481.64 L249.438 1485.58 L227.494 1485.58 L227.494 1481.64 Q230.156 1478.89 234.739 1474.26 Q239.345 1469.61 240.526 1468.27 Q242.771 1465.74 243.651 1464.01 Q244.554 1462.25 244.554 1460.56 Q244.554 1457.8 242.609 1456.07 Q240.688 1454.33 237.586 1454.33 Q235.387 1454.33 232.933 1455.09 Q230.503 1455.86 227.725 1457.41 L227.725 1452.69 Q230.549 1451.55 233.003 1450.97 Q235.456 1450.39 237.493 1450.39 Q242.864 1450.39 246.058 1453.08 Q249.253 1455.77 249.253 1460.26 Q249.253 1462.39 248.443 1464.31 Q247.655 1466.2 245.549 1468.8 Q244.97 1469.47 241.868 1472.69 Q238.767 1475.88 233.119 1481.64 Z" fill="#000000" fill-rule="nonzero" fill-opacity="1" /><path clip-path="url(#clip990)" d="M722.481 1468.75 L752.157 1468.75 L752.157 1472.69 L722.481 1472.69 L722.481 1468.75 Z" fill="#000000" fill-rule="nonzero" fill-opacity="1" /><path clip-path="url(#clip990)" d="M763.06 1481.64 L770.699 1481.64 L770.699 1455.28 L762.388 1456.95 L762.388 1452.69 L770.652 1451.02 L775.328 1451.02 L775.328 1481.64 L782.967 1481.64 L782.967 1485.58 L763.06 1485.58 L763.06 1481.64 Z" fill="#000000" fill-rule="nonzero" fill-opacity="1" /><path clip-path="url(#clip990)" d="M1286.07 1454.1 Q1282.46 1454.1 1280.63 1457.66 Q1278.82 1461.2 1278.82 1468.33 Q1278.82 1475.44 1280.63 1479.01 Q1282.46 1482.55 1286.07 1482.55 Q1289.7 1482.55 1291.51 1479.01 Q1293.34 1475.44 1293.34 1468.33 Q1293.34 1461.2 1291.51 1457.66 Q1289.7 1454.1 1286.07 1454.1 M1286.07 1450.39 Q1291.88 1450.39 1294.93 1455 Q1298.01 1459.58 1298.01 1468.33 Q1298.01 1477.06 1294.93 1481.67 Q1291.88 1486.25 1286.07 1486.25 Q1280.26 1486.25 1277.18 1481.67 Q1274.12 1477.06 1274.12 1468.33 Q1274.12 1459.58 1277.18 1455 Q1280.26 1450.39 1286.07 1450.39 Z" fill="#000000" fill-rule="nonzero" fill-opacity="1" /><path clip-path="url(#clip990)" d="M1809.79 1481.64 L1817.43 1481.64 L1817.43 1455.28 L1809.12 1456.95 L1809.12 1452.69 L1817.39 1451.02 L1822.06 1451.02 L1822.06 1481.64 L1829.7 1481.64 L1829.7 1485.58 L1809.79 1485.58 L1809.79 1481.64 Z" fill="#000000" fill-rule="nonzero" fill-opacity="1" /><path clip-path="url(#clip990)" d="M2347.41 1481.64 L2363.73 1481.64 L2363.73 1485.58 L2341.78 1485.58 L2341.78 1481.64 Q2344.45 1478.89 2349.03 1474.26 Q2353.64 1469.61 2354.82 1468.27 Q2357.06 1465.74 2357.94 1464.01 Q2358.84 1462.25 2358.84 1460.56 Q2358.84 1457.8 2356.9 1456.07 Q2354.98 1454.33 2351.88 1454.33 Q2349.68 1454.33 2347.22 1455.09 Q2344.79 1455.86 2342.02 1457.41 L2342.02 1452.69 Q2344.84 1451.55 2347.29 1450.97 Q2349.75 1450.39 2351.78 1450.39 Q2357.15 1450.39 2360.35 1453.08 Q2363.54 1455.77 2363.54 1460.26 Q2363.54 1462.39 2362.73 1464.31 Q2361.95 1466.2 2359.84 1468.8 Q2359.26 1469.47 2356.16 1472.69 Q2353.06 1475.88 2347.41 1481.64 Z" fill="#000000" fill-rule="nonzero" fill-opacity="1" /><path clip-path="url(#clip990)" d="M1301.2 1538.21 Q1301.2 1541.46 1299.52 1544.71 Q1297.85 1547.96 1295.11 1550.48 Q1292.37 1552.96 1288.64 1554.57 Q1284.9 1556.18 1281.01 1556.31 L1278.49 1566.13 Q1278.01 1568.51 1277.75 1568.77 Q1277.5 1569.03 1277.11 1569.03 Q1276.3 1569.03 1276.3 1568.29 Q1276.3 1568.06 1277.75 1562.49 L1279.3 1556.31 Q1273.44 1555.98 1270.02 1552.6 Q1266.61 1549.22 1266.61 1544.36 Q1266.61 1541.07 1268.28 1537.82 Q1269.99 1534.53 1272.73 1532.05 Q1275.5 1529.57 1279.23 1528 Q1282.97 1526.42 1286.8 1526.29 L1290.64 1511.06 Q1290.83 1510.19 1290.99 1509.96 Q1291.15 1509.74 1291.63 1509.74 Q1291.99 1509.74 1292.18 1509.9 Q1292.37 1510.06 1292.37 1510.22 L1292.41 1510.38 L1292.21 1511.31 L1288.51 1526.29 Q1291.79 1526.52 1294.34 1527.67 Q1296.88 1528.83 1298.33 1530.57 Q1299.78 1532.28 1300.49 1534.21 Q1301.2 1536.14 1301.2 1538.21 M1286.42 1527.74 Q1282.87 1528.06 1279.88 1529.8 Q1276.88 1531.54 1274.95 1534.12 Q1273.02 1536.66 1271.96 1539.72 Q1270.89 1542.75 1270.89 1545.74 Q1270.89 1548.09 1271.67 1549.9 Q1272.47 1551.7 1273.79 1552.73 Q1275.11 1553.73 1276.56 1554.28 Q1278.04 1554.79 1279.62 1554.86 L1286.42 1527.74 M1296.88 1536.82 Q1296.88 1532.63 1294.47 1530.28 Q1292.05 1527.93 1288.12 1527.74 L1281.33 1554.86 Q1284.19 1554.63 1286.71 1553.44 Q1289.25 1552.22 1291.09 1550.41 Q1292.92 1548.58 1294.24 1546.32 Q1295.56 1544.04 1296.21 1541.62 Q1296.88 1539.17 1296.88 1536.82 Z" fill="#000000" fill-rule="nonzero" fill-opacity="1" /><polyline clip-path="url(#clip992)" style="stroke:#000000; stroke-linecap:round; stroke-linejoin:round; stroke-width:2; stroke-opacity:0.1; fill:none" points="219.38,1384.24 2352.76,1384.24 "/>
<polyline clip-path="url(#clip992)" style="stroke:#000000; stroke-linecap:round; stroke-linejoin:round; stroke-width:2; stroke-opacity:0.1; fill:none" points="219.38,1095.78 2352.76,1095.78 "/>
<polyline clip-path="url(#clip992)" style="stroke:#000000; stroke-linecap:round; stroke-linejoin:round; stroke-width:2; stroke-opacity:0.1; fill:none" points="219.38,807.327 2352.76,807.327 "/>
<polyline clip-path="url(#clip992)" style="stroke:#000000; stroke-linecap:round; stroke-linejoin:round; stroke-width:2; stroke-opacity:0.1; fill:none" points="219.38,518.87 2352.76,518.87 "/>
<polyline clip-path="url(#clip992)" style="stroke:#000000; stroke-linecap:round; stroke-linejoin:round; stroke-width:2; stroke-opacity:0.1; fill:none" points="219.38,230.414 2352.76,230.414 "/>
<polyline clip-path="url(#clip990)" style="stroke:#000000; stroke-linecap:round; stroke-linejoin:round; stroke-width:4; stroke-opacity:1; fill:none" points="219.38,1423.18 219.38,47.2441 "/>
<polyline clip-path="url(#clip990)" style="stroke:#000000; stroke-linecap:round; stroke-linejoin:round; stroke-width:4; stroke-opacity:1; fill:none" points="219.38,1384.24 238.278,1384.24 "/>
<polyline clip-path="url(#clip990)" style="stroke:#000000; stroke-linecap:round; stroke-linejoin:round; stroke-width:4; stroke-opacity:1; fill:none" points="219.38,1095.78 238.278,1095.78 "/>
<polyline clip-path="url(#clip990)" style="stroke:#000000; stroke-linecap:round; stroke-linejoin:round; stroke-width:4; stroke-opacity:1; fill:none" points="219.38,807.327 238.278,807.327 "/>
<polyline clip-path="url(#clip990)" style="stroke:#000000; stroke-linecap:round; stroke-linejoin:round; stroke-width:4; stroke-opacity:1; fill:none" points="219.38,518.87 238.278,518.87 "/>
<polyline clip-path="url(#clip990)" style="stroke:#000000; stroke-linecap:round; stroke-linejoin:round; stroke-width:4; stroke-opacity:1; fill:none" points="219.38,230.414 238.278,230.414 "/>
<path clip-path="url(#clip990)" d="M126.205 1370.04 Q122.593 1370.04 120.765 1373.6 Q118.959 1377.14 118.959 1384.27 Q118.959 1391.38 120.765 1394.95 Q122.593 1398.49 126.205 1398.49 Q129.839 1398.49 131.644 1394.95 Q133.473 1391.38 133.473 1384.27 Q133.473 1377.14 131.644 1373.6 Q129.839 1370.04 126.205 1370.04 M126.205 1366.33 Q132.015 1366.33 135.07 1370.94 Q138.149 1375.52 138.149 1384.27 Q138.149 1393 135.07 1397.61 Q132.015 1402.19 126.205 1402.19 Q120.394 1402.19 117.316 1397.61 Q114.26 1393 114.26 1384.27 Q114.26 1375.52 117.316 1370.94 Q120.394 1366.33 126.205 1366.33 Z" fill="#000000" fill-rule="nonzero" fill-opacity="1" /><path clip-path="url(#clip990)" d="M146.366 1395.64 L151.251 1395.64 L151.251 1401.52 L146.366 1401.52 L146.366 1395.64 Z" fill="#000000" fill-rule="nonzero" fill-opacity="1" /><path clip-path="url(#clip990)" d="M171.436 1370.04 Q167.825 1370.04 165.996 1373.6 Q164.19 1377.14 164.19 1384.27 Q164.19 1391.38 165.996 1394.95 Q167.825 1398.49 171.436 1398.49 Q175.07 1398.49 176.876 1394.95 Q178.704 1391.38 178.704 1384.27 Q178.704 1377.14 176.876 1373.6 Q175.07 1370.04 171.436 1370.04 M171.436 1366.33 Q177.246 1366.33 180.301 1370.94 Q183.38 1375.52 183.38 1384.27 Q183.38 1393 180.301 1397.61 Q177.246 1402.19 171.436 1402.19 Q165.626 1402.19 162.547 1397.61 Q159.491 1393 159.491 1384.27 Q159.491 1375.52 162.547 1370.94 Q165.626 1366.33 171.436 1366.33 Z" fill="#000000" fill-rule="nonzero" fill-opacity="1" /><path clip-path="url(#clip990)" d="M127.2 1081.58 Q123.589 1081.58 121.76 1085.15 Q119.955 1088.69 119.955 1095.82 Q119.955 1102.92 121.76 1106.49 Q123.589 1110.03 127.2 1110.03 Q130.834 1110.03 132.64 1106.49 Q134.468 1102.92 134.468 1095.82 Q134.468 1088.69 132.64 1085.15 Q130.834 1081.58 127.2 1081.58 M127.2 1077.88 Q133.01 1077.88 136.066 1082.48 Q139.144 1087.07 139.144 1095.82 Q139.144 1104.54 136.066 1109.15 Q133.01 1113.73 127.2 1113.73 Q121.39 1113.73 118.311 1109.15 Q115.256 1104.54 115.256 1095.82 Q115.256 1087.07 118.311 1082.48 Q121.39 1077.88 127.2 1077.88 Z" fill="#000000" fill-rule="nonzero" fill-opacity="1" /><path clip-path="url(#clip990)" d="M147.362 1107.18 L152.246 1107.18 L152.246 1113.06 L147.362 1113.06 L147.362 1107.18 Z" fill="#000000" fill-rule="nonzero" fill-opacity="1" /><path clip-path="url(#clip990)" d="M162.477 1078.5 L180.834 1078.5 L180.834 1082.44 L166.76 1082.44 L166.76 1090.91 Q167.778 1090.56 168.797 1090.4 Q169.815 1090.22 170.834 1090.22 Q176.621 1090.22 180.001 1093.39 Q183.38 1096.56 183.38 1101.98 Q183.38 1107.55 179.908 1110.66 Q176.436 1113.73 170.116 1113.73 Q167.94 1113.73 165.672 1113.36 Q163.427 1112.99 161.019 1112.25 L161.019 1107.55 Q163.102 1108.69 165.325 1109.24 Q167.547 1109.8 170.024 1109.8 Q174.028 1109.8 176.366 1107.69 Q178.704 1105.59 178.704 1101.98 Q178.704 1098.36 176.366 1096.26 Q174.028 1094.15 170.024 1094.15 Q168.149 1094.15 166.274 1094.57 Q164.422 1094.98 162.477 1095.86 L162.477 1078.5 Z" fill="#000000" fill-rule="nonzero" fill-opacity="1" /><path clip-path="url(#clip990)" d="M117.015 820.671 L124.654 820.671 L124.654 794.306 L116.343 795.972 L116.343 791.713 L124.607 790.047 L129.283 790.047 L129.283 820.671 L136.922 820.671 L136.922 824.607 L117.015 824.607 L117.015 820.671 Z" fill="#000000" fill-rule="nonzero" fill-opacity="1" /><path clip-path="url(#clip990)" d="M146.366 818.727 L151.251 818.727 L151.251 824.607 L146.366 824.607 L146.366 818.727 Z" fill="#000000" fill-rule="nonzero" fill-opacity="1" /><path clip-path="url(#clip990)" d="M171.436 793.125 Q167.825 793.125 165.996 796.69 Q164.19 800.232 164.19 807.361 Q164.19 814.468 165.996 818.033 Q167.825 821.574 171.436 821.574 Q175.07 821.574 176.876 818.033 Q178.704 814.468 178.704 807.361 Q178.704 800.232 176.876 796.69 Q175.07 793.125 171.436 793.125 M171.436 789.422 Q177.246 789.422 180.301 794.028 Q183.38 798.611 183.38 807.361 Q183.38 816.088 180.301 820.695 Q177.246 825.278 171.436 825.278 Q165.626 825.278 162.547 820.695 Q159.491 816.088 159.491 807.361 Q159.491 798.611 162.547 794.028 Q165.626 789.422 171.436 789.422 Z" fill="#000000" fill-rule="nonzero" fill-opacity="1" /><path clip-path="url(#clip990)" d="M118.01 532.215 L125.649 532.215 L125.649 505.849 L117.339 507.516 L117.339 503.257 L125.603 501.59 L130.279 501.59 L130.279 532.215 L137.917 532.215 L137.917 536.15 L118.01 536.15 L118.01 532.215 Z" fill="#000000" fill-rule="nonzero" fill-opacity="1" /><path clip-path="url(#clip990)" d="M147.362 530.271 L152.246 530.271 L152.246 536.15 L147.362 536.15 L147.362 530.271 Z" fill="#000000" fill-rule="nonzero" fill-opacity="1" /><path clip-path="url(#clip990)" d="M162.477 501.59 L180.834 501.59 L180.834 505.525 L166.76 505.525 L166.76 513.998 Q167.778 513.65 168.797 513.488 Q169.815 513.303 170.834 513.303 Q176.621 513.303 180.001 516.474 Q183.38 519.646 183.38 525.062 Q183.38 530.641 179.908 533.743 Q176.436 536.822 170.116 536.822 Q167.94 536.822 165.672 536.451 Q163.427 536.081 161.019 535.34 L161.019 530.641 Q163.102 531.775 165.325 532.331 Q167.547 532.886 170.024 532.886 Q174.028 532.886 176.366 530.78 Q178.704 528.673 178.704 525.062 Q178.704 521.451 176.366 519.345 Q174.028 517.238 170.024 517.238 Q168.149 517.238 166.274 517.655 Q164.422 518.072 162.477 518.951 L162.477 501.59 Z" fill="#000000" fill-rule="nonzero" fill-opacity="1" /><path clip-path="url(#clip990)" d="M120.232 243.759 L136.552 243.759 L136.552 247.694 L114.607 247.694 L114.607 243.759 Q117.269 241.004 121.853 236.374 Q126.459 231.722 127.64 230.379 Q129.885 227.856 130.765 226.12 Q131.667 224.361 131.667 222.671 Q131.667 219.916 129.723 218.18 Q127.802 216.444 124.7 216.444 Q122.501 216.444 120.047 217.208 Q117.617 217.972 114.839 219.523 L114.839 214.801 Q117.663 213.666 120.117 213.088 Q122.57 212.509 124.607 212.509 Q129.978 212.509 133.172 215.194 Q136.367 217.879 136.367 222.37 Q136.367 224.5 135.556 226.421 Q134.769 228.319 132.663 230.912 Q132.084 231.583 128.982 234.8 Q125.88 237.995 120.232 243.759 Z" fill="#000000" fill-rule="nonzero" fill-opacity="1" /><path clip-path="url(#clip990)" d="M146.366 241.814 L151.251 241.814 L151.251 247.694 L146.366 247.694 L146.366 241.814 Z" fill="#000000" fill-rule="nonzero" fill-opacity="1" /><path clip-path="url(#clip990)" d="M171.436 216.213 Q167.825 216.213 165.996 219.777 Q164.19 223.319 164.19 230.449 Q164.19 237.555 165.996 241.12 Q167.825 244.661 171.436 244.661 Q175.07 244.661 176.876 241.12 Q178.704 237.555 178.704 230.449 Q178.704 223.319 176.876 219.777 Q175.07 216.213 171.436 216.213 M171.436 212.509 Q177.246 212.509 180.301 217.115 Q183.38 221.699 183.38 230.449 Q183.38 239.175 180.301 243.782 Q177.246 248.365 171.436 248.365 Q165.626 248.365 162.547 243.782 Q159.491 239.175 159.491 230.449 Q159.491 221.699 162.547 217.115 Q165.626 212.509 171.436 212.509 Z" fill="#000000" fill-rule="nonzero" fill-opacity="1" /><path clip-path="url(#clip990)" d="M21.7688 750.765 Q22.3485 750.765 22.6706 750.99 Q22.9604 751.216 22.9927 751.409 Q23.0249 751.57 23.0893 752.021 Q23.2181 753.502 23.669 754.662 Q24.1199 755.821 24.9894 756.691 Q25.8268 757.56 26.5997 758.108 Q27.3726 758.655 28.6931 759.396 L66.2773 781.038 Q66.6638 781.264 66.857 781.425 Q67.0825 781.554 67.3079 781.876 Q67.5334 782.198 67.5334 782.616 Q67.5334 783.196 67.2113 783.389 Q66.8892 783.583 65.8264 783.679 L32.5256 786.095 L66.1485 805.515 Q66.7604 805.869 66.9537 806.03 Q67.1791 806.159 67.3401 806.449 Q67.5334 806.706 67.5334 807.093 Q67.5334 807.544 67.3079 807.769 Q67.1147 807.995 66.8248 808.059 Q66.535 808.091 65.8264 808.123 L25.5047 811.119 Q23.991 811.215 23.5402 811.763 Q23.0893 812.278 23.0893 814.597 Q23.0893 815.241 23.0571 815.531 Q23.0249 815.788 22.8638 816.014 Q22.6706 816.239 22.2841 816.239 Q21.0281 816.239 21.0281 815.048 Q21.0281 813.921 21.1247 811.602 Q21.2213 809.283 21.2213 808.123 Q21.2213 806.771 21.1247 804.066 Q21.0281 801.36 21.0281 800.04 Q21.0281 799.106 21.7688 799.106 Q22.3807 799.106 22.7028 799.363 Q22.9927 799.589 23.0571 799.814 Q23.0893 800.04 23.0893 800.491 Q23.1215 802.262 23.3469 803.389 Q23.5724 804.484 24.0232 804.903 Q24.4419 805.322 24.7318 805.418 Q24.9894 805.515 25.4403 805.515 L58.9022 803.003 L29.8203 786.32 L24.7318 786.707 Q23.7334 786.803 23.4113 787.447 Q23.0893 788.091 23.0893 790.185 Q23.0893 790.765 23.0571 791.054 Q23.0249 791.312 22.8638 791.57 Q22.7028 791.795 22.3485 791.795 Q21.7366 791.795 21.4468 791.537 Q21.1247 791.28 21.0925 791.087 Q21.0281 790.861 21.0281 790.539 Q21.0281 789.798 21.1247 787.093 Q21.2213 784.388 21.2213 783.615 Q21.2213 782.294 21.1247 779.589 Q21.0281 776.884 21.0281 775.563 Q21.0281 774.565 21.7688 774.565 Q22.6706 774.565 22.896 774.951 Q23.0893 775.338 23.0893 776.336 Q23.1215 778.043 23.3791 779.106 Q23.6368 780.137 24.2165 780.523 Q24.764 780.877 25.1182 780.942 Q25.4725 781.006 26.181 780.974 L58.9022 778.526 L27.8235 760.716 Q27.6947 760.652 27.3404 760.459 Q26.954 760.233 26.8574 760.201 Q26.7607 760.137 26.5031 760.04 Q26.2454 759.911 26.0844 759.879 Q25.8912 759.847 25.6657 759.847 Q24.3453 759.847 23.7656 761.039 Q23.1537 762.23 23.0893 763.744 Q23.0893 764.742 22.2841 764.742 Q21.7044 764.742 21.4146 764.485 Q21.0925 764.227 21.0603 764.034 Q21.0281 763.808 21.0281 763.486 Q21.0281 762.391 21.1247 760.072 Q21.2213 757.754 21.2213 756.626 Q21.2213 755.789 21.1247 754.05 Q21.0281 752.311 21.0281 751.538 Q21.0281 751.184 21.2857 750.99 Q21.5434 750.765 21.7688 750.765 Z" fill="#000000" fill-rule="nonzero" fill-opacity="1" /><path clip-path="url(#clip990)" d="M49.5947 741.644 Q38.4515 741.644 29.466 737.489 Q25.6979 735.718 22.5418 733.238 Q19.3856 730.758 18.0007 729.115 Q16.6159 727.473 16.6159 727.022 Q16.6159 726.378 17.26 726.346 Q17.5821 726.346 18.3872 727.215 Q29.2084 737.843 49.5947 737.811 Q70.0454 737.811 80.4479 727.473 Q81.5751 726.346 81.9294 726.346 Q82.5735 726.346 82.5735 727.022 Q82.5735 727.473 81.2531 729.051 Q79.9326 730.629 76.9053 733.077 Q73.8779 735.524 70.1742 737.296 Q61.1888 741.644 49.5947 741.644 Z" fill="#000000" fill-rule="nonzero" fill-opacity="1" /><path clip-path="url(#clip990)" d="M48.7895 685.687 Q52.0423 685.687 55.2951 687.362 Q58.5479 689.036 61.06 691.774 Q63.5398 694.511 65.1501 698.247 Q66.7604 701.983 66.8892 705.88 L76.712 708.392 Q79.0953 708.875 79.3529 709.133 Q79.6106 709.391 79.6106 709.777 Q79.6106 710.582 78.8698 710.582 Q78.6444 710.582 73.0728 709.133 L66.8892 707.587 Q66.5672 713.449 63.1856 716.862 Q59.804 720.276 54.9409 720.276 Q51.6559 720.276 48.4031 718.601 Q45.1181 716.895 42.6382 714.157 Q40.1584 711.387 38.5803 707.651 Q37.0022 703.916 36.8734 700.083 L21.64 696.251 Q20.7704 696.057 20.545 695.896 Q20.3196 695.735 20.3196 695.252 Q20.3196 694.898 20.4806 694.705 Q20.6416 694.511 20.8027 694.511 L20.9637 694.479 L21.8977 694.672 L36.8734 698.376 Q37.0988 695.091 38.2582 692.547 Q39.4176 690.003 41.1568 688.553 Q42.8637 687.104 44.796 686.396 Q46.7284 685.687 48.7895 685.687 M38.3226 700.47 Q38.6447 704.012 40.3838 707.007 Q42.1229 710.002 44.6994 711.935 Q47.2437 713.867 50.3032 714.93 Q53.3306 715.993 56.3257 715.993 Q58.6767 715.993 60.4803 715.22 Q62.2838 714.415 63.3144 713.094 Q64.3128 711.774 64.8603 710.325 Q65.3756 708.843 65.44 707.265 L38.3226 700.47 M47.4047 690.003 Q43.2179 690.003 40.8669 692.418 Q38.5159 694.834 38.3226 698.763 L65.44 705.558 Q65.2145 702.692 64.0229 700.18 Q62.7991 697.635 60.9956 695.8 Q59.1598 693.964 56.9054 692.644 Q54.6188 691.323 52.2034 690.679 Q49.7557 690.003 47.4047 690.003 Z" fill="#000000" fill-rule="nonzero" fill-opacity="1" /><path clip-path="url(#clip990)" d="M81.9294 679.512 Q81.6073 679.512 80.8022 678.675 Q69.981 668.047 49.5947 668.047 Q29.144 668.047 18.8059 678.256 Q17.6143 679.512 17.26 679.512 Q16.6159 679.512 16.6159 678.868 Q16.6159 678.417 17.9363 676.839 Q19.2568 675.229 22.2841 672.813 Q25.3115 670.366 29.0151 668.562 Q38.0006 664.214 49.5947 664.214 Q60.7379 664.214 69.7234 668.369 Q73.4914 670.14 76.6476 672.62 Q79.8038 675.1 81.1886 676.742 Q82.5735 678.385 82.5735 678.868 Q82.5735 679.512 81.9294 679.512 Z" fill="#000000" fill-rule="nonzero" fill-opacity="1" /><polyline clip-path="url(#clip992)" style="stroke:#009af9; stroke-linecap:round; stroke-linejoin:round; stroke-width:4; stroke-opacity:1; fill:none" points="219.38,86.1857 222.853,108.588 226.325,130.722 229.797,152.592 233.27,174.198 241.296,223.147 249.323,270.721 257.35,316.945 265.377,361.841 273.403,405.432 281.43,447.741 289.457,488.789 297.484,528.6 305.51,567.194 313.537,604.593 321.564,640.82 329.591,675.896 337.617,709.841 345.644,742.677 353.671,774.426 361.698,805.107 371.345,840.599 380.992,874.614 390.64,907.188 400.287,938.353 409.935,968.146 419.582,996.599 429.23,1023.75 438.877,1049.62 447.034,1070.53 455.191,1090.57 463.348,1109.76 471.505,1128.13 487.818,1162.45 504.132,1193.68 521.853,1224.28 539.574,1251.59 557.296,1275.8 575.017,1297.07 591.354,1314.24 607.691,1329.19 624.029,1342.05 640.366,1352.96 657.882,1362.61 675.397,1370.29 692.912,1376.15 710.428,1380.32 730.721,1383.22 751.014,1384.23 771.308,1383.56 791.601,1381.39 827.669,1374.39 863.738,1364.18 895.367,1353.27 926.996,1341.13 995.964,1312.73 1065.34,1285.19 1103.69,1271.77 1142.05,1260.28 1178.54,1251.5 1215.03,1245.08 1252.97,1241.12 1290.92,1240.03 1322.86,1241.38 1354.8,1244.76 1393.79,1251.54 1432.79,1261.01 1468.51,1271.79 1504.23,1284.24 1570.22,1310.27 1637.06,1337.89 1674.51,1352.44 1711.97,1365.3 1745.91,1374.74 1779.84,1381.3 1799.27,1383.45 1818.7,1384.24 1838.13,1383.5 1857.56,1381.07 1875.55,1377.16 1893.54,1371.49 1911.53,1363.93 1929.52,1354.31 1947.26,1342.67 1964.99,1328.72 1982.73,1312.31 2000.46,1293.27 2017.68,1272.11 2034.9,1248.16 2052.12,1221.25 2069.35,1191.22 2078.17,1174.57 2087,1157.02 2095.82,1138.57 2104.65,1119.18 2113.48,1098.83 2122.3,1077.5 2131.13,1055.16 2139.96,1031.79 2149.63,1004.97 2159.3,976.851 2168.97,947.394 2178.64,916.568 2188.31,884.337 2197.98,850.668 2207.65,815.525 2217.32,778.873 2224.34,751.285 2231.37,722.868 2238.39,693.608 2245.41,663.491 2252.44,632.503 2259.46,600.63 2266.49,567.856 2273.51,534.169 2280.53,499.552 2287.56,463.992 2294.58,427.474 2301.61,389.982 2308.63,351.503 2315.65,312.019 2322.68,271.518 2329.7,229.982 2335.46,195.114 2341.23,159.531 2346.99,123.225 2352.76,86.1857 "/>
</svg>
