<?xml version="1.0" encoding="utf-8"?>
<svg xmlns="http://www.w3.org/2000/svg" xmlns:xlink="http://www.w3.org/1999/xlink" width="600" height="400" viewBox="0 0 2400 1600">
<defs>
  <clipPath id="clip750">
    <rect x="0" y="0" width="2400" height="1600"/>
  </clipPath>
</defs>
<path clip-path="url(#clip750)" d="M0 1600 L2400 1600 L2400 0 L0 0  Z" fill="#ffffff" fill-rule="evenodd" fill-opacity="1"/>
<defs>
  <clipPath id="clip751">
    <rect x="480" y="0" width="1681" height="1600"/>
  </clipPath>
</defs>
<path clip-path="url(#clip750)" d="M156.112 1486.45 L2352.76 1486.45 L2352.76 47.2441 L156.112 47.2441  Z" fill="#ffffff" fill-rule="evenodd" fill-opacity="1"/>
<defs>
  <clipPath id="clip752">
    <rect x="156" y="47" width="2198" height="1440"/>
  </clipPath>
</defs>
<polyline clip-path="url(#clip752)" style="stroke:#000000; stroke-linecap:round; stroke-linejoin:round; stroke-width:2; stroke-opacity:0.1; fill:none" points="156.112,1486.45 156.112,47.2441 "/>
<polyline clip-path="url(#clip752)" style="stroke:#000000; stroke-linecap:round; stroke-linejoin:round; stroke-width:2; stroke-opacity:0.1; fill:none" points="705.273,1486.45 705.273,47.2441 "/>
<polyline clip-path="url(#clip752)" style="stroke:#000000; stroke-linecap:round; stroke-linejoin:round; stroke-width:2; stroke-opacity:0.1; fill:none" points="1254.43,1486.45 1254.43,47.2441 "/>
<polyline clip-path="url(#clip752)" style="stroke:#000000; stroke-linecap:round; stroke-linejoin:round; stroke-width:2; stroke-opacity:0.1; fill:none" points="1803.59,1486.45 1803.59,47.2441 "/>
<polyline clip-path="url(#clip752)" style="stroke:#000000; stroke-linecap:round; stroke-linejoin:round; stroke-width:2; stroke-opacity:0.1; fill:none" points="2352.76,1486.45 2352.76,47.2441 "/>
<polyline clip-path="url(#clip750)" style="stroke:#000000; stroke-linecap:round; stroke-linejoin:round; stroke-width:4; stroke-opacity:1; fill:none" points="156.112,1486.45 2352.76,1486.45 "/>
<polyline clip-path="url(#clip750)" style="stroke:#000000; stroke-linecap:round; stroke-linejoin:round; stroke-width:4; stroke-opacity:1; fill:none" points="156.112,1486.45 156.112,1467.55 "/>
<polyline clip-path="url(#clip750)" style="stroke:#000000; stroke-linecap:round; stroke-linejoin:round; stroke-width:4; stroke-opacity:1; fill:none" points="705.273,1486.45 705.273,1467.55 "/>
<polyline clip-path="url(#clip750)" style="stroke:#000000; stroke-linecap:round; stroke-linejoin:round; stroke-width:4; stroke-opacity:1; fill:none" points="1254.43,1486.45 1254.43,1467.55 "/>
<polyline clip-path="url(#clip750)" style="stroke:#000000; stroke-linecap:round; stroke-linejoin:round; stroke-width:4; stroke-opacity:1; fill:none" points="1803.59,1486.45 1803.59,1467.55 "/>
<polyline clip-path="url(#clip750)" style="stroke:#000000; stroke-linecap:round; stroke-linejoin:round; stroke-width:4; stroke-opacity:1; fill:none" points="2352.76,1486.45 2352.76,1467.55 "/>
<path clip-path="url(#clip750)" d="M126.054 1532.02 L155.73 1532.02 L155.73 1535.95 L126.054 1535.95 L126.054 1532.02 Z" fill="#000000" fill-rule="nonzero" fill-opacity="1" /><path clip-path="url(#clip750)" d="M169.85 1544.91 L186.17 1544.91 L186.17 1548.85 L164.226 1548.85 L164.226 1544.91 Q166.888 1542.16 171.471 1537.53 Q176.077 1532.88 177.258 1531.53 Q179.503 1529.01 180.383 1527.27 Q181.286 1525.51 181.286 1523.82 Q181.286 1521.07 179.341 1519.33 Q177.42 1517.6 174.318 1517.6 Q172.119 1517.6 169.665 1518.36 Q167.235 1519.13 164.457 1520.68 L164.457 1515.95 Q167.281 1514.82 169.735 1514.24 Q172.188 1513.66 174.225 1513.66 Q179.596 1513.66 182.79 1516.35 Q185.985 1519.03 185.985 1523.52 Q185.985 1525.65 185.174 1527.57 Q184.387 1529.47 182.281 1532.07 Q181.702 1532.74 178.6 1535.95 Q175.499 1539.15 169.85 1544.91 Z" fill="#000000" fill-rule="nonzero" fill-opacity="1" /><path clip-path="url(#clip750)" d="M675.03 1532.02 L704.706 1532.02 L704.706 1535.95 L675.03 1535.95 L675.03 1532.02 Z" fill="#000000" fill-rule="nonzero" fill-opacity="1" /><path clip-path="url(#clip750)" d="M715.609 1544.91 L723.248 1544.91 L723.248 1518.55 L714.937 1520.21 L714.937 1515.95 L723.201 1514.29 L727.877 1514.29 L727.877 1544.91 L735.516 1544.91 L735.516 1548.85 L715.609 1548.85 L715.609 1544.91 Z" fill="#000000" fill-rule="nonzero" fill-opacity="1" /><path clip-path="url(#clip750)" d="M1254.43 1517.37 Q1250.82 1517.37 1248.99 1520.93 Q1247.19 1524.47 1247.19 1531.6 Q1247.19 1538.71 1248.99 1542.27 Q1250.82 1545.82 1254.43 1545.82 Q1258.07 1545.82 1259.87 1542.27 Q1261.7 1538.71 1261.7 1531.6 Q1261.7 1524.47 1259.87 1520.93 Q1258.07 1517.37 1254.43 1517.37 M1254.43 1513.66 Q1260.24 1513.66 1263.3 1518.27 Q1266.38 1522.85 1266.38 1531.6 Q1266.38 1540.33 1263.3 1544.94 Q1260.24 1549.52 1254.43 1549.52 Q1248.62 1549.52 1245.55 1544.94 Q1242.49 1540.33 1242.49 1531.6 Q1242.49 1522.85 1245.55 1518.27 Q1248.62 1513.66 1254.43 1513.66 Z" fill="#000000" fill-rule="nonzero" fill-opacity="1" /><path clip-path="url(#clip750)" d="M1793.98 1544.91 L1801.62 1544.91 L1801.62 1518.55 L1793.31 1520.21 L1793.31 1515.95 L1801.57 1514.29 L1806.25 1514.29 L1806.25 1544.91 L1813.88 1544.91 L1813.88 1548.85 L1793.98 1548.85 L1793.98 1544.91 Z" fill="#000000" fill-rule="nonzero" fill-opacity="1" /><path clip-path="url(#clip750)" d="M2347.41 1544.91 L2363.73 1544.91 L2363.73 1548.85 L2341.78 1548.85 L2341.78 1544.91 Q2344.45 1542.16 2349.03 1537.53 Q2353.64 1532.88 2354.82 1531.53 Q2357.06 1529.01 2357.94 1527.27 Q2358.84 1525.51 2358.84 1523.82 Q2358.84 1521.07 2356.9 1519.33 Q2354.98 1517.6 2351.88 1517.6 Q2349.68 1517.6 2347.22 1518.36 Q2344.79 1519.13 2342.02 1520.68 L2342.02 1515.95 Q2344.84 1514.82 2347.29 1514.24 Q2349.75 1513.66 2351.78 1513.66 Q2357.15 1513.66 2360.35 1516.35 Q2363.54 1519.03 2363.54 1523.52 Q2363.54 1525.65 2362.73 1527.57 Q2361.95 1529.47 2359.84 1532.07 Q2359.26 1532.74 2356.16 1535.95 Q2353.06 1539.15 2347.41 1544.91 Z" fill="#000000" fill-rule="nonzero" fill-opacity="1" /><polyline clip-path="url(#clip752)" style="stroke:#000000; stroke-linecap:round; stroke-linejoin:round; stroke-width:2; stroke-opacity:0.1; fill:none" points="156.112,1445.72 2352.76,1445.72 "/>
<polyline clip-path="url(#clip752)" style="stroke:#000000; stroke-linecap:round; stroke-linejoin:round; stroke-width:2; stroke-opacity:0.1; fill:none" points="156.112,1144 2352.76,1144 "/>
<polyline clip-path="url(#clip752)" style="stroke:#000000; stroke-linecap:round; stroke-linejoin:round; stroke-width:2; stroke-opacity:0.1; fill:none" points="156.112,842.277 2352.76,842.277 "/>
<polyline clip-path="url(#clip752)" style="stroke:#000000; stroke-linecap:round; stroke-linejoin:round; stroke-width:2; stroke-opacity:0.1; fill:none" points="156.112,540.556 2352.76,540.556 "/>
<polyline clip-path="url(#clip752)" style="stroke:#000000; stroke-linecap:round; stroke-linejoin:round; stroke-width:2; stroke-opacity:0.1; fill:none" points="156.112,238.836 2352.76,238.836 "/>
<polyline clip-path="url(#clip750)" style="stroke:#000000; stroke-linecap:round; stroke-linejoin:round; stroke-width:4; stroke-opacity:1; fill:none" points="156.112,1486.45 156.112,47.2441 "/>
<polyline clip-path="url(#clip750)" style="stroke:#000000; stroke-linecap:round; stroke-linejoin:round; stroke-width:4; stroke-opacity:1; fill:none" points="156.112,1445.72 175.01,1445.72 "/>
<polyline clip-path="url(#clip750)" style="stroke:#000000; stroke-linecap:round; stroke-linejoin:round; stroke-width:4; stroke-opacity:1; fill:none" points="156.112,1144 175.01,1144 "/>
<polyline clip-path="url(#clip750)" style="stroke:#000000; stroke-linecap:round; stroke-linejoin:round; stroke-width:4; stroke-opacity:1; fill:none" points="156.112,842.277 175.01,842.277 "/>
<polyline clip-path="url(#clip750)" style="stroke:#000000; stroke-linecap:round; stroke-linejoin:round; stroke-width:4; stroke-opacity:1; fill:none" points="156.112,540.556 175.01,540.556 "/>
<polyline clip-path="url(#clip750)" style="stroke:#000000; stroke-linecap:round; stroke-linejoin:round; stroke-width:4; stroke-opacity:1; fill:none" points="156.112,238.836 175.01,238.836 "/>
<path clip-path="url(#clip750)" d="M62.9365 1431.52 Q59.3254 1431.52 57.4967 1435.08 Q55.6912 1438.62 55.6912 1445.75 Q55.6912 1452.86 57.4967 1456.42 Q59.3254 1459.96 62.9365 1459.96 Q66.5707 1459.96 68.3763 1456.42 Q70.205 1452.86 70.205 1445.75 Q70.205 1438.62 68.3763 1435.08 Q66.5707 1431.52 62.9365 1431.52 M62.9365 1427.81 Q68.7467 1427.81 71.8022 1432.42 Q74.8809 1437 74.8809 1445.75 Q74.8809 1454.48 71.8022 1459.08 Q68.7467 1463.67 62.9365 1463.67 Q57.1264 1463.67 54.0477 1459.08 Q50.9921 1454.48 50.9921 1445.75 Q50.9921 1437 54.0477 1432.42 Q57.1264 1427.81 62.9365 1427.81 Z" fill="#000000" fill-rule="nonzero" fill-opacity="1" /><path clip-path="url(#clip750)" d="M83.0984 1457.12 L87.9827 1457.12 L87.9827 1463 L83.0984 1463 L83.0984 1457.12 Z" fill="#000000" fill-rule="nonzero" fill-opacity="1" /><path clip-path="url(#clip750)" d="M108.168 1431.52 Q104.557 1431.52 102.728 1435.08 Q100.922 1438.62 100.922 1445.75 Q100.922 1452.86 102.728 1456.42 Q104.557 1459.96 108.168 1459.96 Q111.802 1459.96 113.608 1456.42 Q115.436 1452.86 115.436 1445.75 Q115.436 1438.62 113.608 1435.08 Q111.802 1431.52 108.168 1431.52 M108.168 1427.81 Q113.978 1427.81 117.033 1432.42 Q120.112 1437 120.112 1445.75 Q120.112 1454.48 117.033 1459.08 Q113.978 1463.67 108.168 1463.67 Q102.358 1463.67 99.2789 1459.08 Q96.2234 1454.48 96.2234 1445.75 Q96.2234 1437 99.2789 1432.42 Q102.358 1427.81 108.168 1427.81 Z" fill="#000000" fill-rule="nonzero" fill-opacity="1" /><path clip-path="url(#clip750)" d="M63.9319 1129.8 Q60.3208 1129.8 58.4921 1133.36 Q56.6865 1136.9 56.6865 1144.03 Q56.6865 1151.14 58.4921 1154.7 Q60.3208 1158.24 63.9319 1158.24 Q67.5661 1158.24 69.3717 1154.7 Q71.2004 1151.14 71.2004 1144.03 Q71.2004 1136.9 69.3717 1133.36 Q67.5661 1129.8 63.9319 1129.8 M63.9319 1126.09 Q69.742 1126.09 72.7976 1130.7 Q75.8763 1135.28 75.8763 1144.03 Q75.8763 1152.76 72.7976 1157.36 Q69.742 1161.95 63.9319 1161.95 Q58.1217 1161.95 55.043 1157.36 Q51.9875 1152.76 51.9875 1144.03 Q51.9875 1135.28 55.043 1130.7 Q58.1217 1126.09 63.9319 1126.09 Z" fill="#000000" fill-rule="nonzero" fill-opacity="1" /><path clip-path="url(#clip750)" d="M84.0938 1155.4 L88.978 1155.4 L88.978 1161.28 L84.0938 1161.28 L84.0938 1155.4 Z" fill="#000000" fill-rule="nonzero" fill-opacity="1" /><path clip-path="url(#clip750)" d="M99.2095 1126.72 L117.566 1126.72 L117.566 1130.65 L103.492 1130.65 L103.492 1139.12 Q104.51 1138.78 105.529 1138.61 Q106.547 1138.43 107.566 1138.43 Q113.353 1138.43 116.733 1141.6 Q120.112 1144.77 120.112 1150.19 Q120.112 1155.77 116.64 1158.87 Q113.168 1161.95 106.848 1161.95 Q104.672 1161.95 102.404 1161.58 Q100.159 1161.21 97.7511 1160.47 L97.7511 1155.77 Q99.8345 1156.9 102.057 1157.46 Q104.279 1158.01 106.756 1158.01 Q110.76 1158.01 113.098 1155.91 Q115.436 1153.8 115.436 1150.19 Q115.436 1146.58 113.098 1144.47 Q110.76 1142.36 106.756 1142.36 Q104.881 1142.36 103.006 1142.78 Q101.154 1143.2 99.2095 1144.08 L99.2095 1126.72 Z" fill="#000000" fill-rule="nonzero" fill-opacity="1" /><path clip-path="url(#clip750)" d="M53.7467 855.621 L61.3856 855.621 L61.3856 829.256 L53.0754 830.922 L53.0754 826.663 L61.3393 824.997 L66.0152 824.997 L66.0152 855.621 L73.654 855.621 L73.654 859.557 L53.7467 859.557 L53.7467 855.621 Z" fill="#000000" fill-rule="nonzero" fill-opacity="1" /><path clip-path="url(#clip750)" d="M83.0984 853.677 L87.9827 853.677 L87.9827 859.557 L83.0984 859.557 L83.0984 853.677 Z" fill="#000000" fill-rule="nonzero" fill-opacity="1" /><path clip-path="url(#clip750)" d="M108.168 828.075 Q104.557 828.075 102.728 831.64 Q100.922 835.182 100.922 842.311 Q100.922 849.418 102.728 852.983 Q104.557 856.524 108.168 856.524 Q111.802 856.524 113.608 852.983 Q115.436 849.418 115.436 842.311 Q115.436 835.182 113.608 831.64 Q111.802 828.075 108.168 828.075 M108.168 824.372 Q113.978 824.372 117.033 828.978 Q120.112 833.561 120.112 842.311 Q120.112 851.038 117.033 855.645 Q113.978 860.228 108.168 860.228 Q102.358 860.228 99.2789 855.645 Q96.2234 851.038 96.2234 842.311 Q96.2234 833.561 99.2789 828.978 Q102.358 824.372 108.168 824.372 Z" fill="#000000" fill-rule="nonzero" fill-opacity="1" /><path clip-path="url(#clip750)" d="M54.7421 553.901 L62.381 553.901 L62.381 527.536 L54.0708 529.202 L54.0708 524.943 L62.3347 523.276 L67.0106 523.276 L67.0106 553.901 L74.6494 553.901 L74.6494 557.836 L54.7421 557.836 L54.7421 553.901 Z" fill="#000000" fill-rule="nonzero" fill-opacity="1" /><path clip-path="url(#clip750)" d="M84.0938 551.957 L88.978 551.957 L88.978 557.836 L84.0938 557.836 L84.0938 551.957 Z" fill="#000000" fill-rule="nonzero" fill-opacity="1" /><path clip-path="url(#clip750)" d="M99.2095 523.276 L117.566 523.276 L117.566 527.212 L103.492 527.212 L103.492 535.684 Q104.51 535.337 105.529 535.175 Q106.547 534.989 107.566 534.989 Q113.353 534.989 116.733 538.161 Q120.112 541.332 120.112 546.749 Q120.112 552.327 116.64 555.429 Q113.168 558.508 106.848 558.508 Q104.672 558.508 102.404 558.137 Q100.159 557.767 97.7511 557.026 L97.7511 552.327 Q99.8345 553.461 102.057 554.017 Q104.279 554.573 106.756 554.573 Q110.76 554.573 113.098 552.466 Q115.436 550.36 115.436 546.749 Q115.436 543.137 113.098 541.031 Q110.76 538.925 106.756 538.925 Q104.881 538.925 103.006 539.341 Q101.154 539.758 99.2095 540.637 L99.2095 523.276 Z" fill="#000000" fill-rule="nonzero" fill-opacity="1" /><path clip-path="url(#clip750)" d="M56.9643 252.181 L73.2837 252.181 L73.2837 256.116 L51.3393 256.116 L51.3393 252.181 Q54.0014 249.427 58.5847 244.797 Q63.1911 240.144 64.3717 238.802 Q66.617 236.278 67.4967 234.542 Q68.3994 232.783 68.3994 231.093 Q68.3994 228.339 66.455 226.603 Q64.5337 224.866 61.4319 224.866 Q59.2328 224.866 56.7791 225.63 Q54.3486 226.394 51.5708 227.945 L51.5708 223.223 Q54.3949 222.089 56.8486 221.51 Q59.3023 220.931 61.3393 220.931 Q66.7096 220.931 69.9041 223.617 Q73.0985 226.302 73.0985 230.792 Q73.0985 232.922 72.2883 234.843 Q71.5013 236.741 69.3948 239.334 Q68.8161 240.005 65.7143 243.223 Q62.6124 246.417 56.9643 252.181 Z" fill="#000000" fill-rule="nonzero" fill-opacity="1" /><path clip-path="url(#clip750)" d="M83.0984 250.237 L87.9827 250.237 L87.9827 256.116 L83.0984 256.116 L83.0984 250.237 Z" fill="#000000" fill-rule="nonzero" fill-opacity="1" /><path clip-path="url(#clip750)" d="M108.168 224.635 Q104.557 224.635 102.728 228.2 Q100.922 231.741 100.922 238.871 Q100.922 245.977 102.728 249.542 Q104.557 253.084 108.168 253.084 Q111.802 253.084 113.608 249.542 Q115.436 245.977 115.436 238.871 Q115.436 231.741 113.608 228.2 Q111.802 224.635 108.168 224.635 M108.168 220.931 Q113.978 220.931 117.033 225.538 Q120.112 230.121 120.112 238.871 Q120.112 247.598 117.033 252.204 Q113.978 256.788 108.168 256.788 Q102.358 256.788 99.2789 252.204 Q96.2234 247.598 96.2234 238.871 Q96.2234 230.121 99.2789 225.538 Q102.358 220.931 108.168 220.931 Z" fill="#000000" fill-rule="nonzero" fill-opacity="1" /><polyline clip-path="url(#clip752)" style="stroke:#009af9; stroke-linecap:round; stroke-linejoin:round; stroke-width:4; stroke-opacity:1; fill:none" points="156.112,87.9763 159.687,111.408 163.263,134.561 166.838,157.436 170.413,180.036 178.678,231.235 186.943,280.997 195.208,329.346 203.473,376.307 211.737,421.903 220.002,466.157 228.267,509.092 236.532,550.733 244.797,591.102 253.061,630.221 261.326,668.114 269.591,704.802 277.856,740.308 286.121,774.655 294.385,807.863 302.65,839.954 312.584,877.079 322.517,912.658 332.451,946.729 342.384,979.328 352.318,1010.49 362.252,1040.25 372.185,1068.65 382.119,1095.71 390.518,1117.58 398.916,1138.54 407.315,1158.62 415.714,1177.83 432.511,1213.73 449.309,1246.39 467.555,1278.4 485.802,1306.97 504.049,1332.29 522.296,1354.54 539.117,1372.5 555.939,1388.14 572.761,1401.59 589.583,1413 607.618,1423.09 625.653,1431.13 643.688,1437.25 661.722,1441.61 682.617,1444.65 703.513,1445.71 724.408,1445.01 745.303,1442.74 782.441,1435.42 819.579,1424.73 852.146,1413.33 884.713,1400.62 955.726,1370.92 1027.16,1342.11 1066.65,1328.07 1106.14,1316.06 1143.72,1306.87 1181.29,1300.16 1220.36,1296.02 1259.43,1294.88 1292.31,1296.29 1325.2,1299.83 1365.35,1306.91 1405.51,1316.83 1442.29,1328.1 1479.07,1341.12 1547.01,1368.34 1615.83,1397.23 1654.4,1412.45 1692.96,1425.91 1727.91,1435.78 1762.85,1442.64 1782.86,1444.89 1802.87,1445.72 1822.87,1444.95 1842.88,1442.4 1861.4,1438.31 1879.92,1432.38 1898.45,1424.47 1916.97,1414.41 1935.23,1402.23 1953.49,1387.65 1971.76,1370.48 1990.02,1350.57 2007.75,1328.44 2025.48,1303.38 2043.21,1275.24 2060.94,1243.83 2070.03,1226.4 2079.12,1208.05 2088.2,1188.75 2097.29,1168.47 2106.38,1147.19 2115.47,1124.87 2124.56,1101.51 2133.65,1077.06 2143.6,1049.01 2153.56,1019.6 2163.52,988.785 2173.47,956.541 2183.43,922.828 2193.39,887.611 2203.34,850.852 2213.3,812.515 2220.53,783.658 2227.77,753.935 2235,723.329 2242.23,691.827 2249.46,659.414 2256.7,626.075 2263.93,591.795 2271.16,556.558 2278.39,520.35 2285.62,483.155 2292.86,444.958 2300.09,405.742 2307.32,365.493 2314.55,324.194 2321.78,281.83 2329.02,238.385 2334.95,201.914 2340.89,164.695 2346.82,126.719 2352.76,87.9763 "/>
</svg>
