<?xml version="1.0" encoding="utf-8"?>
<svg xmlns="http://www.w3.org/2000/svg" xmlns:xlink="http://www.w3.org/1999/xlink" width="600" height="400" viewBox="0 0 2400 1600">
<defs>
  <clipPath id="clip650">
    <rect x="0" y="0" width="2400" height="1600"/>
  </clipPath>
</defs>
<path clip-path="url(#clip650)" d="M0 1600 L2400 1600 L2400 0 L0 0  Z" fill="#ffffff" fill-rule="evenodd" fill-opacity="1"/>
<defs>
  <clipPath id="clip651">
    <rect x="480" y="0" width="1681" height="1600"/>
  </clipPath>
</defs>
<path clip-path="url(#clip650)" d="M170.857 1486.45 L2352.76 1486.45 L2352.76 47.2441 L170.857 47.2441  Z" fill="#ffffff" fill-rule="evenodd" fill-opacity="1"/>
<defs>
  <clipPath id="clip652">
    <rect x="170" y="47" width="2183" height="1440"/>
  </clipPath>
</defs>
<polyline clip-path="url(#clip652)" style="stroke:#000000; stroke-linecap:round; stroke-linejoin:round; stroke-width:2; stroke-opacity:0.1; fill:none" points="199.936,1486.45 199.936,47.2441 "/>
<polyline clip-path="url(#clip652)" style="stroke:#000000; stroke-linecap:round; stroke-linejoin:round; stroke-width:2; stroke-opacity:0.1; fill:none" points="526.666,1486.45 526.666,47.2441 "/>
<polyline clip-path="url(#clip652)" style="stroke:#000000; stroke-linecap:round; stroke-linejoin:round; stroke-width:2; stroke-opacity:0.1; fill:none" points="853.395,1486.45 853.395,47.2441 "/>
<polyline clip-path="url(#clip652)" style="stroke:#000000; stroke-linecap:round; stroke-linejoin:round; stroke-width:2; stroke-opacity:0.1; fill:none" points="1180.12,1486.45 1180.12,47.2441 "/>
<polyline clip-path="url(#clip652)" style="stroke:#000000; stroke-linecap:round; stroke-linejoin:round; stroke-width:2; stroke-opacity:0.1; fill:none" points="1506.85,1486.45 1506.85,47.2441 "/>
<polyline clip-path="url(#clip652)" style="stroke:#000000; stroke-linecap:round; stroke-linejoin:round; stroke-width:2; stroke-opacity:0.1; fill:none" points="1833.58,1486.45 1833.58,47.2441 "/>
<polyline clip-path="url(#clip652)" style="stroke:#000000; stroke-linecap:round; stroke-linejoin:round; stroke-width:2; stroke-opacity:0.1; fill:none" points="2160.31,1486.45 2160.31,47.2441 "/>
<polyline clip-path="url(#clip650)" style="stroke:#000000; stroke-linecap:round; stroke-linejoin:round; stroke-width:4; stroke-opacity:1; fill:none" points="170.857,1486.45 2352.76,1486.45 "/>
<polyline clip-path="url(#clip650)" style="stroke:#000000; stroke-linecap:round; stroke-linejoin:round; stroke-width:4; stroke-opacity:1; fill:none" points="199.936,1486.45 199.936,1467.55 "/>
<polyline clip-path="url(#clip650)" style="stroke:#000000; stroke-linecap:round; stroke-linejoin:round; stroke-width:4; stroke-opacity:1; fill:none" points="526.666,1486.45 526.666,1467.55 "/>
<polyline clip-path="url(#clip650)" style="stroke:#000000; stroke-linecap:round; stroke-linejoin:round; stroke-width:4; stroke-opacity:1; fill:none" points="853.395,1486.45 853.395,1467.55 "/>
<polyline clip-path="url(#clip650)" style="stroke:#000000; stroke-linecap:round; stroke-linejoin:round; stroke-width:4; stroke-opacity:1; fill:none" points="1180.12,1486.45 1180.12,1467.55 "/>
<polyline clip-path="url(#clip650)" style="stroke:#000000; stroke-linecap:round; stroke-linejoin:round; stroke-width:4; stroke-opacity:1; fill:none" points="1506.85,1486.45 1506.85,1467.55 "/>
<polyline clip-path="url(#clip650)" style="stroke:#000000; stroke-linecap:round; stroke-linejoin:round; stroke-width:4; stroke-opacity:1; fill:none" points="1833.58,1486.45 1833.58,1467.55 "/>
<polyline clip-path="url(#clip650)" style="stroke:#000000; stroke-linecap:round; stroke-linejoin:round; stroke-width:4; stroke-opacity:1; fill:none" points="2160.31,1486.45 2160.31,1467.55 "/>
<path clip-path="url(#clip650)" d="M199.936 1517.37 Q196.325 1517.37 194.497 1520.93 Q192.691 1524.47 192.691 1531.6 Q192.691 1538.71 194.497 1542.27 Q196.325 1545.82 199.936 1545.82 Q203.571 1545.82 205.376 1542.27 Q207.205 1538.71 207.205 1531.6 Q207.205 1524.47 205.376 1520.93 Q203.571 1517.37 199.936 1517.37 M199.936 1513.66 Q205.746 1513.66 208.802 1518.27 Q211.881 1522.85 211.881 1531.6 Q211.881 1540.33 208.802 1544.94 Q205.746 1549.52 199.936 1549.52 Q194.126 1549.52 191.047 1544.94 Q187.992 1540.33 187.992 1531.6 Q187.992 1522.85 191.047 1518.27 Q194.126 1513.66 199.936 1513.66 Z" fill="#000000" fill-rule="nonzero" fill-opacity="1" /><path clip-path="url(#clip650)" d="M501.353 1544.91 L508.992 1544.91 L508.992 1518.55 L500.682 1520.21 L500.682 1515.95 L508.946 1514.29 L513.622 1514.29 L513.622 1544.91 L521.261 1544.91 L521.261 1548.85 L501.353 1548.85 L501.353 1544.91 Z" fill="#000000" fill-rule="nonzero" fill-opacity="1" /><path clip-path="url(#clip650)" d="M540.705 1517.37 Q537.094 1517.37 535.265 1520.93 Q533.46 1524.47 533.46 1531.6 Q533.46 1538.71 535.265 1542.27 Q537.094 1545.82 540.705 1545.82 Q544.339 1545.82 546.145 1542.27 Q547.973 1538.71 547.973 1531.6 Q547.973 1524.47 546.145 1520.93 Q544.339 1517.37 540.705 1517.37 M540.705 1513.66 Q546.515 1513.66 549.571 1518.27 Q552.649 1522.85 552.649 1531.6 Q552.649 1540.33 549.571 1544.94 Q546.515 1549.52 540.705 1549.52 Q534.895 1549.52 531.816 1544.94 Q528.761 1540.33 528.761 1531.6 Q528.761 1522.85 531.816 1518.27 Q534.895 1513.66 540.705 1513.66 Z" fill="#000000" fill-rule="nonzero" fill-opacity="1" /><path clip-path="url(#clip650)" d="M832.168 1544.91 L848.488 1544.91 L848.488 1548.85 L826.543 1548.85 L826.543 1544.91 Q829.205 1542.16 833.789 1537.53 Q838.395 1532.88 839.576 1531.53 Q841.821 1529.01 842.701 1527.27 Q843.603 1525.51 843.603 1523.82 Q843.603 1521.07 841.659 1519.33 Q839.738 1517.6 836.636 1517.6 Q834.437 1517.6 831.983 1518.36 Q829.553 1519.13 826.775 1520.68 L826.775 1515.95 Q829.599 1514.82 832.053 1514.24 Q834.506 1513.66 836.543 1513.66 Q841.914 1513.66 845.108 1516.35 Q848.302 1519.03 848.302 1523.52 Q848.302 1525.65 847.492 1527.57 Q846.705 1529.47 844.599 1532.07 Q844.02 1532.74 840.918 1535.95 Q837.816 1539.15 832.168 1544.91 Z" fill="#000000" fill-rule="nonzero" fill-opacity="1" /><path clip-path="url(#clip650)" d="M868.302 1517.37 Q864.691 1517.37 862.863 1520.93 Q861.057 1524.47 861.057 1531.6 Q861.057 1538.71 862.863 1542.27 Q864.691 1545.82 868.302 1545.82 Q871.937 1545.82 873.742 1542.27 Q875.571 1538.71 875.571 1531.6 Q875.571 1524.47 873.742 1520.93 Q871.937 1517.37 868.302 1517.37 M868.302 1513.66 Q874.112 1513.66 877.168 1518.27 Q880.247 1522.85 880.247 1531.6 Q880.247 1540.33 877.168 1544.94 Q874.112 1549.52 868.302 1549.52 Q862.492 1549.52 859.413 1544.94 Q856.358 1540.33 856.358 1531.6 Q856.358 1522.85 859.413 1518.27 Q862.492 1513.66 868.302 1513.66 Z" fill="#000000" fill-rule="nonzero" fill-opacity="1" /><path clip-path="url(#clip650)" d="M1168.97 1530.21 Q1172.32 1530.93 1174.2 1533.2 Q1176.1 1535.47 1176.1 1538.8 Q1176.1 1543.92 1172.58 1546.72 Q1169.06 1549.52 1162.58 1549.52 Q1160.4 1549.52 1158.09 1549.08 Q1155.8 1548.66 1153.34 1547.81 L1153.34 1543.29 Q1155.29 1544.43 1157.6 1545.01 Q1159.92 1545.58 1162.44 1545.58 Q1166.84 1545.58 1169.13 1543.85 Q1171.44 1542.11 1171.44 1538.8 Q1171.44 1535.75 1169.29 1534.03 Q1167.16 1532.3 1163.34 1532.3 L1159.31 1532.3 L1159.31 1528.45 L1163.53 1528.45 Q1166.98 1528.45 1168.8 1527.09 Q1170.63 1525.7 1170.63 1523.11 Q1170.63 1520.45 1168.74 1519.03 Q1166.86 1517.6 1163.34 1517.6 Q1161.42 1517.6 1159.22 1518.01 Q1157.02 1518.43 1154.38 1519.31 L1154.38 1515.14 Q1157.05 1514.4 1159.36 1514.03 Q1161.7 1513.66 1163.76 1513.66 Q1169.08 1513.66 1172.18 1516.09 Q1175.29 1518.5 1175.29 1522.62 Q1175.29 1525.49 1173.64 1527.48 Q1172 1529.45 1168.97 1530.21 Z" fill="#000000" fill-rule="nonzero" fill-opacity="1" /><path clip-path="url(#clip650)" d="M1194.96 1517.37 Q1191.35 1517.37 1189.52 1520.93 Q1187.72 1524.47 1187.72 1531.6 Q1187.72 1538.71 1189.52 1542.27 Q1191.35 1545.82 1194.96 1545.82 Q1198.6 1545.82 1200.4 1542.27 Q1202.23 1538.71 1202.23 1531.6 Q1202.23 1524.47 1200.4 1520.93 Q1198.6 1517.37 1194.96 1517.37 M1194.96 1513.66 Q1200.77 1513.66 1203.83 1518.27 Q1206.91 1522.85 1206.91 1531.6 Q1206.91 1540.33 1203.83 1544.94 Q1200.77 1549.52 1194.96 1549.52 Q1189.15 1549.52 1186.07 1544.94 Q1183.02 1540.33 1183.02 1531.6 Q1183.02 1522.85 1186.07 1518.27 Q1189.15 1513.66 1194.96 1513.66 Z" fill="#000000" fill-rule="nonzero" fill-opacity="1" /><path clip-path="url(#clip650)" d="M1495.03 1518.36 L1483.22 1536.81 L1495.03 1536.81 L1495.03 1518.36 M1493.8 1514.29 L1499.68 1514.29 L1499.68 1536.81 L1504.61 1536.81 L1504.61 1540.7 L1499.68 1540.7 L1499.68 1548.85 L1495.03 1548.85 L1495.03 1540.7 L1479.42 1540.7 L1479.42 1536.19 L1493.8 1514.29 Z" fill="#000000" fill-rule="nonzero" fill-opacity="1" /><path clip-path="url(#clip650)" d="M1522.34 1517.37 Q1518.73 1517.37 1516.9 1520.93 Q1515.09 1524.47 1515.09 1531.6 Q1515.09 1538.71 1516.9 1542.27 Q1518.73 1545.82 1522.34 1545.82 Q1525.97 1545.82 1527.78 1542.27 Q1529.61 1538.71 1529.61 1531.6 Q1529.61 1524.47 1527.78 1520.93 Q1525.97 1517.37 1522.34 1517.37 M1522.34 1513.66 Q1528.15 1513.66 1531.21 1518.27 Q1534.28 1522.85 1534.28 1531.6 Q1534.28 1540.33 1531.21 1544.94 Q1528.15 1549.52 1522.34 1549.52 Q1516.53 1549.52 1513.45 1544.94 Q1510.4 1540.33 1510.4 1531.6 Q1510.4 1522.85 1513.45 1518.27 Q1516.53 1513.66 1522.34 1513.66 Z" fill="#000000" fill-rule="nonzero" fill-opacity="1" /><path clip-path="url(#clip650)" d="M1808.28 1514.29 L1826.64 1514.29 L1826.64 1518.22 L1812.56 1518.22 L1812.56 1526.7 Q1813.58 1526.35 1814.6 1526.19 Q1815.62 1526 1816.64 1526 Q1822.43 1526 1825.81 1529.17 Q1829.18 1532.34 1829.18 1537.76 Q1829.18 1543.34 1825.71 1546.44 Q1822.24 1549.52 1815.92 1549.52 Q1813.75 1549.52 1811.48 1549.15 Q1809.23 1548.78 1806.82 1548.04 L1806.82 1543.34 Q1808.91 1544.47 1811.13 1545.03 Q1813.35 1545.58 1815.83 1545.58 Q1819.83 1545.58 1822.17 1543.48 Q1824.51 1541.37 1824.51 1537.76 Q1824.51 1534.15 1822.17 1532.04 Q1819.83 1529.94 1815.83 1529.94 Q1813.95 1529.94 1812.08 1530.35 Q1810.23 1530.77 1808.28 1531.65 L1808.28 1514.29 Z" fill="#000000" fill-rule="nonzero" fill-opacity="1" /><path clip-path="url(#clip650)" d="M1848.4 1517.37 Q1844.79 1517.37 1842.96 1520.93 Q1841.15 1524.47 1841.15 1531.6 Q1841.15 1538.71 1842.96 1542.27 Q1844.79 1545.82 1848.4 1545.82 Q1852.03 1545.82 1853.84 1542.27 Q1855.67 1538.71 1855.67 1531.6 Q1855.67 1524.47 1853.84 1520.93 Q1852.03 1517.37 1848.4 1517.37 M1848.4 1513.66 Q1854.21 1513.66 1857.26 1518.27 Q1860.34 1522.85 1860.34 1531.6 Q1860.34 1540.33 1857.26 1544.94 Q1854.21 1549.52 1848.4 1549.52 Q1842.59 1549.52 1839.51 1544.94 Q1836.45 1540.33 1836.45 1531.6 Q1836.45 1522.85 1839.51 1518.27 Q1842.59 1513.66 1848.4 1513.66 Z" fill="#000000" fill-rule="nonzero" fill-opacity="1" /><path clip-path="url(#clip650)" d="M2145.72 1529.7 Q2142.57 1529.7 2140.72 1531.86 Q2138.89 1534.01 2138.89 1537.76 Q2138.89 1541.49 2140.72 1543.66 Q2142.57 1545.82 2145.72 1545.82 Q2148.87 1545.82 2150.69 1543.66 Q2152.55 1541.49 2152.55 1537.76 Q2152.55 1534.01 2150.69 1531.86 Q2148.87 1529.7 2145.72 1529.7 M2155 1515.05 L2155 1519.31 Q2153.24 1518.48 2151.44 1518.04 Q2149.65 1517.6 2147.89 1517.6 Q2143.26 1517.6 2140.81 1520.72 Q2138.38 1523.85 2138.03 1530.17 Q2139.4 1528.15 2141.46 1527.09 Q2143.52 1526 2146 1526 Q2151.2 1526 2154.21 1529.17 Q2157.25 1532.32 2157.25 1537.76 Q2157.25 1543.08 2154.1 1546.3 Q2150.95 1549.52 2145.72 1549.52 Q2139.72 1549.52 2136.55 1544.94 Q2133.38 1540.33 2133.38 1531.6 Q2133.38 1523.41 2137.27 1518.55 Q2141.16 1513.66 2147.71 1513.66 Q2149.47 1513.66 2151.25 1514.01 Q2153.06 1514.36 2155 1515.05 Z" fill="#000000" fill-rule="nonzero" fill-opacity="1" /><path clip-path="url(#clip650)" d="M2175.3 1517.37 Q2171.69 1517.37 2169.86 1520.93 Q2168.06 1524.47 2168.06 1531.6 Q2168.06 1538.71 2169.86 1542.27 Q2171.69 1545.82 2175.3 1545.82 Q2178.93 1545.82 2180.74 1542.27 Q2182.57 1538.71 2182.57 1531.6 Q2182.57 1524.47 2180.74 1520.93 Q2178.93 1517.37 2175.3 1517.37 M2175.3 1513.66 Q2181.11 1513.66 2184.17 1518.27 Q2187.25 1522.85 2187.25 1531.6 Q2187.25 1540.33 2184.17 1544.94 Q2181.11 1549.52 2175.3 1549.52 Q2169.49 1549.52 2166.41 1544.94 Q2163.36 1540.33 2163.36 1531.6 Q2163.36 1522.85 2166.41 1518.27 Q2169.49 1513.66 2175.3 1513.66 Z" fill="#000000" fill-rule="nonzero" fill-opacity="1" /><polyline clip-path="url(#clip652)" style="stroke:#000000; stroke-linecap:round; stroke-linejoin:round; stroke-width:2; stroke-opacity:0.1; fill:none" points="170.857,1409.94 2352.76,1409.94 "/>
<polyline clip-path="url(#clip652)" style="stroke:#000000; stroke-linecap:round; stroke-linejoin:round; stroke-width:2; stroke-opacity:0.1; fill:none" points="170.857,1117.64 2352.76,1117.64 "/>
<polyline clip-path="url(#clip652)" style="stroke:#000000; stroke-linecap:round; stroke-linejoin:round; stroke-width:2; stroke-opacity:0.1; fill:none" points="170.857,825.34 2352.76,825.34 "/>
<polyline clip-path="url(#clip652)" style="stroke:#000000; stroke-linecap:round; stroke-linejoin:round; stroke-width:2; stroke-opacity:0.1; fill:none" points="170.857,533.041 2352.76,533.041 "/>
<polyline clip-path="url(#clip652)" style="stroke:#000000; stroke-linecap:round; stroke-linejoin:round; stroke-width:2; stroke-opacity:0.1; fill:none" points="170.857,240.743 2352.76,240.743 "/>
<polyline clip-path="url(#clip650)" style="stroke:#000000; stroke-linecap:round; stroke-linejoin:round; stroke-width:4; stroke-opacity:1; fill:none" points="170.857,1486.45 170.857,47.2441 "/>
<polyline clip-path="url(#clip650)" style="stroke:#000000; stroke-linecap:round; stroke-linejoin:round; stroke-width:4; stroke-opacity:1; fill:none" points="170.857,1409.94 189.755,1409.94 "/>
<polyline clip-path="url(#clip650)" style="stroke:#000000; stroke-linecap:round; stroke-linejoin:round; stroke-width:4; stroke-opacity:1; fill:none" points="170.857,1117.64 189.755,1117.64 "/>
<polyline clip-path="url(#clip650)" style="stroke:#000000; stroke-linecap:round; stroke-linejoin:round; stroke-width:4; stroke-opacity:1; fill:none" points="170.857,825.34 189.755,825.34 "/>
<polyline clip-path="url(#clip650)" style="stroke:#000000; stroke-linecap:round; stroke-linejoin:round; stroke-width:4; stroke-opacity:1; fill:none" points="170.857,533.041 189.755,533.041 "/>
<polyline clip-path="url(#clip650)" style="stroke:#000000; stroke-linecap:round; stroke-linejoin:round; stroke-width:4; stroke-opacity:1; fill:none" points="170.857,240.743 189.755,240.743 "/>
<path clip-path="url(#clip650)" d="M54.3949 1423.28 L62.0337 1423.28 L62.0337 1396.92 L53.7236 1398.58 L53.7236 1394.32 L61.9874 1392.66 L66.6633 1392.66 L66.6633 1423.28 L74.3022 1423.28 L74.3022 1427.22 L54.3949 1427.22 L54.3949 1423.28 Z" fill="#000000" fill-rule="nonzero" fill-opacity="1" /><path clip-path="url(#clip650)" d="M87.7743 1423.28 L104.094 1423.28 L104.094 1427.22 L82.1494 1427.22 L82.1494 1423.28 Q84.8114 1420.53 89.3947 1415.9 Q94.0012 1411.25 95.1817 1409.9 Q97.4271 1407.38 98.3067 1405.64 Q99.2095 1403.88 99.2095 1402.19 Q99.2095 1399.44 97.265 1397.7 Q95.3437 1395.97 92.2419 1395.97 Q90.0428 1395.97 87.5892 1396.73 Q85.1586 1397.5 82.3808 1399.05 L82.3808 1394.32 Q85.2049 1393.19 87.6586 1392.61 Q90.1123 1392.03 92.1493 1392.03 Q97.5197 1392.03 100.714 1394.72 Q103.909 1397.4 103.909 1401.89 Q103.909 1404.02 103.098 1405.94 Q102.311 1407.84 100.205 1410.43 Q99.6261 1411.11 96.5243 1414.32 Q93.4225 1417.52 87.7743 1423.28 Z" fill="#000000" fill-rule="nonzero" fill-opacity="1" /><path clip-path="url(#clip650)" d="M113.955 1392.66 L132.311 1392.66 L132.311 1396.59 L118.237 1396.59 L118.237 1405.06 Q119.256 1404.72 120.274 1404.56 Q121.293 1404.37 122.311 1404.37 Q128.098 1404.37 131.478 1407.54 Q134.857 1410.71 134.857 1416.13 Q134.857 1421.71 131.385 1424.81 Q127.913 1427.89 121.594 1427.89 Q119.418 1427.89 117.149 1427.52 Q114.904 1427.15 112.496 1426.41 L112.496 1421.71 Q114.58 1422.84 116.802 1423.4 Q119.024 1423.95 121.501 1423.95 Q125.506 1423.95 127.844 1421.85 Q130.182 1419.74 130.182 1416.13 Q130.182 1412.52 127.844 1410.41 Q125.506 1408.31 121.501 1408.31 Q119.626 1408.31 117.751 1408.72 Q115.899 1409.14 113.955 1410.02 L113.955 1392.66 Z" fill="#000000" fill-rule="nonzero" fill-opacity="1" /><path clip-path="url(#clip650)" d="M53.3995 1130.98 L61.0384 1130.98 L61.0384 1104.62 L52.7282 1106.28 L52.7282 1102.03 L60.9921 1100.36 L65.668 1100.36 L65.668 1130.98 L73.3068 1130.98 L73.3068 1134.92 L53.3995 1134.92 L53.3995 1130.98 Z" fill="#000000" fill-rule="nonzero" fill-opacity="1" /><path clip-path="url(#clip650)" d="M82.7975 1100.36 L101.154 1100.36 L101.154 1104.29 L87.0799 1104.29 L87.0799 1112.77 Q88.0984 1112.42 89.1169 1112.26 Q90.1354 1112.07 91.1539 1112.07 Q96.941 1112.07 100.321 1115.24 Q103.7 1118.41 103.7 1123.83 Q103.7 1129.41 100.228 1132.51 Q96.7558 1135.59 90.4364 1135.59 Q88.2604 1135.59 85.9919 1135.22 Q83.7466 1134.85 81.3392 1134.11 L81.3392 1129.41 Q83.4225 1130.54 85.6447 1131.1 Q87.8669 1131.65 90.3438 1131.65 Q94.3484 1131.65 96.6863 1129.55 Q99.0243 1127.44 99.0243 1123.83 Q99.0243 1120.22 96.6863 1118.11 Q94.3484 1116.01 90.3438 1116.01 Q88.4688 1116.01 86.5938 1116.42 Q84.7419 1116.84 82.7975 1117.72 L82.7975 1100.36 Z" fill="#000000" fill-rule="nonzero" fill-opacity="1" /><path clip-path="url(#clip650)" d="M122.913 1103.44 Q119.302 1103.44 117.473 1107 Q115.668 1110.54 115.668 1117.67 Q115.668 1124.78 117.473 1128.34 Q119.302 1131.89 122.913 1131.89 Q126.547 1131.89 128.353 1128.34 Q130.182 1124.78 130.182 1117.67 Q130.182 1110.54 128.353 1107 Q126.547 1103.44 122.913 1103.44 M122.913 1099.73 Q128.723 1099.73 131.779 1104.34 Q134.857 1108.92 134.857 1117.67 Q134.857 1126.4 131.779 1131.01 Q128.723 1135.59 122.913 1135.59 Q117.103 1135.59 114.024 1131.01 Q110.969 1126.4 110.969 1117.67 Q110.969 1108.92 114.024 1104.34 Q117.103 1099.73 122.913 1099.73 Z" fill="#000000" fill-rule="nonzero" fill-opacity="1" /><path clip-path="url(#clip650)" d="M54.3949 838.685 L62.0337 838.685 L62.0337 812.319 L53.7236 813.986 L53.7236 809.727 L61.9874 808.06 L66.6633 808.06 L66.6633 838.685 L74.3022 838.685 L74.3022 842.62 L54.3949 842.62 L54.3949 838.685 Z" fill="#000000" fill-rule="nonzero" fill-opacity="1" /><path clip-path="url(#clip650)" d="M82.566 808.06 L104.788 808.06 L104.788 810.051 L92.2419 842.62 L87.3577 842.62 L99.1632 811.995 L82.566 811.995 L82.566 808.06 Z" fill="#000000" fill-rule="nonzero" fill-opacity="1" /><path clip-path="url(#clip650)" d="M113.955 808.06 L132.311 808.06 L132.311 811.995 L118.237 811.995 L118.237 820.467 Q119.256 820.12 120.274 819.958 Q121.293 819.773 122.311 819.773 Q128.098 819.773 131.478 822.944 Q134.857 826.115 134.857 831.532 Q134.857 837.111 131.385 840.213 Q127.913 843.291 121.594 843.291 Q119.418 843.291 117.149 842.921 Q114.904 842.551 112.496 841.81 L112.496 837.111 Q114.58 838.245 116.802 838.801 Q119.024 839.356 121.501 839.356 Q125.506 839.356 127.844 837.25 Q130.182 835.143 130.182 831.532 Q130.182 827.921 127.844 825.815 Q125.506 823.708 121.501 823.708 Q119.626 823.708 117.751 824.125 Q115.899 824.541 113.955 825.421 L113.955 808.06 Z" fill="#000000" fill-rule="nonzero" fill-opacity="1" /><path clip-path="url(#clip650)" d="M56.6171 546.386 L72.9365 546.386 L72.9365 550.321 L50.9921 550.321 L50.9921 546.386 Q53.6541 543.632 58.2375 539.002 Q62.8439 534.349 64.0245 533.007 Q66.2698 530.484 67.1494 528.747 Q68.0522 526.988 68.0522 525.298 Q68.0522 522.544 66.1078 520.808 Q64.1865 519.072 61.0847 519.072 Q58.8856 519.072 56.4319 519.835 Q54.0014 520.599 51.2236 522.15 L51.2236 517.428 Q54.0477 516.294 56.5014 515.715 Q58.955 515.136 60.9921 515.136 Q66.3624 515.136 69.5568 517.822 Q72.7513 520.507 72.7513 524.997 Q72.7513 527.127 71.9411 529.048 Q71.1541 530.947 69.0476 533.539 Q68.4689 534.21 65.367 537.428 Q62.2652 540.622 56.6171 546.386 Z" fill="#000000" fill-rule="nonzero" fill-opacity="1" /><path clip-path="url(#clip650)" d="M92.7512 518.84 Q89.1401 518.84 87.3114 522.405 Q85.5058 525.947 85.5058 533.076 Q85.5058 540.183 87.3114 543.747 Q89.1401 547.289 92.7512 547.289 Q96.3854 547.289 98.1909 543.747 Q100.02 540.183 100.02 533.076 Q100.02 525.947 98.1909 522.405 Q96.3854 518.84 92.7512 518.84 M92.7512 515.136 Q98.5613 515.136 101.617 519.743 Q104.696 524.326 104.696 533.076 Q104.696 541.803 101.617 546.409 Q98.5613 550.993 92.7512 550.993 Q86.941 550.993 83.8623 546.409 Q80.8068 541.803 80.8068 533.076 Q80.8068 524.326 83.8623 519.743 Q86.941 515.136 92.7512 515.136 Z" fill="#000000" fill-rule="nonzero" fill-opacity="1" /><path clip-path="url(#clip650)" d="M122.913 518.84 Q119.302 518.84 117.473 522.405 Q115.668 525.947 115.668 533.076 Q115.668 540.183 117.473 543.747 Q119.302 547.289 122.913 547.289 Q126.547 547.289 128.353 543.747 Q130.182 540.183 130.182 533.076 Q130.182 525.947 128.353 522.405 Q126.547 518.84 122.913 518.84 M122.913 515.136 Q128.723 515.136 131.779 519.743 Q134.857 524.326 134.857 533.076 Q134.857 541.803 131.779 546.409 Q128.723 550.993 122.913 550.993 Q117.103 550.993 114.024 546.409 Q110.969 541.803 110.969 533.076 Q110.969 524.326 114.024 519.743 Q117.103 515.136 122.913 515.136 Z" fill="#000000" fill-rule="nonzero" fill-opacity="1" /><path clip-path="url(#clip650)" d="M57.6125 254.088 L73.9318 254.088 L73.9318 258.023 L51.9875 258.023 L51.9875 254.088 Q54.6495 251.333 59.2328 246.703 Q63.8393 242.051 65.0198 240.708 Q67.2652 238.185 68.1448 236.449 Q69.0476 234.69 69.0476 233 Q69.0476 230.245 67.1032 228.509 Q65.1819 226.773 62.08 226.773 Q59.881 226.773 57.4273 227.537 Q54.9967 228.301 52.219 229.852 L52.219 225.13 Q55.043 223.995 57.4967 223.417 Q59.9504 222.838 61.9874 222.838 Q67.3578 222.838 70.5522 225.523 Q73.7466 228.208 73.7466 232.699 Q73.7466 234.829 72.9365 236.75 Q72.1494 238.648 70.0429 241.241 Q69.4642 241.912 66.3624 245.129 Q63.2606 248.324 57.6125 254.088 Z" fill="#000000" fill-rule="nonzero" fill-opacity="1" /><path clip-path="url(#clip650)" d="M87.7743 254.088 L104.094 254.088 L104.094 258.023 L82.1494 258.023 L82.1494 254.088 Q84.8114 251.333 89.3947 246.703 Q94.0012 242.051 95.1817 240.708 Q97.4271 238.185 98.3067 236.449 Q99.2095 234.69 99.2095 233 Q99.2095 230.245 97.265 228.509 Q95.3437 226.773 92.2419 226.773 Q90.0428 226.773 87.5892 227.537 Q85.1586 228.301 82.3808 229.852 L82.3808 225.13 Q85.2049 223.995 87.6586 223.417 Q90.1123 222.838 92.1493 222.838 Q97.5197 222.838 100.714 225.523 Q103.909 228.208 103.909 232.699 Q103.909 234.829 103.098 236.75 Q102.311 238.648 100.205 241.241 Q99.6261 241.912 96.5243 245.129 Q93.4225 248.324 87.7743 254.088 Z" fill="#000000" fill-rule="nonzero" fill-opacity="1" /><path clip-path="url(#clip650)" d="M113.955 223.463 L132.311 223.463 L132.311 227.398 L118.237 227.398 L118.237 235.87 Q119.256 235.523 120.274 235.361 Q121.293 235.176 122.311 235.176 Q128.098 235.176 131.478 238.347 Q134.857 241.518 134.857 246.935 Q134.857 252.514 131.385 255.615 Q127.913 258.694 121.594 258.694 Q119.418 258.694 117.149 258.324 Q114.904 257.953 112.496 257.213 L112.496 252.514 Q114.58 253.648 116.802 254.203 Q119.024 254.759 121.501 254.759 Q125.506 254.759 127.844 252.653 Q130.182 250.546 130.182 246.935 Q130.182 243.324 127.844 241.217 Q125.506 239.111 121.501 239.111 Q119.626 239.111 117.751 239.528 Q115.899 239.944 113.955 240.824 L113.955 223.463 Z" fill="#000000" fill-rule="nonzero" fill-opacity="1" /><polyline clip-path="url(#clip652)" style="stroke:#009af9; stroke-linecap:round; stroke-linejoin:round; stroke-width:4; stroke-opacity:1; fill:none" points="232.609,87.9763 265.282,278.226 297.955,347.225 330.628,417.407 363.301,486.833 395.974,546.143 428.647,594.991 461.32,637.967 493.993,678.134 526.666,715.605 559.339,748.523 592.012,775.61 624.684,797.898 657.357,817.181 690.03,834.587 722.703,850.712 755.376,865.91 788.049,880.418 820.722,894.403 853.395,907.986 886.068,921.259 918.741,934.296 951.414,947.16 984.087,959.911 1016.76,972.603 1049.43,985.293 1082.11,998.038 1114.78,1010.9 1147.45,1023.95 1180.12,1037.26 1212.8,1050.96 1245.47,1065.16 1278.14,1080.07 1310.82,1095.93 1343.49,1113.13 1376.16,1132.19 1408.83,1153.85 1441.51,1179.04 1474.18,1208.7 1506.85,1242.84 1539.53,1278.69 1572.2,1309.6 1604.87,1330.04 1637.55,1342.35 1670.22,1351.34 1702.89,1358.93 1735.56,1365.65 1768.24,1371.74 1800.91,1377.4 1833.58,1382.73 1866.26,1387.82 1898.93,1392.74 1931.6,1397.52 1964.27,1402.2 1996.95,1406.8 2029.62,1411.33 2062.29,1415.8 2094.97,1420.22 2127.64,1424.59 2160.31,1428.91 2192.99,1433.18 2225.66,1437.41 2258.33,1441.59 2291,1445.72 "/>
<path clip-path="url(#clip650)" d="M2009.41 198.898 L2280.03 198.898 L2280.03 95.2176 L2009.41 95.2176  Z" fill="#ffffff" fill-rule="evenodd" fill-opacity="1"/>
<polyline clip-path="url(#clip650)" style="stroke:#000000; stroke-linecap:round; stroke-linejoin:round; stroke-width:4; stroke-opacity:1; fill:none" points="2009.41,198.898 2280.03,198.898 2280.03,95.2176 2009.41,95.2176 2009.41,198.898 "/>
<polyline clip-path="url(#clip650)" style="stroke:#009af9; stroke-linecap:round; stroke-linejoin:round; stroke-width:4; stroke-opacity:1; fill:none" points="2033.65,147.058 2179.11,147.058 "/>
<path clip-path="url(#clip650)" d="M2217.19 166.745 Q2215.39 171.375 2213.68 172.787 Q2211.96 174.199 2209.09 174.199 L2205.69 174.199 L2205.69 170.634 L2208.19 170.634 Q2209.95 170.634 2210.92 169.8 Q2211.89 168.967 2213.07 165.865 L2213.84 163.921 L2203.35 138.412 L2207.87 138.412 L2215.97 158.689 L2224.07 138.412 L2228.58 138.412 L2217.19 166.745 Z" fill="#000000" fill-rule="nonzero" fill-opacity="1" /><path clip-path="url(#clip650)" d="M2235.88 160.402 L2243.51 160.402 L2243.51 134.037 L2235.2 135.703 L2235.2 131.444 L2243.47 129.778 L2248.14 129.778 L2248.14 160.402 L2255.78 160.402 L2255.78 164.338 L2235.88 164.338 L2235.88 160.402 Z" fill="#000000" fill-rule="nonzero" fill-opacity="1" /></svg>
