<?xml version="1.0" encoding="utf-8"?>
<svg xmlns="http://www.w3.org/2000/svg" xmlns:xlink="http://www.w3.org/1999/xlink" width="600" height="400" viewBox="0 0 2400 1600">
<defs>
  <clipPath id="clip880">
    <rect x="0" y="0" width="2400" height="1600"/>
  </clipPath>
</defs>
<path clip-path="url(#clip880)" d="M0 1600 L2400 1600 L2400 0 L0 0  Z" fill="#ffffff" fill-rule="evenodd" fill-opacity="1"/>
<defs>
  <clipPath id="clip881">
    <rect x="480" y="0" width="1681" height="1600"/>
  </clipPath>
</defs>
<path clip-path="url(#clip880)" d="M185.927 1486.45 L2352.76 1486.45 L2352.76 47.2441 L185.927 47.2441  Z" fill="#ffffff" fill-rule="evenodd" fill-opacity="1"/>
<defs>
  <clipPath id="clip882">
    <rect x="185" y="47" width="2168" height="1440"/>
  </clipPath>
</defs>
<polyline clip-path="url(#clip882)" style="stroke:#000000; stroke-linecap:round; stroke-linejoin:round; stroke-width:2; stroke-opacity:0.1; fill:none" points="214.805,1486.45 214.805,47.2441 "/>
<polyline clip-path="url(#clip882)" style="stroke:#000000; stroke-linecap:round; stroke-linejoin:round; stroke-width:2; stroke-opacity:0.1; fill:none" points="539.278,1486.45 539.278,47.2441 "/>
<polyline clip-path="url(#clip882)" style="stroke:#000000; stroke-linecap:round; stroke-linejoin:round; stroke-width:2; stroke-opacity:0.1; fill:none" points="863.75,1486.45 863.75,47.2441 "/>
<polyline clip-path="url(#clip882)" style="stroke:#000000; stroke-linecap:round; stroke-linejoin:round; stroke-width:2; stroke-opacity:0.1; fill:none" points="1188.22,1486.45 1188.22,47.2441 "/>
<polyline clip-path="url(#clip882)" style="stroke:#000000; stroke-linecap:round; stroke-linejoin:round; stroke-width:2; stroke-opacity:0.1; fill:none" points="1512.7,1486.45 1512.7,47.2441 "/>
<polyline clip-path="url(#clip882)" style="stroke:#000000; stroke-linecap:round; stroke-linejoin:round; stroke-width:2; stroke-opacity:0.1; fill:none" points="1837.17,1486.45 1837.17,47.2441 "/>
<polyline clip-path="url(#clip882)" style="stroke:#000000; stroke-linecap:round; stroke-linejoin:round; stroke-width:2; stroke-opacity:0.1; fill:none" points="2161.64,1486.45 2161.64,47.2441 "/>
<polyline clip-path="url(#clip880)" style="stroke:#000000; stroke-linecap:round; stroke-linejoin:round; stroke-width:4; stroke-opacity:1; fill:none" points="185.927,1486.45 2352.76,1486.45 "/>
<polyline clip-path="url(#clip880)" style="stroke:#000000; stroke-linecap:round; stroke-linejoin:round; stroke-width:4; stroke-opacity:1; fill:none" points="214.805,1486.45 214.805,1467.55 "/>
<polyline clip-path="url(#clip880)" style="stroke:#000000; stroke-linecap:round; stroke-linejoin:round; stroke-width:4; stroke-opacity:1; fill:none" points="539.278,1486.45 539.278,1467.55 "/>
<polyline clip-path="url(#clip880)" style="stroke:#000000; stroke-linecap:round; stroke-linejoin:round; stroke-width:4; stroke-opacity:1; fill:none" points="863.75,1486.45 863.75,1467.55 "/>
<polyline clip-path="url(#clip880)" style="stroke:#000000; stroke-linecap:round; stroke-linejoin:round; stroke-width:4; stroke-opacity:1; fill:none" points="1188.22,1486.45 1188.22,1467.55 "/>
<polyline clip-path="url(#clip880)" style="stroke:#000000; stroke-linecap:round; stroke-linejoin:round; stroke-width:4; stroke-opacity:1; fill:none" points="1512.7,1486.45 1512.7,1467.55 "/>
<polyline clip-path="url(#clip880)" style="stroke:#000000; stroke-linecap:round; stroke-linejoin:round; stroke-width:4; stroke-opacity:1; fill:none" points="1837.17,1486.45 1837.17,1467.55 "/>
<polyline clip-path="url(#clip880)" style="stroke:#000000; stroke-linecap:round; stroke-linejoin:round; stroke-width:4; stroke-opacity:1; fill:none" points="2161.64,1486.45 2161.64,1467.55 "/>
<path clip-path="url(#clip880)" d="M214.805 1517.37 Q211.194 1517.37 209.365 1520.93 Q207.56 1524.47 207.56 1531.6 Q207.56 1538.71 209.365 1542.27 Q211.194 1545.82 214.805 1545.82 Q218.439 1545.82 220.245 1542.27 Q222.073 1538.71 222.073 1531.6 Q222.073 1524.47 220.245 1520.93 Q218.439 1517.37 214.805 1517.37 M214.805 1513.66 Q220.615 1513.66 223.671 1518.27 Q226.749 1522.85 226.749 1531.6 Q226.749 1540.33 223.671 1544.94 Q220.615 1549.52 214.805 1549.52 Q208.995 1549.52 205.916 1544.94 Q202.86 1540.33 202.86 1531.6 Q202.86 1522.85 205.916 1518.27 Q208.995 1513.66 214.805 1513.66 Z" fill="#000000" fill-rule="nonzero" fill-opacity="1" /><path clip-path="url(#clip880)" d="M513.965 1544.91 L521.604 1544.91 L521.604 1518.55 L513.294 1520.21 L513.294 1515.95 L521.558 1514.29 L526.234 1514.29 L526.234 1544.91 L533.873 1544.91 L533.873 1548.85 L513.965 1548.85 L513.965 1544.91 Z" fill="#000000" fill-rule="nonzero" fill-opacity="1" /><path clip-path="url(#clip880)" d="M553.317 1517.37 Q549.706 1517.37 547.877 1520.93 Q546.072 1524.47 546.072 1531.6 Q546.072 1538.71 547.877 1542.27 Q549.706 1545.82 553.317 1545.82 Q556.951 1545.82 558.757 1542.27 Q560.585 1538.71 560.585 1531.6 Q560.585 1524.47 558.757 1520.93 Q556.951 1517.37 553.317 1517.37 M553.317 1513.66 Q559.127 1513.66 562.183 1518.27 Q565.261 1522.85 565.261 1531.6 Q565.261 1540.33 562.183 1544.94 Q559.127 1549.52 553.317 1549.52 Q547.507 1549.52 544.428 1544.94 Q541.373 1540.33 541.373 1531.6 Q541.373 1522.85 544.428 1518.27 Q547.507 1513.66 553.317 1513.66 Z" fill="#000000" fill-rule="nonzero" fill-opacity="1" /><path clip-path="url(#clip880)" d="M842.524 1544.91 L858.843 1544.91 L858.843 1548.85 L836.899 1548.85 L836.899 1544.91 Q839.561 1542.16 844.144 1537.53 Q848.75 1532.88 849.931 1531.53 Q852.176 1529.01 853.056 1527.27 Q853.959 1525.51 853.959 1523.82 Q853.959 1521.07 852.014 1519.33 Q850.093 1517.6 846.991 1517.6 Q844.792 1517.6 842.338 1518.36 Q839.908 1519.13 837.13 1520.68 L837.13 1515.95 Q839.954 1514.82 842.408 1514.24 Q844.862 1513.66 846.899 1513.66 Q852.269 1513.66 855.463 1516.35 Q858.658 1519.03 858.658 1523.52 Q858.658 1525.65 857.848 1527.57 Q857.061 1529.47 854.954 1532.07 Q854.375 1532.74 851.274 1535.95 Q848.172 1539.15 842.524 1544.91 Z" fill="#000000" fill-rule="nonzero" fill-opacity="1" /><path clip-path="url(#clip880)" d="M878.658 1517.37 Q875.047 1517.37 873.218 1520.93 Q871.412 1524.47 871.412 1531.6 Q871.412 1538.71 873.218 1542.27 Q875.047 1545.82 878.658 1545.82 Q882.292 1545.82 884.098 1542.27 Q885.926 1538.71 885.926 1531.6 Q885.926 1524.47 884.098 1520.93 Q882.292 1517.37 878.658 1517.37 M878.658 1513.66 Q884.468 1513.66 887.523 1518.27 Q890.602 1522.85 890.602 1531.6 Q890.602 1540.33 887.523 1544.94 Q884.468 1549.52 878.658 1549.52 Q872.848 1549.52 869.769 1544.94 Q866.713 1540.33 866.713 1531.6 Q866.713 1522.85 869.769 1518.27 Q872.848 1513.66 878.658 1513.66 Z" fill="#000000" fill-rule="nonzero" fill-opacity="1" /><path clip-path="url(#clip880)" d="M1177.07 1530.21 Q1180.42 1530.93 1182.3 1533.2 Q1184.2 1535.47 1184.2 1538.8 Q1184.2 1543.92 1180.68 1546.72 Q1177.16 1549.52 1170.68 1549.52 Q1168.5 1549.52 1166.19 1549.08 Q1163.89 1548.66 1161.44 1547.81 L1161.44 1543.29 Q1163.39 1544.43 1165.7 1545.01 Q1168.01 1545.58 1170.54 1545.58 Q1174.94 1545.58 1177.23 1543.85 Q1179.54 1542.11 1179.54 1538.8 Q1179.54 1535.75 1177.39 1534.03 Q1175.26 1532.3 1171.44 1532.3 L1167.41 1532.3 L1167.41 1528.45 L1171.63 1528.45 Q1175.08 1528.45 1176.9 1527.09 Q1178.73 1525.7 1178.73 1523.11 Q1178.73 1520.45 1176.83 1519.03 Q1174.96 1517.6 1171.44 1517.6 Q1169.52 1517.6 1167.32 1518.01 Q1165.12 1518.43 1162.48 1519.31 L1162.48 1515.14 Q1165.14 1514.4 1167.46 1514.03 Q1169.8 1513.66 1171.86 1513.66 Q1177.18 1513.66 1180.28 1516.09 Q1183.39 1518.5 1183.39 1522.62 Q1183.39 1525.49 1181.74 1527.48 Q1180.1 1529.45 1177.07 1530.21 Z" fill="#000000" fill-rule="nonzero" fill-opacity="1" /><path clip-path="url(#clip880)" d="M1203.06 1517.37 Q1199.45 1517.37 1197.62 1520.93 Q1195.82 1524.47 1195.82 1531.6 Q1195.82 1538.71 1197.62 1542.27 Q1199.45 1545.82 1203.06 1545.82 Q1206.7 1545.82 1208.5 1542.27 Q1210.33 1538.71 1210.33 1531.6 Q1210.33 1524.47 1208.5 1520.93 Q1206.7 1517.37 1203.06 1517.37 M1203.06 1513.66 Q1208.87 1513.66 1211.93 1518.27 Q1215.01 1522.85 1215.01 1531.6 Q1215.01 1540.33 1211.93 1544.94 Q1208.87 1549.52 1203.06 1549.52 Q1197.25 1549.52 1194.17 1544.94 Q1191.12 1540.33 1191.12 1531.6 Q1191.12 1522.85 1194.17 1518.27 Q1197.25 1513.66 1203.06 1513.66 Z" fill="#000000" fill-rule="nonzero" fill-opacity="1" /><path clip-path="url(#clip880)" d="M1500.87 1518.36 L1489.06 1536.81 L1500.87 1536.81 L1500.87 1518.36 M1499.64 1514.29 L1505.52 1514.29 L1505.52 1536.81 L1510.45 1536.81 L1510.45 1540.7 L1505.52 1540.7 L1505.52 1548.85 L1500.87 1548.85 L1500.87 1540.7 L1485.27 1540.7 L1485.27 1536.19 L1499.64 1514.29 Z" fill="#000000" fill-rule="nonzero" fill-opacity="1" /><path clip-path="url(#clip880)" d="M1528.18 1517.37 Q1524.57 1517.37 1522.74 1520.93 Q1520.94 1524.47 1520.94 1531.6 Q1520.94 1538.71 1522.74 1542.27 Q1524.57 1545.82 1528.18 1545.82 Q1531.82 1545.82 1533.62 1542.27 Q1535.45 1538.71 1535.45 1531.6 Q1535.45 1524.47 1533.62 1520.93 Q1531.82 1517.37 1528.18 1517.37 M1528.18 1513.66 Q1533.99 1513.66 1537.05 1518.27 Q1540.13 1522.85 1540.13 1531.6 Q1540.13 1540.33 1537.05 1544.94 Q1533.99 1549.52 1528.18 1549.52 Q1522.37 1549.52 1519.29 1544.94 Q1516.24 1540.33 1516.24 1531.6 Q1516.24 1522.85 1519.29 1518.27 Q1522.37 1513.66 1528.18 1513.66 Z" fill="#000000" fill-rule="nonzero" fill-opacity="1" /><path clip-path="url(#clip880)" d="M1811.87 1514.29 L1830.22 1514.29 L1830.22 1518.22 L1816.15 1518.22 L1816.15 1526.7 Q1817.17 1526.35 1818.19 1526.19 Q1819.21 1526 1820.22 1526 Q1826.01 1526 1829.39 1529.17 Q1832.77 1532.34 1832.77 1537.76 Q1832.77 1543.34 1829.3 1546.44 Q1825.83 1549.52 1819.51 1549.52 Q1817.33 1549.52 1815.06 1549.15 Q1812.82 1548.78 1810.41 1548.04 L1810.41 1543.34 Q1812.49 1544.47 1814.72 1545.03 Q1816.94 1545.58 1819.41 1545.58 Q1823.42 1545.58 1825.76 1543.48 Q1828.09 1541.37 1828.09 1537.76 Q1828.09 1534.15 1825.76 1532.04 Q1823.42 1529.94 1819.41 1529.94 Q1817.54 1529.94 1815.66 1530.35 Q1813.81 1530.77 1811.87 1531.65 L1811.87 1514.29 Z" fill="#000000" fill-rule="nonzero" fill-opacity="1" /><path clip-path="url(#clip880)" d="M1851.98 1517.37 Q1848.37 1517.37 1846.54 1520.93 Q1844.74 1524.47 1844.74 1531.6 Q1844.74 1538.71 1846.54 1542.27 Q1848.37 1545.82 1851.98 1545.82 Q1855.62 1545.82 1857.42 1542.27 Q1859.25 1538.71 1859.25 1531.6 Q1859.25 1524.47 1857.42 1520.93 Q1855.62 1517.37 1851.98 1517.37 M1851.98 1513.66 Q1857.79 1513.66 1860.85 1518.27 Q1863.93 1522.85 1863.93 1531.6 Q1863.93 1540.33 1860.85 1544.94 Q1857.79 1549.52 1851.98 1549.52 Q1846.17 1549.52 1843.09 1544.94 Q1840.04 1540.33 1840.04 1531.6 Q1840.04 1522.85 1843.09 1518.27 Q1846.17 1513.66 1851.98 1513.66 Z" fill="#000000" fill-rule="nonzero" fill-opacity="1" /><path clip-path="url(#clip880)" d="M2147.05 1529.7 Q2143.9 1529.7 2142.05 1531.86 Q2140.22 1534.01 2140.22 1537.76 Q2140.22 1541.49 2142.05 1543.66 Q2143.9 1545.82 2147.05 1545.82 Q2150.19 1545.82 2152.02 1543.66 Q2153.88 1541.49 2153.88 1537.76 Q2153.88 1534.01 2152.02 1531.86 Q2150.19 1529.7 2147.05 1529.7 M2156.33 1515.05 L2156.33 1519.31 Q2154.57 1518.48 2152.76 1518.04 Q2150.98 1517.6 2149.22 1517.6 Q2144.59 1517.6 2142.14 1520.72 Q2139.71 1523.85 2139.36 1530.17 Q2140.73 1528.15 2142.79 1527.09 Q2144.85 1526 2147.32 1526 Q2152.53 1526 2155.54 1529.17 Q2158.57 1532.32 2158.57 1537.76 Q2158.57 1543.08 2155.43 1546.3 Q2152.28 1549.52 2147.05 1549.52 Q2141.05 1549.52 2137.88 1544.94 Q2134.71 1540.33 2134.71 1531.6 Q2134.71 1523.41 2138.6 1518.55 Q2142.49 1513.66 2149.04 1513.66 Q2150.8 1513.66 2152.58 1514.01 Q2154.38 1514.36 2156.33 1515.05 Z" fill="#000000" fill-rule="nonzero" fill-opacity="1" /><path clip-path="url(#clip880)" d="M2176.63 1517.37 Q2173.02 1517.37 2171.19 1520.93 Q2169.38 1524.47 2169.38 1531.6 Q2169.38 1538.71 2171.19 1542.27 Q2173.02 1545.82 2176.63 1545.82 Q2180.26 1545.82 2182.07 1542.27 Q2183.9 1538.71 2183.9 1531.6 Q2183.9 1524.47 2182.07 1520.93 Q2180.26 1517.37 2176.63 1517.37 M2176.63 1513.66 Q2182.44 1513.66 2185.5 1518.27 Q2188.57 1522.85 2188.57 1531.6 Q2188.57 1540.33 2185.5 1544.94 Q2182.44 1549.52 2176.63 1549.52 Q2170.82 1549.52 2167.74 1544.94 Q2164.69 1540.33 2164.69 1531.6 Q2164.69 1522.85 2167.74 1518.27 Q2170.82 1513.66 2176.63 1513.66 Z" fill="#000000" fill-rule="nonzero" fill-opacity="1" /><polyline clip-path="url(#clip882)" style="stroke:#000000; stroke-linecap:round; stroke-linejoin:round; stroke-width:2; stroke-opacity:0.1; fill:none" points="185.927,1180.1 2352.76,1180.1 "/>
<polyline clip-path="url(#clip882)" style="stroke:#000000; stroke-linecap:round; stroke-linejoin:round; stroke-width:2; stroke-opacity:0.1; fill:none" points="185.927,865.471 2352.76,865.471 "/>
<polyline clip-path="url(#clip882)" style="stroke:#000000; stroke-linecap:round; stroke-linejoin:round; stroke-width:2; stroke-opacity:0.1; fill:none" points="185.927,550.846 2352.76,550.846 "/>
<polyline clip-path="url(#clip882)" style="stroke:#000000; stroke-linecap:round; stroke-linejoin:round; stroke-width:2; stroke-opacity:0.1; fill:none" points="185.927,236.22 2352.76,236.22 "/>
<polyline clip-path="url(#clip880)" style="stroke:#000000; stroke-linecap:round; stroke-linejoin:round; stroke-width:4; stroke-opacity:1; fill:none" points="185.927,1486.45 185.927,47.2441 "/>
<polyline clip-path="url(#clip880)" style="stroke:#000000; stroke-linecap:round; stroke-linejoin:round; stroke-width:4; stroke-opacity:1; fill:none" points="185.927,1180.1 204.824,1180.1 "/>
<polyline clip-path="url(#clip880)" style="stroke:#000000; stroke-linecap:round; stroke-linejoin:round; stroke-width:4; stroke-opacity:1; fill:none" points="185.927,865.471 204.824,865.471 "/>
<polyline clip-path="url(#clip880)" style="stroke:#000000; stroke-linecap:round; stroke-linejoin:round; stroke-width:4; stroke-opacity:1; fill:none" points="185.927,550.846 204.824,550.846 "/>
<polyline clip-path="url(#clip880)" style="stroke:#000000; stroke-linecap:round; stroke-linejoin:round; stroke-width:4; stroke-opacity:1; fill:none" points="185.927,236.22 204.824,236.22 "/>
<path clip-path="url(#clip880)" d="M53.3995 1193.44 L61.0384 1193.44 L61.0384 1167.08 L52.7282 1168.74 L52.7282 1164.48 L60.9921 1162.82 L65.668 1162.82 L65.668 1193.44 L73.3068 1193.44 L73.3068 1197.38 L53.3995 1197.38 L53.3995 1193.44 Z" fill="#000000" fill-rule="nonzero" fill-opacity="1" /><path clip-path="url(#clip880)" d="M82.8901 1196.66 L82.8901 1192.4 Q84.6494 1193.23 86.4549 1193.67 Q88.2604 1194.11 89.9965 1194.11 Q94.6262 1194.11 97.0567 1191.01 Q99.5104 1187.89 99.8576 1181.54 Q98.515 1183.53 96.4548 1184.6 Q94.3947 1185.66 91.8947 1185.66 Q86.7095 1185.66 83.6771 1182.54 Q80.6679 1179.39 80.6679 1173.95 Q80.6679 1168.63 83.816 1165.41 Q86.9642 1162.19 92.1956 1162.19 Q98.1909 1162.19 101.339 1166.8 Q104.51 1171.38 104.51 1180.13 Q104.51 1188.3 100.621 1193.19 Q96.7558 1198.05 90.2049 1198.05 Q88.4456 1198.05 86.6401 1197.7 Q84.8345 1197.35 82.8901 1196.66 M92.1956 1182.01 Q95.3437 1182.01 97.1724 1179.85 Q99.0243 1177.7 99.0243 1173.95 Q99.0243 1170.22 97.1724 1168.07 Q95.3437 1165.9 92.1956 1165.9 Q89.0475 1165.9 87.1956 1168.07 Q85.3669 1170.22 85.3669 1173.95 Q85.3669 1177.7 87.1956 1179.85 Q89.0475 1182.01 92.1956 1182.01 Z" fill="#000000" fill-rule="nonzero" fill-opacity="1" /><path clip-path="url(#clip880)" d="M112.913 1191.5 L117.797 1191.5 L117.797 1197.38 L112.913 1197.38 L112.913 1191.5 Z" fill="#000000" fill-rule="nonzero" fill-opacity="1" /><path clip-path="url(#clip880)" d="M137.982 1165.9 Q134.371 1165.9 132.543 1169.46 Q130.737 1173 130.737 1180.13 Q130.737 1187.24 132.543 1190.8 Q134.371 1194.34 137.982 1194.34 Q141.617 1194.34 143.422 1190.8 Q145.251 1187.24 145.251 1180.13 Q145.251 1173 143.422 1169.46 Q141.617 1165.9 137.982 1165.9 M137.982 1162.19 Q143.793 1162.19 146.848 1166.8 Q149.927 1171.38 149.927 1180.13 Q149.927 1188.86 146.848 1193.46 Q143.793 1198.05 137.982 1198.05 Q132.172 1198.05 129.094 1193.46 Q126.038 1188.86 126.038 1180.13 Q126.038 1171.38 129.094 1166.8 Q132.172 1162.19 137.982 1162.19 Z" fill="#000000" fill-rule="nonzero" fill-opacity="1" /><path clip-path="url(#clip880)" d="M54.3949 878.816 L62.0337 878.816 L62.0337 852.45 L53.7236 854.117 L53.7236 849.858 L61.9874 848.191 L66.6633 848.191 L66.6633 878.816 L74.3022 878.816 L74.3022 882.751 L54.3949 882.751 L54.3949 878.816 Z" fill="#000000" fill-rule="nonzero" fill-opacity="1" /><path clip-path="url(#clip880)" d="M83.8855 882.034 L83.8855 877.774 Q85.6447 878.608 87.4503 879.048 Q89.2558 879.487 90.9919 879.487 Q95.6215 879.487 98.0521 876.385 Q100.506 873.261 100.853 866.918 Q99.5104 868.909 97.4502 869.973 Q95.39 871.038 92.89 871.038 Q87.7049 871.038 84.6725 867.913 Q81.6633 864.765 81.6633 859.325 Q81.6633 854.001 84.8114 850.784 Q87.9595 847.566 93.191 847.566 Q99.1863 847.566 102.334 852.173 Q105.506 856.756 105.506 865.506 Q105.506 873.677 101.617 878.561 Q97.7511 883.422 91.2002 883.422 Q89.441 883.422 87.6354 883.075 Q85.8299 882.728 83.8855 882.034 M93.191 867.381 Q96.3391 867.381 98.1678 865.228 Q100.02 863.075 100.02 859.325 Q100.02 855.599 98.1678 853.446 Q96.3391 851.27 93.191 851.27 Q90.0428 851.27 88.191 853.446 Q86.3623 855.599 86.3623 859.325 Q86.3623 863.075 88.191 865.228 Q90.0428 867.381 93.191 867.381 Z" fill="#000000" fill-rule="nonzero" fill-opacity="1" /><path clip-path="url(#clip880)" d="M113.908 876.872 L118.793 876.872 L118.793 882.751 L113.908 882.751 L113.908 876.872 Z" fill="#000000" fill-rule="nonzero" fill-opacity="1" /><path clip-path="url(#clip880)" d="M129.024 848.191 L147.38 848.191 L147.38 852.126 L133.306 852.126 L133.306 860.599 Q134.325 860.251 135.344 860.089 Q136.362 859.904 137.381 859.904 Q143.168 859.904 146.547 863.075 Q149.927 866.247 149.927 871.663 Q149.927 877.242 146.455 880.344 Q142.982 883.422 136.663 883.422 Q134.487 883.422 132.219 883.052 Q129.973 882.682 127.566 881.941 L127.566 877.242 Q129.649 878.376 131.871 878.932 Q134.094 879.487 136.57 879.487 Q140.575 879.487 142.913 877.381 Q145.251 875.274 145.251 871.663 Q145.251 868.052 142.913 865.946 Q140.575 863.839 136.57 863.839 Q134.695 863.839 132.82 864.256 Q130.969 864.673 129.024 865.552 L129.024 848.191 Z" fill="#000000" fill-rule="nonzero" fill-opacity="1" /><path clip-path="url(#clip880)" d="M56.6171 564.191 L72.9365 564.191 L72.9365 568.126 L50.9921 568.126 L50.9921 564.191 Q53.6541 561.436 58.2375 556.806 Q62.8439 552.154 64.0245 550.811 Q66.2698 548.288 67.1494 546.552 Q68.0522 544.793 68.0522 543.103 Q68.0522 540.348 66.1078 538.612 Q64.1865 536.876 61.0847 536.876 Q58.8856 536.876 56.4319 537.64 Q54.0014 538.404 51.2236 539.955 L51.2236 535.232 Q54.0477 534.098 56.5014 533.519 Q58.955 532.941 60.9921 532.941 Q66.3624 532.941 69.5568 535.626 Q72.7513 538.311 72.7513 542.802 Q72.7513 544.931 71.9411 546.853 Q71.1541 548.751 69.0476 551.343 Q68.4689 552.015 65.367 555.232 Q62.2652 558.427 56.6171 564.191 Z" fill="#000000" fill-rule="nonzero" fill-opacity="1" /><path clip-path="url(#clip880)" d="M92.7512 536.644 Q89.1401 536.644 87.3114 540.209 Q85.5058 543.751 85.5058 550.88 Q85.5058 557.987 87.3114 561.552 Q89.1401 565.093 92.7512 565.093 Q96.3854 565.093 98.1909 561.552 Q100.02 557.987 100.02 550.88 Q100.02 543.751 98.1909 540.209 Q96.3854 536.644 92.7512 536.644 M92.7512 532.941 Q98.5613 532.941 101.617 537.547 Q104.696 542.131 104.696 550.88 Q104.696 559.607 101.617 564.214 Q98.5613 568.797 92.7512 568.797 Q86.941 568.797 83.8623 564.214 Q80.8068 559.607 80.8068 550.88 Q80.8068 542.131 83.8623 537.547 Q86.941 532.941 92.7512 532.941 Z" fill="#000000" fill-rule="nonzero" fill-opacity="1" /><path clip-path="url(#clip880)" d="M112.913 562.246 L117.797 562.246 L117.797 568.126 L112.913 568.126 L112.913 562.246 Z" fill="#000000" fill-rule="nonzero" fill-opacity="1" /><path clip-path="url(#clip880)" d="M137.982 536.644 Q134.371 536.644 132.543 540.209 Q130.737 543.751 130.737 550.88 Q130.737 557.987 132.543 561.552 Q134.371 565.093 137.982 565.093 Q141.617 565.093 143.422 561.552 Q145.251 557.987 145.251 550.88 Q145.251 543.751 143.422 540.209 Q141.617 536.644 137.982 536.644 M137.982 532.941 Q143.793 532.941 146.848 537.547 Q149.927 542.131 149.927 550.88 Q149.927 559.607 146.848 564.214 Q143.793 568.797 137.982 568.797 Q132.172 568.797 129.094 564.214 Q126.038 559.607 126.038 550.88 Q126.038 542.131 129.094 537.547 Q132.172 532.941 137.982 532.941 Z" fill="#000000" fill-rule="nonzero" fill-opacity="1" /><path clip-path="url(#clip880)" d="M57.6125 249.565 L73.9318 249.565 L73.9318 253.5 L51.9875 253.5 L51.9875 249.565 Q54.6495 246.811 59.2328 242.181 Q63.8393 237.528 65.0198 236.186 Q67.2652 233.662 68.1448 231.926 Q69.0476 230.167 69.0476 228.477 Q69.0476 225.723 67.1032 223.987 Q65.1819 222.251 62.08 222.251 Q59.881 222.251 57.4273 223.014 Q54.9967 223.778 52.219 225.329 L52.219 220.607 Q55.043 219.473 57.4967 218.894 Q59.9504 218.315 61.9874 218.315 Q67.3578 218.315 70.5522 221.001 Q73.7466 223.686 73.7466 228.176 Q73.7466 230.306 72.9365 232.227 Q72.1494 234.125 70.0429 236.718 Q69.4642 237.389 66.3624 240.607 Q63.2606 243.801 57.6125 249.565 Z" fill="#000000" fill-rule="nonzero" fill-opacity="1" /><path clip-path="url(#clip880)" d="M93.7465 222.019 Q90.1354 222.019 88.3067 225.584 Q86.5012 229.125 86.5012 236.255 Q86.5012 243.362 88.3067 246.926 Q90.1354 250.468 93.7465 250.468 Q97.3808 250.468 99.1863 246.926 Q101.015 243.362 101.015 236.255 Q101.015 229.125 99.1863 225.584 Q97.3808 222.019 93.7465 222.019 M93.7465 218.315 Q99.5567 218.315 102.612 222.922 Q105.691 227.505 105.691 236.255 Q105.691 244.982 102.612 249.588 Q99.5567 254.172 93.7465 254.172 Q87.9364 254.172 84.8577 249.588 Q81.8021 244.982 81.8021 236.255 Q81.8021 227.505 84.8577 222.922 Q87.9364 218.315 93.7465 218.315 Z" fill="#000000" fill-rule="nonzero" fill-opacity="1" /><path clip-path="url(#clip880)" d="M113.908 247.621 L118.793 247.621 L118.793 253.5 L113.908 253.5 L113.908 247.621 Z" fill="#000000" fill-rule="nonzero" fill-opacity="1" /><path clip-path="url(#clip880)" d="M129.024 218.94 L147.38 218.94 L147.38 222.876 L133.306 222.876 L133.306 231.348 Q134.325 231 135.344 230.838 Q136.362 230.653 137.381 230.653 Q143.168 230.653 146.547 233.825 Q149.927 236.996 149.927 242.412 Q149.927 247.991 146.455 251.093 Q142.982 254.172 136.663 254.172 Q134.487 254.172 132.219 253.801 Q129.973 253.431 127.566 252.69 L127.566 247.991 Q129.649 249.125 131.871 249.681 Q134.094 250.236 136.57 250.236 Q140.575 250.236 142.913 248.13 Q145.251 246.024 145.251 242.412 Q145.251 238.801 142.913 236.695 Q140.575 234.588 136.57 234.588 Q134.695 234.588 132.82 235.005 Q130.969 235.422 129.024 236.301 L129.024 218.94 Z" fill="#000000" fill-rule="nonzero" fill-opacity="1" /><polyline clip-path="url(#clip882)" style="stroke:#009af9; stroke-linecap:round; stroke-linejoin:round; stroke-width:4; stroke-opacity:1; fill:none" points="247.252,87.9763 279.699,621.641 312.147,646.443 344.594,668.392 377.041,716.914 409.489,780.418 441.936,848.539 474.383,915.314 506.83,977.844 539.278,1034.97 571.725,1086.45 604.172,1132.48 636.619,1173.44 669.067,1209.8 701.514,1242.01 733.961,1270.52 766.409,1295.72 798.856,1317.97 831.303,1337.58 863.75,1354.84 896.198,1369.99 928.645,1383.23 961.092,1394.77 993.539,1404.77 1025.99,1413.37 1058.43,1420.71 1090.88,1426.91 1123.33,1432.05 1155.78,1436.25 1188.22,1439.58 1220.67,1442.13 1253.12,1443.95 1285.56,1445.12 1318.01,1445.69 1350.46,1445.72 1382.91,1445.24 1415.35,1444.31 1447.8,1442.97 1480.25,1441.25 1512.7,1439.19 1545.14,1436.82 1577.59,1434.17 1610.04,1431.26 1642.49,1428.11 1674.93,1424.76 1707.38,1421.22 1739.83,1417.51 1772.27,1413.64 1804.72,1409.64 1837.17,1405.51 1869.62,1401.27 1902.06,1396.93 1934.51,1392.5 1966.96,1387.99 1999.41,1383.41 2031.85,1378.77 2064.3,1374.07 2096.75,1369.32 2129.19,1364.53 2161.64,1359.7 2194.09,1354.84 2226.54,1349.95 2258.98,1345.03 2291.43,1340.1 "/>
<path clip-path="url(#clip880)" d="M2011.42 198.898 L2280.53 198.898 L2280.53 95.2176 L2011.42 95.2176  Z" fill="#ffffff" fill-rule="evenodd" fill-opacity="1"/>
<polyline clip-path="url(#clip880)" style="stroke:#000000; stroke-linecap:round; stroke-linejoin:round; stroke-width:4; stroke-opacity:1; fill:none" points="2011.42,198.898 2280.53,198.898 2280.53,95.2176 2011.42,95.2176 2011.42,198.898 "/>
<polyline clip-path="url(#clip880)" style="stroke:#009af9; stroke-linecap:round; stroke-linejoin:round; stroke-width:4; stroke-opacity:1; fill:none" points="2035.49,147.058 2179.95,147.058 "/>
<path clip-path="url(#clip880)" d="M2217.86 166.745 Q2216.06 171.375 2214.35 172.787 Q2212.63 174.199 2209.76 174.199 L2206.36 174.199 L2206.36 170.634 L2208.86 170.634 Q2210.62 170.634 2211.59 169.8 Q2212.56 168.967 2213.74 165.865 L2214.51 163.921 L2204.02 138.412 L2208.54 138.412 L2216.64 158.689 L2224.74 138.412 L2229.25 138.412 L2217.86 166.745 Z" fill="#000000" fill-rule="nonzero" fill-opacity="1" /><path clip-path="url(#clip880)" d="M2236.55 160.402 L2244.18 160.402 L2244.18 134.037 L2235.87 135.703 L2235.87 131.444 L2244.14 129.778 L2248.81 129.778 L2248.81 160.402 L2256.45 160.402 L2256.45 164.338 L2236.55 164.338 L2236.55 160.402 Z" fill="#000000" fill-rule="nonzero" fill-opacity="1" /></svg>
