<?xml version="1.0" encoding="utf-8"?>
<svg xmlns="http://www.w3.org/2000/svg" xmlns:xlink="http://www.w3.org/1999/xlink" width="600" height="400" viewBox="0 0 2400 1600">
<defs>
  <clipPath id="clip310">
    <rect x="0" y="0" width="2400" height="1600"/>
  </clipPath>
</defs>
<path clip-path="url(#clip310)" d="M0 1600 L2400 1600 L2400 0 L0 0  Z" fill="#ffffff" fill-rule="evenodd" fill-opacity="1"/>
<defs>
  <clipPath id="clip311">
    <rect x="480" y="0" width="1681" height="1600"/>
  </clipPath>
</defs>
<path clip-path="url(#clip310)" d="M216.436 1486.45 L2352.76 1486.45 L2352.76 47.2441 L216.436 47.2441  Z" fill="#ffffff" fill-rule="evenodd" fill-opacity="1"/>
<defs>
  <clipPath id="clip312">
    <rect x="216" y="47" width="2137" height="1440"/>
  </clipPath>
</defs>
<polyline clip-path="url(#clip312)" style="stroke:#000000; stroke-linecap:round; stroke-linejoin:round; stroke-width:2; stroke-opacity:0.1; fill:none" points="244.907,1486.45 244.907,47.2441 "/>
<polyline clip-path="url(#clip312)" style="stroke:#000000; stroke-linecap:round; stroke-linejoin:round; stroke-width:2; stroke-opacity:0.1; fill:none" points="564.812,1486.45 564.812,47.2441 "/>
<polyline clip-path="url(#clip312)" style="stroke:#000000; stroke-linecap:round; stroke-linejoin:round; stroke-width:2; stroke-opacity:0.1; fill:none" points="884.716,1486.45 884.716,47.2441 "/>
<polyline clip-path="url(#clip312)" style="stroke:#000000; stroke-linecap:round; stroke-linejoin:round; stroke-width:2; stroke-opacity:0.1; fill:none" points="1204.62,1486.45 1204.62,47.2441 "/>
<polyline clip-path="url(#clip312)" style="stroke:#000000; stroke-linecap:round; stroke-linejoin:round; stroke-width:2; stroke-opacity:0.1; fill:none" points="1524.52,1486.45 1524.52,47.2441 "/>
<polyline clip-path="url(#clip312)" style="stroke:#000000; stroke-linecap:round; stroke-linejoin:round; stroke-width:2; stroke-opacity:0.1; fill:none" points="1844.43,1486.45 1844.43,47.2441 "/>
<polyline clip-path="url(#clip312)" style="stroke:#000000; stroke-linecap:round; stroke-linejoin:round; stroke-width:2; stroke-opacity:0.1; fill:none" points="2164.33,1486.45 2164.33,47.2441 "/>
<polyline clip-path="url(#clip310)" style="stroke:#000000; stroke-linecap:round; stroke-linejoin:round; stroke-width:4; stroke-opacity:1; fill:none" points="216.436,1486.45 2352.76,1486.45 "/>
<polyline clip-path="url(#clip310)" style="stroke:#000000; stroke-linecap:round; stroke-linejoin:round; stroke-width:4; stroke-opacity:1; fill:none" points="244.907,1486.45 244.907,1467.55 "/>
<polyline clip-path="url(#clip310)" style="stroke:#000000; stroke-linecap:round; stroke-linejoin:round; stroke-width:4; stroke-opacity:1; fill:none" points="564.812,1486.45 564.812,1467.55 "/>
<polyline clip-path="url(#clip310)" style="stroke:#000000; stroke-linecap:round; stroke-linejoin:round; stroke-width:4; stroke-opacity:1; fill:none" points="884.716,1486.45 884.716,1467.55 "/>
<polyline clip-path="url(#clip310)" style="stroke:#000000; stroke-linecap:round; stroke-linejoin:round; stroke-width:4; stroke-opacity:1; fill:none" points="1204.62,1486.45 1204.62,1467.55 "/>
<polyline clip-path="url(#clip310)" style="stroke:#000000; stroke-linecap:round; stroke-linejoin:round; stroke-width:4; stroke-opacity:1; fill:none" points="1524.52,1486.45 1524.52,1467.55 "/>
<polyline clip-path="url(#clip310)" style="stroke:#000000; stroke-linecap:round; stroke-linejoin:round; stroke-width:4; stroke-opacity:1; fill:none" points="1844.43,1486.45 1844.43,1467.55 "/>
<polyline clip-path="url(#clip310)" style="stroke:#000000; stroke-linecap:round; stroke-linejoin:round; stroke-width:4; stroke-opacity:1; fill:none" points="2164.33,1486.45 2164.33,1467.55 "/>
<path clip-path="url(#clip310)" d="M244.907 1517.37 Q241.296 1517.37 239.468 1520.93 Q237.662 1524.47 237.662 1531.6 Q237.662 1538.71 239.468 1542.27 Q241.296 1545.82 244.907 1545.82 Q248.542 1545.82 250.347 1542.27 Q252.176 1538.71 252.176 1531.6 Q252.176 1524.47 250.347 1520.93 Q248.542 1517.37 244.907 1517.37 M244.907 1513.66 Q250.718 1513.66 253.773 1518.27 Q256.852 1522.85 256.852 1531.6 Q256.852 1540.33 253.773 1544.94 Q250.718 1549.52 244.907 1549.52 Q239.097 1549.52 236.019 1544.94 Q232.963 1540.33 232.963 1531.6 Q232.963 1522.85 236.019 1518.27 Q239.097 1513.66 244.907 1513.66 Z" fill="#000000" fill-rule="nonzero" fill-opacity="1" /><path clip-path="url(#clip310)" d="M539.499 1544.91 L547.138 1544.91 L547.138 1518.55 L538.828 1520.21 L538.828 1515.95 L547.092 1514.29 L551.768 1514.29 L551.768 1544.91 L559.406 1544.91 L559.406 1548.85 L539.499 1548.85 L539.499 1544.91 Z" fill="#000000" fill-rule="nonzero" fill-opacity="1" /><path clip-path="url(#clip310)" d="M578.851 1517.37 Q575.24 1517.37 573.411 1520.93 Q571.605 1524.47 571.605 1531.6 Q571.605 1538.71 573.411 1542.27 Q575.24 1545.82 578.851 1545.82 Q582.485 1545.82 584.291 1542.27 Q586.119 1538.71 586.119 1531.6 Q586.119 1524.47 584.291 1520.93 Q582.485 1517.37 578.851 1517.37 M578.851 1513.66 Q584.661 1513.66 587.716 1518.27 Q590.795 1522.85 590.795 1531.6 Q590.795 1540.33 587.716 1544.94 Q584.661 1549.52 578.851 1549.52 Q573.041 1549.52 569.962 1544.94 Q566.906 1540.33 566.906 1531.6 Q566.906 1522.85 569.962 1518.27 Q573.041 1513.66 578.851 1513.66 Z" fill="#000000" fill-rule="nonzero" fill-opacity="1" /><path clip-path="url(#clip310)" d="M863.489 1544.91 L879.808 1544.91 L879.808 1548.85 L857.864 1548.85 L857.864 1544.91 Q860.526 1542.16 865.109 1537.53 Q869.716 1532.88 870.896 1531.53 Q873.142 1529.01 874.021 1527.27 Q874.924 1525.51 874.924 1523.82 Q874.924 1521.07 872.98 1519.33 Q871.058 1517.6 867.957 1517.6 Q865.757 1517.6 863.304 1518.36 Q860.873 1519.13 858.095 1520.68 L858.095 1515.95 Q860.92 1514.82 863.373 1514.24 Q865.827 1513.66 867.864 1513.66 Q873.234 1513.66 876.429 1516.35 Q879.623 1519.03 879.623 1523.52 Q879.623 1525.65 878.813 1527.57 Q878.026 1529.47 875.919 1532.07 Q875.341 1532.74 872.239 1535.95 Q869.137 1539.15 863.489 1544.91 Z" fill="#000000" fill-rule="nonzero" fill-opacity="1" /><path clip-path="url(#clip310)" d="M899.623 1517.37 Q896.012 1517.37 894.183 1520.93 Q892.378 1524.47 892.378 1531.6 Q892.378 1538.71 894.183 1542.27 Q896.012 1545.82 899.623 1545.82 Q903.257 1545.82 905.063 1542.27 Q906.891 1538.71 906.891 1531.6 Q906.891 1524.47 905.063 1520.93 Q903.257 1517.37 899.623 1517.37 M899.623 1513.66 Q905.433 1513.66 908.489 1518.27 Q911.567 1522.85 911.567 1531.6 Q911.567 1540.33 908.489 1544.94 Q905.433 1549.52 899.623 1549.52 Q893.813 1549.52 890.734 1544.94 Q887.679 1540.33 887.679 1531.6 Q887.679 1522.85 890.734 1518.27 Q893.813 1513.66 899.623 1513.66 Z" fill="#000000" fill-rule="nonzero" fill-opacity="1" /><path clip-path="url(#clip310)" d="M1193.46 1530.21 Q1196.82 1530.93 1198.69 1533.2 Q1200.59 1535.47 1200.59 1538.8 Q1200.59 1543.92 1197.07 1546.72 Q1193.56 1549.52 1187.07 1549.52 Q1184.9 1549.52 1182.58 1549.08 Q1180.29 1548.66 1177.84 1547.81 L1177.84 1543.29 Q1179.78 1544.43 1182.1 1545.01 Q1184.41 1545.58 1186.93 1545.58 Q1191.33 1545.58 1193.62 1543.85 Q1195.94 1542.11 1195.94 1538.8 Q1195.94 1535.75 1193.79 1534.03 Q1191.66 1532.3 1187.84 1532.3 L1183.81 1532.3 L1183.81 1528.45 L1188.02 1528.45 Q1191.47 1528.45 1193.3 1527.09 Q1195.13 1525.7 1195.13 1523.11 Q1195.13 1520.45 1193.23 1519.03 Q1191.36 1517.6 1187.84 1517.6 Q1185.92 1517.6 1183.72 1518.01 Q1181.52 1518.43 1178.88 1519.31 L1178.88 1515.14 Q1181.54 1514.4 1183.86 1514.03 Q1186.19 1513.66 1188.25 1513.66 Q1193.58 1513.66 1196.68 1516.09 Q1199.78 1518.5 1199.78 1522.62 Q1199.78 1525.49 1198.14 1527.48 Q1196.49 1529.45 1193.46 1530.21 Z" fill="#000000" fill-rule="nonzero" fill-opacity="1" /><path clip-path="url(#clip310)" d="M1219.46 1517.37 Q1215.85 1517.37 1214.02 1520.93 Q1212.21 1524.47 1212.21 1531.6 Q1212.21 1538.71 1214.02 1542.27 Q1215.85 1545.82 1219.46 1545.82 Q1223.09 1545.82 1224.9 1542.27 Q1226.73 1538.71 1226.73 1531.6 Q1226.73 1524.47 1224.9 1520.93 Q1223.09 1517.37 1219.46 1517.37 M1219.46 1513.66 Q1225.27 1513.66 1228.32 1518.27 Q1231.4 1522.85 1231.4 1531.6 Q1231.4 1540.33 1228.32 1544.94 Q1225.27 1549.52 1219.46 1549.52 Q1213.65 1549.52 1210.57 1544.94 Q1207.51 1540.33 1207.51 1531.6 Q1207.51 1522.85 1210.57 1518.27 Q1213.65 1513.66 1219.46 1513.66 Z" fill="#000000" fill-rule="nonzero" fill-opacity="1" /><path clip-path="url(#clip310)" d="M1512.7 1518.36 L1500.89 1536.81 L1512.7 1536.81 L1512.7 1518.36 M1511.47 1514.29 L1517.35 1514.29 L1517.35 1536.81 L1522.28 1536.81 L1522.28 1540.7 L1517.35 1540.7 L1517.35 1548.85 L1512.7 1548.85 L1512.7 1540.7 L1497.09 1540.7 L1497.09 1536.19 L1511.47 1514.29 Z" fill="#000000" fill-rule="nonzero" fill-opacity="1" /><path clip-path="url(#clip310)" d="M1540.01 1517.37 Q1536.4 1517.37 1534.57 1520.93 Q1532.76 1524.47 1532.76 1531.6 Q1532.76 1538.71 1534.57 1542.27 Q1536.4 1545.82 1540.01 1545.82 Q1543.64 1545.82 1545.45 1542.27 Q1547.28 1538.71 1547.28 1531.6 Q1547.28 1524.47 1545.45 1520.93 Q1543.64 1517.37 1540.01 1517.37 M1540.01 1513.66 Q1545.82 1513.66 1548.88 1518.27 Q1551.95 1522.85 1551.95 1531.6 Q1551.95 1540.33 1548.88 1544.94 Q1545.82 1549.52 1540.01 1549.52 Q1534.2 1549.52 1531.12 1544.94 Q1528.07 1540.33 1528.07 1531.6 Q1528.07 1522.85 1531.12 1518.27 Q1534.2 1513.66 1540.01 1513.66 Z" fill="#000000" fill-rule="nonzero" fill-opacity="1" /><path clip-path="url(#clip310)" d="M1819.13 1514.29 L1837.48 1514.29 L1837.48 1518.22 L1823.41 1518.22 L1823.41 1526.7 Q1824.43 1526.35 1825.45 1526.19 Q1826.47 1526 1827.48 1526 Q1833.27 1526 1836.65 1529.17 Q1840.03 1532.34 1840.03 1537.76 Q1840.03 1543.34 1836.56 1546.44 Q1833.09 1549.52 1826.77 1549.52 Q1824.59 1549.52 1822.32 1549.15 Q1820.08 1548.78 1817.67 1548.04 L1817.67 1543.34 Q1819.75 1544.47 1821.97 1545.03 Q1824.2 1545.58 1826.67 1545.58 Q1830.68 1545.58 1833.02 1543.48 Q1835.35 1541.37 1835.35 1537.76 Q1835.35 1534.15 1833.02 1532.04 Q1830.68 1529.94 1826.67 1529.94 Q1824.8 1529.94 1822.92 1530.35 Q1821.07 1530.77 1819.13 1531.65 L1819.13 1514.29 Z" fill="#000000" fill-rule="nonzero" fill-opacity="1" /><path clip-path="url(#clip310)" d="M1859.24 1517.37 Q1855.63 1517.37 1853.8 1520.93 Q1852 1524.47 1852 1531.6 Q1852 1538.71 1853.8 1542.27 Q1855.63 1545.82 1859.24 1545.82 Q1862.88 1545.82 1864.68 1542.27 Q1866.51 1538.71 1866.51 1531.6 Q1866.51 1524.47 1864.68 1520.93 Q1862.88 1517.37 1859.24 1517.37 M1859.24 1513.66 Q1865.05 1513.66 1868.11 1518.27 Q1871.19 1522.85 1871.19 1531.6 Q1871.19 1540.33 1868.11 1544.94 Q1865.05 1549.52 1859.24 1549.52 Q1853.43 1549.52 1850.35 1544.94 Q1847.3 1540.33 1847.3 1531.6 Q1847.3 1522.85 1850.35 1518.27 Q1853.43 1513.66 1859.24 1513.66 Z" fill="#000000" fill-rule="nonzero" fill-opacity="1" /><path clip-path="url(#clip310)" d="M2149.74 1529.7 Q2146.59 1529.7 2144.74 1531.86 Q2142.91 1534.01 2142.91 1537.76 Q2142.91 1541.49 2144.74 1543.66 Q2146.59 1545.82 2149.74 1545.82 Q2152.89 1545.82 2154.71 1543.66 Q2156.57 1541.49 2156.57 1537.76 Q2156.57 1534.01 2154.71 1531.86 Q2152.89 1529.7 2149.74 1529.7 M2159.02 1515.05 L2159.02 1519.31 Q2157.26 1518.48 2155.46 1518.04 Q2153.67 1517.6 2151.91 1517.6 Q2147.28 1517.6 2144.83 1520.72 Q2142.4 1523.85 2142.05 1530.17 Q2143.42 1528.15 2145.48 1527.09 Q2147.54 1526 2150.02 1526 Q2155.22 1526 2158.23 1529.17 Q2161.27 1532.32 2161.27 1537.76 Q2161.27 1543.08 2158.12 1546.3 Q2154.97 1549.52 2149.74 1549.52 Q2143.74 1549.52 2140.57 1544.94 Q2137.4 1540.33 2137.4 1531.6 Q2137.4 1523.41 2141.29 1518.55 Q2145.18 1513.66 2151.73 1513.66 Q2153.49 1513.66 2155.27 1514.01 Q2157.08 1514.36 2159.02 1515.05 Z" fill="#000000" fill-rule="nonzero" fill-opacity="1" /><path clip-path="url(#clip310)" d="M2179.32 1517.37 Q2175.71 1517.37 2173.88 1520.93 Q2172.08 1524.47 2172.08 1531.6 Q2172.08 1538.71 2173.88 1542.27 Q2175.71 1545.82 2179.32 1545.82 Q2182.95 1545.82 2184.76 1542.27 Q2186.59 1538.71 2186.59 1531.6 Q2186.59 1524.47 2184.76 1520.93 Q2182.95 1517.37 2179.32 1517.37 M2179.32 1513.66 Q2185.13 1513.66 2188.19 1518.27 Q2191.27 1522.85 2191.27 1531.6 Q2191.27 1540.33 2188.19 1544.94 Q2185.13 1549.52 2179.32 1549.52 Q2173.51 1549.52 2170.43 1544.94 Q2167.38 1540.33 2167.38 1531.6 Q2167.38 1522.85 2170.43 1518.27 Q2173.51 1513.66 2179.32 1513.66 Z" fill="#000000" fill-rule="nonzero" fill-opacity="1" /><polyline clip-path="url(#clip312)" style="stroke:#000000; stroke-linecap:round; stroke-linejoin:round; stroke-width:2; stroke-opacity:0.1; fill:none" points="216.436,1445.72 2352.76,1445.72 "/>
<polyline clip-path="url(#clip312)" style="stroke:#000000; stroke-linecap:round; stroke-linejoin:round; stroke-width:2; stroke-opacity:0.1; fill:none" points="216.436,1135.26 2352.76,1135.26 "/>
<polyline clip-path="url(#clip312)" style="stroke:#000000; stroke-linecap:round; stroke-linejoin:round; stroke-width:2; stroke-opacity:0.1; fill:none" points="216.436,824.799 2352.76,824.799 "/>
<polyline clip-path="url(#clip312)" style="stroke:#000000; stroke-linecap:round; stroke-linejoin:round; stroke-width:2; stroke-opacity:0.1; fill:none" points="216.436,514.34 2352.76,514.34 "/>
<polyline clip-path="url(#clip312)" style="stroke:#000000; stroke-linecap:round; stroke-linejoin:round; stroke-width:2; stroke-opacity:0.1; fill:none" points="216.436,203.882 2352.76,203.882 "/>
<polyline clip-path="url(#clip310)" style="stroke:#000000; stroke-linecap:round; stroke-linejoin:round; stroke-width:4; stroke-opacity:1; fill:none" points="216.436,1486.45 216.436,47.2441 "/>
<polyline clip-path="url(#clip310)" style="stroke:#000000; stroke-linecap:round; stroke-linejoin:round; stroke-width:4; stroke-opacity:1; fill:none" points="216.436,1445.72 235.334,1445.72 "/>
<polyline clip-path="url(#clip310)" style="stroke:#000000; stroke-linecap:round; stroke-linejoin:round; stroke-width:4; stroke-opacity:1; fill:none" points="216.436,1135.26 235.334,1135.26 "/>
<polyline clip-path="url(#clip310)" style="stroke:#000000; stroke-linecap:round; stroke-linejoin:round; stroke-width:4; stroke-opacity:1; fill:none" points="216.436,824.799 235.334,824.799 "/>
<polyline clip-path="url(#clip310)" style="stroke:#000000; stroke-linecap:round; stroke-linejoin:round; stroke-width:4; stroke-opacity:1; fill:none" points="216.436,514.34 235.334,514.34 "/>
<polyline clip-path="url(#clip310)" style="stroke:#000000; stroke-linecap:round; stroke-linejoin:round; stroke-width:4; stroke-opacity:1; fill:none" points="216.436,203.882 235.334,203.882 "/>
<path clip-path="url(#clip310)" d="M62.9365 1431.51 Q59.3254 1431.51 57.4967 1435.08 Q55.6912 1438.62 55.6912 1445.75 Q55.6912 1452.86 57.4967 1456.42 Q59.3254 1459.96 62.9365 1459.96 Q66.5707 1459.96 68.3763 1456.42 Q70.205 1452.86 70.205 1445.75 Q70.205 1438.62 68.3763 1435.08 Q66.5707 1431.51 62.9365 1431.51 M62.9365 1427.81 Q68.7467 1427.81 71.8022 1432.42 Q74.8809 1437 74.8809 1445.75 Q74.8809 1454.48 71.8022 1459.08 Q68.7467 1463.67 62.9365 1463.67 Q57.1264 1463.67 54.0477 1459.08 Q50.9921 1454.48 50.9921 1445.75 Q50.9921 1437 54.0477 1432.42 Q57.1264 1427.81 62.9365 1427.81 Z" fill="#000000" fill-rule="nonzero" fill-opacity="1" /><path clip-path="url(#clip310)" d="M83.0984 1457.12 L87.9827 1457.12 L87.9827 1463 L83.0984 1463 L83.0984 1457.12 Z" fill="#000000" fill-rule="nonzero" fill-opacity="1" /><path clip-path="url(#clip310)" d="M108.168 1431.51 Q104.557 1431.51 102.728 1435.08 Q100.922 1438.62 100.922 1445.75 Q100.922 1452.86 102.728 1456.42 Q104.557 1459.96 108.168 1459.96 Q111.802 1459.96 113.608 1456.42 Q115.436 1452.86 115.436 1445.75 Q115.436 1438.62 113.608 1435.08 Q111.802 1431.51 108.168 1431.51 M108.168 1427.81 Q113.978 1427.81 117.033 1432.42 Q120.112 1437 120.112 1445.75 Q120.112 1454.48 117.033 1459.08 Q113.978 1463.67 108.168 1463.67 Q102.358 1463.67 99.2789 1459.08 Q96.2234 1454.48 96.2234 1445.75 Q96.2234 1437 99.2789 1432.42 Q102.358 1427.81 108.168 1427.81 Z" fill="#000000" fill-rule="nonzero" fill-opacity="1" /><path clip-path="url(#clip310)" d="M138.33 1431.51 Q134.719 1431.51 132.89 1435.08 Q131.084 1438.62 131.084 1445.75 Q131.084 1452.86 132.89 1456.42 Q134.719 1459.96 138.33 1459.96 Q141.964 1459.96 143.769 1456.42 Q145.598 1452.86 145.598 1445.75 Q145.598 1438.62 143.769 1435.08 Q141.964 1431.51 138.33 1431.51 M138.33 1427.81 Q144.14 1427.81 147.195 1432.42 Q150.274 1437 150.274 1445.75 Q150.274 1454.48 147.195 1459.08 Q144.14 1463.67 138.33 1463.67 Q132.519 1463.67 129.441 1459.08 Q126.385 1454.48 126.385 1445.75 Q126.385 1437 129.441 1432.42 Q132.519 1427.81 138.33 1427.81 Z" fill="#000000" fill-rule="nonzero" fill-opacity="1" /><path clip-path="url(#clip310)" d="M168.491 1431.51 Q164.88 1431.51 163.052 1435.08 Q161.246 1438.62 161.246 1445.75 Q161.246 1452.86 163.052 1456.42 Q164.88 1459.96 168.491 1459.96 Q172.126 1459.96 173.931 1456.42 Q175.76 1452.86 175.76 1445.75 Q175.76 1438.62 173.931 1435.08 Q172.126 1431.51 168.491 1431.51 M168.491 1427.81 Q174.302 1427.81 177.357 1432.42 Q180.436 1437 180.436 1445.75 Q180.436 1454.48 177.357 1459.08 Q174.302 1463.67 168.491 1463.67 Q162.681 1463.67 159.603 1459.08 Q156.547 1454.48 156.547 1445.75 Q156.547 1437 159.603 1432.42 Q162.681 1427.81 168.491 1427.81 Z" fill="#000000" fill-rule="nonzero" fill-opacity="1" /><path clip-path="url(#clip310)" d="M63.9319 1121.06 Q60.3208 1121.06 58.4921 1124.62 Q56.6865 1128.16 56.6865 1135.29 Q56.6865 1142.4 58.4921 1145.96 Q60.3208 1149.5 63.9319 1149.5 Q67.5661 1149.5 69.3717 1145.96 Q71.2004 1142.4 71.2004 1135.29 Q71.2004 1128.16 69.3717 1124.62 Q67.5661 1121.06 63.9319 1121.06 M63.9319 1117.35 Q69.742 1117.35 72.7976 1121.96 Q75.8763 1126.54 75.8763 1135.29 Q75.8763 1144.02 72.7976 1148.63 Q69.742 1153.21 63.9319 1153.21 Q58.1217 1153.21 55.043 1148.63 Q51.9875 1144.02 51.9875 1135.29 Q51.9875 1126.54 55.043 1121.96 Q58.1217 1117.35 63.9319 1117.35 Z" fill="#000000" fill-rule="nonzero" fill-opacity="1" /><path clip-path="url(#clip310)" d="M84.0938 1146.66 L88.978 1146.66 L88.978 1152.54 L84.0938 1152.54 L84.0938 1146.66 Z" fill="#000000" fill-rule="nonzero" fill-opacity="1" /><path clip-path="url(#clip310)" d="M109.163 1121.06 Q105.552 1121.06 103.723 1124.62 Q101.918 1128.16 101.918 1135.29 Q101.918 1142.4 103.723 1145.96 Q105.552 1149.5 109.163 1149.5 Q112.797 1149.5 114.603 1145.96 Q116.432 1142.4 116.432 1135.29 Q116.432 1128.16 114.603 1124.62 Q112.797 1121.06 109.163 1121.06 M109.163 1117.35 Q114.973 1117.35 118.029 1121.96 Q121.107 1126.54 121.107 1135.29 Q121.107 1144.02 118.029 1148.63 Q114.973 1153.21 109.163 1153.21 Q103.353 1153.21 100.274 1148.63 Q97.2187 1144.02 97.2187 1135.29 Q97.2187 1126.54 100.274 1121.96 Q103.353 1117.35 109.163 1117.35 Z" fill="#000000" fill-rule="nonzero" fill-opacity="1" /><path clip-path="url(#clip310)" d="M133.353 1148.6 L149.672 1148.6 L149.672 1152.54 L127.728 1152.54 L127.728 1148.6 Q130.39 1145.85 134.973 1141.22 Q139.58 1136.57 140.76 1135.22 Q143.006 1132.7 143.885 1130.96 Q144.788 1129.2 144.788 1127.51 Q144.788 1124.76 142.843 1123.02 Q140.922 1121.29 137.82 1121.29 Q135.621 1121.29 133.168 1122.05 Q130.737 1122.82 127.959 1124.37 L127.959 1119.64 Q130.783 1118.51 133.237 1117.93 Q135.691 1117.35 137.728 1117.35 Q143.098 1117.35 146.293 1120.04 Q149.487 1122.72 149.487 1127.21 Q149.487 1129.34 148.677 1131.26 Q147.89 1133.16 145.783 1135.75 Q145.205 1136.43 142.103 1139.64 Q139.001 1142.84 133.353 1148.6 Z" fill="#000000" fill-rule="nonzero" fill-opacity="1" /><path clip-path="url(#clip310)" d="M159.533 1117.98 L177.89 1117.98 L177.89 1121.91 L163.816 1121.91 L163.816 1130.38 Q164.834 1130.04 165.853 1129.88 Q166.871 1129.69 167.89 1129.69 Q173.677 1129.69 177.056 1132.86 Q180.436 1136.03 180.436 1141.45 Q180.436 1147.03 176.964 1150.13 Q173.491 1153.21 167.172 1153.21 Q164.996 1153.21 162.728 1152.84 Q160.482 1152.47 158.075 1151.73 L158.075 1147.03 Q160.158 1148.16 162.38 1148.72 Q164.603 1149.27 167.079 1149.27 Q171.084 1149.27 173.422 1147.17 Q175.76 1145.06 175.76 1141.45 Q175.76 1137.84 173.422 1135.73 Q171.084 1133.63 167.079 1133.63 Q165.204 1133.63 163.329 1134.04 Q161.478 1134.46 159.533 1135.34 L159.533 1117.98 Z" fill="#000000" fill-rule="nonzero" fill-opacity="1" /><path clip-path="url(#clip310)" d="M62.9365 810.598 Q59.3254 810.598 57.4967 814.162 Q55.6912 817.704 55.6912 824.834 Q55.6912 831.94 57.4967 835.505 Q59.3254 839.046 62.9365 839.046 Q66.5707 839.046 68.3763 835.505 Q70.205 831.94 70.205 824.834 Q70.205 817.704 68.3763 814.162 Q66.5707 810.598 62.9365 810.598 M62.9365 806.894 Q68.7467 806.894 71.8022 811.5 Q74.8809 816.084 74.8809 824.834 Q74.8809 833.56 71.8022 838.167 Q68.7467 842.75 62.9365 842.75 Q57.1264 842.75 54.0477 838.167 Q50.9921 833.56 50.9921 824.834 Q50.9921 816.084 54.0477 811.5 Q57.1264 806.894 62.9365 806.894 Z" fill="#000000" fill-rule="nonzero" fill-opacity="1" /><path clip-path="url(#clip310)" d="M83.0984 836.199 L87.9827 836.199 L87.9827 842.079 L83.0984 842.079 L83.0984 836.199 Z" fill="#000000" fill-rule="nonzero" fill-opacity="1" /><path clip-path="url(#clip310)" d="M108.168 810.598 Q104.557 810.598 102.728 814.162 Q100.922 817.704 100.922 824.834 Q100.922 831.94 102.728 835.505 Q104.557 839.046 108.168 839.046 Q111.802 839.046 113.608 835.505 Q115.436 831.94 115.436 824.834 Q115.436 817.704 113.608 814.162 Q111.802 810.598 108.168 810.598 M108.168 806.894 Q113.978 806.894 117.033 811.5 Q120.112 816.084 120.112 824.834 Q120.112 833.56 117.033 838.167 Q113.978 842.75 108.168 842.75 Q102.358 842.75 99.2789 838.167 Q96.2234 833.56 96.2234 824.834 Q96.2234 816.084 99.2789 811.5 Q102.358 806.894 108.168 806.894 Z" fill="#000000" fill-rule="nonzero" fill-opacity="1" /><path clip-path="url(#clip310)" d="M128.376 807.519 L146.732 807.519 L146.732 811.454 L132.658 811.454 L132.658 819.926 Q133.677 819.579 134.695 819.417 Q135.714 819.232 136.732 819.232 Q142.519 819.232 145.899 822.403 Q149.279 825.574 149.279 830.991 Q149.279 836.57 145.806 839.671 Q142.334 842.75 136.015 842.75 Q133.839 842.75 131.57 842.38 Q129.325 842.009 126.918 841.269 L126.918 836.57 Q129.001 837.704 131.223 838.259 Q133.445 838.815 135.922 838.815 Q139.927 838.815 142.265 836.708 Q144.603 834.602 144.603 830.991 Q144.603 827.38 142.265 825.273 Q139.927 823.167 135.922 823.167 Q134.047 823.167 132.172 823.584 Q130.32 824 128.376 824.88 L128.376 807.519 Z" fill="#000000" fill-rule="nonzero" fill-opacity="1" /><path clip-path="url(#clip310)" d="M168.491 810.598 Q164.88 810.598 163.052 814.162 Q161.246 817.704 161.246 824.834 Q161.246 831.94 163.052 835.505 Q164.88 839.046 168.491 839.046 Q172.126 839.046 173.931 835.505 Q175.76 831.94 175.76 824.834 Q175.76 817.704 173.931 814.162 Q172.126 810.598 168.491 810.598 M168.491 806.894 Q174.302 806.894 177.357 811.5 Q180.436 816.084 180.436 824.834 Q180.436 833.56 177.357 838.167 Q174.302 842.75 168.491 842.75 Q162.681 842.75 159.603 838.167 Q156.547 833.56 156.547 824.834 Q156.547 816.084 159.603 811.5 Q162.681 806.894 168.491 806.894 Z" fill="#000000" fill-rule="nonzero" fill-opacity="1" /><path clip-path="url(#clip310)" d="M63.9319 500.139 Q60.3208 500.139 58.4921 503.704 Q56.6865 507.246 56.6865 514.375 Q56.6865 521.482 58.4921 525.046 Q60.3208 528.588 63.9319 528.588 Q67.5661 528.588 69.3717 525.046 Q71.2004 521.482 71.2004 514.375 Q71.2004 507.246 69.3717 503.704 Q67.5661 500.139 63.9319 500.139 M63.9319 496.435 Q69.742 496.435 72.7976 501.042 Q75.8763 505.625 75.8763 514.375 Q75.8763 523.102 72.7976 527.708 Q69.742 532.292 63.9319 532.292 Q58.1217 532.292 55.043 527.708 Q51.9875 523.102 51.9875 514.375 Q51.9875 505.625 55.043 501.042 Q58.1217 496.435 63.9319 496.435 Z" fill="#000000" fill-rule="nonzero" fill-opacity="1" /><path clip-path="url(#clip310)" d="M84.0938 525.741 L88.978 525.741 L88.978 531.62 L84.0938 531.62 L84.0938 525.741 Z" fill="#000000" fill-rule="nonzero" fill-opacity="1" /><path clip-path="url(#clip310)" d="M109.163 500.139 Q105.552 500.139 103.723 503.704 Q101.918 507.246 101.918 514.375 Q101.918 521.482 103.723 525.046 Q105.552 528.588 109.163 528.588 Q112.797 528.588 114.603 525.046 Q116.432 521.482 116.432 514.375 Q116.432 507.246 114.603 503.704 Q112.797 500.139 109.163 500.139 M109.163 496.435 Q114.973 496.435 118.029 501.042 Q121.107 505.625 121.107 514.375 Q121.107 523.102 118.029 527.708 Q114.973 532.292 109.163 532.292 Q103.353 532.292 100.274 527.708 Q97.2187 523.102 97.2187 514.375 Q97.2187 505.625 100.274 501.042 Q103.353 496.435 109.163 496.435 Z" fill="#000000" fill-rule="nonzero" fill-opacity="1" /><path clip-path="url(#clip310)" d="M128.144 497.06 L150.367 497.06 L150.367 499.051 L137.82 531.62 L132.936 531.62 L144.742 500.996 L128.144 500.996 L128.144 497.06 Z" fill="#000000" fill-rule="nonzero" fill-opacity="1" /><path clip-path="url(#clip310)" d="M159.533 497.06 L177.89 497.06 L177.89 500.996 L163.816 500.996 L163.816 509.468 Q164.834 509.121 165.853 508.958 Q166.871 508.773 167.89 508.773 Q173.677 508.773 177.056 511.945 Q180.436 515.116 180.436 520.533 Q180.436 526.111 176.964 529.213 Q173.491 532.292 167.172 532.292 Q164.996 532.292 162.728 531.921 Q160.482 531.551 158.075 530.81 L158.075 526.111 Q160.158 527.245 162.38 527.801 Q164.603 528.357 167.079 528.357 Q171.084 528.357 173.422 526.25 Q175.76 524.144 175.76 520.533 Q175.76 516.921 173.422 514.815 Q171.084 512.708 167.079 512.708 Q165.204 512.708 163.329 513.125 Q161.478 513.542 159.533 514.421 L159.533 497.06 Z" fill="#000000" fill-rule="nonzero" fill-opacity="1" /><path clip-path="url(#clip310)" d="M62.9365 189.681 Q59.3254 189.681 57.4967 193.245 Q55.6912 196.787 55.6912 203.917 Q55.6912 211.023 57.4967 214.588 Q59.3254 218.13 62.9365 218.13 Q66.5707 218.13 68.3763 214.588 Q70.205 211.023 70.205 203.917 Q70.205 196.787 68.3763 193.245 Q66.5707 189.681 62.9365 189.681 M62.9365 185.977 Q68.7467 185.977 71.8022 190.583 Q74.8809 195.167 74.8809 203.917 Q74.8809 212.644 71.8022 217.25 Q68.7467 221.833 62.9365 221.833 Q57.1264 221.833 54.0477 217.25 Q50.9921 212.644 50.9921 203.917 Q50.9921 195.167 54.0477 190.583 Q57.1264 185.977 62.9365 185.977 Z" fill="#000000" fill-rule="nonzero" fill-opacity="1" /><path clip-path="url(#clip310)" d="M83.0984 215.282 L87.9827 215.282 L87.9827 221.162 L83.0984 221.162 L83.0984 215.282 Z" fill="#000000" fill-rule="nonzero" fill-opacity="1" /><path clip-path="url(#clip310)" d="M98.978 217.227 L106.617 217.227 L106.617 190.861 L98.3067 192.528 L98.3067 188.269 L106.571 186.602 L111.246 186.602 L111.246 217.227 L118.885 217.227 L118.885 221.162 L98.978 221.162 L98.978 217.227 Z" fill="#000000" fill-rule="nonzero" fill-opacity="1" /><path clip-path="url(#clip310)" d="M138.33 189.681 Q134.719 189.681 132.89 193.245 Q131.084 196.787 131.084 203.917 Q131.084 211.023 132.89 214.588 Q134.719 218.13 138.33 218.13 Q141.964 218.13 143.769 214.588 Q145.598 211.023 145.598 203.917 Q145.598 196.787 143.769 193.245 Q141.964 189.681 138.33 189.681 M138.33 185.977 Q144.14 185.977 147.195 190.583 Q150.274 195.167 150.274 203.917 Q150.274 212.644 147.195 217.25 Q144.14 221.833 138.33 221.833 Q132.519 221.833 129.441 217.25 Q126.385 212.644 126.385 203.917 Q126.385 195.167 129.441 190.583 Q132.519 185.977 138.33 185.977 Z" fill="#000000" fill-rule="nonzero" fill-opacity="1" /><path clip-path="url(#clip310)" d="M168.491 189.681 Q164.88 189.681 163.052 193.245 Q161.246 196.787 161.246 203.917 Q161.246 211.023 163.052 214.588 Q164.88 218.13 168.491 218.13 Q172.126 218.13 173.931 214.588 Q175.76 211.023 175.76 203.917 Q175.76 196.787 173.931 193.245 Q172.126 189.681 168.491 189.681 M168.491 185.977 Q174.302 185.977 177.357 190.583 Q180.436 195.167 180.436 203.917 Q180.436 212.644 177.357 217.25 Q174.302 221.833 168.491 221.833 Q162.681 221.833 159.603 217.25 Q156.547 212.644 156.547 203.917 Q156.547 195.167 159.603 190.583 Q162.681 185.977 168.491 185.977 Z" fill="#000000" fill-rule="nonzero" fill-opacity="1" /><polyline clip-path="url(#clip312)" style="stroke:#009af9; stroke-linecap:round; stroke-linejoin:round; stroke-width:4; stroke-opacity:1; fill:none" points="276.898,1445.72 308.888,1444.23 340.879,1443.09 372.869,1440.21 404.859,1434.96 436.85,1427.12 468.84,1416.64 500.831,1403.58 532.821,1388.21 564.812,1370.94 596.802,1352.28 628.792,1332.7 660.783,1312.57 692.773,1292.15 724.764,1271.55 756.754,1250.86 788.744,1230.09 820.735,1209.23 852.725,1188.28 884.716,1167.23 916.706,1146.07 948.697,1124.78 980.687,1103.37 1012.68,1081.81 1044.67,1060.11 1076.66,1038.25 1108.65,1016.25 1140.64,994.08 1172.63,971.752 1204.62,949.258 1236.61,926.598 1268.6,903.77 1300.59,880.774 1332.58,857.608 1364.57,834.274 1396.56,810.77 1428.55,787.097 1460.54,763.254 1492.53,739.242 1524.52,715.062 1556.51,690.713 1588.5,666.196 1620.5,641.513 1652.49,616.664 1684.48,591.652 1716.47,566.477 1748.46,541.141 1780.45,515.647 1812.44,489.996 1844.43,464.191 1876.42,438.234 1908.41,412.126 1940.4,385.871 1972.39,359.47 2004.38,332.926 2036.37,306.241 2068.36,279.417 2100.35,252.458 2132.34,225.365 2164.33,198.14 2196.32,170.787 2228.31,143.307 2260.3,115.703 2292.29,87.9763 "/>
<path clip-path="url(#clip310)" d="M287.647 198.898 L553.709 198.898 L553.709 95.2176 L287.647 95.2176  Z" fill="#ffffff" fill-rule="evenodd" fill-opacity="1"/>
<polyline clip-path="url(#clip310)" style="stroke:#000000; stroke-linecap:round; stroke-linejoin:round; stroke-width:4; stroke-opacity:1; fill:none" points="287.647,198.898 553.709,198.898 553.709,95.2176 287.647,95.2176 287.647,198.898 "/>
<polyline clip-path="url(#clip310)" style="stroke:#009af9; stroke-linecap:round; stroke-linejoin:round; stroke-width:4; stroke-opacity:1; fill:none" points="311.383,147.058 453.805,147.058 "/>
<path clip-path="url(#clip310)" d="M491.384 166.745 Q489.579 171.375 487.866 172.787 Q486.153 174.199 483.282 174.199 L479.88 174.199 L479.88 170.634 L482.38 170.634 Q484.139 170.634 485.111 169.8 Q486.083 168.967 487.264 165.865 L488.028 163.921 L477.542 138.412 L482.056 138.412 L490.157 158.689 L498.259 138.412 L502.773 138.412 L491.384 166.745 Z" fill="#000000" fill-rule="nonzero" fill-opacity="1" /><path clip-path="url(#clip310)" d="M510.065 160.402 L517.703 160.402 L517.703 134.037 L509.393 135.703 L509.393 131.444 L517.657 129.778 L522.333 129.778 L522.333 160.402 L529.972 160.402 L529.972 164.338 L510.065 164.338 L510.065 160.402 Z" fill="#000000" fill-rule="nonzero" fill-opacity="1" /></svg>
