<?xml version="1.0" encoding="utf-8"?>
<svg xmlns="http://www.w3.org/2000/svg" xmlns:xlink="http://www.w3.org/1999/xlink" width="600" height="400" viewBox="0 0 2400 1600">
<defs>
  <clipPath id="clip140">
    <rect x="0" y="0" width="2400" height="1600"/>
  </clipPath>
</defs>
<path clip-path="url(#clip140)" d="M0 1600 L2400 1600 L2400 0 L0 0  Z" fill="#ffffff" fill-rule="evenodd" fill-opacity="1"/>
<defs>
  <clipPath id="clip141">
    <rect x="480" y="0" width="1681" height="1600"/>
  </clipPath>
</defs>
<path clip-path="url(#clip140)" d="M147.639 1486.45 L2352.76 1486.45 L2352.76 47.2441 L147.639 47.2441  Z" fill="#ffffff" fill-rule="evenodd" fill-opacity="1"/>
<defs>
  <clipPath id="clip142">
    <rect x="147" y="47" width="2206" height="1440"/>
  </clipPath>
</defs>
<polyline clip-path="url(#clip142)" style="stroke:#000000; stroke-linecap:round; stroke-linejoin:round; stroke-width:2; stroke-opacity:0.1; fill:none" points="176.495,1486.45 176.495,47.2441 "/>
<polyline clip-path="url(#clip142)" style="stroke:#000000; stroke-linecap:round; stroke-linejoin:round; stroke-width:2; stroke-opacity:0.1; fill:none" points="512.027,1486.45 512.027,47.2441 "/>
<polyline clip-path="url(#clip142)" style="stroke:#000000; stroke-linecap:round; stroke-linejoin:round; stroke-width:2; stroke-opacity:0.1; fill:none" points="847.559,1486.45 847.559,47.2441 "/>
<polyline clip-path="url(#clip142)" style="stroke:#000000; stroke-linecap:round; stroke-linejoin:round; stroke-width:2; stroke-opacity:0.1; fill:none" points="1183.09,1486.45 1183.09,47.2441 "/>
<polyline clip-path="url(#clip142)" style="stroke:#000000; stroke-linecap:round; stroke-linejoin:round; stroke-width:2; stroke-opacity:0.1; fill:none" points="1518.62,1486.45 1518.62,47.2441 "/>
<polyline clip-path="url(#clip142)" style="stroke:#000000; stroke-linecap:round; stroke-linejoin:round; stroke-width:2; stroke-opacity:0.1; fill:none" points="1854.16,1486.45 1854.16,47.2441 "/>
<polyline clip-path="url(#clip142)" style="stroke:#000000; stroke-linecap:round; stroke-linejoin:round; stroke-width:2; stroke-opacity:0.1; fill:none" points="2189.69,1486.45 2189.69,47.2441 "/>
<polyline clip-path="url(#clip140)" style="stroke:#000000; stroke-linecap:round; stroke-linejoin:round; stroke-width:4; stroke-opacity:1; fill:none" points="147.639,1486.45 2352.76,1486.45 "/>
<polyline clip-path="url(#clip140)" style="stroke:#000000; stroke-linecap:round; stroke-linejoin:round; stroke-width:4; stroke-opacity:1; fill:none" points="176.495,1486.45 176.495,1467.55 "/>
<polyline clip-path="url(#clip140)" style="stroke:#000000; stroke-linecap:round; stroke-linejoin:round; stroke-width:4; stroke-opacity:1; fill:none" points="512.027,1486.45 512.027,1467.55 "/>
<polyline clip-path="url(#clip140)" style="stroke:#000000; stroke-linecap:round; stroke-linejoin:round; stroke-width:4; stroke-opacity:1; fill:none" points="847.559,1486.45 847.559,1467.55 "/>
<polyline clip-path="url(#clip140)" style="stroke:#000000; stroke-linecap:round; stroke-linejoin:round; stroke-width:4; stroke-opacity:1; fill:none" points="1183.09,1486.45 1183.09,1467.55 "/>
<polyline clip-path="url(#clip140)" style="stroke:#000000; stroke-linecap:round; stroke-linejoin:round; stroke-width:4; stroke-opacity:1; fill:none" points="1518.62,1486.45 1518.62,1467.55 "/>
<polyline clip-path="url(#clip140)" style="stroke:#000000; stroke-linecap:round; stroke-linejoin:round; stroke-width:4; stroke-opacity:1; fill:none" points="1854.16,1486.45 1854.16,1467.55 "/>
<polyline clip-path="url(#clip140)" style="stroke:#000000; stroke-linecap:round; stroke-linejoin:round; stroke-width:4; stroke-opacity:1; fill:none" points="2189.69,1486.45 2189.69,1467.55 "/>
<path clip-path="url(#clip140)" d="M165.847 1532.67 Q165.847 1525.23 167.725 1521.18 Q170.343 1515.15 176.519 1515.15 Q177.829 1515.15 179.187 1515.52 Q180.571 1515.87 182.3 1517.23 Q184.054 1518.59 185.116 1520.81 Q187.142 1525.11 187.142 1532.67 Q187.142 1540.05 185.264 1544.08 Q182.522 1549.96 176.47 1549.96 Q174.197 1549.96 171.875 1548.8 Q169.578 1547.64 168.12 1544.85 Q165.847 1540.67 165.847 1532.67 M170.047 1532.05 Q170.047 1539.68 170.591 1542.72 Q171.208 1546.01 172.888 1547.44 Q174.592 1548.85 176.47 1548.85 Q178.496 1548.85 180.175 1547.34 Q181.88 1545.81 182.399 1542.52 Q182.967 1539.29 182.942 1532.05 Q182.942 1525.01 182.448 1522.19 Q181.781 1518.91 180.003 1517.6 Q178.249 1516.26 176.47 1516.26 Q175.803 1516.26 175.087 1516.46 Q174.395 1516.66 173.382 1517.23 Q172.369 1517.8 171.579 1519.2 Q170.813 1520.61 170.442 1522.74 Q170.047 1525.48 170.047 1532.05 Z" fill="#000000" fill-rule="nonzero" fill-opacity="1" /><path clip-path="url(#clip140)" d="M489.991 1519.97 L489.991 1518.39 Q496.068 1518.39 499.206 1515.15 Q500.07 1515.15 500.219 1515.35 Q500.367 1515.55 500.367 1516.46 L500.367 1544.85 Q500.367 1546.35 501.108 1546.82 Q501.849 1547.29 505.085 1547.29 L506.691 1547.29 L506.691 1548.85 Q504.912 1548.7 498.489 1548.7 Q492.066 1548.7 490.312 1548.85 L490.312 1547.29 L491.918 1547.29 Q495.105 1547.29 495.871 1546.85 Q496.637 1546.38 496.637 1544.85 L496.637 1518.64 Q493.993 1519.97 489.991 1519.97 Z" fill="#000000" fill-rule="nonzero" fill-opacity="1" /><path clip-path="url(#clip140)" d="M512.768 1532.67 Q512.768 1525.23 514.645 1521.18 Q517.264 1515.15 523.44 1515.15 Q524.749 1515.15 526.108 1515.52 Q527.491 1515.87 529.22 1517.23 Q530.974 1518.59 532.036 1520.81 Q534.062 1525.11 534.062 1532.67 Q534.062 1540.05 532.185 1544.08 Q529.443 1549.96 523.39 1549.96 Q521.118 1549.96 518.795 1548.8 Q516.498 1547.64 515.041 1544.85 Q512.768 1540.67 512.768 1532.67 M516.967 1532.05 Q516.967 1539.68 517.511 1542.72 Q518.128 1546.01 519.808 1547.44 Q521.513 1548.85 523.39 1548.85 Q525.416 1548.85 527.096 1547.34 Q528.8 1545.81 529.319 1542.52 Q529.887 1539.29 529.863 1532.05 Q529.863 1525.01 529.369 1522.19 Q528.702 1518.91 526.923 1517.6 Q525.169 1516.26 523.39 1516.26 Q522.723 1516.26 522.007 1516.46 Q521.315 1516.66 520.302 1517.23 Q519.29 1517.8 518.499 1519.2 Q517.733 1520.61 517.363 1522.74 Q516.967 1525.48 516.967 1532.05 Z" fill="#000000" fill-rule="nonzero" fill-opacity="1" /><path clip-path="url(#clip140)" d="M824.535 1548.85 Q824.535 1547.93 824.609 1547.66 Q824.708 1547.39 825.104 1546.97 L834.812 1536.15 Q840.123 1530.17 840.123 1524.96 Q840.123 1521.58 838.345 1519.15 Q836.591 1516.73 833.354 1516.73 Q831.131 1516.73 829.254 1518.09 Q827.376 1519.45 826.512 1521.87 Q826.66 1521.82 827.179 1521.82 Q828.438 1521.82 829.13 1522.61 Q829.847 1523.4 829.847 1524.47 Q829.847 1525.82 828.957 1526.49 Q828.093 1527.13 827.228 1527.13 Q826.882 1527.13 826.413 1527.06 Q825.968 1526.99 825.252 1526.29 Q824.535 1525.58 824.535 1524.32 Q824.535 1520.78 827.203 1517.97 Q829.896 1515.15 833.997 1515.15 Q838.641 1515.15 841.679 1517.92 Q844.743 1520.66 844.743 1524.96 Q844.743 1526.47 844.273 1527.85 Q843.829 1529.21 843.211 1530.27 Q842.618 1531.33 840.988 1533.04 Q839.357 1534.74 838.048 1535.95 Q836.739 1537.16 833.799 1539.73 L828.438 1544.94 L837.554 1544.94 Q842.001 1544.94 842.346 1544.55 Q842.841 1543.83 843.458 1540.05 L844.743 1540.05 L843.31 1548.85 L824.535 1548.85 Z" fill="#000000" fill-rule="nonzero" fill-opacity="1" /><path clip-path="url(#clip140)" d="M849.288 1532.67 Q849.288 1525.23 851.166 1521.18 Q853.784 1515.15 859.96 1515.15 Q861.269 1515.15 862.628 1515.52 Q864.011 1515.87 865.741 1517.23 Q867.494 1518.59 868.557 1520.81 Q870.582 1525.11 870.582 1532.67 Q870.582 1540.05 868.705 1544.08 Q865.963 1549.96 859.911 1549.96 Q857.638 1549.96 855.316 1548.8 Q853.018 1547.64 851.561 1544.85 Q849.288 1540.67 849.288 1532.67 M853.488 1532.05 Q853.488 1539.68 854.031 1542.72 Q854.649 1546.01 856.329 1547.44 Q858.033 1548.85 859.911 1548.85 Q861.936 1548.85 863.616 1547.34 Q865.321 1545.81 865.839 1542.52 Q866.408 1539.29 866.383 1532.05 Q866.383 1525.01 865.889 1522.19 Q865.222 1518.91 863.443 1517.6 Q861.689 1516.26 859.911 1516.26 Q859.244 1516.26 858.527 1516.46 Q857.835 1516.66 856.823 1517.23 Q855.81 1517.8 855.019 1519.2 Q854.253 1520.61 853.883 1522.74 Q853.488 1525.48 853.488 1532.05 Z" fill="#000000" fill-rule="nonzero" fill-opacity="1" /><path clip-path="url(#clip140)" d="M1159.87 1542.03 Q1159.87 1540.52 1160.73 1539.81 Q1161.6 1539.09 1162.71 1539.09 Q1163.87 1539.09 1164.69 1539.86 Q1165.53 1540.6 1165.53 1541.91 Q1165.53 1543.31 1164.54 1544.1 Q1163.58 1544.9 1162.19 1544.7 Q1163.4 1546.72 1165.63 1547.64 Q1167.87 1548.55 1169.95 1548.55 Q1172.12 1548.55 1173.88 1546.67 Q1175.66 1544.8 1175.66 1540.2 Q1175.66 1536.3 1174.12 1534.05 Q1172.62 1531.8 1169.63 1531.8 L1167.4 1531.8 Q1166.64 1531.8 1166.42 1531.73 Q1166.19 1531.65 1166.19 1531.23 Q1166.19 1530.74 1166.96 1530.64 Q1167.73 1530.64 1168.94 1530.49 Q1171.88 1530.39 1173.43 1527.85 Q1174.84 1525.48 1174.84 1522.09 Q1174.84 1519.01 1173.36 1517.72 Q1171.9 1516.41 1170 1516.41 Q1168.22 1516.41 1166.27 1517.15 Q1164.32 1517.89 1163.25 1519.55 Q1166.39 1519.55 1166.39 1522.09 Q1166.39 1523.21 1165.68 1523.95 Q1164.98 1524.66 1163.82 1524.66 Q1162.71 1524.66 1161.97 1523.97 Q1161.23 1523.26 1161.23 1522.04 Q1161.23 1519.15 1163.8 1517.15 Q1166.39 1515.15 1170.2 1515.15 Q1173.95 1515.15 1176.72 1517.13 Q1179.51 1519.11 1179.51 1522.14 Q1179.51 1525.13 1177.53 1527.58 Q1175.56 1530.02 1172.42 1531.04 Q1176.27 1531.8 1178.57 1534.42 Q1180.87 1537.01 1180.87 1540.2 Q1180.87 1544.15 1177.76 1547.07 Q1174.64 1549.96 1170.1 1549.96 Q1165.9 1549.96 1162.88 1547.69 Q1159.87 1545.41 1159.87 1542.03 Z" fill="#000000" fill-rule="nonzero" fill-opacity="1" /><path clip-path="url(#clip140)" d="M1185.02 1532.67 Q1185.02 1525.23 1186.9 1521.18 Q1189.51 1515.15 1195.69 1515.15 Q1197 1515.15 1198.36 1515.52 Q1199.74 1515.87 1201.47 1517.23 Q1203.22 1518.59 1204.29 1520.81 Q1206.31 1525.11 1206.31 1532.67 Q1206.31 1540.05 1204.43 1544.08 Q1201.69 1549.96 1195.64 1549.96 Q1193.37 1549.96 1191.05 1548.8 Q1188.75 1547.64 1187.29 1544.85 Q1185.02 1540.67 1185.02 1532.67 M1189.22 1532.05 Q1189.22 1539.68 1189.76 1542.72 Q1190.38 1546.01 1192.06 1547.44 Q1193.76 1548.85 1195.64 1548.85 Q1197.67 1548.85 1199.35 1547.34 Q1201.05 1545.81 1201.57 1542.52 Q1202.14 1539.29 1202.11 1532.05 Q1202.11 1525.01 1201.62 1522.19 Q1200.95 1518.91 1199.17 1517.6 Q1197.42 1516.26 1195.64 1516.26 Q1194.97 1516.26 1194.26 1516.46 Q1193.57 1516.66 1192.55 1517.23 Q1191.54 1517.8 1190.75 1519.2 Q1189.98 1520.61 1189.61 1522.74 Q1189.22 1525.48 1189.22 1532.05 Z" fill="#000000" fill-rule="nonzero" fill-opacity="1" /><path clip-path="url(#clip140)" d="M1495.04 1540.5 L1495.04 1538.94 L1510.58 1515.2 Q1510.98 1514.58 1511.59 1514.61 Q1512.16 1514.61 1512.29 1514.83 Q1512.41 1515.05 1512.41 1515.92 L1512.41 1538.94 L1517.47 1538.94 L1517.47 1540.5 L1512.41 1540.5 L1512.41 1544.9 Q1512.41 1546.35 1513 1546.82 Q1513.62 1547.29 1516.24 1547.29 L1517.3 1547.29 L1517.3 1548.85 Q1515.23 1548.7 1510.43 1548.7 Q1505.67 1548.7 1503.59 1548.85 L1503.59 1547.29 L1504.65 1547.29 Q1507.27 1547.29 1507.89 1546.85 Q1508.51 1546.38 1508.51 1544.9 L1508.51 1540.5 L1495.04 1540.5 M1496.48 1538.94 L1508.8 1538.94 L1508.8 1520.07 L1496.48 1538.94 Z" fill="#000000" fill-rule="nonzero" fill-opacity="1" /><path clip-path="url(#clip140)" d="M1520.91 1532.67 Q1520.91 1525.23 1522.79 1521.18 Q1525.4 1515.15 1531.58 1515.15 Q1532.89 1515.15 1534.25 1515.52 Q1535.63 1515.87 1537.36 1517.23 Q1539.11 1518.59 1540.18 1520.81 Q1542.2 1525.11 1542.2 1532.67 Q1542.2 1540.05 1540.32 1544.08 Q1537.58 1549.96 1531.53 1549.96 Q1529.26 1549.96 1526.94 1548.8 Q1524.64 1547.64 1523.18 1544.85 Q1520.91 1540.67 1520.91 1532.67 M1525.11 1532.05 Q1525.11 1539.68 1525.65 1542.72 Q1526.27 1546.01 1527.95 1547.44 Q1529.65 1548.85 1531.53 1548.85 Q1533.56 1548.85 1535.24 1547.34 Q1536.94 1545.81 1537.46 1542.52 Q1538.03 1539.29 1538 1532.05 Q1538 1525.01 1537.51 1522.19 Q1536.84 1518.91 1535.06 1517.6 Q1533.31 1516.26 1531.53 1516.26 Q1530.86 1516.26 1530.15 1516.46 Q1529.46 1516.66 1528.44 1517.23 Q1527.43 1517.8 1526.64 1519.2 Q1525.87 1520.61 1525.5 1522.74 Q1525.11 1525.48 1525.11 1532.05 Z" fill="#000000" fill-rule="nonzero" fill-opacity="1" /><path clip-path="url(#clip140)" d="M1831.13 1540.7 Q1831.13 1539.19 1831.95 1538.62 Q1832.76 1538.03 1833.63 1538.03 Q1834.79 1538.03 1835.45 1538.77 Q1836.15 1539.49 1836.15 1540.5 Q1836.15 1541.51 1835.45 1542.25 Q1834.79 1542.97 1833.63 1542.97 Q1833.06 1542.97 1832.76 1542.87 Q1833.43 1545.19 1835.45 1546.87 Q1837.51 1548.55 1840.2 1548.55 Q1843.58 1548.55 1845.61 1545.27 Q1846.82 1543.14 1846.82 1538.32 Q1846.82 1534.08 1845.9 1531.95 Q1844.5 1528.71 1841.61 1528.71 Q1837.51 1528.71 1835.08 1532.25 Q1834.79 1532.69 1834.44 1532.72 Q1833.95 1532.72 1833.82 1532.44 Q1833.73 1532.15 1833.73 1531.38 L1833.73 1516.41 Q1833.73 1515.2 1834.22 1515.2 Q1834.42 1515.2 1834.84 1515.35 Q1838.02 1516.76 1841.56 1516.78 Q1845.19 1516.78 1848.45 1515.3 Q1848.7 1515.15 1848.84 1515.15 Q1849.34 1515.15 1849.36 1515.72 Q1849.36 1515.92 1848.94 1516.51 Q1848.55 1517.08 1847.68 1517.85 Q1846.82 1518.59 1845.71 1519.3 Q1844.59 1520.02 1842.96 1520.51 Q1841.36 1520.98 1839.58 1520.98 Q1837.46 1520.98 1835.28 1520.32 L1835.28 1530.17 Q1837.9 1527.6 1841.7 1527.6 Q1845.76 1527.6 1848.55 1530.86 Q1851.34 1534.12 1851.34 1538.67 Q1851.34 1543.44 1848.03 1546.7 Q1844.74 1549.96 1840.3 1549.96 Q1836.25 1549.96 1833.68 1547.07 Q1831.13 1544.18 1831.13 1540.7 Z" fill="#000000" fill-rule="nonzero" fill-opacity="1" /><path clip-path="url(#clip140)" d="M1855.88 1532.67 Q1855.88 1525.23 1857.76 1521.18 Q1860.38 1515.15 1866.56 1515.15 Q1867.87 1515.15 1869.22 1515.52 Q1870.61 1515.87 1872.34 1517.23 Q1874.09 1518.59 1875.15 1520.81 Q1877.18 1525.11 1877.18 1532.67 Q1877.18 1540.05 1875.3 1544.08 Q1872.56 1549.96 1866.51 1549.96 Q1864.23 1549.96 1861.91 1548.8 Q1859.61 1547.64 1858.16 1544.85 Q1855.88 1540.67 1855.88 1532.67 M1860.08 1532.05 Q1860.08 1539.68 1860.63 1542.72 Q1861.25 1546.01 1862.92 1547.44 Q1864.63 1548.85 1866.51 1548.85 Q1868.53 1548.85 1870.21 1547.34 Q1871.92 1545.81 1872.44 1542.52 Q1873 1539.29 1872.98 1532.05 Q1872.98 1525.01 1872.49 1522.19 Q1871.82 1518.91 1870.04 1517.6 Q1868.29 1516.26 1866.51 1516.26 Q1865.84 1516.26 1865.12 1516.46 Q1864.43 1516.66 1863.42 1517.23 Q1862.41 1517.8 1861.62 1519.2 Q1860.85 1520.61 1860.48 1522.74 Q1860.08 1525.48 1860.08 1532.05 Z" fill="#000000" fill-rule="nonzero" fill-opacity="1" /><path clip-path="url(#clip140)" d="M2166.47 1532.86 Q2166.47 1524.91 2170.52 1520.04 Q2174.57 1515.15 2179.78 1515.15 Q2182.82 1515.15 2184.5 1516.71 Q2186.2 1518.24 2186.2 1520.61 Q2186.2 1521.92 2185.44 1522.49 Q2184.67 1523.06 2183.88 1523.06 Q2182.97 1523.06 2182.25 1522.44 Q2181.54 1521.82 2181.54 1520.71 Q2181.54 1518.44 2184.33 1518.44 Q2183.02 1516.41 2179.88 1516.41 Q2178.92 1516.41 2177.93 1516.71 Q2176.94 1516.98 2175.66 1517.92 Q2174.37 1518.86 2173.38 1520.34 Q2172.39 1521.82 2171.7 1524.61 Q2171.01 1527.41 2171.01 1531.04 L2171.01 1532.25 Q2173.09 1527.23 2177.34 1527.26 Q2181.58 1527.26 2184.52 1530.49 Q2187.46 1533.73 2187.46 1538.52 Q2187.46 1543.44 2184.4 1546.7 Q2181.34 1549.96 2177.04 1549.96 Q2175.11 1549.96 2173.36 1549.14 Q2171.63 1548.35 2170 1546.53 Q2168.39 1544.7 2167.43 1541.19 Q2166.47 1537.68 2166.47 1532.86 M2171.11 1537.41 Q2171.11 1542.38 2172.02 1544.75 Q2172.17 1545.14 2172.49 1545.69 Q2172.84 1546.23 2173.41 1546.95 Q2174 1547.64 2174.96 1548.11 Q2175.93 1548.55 2177.04 1548.55 Q2180.42 1548.55 2182.05 1545.27 Q2182.92 1543.44 2182.92 1538.47 Q2182.92 1533.41 2182 1531.56 Q2180.45 1528.42 2177.29 1528.42 Q2175.16 1528.42 2173.68 1529.88 Q2172.22 1531.33 2171.65 1533.28 Q2171.11 1535.24 2171.11 1537.41 Z" fill="#000000" fill-rule="nonzero" fill-opacity="1" /><path clip-path="url(#clip140)" d="M2191.61 1532.67 Q2191.61 1525.23 2193.49 1521.18 Q2196.11 1515.15 2202.29 1515.15 Q2203.6 1515.15 2204.95 1515.52 Q2206.34 1515.87 2208.07 1517.23 Q2209.82 1518.59 2210.88 1520.81 Q2212.91 1525.11 2212.91 1532.67 Q2212.91 1540.05 2211.03 1544.08 Q2208.29 1549.96 2202.24 1549.96 Q2199.96 1549.96 2197.64 1548.8 Q2195.34 1547.64 2193.89 1544.85 Q2191.61 1540.67 2191.61 1532.67 M2195.81 1532.05 Q2195.81 1539.68 2196.36 1542.72 Q2196.97 1546.01 2198.65 1547.44 Q2200.36 1548.85 2202.24 1548.85 Q2204.26 1548.85 2205.94 1547.34 Q2207.65 1545.81 2208.17 1542.52 Q2208.73 1539.29 2208.71 1532.05 Q2208.71 1525.01 2208.21 1522.19 Q2207.55 1518.91 2205.77 1517.6 Q2204.02 1516.26 2202.24 1516.26 Q2201.57 1516.26 2200.85 1516.46 Q2200.16 1516.66 2199.15 1517.23 Q2198.14 1517.8 2197.35 1519.2 Q2196.58 1520.61 2196.21 1522.74 Q2195.81 1525.48 2195.81 1532.05 Z" fill="#000000" fill-rule="nonzero" fill-opacity="1" /><polyline clip-path="url(#clip142)" style="stroke:#000000; stroke-linecap:round; stroke-linejoin:round; stroke-width:2; stroke-opacity:0.1; fill:none" points="147.639,1445.72 2352.76,1445.72 "/>
<polyline clip-path="url(#clip142)" style="stroke:#000000; stroke-linecap:round; stroke-linejoin:round; stroke-width:2; stroke-opacity:0.1; fill:none" points="147.639,998.868 2352.76,998.868 "/>
<polyline clip-path="url(#clip142)" style="stroke:#000000; stroke-linecap:round; stroke-linejoin:round; stroke-width:2; stroke-opacity:0.1; fill:none" points="147.639,552.02 2352.76,552.02 "/>
<polyline clip-path="url(#clip142)" style="stroke:#000000; stroke-linecap:round; stroke-linejoin:round; stroke-width:2; stroke-opacity:0.1; fill:none" points="147.639,105.172 2352.76,105.172 "/>
<polyline clip-path="url(#clip140)" style="stroke:#000000; stroke-linecap:round; stroke-linejoin:round; stroke-width:4; stroke-opacity:1; fill:none" points="147.639,1486.45 147.639,47.2441 "/>
<polyline clip-path="url(#clip140)" style="stroke:#000000; stroke-linecap:round; stroke-linejoin:round; stroke-width:4; stroke-opacity:1; fill:none" points="147.639,1445.72 166.537,1445.72 "/>
<polyline clip-path="url(#clip140)" style="stroke:#000000; stroke-linecap:round; stroke-linejoin:round; stroke-width:4; stroke-opacity:1; fill:none" points="147.639,998.868 166.537,998.868 "/>
<polyline clip-path="url(#clip140)" style="stroke:#000000; stroke-linecap:round; stroke-linejoin:round; stroke-width:4; stroke-opacity:1; fill:none" points="147.639,552.02 166.537,552.02 "/>
<polyline clip-path="url(#clip140)" style="stroke:#000000; stroke-linecap:round; stroke-linejoin:round; stroke-width:4; stroke-opacity:1; fill:none" points="147.639,105.172 166.537,105.172 "/>
<path clip-path="url(#clip140)" d="M50.9921 1446.81 Q50.9921 1439.38 52.8696 1435.33 Q55.4881 1429.3 61.664 1429.3 Q62.9733 1429.3 64.3319 1429.67 Q65.7153 1430.02 67.4446 1431.38 Q69.1985 1432.73 70.2607 1434.96 Q72.2864 1439.26 72.2864 1446.81 Q72.2864 1454.2 70.409 1458.23 Q67.6669 1464.11 61.6146 1464.11 Q59.3419 1464.11 57.0197 1462.95 Q54.7223 1461.79 53.2648 1458.99 Q50.9921 1454.82 50.9921 1446.81 M55.1917 1446.2 Q55.1917 1453.83 55.7352 1456.87 Q56.3528 1460.15 58.0326 1461.59 Q59.7371 1463 61.6146 1463 Q63.6402 1463 65.3201 1461.49 Q67.0246 1459.96 67.5434 1456.67 Q68.1116 1453.44 68.0869 1446.2 Q68.0869 1439.16 67.5928 1436.34 Q66.9258 1433.06 65.1472 1431.75 Q63.3932 1430.41 61.6146 1430.41 Q60.9476 1430.41 60.2312 1430.61 Q59.5395 1430.81 58.5267 1431.38 Q57.5138 1431.94 56.7233 1433.35 Q55.9575 1434.76 55.587 1436.88 Q55.1917 1439.63 55.1917 1446.2 Z" fill="#000000" fill-rule="nonzero" fill-opacity="1" /><path clip-path="url(#clip140)" d="M79.3763 1462.18 Q78.6105 1461.37 78.6105 1460.3 Q78.6105 1459.24 79.3763 1458.47 Q80.1421 1457.68 81.3031 1457.68 Q82.4148 1457.68 83.1559 1458.43 Q83.9217 1459.14 83.9217 1460.33 Q83.9217 1461.49 83.1065 1462.25 Q82.316 1463 81.3031 1463 Q80.1421 1463 79.3763 1462.18 Z" fill="#000000" fill-rule="nonzero" fill-opacity="1" /><path clip-path="url(#clip140)" d="M90.3446 1446.81 Q90.3446 1439.38 92.222 1435.33 Q94.8406 1429.3 101.016 1429.3 Q102.326 1429.3 103.684 1429.67 Q105.068 1430.02 106.797 1431.38 Q108.551 1432.73 109.613 1434.96 Q111.639 1439.26 111.639 1446.81 Q111.639 1454.2 109.761 1458.23 Q107.019 1464.11 100.967 1464.11 Q98.6943 1464.11 96.3722 1462.95 Q94.0748 1461.79 92.6173 1458.99 Q90.3446 1454.82 90.3446 1446.81 M94.5441 1446.2 Q94.5441 1453.83 95.0876 1456.87 Q95.7052 1460.15 97.385 1461.59 Q99.0896 1463 100.967 1463 Q102.993 1463 104.673 1461.49 Q106.377 1459.96 106.896 1456.67 Q107.464 1453.44 107.439 1446.2 Q107.439 1439.16 106.945 1436.34 Q106.278 1433.06 104.5 1431.75 Q102.746 1430.41 100.967 1430.41 Q100.3 1430.41 99.5836 1430.61 Q98.8919 1430.81 97.8791 1431.38 Q96.8663 1431.94 96.0758 1433.35 Q95.31 1434.76 94.9394 1436.88 Q94.5441 1439.63 94.5441 1446.2 Z" fill="#000000" fill-rule="nonzero" fill-opacity="1" /><path clip-path="url(#clip140)" d="M51.5356 999.967 Q51.5356 992.531 53.4131 988.48 Q56.0316 982.452 62.2075 982.452 Q63.5167 982.452 64.8754 982.823 Q66.2588 983.169 67.988 984.528 Q69.742 985.886 70.8042 988.11 Q72.8299 992.408 72.8299 999.967 Q72.8299 1007.35 70.9524 1011.38 Q68.2104 1017.26 62.158 1017.26 Q59.8853 1017.26 57.5632 1016.1 Q55.2658 1014.94 53.8083 1012.15 Q51.5356 1007.97 51.5356 999.967 M55.7352 999.35 Q55.7352 1006.98 56.2786 1010.02 Q56.8962 1013.31 58.5761 1014.74 Q60.2806 1016.15 62.158 1016.15 Q64.1837 1016.15 65.8635 1014.64 Q67.5681 1013.11 68.0869 1009.82 Q68.655 1006.59 68.6303 999.35 Q68.6303 992.309 68.1363 989.493 Q67.4693 986.207 65.6906 984.898 Q63.9367 983.564 62.158 983.564 Q61.4911 983.564 60.7747 983.762 Q60.083 983.959 59.0701 984.528 Q58.0573 985.096 57.2668 986.504 Q56.501 987.912 56.1304 990.036 Q55.7352 992.778 55.7352 999.35 Z" fill="#000000" fill-rule="nonzero" fill-opacity="1" /><path clip-path="url(#clip140)" d="M79.9198 1015.33 Q79.154 1014.52 79.154 1013.46 Q79.154 1012.39 79.9198 1011.63 Q80.6856 1010.84 81.8466 1010.84 Q82.9583 1010.84 83.6994 1011.58 Q84.4652 1012.29 84.4652 1013.48 Q84.4652 1014.64 83.65 1015.41 Q82.8595 1016.15 81.8466 1016.15 Q80.6856 1016.15 79.9198 1015.33 Z" fill="#000000" fill-rule="nonzero" fill-opacity="1" /><path clip-path="url(#clip140)" d="M91.4315 1008 Q91.4315 1006.49 92.2467 1005.92 Q93.0619 1005.33 93.9266 1005.33 Q95.0876 1005.33 95.7546 1006.07 Q96.4463 1006.79 96.4463 1007.8 Q96.4463 1008.81 95.7546 1009.55 Q95.0876 1010.27 93.9266 1010.27 Q93.3584 1010.27 93.0619 1010.17 Q93.7289 1012.49 95.7546 1014.17 Q97.805 1015.85 100.498 1015.85 Q103.882 1015.85 105.908 1012.57 Q107.118 1010.44 107.118 1005.62 Q107.118 1001.38 106.204 999.251 Q104.796 996.015 101.906 996.015 Q97.805 996.015 95.3841 999.547 Q95.0876 999.992 94.7418 1000.02 Q94.2477 1000.02 94.1242 999.745 Q94.0254 999.448 94.0254 998.683 L94.0254 983.712 Q94.0254 982.502 94.5194 982.502 Q94.7171 982.502 95.137 982.65 Q98.3238 984.058 101.856 984.083 Q105.488 984.083 108.749 982.601 Q108.996 982.452 109.144 982.452 Q109.638 982.452 109.663 983.021 Q109.663 983.218 109.243 983.811 Q108.847 984.379 107.983 985.145 Q107.118 985.886 106.007 986.603 Q104.895 987.319 103.264 987.813 Q101.659 988.282 99.8801 988.282 Q97.7556 988.282 95.5817 987.615 L95.5817 997.472 Q98.2002 994.903 102.005 994.903 Q106.056 994.903 108.847 998.164 Q111.639 1001.42 111.639 1005.97 Q111.639 1010.74 108.329 1014 Q105.043 1017.26 100.596 1017.26 Q96.5451 1017.26 93.976 1014.37 Q91.4315 1011.48 91.4315 1008 Z" fill="#000000" fill-rule="nonzero" fill-opacity="1" /><path clip-path="url(#clip140)" d="M53.5119 540.422 L53.5119 538.841 Q59.5889 538.841 62.7262 535.605 Q63.5908 535.605 63.7391 535.802 Q63.8873 536 63.8873 536.914 L63.8873 565.298 Q63.8873 566.805 64.6284 567.274 Q65.3695 567.744 68.6056 567.744 L70.2113 567.744 L70.2113 569.3 Q68.4327 569.152 62.0098 569.152 Q55.587 569.152 53.833 569.3 L53.833 567.744 L55.4387 567.744 Q58.6255 567.744 59.3913 567.299 Q60.1571 566.83 60.1571 565.298 L60.1571 539.088 Q57.5138 540.422 53.5119 540.422 Z" fill="#000000" fill-rule="nonzero" fill-opacity="1" /><path clip-path="url(#clip140)" d="M79.3763 568.485 Q78.6105 567.67 78.6105 566.607 Q78.6105 565.545 79.3763 564.779 Q80.1421 563.989 81.3031 563.989 Q82.4148 563.989 83.1559 564.73 Q83.9217 565.446 83.9217 566.632 Q83.9217 567.793 83.1065 568.559 Q82.316 569.3 81.3031 569.3 Q80.1421 569.3 79.3763 568.485 Z" fill="#000000" fill-rule="nonzero" fill-opacity="1" /><path clip-path="url(#clip140)" d="M90.3446 553.119 Q90.3446 545.684 92.222 541.632 Q94.8406 535.605 101.016 535.605 Q102.326 535.605 103.684 535.975 Q105.068 536.321 106.797 537.68 Q108.551 539.038 109.613 541.262 Q111.639 545.56 111.639 553.119 Q111.639 560.506 109.761 564.532 Q107.019 570.412 100.967 570.412 Q98.6943 570.412 96.3722 569.251 Q94.0748 568.09 92.6173 565.298 Q90.3446 561.123 90.3446 553.119 M94.5441 552.502 Q94.5441 560.135 95.0876 563.174 Q95.7052 566.459 97.385 567.892 Q99.0896 569.3 100.967 569.3 Q102.993 569.3 104.673 567.793 Q106.377 566.261 106.896 562.976 Q107.464 559.74 107.439 552.502 Q107.439 545.461 106.945 542.645 Q106.278 539.36 104.5 538.05 Q102.746 536.716 100.967 536.716 Q100.3 536.716 99.5836 536.914 Q98.8919 537.112 97.8791 537.68 Q96.8663 538.248 96.0758 539.656 Q95.31 541.064 94.9394 543.189 Q94.5441 545.931 94.5441 552.502 Z" fill="#000000" fill-rule="nonzero" fill-opacity="1" /><path clip-path="url(#clip140)" d="M54.0553 93.5739 L54.0553 91.9929 Q60.1324 91.9929 63.2697 88.7568 Q64.1343 88.7568 64.2825 88.9544 Q64.4308 89.152 64.4308 90.066 L64.4308 118.45 Q64.4308 119.957 65.1719 120.426 Q65.913 120.896 69.1491 120.896 L70.7548 120.896 L70.7548 122.452 Q68.9762 122.304 62.5533 122.304 Q56.1304 122.304 54.3765 122.452 L54.3765 120.896 L55.9822 120.896 Q59.1689 120.896 59.9347 120.451 Q60.7005 119.982 60.7005 118.45 L60.7005 92.2399 Q58.0573 93.5739 54.0553 93.5739 Z" fill="#000000" fill-rule="nonzero" fill-opacity="1" /><path clip-path="url(#clip140)" d="M79.9198 121.637 Q79.154 120.822 79.154 119.759 Q79.154 118.697 79.9198 117.931 Q80.6856 117.141 81.8466 117.141 Q82.9583 117.141 83.6994 117.882 Q84.4652 118.598 84.4652 119.784 Q84.4652 120.945 83.65 121.711 Q82.8595 122.452 81.8466 122.452 Q80.6856 122.452 79.9198 121.637 Z" fill="#000000" fill-rule="nonzero" fill-opacity="1" /><path clip-path="url(#clip140)" d="M91.4315 114.3 Q91.4315 112.793 92.2467 112.225 Q93.0619 111.632 93.9266 111.632 Q95.0876 111.632 95.7546 112.373 Q96.4463 113.09 96.4463 114.102 Q96.4463 115.115 95.7546 115.856 Q95.0876 116.573 93.9266 116.573 Q93.3584 116.573 93.0619 116.474 Q93.7289 118.796 95.7546 120.476 Q97.805 122.156 100.498 122.156 Q103.882 122.156 105.908 118.87 Q107.118 116.746 107.118 111.929 Q107.118 107.68 106.204 105.555 Q104.796 102.319 101.906 102.319 Q97.805 102.319 95.3841 105.851 Q95.0876 106.296 94.7418 106.321 Q94.2477 106.321 94.1242 106.049 Q94.0254 105.753 94.0254 104.987 L94.0254 90.0166 Q94.0254 88.8062 94.5194 88.8062 Q94.7171 88.8062 95.137 88.9544 Q98.3238 90.3625 101.856 90.3872 Q105.488 90.3872 108.749 88.905 Q108.996 88.7568 109.144 88.7568 Q109.638 88.7568 109.663 89.3249 Q109.663 89.5226 109.243 90.1155 Q108.847 90.6836 107.983 91.4494 Q107.118 92.1905 106.007 92.9069 Q104.895 93.6233 103.264 94.1174 Q101.659 94.5868 99.8801 94.5868 Q97.7556 94.5868 95.5817 93.9198 L95.5817 103.776 Q98.2002 101.207 102.005 101.207 Q106.056 101.207 108.847 104.468 Q111.639 107.729 111.639 112.274 Q111.639 117.042 108.329 120.303 Q105.043 123.564 100.596 123.564 Q96.5451 123.564 93.976 120.674 Q91.4315 117.783 91.4315 114.3 Z" fill="#000000" fill-rule="nonzero" fill-opacity="1" /><polyline clip-path="url(#clip142)" style="stroke:#009af9; stroke-linecap:round; stroke-linejoin:round; stroke-width:4; stroke-opacity:1; fill:none" points="210.048,1445.72 243.601,1445.72 277.154,1445.72 310.707,1445.72 344.261,1445.72 377.814,1445.72 411.367,1445.72 444.92,1445.72 478.474,1445.72 512.027,1445.72 545.58,1445.72 579.133,1445.72 612.686,1445.72 646.24,1445.72 679.793,1445.72 713.346,1445.72 746.899,1445.72 780.452,1445.72 814.006,1445.72 847.559,1445.72 881.112,1445.72 914.665,1445.72 948.218,1445.72 981.772,1445.72 1015.32,1445.72 1048.88,1445.72 1082.43,1445.72 1115.98,1445.72 1149.54,1445.72 1183.09,1445.72 1216.64,1445.72 1250.2,1445.72 1283.75,1445.72 1317.3,1445.72 1350.86,1445.72 1384.41,1445.72 1417.96,1445.72 1451.52,1445.72 1485.07,1445.72 1518.62,1445.72 1552.18,1445.72 1585.73,1445.72 1619.28,1445.72 1652.84,1445.72 1686.39,1445.72 1719.94,1445.72 1753.5,1445.72 1787.05,1445.72 1820.6,1445.72 1854.16,1445.72 1887.71,1445.72 1921.26,1445.72 1954.81,1445.72 1988.37,1445.72 2021.92,1445.72 2055.47,1445.72 2089.03,1445.72 2122.58,1445.72 2156.13,1445.72 2189.69,1445.72 2223.24,1445.72 2256.79,1445.72 2290.35,1445.72 "/>
<polyline clip-path="url(#clip142)" style="stroke:#e26f46; stroke-linecap:round; stroke-linejoin:round; stroke-width:4; stroke-opacity:1; fill:none" points="210.048,87.9763 243.601,298.344 277.154,469.939 310.707,610.29 344.261,725.462 377.814,820.341 411.367,898.859 444.92,964.178 478.474,1018.84 512.027,1064.87 545.58,1103.91 579.133,1137.25 612.686,1165.94 646.24,1190.81 679.793,1212.51 713.346,1231.59 746.899,1248.46 780.452,1263.48 814.006,1276.91 847.559,1289 881.112,1299.91 914.665,1309.82 948.218,1318.84 981.772,1327.09 1015.32,1334.64 1048.88,1341.59 1082.43,1347.99 1115.98,1353.91 1149.54,1359.38 1183.09,1364.45 1216.64,1369.16 1250.2,1373.55 1283.75,1377.63 1317.3,1381.44 1350.86,1385 1384.41,1388.33 1417.96,1391.45 1451.52,1394.37 1485.07,1397.11 1518.62,1399.68 1552.18,1402.09 1585.73,1404.37 1619.28,1406.5 1652.84,1408.52 1686.39,1410.41 1719.94,1412.2 1753.5,1413.89 1787.05,1415.48 1820.6,1416.99 1854.16,1418.41 1887.71,1419.75 1921.26,1421.02 1954.81,1422.23 1988.37,1423.37 2021.92,1424.44 2055.47,1425.47 2089.03,1426.43 2122.58,1427.35 2156.13,1428.22 2189.69,1429.05 2223.24,1429.83 2256.79,1430.58 2290.35,1431.28 "/>
<path clip-path="url(#clip140)" d="M1895.53 250.738 L2279.25 250.738 L2279.25 95.2176 L1895.53 95.2176  Z" fill="#ffffff" fill-rule="evenodd" fill-opacity="1"/>
<polyline clip-path="url(#clip140)" style="stroke:#000000; stroke-linecap:round; stroke-linejoin:round; stroke-width:4; stroke-opacity:1; fill:none" points="1895.53,250.738 2279.25,250.738 2279.25,95.2176 1895.53,95.2176 1895.53,250.738 "/>
<polyline clip-path="url(#clip140)" style="stroke:#009af9; stroke-linecap:round; stroke-linejoin:round; stroke-width:4; stroke-opacity:1; fill:none" points="1920.03,147.058 2067.03,147.058 "/>
<path clip-path="url(#clip140)" d="M2094.87 161.62 Q2091.54 158.31 2091.54 153.517 Q2091.54 148.7 2094.8 145.192 Q2098.08 141.66 2102.78 141.66 Q2107.37 141.66 2110.66 145.168 Q2113.97 148.651 2113.97 153.517 Q2113.97 158.285 2110.63 161.595 Q2107.32 164.906 2102.73 164.906 Q2098.23 164.906 2094.87 161.62 M2095.74 153.098 Q2095.74 158.013 2097.02 160.237 Q2099 163.621 2102.78 163.621 Q2104.65 163.621 2106.21 162.608 Q2107.79 161.595 2108.66 159.891 Q2109.77 157.668 2109.77 153.098 Q2109.77 148.231 2108.43 146.082 Q2106.46 142.796 2102.73 142.796 Q2101.1 142.796 2099.49 143.661 Q2097.91 144.501 2096.95 146.181 Q2095.74 148.404 2095.74 153.098 Z" fill="#000000" fill-rule="nonzero" fill-opacity="1" /><path clip-path="url(#clip140)" d="M2116.83 164.338 L2116.83 162.781 Q2119.52 162.781 2120.14 162.46 Q2120.78 162.114 2120.78 160.484 L2120.78 146.922 Q2120.78 145.044 2120.12 144.575 Q2119.48 144.106 2116.83 144.106 L2116.83 142.524 L2123.87 141.981 L2123.87 147.539 Q2124.59 145.365 2126.1 143.686 Q2127.63 141.981 2130.1 141.981 Q2131.73 141.981 2132.77 142.895 Q2133.83 143.809 2133.83 145.069 Q2133.83 146.181 2133.14 146.749 Q2132.47 147.292 2131.65 147.292 Q2130.74 147.292 2130.1 146.724 Q2129.48 146.131 2129.48 145.118 Q2129.48 144.501 2129.75 144.031 Q2130.05 143.537 2130.27 143.364 Q2130.49 143.191 2130.64 143.142 Q2130.54 143.093 2130.1 143.093 Q2127.31 143.093 2125.7 145.884 Q2124.12 148.651 2124.12 152.603 L2124.12 160.385 Q2124.12 161.843 2124.71 162.312 Q2125.33 162.781 2127.97 162.781 L2129.04 162.781 L2129.04 164.338 Q2127.01 164.189 2122.61 164.189 Q2121.99 164.189 2121.03 164.214 Q2120.07 164.239 2118.81 164.288 Q2117.55 164.338 2116.83 164.338 Z" fill="#000000" fill-rule="nonzero" fill-opacity="1" /><path clip-path="url(#clip140)" d="M2136.87 164.338 L2136.87 162.781 Q2139.56 162.781 2140.18 162.46 Q2140.79 162.114 2140.79 160.484 L2140.79 146.872 Q2140.79 144.995 2140.15 144.55 Q2139.53 144.106 2137.06 144.106 L2137.06 142.524 L2144.13 141.981 L2144.13 160.533 Q2144.13 162.04 2144.67 162.411 Q2145.22 162.781 2147.69 162.781 L2147.69 164.338 Q2142.52 164.189 2142.42 164.189 Q2141.73 164.189 2136.87 164.338 M2138.99 133.162 Q2138.99 132.149 2139.76 131.334 Q2140.55 130.494 2141.66 130.494 Q2142.77 130.494 2143.56 131.26 Q2144.35 132.001 2144.35 133.187 Q2144.35 134.348 2143.56 135.113 Q2142.77 135.855 2141.66 135.855 Q2140.5 135.855 2139.73 135.039 Q2138.99 134.224 2138.99 133.162 Z" fill="#000000" fill-rule="nonzero" fill-opacity="1" /><path clip-path="url(#clip140)" d="M2150.6 168.339 Q2150.6 166.709 2151.84 165.301 Q2153.1 163.893 2155.27 163.275 Q2153.05 161.867 2153.05 158.779 Q2153.05 156.408 2154.6 154.58 Q2152.23 152.603 2152.23 149.367 Q2152.23 146.378 2154.6 144.18 Q2156.97 141.981 2160.43 141.981 Q2163.47 141.981 2165.79 143.809 Q2168.21 141.438 2171.15 141.413 Q2172.46 141.413 2173.08 142.228 Q2173.72 143.043 2173.72 143.908 Q2173.72 144.674 2173.23 145.044 Q2172.76 145.415 2172.27 145.415 Q2171.65 145.415 2171.2 145.02 Q2170.78 144.6 2170.78 143.957 Q2170.78 142.895 2171.6 142.574 Q2171.45 142.524 2171.11 142.524 Q2168.63 142.524 2166.54 144.501 Q2168.61 146.428 2168.61 149.417 Q2168.61 152.406 2166.24 154.604 Q2163.87 156.803 2160.43 156.803 Q2157.59 156.803 2155.42 155.222 Q2154.55 156.235 2154.55 157.618 Q2154.55 158.878 2155.32 159.866 Q2156.09 160.854 2157.25 161.003 Q2157.59 161.052 2161.03 161.052 Q2163.05 161.052 2164.16 161.101 Q2165.28 161.151 2166.86 161.497 Q2168.46 161.818 2169.72 162.46 Q2173.01 164.288 2173.03 168.241 Q2173.03 171.131 2169.7 172.934 Q2166.39 174.762 2161.79 174.762 Q2157.15 174.762 2153.86 172.91 Q2150.6 171.082 2150.6 168.339 M2153.24 168.339 Q2153.24 170.415 2155.69 171.996 Q2158.14 173.601 2161.84 173.601 Q2165.47 173.601 2167.92 172.02 Q2170.39 170.464 2170.39 168.339 Q2170.39 166.833 2169.52 165.869 Q2168.66 164.906 2166.88 164.51 Q2165.13 164.14 2163.89 164.066 Q2162.66 163.992 2160.38 163.992 L2157.39 163.992 Q2155.67 164.091 2154.46 165.35 Q2153.24 166.61 2153.24 168.339 M2156.01 149.417 Q2156.01 155.642 2160.43 155.642 Q2162.66 155.642 2164.02 153.616 Q2164.83 152.258 2164.83 149.367 Q2164.83 143.142 2160.43 143.142 Q2158.21 143.142 2156.83 145.168 Q2156.01 146.526 2156.01 149.417 Z" fill="#000000" fill-rule="nonzero" fill-opacity="1" /><path clip-path="url(#clip140)" d="M2176.17 164.338 L2176.17 162.781 Q2178.86 162.781 2179.48 162.46 Q2180.1 162.114 2180.1 160.484 L2180.1 146.872 Q2180.1 144.995 2179.45 144.55 Q2178.84 144.106 2176.37 144.106 L2176.37 142.524 L2183.43 141.981 L2183.43 160.533 Q2183.43 162.04 2183.98 162.411 Q2184.52 162.781 2186.99 162.781 L2186.99 164.338 Q2181.83 164.189 2181.73 164.189 Q2181.04 164.189 2176.17 164.338 M2178.29 133.162 Q2178.29 132.149 2179.06 131.334 Q2179.85 130.494 2180.96 130.494 Q2182.07 130.494 2182.86 131.26 Q2183.65 132.001 2183.65 133.187 Q2183.65 134.348 2182.86 135.113 Q2182.07 135.855 2180.96 135.855 Q2179.8 135.855 2179.03 135.039 Q2178.29 134.224 2178.29 133.162 Z" fill="#000000" fill-rule="nonzero" fill-opacity="1" /><path clip-path="url(#clip140)" d="M2190.13 164.338 L2190.13 162.781 Q2192.82 162.781 2193.44 162.46 Q2194.05 162.114 2194.05 160.484 L2194.05 146.922 Q2194.05 145.044 2193.39 144.575 Q2192.75 144.106 2190.13 144.106 L2190.13 142.524 L2197.24 141.981 L2197.24 147.292 Q2199.61 141.981 2204.73 141.981 Q2208.53 141.981 2210.04 143.858 Q2211.15 145.118 2211.37 146.526 Q2211.62 147.935 2211.62 151.591 L2211.62 161.25 Q2211.67 162.312 2212.48 162.559 Q2213.3 162.781 2215.57 162.781 L2215.57 164.338 Q2210.41 164.189 2209.89 164.189 Q2209.49 164.189 2204.18 164.338 L2204.18 162.781 Q2206.88 162.781 2207.49 162.46 Q2208.14 162.114 2208.14 160.484 L2208.14 148.7 Q2208.14 146.131 2207.34 144.624 Q2206.55 143.093 2204.38 143.093 Q2201.76 143.093 2199.66 145.291 Q2197.56 147.49 2197.56 151.195 L2197.56 160.484 Q2197.56 162.114 2198.18 162.46 Q2198.82 162.781 2201.49 162.781 L2201.49 164.338 Q2196.33 164.189 2195.83 164.189 Q2195.44 164.189 2190.13 164.338 Z" fill="#000000" fill-rule="nonzero" fill-opacity="1" /><path clip-path="url(#clip140)" d="M2218.68 159.52 Q2218.68 155.222 2223.75 152.949 Q2226.79 151.492 2233.06 151.121 L2233.06 149.269 Q2233.06 146.131 2231.41 144.476 Q2229.78 142.796 2227.7 142.796 Q2224 142.796 2222.22 145.118 Q2223.72 145.168 2224.27 145.934 Q2224.81 146.675 2224.81 147.44 Q2224.81 148.453 2224.17 149.12 Q2223.55 149.763 2222.49 149.763 Q2221.48 149.763 2220.81 149.145 Q2220.14 148.503 2220.14 147.391 Q2220.14 144.921 2222.36 143.29 Q2224.61 141.66 2227.8 141.66 Q2231.95 141.66 2234.72 144.451 Q2235.58 145.316 2236 146.428 Q2236.45 147.539 2236.49 148.28 Q2236.54 148.997 2236.54 150.43 L2236.54 160.533 Q2236.54 160.83 2236.64 161.324 Q2236.74 161.818 2237.19 162.46 Q2237.66 163.078 2238.42 163.078 Q2240.25 163.078 2240.23 159.842 L2240.23 157.001 L2241.51 157.001 L2241.51 159.842 Q2241.51 162.534 2240.08 163.596 Q2238.67 164.634 2237.36 164.634 Q2235.68 164.634 2234.62 163.399 Q2233.56 162.164 2233.41 160.484 Q2232.64 162.411 2230.89 163.671 Q2229.16 164.906 2226.79 164.906 Q2224.96 164.906 2223.23 164.436 Q2221.52 163.992 2220.09 162.732 Q2218.68 161.447 2218.68 159.52 M2222.59 159.471 Q2222.59 161.348 2223.92 162.559 Q2225.25 163.769 2227.13 163.769 Q2229.26 163.769 2231.16 162.139 Q2233.06 160.484 2233.06 157.248 L2233.06 152.184 Q2227.45 152.381 2225.01 154.629 Q2222.59 156.852 2222.59 159.471 Z" fill="#000000" fill-rule="nonzero" fill-opacity="1" /><path clip-path="url(#clip140)" d="M2243.54 164.338 L2243.54 162.781 Q2246.23 162.781 2246.85 162.46 Q2247.46 162.114 2247.46 160.484 L2247.46 134.175 Q2247.46 132.297 2246.8 131.828 Q2246.15 131.359 2243.54 131.359 L2243.54 129.778 L2250.8 129.234 L2250.8 160.484 Q2250.8 162.114 2251.44 162.46 Q2252.08 162.781 2254.75 162.781 L2254.75 164.338 Q2254.13 164.338 2252.85 164.288 Q2251.56 164.239 2250.63 164.214 Q2249.69 164.189 2249.14 164.189 Q2248.55 164.189 2243.54 164.338 Z" fill="#000000" fill-rule="nonzero" fill-opacity="1" /><polyline clip-path="url(#clip140)" style="stroke:#e26f46; stroke-linecap:round; stroke-linejoin:round; stroke-width:4; stroke-opacity:1; fill:none" points="1920.03,198.898 2067.03,198.898 "/>
<path clip-path="url(#clip140)" d="M2091.54 216.178 L2091.54 214.621 Q2094.23 214.621 2094.85 214.3 Q2095.49 213.954 2095.49 212.324 L2095.49 198.762 Q2095.49 196.884 2094.82 196.415 Q2094.18 195.946 2091.54 195.946 L2091.54 194.364 L2098.58 193.821 L2098.58 199.379 Q2099.29 197.205 2100.8 195.526 Q2102.33 193.821 2104.8 193.821 Q2106.43 193.821 2107.47 194.735 Q2108.53 195.649 2108.53 196.909 Q2108.53 198.021 2107.84 198.589 Q2107.17 199.132 2106.36 199.132 Q2105.44 199.132 2104.8 198.564 Q2104.18 197.971 2104.18 196.958 Q2104.18 196.341 2104.46 195.871 Q2104.75 195.377 2104.97 195.204 Q2105.2 195.031 2105.34 194.982 Q2105.25 194.933 2104.8 194.933 Q2102.01 194.933 2100.4 197.724 Q2098.82 200.491 2098.82 204.443 L2098.82 212.225 Q2098.82 213.683 2099.42 214.152 Q2100.03 214.621 2102.68 214.621 L2103.74 214.621 L2103.74 216.178 Q2101.71 216.029 2097.32 216.029 Q2096.7 216.029 2095.74 216.054 Q2094.77 216.079 2093.51 216.128 Q2092.25 216.178 2091.54 216.178 Z" fill="#000000" fill-rule="nonzero" fill-opacity="1" /><path clip-path="url(#clip140)" d="M2111.3 205.036 Q2111.3 200.269 2114.36 196.884 Q2117.42 193.5 2121.82 193.5 Q2126.27 193.5 2128.57 196.39 Q2130.89 199.28 2130.89 203.431 Q2130.89 204.196 2130.69 204.345 Q2130.49 204.493 2129.63 204.493 L2115.5 204.493 Q2115.5 209.656 2117.03 212.077 Q2119.15 215.461 2122.74 215.461 Q2123.23 215.461 2123.82 215.362 Q2124.42 215.264 2125.63 214.844 Q2126.84 214.399 2127.9 213.238 Q2128.96 212.077 2129.58 210.249 Q2129.73 209.532 2130.22 209.557 Q2130.89 209.557 2130.89 210.15 Q2130.89 210.595 2130.39 211.607 Q2129.92 212.596 2129.01 213.781 Q2128.1 214.967 2126.32 215.856 Q2124.56 216.746 2122.44 216.746 Q2117.99 216.746 2114.63 213.386 Q2111.3 210.002 2111.3 205.036 M2115.55 203.431 L2127.55 203.431 Q2127.55 202.368 2127.36 201.183 Q2127.18 199.997 2126.64 198.366 Q2126.12 196.711 2124.89 195.674 Q2123.65 194.636 2121.82 194.636 Q2121.01 194.636 2120.12 194.982 Q2119.25 195.328 2118.19 196.168 Q2117.13 197.008 2116.39 198.91 Q2115.65 200.812 2115.55 203.431 Z" fill="#000000" fill-rule="nonzero" fill-opacity="1" /><path clip-path="url(#clip140)" d="M2134.03 216.178 L2134.03 214.621 Q2136.72 214.621 2137.34 214.3 Q2137.95 213.954 2137.95 212.324 L2137.95 186.015 Q2137.95 184.137 2137.29 183.668 Q2136.64 183.199 2134.03 183.199 L2134.03 181.618 L2141.29 181.074 L2141.29 212.324 Q2141.29 213.954 2141.93 214.3 Q2142.57 214.621 2145.24 214.621 L2145.24 216.178 Q2144.62 216.178 2143.34 216.128 Q2142.05 216.079 2141.12 216.054 Q2140.18 216.029 2139.63 216.029 Q2139.04 216.029 2134.03 216.178 Z" fill="#000000" fill-rule="nonzero" fill-opacity="1" /><path clip-path="url(#clip140)" d="M2148.48 211.36 Q2148.48 207.062 2153.54 204.789 Q2156.58 203.332 2162.85 202.961 L2162.85 201.109 Q2162.85 197.971 2161.2 196.316 Q2159.57 194.636 2157.49 194.636 Q2153.79 194.636 2152.01 196.958 Q2153.52 197.008 2154.06 197.774 Q2154.6 198.515 2154.6 199.28 Q2154.6 200.293 2153.96 200.96 Q2153.34 201.603 2152.28 201.603 Q2151.27 201.603 2150.6 200.985 Q2149.93 200.343 2149.93 199.231 Q2149.93 196.761 2152.16 195.13 Q2154.41 193.5 2157.59 193.5 Q2161.74 193.5 2164.51 196.291 Q2165.37 197.156 2165.79 198.268 Q2166.24 199.379 2166.29 200.12 Q2166.34 200.837 2166.34 202.27 L2166.34 212.373 Q2166.34 212.67 2166.44 213.164 Q2166.54 213.658 2166.98 214.3 Q2167.45 214.918 2168.21 214.918 Q2170.04 214.918 2170.02 211.682 L2170.02 208.841 L2171.3 208.841 L2171.3 211.682 Q2171.3 214.374 2169.87 215.436 Q2168.46 216.474 2167.15 216.474 Q2165.47 216.474 2164.41 215.239 Q2163.35 214.004 2163.2 212.324 Q2162.43 214.251 2160.68 215.511 Q2158.95 216.746 2156.58 216.746 Q2154.75 216.746 2153.02 216.276 Q2151.32 215.832 2149.88 214.572 Q2148.48 213.287 2148.48 211.36 M2152.38 211.311 Q2152.38 213.188 2153.71 214.399 Q2155.05 215.609 2156.93 215.609 Q2159.05 215.609 2160.95 213.979 Q2162.85 212.324 2162.85 209.088 L2162.85 204.024 Q2157.25 204.221 2154.8 206.469 Q2152.38 208.692 2152.38 211.311 Z" fill="#000000" fill-rule="nonzero" fill-opacity="1" /><path clip-path="url(#clip140)" d="M2172.27 216.178 L2172.27 214.621 Q2176.22 214.621 2178.74 211.583 Q2178.74 211.583 2183.48 205.555 L2178.47 199.033 Q2176.69 196.761 2175.9 196.365 Q2175.13 195.946 2172.51 195.946 L2172.51 194.364 Q2174.59 194.513 2177.31 194.513 Q2178.81 194.513 2182.79 194.364 L2182.79 195.946 Q2181.01 196.044 2181.01 197.205 Q2181.01 197.601 2181.46 198.119 L2185.41 203.233 L2188.55 199.28 Q2189.31 198.366 2189.31 197.502 Q2189.31 196.094 2187.83 195.946 L2187.83 194.364 Q2189.81 194.513 2192.7 194.513 Q2194.87 194.513 2196.85 194.364 L2196.85 195.946 Q2192.99 196.044 2190.82 198.564 Q2189.85 199.626 2186.17 204.295 L2192.94 213.04 Q2193.76 214.102 2194.67 214.374 Q2195.59 214.621 2197.76 214.621 L2197.76 216.178 Q2195.49 216.029 2192.89 216.029 Q2191.98 216.029 2187.43 216.178 L2187.43 214.621 Q2188.35 214.572 2188.79 214.177 Q2189.26 213.757 2189.26 213.337 Q2189.26 213.139 2188.2 211.682 L2184.35 206.617 Q2180.49 211.163 2180 212.225 Q2179.8 212.67 2179.8 213.04 Q2179.8 214.399 2181.26 214.621 L2181.26 216.178 Q2177.63 216.029 2176.47 216.029 Q2174.24 216.029 2172.27 216.178 Z" fill="#000000" fill-rule="nonzero" fill-opacity="1" /><path clip-path="url(#clip140)" d="M2199.71 205.036 Q2199.71 200.269 2202.77 196.884 Q2205.84 193.5 2210.24 193.5 Q2214.68 193.5 2216.98 196.39 Q2219.3 199.28 2219.3 203.431 Q2219.3 204.196 2219.1 204.345 Q2218.91 204.493 2218.04 204.493 L2203.91 204.493 Q2203.91 209.656 2205.44 212.077 Q2207.57 215.461 2211.15 215.461 Q2211.64 215.461 2212.24 215.362 Q2212.83 215.264 2214.04 214.844 Q2215.25 214.399 2216.31 213.238 Q2217.37 212.077 2217.99 210.249 Q2218.14 209.532 2218.63 209.557 Q2219.3 209.557 2219.3 210.15 Q2219.3 210.595 2218.81 211.607 Q2218.34 212.596 2217.42 213.781 Q2216.51 214.967 2214.73 215.856 Q2212.98 216.746 2210.85 216.746 Q2206.41 216.746 2203.05 213.386 Q2199.71 210.002 2199.71 205.036 M2203.96 203.431 L2215.97 203.431 Q2215.97 202.368 2215.77 201.183 Q2215.6 199.997 2215.05 198.366 Q2214.53 196.711 2213.3 195.674 Q2212.06 194.636 2210.24 194.636 Q2209.42 194.636 2208.53 194.982 Q2207.67 195.328 2206.6 196.168 Q2205.54 197.008 2204.8 198.91 Q2204.06 200.812 2203.96 203.431 Z" fill="#000000" fill-rule="nonzero" fill-opacity="1" /><path clip-path="url(#clip140)" d="M2222.49 205.308 Q2222.49 200.491 2225.85 197.156 Q2229.21 193.821 2233.75 193.821 Q2237.61 193.821 2240.13 196.958 L2240.13 186.015 Q2240.13 184.137 2239.46 183.668 Q2238.82 183.199 2236.2 183.199 L2236.2 181.618 L2243.49 181.074 L2243.49 211.78 Q2243.49 213.658 2244.13 214.152 Q2244.8 214.621 2247.41 214.621 L2247.41 216.178 L2239.98 216.746 L2239.98 213.386 Q2237.36 216.721 2233.21 216.746 Q2228.86 216.746 2225.67 213.411 Q2222.49 210.076 2222.49 205.308 M2226.69 205.357 Q2226.69 210.051 2228.15 212.373 Q2230.17 215.609 2233.46 215.609 Q2237.21 215.609 2239.43 212.077 Q2240 211.212 2239.98 210.199 L2239.98 199.824 Q2239.98 198.811 2239.43 197.971 Q2237.36 194.933 2233.98 194.933 Q2230.44 194.933 2228.24 198.169 Q2226.69 200.59 2226.69 205.357 Z" fill="#000000" fill-rule="nonzero" fill-opacity="1" /></svg>
