<?xml version="1.0" encoding="utf-8"?>
<svg xmlns="http://www.w3.org/2000/svg" xmlns:xlink="http://www.w3.org/1999/xlink" width="600" height="400" viewBox="0 0 2400 1600">
<defs>
  <clipPath id="clip410">
    <rect x="0" y="0" width="2400" height="1600"/>
  </clipPath>
</defs>
<path clip-path="url(#clip410)" d="M0 1600 L2400 1600 L2400 0 L0 0  Z" fill="#ffffff" fill-rule="evenodd" fill-opacity="1"/>
<defs>
  <clipPath id="clip411">
    <rect x="480" y="0" width="1681" height="1600"/>
  </clipPath>
</defs>
<path clip-path="url(#clip410)" d="M148.207 1486.45 L2352.76 1486.45 L2352.76 47.2441 L148.207 47.2441  Z" fill="#ffffff" fill-rule="evenodd" fill-opacity="1"/>
<defs>
  <clipPath id="clip412">
    <rect x="148" y="47" width="2206" height="1440"/>
  </clipPath>
</defs>
<polyline clip-path="url(#clip412)" style="stroke:#000000; stroke-linecap:round; stroke-linejoin:round; stroke-width:2; stroke-opacity:0.1; fill:none" points="177.588,1486.45 177.588,47.2441 "/>
<polyline clip-path="url(#clip412)" style="stroke:#000000; stroke-linecap:round; stroke-linejoin:round; stroke-width:2; stroke-opacity:0.1; fill:none" points="507.709,1486.45 507.709,47.2441 "/>
<polyline clip-path="url(#clip412)" style="stroke:#000000; stroke-linecap:round; stroke-linejoin:round; stroke-width:2; stroke-opacity:0.1; fill:none" points="837.83,1486.45 837.83,47.2441 "/>
<polyline clip-path="url(#clip412)" style="stroke:#000000; stroke-linecap:round; stroke-linejoin:round; stroke-width:2; stroke-opacity:0.1; fill:none" points="1167.95,1486.45 1167.95,47.2441 "/>
<polyline clip-path="url(#clip412)" style="stroke:#000000; stroke-linecap:round; stroke-linejoin:round; stroke-width:2; stroke-opacity:0.1; fill:none" points="1498.07,1486.45 1498.07,47.2441 "/>
<polyline clip-path="url(#clip412)" style="stroke:#000000; stroke-linecap:round; stroke-linejoin:round; stroke-width:2; stroke-opacity:0.1; fill:none" points="1828.19,1486.45 1828.19,47.2441 "/>
<polyline clip-path="url(#clip412)" style="stroke:#000000; stroke-linecap:round; stroke-linejoin:round; stroke-width:2; stroke-opacity:0.1; fill:none" points="2158.31,1486.45 2158.31,47.2441 "/>
<polyline clip-path="url(#clip410)" style="stroke:#000000; stroke-linecap:round; stroke-linejoin:round; stroke-width:4; stroke-opacity:1; fill:none" points="148.207,1486.45 2352.76,1486.45 "/>
<polyline clip-path="url(#clip410)" style="stroke:#000000; stroke-linecap:round; stroke-linejoin:round; stroke-width:4; stroke-opacity:1; fill:none" points="177.588,1486.45 177.588,1467.55 "/>
<polyline clip-path="url(#clip410)" style="stroke:#000000; stroke-linecap:round; stroke-linejoin:round; stroke-width:4; stroke-opacity:1; fill:none" points="507.709,1486.45 507.709,1467.55 "/>
<polyline clip-path="url(#clip410)" style="stroke:#000000; stroke-linecap:round; stroke-linejoin:round; stroke-width:4; stroke-opacity:1; fill:none" points="837.83,1486.45 837.83,1467.55 "/>
<polyline clip-path="url(#clip410)" style="stroke:#000000; stroke-linecap:round; stroke-linejoin:round; stroke-width:4; stroke-opacity:1; fill:none" points="1167.95,1486.45 1167.95,1467.55 "/>
<polyline clip-path="url(#clip410)" style="stroke:#000000; stroke-linecap:round; stroke-linejoin:round; stroke-width:4; stroke-opacity:1; fill:none" points="1498.07,1486.45 1498.07,1467.55 "/>
<polyline clip-path="url(#clip410)" style="stroke:#000000; stroke-linecap:round; stroke-linejoin:round; stroke-width:4; stroke-opacity:1; fill:none" points="1828.19,1486.45 1828.19,1467.55 "/>
<polyline clip-path="url(#clip410)" style="stroke:#000000; stroke-linecap:round; stroke-linejoin:round; stroke-width:4; stroke-opacity:1; fill:none" points="2158.31,1486.45 2158.31,1467.55 "/>
<path clip-path="url(#clip410)" d="M166.941 1532.67 Q166.941 1525.23 168.818 1521.18 Q171.437 1515.15 177.613 1515.15 Q178.922 1515.15 180.28 1515.52 Q181.664 1515.87 183.393 1517.23 Q185.147 1518.59 186.209 1520.81 Q188.235 1525.11 188.235 1532.67 Q188.235 1540.05 186.358 1544.08 Q183.615 1549.96 177.563 1549.96 Q175.29 1549.96 172.968 1548.8 Q170.671 1547.64 169.213 1544.85 Q166.941 1540.67 166.941 1532.67 M171.14 1532.05 Q171.14 1539.68 171.684 1542.72 Q172.301 1546.01 173.981 1547.44 Q175.686 1548.85 177.563 1548.85 Q179.589 1548.85 181.269 1547.34 Q182.973 1545.81 183.492 1542.52 Q184.06 1539.29 184.035 1532.05 Q184.035 1525.01 183.541 1522.19 Q182.874 1518.91 181.096 1517.6 Q179.342 1516.26 177.563 1516.26 Q176.896 1516.26 176.18 1516.46 Q175.488 1516.66 174.475 1517.23 Q173.462 1517.8 172.672 1519.2 Q171.906 1520.61 171.536 1522.74 Q171.14 1525.48 171.14 1532.05 Z" fill="#000000" fill-rule="nonzero" fill-opacity="1" /><path clip-path="url(#clip410)" d="M485.674 1519.97 L485.674 1518.39 Q491.751 1518.39 494.888 1515.15 Q495.753 1515.15 495.901 1515.35 Q496.049 1515.55 496.049 1516.46 L496.049 1544.85 Q496.049 1546.35 496.79 1546.82 Q497.531 1547.29 500.767 1547.29 L502.373 1547.29 L502.373 1548.85 Q500.594 1548.7 494.172 1548.7 Q487.749 1548.7 485.995 1548.85 L485.995 1547.29 L487.6 1547.29 Q490.787 1547.29 491.553 1546.85 Q492.319 1546.38 492.319 1544.85 L492.319 1518.64 Q489.676 1519.97 485.674 1519.97 Z" fill="#000000" fill-rule="nonzero" fill-opacity="1" /><path clip-path="url(#clip410)" d="M508.45 1532.67 Q508.45 1525.23 510.328 1521.18 Q512.946 1515.15 519.122 1515.15 Q520.431 1515.15 521.79 1515.52 Q523.173 1515.87 524.902 1517.23 Q526.656 1518.59 527.719 1520.81 Q529.744 1525.11 529.744 1532.67 Q529.744 1540.05 527.867 1544.08 Q525.125 1549.96 519.072 1549.96 Q516.8 1549.96 514.478 1548.8 Q512.18 1547.64 510.723 1544.85 Q508.45 1540.67 508.45 1532.67 M512.65 1532.05 Q512.65 1539.68 513.193 1542.72 Q513.811 1546.01 515.491 1547.44 Q517.195 1548.85 519.072 1548.85 Q521.098 1548.85 522.778 1547.34 Q524.483 1545.81 525.001 1542.52 Q525.569 1539.29 525.545 1532.05 Q525.545 1525.01 525.051 1522.19 Q524.384 1518.91 522.605 1517.6 Q520.851 1516.26 519.072 1516.26 Q518.406 1516.26 517.689 1516.46 Q516.997 1516.66 515.985 1517.23 Q514.972 1517.8 514.181 1519.2 Q513.415 1520.61 513.045 1522.74 Q512.65 1525.48 512.65 1532.05 Z" fill="#000000" fill-rule="nonzero" fill-opacity="1" /><path clip-path="url(#clip410)" d="M814.807 1548.85 Q814.807 1547.93 814.881 1547.66 Q814.979 1547.39 815.375 1546.97 L825.083 1536.15 Q830.394 1530.17 830.394 1524.96 Q830.394 1521.58 828.616 1519.15 Q826.862 1516.73 823.626 1516.73 Q821.402 1516.73 819.525 1518.09 Q817.647 1519.45 816.783 1521.87 Q816.931 1521.82 817.45 1521.82 Q818.71 1521.82 819.401 1522.61 Q820.118 1523.4 820.118 1524.47 Q820.118 1525.82 819.228 1526.49 Q818.364 1527.13 817.499 1527.13 Q817.153 1527.13 816.684 1527.06 Q816.239 1526.99 815.523 1526.29 Q814.807 1525.58 814.807 1524.32 Q814.807 1520.78 817.475 1517.97 Q820.167 1515.15 824.268 1515.15 Q828.912 1515.15 831.951 1517.92 Q835.014 1520.66 835.014 1524.96 Q835.014 1526.47 834.545 1527.85 Q834.1 1529.21 833.482 1530.27 Q832.889 1531.33 831.259 1533.04 Q829.629 1534.74 828.319 1535.95 Q827.01 1537.16 824.07 1539.73 L818.71 1544.94 L827.825 1544.94 Q832.272 1544.94 832.618 1544.55 Q833.112 1543.83 833.729 1540.05 L835.014 1540.05 L833.581 1548.85 L814.807 1548.85 Z" fill="#000000" fill-rule="nonzero" fill-opacity="1" /><path clip-path="url(#clip410)" d="M839.559 1532.67 Q839.559 1525.23 841.437 1521.18 Q844.055 1515.15 850.231 1515.15 Q851.54 1515.15 852.899 1515.52 Q854.283 1515.87 856.012 1517.23 Q857.766 1518.59 858.828 1520.81 Q860.854 1525.11 860.854 1532.67 Q860.854 1540.05 858.976 1544.08 Q856.234 1549.96 850.182 1549.96 Q847.909 1549.96 845.587 1548.8 Q843.29 1547.64 841.832 1544.85 Q839.559 1540.67 839.559 1532.67 M843.759 1532.05 Q843.759 1539.68 844.302 1542.72 Q844.92 1546.01 846.6 1547.44 Q848.304 1548.85 850.182 1548.85 Q852.207 1548.85 853.887 1547.34 Q855.592 1545.81 856.111 1542.52 Q856.679 1539.29 856.654 1532.05 Q856.654 1525.01 856.16 1522.19 Q855.493 1518.91 853.714 1517.6 Q851.96 1516.26 850.182 1516.26 Q849.515 1516.26 848.798 1516.46 Q848.107 1516.66 847.094 1517.23 Q846.081 1517.8 845.29 1519.2 Q844.525 1520.61 844.154 1522.74 Q843.759 1525.48 843.759 1532.05 Z" fill="#000000" fill-rule="nonzero" fill-opacity="1" /><path clip-path="url(#clip410)" d="M1144.73 1542.03 Q1144.73 1540.52 1145.59 1539.81 Q1146.46 1539.09 1147.57 1539.09 Q1148.73 1539.09 1149.55 1539.86 Q1150.39 1540.6 1150.39 1541.91 Q1150.39 1543.31 1149.4 1544.1 Q1148.44 1544.9 1147.05 1544.7 Q1148.26 1546.72 1150.49 1547.64 Q1152.73 1548.55 1154.81 1548.55 Q1156.98 1548.55 1158.74 1546.67 Q1160.52 1544.8 1160.52 1540.2 Q1160.52 1536.3 1158.98 1534.05 Q1157.48 1531.8 1154.49 1531.8 L1152.26 1531.8 Q1151.5 1531.8 1151.28 1531.73 Q1151.05 1531.65 1151.05 1531.23 Q1151.05 1530.74 1151.82 1530.64 Q1152.59 1530.64 1153.8 1530.49 Q1156.74 1530.39 1158.29 1527.85 Q1159.7 1525.48 1159.7 1522.09 Q1159.7 1519.01 1158.22 1517.72 Q1156.76 1516.41 1154.86 1516.41 Q1153.08 1516.41 1151.13 1517.15 Q1149.18 1517.89 1148.11 1519.55 Q1151.25 1519.55 1151.25 1522.09 Q1151.25 1523.21 1150.54 1523.95 Q1149.84 1524.66 1148.68 1524.66 Q1147.57 1524.66 1146.83 1523.97 Q1146.09 1523.26 1146.09 1522.04 Q1146.09 1519.15 1148.66 1517.15 Q1151.25 1515.15 1155.06 1515.15 Q1158.81 1515.15 1161.58 1517.13 Q1164.37 1519.11 1164.37 1522.14 Q1164.37 1525.13 1162.39 1527.58 Q1160.42 1530.02 1157.28 1531.04 Q1161.13 1531.8 1163.43 1534.42 Q1165.73 1537.01 1165.73 1540.2 Q1165.73 1544.15 1162.62 1547.07 Q1159.5 1549.96 1154.96 1549.96 Q1150.76 1549.96 1147.74 1547.69 Q1144.73 1545.41 1144.73 1542.03 Z" fill="#000000" fill-rule="nonzero" fill-opacity="1" /><path clip-path="url(#clip410)" d="M1169.88 1532.67 Q1169.88 1525.23 1171.76 1521.18 Q1174.37 1515.15 1180.55 1515.15 Q1181.86 1515.15 1183.22 1515.52 Q1184.6 1515.87 1186.33 1517.23 Q1188.08 1518.59 1189.15 1520.81 Q1191.17 1525.11 1191.17 1532.67 Q1191.17 1540.05 1189.29 1544.08 Q1186.55 1549.96 1180.5 1549.96 Q1178.23 1549.96 1175.91 1548.8 Q1173.61 1547.64 1172.15 1544.85 Q1169.88 1540.67 1169.88 1532.67 M1174.08 1532.05 Q1174.08 1539.68 1174.62 1542.72 Q1175.24 1546.01 1176.92 1547.44 Q1178.62 1548.85 1180.5 1548.85 Q1182.53 1548.85 1184.21 1547.34 Q1185.91 1545.81 1186.43 1542.52 Q1187 1539.29 1186.97 1532.05 Q1186.97 1525.01 1186.48 1522.19 Q1185.81 1518.91 1184.03 1517.6 Q1182.28 1516.26 1180.5 1516.26 Q1179.83 1516.26 1179.12 1516.46 Q1178.43 1516.66 1177.41 1517.23 Q1176.4 1517.8 1175.61 1519.2 Q1174.84 1520.61 1174.47 1522.74 Q1174.08 1525.48 1174.08 1532.05 Z" fill="#000000" fill-rule="nonzero" fill-opacity="1" /><path clip-path="url(#clip410)" d="M1474.49 1540.5 L1474.49 1538.94 L1490.03 1515.2 Q1490.43 1514.58 1491.04 1514.61 Q1491.61 1514.61 1491.74 1514.83 Q1491.86 1515.05 1491.86 1515.92 L1491.86 1538.94 L1496.92 1538.94 L1496.92 1540.5 L1491.86 1540.5 L1491.86 1544.9 Q1491.86 1546.35 1492.45 1546.82 Q1493.07 1547.29 1495.69 1547.29 L1496.75 1547.29 L1496.75 1548.85 Q1494.68 1548.7 1489.88 1548.7 Q1485.12 1548.7 1483.04 1548.85 L1483.04 1547.29 L1484.1 1547.29 Q1486.72 1547.29 1487.34 1546.85 Q1487.96 1546.38 1487.96 1544.9 L1487.96 1540.5 L1474.49 1540.5 M1475.93 1538.94 L1488.25 1538.94 L1488.25 1520.07 L1475.93 1538.94 Z" fill="#000000" fill-rule="nonzero" fill-opacity="1" /><path clip-path="url(#clip410)" d="M1500.36 1532.67 Q1500.36 1525.23 1502.23 1521.18 Q1504.85 1515.15 1511.03 1515.15 Q1512.34 1515.15 1513.7 1515.52 Q1515.08 1515.87 1516.81 1517.23 Q1518.56 1518.59 1519.63 1520.81 Q1521.65 1525.11 1521.65 1532.67 Q1521.65 1540.05 1519.77 1544.08 Q1517.03 1549.96 1510.98 1549.96 Q1508.71 1549.96 1506.39 1548.8 Q1504.09 1547.64 1502.63 1544.85 Q1500.36 1540.67 1500.36 1532.67 M1504.56 1532.05 Q1504.56 1539.68 1505.1 1542.72 Q1505.72 1546.01 1507.4 1547.44 Q1509.1 1548.85 1510.98 1548.85 Q1513.01 1548.85 1514.69 1547.34 Q1516.39 1545.81 1516.91 1542.52 Q1517.48 1539.29 1517.45 1532.05 Q1517.45 1525.01 1516.96 1522.19 Q1516.29 1518.91 1514.51 1517.6 Q1512.76 1516.26 1510.98 1516.26 Q1510.31 1516.26 1509.6 1516.46 Q1508.9 1516.66 1507.89 1517.23 Q1506.88 1517.8 1506.09 1519.2 Q1505.32 1520.61 1504.95 1522.74 Q1504.56 1525.48 1504.56 1532.05 Z" fill="#000000" fill-rule="nonzero" fill-opacity="1" /><path clip-path="url(#clip410)" d="M1805.17 1540.7 Q1805.17 1539.19 1805.99 1538.62 Q1806.8 1538.03 1807.66 1538.03 Q1808.83 1538.03 1809.49 1538.77 Q1810.18 1539.49 1810.18 1540.5 Q1810.18 1541.51 1809.49 1542.25 Q1808.83 1542.97 1807.66 1542.97 Q1807.1 1542.97 1806.8 1542.87 Q1807.47 1545.19 1809.49 1546.87 Q1811.54 1548.55 1814.24 1548.55 Q1817.62 1548.55 1819.65 1545.27 Q1820.86 1543.14 1820.86 1538.32 Q1820.86 1534.08 1819.94 1531.95 Q1818.53 1528.71 1815.64 1528.71 Q1811.54 1528.71 1809.12 1532.25 Q1808.83 1532.69 1808.48 1532.72 Q1807.99 1532.72 1807.86 1532.44 Q1807.76 1532.15 1807.76 1531.38 L1807.76 1516.41 Q1807.76 1515.2 1808.26 1515.2 Q1808.46 1515.2 1808.88 1515.35 Q1812.06 1516.76 1815.59 1516.78 Q1819.23 1516.78 1822.49 1515.3 Q1822.73 1515.15 1822.88 1515.15 Q1823.38 1515.15 1823.4 1515.72 Q1823.4 1515.92 1822.98 1516.51 Q1822.59 1517.08 1821.72 1517.85 Q1820.86 1518.59 1819.74 1519.3 Q1818.63 1520.02 1817 1520.51 Q1815.4 1520.98 1813.62 1520.98 Q1811.49 1520.98 1809.32 1520.32 L1809.32 1530.17 Q1811.94 1527.6 1815.74 1527.6 Q1819.79 1527.6 1822.59 1530.86 Q1825.38 1534.12 1825.38 1538.67 Q1825.38 1543.44 1822.07 1546.7 Q1818.78 1549.96 1814.33 1549.96 Q1810.28 1549.96 1807.71 1547.07 Q1805.17 1544.18 1805.17 1540.7 Z" fill="#000000" fill-rule="nonzero" fill-opacity="1" /><path clip-path="url(#clip410)" d="M1829.92 1532.67 Q1829.92 1525.23 1831.8 1521.18 Q1834.42 1515.15 1840.59 1515.15 Q1841.9 1515.15 1843.26 1515.52 Q1844.65 1515.87 1846.38 1517.23 Q1848.13 1518.59 1849.19 1520.81 Q1851.22 1525.11 1851.22 1532.67 Q1851.22 1540.05 1849.34 1544.08 Q1846.6 1549.96 1840.55 1549.96 Q1838.27 1549.96 1835.95 1548.8 Q1833.65 1547.64 1832.2 1544.85 Q1829.92 1540.67 1829.92 1532.67 M1834.12 1532.05 Q1834.12 1539.68 1834.67 1542.72 Q1835.28 1546.01 1836.96 1547.44 Q1838.67 1548.85 1840.55 1548.85 Q1842.57 1548.85 1844.25 1547.34 Q1845.96 1545.81 1846.47 1542.52 Q1847.04 1539.29 1847.02 1532.05 Q1847.02 1525.01 1846.52 1522.19 Q1845.86 1518.91 1844.08 1517.6 Q1842.32 1516.26 1840.55 1516.26 Q1839.88 1516.26 1839.16 1516.46 Q1838.47 1516.66 1837.46 1517.23 Q1836.44 1517.8 1835.65 1519.2 Q1834.89 1520.61 1834.52 1522.74 Q1834.12 1525.48 1834.12 1532.05 Z" fill="#000000" fill-rule="nonzero" fill-opacity="1" /><path clip-path="url(#clip410)" d="M2135.09 1532.86 Q2135.09 1524.91 2139.14 1520.04 Q2143.2 1515.15 2148.41 1515.15 Q2151.45 1515.15 2153.13 1516.71 Q2154.83 1518.24 2154.83 1520.61 Q2154.83 1521.92 2154.07 1522.49 Q2153.3 1523.06 2152.51 1523.06 Q2151.6 1523.06 2150.88 1522.44 Q2150.16 1521.82 2150.16 1520.71 Q2150.16 1518.44 2152.95 1518.44 Q2151.64 1516.41 2148.51 1516.41 Q2147.54 1516.41 2146.56 1516.71 Q2145.57 1516.98 2144.28 1517.92 Q2143 1518.86 2142.01 1520.34 Q2141.02 1521.82 2140.33 1524.61 Q2139.64 1527.41 2139.64 1531.04 L2139.64 1532.25 Q2141.71 1527.23 2145.96 1527.26 Q2150.21 1527.26 2153.15 1530.49 Q2156.09 1533.73 2156.09 1538.52 Q2156.09 1543.44 2153.03 1546.7 Q2149.96 1549.96 2145.67 1549.96 Q2143.74 1549.96 2141.99 1549.14 Q2140.26 1548.35 2138.63 1546.53 Q2137.02 1544.7 2136.06 1541.19 Q2135.09 1537.68 2135.09 1532.86 M2139.74 1537.41 Q2139.74 1542.38 2140.65 1544.75 Q2140.8 1545.14 2141.12 1545.69 Q2141.47 1546.23 2142.04 1546.95 Q2142.63 1547.64 2143.59 1548.11 Q2144.55 1548.55 2145.67 1548.55 Q2149.05 1548.55 2150.68 1545.27 Q2151.55 1543.44 2151.55 1538.47 Q2151.55 1533.41 2150.63 1531.56 Q2149.08 1528.42 2145.91 1528.42 Q2143.79 1528.42 2142.31 1529.88 Q2140.85 1531.33 2140.28 1533.28 Q2139.74 1535.24 2139.74 1537.41 Z" fill="#000000" fill-rule="nonzero" fill-opacity="1" /><path clip-path="url(#clip410)" d="M2160.24 1532.67 Q2160.24 1525.23 2162.12 1521.18 Q2164.74 1515.15 2170.91 1515.15 Q2172.22 1515.15 2173.58 1515.52 Q2174.96 1515.87 2176.69 1517.23 Q2178.45 1518.59 2179.51 1520.81 Q2181.54 1525.11 2181.54 1532.67 Q2181.54 1540.05 2179.66 1544.08 Q2176.92 1549.96 2170.86 1549.96 Q2168.59 1549.96 2166.27 1548.8 Q2163.97 1547.64 2162.51 1544.85 Q2160.24 1540.67 2160.24 1532.67 M2164.44 1532.05 Q2164.44 1539.68 2164.98 1542.72 Q2165.6 1546.01 2167.28 1547.44 Q2168.99 1548.85 2170.86 1548.85 Q2172.89 1548.85 2174.57 1547.34 Q2176.27 1545.81 2176.79 1542.52 Q2177.36 1539.29 2177.34 1532.05 Q2177.34 1525.01 2176.84 1522.19 Q2176.18 1518.91 2174.4 1517.6 Q2172.64 1516.26 2170.86 1516.26 Q2170.2 1516.26 2169.48 1516.46 Q2168.79 1516.66 2167.78 1517.23 Q2166.76 1517.8 2165.97 1519.2 Q2165.21 1520.61 2164.84 1522.74 Q2164.44 1525.48 2164.44 1532.05 Z" fill="#000000" fill-rule="nonzero" fill-opacity="1" /><polyline clip-path="url(#clip412)" style="stroke:#000000; stroke-linecap:round; stroke-linejoin:round; stroke-width:2; stroke-opacity:0.1; fill:none" points="148.207,1445.72 2352.76,1445.72 "/>
<polyline clip-path="url(#clip412)" style="stroke:#000000; stroke-linecap:round; stroke-linejoin:round; stroke-width:2; stroke-opacity:0.1; fill:none" points="148.207,1046.47 2352.76,1046.47 "/>
<polyline clip-path="url(#clip412)" style="stroke:#000000; stroke-linecap:round; stroke-linejoin:round; stroke-width:2; stroke-opacity:0.1; fill:none" points="148.207,647.23 2352.76,647.23 "/>
<polyline clip-path="url(#clip412)" style="stroke:#000000; stroke-linecap:round; stroke-linejoin:round; stroke-width:2; stroke-opacity:0.1; fill:none" points="148.207,247.987 2352.76,247.987 "/>
<polyline clip-path="url(#clip410)" style="stroke:#000000; stroke-linecap:round; stroke-linejoin:round; stroke-width:4; stroke-opacity:1; fill:none" points="148.207,1486.45 148.207,47.2441 "/>
<polyline clip-path="url(#clip410)" style="stroke:#000000; stroke-linecap:round; stroke-linejoin:round; stroke-width:4; stroke-opacity:1; fill:none" points="148.207,1445.72 167.105,1445.72 "/>
<polyline clip-path="url(#clip410)" style="stroke:#000000; stroke-linecap:round; stroke-linejoin:round; stroke-width:4; stroke-opacity:1; fill:none" points="148.207,1046.47 167.105,1046.47 "/>
<polyline clip-path="url(#clip410)" style="stroke:#000000; stroke-linecap:round; stroke-linejoin:round; stroke-width:4; stroke-opacity:1; fill:none" points="148.207,647.23 167.105,647.23 "/>
<polyline clip-path="url(#clip410)" style="stroke:#000000; stroke-linecap:round; stroke-linejoin:round; stroke-width:4; stroke-opacity:1; fill:none" points="148.207,247.987 167.105,247.987 "/>
<path clip-path="url(#clip410)" d="M51.5603 1446.81 Q51.5603 1439.38 53.4378 1435.33 Q56.0563 1429.3 62.2322 1429.3 Q63.5414 1429.3 64.9001 1429.67 Q66.2835 1430.02 68.0127 1431.38 Q69.7667 1432.73 70.8289 1434.96 Q72.8546 1439.26 72.8546 1446.81 Q72.8546 1454.2 70.9771 1458.23 Q68.2351 1464.11 62.1827 1464.11 Q59.91 1464.11 57.5879 1462.95 Q55.2905 1461.79 53.833 1458.99 Q51.5603 1454.82 51.5603 1446.81 M55.7599 1446.2 Q55.7599 1453.83 56.3033 1456.87 Q56.9209 1460.15 58.6008 1461.59 Q60.3053 1463 62.1827 1463 Q64.2084 1463 65.8883 1461.49 Q67.5928 1459.96 68.1116 1456.67 Q68.6797 1453.44 68.655 1446.2 Q68.655 1439.16 68.161 1436.34 Q67.494 1433.06 65.7153 1431.75 Q63.9614 1430.41 62.1827 1430.41 Q61.5158 1430.41 60.7994 1430.61 Q60.1077 1430.81 59.0948 1431.38 Q58.082 1431.94 57.2915 1433.35 Q56.5257 1434.76 56.1551 1436.88 Q55.7599 1439.63 55.7599 1446.2 Z" fill="#000000" fill-rule="nonzero" fill-opacity="1" /><path clip-path="url(#clip410)" d="M79.9445 1462.18 Q79.1787 1461.37 79.1787 1460.3 Q79.1787 1459.24 79.9445 1458.47 Q80.7103 1457.68 81.8713 1457.68 Q82.983 1457.68 83.7241 1458.43 Q84.4899 1459.14 84.4899 1460.33 Q84.4899 1461.49 83.6747 1462.25 Q82.8842 1463 81.8713 1463 Q80.7103 1463 79.9445 1462.18 Z" fill="#000000" fill-rule="nonzero" fill-opacity="1" /><path clip-path="url(#clip410)" d="M90.9128 1446.81 Q90.9128 1439.38 92.7902 1435.33 Q95.4088 1429.3 101.585 1429.3 Q102.894 1429.3 104.253 1429.67 Q105.636 1430.02 107.365 1431.38 Q109.119 1432.73 110.181 1434.96 Q112.207 1439.26 112.207 1446.81 Q112.207 1454.2 110.33 1458.23 Q107.588 1464.11 101.535 1464.11 Q99.2625 1464.11 96.9404 1462.95 Q94.643 1461.79 93.1855 1458.99 Q90.9128 1454.82 90.9128 1446.81 M95.1123 1446.2 Q95.1123 1453.83 95.6558 1456.87 Q96.2734 1460.15 97.9532 1461.59 Q99.6577 1463 101.535 1463 Q103.561 1463 105.241 1461.49 Q106.945 1459.96 107.464 1456.67 Q108.032 1453.44 108.007 1446.2 Q108.007 1439.16 107.513 1436.34 Q106.846 1433.06 105.068 1431.75 Q103.314 1430.41 101.535 1430.41 Q100.868 1430.41 100.152 1430.61 Q99.4601 1430.81 98.4473 1431.38 Q97.4344 1431.94 96.6439 1433.35 Q95.8781 1434.76 95.5076 1436.88 Q95.1123 1439.63 95.1123 1446.2 Z" fill="#000000" fill-rule="nonzero" fill-opacity="1" /><path clip-path="url(#clip410)" d="M52.1038 1047.57 Q52.1038 1040.14 53.9812 1036.08 Q56.5998 1030.06 62.7756 1030.06 Q64.0849 1030.06 65.4436 1030.43 Q66.827 1030.77 68.5562 1032.13 Q70.3102 1033.49 71.3724 1035.71 Q73.3981 1040.01 73.3981 1047.57 Q73.3981 1054.96 71.5206 1058.98 Q68.7785 1064.86 62.7262 1064.86 Q60.4535 1064.86 58.1314 1063.7 Q55.834 1062.54 54.3765 1059.75 Q52.1038 1055.58 52.1038 1047.57 M56.3033 1046.95 Q56.3033 1054.59 56.8468 1057.63 Q57.4644 1060.91 59.1442 1062.34 Q60.8488 1063.75 62.7262 1063.75 Q64.7519 1063.75 66.4317 1062.25 Q68.1363 1060.71 68.655 1057.43 Q69.2232 1054.19 69.1985 1046.95 Q69.1985 1039.91 68.7044 1037.1 Q68.0374 1033.81 66.2588 1032.5 Q64.5049 1031.17 62.7262 1031.17 Q62.0592 1031.17 61.3428 1031.37 Q60.6511 1031.56 59.6383 1032.13 Q58.6255 1032.7 57.835 1034.11 Q57.0692 1035.52 56.6986 1037.64 Q56.3033 1040.38 56.3033 1046.95 Z" fill="#000000" fill-rule="nonzero" fill-opacity="1" /><path clip-path="url(#clip410)" d="M80.4879 1062.94 Q79.7221 1062.12 79.7221 1061.06 Q79.7221 1060 80.4879 1059.23 Q81.2537 1058.44 82.4148 1058.44 Q83.5265 1058.44 84.2676 1059.18 Q85.0334 1059.9 85.0334 1061.08 Q85.0334 1062.25 84.2181 1063.01 Q83.4276 1063.75 82.4148 1063.75 Q81.2537 1063.75 80.4879 1062.94 Z" fill="#000000" fill-rule="nonzero" fill-opacity="1" /><path clip-path="url(#clip410)" d="M91.9997 1063.75 Q91.9997 1062.84 92.0738 1062.57 Q92.1726 1062.3 92.5679 1061.88 L102.276 1051.06 Q107.588 1045.08 107.588 1039.86 Q107.588 1036.48 105.809 1034.06 Q104.055 1031.64 100.819 1031.64 Q98.5955 1031.64 96.718 1033 Q94.8406 1034.36 93.976 1036.78 Q94.1242 1036.73 94.643 1036.73 Q95.9028 1036.73 96.5945 1037.52 Q97.3109 1038.31 97.3109 1039.37 Q97.3109 1040.73 96.4216 1041.4 Q95.557 1042.04 94.6924 1042.04 Q94.3465 1042.04 93.8772 1041.96 Q93.4325 1041.89 92.7161 1041.2 Q91.9997 1040.48 91.9997 1039.22 Q91.9997 1035.69 94.6677 1032.87 Q97.3603 1030.06 101.461 1030.06 Q106.105 1030.06 109.144 1032.82 Q112.207 1035.57 112.207 1039.86 Q112.207 1041.37 111.738 1042.75 Q111.293 1044.11 110.675 1045.18 Q110.083 1046.24 108.452 1047.94 Q106.822 1049.65 105.512 1050.86 Q104.203 1052.07 101.263 1054.64 L95.9028 1059.85 L105.018 1059.85 Q109.465 1059.85 109.811 1059.45 Q110.305 1058.74 110.922 1054.96 L112.207 1054.96 L110.774 1063.75 L91.9997 1063.75 Z" fill="#000000" fill-rule="nonzero" fill-opacity="1" /><path clip-path="url(#clip410)" d="M50.9921 648.329 Q50.9921 640.893 52.8696 636.842 Q55.4881 630.814 61.664 630.814 Q62.9733 630.814 64.3319 631.185 Q65.7153 631.531 67.4446 632.889 Q69.1985 634.248 70.2607 636.471 Q72.2864 640.77 72.2864 648.329 Q72.2864 655.715 70.409 659.742 Q67.6669 665.621 61.6146 665.621 Q59.3419 665.621 57.0197 664.46 Q54.7223 663.299 53.2648 660.508 Q50.9921 656.333 50.9921 648.329 M55.1917 647.711 Q55.1917 655.345 55.7352 658.383 Q56.3528 661.669 58.0326 663.102 Q59.7371 664.51 61.6146 664.51 Q63.6402 664.51 65.3201 663.003 Q67.0246 661.471 67.5434 658.186 Q68.1116 654.95 68.0869 647.711 Q68.0869 640.671 67.5928 637.855 Q66.9258 634.569 65.1472 633.26 Q63.3932 631.926 61.6146 631.926 Q60.9476 631.926 60.2312 632.124 Q59.5395 632.321 58.5267 632.889 Q57.5138 633.458 56.7233 634.866 Q55.9575 636.274 55.587 638.398 Q55.1917 641.14 55.1917 647.711 Z" fill="#000000" fill-rule="nonzero" fill-opacity="1" /><path clip-path="url(#clip410)" d="M79.3763 663.695 Q78.6105 662.879 78.6105 661.817 Q78.6105 660.755 79.3763 659.989 Q80.1421 659.199 81.3031 659.199 Q82.4148 659.199 83.1559 659.94 Q83.9217 660.656 83.9217 661.842 Q83.9217 663.003 83.1065 663.769 Q82.316 664.51 81.3031 664.51 Q80.1421 664.51 79.3763 663.695 Z" fill="#000000" fill-rule="nonzero" fill-opacity="1" /><path clip-path="url(#clip410)" d="M89.7764 656.16 L89.7764 654.604 L105.315 630.864 Q105.71 630.246 106.328 630.271 Q106.896 630.271 107.019 630.493 Q107.143 630.716 107.143 631.58 L107.143 654.604 L112.207 654.604 L112.207 656.16 L107.143 656.16 L107.143 660.557 Q107.143 662.015 107.736 662.484 Q108.353 662.953 110.972 662.953 L112.034 662.953 L112.034 664.51 Q109.959 664.362 105.167 664.362 Q100.399 664.362 98.3238 664.51 L98.3238 662.953 L99.386 662.953 Q102.005 662.953 102.622 662.509 Q103.24 662.039 103.24 660.557 L103.24 656.16 L89.7764 656.16 M91.2092 654.604 L103.536 654.604 L103.536 635.73 L91.2092 654.604 Z" fill="#000000" fill-rule="nonzero" fill-opacity="1" /><path clip-path="url(#clip410)" d="M51.7085 249.086 Q51.7085 241.65 53.586 237.599 Q56.2045 231.571 62.3804 231.571 Q63.6897 231.571 65.0483 231.942 Q66.4317 232.288 68.161 233.646 Q69.9149 235.005 70.9771 237.228 Q73.0028 241.527 73.0028 249.086 Q73.0028 256.472 71.1254 260.499 Q68.3833 266.378 62.331 266.378 Q60.0583 266.378 57.7361 265.217 Q55.4387 264.056 53.9812 261.265 Q51.7085 257.09 51.7085 249.086 M55.9081 248.468 Q55.9081 256.102 56.4516 259.14 Q57.0692 262.426 58.749 263.859 Q60.4535 265.267 62.331 265.267 Q64.3566 265.267 66.0365 263.76 Q67.741 262.228 68.2598 258.943 Q68.828 255.707 68.8032 248.468 Q68.8032 241.428 68.3092 238.612 Q67.6422 235.326 65.8635 234.017 Q64.1096 232.683 62.331 232.683 Q61.664 232.683 60.9476 232.881 Q60.2559 233.078 59.243 233.646 Q58.2302 234.215 57.4397 235.623 Q56.6739 237.031 56.3033 239.155 Q55.9081 241.897 55.9081 248.468 Z" fill="#000000" fill-rule="nonzero" fill-opacity="1" /><path clip-path="url(#clip410)" d="M80.0927 264.452 Q79.3269 263.636 79.3269 262.574 Q79.3269 261.512 80.0927 260.746 Q80.8585 259.956 82.0195 259.956 Q83.1312 259.956 83.8723 260.697 Q84.6381 261.413 84.6381 262.599 Q84.6381 263.76 83.8229 264.526 Q83.0324 265.267 82.0195 265.267 Q80.8585 265.267 80.0927 264.452 Z" fill="#000000" fill-rule="nonzero" fill-opacity="1" /><path clip-path="url(#clip410)" d="M91.2092 249.284 Q91.2092 241.329 95.2605 236.463 Q99.3119 231.571 104.524 231.571 Q107.563 231.571 109.243 233.128 Q110.947 234.659 110.947 237.031 Q110.947 238.34 110.181 238.908 Q109.416 239.476 108.625 239.476 Q107.711 239.476 106.995 238.859 Q106.278 238.241 106.278 237.13 Q106.278 234.857 109.07 234.857 Q107.76 232.831 104.623 232.831 Q103.66 232.831 102.672 233.128 Q101.683 233.399 100.399 234.338 Q99.1143 235.277 98.1261 236.759 Q97.138 238.241 96.4463 241.033 Q95.7546 243.824 95.7546 247.456 L95.7546 248.666 Q97.8297 243.651 102.079 243.676 Q106.328 243.676 109.267 246.912 Q112.207 250.148 112.207 254.941 Q112.207 259.857 109.144 263.118 Q106.081 266.378 101.782 266.378 Q99.8554 266.378 98.1014 265.563 Q96.3722 264.773 94.7418 262.945 Q93.1361 261.117 92.1726 257.609 Q91.2092 254.101 91.2092 249.284 M95.8534 253.829 Q95.8534 258.794 96.7675 261.166 Q96.9157 261.561 97.2368 262.105 Q97.5827 262.648 98.1508 263.365 Q98.7437 264.056 99.7072 264.526 Q100.671 264.97 101.782 264.97 Q105.167 264.97 106.797 261.685 Q107.662 259.857 107.662 254.891 Q107.662 249.827 106.748 247.974 Q105.191 244.837 102.029 244.837 Q99.9048 244.837 98.4226 246.295 Q96.9651 247.752 96.3969 249.704 Q95.8534 251.655 95.8534 253.829 Z" fill="#000000" fill-rule="nonzero" fill-opacity="1" /><polyline clip-path="url(#clip412)" style="stroke:#009af9; stroke-linecap:round; stroke-linejoin:round; stroke-width:4; stroke-opacity:1; fill:none" points="210.6,1445.72 243.612,1445.72 276.624,1445.72 309.636,1445.72 342.648,1445.72 375.661,1445.72 408.673,1445.72 441.685,1445.72 474.697,1445.72 507.709,1445.72 540.721,1445.72 573.733,1445.72 606.745,1445.72 639.757,1445.72 672.77,1445.72 705.782,1445.72 738.794,1445.72 771.806,1445.72 804.818,1445.72 837.83,1445.72 870.842,1445.72 903.854,1445.72 936.866,1445.72 969.879,1445.72 1002.89,1445.72 1035.9,1445.72 1068.91,1445.72 1101.93,1445.72 1134.94,1445.72 1167.95,1445.72 1200.96,1445.72 1233.98,1445.72 1266.99,1445.72 1300,1445.72 1333.01,1445.72 1366.02,1445.72 1399.04,1445.72 1432.05,1445.72 1465.06,1445.72 1498.07,1445.72 1531.08,1445.72 1564.1,1445.72 1597.11,1445.72 1630.12,1445.72 1663.13,1445.72 1696.14,1445.72 1729.16,1445.72 1762.17,1445.72 1795.18,1445.72 1828.19,1445.72 1861.21,1445.72 1894.22,1445.72 1927.23,1445.72 1960.24,1445.72 1993.25,1445.72 2026.27,1445.72 2059.28,1445.72 2092.29,1445.72 2125.3,1445.72 2158.31,1445.72 2191.33,1445.72 2224.34,1445.72 2257.35,1445.72 "/>
<polyline clip-path="url(#clip412)" style="stroke:#e26f46; stroke-linecap:round; stroke-linejoin:round; stroke-width:4; stroke-opacity:1; fill:none" points="210.6,87.9763 243.612,270.504 276.624,423.957 309.636,553.34 342.648,662.763 375.661,755.608 408.673,834.659 441.685,902.208 474.697,960.148 507.709,1010.04 540.721,1053.18 573.733,1090.63 606.745,1123.28 639.757,1151.87 672.77,1177.01 705.782,1199.2 738.794,1218.88 771.806,1236.4 804.818,1252.06 837.83,1266.11 870.842,1278.77 903.854,1290.2 936.866,1300.57 969.879,1310.01 1002.89,1318.62 1035.9,1326.5 1068.91,1333.74 1101.93,1340.39 1134.94,1346.53 1167.95,1352.21 1200.96,1357.46 1233.98,1362.34 1266.99,1366.88 1300,1371.1 1333.01,1375.05 1366.02,1378.73 1399.04,1382.18 1432.05,1385.41 1465.06,1388.44 1498.07,1391.29 1531.08,1393.96 1564.1,1396.48 1597.11,1398.86 1630.12,1401.09 1663.13,1403.21 1696.14,1405.2 1729.16,1407.09 1762.17,1408.87 1795.18,1410.56 1828.19,1412.16 1861.21,1413.67 1894.22,1415.11 1927.23,1416.47 1960.24,1417.76 1993.25,1418.97 2026.27,1420.1 2059.28,1421.12 2092.29,1421.93 2125.3,1422.22 2158.31,1421.04 2191.33,1415.66 2224.34,1400.55 2257.35,1366.48 2290.36,1297.04 "/>
<path clip-path="url(#clip410)" d="M1895.6 250.738 L2279.27 250.738 L2279.27 95.2176 L1895.6 95.2176  Z" fill="#ffffff" fill-rule="evenodd" fill-opacity="1"/>
<polyline clip-path="url(#clip410)" style="stroke:#000000; stroke-linecap:round; stroke-linejoin:round; stroke-width:4; stroke-opacity:1; fill:none" points="1895.6,250.738 2279.27,250.738 2279.27,95.2176 1895.6,95.2176 1895.6,250.738 "/>
<polyline clip-path="url(#clip410)" style="stroke:#009af9; stroke-linecap:round; stroke-linejoin:round; stroke-width:4; stroke-opacity:1; fill:none" points="1920.1,147.058 2067.07,147.058 "/>
<path clip-path="url(#clip410)" d="M2094.9 161.62 Q2091.56 158.31 2091.56 153.517 Q2091.56 148.7 2094.82 145.192 Q2098.11 141.66 2102.8 141.66 Q2107.4 141.66 2110.68 145.168 Q2113.99 148.651 2113.99 153.517 Q2113.99 158.285 2110.66 161.595 Q2107.35 164.906 2102.75 164.906 Q2098.26 164.906 2094.9 161.62 M2095.76 153.098 Q2095.76 158.013 2097.05 160.237 Q2099.02 163.621 2102.8 163.621 Q2104.68 163.621 2106.23 162.608 Q2107.82 161.595 2108.68 159.891 Q2109.79 157.668 2109.79 153.098 Q2109.79 148.231 2108.46 146.082 Q2106.48 142.796 2102.75 142.796 Q2101.12 142.796 2099.52 143.661 Q2097.93 144.501 2096.97 146.181 Q2095.76 148.404 2095.76 153.098 Z" fill="#000000" fill-rule="nonzero" fill-opacity="1" /><path clip-path="url(#clip410)" d="M2116.86 164.338 L2116.86 162.781 Q2119.55 162.781 2120.17 162.46 Q2120.81 162.114 2120.81 160.484 L2120.81 146.922 Q2120.81 145.044 2120.14 144.575 Q2119.5 144.106 2116.86 144.106 L2116.86 142.524 L2123.9 141.981 L2123.9 147.539 Q2124.61 145.365 2126.12 143.686 Q2127.65 141.981 2130.12 141.981 Q2131.75 141.981 2132.79 142.895 Q2133.85 143.809 2133.85 145.069 Q2133.85 146.181 2133.16 146.749 Q2132.49 147.292 2131.68 147.292 Q2130.77 147.292 2130.12 146.724 Q2129.51 146.131 2129.51 145.118 Q2129.51 144.501 2129.78 144.031 Q2130.07 143.537 2130.3 143.364 Q2130.52 143.191 2130.67 143.142 Q2130.57 143.093 2130.12 143.093 Q2127.33 143.093 2125.73 145.884 Q2124.14 148.651 2124.14 152.603 L2124.14 160.385 Q2124.14 161.843 2124.74 162.312 Q2125.36 162.781 2128 162.781 L2129.06 162.781 L2129.06 164.338 Q2127.03 164.189 2122.64 164.189 Q2122.02 164.189 2121.06 164.214 Q2120.09 164.239 2118.83 164.288 Q2117.57 164.338 2116.86 164.338 Z" fill="#000000" fill-rule="nonzero" fill-opacity="1" /><path clip-path="url(#clip410)" d="M2136.89 164.338 L2136.89 162.781 Q2139.58 162.781 2140.2 162.46 Q2140.82 162.114 2140.82 160.484 L2140.82 146.872 Q2140.82 144.995 2140.18 144.55 Q2139.56 144.106 2137.09 144.106 L2137.09 142.524 L2144.15 141.981 L2144.15 160.533 Q2144.15 162.04 2144.7 162.411 Q2145.24 162.781 2147.71 162.781 L2147.71 164.338 Q2142.55 164.189 2142.45 164.189 Q2141.76 164.189 2136.89 164.338 M2139.02 133.162 Q2139.02 132.149 2139.78 131.334 Q2140.57 130.494 2141.68 130.494 Q2142.8 130.494 2143.59 131.26 Q2144.38 132.001 2144.38 133.187 Q2144.38 134.348 2143.59 135.113 Q2142.8 135.855 2141.68 135.855 Q2140.52 135.855 2139.76 135.039 Q2139.02 134.224 2139.02 133.162 Z" fill="#000000" fill-rule="nonzero" fill-opacity="1" /><path clip-path="url(#clip410)" d="M2150.63 168.339 Q2150.63 166.709 2151.86 165.301 Q2153.12 163.893 2155.3 163.275 Q2153.07 161.867 2153.07 158.779 Q2153.07 156.408 2154.63 154.58 Q2152.26 152.603 2152.26 149.367 Q2152.26 146.378 2154.63 144.18 Q2157 141.981 2160.46 141.981 Q2163.5 141.981 2165.82 143.809 Q2168.24 141.438 2171.18 141.413 Q2172.49 141.413 2173.11 142.228 Q2173.75 143.043 2173.75 143.908 Q2173.75 144.674 2173.25 145.044 Q2172.79 145.415 2172.29 145.415 Q2171.67 145.415 2171.23 145.02 Q2170.81 144.6 2170.81 143.957 Q2170.81 142.895 2171.62 142.574 Q2171.48 142.524 2171.13 142.524 Q2168.66 142.524 2166.56 144.501 Q2168.64 146.428 2168.64 149.417 Q2168.64 152.406 2166.26 154.604 Q2163.89 156.803 2160.46 156.803 Q2157.62 156.803 2155.44 155.222 Q2154.58 156.235 2154.58 157.618 Q2154.58 158.878 2155.34 159.866 Q2156.11 160.854 2157.27 161.003 Q2157.62 161.052 2161.05 161.052 Q2163.08 161.052 2164.19 161.101 Q2165.3 161.151 2166.88 161.497 Q2168.49 161.818 2169.75 162.46 Q2173.03 164.288 2173.06 168.241 Q2173.06 171.131 2169.72 172.934 Q2166.41 174.762 2161.82 174.762 Q2157.17 174.762 2153.89 172.91 Q2150.63 171.082 2150.63 168.339 M2153.27 168.339 Q2153.27 170.415 2155.72 171.996 Q2158.16 173.601 2161.87 173.601 Q2165.5 173.601 2167.94 172.02 Q2170.41 170.464 2170.41 168.339 Q2170.41 166.833 2169.55 165.869 Q2168.68 164.906 2166.91 164.51 Q2165.15 164.14 2163.92 164.066 Q2162.68 163.992 2160.41 163.992 L2157.42 163.992 Q2155.69 164.091 2154.48 165.35 Q2153.27 166.61 2153.27 168.339 M2156.04 149.417 Q2156.04 155.642 2160.46 155.642 Q2162.68 155.642 2164.04 153.616 Q2164.86 152.258 2164.86 149.367 Q2164.86 143.142 2160.46 143.142 Q2158.24 143.142 2156.85 145.168 Q2156.04 146.526 2156.04 149.417 Z" fill="#000000" fill-rule="nonzero" fill-opacity="1" /><path clip-path="url(#clip410)" d="M2176.19 164.338 L2176.19 162.781 Q2178.89 162.781 2179.5 162.46 Q2180.12 162.114 2180.12 160.484 L2180.12 146.872 Q2180.12 144.995 2179.48 144.55 Q2178.86 144.106 2176.39 144.106 L2176.39 142.524 L2183.46 141.981 L2183.46 160.533 Q2183.46 162.04 2184 162.411 Q2184.54 162.781 2187.01 162.781 L2187.01 164.338 Q2181.85 164.189 2181.75 164.189 Q2181.06 164.189 2176.19 164.338 M2178.32 133.162 Q2178.32 132.149 2179.08 131.334 Q2179.88 130.494 2180.99 130.494 Q2182.1 130.494 2182.89 131.26 Q2183.68 132.001 2183.68 133.187 Q2183.68 134.348 2182.89 135.113 Q2182.1 135.855 2180.99 135.855 Q2179.83 135.855 2179.06 135.039 Q2178.32 134.224 2178.32 133.162 Z" fill="#000000" fill-rule="nonzero" fill-opacity="1" /><path clip-path="url(#clip410)" d="M2190.15 164.338 L2190.15 162.781 Q2192.84 162.781 2193.46 162.46 Q2194.08 162.114 2194.08 160.484 L2194.08 146.922 Q2194.08 145.044 2193.41 144.575 Q2192.77 144.106 2190.15 144.106 L2190.15 142.524 L2197.27 141.981 L2197.27 147.292 Q2199.64 141.981 2204.75 141.981 Q2208.56 141.981 2210.06 143.858 Q2211.17 145.118 2211.4 146.526 Q2211.64 147.935 2211.64 151.591 L2211.64 161.25 Q2211.69 162.312 2212.51 162.559 Q2213.32 162.781 2215.6 162.781 L2215.6 164.338 Q2210.43 164.189 2209.91 164.189 Q2209.52 164.189 2204.21 164.338 L2204.21 162.781 Q2206.9 162.781 2207.52 162.46 Q2208.16 162.114 2208.16 160.484 L2208.16 148.7 Q2208.16 146.131 2207.37 144.624 Q2206.58 143.093 2204.41 143.093 Q2201.79 143.093 2199.69 145.291 Q2197.59 147.49 2197.59 151.195 L2197.59 160.484 Q2197.59 162.114 2198.21 162.46 Q2198.85 162.781 2201.52 162.781 L2201.52 164.338 Q2196.35 164.189 2195.86 164.189 Q2195.46 164.189 2190.15 164.338 Z" fill="#000000" fill-rule="nonzero" fill-opacity="1" /><path clip-path="url(#clip410)" d="M2218.71 159.52 Q2218.71 155.222 2223.77 152.949 Q2226.81 151.492 2233.09 151.121 L2233.09 149.269 Q2233.09 146.131 2231.43 144.476 Q2229.8 142.796 2227.73 142.796 Q2224.02 142.796 2222.24 145.118 Q2223.75 145.168 2224.29 145.934 Q2224.84 146.675 2224.84 147.44 Q2224.84 148.453 2224.19 149.12 Q2223.58 149.763 2222.51 149.763 Q2221.5 149.763 2220.83 149.145 Q2220.17 148.503 2220.17 147.391 Q2220.17 144.921 2222.39 143.29 Q2224.64 141.66 2227.82 141.66 Q2231.97 141.66 2234.74 144.451 Q2235.61 145.316 2236.03 146.428 Q2236.47 147.539 2236.52 148.28 Q2236.57 148.997 2236.57 150.43 L2236.57 160.533 Q2236.57 160.83 2236.67 161.324 Q2236.77 161.818 2237.21 162.46 Q2237.68 163.078 2238.45 163.078 Q2240.28 163.078 2240.25 159.842 L2240.25 157.001 L2241.53 157.001 L2241.53 159.842 Q2241.53 162.534 2240.1 163.596 Q2238.69 164.634 2237.38 164.634 Q2235.7 164.634 2234.64 163.399 Q2233.58 162.164 2233.43 160.484 Q2232.67 162.411 2230.91 163.671 Q2229.18 164.906 2226.81 164.906 Q2224.98 164.906 2223.25 164.436 Q2221.55 163.992 2220.12 162.732 Q2218.71 161.447 2218.71 159.52 M2222.61 159.471 Q2222.61 161.348 2223.95 162.559 Q2225.28 163.769 2227.16 163.769 Q2229.28 163.769 2231.18 162.139 Q2233.09 160.484 2233.09 157.248 L2233.09 152.184 Q2227.48 152.381 2225.03 154.629 Q2222.61 156.852 2222.61 159.471 Z" fill="#000000" fill-rule="nonzero" fill-opacity="1" /><path clip-path="url(#clip410)" d="M2243.56 164.338 L2243.56 162.781 Q2246.25 162.781 2246.87 162.46 Q2247.49 162.114 2247.49 160.484 L2247.49 134.175 Q2247.49 132.297 2246.82 131.828 Q2246.18 131.359 2243.56 131.359 L2243.56 129.778 L2250.82 129.234 L2250.82 160.484 Q2250.82 162.114 2251.47 162.46 Q2252.11 162.781 2254.78 162.781 L2254.78 164.338 Q2254.16 164.338 2252.87 164.288 Q2251.59 164.239 2250.65 164.214 Q2249.71 164.189 2249.17 164.189 Q2248.58 164.189 2243.56 164.338 Z" fill="#000000" fill-rule="nonzero" fill-opacity="1" /><polyline clip-path="url(#clip410)" style="stroke:#e26f46; stroke-linecap:round; stroke-linejoin:round; stroke-width:4; stroke-opacity:1; fill:none" points="1920.1,198.898 2067.07,198.898 "/>
<path clip-path="url(#clip410)" d="M2091.56 216.178 L2091.56 214.621 Q2094.25 214.621 2094.87 214.3 Q2095.51 213.954 2095.51 212.324 L2095.51 198.762 Q2095.51 196.884 2094.85 196.415 Q2094.2 195.946 2091.56 195.946 L2091.56 194.364 L2098.6 193.821 L2098.6 199.379 Q2099.32 197.205 2100.82 195.526 Q2102.36 193.821 2104.83 193.821 Q2106.46 193.821 2107.49 194.735 Q2108.56 195.649 2108.56 196.909 Q2108.56 198.021 2107.87 198.589 Q2107.2 199.132 2106.38 199.132 Q2105.47 199.132 2104.83 198.564 Q2104.21 197.971 2104.21 196.958 Q2104.21 196.341 2104.48 195.871 Q2104.78 195.377 2105 195.204 Q2105.22 195.031 2105.37 194.982 Q2105.27 194.933 2104.83 194.933 Q2102.04 194.933 2100.43 197.724 Q2098.85 200.491 2098.85 204.443 L2098.85 212.225 Q2098.85 213.683 2099.44 214.152 Q2100.06 214.621 2102.7 214.621 L2103.76 214.621 L2103.76 216.178 Q2101.74 216.029 2097.34 216.029 Q2096.72 216.029 2095.76 216.054 Q2094.8 216.079 2093.54 216.128 Q2092.28 216.178 2091.56 216.178 Z" fill="#000000" fill-rule="nonzero" fill-opacity="1" /><path clip-path="url(#clip410)" d="M2111.32 205.036 Q2111.32 200.269 2114.39 196.884 Q2117.45 193.5 2121.85 193.5 Q2126.29 193.5 2128.59 196.39 Q2130.91 199.28 2130.91 203.431 Q2130.91 204.196 2130.72 204.345 Q2130.52 204.493 2129.65 204.493 L2115.52 204.493 Q2115.52 209.656 2117.05 212.077 Q2119.18 215.461 2122.76 215.461 Q2123.26 215.461 2123.85 215.362 Q2124.44 215.264 2125.65 214.844 Q2126.86 214.399 2127.92 213.238 Q2128.99 212.077 2129.6 210.249 Q2129.75 209.532 2130.25 209.557 Q2130.91 209.557 2130.91 210.15 Q2130.91 210.595 2130.42 211.607 Q2129.95 212.596 2129.04 213.781 Q2128.12 214.967 2126.34 215.856 Q2124.59 216.746 2122.46 216.746 Q2118.02 216.746 2114.66 213.386 Q2111.32 210.002 2111.32 205.036 M2115.57 203.431 L2127.58 203.431 Q2127.58 202.368 2127.38 201.183 Q2127.21 199.997 2126.66 198.366 Q2126.15 196.711 2124.91 195.674 Q2123.68 194.636 2121.85 194.636 Q2121.03 194.636 2120.14 194.982 Q2119.28 195.328 2118.22 196.168 Q2117.15 197.008 2116.41 198.91 Q2115.67 200.812 2115.57 203.431 Z" fill="#000000" fill-rule="nonzero" fill-opacity="1" /><path clip-path="url(#clip410)" d="M2134.05 216.178 L2134.05 214.621 Q2136.74 214.621 2137.36 214.3 Q2137.98 213.954 2137.98 212.324 L2137.98 186.015 Q2137.98 184.137 2137.31 183.668 Q2136.67 183.199 2134.05 183.199 L2134.05 181.618 L2141.31 181.074 L2141.31 212.324 Q2141.31 213.954 2141.96 214.3 Q2142.6 214.621 2145.27 214.621 L2145.27 216.178 Q2144.65 216.178 2143.36 216.128 Q2142.08 216.079 2141.14 216.054 Q2140.2 216.029 2139.66 216.029 Q2139.07 216.029 2134.05 216.178 Z" fill="#000000" fill-rule="nonzero" fill-opacity="1" /><path clip-path="url(#clip410)" d="M2148.5 211.36 Q2148.5 207.062 2153.57 204.789 Q2156.6 203.332 2162.88 202.961 L2162.88 201.109 Q2162.88 197.971 2161.22 196.316 Q2159.59 194.636 2157.52 194.636 Q2153.81 194.636 2152.03 196.958 Q2153.54 197.008 2154.09 197.774 Q2154.63 198.515 2154.63 199.28 Q2154.63 200.293 2153.99 200.96 Q2153.37 201.603 2152.31 201.603 Q2151.29 201.603 2150.63 200.985 Q2149.96 200.343 2149.96 199.231 Q2149.96 196.761 2152.18 195.13 Q2154.43 193.5 2157.62 193.5 Q2161.77 193.5 2164.53 196.291 Q2165.4 197.156 2165.82 198.268 Q2166.26 199.379 2166.31 200.12 Q2166.36 200.837 2166.36 202.27 L2166.36 212.373 Q2166.36 212.67 2166.46 213.164 Q2166.56 213.658 2167 214.3 Q2167.47 214.918 2168.24 214.918 Q2170.07 214.918 2170.04 211.682 L2170.04 208.841 L2171.33 208.841 L2171.33 211.682 Q2171.33 214.374 2169.9 215.436 Q2168.49 216.474 2167.18 216.474 Q2165.5 216.474 2164.44 215.239 Q2163.37 214.004 2163.23 212.324 Q2162.46 214.251 2160.71 215.511 Q2158.98 216.746 2156.6 216.746 Q2154.78 216.746 2153.05 216.276 Q2151.34 215.832 2149.91 214.572 Q2148.5 213.287 2148.5 211.36 M2152.41 211.311 Q2152.41 213.188 2153.74 214.399 Q2155.07 215.609 2156.95 215.609 Q2159.08 215.609 2160.98 213.979 Q2162.88 212.324 2162.88 209.088 L2162.88 204.024 Q2157.27 204.221 2154.83 206.469 Q2152.41 208.692 2152.41 211.311 Z" fill="#000000" fill-rule="nonzero" fill-opacity="1" /><path clip-path="url(#clip410)" d="M2172.29 216.178 L2172.29 214.621 Q2176.24 214.621 2178.76 211.583 Q2178.76 211.583 2183.51 205.555 L2178.49 199.033 Q2176.71 196.761 2175.92 196.365 Q2175.16 195.946 2172.54 195.946 L2172.54 194.364 Q2174.61 194.513 2177.33 194.513 Q2178.84 194.513 2182.82 194.364 L2182.82 195.946 Q2181.04 196.044 2181.04 197.205 Q2181.04 197.601 2181.48 198.119 L2185.43 203.233 L2188.57 199.28 Q2189.34 198.366 2189.34 197.502 Q2189.34 196.094 2187.85 195.946 L2187.85 194.364 Q2189.83 194.513 2192.72 194.513 Q2194.9 194.513 2196.87 194.364 L2196.87 195.946 Q2193.02 196.044 2190.84 198.564 Q2189.88 199.626 2186.2 204.295 L2192.97 213.04 Q2193.78 214.102 2194.7 214.374 Q2195.61 214.621 2197.79 214.621 L2197.79 216.178 Q2195.51 216.029 2192.92 216.029 Q2192 216.029 2187.46 216.178 L2187.46 214.621 Q2188.37 214.572 2188.82 214.177 Q2189.29 213.757 2189.29 213.337 Q2189.29 213.139 2188.23 211.682 L2184.37 206.617 Q2180.52 211.163 2180.02 212.225 Q2179.83 212.67 2179.83 213.04 Q2179.83 214.399 2181.28 214.621 L2181.28 216.178 Q2177.65 216.029 2176.49 216.029 Q2174.27 216.029 2172.29 216.178 Z" fill="#000000" fill-rule="nonzero" fill-opacity="1" /><path clip-path="url(#clip410)" d="M2199.74 205.036 Q2199.74 200.269 2202.8 196.884 Q2205.86 193.5 2210.26 193.5 Q2214.71 193.5 2217 196.39 Q2219.33 199.28 2219.33 203.431 Q2219.33 204.196 2219.13 204.345 Q2218.93 204.493 2218.07 204.493 L2203.94 204.493 Q2203.94 209.656 2205.47 212.077 Q2207.59 215.461 2211.17 215.461 Q2211.67 215.461 2212.26 215.362 Q2212.85 215.264 2214.06 214.844 Q2215.28 214.399 2216.34 213.238 Q2217.4 212.077 2218.02 210.249 Q2218.17 209.532 2218.66 209.557 Q2219.33 209.557 2219.33 210.15 Q2219.33 210.595 2218.83 211.607 Q2218.36 212.596 2217.45 213.781 Q2216.54 214.967 2214.76 215.856 Q2213 216.746 2210.88 216.746 Q2206.43 216.746 2203.07 213.386 Q2199.74 210.002 2199.74 205.036 M2203.99 203.431 L2215.99 203.431 Q2215.99 202.368 2215.79 201.183 Q2215.62 199.997 2215.08 198.366 Q2214.56 196.711 2213.32 195.674 Q2212.09 194.636 2210.26 194.636 Q2209.45 194.636 2208.56 194.982 Q2207.69 195.328 2206.63 196.168 Q2205.57 197.008 2204.83 198.91 Q2204.08 200.812 2203.99 203.431 Z" fill="#000000" fill-rule="nonzero" fill-opacity="1" /><path clip-path="url(#clip410)" d="M2222.51 205.308 Q2222.51 200.491 2225.87 197.156 Q2229.23 193.821 2233.78 193.821 Q2237.63 193.821 2240.15 196.958 L2240.15 186.015 Q2240.15 184.137 2239.48 183.668 Q2238.84 183.199 2236.22 183.199 L2236.22 181.618 L2243.51 181.074 L2243.51 211.78 Q2243.51 213.658 2244.15 214.152 Q2244.82 214.621 2247.44 214.621 L2247.44 216.178 L2240 216.746 L2240 213.386 Q2237.38 216.721 2233.23 216.746 Q2228.89 216.746 2225.7 213.411 Q2222.51 210.076 2222.51 205.308 M2226.71 205.357 Q2226.71 210.051 2228.17 212.373 Q2230.2 215.609 2233.48 215.609 Q2237.24 215.609 2239.46 212.077 Q2240.03 211.212 2240 210.199 L2240 199.824 Q2240 198.811 2239.46 197.971 Q2237.38 194.933 2234 194.933 Q2230.47 194.933 2228.27 198.169 Q2226.71 200.59 2226.71 205.357 Z" fill="#000000" fill-rule="nonzero" fill-opacity="1" /></svg>
