<?xml version="1.0" encoding="utf-8"?>
<svg xmlns="http://www.w3.org/2000/svg" xmlns:xlink="http://www.w3.org/1999/xlink" width="600" height="400" viewBox="0 0 2400 1600">
<defs>
  <clipPath id="clip300">
    <rect x="0" y="0" width="2400" height="1600"/>
  </clipPath>
</defs>
<path clip-path="url(#clip300)" d="M0 1600 L2400 1600 L2400 0 L0 0  Z" fill="#ffffff" fill-rule="evenodd" fill-opacity="1"/>
<defs>
  <clipPath id="clip301">
    <rect x="480" y="0" width="1681" height="1600"/>
  </clipPath>
</defs>
<path clip-path="url(#clip300)" d="M280.487 1423.18 L2352.76 1423.18 L2352.76 47.2441 L280.487 47.2441  Z" fill="#ffffff" fill-rule="evenodd" fill-opacity="1"/>
<defs>
  <clipPath id="clip302">
    <rect x="280" y="47" width="2073" height="1377"/>
  </clipPath>
</defs>
<polyline clip-path="url(#clip300)" style="stroke:#000000; stroke-linecap:round; stroke-linejoin:round; stroke-width:4; stroke-opacity:1; fill:none" points="1250.52,1423.18 10241.1,1423.18 "/>
<path clip-path="url(#clip300)" d="M1180.16 1464.23 L1180.16 1462.73 Q1185.92 1462.73 1188.9 1459.67 Q1189.72 1459.67 1189.86 1459.85 Q1190 1460.04 1190 1460.91 L1190 1487.82 Q1190 1489.25 1190.7 1489.69 Q1191.4 1490.14 1194.47 1490.14 L1195.99 1490.14 L1195.99 1491.61 Q1194.31 1491.47 1188.22 1491.47 Q1182.13 1491.47 1180.47 1491.61 L1180.47 1490.14 L1181.99 1490.14 Q1185.01 1490.14 1185.74 1489.72 Q1186.46 1489.27 1186.46 1487.82 L1186.46 1462.97 Q1183.96 1464.23 1180.16 1464.23 Z" fill="#000000" fill-rule="nonzero" fill-opacity="1" /><path clip-path="url(#clip300)" d="M1198.31 1476.27 Q1198.31 1469.22 1200.09 1465.38 Q1202.57 1459.67 1208.43 1459.67 Q1209.67 1459.67 1210.96 1460.02 Q1212.27 1460.35 1213.91 1461.63 Q1215.57 1462.92 1216.58 1465.03 Q1218.5 1469.11 1218.5 1476.27 Q1218.5 1483.28 1216.72 1487.09 Q1214.12 1492.67 1208.38 1492.67 Q1206.22 1492.67 1204.02 1491.57 Q1201.84 1490.47 1200.46 1487.82 Q1198.31 1483.86 1198.31 1476.27 M1202.29 1475.69 Q1202.29 1482.92 1202.81 1485.81 Q1203.39 1488.92 1204.98 1490.28 Q1206.6 1491.61 1208.38 1491.61 Q1210.3 1491.61 1211.89 1490.19 Q1213.51 1488.73 1214 1485.62 Q1214.54 1482.55 1214.52 1475.69 Q1214.52 1469.01 1214.05 1466.34 Q1213.42 1463.23 1211.73 1461.98 Q1210.07 1460.72 1208.38 1460.72 Q1207.75 1460.72 1207.07 1460.91 Q1206.41 1461.09 1205.45 1461.63 Q1204.49 1462.17 1203.74 1463.51 Q1203.02 1464.84 1202.66 1466.86 Q1202.29 1469.46 1202.29 1475.69 Z" fill="#000000" fill-rule="nonzero" fill-opacity="1" /><path clip-path="url(#clip300)" d="M1222.25 1491.61 Q1222.25 1490.75 1222.32 1490.49 Q1222.41 1490.23 1222.79 1489.83 L1231.99 1479.58 Q1237.03 1473.91 1237.03 1468.96 Q1237.03 1465.76 1235.34 1463.46 Q1233.68 1461.17 1230.61 1461.17 Q1228.5 1461.17 1226.72 1462.45 Q1224.94 1463.74 1224.12 1466.04 Q1224.26 1465.99 1224.76 1465.99 Q1225.95 1465.99 1226.61 1466.74 Q1227.29 1467.49 1227.29 1468.5 Q1227.29 1469.78 1226.44 1470.42 Q1225.62 1471.03 1224.8 1471.03 Q1224.48 1471.03 1224.03 1470.96 Q1223.61 1470.89 1222.93 1470.23 Q1222.25 1469.55 1222.25 1468.36 Q1222.25 1465.01 1224.78 1462.34 Q1227.33 1459.67 1231.22 1459.67 Q1235.62 1459.67 1238.51 1462.29 Q1241.41 1464.89 1241.41 1468.96 Q1241.41 1470.39 1240.96 1471.71 Q1240.54 1472.99 1239.96 1474 Q1239.4 1475.01 1237.85 1476.62 Q1236.3 1478.24 1235.06 1479.39 Q1233.82 1480.54 1231.03 1482.97 L1225.95 1487.91 L1234.59 1487.91 Q1238.81 1487.91 1239.14 1487.54 Q1239.61 1486.86 1240.19 1483.28 L1241.41 1483.28 L1240.05 1491.61 L1222.25 1491.61 Z" fill="#000000" fill-rule="nonzero" fill-opacity="1" /><path clip-path="url(#clip300)" d="M1246 1483.7 L1246 1482.22 L1260.73 1459.71 Q1261.11 1459.13 1261.69 1459.15 Q1262.23 1459.15 1262.35 1459.36 Q1262.47 1459.57 1262.47 1460.39 L1262.47 1482.22 L1267.27 1482.22 L1267.27 1483.7 L1262.47 1483.7 L1262.47 1487.87 Q1262.47 1489.25 1263.03 1489.69 Q1263.61 1490.14 1266.1 1490.14 L1267.1 1490.14 L1267.1 1491.61 Q1265.14 1491.47 1260.59 1491.47 Q1256.07 1491.47 1254.1 1491.61 L1254.1 1490.14 L1255.11 1490.14 Q1257.59 1490.14 1258.18 1489.72 Q1258.77 1489.27 1258.77 1487.87 L1258.77 1483.7 L1246 1483.7 M1247.36 1482.22 L1259.05 1482.22 L1259.05 1464.33 L1247.36 1482.22 Z" fill="#000000" fill-rule="nonzero" fill-opacity="1" /><path clip-path="url(#clip300)" d="M1272.17 1466.09 Q1272.17 1465.48 1272.22 1465.3 Q1272.28 1465.12 1272.54 1464.84 L1278.99 1457.66 Q1282.51 1453.69 1282.51 1450.23 Q1282.51 1447.99 1281.33 1446.38 Q1280.17 1444.77 1278.02 1444.77 Q1276.54 1444.77 1275.3 1445.67 Q1274.05 1446.58 1273.48 1448.18 Q1273.58 1448.15 1273.92 1448.15 Q1274.76 1448.15 1275.22 1448.67 Q1275.69 1449.2 1275.69 1449.9 Q1275.69 1450.81 1275.1 1451.25 Q1274.53 1451.68 1273.95 1451.68 Q1273.72 1451.68 1273.41 1451.63 Q1273.12 1451.58 1272.64 1451.12 Q1272.17 1450.64 1272.17 1449.81 Q1272.17 1447.46 1273.94 1445.59 Q1275.72 1443.72 1278.45 1443.72 Q1281.53 1443.72 1283.55 1445.56 Q1285.58 1447.38 1285.58 1450.23 Q1285.58 1451.23 1285.27 1452.15 Q1284.97 1453.05 1284.56 1453.76 Q1284.17 1454.46 1283.09 1455.59 Q1282 1456.73 1281.14 1457.53 Q1280.27 1458.33 1278.32 1460.04 L1274.76 1463.5 L1280.81 1463.5 Q1283.76 1463.5 1283.99 1463.23 Q1284.32 1462.76 1284.73 1460.25 L1285.58 1460.25 L1284.63 1466.09 L1272.17 1466.09 Z" fill="#000000" fill-rule="nonzero" fill-opacity="1" /><path clip-path="url(#clip300)" d="M1345.89 1478.99 Q1346.31 1479.15 1346.31 1479.62 Q1346.31 1480.09 1345.89 1480.25 Q1342.38 1481.43 1339.31 1485.24 Q1337.13 1488.08 1336.52 1491.33 Q1336.45 1491.66 1336.19 1491.87 Q1335.94 1492.08 1335.58 1492.08 Q1335.19 1492.08 1334.9 1491.8 Q1334.62 1491.54 1334.62 1491.15 Q1334.62 1491.12 1334.65 1491.05 Q1334.67 1490.96 1334.67 1490.94 Q1335.37 1487.14 1337.83 1484.03 Q1339.38 1482.06 1341.58 1480.58 L1304.83 1480.58 Q1304.43 1480.58 1304.15 1480.3 Q1303.87 1480.02 1303.87 1479.62 Q1303.87 1479.22 1304.15 1478.94 Q1304.43 1478.66 1304.83 1478.66 L1341.58 1478.66 Q1339.38 1477.19 1337.83 1475.22 Q1335.37 1472.1 1334.67 1468.31 Q1334.67 1468.29 1334.65 1468.22 Q1334.62 1468.12 1334.62 1468.1 Q1334.62 1467.7 1334.9 1467.44 Q1335.19 1467.16 1335.58 1467.16 Q1335.94 1467.16 1336.19 1467.37 Q1336.45 1467.58 1336.52 1467.91 Q1337.13 1471.17 1339.31 1474 Q1342.38 1477.82 1345.89 1478.99 Z" fill="#000000" fill-rule="nonzero" fill-opacity="1" /><path clip-path="url(#clip300)" d="M1364.67 1483.88 Q1364.67 1482.46 1365.45 1481.92 Q1366.22 1481.36 1367.04 1481.36 Q1368.14 1481.36 1368.77 1482.06 Q1369.43 1482.74 1369.43 1483.7 Q1369.43 1484.66 1368.77 1485.36 Q1368.14 1486.04 1367.04 1486.04 Q1366.5 1486.04 1366.22 1485.95 Q1366.85 1488.15 1368.77 1489.74 Q1370.72 1491.33 1373.27 1491.33 Q1376.48 1491.33 1378.4 1488.22 Q1379.55 1486.2 1379.55 1481.64 Q1379.55 1477.61 1378.68 1475.59 Q1377.35 1472.53 1374.61 1472.53 Q1370.72 1472.53 1368.42 1475.87 Q1368.14 1476.3 1367.81 1476.32 Q1367.34 1476.32 1367.23 1476.06 Q1367.13 1475.78 1367.13 1475.05 L1367.13 1460.86 Q1367.13 1459.71 1367.6 1459.71 Q1367.79 1459.71 1368.19 1459.85 Q1371.21 1461.19 1374.56 1461.21 Q1378 1461.21 1381.09 1459.81 Q1381.33 1459.67 1381.47 1459.67 Q1381.94 1459.67 1381.96 1460.2 Q1381.96 1460.39 1381.56 1460.95 Q1381.19 1461.49 1380.37 1462.22 Q1379.55 1462.92 1378.49 1463.6 Q1377.44 1464.28 1375.89 1464.75 Q1374.37 1465.19 1372.68 1465.19 Q1370.67 1465.19 1368.61 1464.56 L1368.61 1473.91 Q1371.09 1471.47 1374.7 1471.47 Q1378.54 1471.47 1381.19 1474.56 Q1383.83 1477.65 1383.83 1481.96 Q1383.83 1486.48 1380.7 1489.58 Q1377.58 1492.67 1373.36 1492.67 Q1369.52 1492.67 1367.09 1489.93 Q1364.67 1487.19 1364.67 1483.88 Z" fill="#000000" fill-rule="nonzero" fill-opacity="1" /><path clip-path="url(#clip300)" d="M1386.84 1464.23 L1386.84 1462.73 Q1392.61 1462.73 1395.58 1459.67 Q1396.4 1459.67 1396.54 1459.85 Q1396.68 1460.04 1396.68 1460.91 L1396.68 1487.82 Q1396.68 1489.25 1397.38 1489.69 Q1398.09 1490.14 1401.16 1490.14 L1402.68 1490.14 L1402.68 1491.61 Q1400.99 1491.47 1394.9 1491.47 Q1388.81 1491.47 1387.15 1491.61 L1387.15 1490.14 L1388.67 1490.14 Q1391.69 1490.14 1392.42 1489.72 Q1393.15 1489.27 1393.15 1487.82 L1393.15 1462.97 Q1390.64 1464.23 1386.84 1464.23 Z" fill="#000000" fill-rule="nonzero" fill-opacity="1" /><path clip-path="url(#clip300)" d="M1410.59 1491.61 Q1410.59 1490.75 1410.66 1490.49 Q1410.76 1490.23 1411.13 1489.83 L1420.34 1479.58 Q1425.37 1473.91 1425.37 1468.96 Q1425.37 1465.76 1423.69 1463.46 Q1422.02 1461.17 1418.96 1461.17 Q1416.85 1461.17 1415.07 1462.45 Q1413.29 1463.74 1412.47 1466.04 Q1412.61 1465.99 1413.1 1465.99 Q1414.3 1465.99 1414.95 1466.74 Q1415.63 1467.49 1415.63 1468.5 Q1415.63 1469.78 1414.79 1470.42 Q1413.97 1471.03 1413.15 1471.03 Q1412.82 1471.03 1412.37 1470.96 Q1411.95 1470.89 1411.27 1470.23 Q1410.59 1469.55 1410.59 1468.36 Q1410.59 1465.01 1413.12 1462.34 Q1415.68 1459.67 1419.57 1459.67 Q1423.97 1459.67 1426.85 1462.29 Q1429.75 1464.89 1429.75 1468.96 Q1429.75 1470.39 1429.31 1471.71 Q1428.89 1472.99 1428.3 1474 Q1427.74 1475.01 1426.19 1476.62 Q1424.65 1478.24 1423.41 1479.39 Q1422.17 1480.54 1419.38 1482.97 L1414.3 1487.91 L1422.94 1487.91 Q1427.15 1487.91 1427.48 1487.54 Q1427.95 1486.86 1428.54 1483.28 L1429.75 1483.28 L1428.4 1491.61 L1410.59 1491.61 Z" fill="#000000" fill-rule="nonzero" fill-opacity="1" /><path clip-path="url(#clip300)" d="M1434.68 1466.62 Q1434.68 1466.01 1434.73 1465.83 Q1434.8 1465.65 1435.06 1465.37 L1441.5 1458.19 Q1445.03 1454.22 1445.03 1450.76 Q1445.03 1448.52 1443.85 1446.91 Q1442.68 1445.3 1440.54 1445.3 Q1439.06 1445.3 1437.81 1446.21 Q1436.57 1447.11 1435.99 1448.71 Q1436.09 1448.68 1436.44 1448.68 Q1437.27 1448.68 1437.73 1449.21 Q1438.21 1449.73 1438.21 1450.44 Q1438.21 1451.34 1437.62 1451.78 Q1437.04 1452.21 1436.47 1452.21 Q1436.24 1452.21 1435.93 1452.16 Q1435.63 1452.11 1435.16 1451.65 Q1434.68 1451.17 1434.68 1450.34 Q1434.68 1447.99 1436.45 1446.12 Q1438.24 1444.25 1440.96 1444.25 Q1444.05 1444.25 1446.06 1446.09 Q1448.09 1447.91 1448.09 1450.76 Q1448.09 1451.76 1447.78 1452.68 Q1447.49 1453.58 1447.08 1454.29 Q1446.68 1454.99 1445.6 1456.12 Q1444.52 1457.26 1443.65 1458.06 Q1442.78 1458.86 1440.83 1460.57 L1437.27 1464.03 L1443.32 1464.03 Q1446.28 1464.03 1446.5 1463.77 Q1446.83 1463.29 1447.24 1460.78 L1448.09 1460.78 L1447.14 1466.62 L1434.68 1466.62 Z" fill="#000000" fill-rule="nonzero" fill-opacity="1" /><path clip-path="url(#clip300)" d="M3262.18 1483.62 Q3262.18 1482.19 3262.95 1481.65 Q3263.72 1481.09 3264.54 1481.09 Q3265.64 1481.09 3266.27 1481.79 Q3266.93 1482.47 3266.93 1483.43 Q3266.93 1484.39 3266.27 1485.09 Q3265.64 1485.77 3264.54 1485.77 Q3264 1485.77 3263.72 1485.68 Q3264.35 1487.88 3266.27 1489.47 Q3268.22 1491.07 3270.77 1491.07 Q3273.98 1491.07 3275.9 1487.95 Q3277.05 1485.94 3277.05 1481.37 Q3277.05 1477.34 3276.18 1475.33 Q3274.85 1472.26 3272.11 1472.26 Q3268.22 1472.26 3265.92 1475.61 Q3265.64 1476.03 3265.31 1476.05 Q3264.85 1476.05 3264.73 1475.8 Q3264.64 1475.52 3264.64 1474.79 L3264.64 1460.6 Q3264.64 1459.45 3265.1 1459.45 Q3265.29 1459.45 3265.69 1459.59 Q3268.71 1460.92 3272.06 1460.95 Q3275.5 1460.95 3278.59 1459.54 Q3278.83 1459.4 3278.97 1459.4 Q3279.44 1459.4 3279.46 1459.94 Q3279.46 1460.13 3279.06 1460.69 Q3278.69 1461.23 3277.87 1461.95 Q3277.05 1462.66 3276 1463.34 Q3274.94 1464.01 3273.4 1464.48 Q3271.87 1464.93 3270.19 1464.93 Q3268.17 1464.93 3266.11 1464.3 L3266.11 1473.64 Q3268.59 1471.21 3272.2 1471.21 Q3276.04 1471.21 3278.69 1474.3 Q3281.34 1477.39 3281.34 1481.7 Q3281.34 1486.22 3278.2 1489.31 Q3275.08 1492.4 3270.87 1492.4 Q3267.02 1492.4 3264.59 1489.66 Q3262.18 1486.92 3262.18 1483.62 Z" fill="#000000" fill-rule="nonzero" fill-opacity="1" /><path clip-path="url(#clip300)" d="M3284.35 1463.97 L3284.35 1462.47 Q3290.11 1462.47 3293.08 1459.4 Q3293.9 1459.4 3294.04 1459.59 Q3294.18 1459.78 3294.18 1460.64 L3294.18 1487.55 Q3294.18 1488.98 3294.89 1489.43 Q3295.59 1489.87 3298.66 1489.87 L3300.18 1489.87 L3300.18 1491.35 Q3298.49 1491.21 3292.4 1491.21 Q3286.31 1491.21 3284.65 1491.35 L3284.65 1489.87 L3286.17 1489.87 Q3289.19 1489.87 3289.92 1489.45 Q3290.65 1489.01 3290.65 1487.55 L3290.65 1462.7 Q3288.14 1463.97 3284.35 1463.97 Z" fill="#000000" fill-rule="nonzero" fill-opacity="1" /><path clip-path="url(#clip300)" d="M3308.1 1491.35 Q3308.1 1490.48 3308.17 1490.22 Q3308.26 1489.97 3308.63 1489.57 L3317.84 1479.31 Q3322.88 1473.64 3322.88 1468.7 Q3322.88 1465.49 3321.19 1463.19 Q3319.53 1460.9 3316.46 1460.9 Q3314.35 1460.9 3312.57 1462.19 Q3310.79 1463.48 3309.97 1465.77 Q3310.11 1465.72 3310.6 1465.72 Q3311.8 1465.72 3312.45 1466.47 Q3313.13 1467.22 3313.13 1468.23 Q3313.13 1469.52 3312.29 1470.15 Q3311.47 1470.76 3310.65 1470.76 Q3310.32 1470.76 3309.88 1470.69 Q3309.45 1470.62 3308.78 1469.96 Q3308.1 1469.28 3308.1 1468.09 Q3308.1 1464.74 3310.63 1462.07 Q3313.18 1459.4 3317.07 1459.4 Q3321.47 1459.4 3324.35 1462.02 Q3327.26 1464.62 3327.26 1468.7 Q3327.26 1470.13 3326.81 1471.44 Q3326.39 1472.73 3325.8 1473.73 Q3325.24 1474.74 3323.7 1476.36 Q3322.15 1477.97 3320.91 1479.12 Q3319.67 1480.27 3316.88 1482.71 L3311.8 1487.65 L3320.44 1487.65 Q3324.66 1487.65 3324.98 1487.27 Q3325.45 1486.59 3326.04 1483.01 L3327.26 1483.01 L3325.9 1491.35 L3308.1 1491.35 Z" fill="#000000" fill-rule="nonzero" fill-opacity="1" /><path clip-path="url(#clip300)" d="M3332.18 1466.35 Q3332.18 1465.75 3332.23 1465.57 Q3332.3 1465.39 3332.56 1465.11 L3339.01 1457.93 Q3342.53 1453.96 3342.53 1450.5 Q3342.53 1448.25 3341.35 1446.64 Q3340.19 1445.04 3338.04 1445.04 Q3336.56 1445.04 3335.32 1445.94 Q3334.07 1446.84 3333.5 1448.45 Q3333.59 1448.42 3333.94 1448.42 Q3334.78 1448.42 3335.23 1448.94 Q3335.71 1449.46 3335.71 1450.17 Q3335.71 1451.07 3335.12 1451.51 Q3334.55 1451.94 3333.97 1451.94 Q3333.74 1451.94 3333.43 1451.89 Q3333.14 1451.84 3332.66 1451.38 Q3332.18 1450.91 3332.18 1450.07 Q3332.18 1447.73 3333.96 1445.86 Q3335.74 1443.99 3338.46 1443.99 Q3341.55 1443.99 3343.56 1445.83 Q3345.6 1447.65 3345.6 1450.5 Q3345.6 1451.5 3345.28 1452.42 Q3344.99 1453.32 3344.58 1454.02 Q3344.19 1454.73 3343.1 1455.86 Q3342.02 1456.99 3341.15 1457.79 Q3340.28 1458.6 3338.33 1460.3 L3334.78 1463.76 L3340.83 1463.76 Q3343.78 1463.76 3344.01 1463.5 Q3344.33 1463.02 3344.74 1460.52 L3345.6 1460.52 L3344.65 1466.35 L3332.18 1466.35 Z" fill="#000000" fill-rule="nonzero" fill-opacity="1" /><path clip-path="url(#clip300)" d="M3405.91 1478.72 Q3406.33 1478.89 3406.33 1479.36 Q3406.33 1479.82 3405.91 1479.99 Q3402.39 1481.16 3399.33 1484.98 Q3397.15 1487.81 3396.54 1491.07 Q3396.47 1491.4 3396.21 1491.61 Q3395.95 1491.82 3395.6 1491.82 Q3395.2 1491.82 3394.92 1491.54 Q3394.64 1491.28 3394.64 1490.88 Q3394.64 1490.86 3394.66 1490.79 Q3394.69 1490.69 3394.69 1490.67 Q3395.39 1486.87 3397.85 1483.76 Q3399.4 1481.79 3401.6 1480.32 L3364.85 1480.32 Q3364.45 1480.32 3364.17 1480.04 Q3363.89 1479.75 3363.89 1479.36 Q3363.89 1478.96 3364.17 1478.68 Q3364.45 1478.4 3364.85 1478.4 L3401.6 1478.4 Q3399.4 1476.92 3397.85 1474.95 Q3395.39 1471.84 3394.69 1468.04 Q3394.69 1468.02 3394.66 1467.95 Q3394.64 1467.86 3394.64 1467.83 Q3394.64 1467.43 3394.92 1467.18 Q3395.2 1466.9 3395.6 1466.9 Q3395.95 1466.9 3396.21 1467.11 Q3396.47 1467.32 3396.54 1467.65 Q3397.15 1470.9 3399.33 1473.73 Q3402.39 1477.55 3405.91 1478.72 Z" fill="#000000" fill-rule="nonzero" fill-opacity="1" /><path clip-path="url(#clip300)" d="M3424.69 1491.35 Q3424.69 1490.48 3424.76 1490.22 Q3424.86 1489.97 3425.23 1489.57 L3434.44 1479.31 Q3439.47 1473.64 3439.47 1468.7 Q3439.47 1465.49 3437.79 1463.19 Q3436.12 1460.9 3433.05 1460.9 Q3430.95 1460.9 3429.17 1462.19 Q3427.39 1463.48 3426.57 1465.77 Q3426.71 1465.72 3427.2 1465.72 Q3428.39 1465.72 3429.05 1466.47 Q3429.73 1467.22 3429.73 1468.23 Q3429.73 1469.52 3428.88 1470.15 Q3428.06 1470.76 3427.25 1470.76 Q3426.92 1470.76 3426.47 1470.69 Q3426.05 1470.62 3425.37 1469.96 Q3424.69 1469.28 3424.69 1468.09 Q3424.69 1464.74 3427.22 1462.07 Q3429.77 1459.4 3433.66 1459.4 Q3438.07 1459.4 3440.95 1462.02 Q3443.85 1464.62 3443.85 1468.7 Q3443.85 1470.13 3443.41 1471.44 Q3442.98 1472.73 3442.4 1473.73 Q3441.84 1474.74 3440.29 1476.36 Q3438.75 1477.97 3437.5 1479.12 Q3436.26 1480.27 3433.48 1482.71 L3428.39 1487.65 L3437.04 1487.65 Q3441.25 1487.65 3441.58 1487.27 Q3442.05 1486.59 3442.63 1483.01 L3443.85 1483.01 L3442.49 1491.35 L3424.69 1491.35 Z" fill="#000000" fill-rule="nonzero" fill-opacity="1" /><path clip-path="url(#clip300)" d="M3448.63 1483.62 Q3448.63 1482.19 3449.41 1481.65 Q3450.18 1481.09 3451 1481.09 Q3452.1 1481.09 3452.73 1481.79 Q3453.39 1482.47 3453.39 1483.43 Q3453.39 1484.39 3452.73 1485.09 Q3452.1 1485.77 3451 1485.77 Q3450.46 1485.77 3450.18 1485.68 Q3450.81 1487.88 3452.73 1489.47 Q3454.68 1491.07 3457.23 1491.07 Q3460.44 1491.07 3462.36 1487.95 Q3463.51 1485.94 3463.51 1481.37 Q3463.51 1477.34 3462.64 1475.33 Q3461.31 1472.26 3458.57 1472.26 Q3454.68 1472.26 3452.38 1475.61 Q3452.1 1476.03 3451.77 1476.05 Q3451.3 1476.05 3451.19 1475.8 Q3451.09 1475.52 3451.09 1474.79 L3451.09 1460.6 Q3451.09 1459.45 3451.56 1459.45 Q3451.75 1459.45 3452.15 1459.59 Q3455.17 1460.92 3458.52 1460.95 Q3461.96 1460.95 3465.05 1459.54 Q3465.29 1459.4 3465.43 1459.4 Q3465.9 1459.4 3465.92 1459.94 Q3465.92 1460.13 3465.52 1460.69 Q3465.15 1461.23 3464.33 1461.95 Q3463.51 1462.66 3462.45 1463.34 Q3461.4 1464.01 3459.85 1464.48 Q3458.33 1464.93 3456.64 1464.93 Q3454.63 1464.93 3452.57 1464.3 L3452.57 1473.64 Q3455.05 1471.21 3458.66 1471.21 Q3462.5 1471.21 3465.15 1474.3 Q3467.79 1477.39 3467.79 1481.7 Q3467.79 1486.22 3464.66 1489.31 Q3461.54 1492.4 3457.32 1492.4 Q3453.48 1492.4 3451.05 1489.66 Q3448.63 1486.92 3448.63 1483.62 Z" fill="#000000" fill-rule="nonzero" fill-opacity="1" /><path clip-path="url(#clip300)" d="M3472.38 1476.19 Q3472.38 1468.65 3476.23 1464.04 Q3480.07 1459.4 3485.01 1459.4 Q3487.89 1459.4 3489.48 1460.88 Q3491.1 1462.33 3491.1 1464.58 Q3491.1 1465.82 3490.37 1466.36 Q3489.65 1466.9 3488.9 1466.9 Q3488.03 1466.9 3487.35 1466.31 Q3486.67 1465.72 3486.67 1464.67 Q3486.67 1462.52 3489.32 1462.52 Q3488.08 1460.6 3485.1 1460.6 Q3484.19 1460.6 3483.25 1460.88 Q3482.32 1461.13 3481.1 1462.02 Q3479.88 1462.91 3478.94 1464.32 Q3478.01 1465.72 3477.35 1468.37 Q3476.69 1471.02 3476.69 1474.46 L3476.69 1475.61 Q3478.66 1470.85 3482.69 1470.88 Q3486.72 1470.88 3489.51 1473.95 Q3492.29 1477.01 3492.29 1481.56 Q3492.29 1486.22 3489.39 1489.31 Q3486.48 1492.4 3482.41 1492.4 Q3480.58 1492.4 3478.92 1491.63 Q3477.28 1490.88 3475.73 1489.15 Q3474.21 1487.41 3473.3 1484.09 Q3472.38 1480.76 3472.38 1476.19 M3476.79 1480.5 Q3476.79 1485.21 3477.65 1487.46 Q3477.79 1487.84 3478.1 1488.35 Q3478.43 1488.87 3478.97 1489.55 Q3479.53 1490.2 3480.44 1490.65 Q3481.35 1491.07 3482.41 1491.07 Q3485.62 1491.07 3487.16 1487.95 Q3487.98 1486.22 3487.98 1481.51 Q3487.98 1476.71 3487.12 1474.95 Q3485.64 1471.98 3482.64 1471.98 Q3480.63 1471.98 3479.22 1473.36 Q3477.84 1474.74 3477.3 1476.59 Q3476.79 1478.44 3476.79 1480.5 Z" fill="#000000" fill-rule="nonzero" fill-opacity="1" /><path clip-path="url(#clip300)" d="M3497.21 1466.35 Q3497.21 1465.75 3497.26 1465.57 Q3497.32 1465.39 3497.58 1465.11 L3504.03 1457.93 Q3507.55 1453.96 3507.55 1450.5 Q3507.55 1448.25 3506.37 1446.64 Q3505.21 1445.04 3503.06 1445.04 Q3501.58 1445.04 3500.34 1445.94 Q3499.09 1446.84 3498.52 1448.45 Q3498.62 1448.42 3498.96 1448.42 Q3499.8 1448.42 3500.26 1448.94 Q3500.73 1449.46 3500.73 1450.17 Q3500.73 1451.07 3500.14 1451.51 Q3499.57 1451.94 3498.99 1451.94 Q3498.76 1451.94 3498.45 1451.89 Q3498.16 1451.84 3497.68 1451.38 Q3497.21 1450.91 3497.21 1450.07 Q3497.21 1447.73 3498.98 1445.86 Q3500.77 1443.99 3503.49 1443.99 Q3506.57 1443.99 3508.59 1445.83 Q3510.62 1447.65 3510.62 1450.5 Q3510.62 1451.5 3510.31 1452.42 Q3510.01 1453.32 3509.6 1454.02 Q3509.21 1454.73 3508.13 1455.86 Q3507.04 1456.99 3506.18 1457.79 Q3505.31 1458.6 3503.36 1460.3 L3499.8 1463.76 L3505.85 1463.76 Q3508.8 1463.76 3509.03 1463.5 Q3509.36 1463.02 3509.77 1460.52 L3510.62 1460.52 L3509.67 1466.35 L3497.21 1466.35 Z" fill="#000000" fill-rule="nonzero" fill-opacity="1" /><path clip-path="url(#clip300)" d="M5334.99 1491.35 Q5334.99 1490.48 5335.06 1490.22 Q5335.16 1489.97 5335.53 1489.57 L5344.74 1479.31 Q5349.77 1473.64 5349.77 1468.7 Q5349.77 1465.49 5348.09 1463.19 Q5346.42 1460.9 5343.36 1460.9 Q5341.25 1460.9 5339.47 1462.19 Q5337.69 1463.48 5336.87 1465.77 Q5337.01 1465.72 5337.5 1465.72 Q5338.69 1465.72 5339.35 1466.47 Q5340.03 1467.22 5340.03 1468.23 Q5340.03 1469.52 5339.19 1470.15 Q5338.37 1470.76 5337.55 1470.76 Q5337.22 1470.76 5336.77 1470.69 Q5336.35 1470.62 5335.67 1469.96 Q5334.99 1469.28 5334.99 1468.09 Q5334.99 1464.74 5337.52 1462.07 Q5340.08 1459.4 5343.96 1459.4 Q5348.37 1459.4 5351.25 1462.02 Q5354.15 1464.62 5354.15 1468.7 Q5354.15 1470.13 5353.71 1471.44 Q5353.29 1472.73 5352.7 1473.73 Q5352.14 1474.74 5350.59 1476.36 Q5349.05 1477.97 5347.81 1479.12 Q5346.56 1480.27 5343.78 1482.71 L5338.69 1487.65 L5347.34 1487.65 Q5351.55 1487.65 5351.88 1487.27 Q5352.35 1486.59 5352.94 1483.01 L5354.15 1483.01 L5352.79 1491.35 L5334.99 1491.35 Z" fill="#000000" fill-rule="nonzero" fill-opacity="1" /><path clip-path="url(#clip300)" d="M5358.94 1483.62 Q5358.94 1482.19 5359.71 1481.65 Q5360.48 1481.09 5361.3 1481.09 Q5362.4 1481.09 5363.03 1481.79 Q5363.69 1482.47 5363.69 1483.43 Q5363.69 1484.39 5363.03 1485.09 Q5362.4 1485.77 5361.3 1485.77 Q5360.76 1485.77 5360.48 1485.68 Q5361.11 1487.88 5363.03 1489.47 Q5364.98 1491.07 5367.53 1491.07 Q5370.74 1491.07 5372.66 1487.95 Q5373.81 1485.94 5373.81 1481.37 Q5373.81 1477.34 5372.94 1475.33 Q5371.61 1472.26 5368.87 1472.26 Q5364.98 1472.26 5362.68 1475.61 Q5362.4 1476.03 5362.07 1476.05 Q5361.61 1476.05 5361.49 1475.8 Q5361.39 1475.52 5361.39 1474.79 L5361.39 1460.6 Q5361.39 1459.45 5361.86 1459.45 Q5362.05 1459.45 5362.45 1459.59 Q5365.47 1460.92 5368.82 1460.95 Q5372.26 1460.95 5375.35 1459.54 Q5375.59 1459.4 5375.73 1459.4 Q5376.2 1459.4 5376.22 1459.94 Q5376.22 1460.13 5375.82 1460.69 Q5375.45 1461.23 5374.63 1461.95 Q5373.81 1462.66 5372.75 1463.34 Q5371.7 1464.01 5370.15 1464.48 Q5368.63 1464.93 5366.95 1464.93 Q5364.93 1464.93 5362.87 1464.3 L5362.87 1473.64 Q5365.35 1471.21 5368.96 1471.21 Q5372.8 1471.21 5375.45 1474.3 Q5378.09 1477.39 5378.09 1481.7 Q5378.09 1486.22 5374.96 1489.31 Q5371.84 1492.4 5367.63 1492.4 Q5363.78 1492.4 5361.35 1489.66 Q5358.94 1486.92 5358.94 1483.62 Z" fill="#000000" fill-rule="nonzero" fill-opacity="1" /><path clip-path="url(#clip300)" d="M5382.69 1476.19 Q5382.69 1468.65 5386.53 1464.04 Q5390.37 1459.4 5395.31 1459.4 Q5398.19 1459.4 5399.78 1460.88 Q5401.4 1462.33 5401.4 1464.58 Q5401.4 1465.82 5400.67 1466.36 Q5399.95 1466.9 5399.2 1466.9 Q5398.33 1466.9 5397.65 1466.31 Q5396.97 1465.72 5396.97 1464.67 Q5396.97 1462.52 5399.62 1462.52 Q5398.38 1460.6 5395.4 1460.6 Q5394.49 1460.6 5393.55 1460.88 Q5392.62 1461.13 5391.4 1462.02 Q5390.18 1462.91 5389.24 1464.32 Q5388.31 1465.72 5387.65 1468.37 Q5387 1471.02 5387 1474.46 L5387 1475.61 Q5388.96 1470.85 5392.99 1470.88 Q5397.02 1470.88 5399.81 1473.95 Q5402.59 1477.01 5402.59 1481.56 Q5402.59 1486.22 5399.69 1489.31 Q5396.79 1492.4 5392.71 1492.4 Q5390.88 1492.4 5389.22 1491.63 Q5387.58 1490.88 5386.03 1489.15 Q5384.51 1487.41 5383.6 1484.09 Q5382.69 1480.76 5382.69 1476.19 M5387.09 1480.5 Q5387.09 1485.21 5387.96 1487.46 Q5388.1 1487.84 5388.4 1488.35 Q5388.73 1488.87 5389.27 1489.55 Q5389.83 1490.2 5390.74 1490.65 Q5391.66 1491.07 5392.71 1491.07 Q5395.92 1491.07 5397.46 1487.95 Q5398.28 1486.22 5398.28 1481.51 Q5398.28 1476.71 5397.42 1474.95 Q5395.94 1471.98 5392.94 1471.98 Q5390.93 1471.98 5389.52 1473.36 Q5388.14 1474.74 5387.6 1476.59 Q5387.09 1478.44 5387.09 1480.5 Z" fill="#000000" fill-rule="nonzero" fill-opacity="1" /><path clip-path="url(#clip300)" d="M5407.51 1466.35 Q5407.51 1465.75 5407.56 1465.57 Q5407.62 1465.39 5407.89 1465.11 L5414.33 1457.93 Q5417.85 1453.96 5417.85 1450.5 Q5417.85 1448.25 5416.67 1446.64 Q5415.51 1445.04 5413.36 1445.04 Q5411.89 1445.04 5410.64 1445.94 Q5409.39 1446.84 5408.82 1448.45 Q5408.92 1448.42 5409.26 1448.42 Q5410.1 1448.42 5410.56 1448.94 Q5411.03 1449.46 5411.03 1450.17 Q5411.03 1451.07 5410.44 1451.51 Q5409.87 1451.94 5409.3 1451.94 Q5409.07 1451.94 5408.75 1451.89 Q5408.46 1451.84 5407.98 1451.38 Q5407.51 1450.91 5407.51 1450.07 Q5407.51 1447.73 5409.28 1445.86 Q5411.07 1443.99 5413.79 1443.99 Q5416.87 1443.99 5418.89 1445.83 Q5420.92 1447.65 5420.92 1450.5 Q5420.92 1451.5 5420.61 1452.42 Q5420.31 1453.32 5419.9 1454.02 Q5419.51 1454.73 5418.43 1455.86 Q5417.35 1456.99 5416.48 1457.79 Q5415.61 1458.6 5413.66 1460.3 L5410.1 1463.76 L5416.15 1463.76 Q5419.1 1463.76 5419.33 1463.5 Q5419.66 1463.02 5420.07 1460.52 L5420.92 1460.52 L5419.97 1466.35 L5407.51 1466.35 Z" fill="#000000" fill-rule="nonzero" fill-opacity="1" /><path clip-path="url(#clip300)" d="M5481.23 1478.72 Q5481.65 1478.89 5481.65 1479.36 Q5481.65 1479.82 5481.23 1479.99 Q5477.72 1481.16 5474.65 1484.98 Q5472.47 1487.81 5471.86 1491.07 Q5471.79 1491.4 5471.53 1491.61 Q5471.28 1491.82 5470.93 1491.82 Q5470.53 1491.82 5470.25 1491.54 Q5469.97 1491.28 5469.97 1490.88 Q5469.97 1490.86 5469.99 1490.79 Q5470.01 1490.69 5470.01 1490.67 Q5470.71 1486.87 5473.17 1483.76 Q5474.72 1481.79 5476.92 1480.32 L5440.17 1480.32 Q5439.77 1480.32 5439.49 1480.04 Q5439.21 1479.75 5439.21 1479.36 Q5439.21 1478.96 5439.49 1478.68 Q5439.77 1478.4 5440.17 1478.4 L5476.92 1478.4 Q5474.72 1476.92 5473.17 1474.95 Q5470.71 1471.84 5470.01 1468.04 Q5470.01 1468.02 5469.99 1467.95 Q5469.97 1467.86 5469.97 1467.83 Q5469.97 1467.43 5470.25 1467.18 Q5470.53 1466.9 5470.93 1466.9 Q5471.28 1466.9 5471.53 1467.11 Q5471.79 1467.32 5471.86 1467.65 Q5472.47 1470.9 5474.65 1473.73 Q5477.72 1477.55 5481.23 1478.72 Z" fill="#000000" fill-rule="nonzero" fill-opacity="1" /><path clip-path="url(#clip300)" d="M5500.02 1463.97 L5500.02 1462.47 Q5505.78 1462.47 5508.75 1459.4 Q5509.57 1459.4 5509.71 1459.59 Q5509.85 1459.78 5509.85 1460.64 L5509.85 1487.55 Q5509.85 1488.98 5510.56 1489.43 Q5511.26 1489.87 5514.33 1489.87 L5515.85 1489.87 L5515.85 1491.35 Q5514.16 1491.21 5508.07 1491.21 Q5501.98 1491.21 5500.32 1491.35 L5500.32 1489.87 L5501.84 1489.87 Q5504.86 1489.87 5505.59 1489.45 Q5506.32 1489.01 5506.32 1487.55 L5506.32 1462.7 Q5503.81 1463.97 5500.02 1463.97 Z" fill="#000000" fill-rule="nonzero" fill-opacity="1" /><path clip-path="url(#clip300)" d="M5520.36 1491.35 Q5520.36 1490.48 5520.43 1490.22 Q5520.52 1489.97 5520.89 1489.57 L5530.1 1479.31 Q5535.13 1473.64 5535.13 1468.7 Q5535.13 1465.49 5533.45 1463.19 Q5531.79 1460.9 5528.72 1460.9 Q5526.61 1460.9 5524.83 1462.19 Q5523.05 1463.48 5522.23 1465.77 Q5522.37 1465.72 5522.86 1465.72 Q5524.06 1465.72 5524.71 1466.47 Q5525.39 1467.22 5525.39 1468.23 Q5525.39 1469.52 5524.55 1470.15 Q5523.73 1470.76 5522.91 1470.76 Q5522.58 1470.76 5522.14 1470.69 Q5521.71 1470.62 5521.03 1469.96 Q5520.36 1469.28 5520.36 1468.09 Q5520.36 1464.74 5522.88 1462.07 Q5525.44 1459.4 5529.33 1459.4 Q5533.73 1459.4 5536.61 1462.02 Q5539.51 1464.62 5539.51 1468.7 Q5539.51 1470.13 5539.07 1471.44 Q5538.65 1472.73 5538.06 1473.73 Q5537.5 1474.74 5535.95 1476.36 Q5534.41 1477.97 5533.17 1479.12 Q5531.93 1480.27 5529.14 1482.71 L5524.06 1487.65 L5532.7 1487.65 Q5536.91 1487.65 5537.24 1487.27 Q5537.71 1486.59 5538.3 1483.01 L5539.51 1483.01 L5538.16 1491.35 L5520.36 1491.35 Z" fill="#000000" fill-rule="nonzero" fill-opacity="1" /><path clip-path="url(#clip300)" d="M5544.11 1484.11 Q5544.11 1478.75 5551.01 1475.28 Q5548.04 1473.27 5547.5 1472.68 Q5545.39 1470.34 5545.39 1467.41 Q5545.39 1464.06 5547.92 1461.74 Q5550.48 1459.4 5554.08 1459.4 Q5557.53 1459.4 5560.13 1461.39 Q5562.73 1463.38 5562.73 1466.54 Q5562.73 1470.99 5556.92 1473.99 Q5560.76 1476.38 5561.67 1477.39 Q5564.01 1479.99 5564.01 1483.29 Q5564.01 1487.13 5561.06 1489.78 Q5558.11 1492.4 5554.04 1492.4 Q5550.05 1492.4 5547.08 1490.08 Q5544.11 1487.77 5544.11 1484.11 M5546.49 1484.11 Q5546.49 1487.09 5548.72 1489.08 Q5550.97 1491.07 5554.08 1491.07 Q5557.1 1491.07 5559.35 1489.33 Q5561.63 1487.6 5561.63 1485.02 Q5561.63 1484.02 5561.27 1483.15 Q5560.95 1482.28 5560.27 1481.6 Q5559.61 1480.9 5559.19 1480.6 Q5558.79 1480.27 5558.02 1479.73 L5552.12 1476.01 Q5546.49 1479.12 5546.49 1484.11 M5547.5 1465.54 Q5547.5 1467.83 5549.91 1469.43 L5555.86 1473.27 Q5560.62 1470.48 5560.62 1466.54 Q5560.62 1463.99 5558.67 1462.3 Q5556.73 1460.6 5554.04 1460.6 Q5551.39 1460.6 5549.45 1462 Q5547.5 1463.38 5547.5 1465.54 Z" fill="#000000" fill-rule="nonzero" fill-opacity="1" /><path clip-path="url(#clip300)" d="M5568.93 1466.35 Q5568.93 1465.75 5568.98 1465.57 Q5569.04 1465.39 5569.31 1465.11 L5575.75 1457.93 Q5579.27 1453.96 5579.27 1450.5 Q5579.27 1448.25 5578.09 1446.64 Q5576.93 1445.04 5574.78 1445.04 Q5573.31 1445.04 5572.06 1445.94 Q5570.81 1446.84 5570.24 1448.45 Q5570.34 1448.42 5570.68 1448.42 Q5571.52 1448.42 5571.98 1448.94 Q5572.45 1449.46 5572.45 1450.17 Q5572.45 1451.07 5571.86 1451.51 Q5571.29 1451.94 5570.72 1451.94 Q5570.49 1451.94 5570.17 1451.89 Q5569.88 1451.84 5569.4 1451.38 Q5568.93 1450.91 5568.93 1450.07 Q5568.93 1447.73 5570.7 1445.86 Q5572.49 1443.99 5575.21 1443.99 Q5578.29 1443.99 5580.31 1445.83 Q5582.34 1447.65 5582.34 1450.5 Q5582.34 1451.5 5582.03 1452.42 Q5581.73 1453.32 5581.32 1454.02 Q5580.93 1454.73 5579.85 1455.86 Q5578.77 1456.99 5577.9 1457.79 Q5577.03 1458.6 5575.08 1460.3 L5571.52 1463.76 L5577.57 1463.76 Q5580.52 1463.76 5580.75 1463.5 Q5581.08 1463.02 5581.49 1460.52 L5582.34 1460.52 L5581.39 1466.35 L5568.93 1466.35 Z" fill="#000000" fill-rule="nonzero" fill-opacity="1" /><path clip-path="url(#clip300)" d="M7418.56 1464.23 L7418.56 1462.73 Q7424.32 1462.73 7427.3 1459.67 Q7428.12 1459.67 7428.26 1459.85 Q7428.4 1460.04 7428.4 1460.91 L7428.4 1487.82 Q7428.4 1489.25 7429.1 1489.69 Q7429.8 1490.14 7432.87 1490.14 L7434.4 1490.14 L7434.4 1491.61 Q7432.71 1491.47 7426.62 1491.47 Q7420.53 1491.47 7418.87 1491.61 L7418.87 1490.14 L7420.39 1490.14 Q7423.41 1490.14 7424.14 1489.72 Q7424.86 1489.27 7424.86 1487.82 L7424.86 1462.97 Q7422.36 1464.23 7418.56 1464.23 Z" fill="#000000" fill-rule="nonzero" fill-opacity="1" /><path clip-path="url(#clip300)" d="M7438.9 1491.61 Q7438.9 1490.75 7438.97 1490.49 Q7439.06 1490.23 7439.44 1489.83 L7448.64 1479.58 Q7453.68 1473.91 7453.68 1468.96 Q7453.68 1465.76 7451.99 1463.46 Q7450.33 1461.17 7447.26 1461.17 Q7445.15 1461.17 7443.37 1462.45 Q7441.59 1463.74 7440.77 1466.04 Q7440.92 1465.99 7441.41 1465.99 Q7442.6 1465.99 7443.26 1466.74 Q7443.94 1467.49 7443.94 1468.5 Q7443.94 1469.78 7443.09 1470.42 Q7442.27 1471.03 7441.45 1471.03 Q7441.13 1471.03 7440.68 1470.96 Q7440.26 1470.89 7439.58 1470.23 Q7438.9 1469.55 7438.9 1468.36 Q7438.9 1465.01 7441.43 1462.34 Q7443.98 1459.67 7447.87 1459.67 Q7452.28 1459.67 7455.16 1462.29 Q7458.06 1464.89 7458.06 1468.96 Q7458.06 1470.39 7457.62 1471.71 Q7457.19 1472.99 7456.61 1474 Q7456.05 1475.01 7454.5 1476.62 Q7452.95 1478.24 7451.71 1479.39 Q7450.47 1480.54 7447.68 1482.97 L7442.6 1487.91 L7451.24 1487.91 Q7455.46 1487.91 7455.79 1487.54 Q7456.26 1486.86 7456.84 1483.28 L7458.06 1483.28 L7456.7 1491.61 L7438.9 1491.61 Z" fill="#000000" fill-rule="nonzero" fill-opacity="1" /><path clip-path="url(#clip300)" d="M7462.65 1484.38 Q7462.65 1479.01 7469.56 1475.55 Q7466.59 1473.53 7466.05 1472.95 Q7463.94 1470.6 7463.94 1467.68 Q7463.94 1464.33 7466.47 1462.01 Q7469.02 1459.67 7472.63 1459.67 Q7476.07 1459.67 7478.67 1461.66 Q7481.27 1463.65 7481.27 1466.81 Q7481.27 1471.26 7475.46 1474.26 Q7479.3 1476.65 7480.22 1477.65 Q7482.56 1480.25 7482.56 1483.56 Q7482.56 1487.4 7479.61 1490.04 Q7476.66 1492.67 7472.58 1492.67 Q7468.6 1492.67 7465.63 1490.35 Q7462.65 1488.03 7462.65 1484.38 M7465.04 1484.38 Q7465.04 1487.35 7467.27 1489.34 Q7469.51 1491.33 7472.63 1491.33 Q7475.65 1491.33 7477.9 1489.6 Q7480.17 1487.87 7480.17 1485.29 Q7480.17 1484.28 7479.82 1483.42 Q7479.49 1482.55 7478.81 1481.87 Q7478.16 1481.17 7477.73 1480.86 Q7477.34 1480.54 7476.56 1480 L7470.66 1476.27 Q7465.04 1479.39 7465.04 1484.38 M7466.05 1465.8 Q7466.05 1468.1 7468.46 1469.69 L7474.41 1473.53 Q7479.16 1470.74 7479.16 1466.81 Q7479.16 1464.26 7477.22 1462.57 Q7475.28 1460.86 7472.58 1460.86 Q7469.94 1460.86 7467.99 1462.27 Q7466.05 1463.65 7466.05 1465.8 Z" fill="#000000" fill-rule="nonzero" fill-opacity="1" /><path clip-path="url(#clip300)" d="M7487.47 1466.62 Q7487.47 1466.01 7487.52 1465.83 Q7487.59 1465.65 7487.85 1465.37 L7494.29 1458.19 Q7497.82 1454.22 7497.82 1450.76 Q7497.82 1448.52 7496.64 1446.91 Q7495.48 1445.3 7493.33 1445.3 Q7491.85 1445.3 7490.61 1446.21 Q7489.36 1447.11 7488.79 1448.71 Q7488.88 1448.68 7489.23 1448.68 Q7490.06 1448.68 7490.52 1449.21 Q7491 1449.73 7491 1450.44 Q7491 1451.34 7490.41 1451.78 Q7489.83 1452.21 7489.26 1452.21 Q7489.03 1452.21 7488.72 1452.16 Q7488.42 1452.11 7487.95 1451.65 Q7487.47 1451.17 7487.47 1450.34 Q7487.47 1447.99 7489.24 1446.12 Q7491.03 1444.25 7493.75 1444.25 Q7496.84 1444.25 7498.85 1446.09 Q7500.89 1447.91 7500.89 1450.76 Q7500.89 1451.76 7500.57 1452.68 Q7500.28 1453.58 7499.87 1454.29 Q7499.48 1454.99 7498.39 1456.12 Q7497.31 1457.26 7496.44 1458.06 Q7495.57 1458.86 7493.62 1460.57 L7490.06 1464.03 L7496.11 1464.03 Q7499.07 1464.03 7499.3 1463.77 Q7499.62 1463.29 7500.03 1460.78 L7500.89 1460.78 L7499.93 1466.62 L7487.47 1466.62 Z" fill="#000000" fill-rule="nonzero" fill-opacity="1" /><path clip-path="url(#clip300)" d="M7561.2 1478.99 Q7561.62 1479.15 7561.62 1479.62 Q7561.62 1480.09 7561.2 1480.25 Q7557.68 1481.43 7554.61 1485.24 Q7552.44 1488.08 7551.83 1491.33 Q7551.76 1491.66 7551.5 1491.87 Q7551.24 1492.08 7550.89 1492.08 Q7550.49 1492.08 7550.21 1491.8 Q7549.93 1491.54 7549.93 1491.15 Q7549.93 1491.12 7549.95 1491.05 Q7549.98 1490.96 7549.98 1490.94 Q7550.68 1487.14 7553.14 1484.03 Q7554.69 1482.06 7556.89 1480.58 L7520.14 1480.58 Q7519.74 1480.58 7519.46 1480.3 Q7519.18 1480.02 7519.18 1479.62 Q7519.18 1479.22 7519.46 1478.94 Q7519.74 1478.66 7520.14 1478.66 L7556.89 1478.66 Q7554.69 1477.19 7553.14 1475.22 Q7550.68 1472.1 7549.98 1468.31 Q7549.98 1468.29 7549.95 1468.22 Q7549.93 1468.12 7549.93 1468.1 Q7549.93 1467.7 7550.21 1467.44 Q7550.49 1467.16 7550.89 1467.16 Q7551.24 1467.16 7551.5 1467.37 Q7551.76 1467.58 7551.83 1467.91 Q7552.44 1471.17 7554.61 1474 Q7557.68 1477.82 7561.2 1478.99 Z" fill="#000000" fill-rule="nonzero" fill-opacity="1" /><path clip-path="url(#clip300)" d="M7579.98 1476.46 Q7579.98 1468.92 7583.82 1464.3 Q7587.66 1459.67 7592.61 1459.67 Q7595.49 1459.67 7597.08 1461.14 Q7598.7 1462.59 7598.7 1464.84 Q7598.7 1466.08 7597.97 1466.62 Q7597.24 1467.16 7596.49 1467.16 Q7595.63 1467.16 7594.95 1466.58 Q7594.27 1465.99 7594.27 1464.94 Q7594.27 1462.78 7596.92 1462.78 Q7595.67 1460.86 7592.7 1460.86 Q7591.79 1460.86 7590.85 1461.14 Q7589.91 1461.4 7588.69 1462.29 Q7587.48 1463.18 7586.54 1464.58 Q7585.6 1465.99 7584.95 1468.64 Q7584.29 1471.28 7584.29 1474.73 L7584.29 1475.87 Q7586.26 1471.12 7590.29 1471.14 Q7594.32 1471.14 7597.1 1474.21 Q7599.89 1477.28 7599.89 1481.82 Q7599.89 1486.48 7596.99 1489.58 Q7594.08 1492.67 7590.01 1492.67 Q7588.18 1492.67 7586.52 1491.9 Q7584.88 1491.15 7583.33 1489.41 Q7581.81 1487.68 7580.89 1484.35 Q7579.98 1481.03 7579.98 1476.46 M7584.38 1480.77 Q7584.38 1485.48 7585.25 1487.73 Q7585.39 1488.1 7585.7 1488.62 Q7586.02 1489.13 7586.56 1489.81 Q7587.13 1490.47 7588.04 1490.91 Q7588.95 1491.33 7590.01 1491.33 Q7593.22 1491.33 7594.76 1488.22 Q7595.58 1486.48 7595.58 1481.78 Q7595.58 1476.98 7594.71 1475.22 Q7593.24 1472.24 7590.24 1472.24 Q7588.23 1472.24 7586.82 1473.63 Q7585.44 1475.01 7584.9 1476.86 Q7584.38 1478.71 7584.38 1480.77 Z" fill="#000000" fill-rule="nonzero" fill-opacity="1" /><path clip-path="url(#clip300)" d="M7603.73 1483.7 L7603.73 1482.22 L7618.46 1459.71 Q7618.84 1459.13 7619.42 1459.15 Q7619.96 1459.15 7620.08 1459.36 Q7620.2 1459.57 7620.2 1460.39 L7620.2 1482.22 L7625 1482.22 L7625 1483.7 L7620.2 1483.7 L7620.2 1487.87 Q7620.2 1489.25 7620.76 1489.69 Q7621.35 1490.14 7623.83 1490.14 L7624.84 1490.14 L7624.84 1491.61 Q7622.87 1491.47 7618.32 1491.47 Q7613.8 1491.47 7611.84 1491.61 L7611.84 1490.14 L7612.84 1490.14 Q7615.33 1490.14 7615.91 1489.72 Q7616.5 1489.27 7616.5 1487.87 L7616.5 1483.7 L7603.73 1483.7 M7605.09 1482.22 L7616.78 1482.22 L7616.78 1464.33 L7605.09 1482.22 Z" fill="#000000" fill-rule="nonzero" fill-opacity="1" /><path clip-path="url(#clip300)" d="M7629.9 1466.09 Q7629.9 1465.48 7629.95 1465.3 Q7630.01 1465.12 7630.28 1464.84 L7636.72 1457.66 Q7640.24 1453.69 7640.24 1450.23 Q7640.24 1447.99 7639.06 1446.38 Q7637.9 1444.77 7635.75 1444.77 Q7634.28 1444.77 7633.03 1445.67 Q7631.78 1446.58 7631.21 1448.18 Q7631.31 1448.15 7631.65 1448.15 Q7632.49 1448.15 7632.95 1448.67 Q7633.42 1449.2 7633.42 1449.9 Q7633.42 1450.81 7632.83 1451.25 Q7632.26 1451.68 7631.69 1451.68 Q7631.46 1451.68 7631.14 1451.63 Q7630.85 1451.58 7630.37 1451.12 Q7629.9 1450.64 7629.9 1449.81 Q7629.9 1447.46 7631.67 1445.59 Q7633.46 1443.72 7636.18 1443.72 Q7639.26 1443.72 7641.28 1445.56 Q7643.31 1447.38 7643.31 1450.23 Q7643.31 1451.23 7643 1452.15 Q7642.7 1453.05 7642.29 1453.76 Q7641.9 1454.46 7640.82 1455.59 Q7639.74 1456.73 7638.87 1457.53 Q7638 1458.33 7636.05 1460.04 L7632.49 1463.5 L7638.54 1463.5 Q7641.49 1463.5 7641.72 1463.23 Q7642.05 1462.76 7642.46 1460.25 L7643.31 1460.25 L7642.36 1466.09 L7629.9 1466.09 Z" fill="#000000" fill-rule="nonzero" fill-opacity="1" /><path clip-path="url(#clip300)" d="M9501.37 1476.46 Q9501.37 1468.92 9505.21 1464.3 Q9509.05 1459.67 9513.99 1459.67 Q9516.87 1459.67 9518.47 1461.14 Q9520.08 1462.59 9520.08 1464.84 Q9520.08 1466.08 9519.36 1466.62 Q9518.63 1467.16 9517.88 1467.16 Q9517.01 1467.16 9516.33 1466.58 Q9515.66 1465.99 9515.66 1464.94 Q9515.66 1462.78 9518.3 1462.78 Q9517.06 1460.86 9514.09 1460.86 Q9513.17 1460.86 9512.24 1461.14 Q9511.3 1461.4 9510.08 1462.29 Q9508.86 1463.18 9507.93 1464.58 Q9506.99 1465.99 9506.33 1468.64 Q9505.68 1471.28 9505.68 1474.73 L9505.68 1475.87 Q9507.65 1471.12 9511.67 1471.14 Q9515.7 1471.14 9518.49 1474.21 Q9521.28 1477.28 9521.28 1481.82 Q9521.28 1486.48 9518.37 1489.58 Q9515.47 1492.67 9511.39 1492.67 Q9509.57 1492.67 9507.9 1491.9 Q9506.26 1491.15 9504.72 1489.41 Q9503.19 1487.68 9502.28 1484.35 Q9501.37 1481.03 9501.37 1476.46 M9505.77 1480.77 Q9505.77 1485.48 9506.64 1487.73 Q9506.78 1488.1 9507.08 1488.62 Q9507.41 1489.13 9507.95 1489.81 Q9508.51 1490.47 9509.43 1490.91 Q9510.34 1491.33 9511.39 1491.33 Q9514.6 1491.33 9516.15 1488.22 Q9516.97 1486.48 9516.97 1481.78 Q9516.97 1476.98 9516.1 1475.22 Q9514.62 1472.24 9511.63 1472.24 Q9509.61 1472.24 9508.21 1473.63 Q9506.83 1475.01 9506.29 1476.86 Q9505.77 1478.71 9505.77 1480.77 Z" fill="#000000" fill-rule="nonzero" fill-opacity="1" /><path clip-path="url(#clip300)" d="M9525.12 1483.7 L9525.12 1482.22 L9539.85 1459.71 Q9540.23 1459.13 9540.81 1459.15 Q9541.35 1459.15 9541.47 1459.36 Q9541.58 1459.57 9541.58 1460.39 L9541.58 1482.22 L9546.39 1482.22 L9546.39 1483.7 L9541.58 1483.7 L9541.58 1487.87 Q9541.58 1489.25 9542.15 1489.69 Q9542.73 1490.14 9545.21 1490.14 L9546.22 1490.14 L9546.22 1491.61 Q9544.25 1491.47 9539.71 1491.47 Q9535.19 1491.47 9533.22 1491.61 L9533.22 1490.14 L9534.23 1490.14 Q9536.71 1490.14 9537.3 1489.72 Q9537.88 1489.27 9537.88 1487.87 L9537.88 1483.7 L9525.12 1483.7 M9526.48 1482.22 L9538.16 1482.22 L9538.16 1464.33 L9526.48 1482.22 Z" fill="#000000" fill-rule="nonzero" fill-opacity="1" /><path clip-path="url(#clip300)" d="M9551.28 1466.09 Q9551.28 1465.48 9551.33 1465.3 Q9551.4 1465.12 9551.66 1464.84 L9558.11 1457.66 Q9561.63 1453.69 9561.63 1450.23 Q9561.63 1447.99 9560.45 1446.38 Q9559.29 1444.77 9557.14 1444.77 Q9555.66 1444.77 9554.42 1445.67 Q9553.17 1446.58 9552.6 1448.18 Q9552.69 1448.15 9553.04 1448.15 Q9553.88 1448.15 9554.33 1448.67 Q9554.81 1449.2 9554.81 1449.9 Q9554.81 1450.81 9554.22 1451.25 Q9553.65 1451.68 9553.07 1451.68 Q9552.84 1451.68 9552.53 1451.63 Q9552.24 1451.58 9551.76 1451.12 Q9551.28 1450.64 9551.28 1449.81 Q9551.28 1447.46 9553.06 1445.59 Q9554.84 1443.72 9557.56 1443.72 Q9560.65 1443.72 9562.66 1445.56 Q9564.7 1447.38 9564.7 1450.23 Q9564.7 1451.23 9564.38 1452.15 Q9564.09 1453.05 9563.68 1453.76 Q9563.29 1454.46 9562.2 1455.59 Q9561.12 1456.73 9560.25 1457.53 Q9559.38 1458.33 9557.43 1460.04 L9553.88 1463.5 L9559.93 1463.5 Q9562.88 1463.5 9563.11 1463.23 Q9563.43 1462.76 9563.84 1460.25 L9564.7 1460.25 L9563.75 1466.09 L9551.28 1466.09 Z" fill="#000000" fill-rule="nonzero" fill-opacity="1" /><path clip-path="url(#clip300)" d="M9625.01 1478.99 Q9625.43 1479.15 9625.43 1479.62 Q9625.43 1480.09 9625.01 1480.25 Q9621.49 1481.43 9618.43 1485.24 Q9616.25 1488.08 9615.64 1491.33 Q9615.57 1491.66 9615.31 1491.87 Q9615.05 1492.08 9614.7 1492.08 Q9614.3 1492.08 9614.02 1491.8 Q9613.74 1491.54 9613.74 1491.15 Q9613.74 1491.12 9613.76 1491.05 Q9613.79 1490.96 9613.79 1490.94 Q9614.49 1487.14 9616.95 1484.03 Q9618.5 1482.06 9620.7 1480.58 L9583.95 1480.58 Q9583.55 1480.58 9583.27 1480.3 Q9582.99 1480.02 9582.99 1479.62 Q9582.99 1479.22 9583.27 1478.94 Q9583.55 1478.66 9583.95 1478.66 L9620.7 1478.66 Q9618.5 1477.19 9616.95 1475.22 Q9614.49 1472.1 9613.79 1468.31 Q9613.79 1468.29 9613.76 1468.22 Q9613.74 1468.12 9613.74 1468.1 Q9613.74 1467.7 9614.02 1467.44 Q9614.3 1467.16 9614.7 1467.16 Q9615.05 1467.16 9615.31 1467.37 Q9615.57 1467.58 9615.64 1467.91 Q9616.25 1471.17 9618.43 1474 Q9621.49 1477.82 9625.01 1478.99 Z" fill="#000000" fill-rule="nonzero" fill-opacity="1" /><path clip-path="url(#clip300)" d="M9643.79 1485.15 Q9643.79 1483.72 9644.61 1483.04 Q9645.43 1482.36 9646.49 1482.36 Q9647.59 1482.36 9648.36 1483.09 Q9649.16 1483.79 9649.16 1485.03 Q9649.16 1486.37 9648.22 1487.12 Q9647.31 1487.87 9645.99 1487.68 Q9647.14 1489.6 9649.25 1490.47 Q9651.38 1491.33 9653.35 1491.33 Q9655.41 1491.33 9657.07 1489.55 Q9658.76 1487.77 9658.76 1483.42 Q9658.76 1479.72 9657.31 1477.58 Q9655.88 1475.45 9653.04 1475.45 L9650.94 1475.45 Q9650.21 1475.45 9650 1475.38 Q9649.79 1475.31 9649.79 1474.91 Q9649.79 1474.45 9650.51 1474.35 Q9651.24 1474.35 9652.39 1474.21 Q9655.18 1474.12 9656.65 1471.71 Q9657.99 1469.46 9657.99 1466.25 Q9657.99 1463.32 9656.58 1462.1 Q9655.2 1460.86 9653.4 1460.86 Q9651.71 1460.86 9649.86 1461.56 Q9648.01 1462.27 9647 1463.84 Q9649.98 1463.84 9649.98 1466.25 Q9649.98 1467.3 9649.3 1468 Q9648.64 1468.68 9647.54 1468.68 Q9646.49 1468.68 9645.78 1468.03 Q9645.08 1467.35 9645.08 1466.2 Q9645.08 1463.46 9647.52 1461.56 Q9649.98 1459.67 9653.58 1459.67 Q9657.14 1459.67 9659.77 1461.54 Q9662.41 1463.41 9662.41 1466.29 Q9662.41 1469.13 9660.54 1471.45 Q9658.67 1473.77 9655.69 1474.73 Q9659.34 1475.45 9661.52 1477.94 Q9663.7 1480.39 9663.7 1483.42 Q9663.7 1487.16 9660.75 1489.93 Q9657.8 1492.67 9653.49 1492.67 Q9649.51 1492.67 9646.65 1490.51 Q9643.79 1488.36 9643.79 1485.15 Z" fill="#000000" fill-rule="nonzero" fill-opacity="1" /><path clip-path="url(#clip300)" d="M9667.54 1491.61 Q9667.54 1490.75 9667.61 1490.49 Q9667.71 1490.23 9668.08 1489.83 L9677.29 1479.58 Q9682.32 1473.91 9682.32 1468.96 Q9682.32 1465.76 9680.64 1463.46 Q9678.97 1461.17 9675.9 1461.17 Q9673.8 1461.17 9672.02 1462.45 Q9670.24 1463.74 9669.42 1466.04 Q9669.56 1465.99 9670.05 1465.99 Q9671.24 1465.99 9671.9 1466.74 Q9672.58 1467.49 9672.58 1468.5 Q9672.58 1469.78 9671.73 1470.42 Q9670.92 1471.03 9670.1 1471.03 Q9669.77 1471.03 9669.32 1470.96 Q9668.9 1470.89 9668.22 1470.23 Q9667.54 1469.55 9667.54 1468.36 Q9667.54 1465.01 9670.07 1462.34 Q9672.62 1459.67 9676.51 1459.67 Q9680.92 1459.67 9683.8 1462.29 Q9686.7 1464.89 9686.7 1468.96 Q9686.7 1470.39 9686.26 1471.71 Q9685.84 1472.99 9685.25 1474 Q9684.69 1475.01 9683.14 1476.62 Q9681.6 1478.24 9680.35 1479.39 Q9679.11 1480.54 9676.33 1482.97 L9671.24 1487.91 L9679.89 1487.91 Q9684.1 1487.91 9684.43 1487.54 Q9684.9 1486.86 9685.48 1483.28 L9686.7 1483.28 L9685.34 1491.61 L9667.54 1491.61 Z" fill="#000000" fill-rule="nonzero" fill-opacity="1" /><path clip-path="url(#clip300)" d="M9691.63 1466.62 Q9691.63 1466.01 9691.68 1465.83 Q9691.75 1465.65 9692.01 1465.37 L9698.45 1458.19 Q9701.98 1454.22 9701.98 1450.76 Q9701.98 1448.52 9700.8 1446.91 Q9699.63 1445.3 9697.48 1445.3 Q9696.01 1445.3 9694.76 1446.21 Q9693.52 1447.11 9692.94 1448.71 Q9693.04 1448.68 9693.39 1448.68 Q9694.22 1448.68 9694.68 1449.21 Q9695.16 1449.73 9695.16 1450.44 Q9695.16 1451.34 9694.57 1451.78 Q9693.99 1452.21 9693.42 1452.21 Q9693.19 1452.21 9692.88 1452.16 Q9692.58 1452.11 9692.11 1451.65 Q9691.63 1451.17 9691.63 1450.34 Q9691.63 1447.99 9693.4 1446.12 Q9695.19 1444.25 9697.91 1444.25 Q9700.99 1444.25 9703.01 1446.09 Q9705.04 1447.91 9705.04 1450.76 Q9705.04 1451.76 9704.73 1452.68 Q9704.44 1453.58 9704.03 1454.29 Q9703.63 1454.99 9702.55 1456.12 Q9701.47 1457.26 9700.6 1458.06 Q9699.73 1458.86 9697.78 1460.57 L9694.22 1464.03 L9700.27 1464.03 Q9703.22 1464.03 9703.45 1463.77 Q9703.78 1463.29 9704.19 1460.78 L9705.04 1460.78 L9704.09 1466.62 L9691.63 1466.62 Z" fill="#000000" fill-rule="nonzero" fill-opacity="1" /><path clip-path="url(#clip300)" d="M834.562 1533.76 L834.562 1539.24 Q832.08 1537.87 829.565 1537.2 Q827.082 1536.5 824.536 1536.5 Q818.839 1536.5 815.688 1540.13 Q812.537 1543.73 812.537 1550.25 Q812.537 1556.78 815.688 1560.4 Q818.839 1564 824.536 1564 Q827.082 1564 829.565 1563.33 Q832.08 1562.63 834.562 1561.26 L834.562 1566.68 Q832.111 1567.82 829.47 1568.39 Q826.86 1568.97 823.9 1568.97 Q815.847 1568.97 811.105 1563.91 Q806.362 1558.85 806.362 1550.25 Q806.362 1541.53 811.136 1536.53 Q815.943 1531.54 824.282 1531.54 Q826.987 1531.54 829.565 1532.11 Q832.143 1532.65 834.562 1533.76 Z" fill="#000000" fill-rule="nonzero" fill-opacity="1" /><path clip-path="url(#clip300)" d="M874.38 1546.53 L874.38 1568.04 L868.523 1568.04 L868.523 1546.72 Q868.523 1541.66 866.55 1539.14 Q864.577 1536.63 860.63 1536.63 Q855.887 1536.63 853.15 1539.65 Q850.413 1542.68 850.413 1547.9 L850.413 1568.04 L844.525 1568.04 L844.525 1518.52 L850.413 1518.52 L850.413 1537.93 Q852.513 1534.72 855.346 1533.13 Q858.211 1531.54 861.935 1531.54 Q868.078 1531.54 871.229 1535.36 Q874.38 1539.14 874.38 1546.53 Z" fill="#000000" fill-rule="nonzero" fill-opacity="1" /><path clip-path="url(#clip300)" d="M902.261 1550.12 Q895.164 1550.12 892.426 1551.75 Q889.689 1553.37 889.689 1557.29 Q889.689 1560.4 891.726 1562.25 Q893.795 1564.07 897.328 1564.07 Q902.198 1564.07 905.126 1560.63 Q908.086 1557.16 908.086 1551.43 L908.086 1550.12 L902.261 1550.12 M913.943 1547.71 L913.943 1568.04 L908.086 1568.04 L908.086 1562.63 Q906.081 1565.88 903.089 1567.44 Q900.097 1568.97 895.768 1568.97 Q890.294 1568.97 887.047 1565.91 Q883.833 1562.82 883.833 1557.67 Q883.833 1551.65 887.843 1548.6 Q891.885 1545.54 899.874 1545.54 L908.086 1545.54 L908.086 1544.97 Q908.086 1540.93 905.413 1538.73 Q902.771 1536.5 897.965 1536.5 Q894.909 1536.5 892.013 1537.23 Q889.116 1537.97 886.443 1539.43 L886.443 1534.02 Q889.657 1532.78 892.681 1532.17 Q895.705 1531.54 898.569 1531.54 Q906.304 1531.54 910.123 1535.55 Q913.943 1539.56 913.943 1547.71 Z" fill="#000000" fill-rule="nonzero" fill-opacity="1" /><path clip-path="url(#clip300)" d="M955.638 1546.53 L955.638 1568.04 L949.781 1568.04 L949.781 1546.72 Q949.781 1541.66 947.808 1539.14 Q945.835 1536.63 941.888 1536.63 Q937.146 1536.63 934.408 1539.65 Q931.671 1542.68 931.671 1547.9 L931.671 1568.04 L925.783 1568.04 L925.783 1532.4 L931.671 1532.4 L931.671 1537.93 Q933.772 1534.72 936.604 1533.13 Q939.469 1531.54 943.193 1531.54 Q949.336 1531.54 952.487 1535.36 Q955.638 1539.14 955.638 1546.53 Z" fill="#000000" fill-rule="nonzero" fill-opacity="1" /><path clip-path="url(#clip300)" d="M990.777 1549.81 Q990.777 1543.44 988.135 1539.94 Q985.525 1536.44 980.782 1536.44 Q976.072 1536.44 973.43 1539.94 Q970.82 1543.44 970.82 1549.81 Q970.82 1556.14 973.43 1559.64 Q976.072 1563.14 980.782 1563.14 Q985.525 1563.14 988.135 1559.64 Q990.777 1556.14 990.777 1549.81 M996.633 1563.62 Q996.633 1572.72 992.591 1577.15 Q988.549 1581.6 980.21 1581.6 Q977.122 1581.6 974.385 1581.13 Q971.648 1580.68 969.07 1579.72 L969.07 1574.03 Q971.648 1575.43 974.162 1576.1 Q976.677 1576.76 979.287 1576.76 Q985.048 1576.76 987.912 1573.74 Q990.777 1570.75 990.777 1564.67 L990.777 1561.77 Q988.962 1564.92 986.13 1566.48 Q983.297 1568.04 979.35 1568.04 Q972.794 1568.04 968.783 1563.05 Q964.773 1558.05 964.773 1549.81 Q964.773 1541.53 968.783 1536.53 Q972.794 1531.54 979.35 1531.54 Q983.297 1531.54 986.13 1533.1 Q988.962 1534.66 990.777 1537.81 L990.777 1532.4 L996.633 1532.4 L996.633 1563.62 Z" fill="#000000" fill-rule="nonzero" fill-opacity="1" /><path clip-path="url(#clip300)" d="M1039.19 1548.76 L1039.19 1551.62 L1012.26 1551.62 Q1012.64 1557.67 1015.89 1560.85 Q1019.17 1564 1024.99 1564 Q1028.37 1564 1031.52 1563.17 Q1034.7 1562.35 1037.82 1560.69 L1037.82 1566.23 Q1034.67 1567.57 1031.36 1568.27 Q1028.05 1568.97 1024.64 1568.97 Q1016.11 1568.97 1011.12 1564 Q1006.15 1559.04 1006.15 1550.57 Q1006.15 1541.82 1010.86 1536.69 Q1015.6 1531.54 1023.62 1531.54 Q1030.82 1531.54 1034.99 1536.18 Q1039.19 1540.8 1039.19 1548.76 M1033.33 1547.04 Q1033.27 1542.23 1030.63 1539.37 Q1028.02 1536.5 1023.69 1536.5 Q1018.79 1536.5 1015.83 1539.27 Q1012.9 1542.04 1012.45 1547.07 L1033.33 1547.04 Z" fill="#000000" fill-rule="nonzero" fill-opacity="1" /><path clip-path="url(#clip300)" d="M1069.52 1532.4 L1075.38 1532.4 L1075.38 1568.04 L1069.52 1568.04 L1069.52 1532.4 M1069.52 1518.52 L1075.38 1518.52 L1075.38 1525.93 L1069.52 1525.93 L1069.52 1518.52 Z" fill="#000000" fill-rule="nonzero" fill-opacity="1" /><path clip-path="url(#clip300)" d="M1117.26 1546.53 L1117.26 1568.04 L1111.41 1568.04 L1111.41 1546.72 Q1111.41 1541.66 1109.43 1539.14 Q1107.46 1536.63 1103.51 1536.63 Q1098.77 1536.63 1096.03 1539.65 Q1093.3 1542.68 1093.3 1547.9 L1093.3 1568.04 L1087.41 1568.04 L1087.41 1532.4 L1093.3 1532.4 L1093.3 1537.93 Q1095.4 1534.72 1098.23 1533.13 Q1101.09 1531.54 1104.82 1531.54 Q1110.96 1531.54 1114.11 1535.36 Q1117.26 1539.14 1117.26 1546.53 Z" fill="#000000" fill-rule="nonzero" fill-opacity="1" /><path clip-path="url(#clip300)" d="M1179.3 1546.53 L1179.3 1568.04 L1173.44 1568.04 L1173.44 1546.72 Q1173.44 1541.66 1171.47 1539.14 Q1169.49 1536.63 1165.55 1536.63 Q1160.8 1536.63 1158.07 1539.65 Q1155.33 1542.68 1155.33 1547.9 L1155.33 1568.04 L1149.44 1568.04 L1149.44 1532.4 L1155.33 1532.4 L1155.33 1537.93 Q1157.43 1534.72 1160.26 1533.13 Q1163.13 1531.54 1166.85 1531.54 Q1172.99 1531.54 1176.15 1535.36 Q1179.3 1539.14 1179.3 1546.53 Z" fill="#000000" fill-rule="nonzero" fill-opacity="1" /><path clip-path="url(#clip300)" d="M1190.37 1553.98 L1190.37 1532.4 L1196.23 1532.4 L1196.23 1553.75 Q1196.23 1558.81 1198.2 1561.36 Q1200.18 1563.87 1204.12 1563.87 Q1208.87 1563.87 1211.6 1560.85 Q1214.37 1557.83 1214.37 1552.61 L1214.37 1532.4 L1220.23 1532.4 L1220.23 1568.04 L1214.37 1568.04 L1214.37 1562.57 Q1212.24 1565.82 1209.41 1567.41 Q1206.61 1568.97 1202.88 1568.97 Q1196.74 1568.97 1193.56 1565.15 Q1190.37 1561.33 1190.37 1553.98 M1205.11 1531.54 L1205.11 1531.54 Z" fill="#000000" fill-rule="nonzero" fill-opacity="1" /><path clip-path="url(#clip300)" d="M1260.05 1539.24 Q1262.24 1535.29 1265.3 1533.41 Q1268.35 1531.54 1272.49 1531.54 Q1278.06 1531.54 1281.08 1535.45 Q1284.11 1539.33 1284.11 1546.53 L1284.11 1568.04 L1278.22 1568.04 L1278.22 1546.72 Q1278.22 1541.59 1276.41 1539.11 Q1274.59 1536.63 1270.87 1536.63 Q1266.32 1536.63 1263.67 1539.65 Q1261.03 1542.68 1261.03 1547.9 L1261.03 1568.04 L1255.14 1568.04 L1255.14 1546.72 Q1255.14 1541.56 1253.33 1539.11 Q1251.52 1536.63 1247.73 1536.63 Q1243.24 1536.63 1240.6 1539.68 Q1237.96 1542.71 1237.96 1547.9 L1237.96 1568.04 L1232.07 1568.04 L1232.07 1532.4 L1237.96 1532.4 L1237.96 1537.93 Q1239.96 1534.66 1242.76 1533.1 Q1245.56 1531.54 1249.42 1531.54 Q1253.3 1531.54 1256 1533.51 Q1258.74 1535.48 1260.05 1539.24 Z" fill="#000000" fill-rule="nonzero" fill-opacity="1" /><path clip-path="url(#clip300)" d="M1321.38 1550.25 Q1321.38 1543.79 1318.71 1540.13 Q1316.06 1536.44 1311.42 1536.44 Q1306.77 1536.44 1304.1 1540.13 Q1301.45 1543.79 1301.45 1550.25 Q1301.45 1556.71 1304.1 1560.4 Q1306.77 1564.07 1311.42 1564.07 Q1316.06 1564.07 1318.71 1560.4 Q1321.38 1556.71 1321.38 1550.25 M1301.45 1537.81 Q1303.3 1534.62 1306.1 1533.1 Q1308.93 1531.54 1312.85 1531.54 Q1319.34 1531.54 1323.38 1536.69 Q1327.46 1541.85 1327.46 1550.25 Q1327.46 1558.65 1323.38 1563.81 Q1319.34 1568.97 1312.85 1568.97 Q1308.93 1568.97 1306.1 1567.44 Q1303.3 1565.88 1301.45 1562.7 L1301.45 1568.04 L1295.57 1568.04 L1295.57 1518.52 L1301.45 1518.52 L1301.45 1537.81 Z" fill="#000000" fill-rule="nonzero" fill-opacity="1" /><path clip-path="url(#clip300)" d="M1367.66 1548.76 L1367.66 1551.62 L1340.73 1551.62 Q1341.11 1557.67 1344.36 1560.85 Q1347.64 1564 1353.46 1564 Q1356.84 1564 1359.99 1563.17 Q1363.17 1562.35 1366.29 1560.69 L1366.29 1566.23 Q1363.14 1567.57 1359.83 1568.27 Q1356.52 1568.97 1353.11 1568.97 Q1344.58 1568.97 1339.59 1564 Q1334.62 1559.04 1334.62 1550.57 Q1334.62 1541.82 1339.33 1536.69 Q1344.07 1531.54 1352.09 1531.54 Q1359.29 1531.54 1363.46 1536.18 Q1367.66 1540.8 1367.66 1548.76 M1361.8 1547.04 Q1361.74 1542.23 1359.1 1539.37 Q1356.49 1536.5 1352.16 1536.5 Q1347.26 1536.5 1344.3 1539.27 Q1341.37 1542.04 1340.92 1547.07 L1361.8 1547.04 Z" fill="#000000" fill-rule="nonzero" fill-opacity="1" /><path clip-path="url(#clip300)" d="M1397.93 1537.87 Q1396.94 1537.3 1395.76 1537.04 Q1394.62 1536.76 1393.22 1536.76 Q1388.25 1536.76 1385.58 1540 Q1382.94 1543.22 1382.94 1549.27 L1382.94 1568.04 L1377.05 1568.04 L1377.05 1532.4 L1382.94 1532.4 L1382.94 1537.93 Q1384.78 1534.69 1387.74 1533.13 Q1390.7 1531.54 1394.94 1531.54 Q1395.54 1531.54 1396.27 1531.63 Q1397 1531.7 1397.9 1531.85 L1397.93 1537.87 Z" fill="#000000" fill-rule="nonzero" fill-opacity="1" /><path clip-path="url(#clip300)" d="M1438.6 1536.5 Q1433.89 1536.5 1431.16 1540.19 Q1428.42 1543.85 1428.42 1550.25 Q1428.42 1556.65 1431.12 1560.34 Q1433.86 1564 1438.6 1564 Q1443.28 1564 1446.02 1560.31 Q1448.76 1556.62 1448.76 1550.25 Q1448.76 1543.92 1446.02 1540.23 Q1443.28 1536.5 1438.6 1536.5 M1438.6 1531.54 Q1446.24 1531.54 1450.6 1536.5 Q1454.96 1541.47 1454.96 1550.25 Q1454.96 1559 1450.6 1564 Q1446.24 1568.97 1438.6 1568.97 Q1430.93 1568.97 1426.57 1564 Q1422.24 1559 1422.24 1550.25 Q1422.24 1541.47 1426.57 1536.5 Q1430.93 1531.54 1438.6 1531.54 Z" fill="#000000" fill-rule="nonzero" fill-opacity="1" /><path clip-path="url(#clip300)" d="M1482.72 1518.52 L1482.72 1523.39 L1477.12 1523.39 Q1473.97 1523.39 1472.72 1524.66 Q1471.51 1525.93 1471.51 1529.24 L1471.51 1532.4 L1481.16 1532.4 L1481.16 1536.95 L1471.51 1536.95 L1471.51 1568.04 L1465.63 1568.04 L1465.63 1536.95 L1460.02 1536.95 L1460.02 1532.4 L1465.63 1532.4 L1465.63 1529.91 Q1465.63 1523.96 1468.4 1521.26 Q1471.16 1518.52 1477.18 1518.52 L1482.72 1518.52 Z" fill="#000000" fill-rule="nonzero" fill-opacity="1" /><path clip-path="url(#clip300)" d="M1531.8 1549.81 Q1531.8 1543.44 1529.16 1539.94 Q1526.55 1536.44 1521.8 1536.44 Q1517.09 1536.44 1514.45 1539.94 Q1511.84 1543.44 1511.84 1549.81 Q1511.84 1556.14 1514.45 1559.64 Q1517.09 1563.14 1521.8 1563.14 Q1526.55 1563.14 1529.16 1559.64 Q1531.8 1556.14 1531.8 1549.81 M1537.65 1563.62 Q1537.65 1572.72 1533.61 1577.15 Q1529.57 1581.6 1521.23 1581.6 Q1518.14 1581.6 1515.41 1581.13 Q1512.67 1580.68 1510.09 1579.72 L1510.09 1574.03 Q1512.67 1575.43 1515.18 1576.1 Q1517.7 1576.76 1520.31 1576.76 Q1526.07 1576.76 1528.93 1573.74 Q1531.8 1570.75 1531.8 1564.67 L1531.8 1561.77 Q1529.98 1564.92 1527.15 1566.48 Q1524.32 1568.04 1520.37 1568.04 Q1513.81 1568.04 1509.8 1563.05 Q1505.79 1558.05 1505.79 1549.81 Q1505.79 1541.53 1509.8 1536.53 Q1513.81 1531.54 1520.37 1531.54 Q1524.32 1531.54 1527.15 1533.1 Q1529.98 1534.66 1531.8 1537.81 L1531.8 1532.4 L1537.65 1532.4 L1537.65 1563.62 Z" fill="#000000" fill-rule="nonzero" fill-opacity="1" /><path clip-path="url(#clip300)" d="M1570.37 1537.87 Q1569.39 1537.3 1568.21 1537.04 Q1567.06 1536.76 1565.66 1536.76 Q1560.7 1536.76 1558.02 1540 Q1555.38 1543.22 1555.38 1549.27 L1555.38 1568.04 L1549.49 1568.04 L1549.49 1532.4 L1555.38 1532.4 L1555.38 1537.93 Q1557.23 1534.69 1560.19 1533.13 Q1563.15 1531.54 1567.38 1531.54 Q1567.99 1531.54 1568.72 1531.63 Q1569.45 1531.7 1570.34 1531.85 L1570.37 1537.87 Z" fill="#000000" fill-rule="nonzero" fill-opacity="1" /><path clip-path="url(#clip300)" d="M1576.52 1532.4 L1582.37 1532.4 L1582.37 1568.04 L1576.52 1568.04 L1576.52 1532.4 M1576.52 1518.52 L1582.37 1518.52 L1582.37 1525.93 L1576.52 1525.93 L1576.52 1518.52 Z" fill="#000000" fill-rule="nonzero" fill-opacity="1" /><path clip-path="url(#clip300)" d="M1618.09 1537.81 L1618.09 1518.52 L1623.94 1518.52 L1623.94 1568.04 L1618.09 1568.04 L1618.09 1562.7 Q1616.24 1565.88 1613.41 1567.44 Q1610.61 1568.97 1606.66 1568.97 Q1600.2 1568.97 1596.12 1563.81 Q1592.08 1558.65 1592.08 1550.25 Q1592.08 1541.85 1596.12 1536.69 Q1600.2 1531.54 1606.66 1531.54 Q1610.61 1531.54 1613.41 1533.1 Q1616.24 1534.62 1618.09 1537.81 M1598.13 1550.25 Q1598.13 1556.71 1600.77 1560.4 Q1603.44 1564.07 1608.09 1564.07 Q1612.74 1564.07 1615.41 1560.4 Q1618.09 1556.71 1618.09 1550.25 Q1618.09 1543.79 1615.41 1540.13 Q1612.74 1536.44 1608.09 1536.44 Q1603.44 1536.44 1600.77 1540.13 Q1598.13 1543.79 1598.13 1550.25 Z" fill="#000000" fill-rule="nonzero" fill-opacity="1" /><path clip-path="url(#clip300)" d="M1641.67 1562.7 L1641.67 1581.6 L1635.78 1581.6 L1635.78 1532.4 L1641.67 1532.4 L1641.67 1537.81 Q1643.52 1534.62 1646.32 1533.1 Q1649.15 1531.54 1653.06 1531.54 Q1659.56 1531.54 1663.6 1536.69 Q1667.67 1541.85 1667.67 1550.25 Q1667.67 1558.65 1663.6 1563.81 Q1659.56 1568.97 1653.06 1568.97 Q1649.15 1568.97 1646.32 1567.44 Q1643.52 1565.88 1641.67 1562.7 M1661.59 1550.25 Q1661.59 1543.79 1658.92 1540.13 Q1656.28 1536.44 1651.63 1536.44 Q1646.99 1536.44 1644.31 1540.13 Q1641.67 1543.79 1641.67 1550.25 Q1641.67 1556.71 1644.31 1560.4 Q1646.99 1564.07 1651.63 1564.07 Q1656.28 1564.07 1658.92 1560.4 Q1661.59 1556.71 1661.59 1550.25 Z" fill="#000000" fill-rule="nonzero" fill-opacity="1" /><path clip-path="url(#clip300)" d="M1691.2 1536.5 Q1686.48 1536.5 1683.75 1540.19 Q1681.01 1543.85 1681.01 1550.25 Q1681.01 1556.65 1683.72 1560.34 Q1686.45 1564 1691.2 1564 Q1695.87 1564 1698.61 1560.31 Q1701.35 1556.62 1701.35 1550.25 Q1701.35 1543.92 1698.61 1540.23 Q1695.87 1536.5 1691.2 1536.5 M1691.2 1531.54 Q1698.83 1531.54 1703.19 1536.5 Q1707.56 1541.47 1707.56 1550.25 Q1707.56 1559 1703.19 1564 Q1698.83 1568.97 1691.2 1568.97 Q1683.52 1568.97 1679.16 1564 Q1674.84 1559 1674.84 1550.25 Q1674.84 1541.47 1679.16 1536.5 Q1683.52 1531.54 1691.2 1531.54 Z" fill="#000000" fill-rule="nonzero" fill-opacity="1" /><path clip-path="url(#clip300)" d="M1717.26 1532.4 L1723.12 1532.4 L1723.12 1568.04 L1717.26 1568.04 L1717.26 1532.4 M1717.26 1518.52 L1723.12 1518.52 L1723.12 1525.93 L1717.26 1525.93 L1717.26 1518.52 Z" fill="#000000" fill-rule="nonzero" fill-opacity="1" /><path clip-path="url(#clip300)" d="M1765.01 1546.53 L1765.01 1568.04 L1759.15 1568.04 L1759.15 1546.72 Q1759.15 1541.66 1757.18 1539.14 Q1755.2 1536.63 1751.26 1536.63 Q1746.51 1536.63 1743.78 1539.65 Q1741.04 1542.68 1741.04 1547.9 L1741.04 1568.04 L1735.15 1568.04 L1735.15 1532.4 L1741.04 1532.4 L1741.04 1537.93 Q1743.14 1534.72 1745.97 1533.13 Q1748.84 1531.54 1752.56 1531.54 Q1758.7 1531.54 1761.85 1535.36 Q1765.01 1539.14 1765.01 1546.53 Z" fill="#000000" fill-rule="nonzero" fill-opacity="1" /><path clip-path="url(#clip300)" d="M1782.48 1522.27 L1782.48 1532.4 L1794.54 1532.4 L1794.54 1536.95 L1782.48 1536.95 L1782.48 1556.3 Q1782.48 1560.66 1783.66 1561.9 Q1784.87 1563.14 1788.53 1563.14 L1794.54 1563.14 L1794.54 1568.04 L1788.53 1568.04 Q1781.75 1568.04 1779.17 1565.53 Q1776.59 1562.98 1776.59 1556.3 L1776.59 1536.95 L1772.29 1536.95 L1772.29 1532.4 L1776.59 1532.4 L1776.59 1522.27 L1782.48 1522.27 Z" fill="#000000" fill-rule="nonzero" fill-opacity="1" /><path clip-path="url(#clip300)" d="M1824.97 1533.45 L1824.97 1538.98 Q1822.49 1537.71 1819.81 1537.07 Q1817.14 1536.44 1814.28 1536.44 Q1809.92 1536.44 1807.72 1537.77 Q1805.56 1539.11 1805.56 1541.79 Q1805.56 1543.82 1807.11 1545 Q1808.67 1546.15 1813.39 1547.2 L1815.39 1547.64 Q1821.63 1548.98 1824.24 1551.43 Q1826.88 1553.85 1826.88 1558.21 Q1826.88 1563.17 1822.93 1566.07 Q1819.02 1568.97 1812.14 1568.97 Q1809.28 1568.97 1806.16 1568.39 Q1803.07 1567.85 1799.64 1566.74 L1799.64 1560.69 Q1802.88 1562.38 1806.03 1563.24 Q1809.18 1564.07 1812.27 1564.07 Q1816.41 1564.07 1818.64 1562.66 Q1820.86 1561.23 1820.86 1558.65 Q1820.86 1556.27 1819.24 1554.99 Q1817.65 1553.72 1812.21 1552.54 L1810.17 1552.07 Q1804.73 1550.92 1802.31 1548.56 Q1799.89 1546.18 1799.89 1542.04 Q1799.89 1537.01 1803.45 1534.27 Q1807.02 1531.54 1813.58 1531.54 Q1816.82 1531.54 1819.69 1532.01 Q1822.55 1532.49 1824.97 1533.45 Z" fill="#000000" fill-rule="nonzero" fill-opacity="1" /><polyline clip-path="url(#clip302)" style="stroke:#000000; stroke-linecap:round; stroke-linejoin:round; stroke-width:2; stroke-opacity:0.1; fill:none" points="1250.52,1423.18 10241.1,1423.18 "/>
<polyline clip-path="url(#clip300)" style="stroke:#000000; stroke-linecap:round; stroke-linejoin:round; stroke-width:4; stroke-opacity:1; fill:none" points="10241.1,1423.18 10031.8,1423.18 "/>
<path clip-path="url(#clip300)" d="M10075.5 1442.97 L10083.2 1442.97 L10083.2 1416.61 L10074.9 1418.27 L10074.9 1414.01 L10083.1 1412.35 L10087.8 1412.35 L10087.8 1442.97 L10095.4 1442.97 L10095.4 1446.91 L10075.5 1446.91 L10075.5 1442.97 Z" fill="#000000" fill-rule="nonzero" fill-opacity="1" /><path clip-path="url(#clip300)" d="M10114.9 1415.43 Q10111.3 1415.43 10109.5 1418.99 Q10107.6 1422.53 10107.6 1429.66 Q10107.6 1436.77 10109.5 1440.33 Q10111.3 1443.88 10114.9 1443.88 Q10118.5 1443.88 10120.3 1440.33 Q10122.2 1436.77 10122.2 1429.66 Q10122.2 1422.53 10120.3 1418.99 Q10118.5 1415.43 10114.9 1415.43 M10114.9 1411.72 Q10120.7 1411.72 10123.8 1416.33 Q10126.8 1420.91 10126.8 1429.66 Q10126.8 1438.39 10123.8 1443 Q10120.7 1447.58 10114.9 1447.58 Q10109.1 1447.58 10106 1443 Q10102.9 1438.39 10102.9 1429.66 Q10102.9 1420.91 10106 1416.33 Q10109.1 1411.72 10114.9 1411.72 Z" fill="#000000" fill-rule="nonzero" fill-opacity="1" /><path clip-path="url(#clip300)" d="M10126.8 1405.82 L10151 1405.82 L10151 1409.02 L10126.8 1409.02 L10126.8 1405.82 Z" fill="#000000" fill-rule="nonzero" fill-opacity="1" /><path clip-path="url(#clip300)" d="M10158.8 1391.42 L10162.6 1391.42 L10162.6 1419.5 L10158.8 1419.5 L10158.8 1391.42 Z" fill="#000000" fill-rule="nonzero" fill-opacity="1" /><path clip-path="url(#clip300)" d="M10187.5 1406.78 L10187.5 1419.5 L10184.1 1419.5 L10184.1 1406.9 Q10184.1 1403.91 10182.9 1402.42 Q10181.7 1400.93 10179.4 1400.93 Q10176.6 1400.93 10175 1402.72 Q10173.4 1404.51 10173.4 1407.59 L10173.4 1419.5 L10169.9 1419.5 L10169.9 1398.43 L10173.4 1398.43 L10173.4 1401.7 Q10174.6 1399.81 10176.3 1398.86 Q10178 1397.92 10180.2 1397.92 Q10183.8 1397.92 10185.7 1400.18 Q10187.5 1402.42 10187.5 1406.78 Z" fill="#000000" fill-rule="nonzero" fill-opacity="1" /><path clip-path="url(#clip300)" d="M10205.1 1390.23 L10205.1 1393.11 L10201.8 1393.11 Q10199.9 1393.11 10199.2 1393.86 Q10198.5 1394.61 10198.5 1396.57 L10198.5 1398.43 L10204.2 1398.43 L10204.2 1401.12 L10198.5 1401.12 L10198.5 1419.5 L10195 1419.5 L10195 1401.12 L10191.7 1401.12 L10191.7 1398.43 L10195 1398.43 L10195 1396.97 Q10195 1393.45 10196.6 1391.85 Q10198.3 1390.23 10201.8 1390.23 L10205.1 1390.23 Z" fill="#000000" fill-rule="nonzero" fill-opacity="1" /><path clip-path="url(#clip300)" d="M-nan -nan L-nan -nan L-nan -nan L-nan -nan L-nan -nan L-nan -nan L-nan -nan L-nan -nan L-nan -nan L-nan -nan L-nan -nan L-nan -nan Z" fill="#000000" fill-rule="nonzero" fill-opacity="1" /><path clip-path="url(#clip300)" d="M-nan -nan Q-nan -nan -nan -nan Q-nan -nan -nan -nan Q-nan -nan -nan -nan Q-nan -nan -nan -nan Q-nan -nan -nan -nan Q-nan -nan -nan -nan Q-nan -nan -nan -nan Q-nan -nan -nan -nan M-nan -nan Q-nan -nan -nan -nan Q-nan -nan -nan -nan Q-nan -nan -nan -nan Q-nan -nan -nan -nan Q-nan -nan -nan -nan Q-nan -nan -nan -nan Q-nan -nan -nan -nan Q-nan -nan -nan -nan Z" fill="#000000" fill-rule="nonzero" fill-opacity="1" /><path clip-path="url(#clip300)" d="M-nan -nan L-nan -nan L-nan -nan L-nan -nan L-nan -nan L-nan -nan L-nan -nan L-nan -nan L-nan -nan L-nan -nan L-nan -nan Z" fill="#000000" fill-rule="nonzero" fill-opacity="1" /><path clip-path="url(#clip300)" d="M-nan -nan Q-nan -nan -nan -nan Q-nan -nan -nan -nan Q-nan -nan -nan -nan Q-nan -nan -nan -nan Q-nan -nan -nan -nan Q-nan -nan -nan -nan L-nan -nan L-nan -nan M-nan -nan L-nan -nan L-nan -nan L-nan -nan Q-nan -nan -nan -nan Q-nan -nan -nan -nan Q-nan -nan -nan -nan Q-nan -nan -nan -nan Q-nan -nan -nan -nan Q-nan -nan -nan -nan L-nan -nan L-nan -nan Q-nan -nan -nan -nan Q-nan -nan -nan -nan Q-nan -nan -nan -nan Q-nan -nan -nan -nan L-nan -nan Q-nan -nan -nan -nan Q-nan -nan -nan -nan Q-nan -nan -nan -nan Q-nan -nan -nan -nan Z" fill="#000000" fill-rule="nonzero" fill-opacity="1" /><path clip-path="url(#clip300)" d="M-nan -nan L-nan -nan L-nan -nan L-nan -nan L-nan -nan L-nan -nan L-nan -nan L-nan -nan L-nan -nan L-nan -nan L-nan -nan Z" fill="#000000" fill-rule="nonzero" fill-opacity="1" /><path clip-path="url(#clip300)" d="M33.7671 869.783 L14.479 869.783 L14.479 863.927 L64.0042 863.927 L64.0042 869.783 L58.657 869.783 Q61.8398 871.629 63.3994 874.462 Q64.9272 877.263 64.9272 881.209 Q64.9272 887.671 59.771 891.745 Q54.6147 895.787 46.212 895.787 Q37.8093 895.787 32.6531 891.745 Q27.4968 887.671 27.4968 881.209 Q27.4968 877.263 29.0564 874.462 Q30.5842 871.629 33.7671 869.783 M46.212 889.739 Q52.6732 889.739 56.3653 887.098 Q60.0256 884.424 60.0256 879.777 Q60.0256 875.13 56.3653 872.457 Q52.6732 869.783 46.212 869.783 Q39.7508 869.783 36.0905 872.457 Q32.3984 875.13 32.3984 879.777 Q32.3984 884.424 36.0905 887.098 Q39.7508 889.739 46.212 889.739 Z" fill="#000000" fill-rule="nonzero" fill-opacity="1" /><path clip-path="url(#clip300)" d="M28.3562 851.864 L28.3562 846.007 L64.0042 846.007 L64.0042 851.864 L28.3562 851.864 M14.479 851.864 L14.479 846.007 L21.895 846.007 L21.895 851.864 L14.479 851.864 Z" fill="#000000" fill-rule="nonzero" fill-opacity="1" /><path clip-path="url(#clip300)" d="M14.479 815.706 L19.3487 815.706 L19.3487 821.308 Q19.3487 824.459 20.6219 825.7 Q21.895 826.91 25.2052 826.91 L28.3562 826.91 L28.3562 817.266 L32.9077 817.266 L32.9077 826.91 L64.0042 826.91 L64.0042 832.798 L32.9077 832.798 L32.9077 838.4 L28.3562 838.4 L28.3562 832.798 L25.8736 832.798 Q19.9216 832.798 17.2162 830.029 Q14.479 827.26 14.479 821.244 L14.479 815.706 Z" fill="#000000" fill-rule="nonzero" fill-opacity="1" /><path clip-path="url(#clip300)" d="M14.479 792.758 L19.3487 792.758 L19.3487 798.36 Q19.3487 801.511 20.6219 802.752 Q21.895 803.962 25.2052 803.962 L28.3562 803.962 L28.3562 794.318 L32.9077 794.318 L32.9077 803.962 L64.0042 803.962 L64.0042 809.85 L32.9077 809.85 L32.9077 815.452 L28.3562 815.452 L28.3562 809.85 L25.8736 809.85 Q19.9216 809.85 17.2162 807.081 Q14.479 804.312 14.479 798.296 L14.479 792.758 Z" fill="#000000" fill-rule="nonzero" fill-opacity="1" /><path clip-path="url(#clip300)" d="M44.7161 757.365 L47.5806 757.365 L47.5806 784.292 Q53.6281 783.91 56.8109 780.663 Q59.9619 777.385 59.9619 771.56 Q59.9619 768.186 59.1344 765.035 Q58.3069 761.852 56.6518 758.733 L62.1899 758.733 Q63.5267 761.884 64.227 765.194 Q64.9272 768.505 64.9272 771.91 Q64.9272 780.44 59.9619 785.437 Q54.9967 790.403 46.5303 790.403 Q37.7774 790.403 32.6531 785.692 Q27.4968 780.95 27.4968 772.929 Q27.4968 765.736 32.1438 761.566 Q36.7589 757.365 44.7161 757.365 M42.9973 763.221 Q38.1912 763.285 35.3266 765.927 Q32.4621 768.536 32.4621 772.865 Q32.4621 777.767 35.2312 780.727 Q38.0002 783.655 43.0292 784.101 L42.9973 763.221 Z" fill="#000000" fill-rule="nonzero" fill-opacity="1" /><path clip-path="url(#clip300)" d="M33.8307 727.096 Q33.2578 728.082 33.0032 729.26 Q32.7167 730.406 32.7167 731.806 Q32.7167 736.772 35.9632 739.445 Q39.1779 742.087 45.2253 742.087 L64.0042 742.087 L64.0042 747.975 L28.3562 747.975 L28.3562 742.087 L33.8944 742.087 Q30.6479 740.241 29.0883 737.281 Q27.4968 734.321 27.4968 730.088 Q27.4968 729.483 27.5923 728.751 Q27.656 728.019 27.8151 727.128 L33.8307 727.096 Z" fill="#000000" fill-rule="nonzero" fill-opacity="1" /><path clip-path="url(#clip300)" d="M44.7161 691.893 L47.5806 691.893 L47.5806 718.82 Q53.6281 718.438 56.8109 715.192 Q59.9619 711.913 59.9619 706.089 Q59.9619 702.715 59.1344 699.564 Q58.3069 696.381 56.6518 693.262 L62.1899 693.262 Q63.5267 696.413 64.227 699.723 Q64.9272 703.033 64.9272 706.439 Q64.9272 714.969 59.9619 719.966 Q54.9967 724.931 46.5303 724.931 Q37.7774 724.931 32.6531 720.221 Q27.4968 715.478 27.4968 707.457 Q27.4968 700.264 32.1438 696.095 Q36.7589 691.893 44.7161 691.893 M42.9973 697.75 Q38.1912 697.813 35.3266 700.455 Q32.4621 703.065 32.4621 707.394 Q32.4621 712.295 35.2312 715.255 Q38.0002 718.184 43.0292 718.629 L42.9973 697.75 Z" fill="#000000" fill-rule="nonzero" fill-opacity="1" /><path clip-path="url(#clip300)" d="M42.4881 652.649 L64.0042 652.649 L64.0042 658.505 L42.679 658.505 Q37.6183 658.505 35.1038 660.479 Q32.5894 662.452 32.5894 666.399 Q32.5894 671.141 35.6131 673.878 Q38.6368 676.616 43.8567 676.616 L64.0042 676.616 L64.0042 682.504 L28.3562 682.504 L28.3562 676.616 L33.8944 676.616 Q30.6797 674.515 29.0883 671.682 Q27.4968 668.818 27.4968 665.094 Q27.4968 658.951 31.3163 655.8 Q35.1038 652.649 42.4881 652.649 Z" fill="#000000" fill-rule="nonzero" fill-opacity="1" /><path clip-path="url(#clip300)" d="M29.7248 615.314 L35.1993 615.314 Q33.8307 617.797 33.1623 620.311 Q32.4621 622.794 32.4621 625.34 Q32.4621 631.037 36.0905 634.188 Q39.6872 637.339 46.212 637.339 Q52.7369 637.339 56.3653 634.188 Q59.9619 631.037 59.9619 625.34 Q59.9619 622.794 59.2935 620.311 Q58.5933 617.797 57.2247 615.314 L62.6355 615.314 Q63.7814 617.765 64.3543 620.406 Q64.9272 623.016 64.9272 625.976 Q64.9272 634.029 59.8664 638.772 Q54.8057 643.514 46.212 643.514 Q37.491 643.514 32.4939 638.74 Q27.4968 633.934 27.4968 625.595 Q27.4968 622.889 28.0697 620.311 Q28.6108 617.733 29.7248 615.314 Z" fill="#000000" fill-rule="nonzero" fill-opacity="1" /><path clip-path="url(#clip300)" d="M44.7161 574.637 L47.5806 574.637 L47.5806 601.564 Q53.6281 601.182 56.8109 597.936 Q59.9619 594.657 59.9619 588.833 Q59.9619 585.459 59.1344 582.308 Q58.3069 579.125 56.6518 576.006 L62.1899 576.006 Q63.5267 579.157 64.227 582.467 Q64.9272 585.777 64.9272 589.183 Q64.9272 597.713 59.9619 602.71 Q54.9967 607.675 46.5303 607.675 Q37.7774 607.675 32.6531 602.964 Q27.4968 598.222 27.4968 590.201 Q27.4968 583.008 32.1438 578.838 Q36.7589 574.637 44.7161 574.637 M42.9973 580.493 Q38.1912 580.557 35.3266 583.199 Q32.4621 585.809 32.4621 590.138 Q32.4621 595.039 35.2312 597.999 Q38.0002 600.927 43.0292 601.373 L42.9973 580.493 Z" fill="#000000" fill-rule="nonzero" fill-opacity="1" /><path clip-path="url(#clip300)" d="M2008.42 196.789 L2283.68 196.789 L2283.68 93.1086 L2008.42 93.1086  Z" fill="#ffffff" fill-rule="evenodd" fill-opacity="1"/>
<polyline clip-path="url(#clip300)" style="stroke:#000000; stroke-linecap:round; stroke-linejoin:round; stroke-width:4; stroke-opacity:1; fill:none" points="2008.42,196.789 2283.68,196.789 2283.68,93.1086 2008.42,93.1086 2008.42,196.789 "/>
<circle clip-path="url(#clip300)" cx="2100.52" cy="144.949" r="20.48" fill="#009af9" fill-rule="evenodd" fill-opacity="1" stroke="#000000" stroke-opacity="1" stroke-width="4.55111"/>
<path clip-path="url(#clip300)" d="M2192.62 156.613 Q2192.62 156.426 2193.25 155.208 Q2193.89 153.966 2196.11 149.539 Q2198.34 145.089 2200.63 140.428 L2208.9 123.798 Q2209.49 122.744 2210.24 122.744 Q2210.92 122.744 2211.22 123.166 Q2211.52 123.587 2212.93 126.421 Q2213.66 127.803 2214.08 128.693 L2227.64 155.84 Q2227.87 156.426 2227.9 156.613 Q2227.9 157.081 2227.08 157.081 L2193.89 157.081 Q2192.62 157.081 2192.62 156.613 M2195.78 153.428 L2221.6 153.428 L2208.69 127.522 L2195.78 153.428 Z" fill="#000000" fill-rule="nonzero" fill-opacity="1" /><path clip-path="url(#clip300)" d="M2257.51 144.504 Q2257.51 146.869 2256.3 149.235 Q2255.08 151.601 2253.09 153.428 Q2251.1 155.231 2248.38 156.402 Q2245.66 157.573 2242.83 157.667 L2241 164.811 Q2240.65 166.544 2240.46 166.731 Q2240.28 166.919 2239.99 166.919 Q2239.41 166.919 2239.41 166.38 Q2239.41 166.216 2240.46 162.164 L2241.59 157.667 Q2237.32 157.433 2234.84 154.973 Q2232.36 152.514 2232.36 148.977 Q2232.36 146.588 2233.58 144.223 Q2234.82 141.833 2236.81 140.03 Q2238.82 138.226 2241.54 137.079 Q2244.26 135.931 2247.05 135.837 L2249.83 124.758 Q2249.97 124.126 2250.09 123.962 Q2250.21 123.798 2250.56 123.798 Q2250.82 123.798 2250.96 123.915 Q2251.1 124.032 2251.1 124.149 L2251.12 124.267 L2250.98 124.946 L2248.29 135.837 Q2250.68 136.001 2252.53 136.844 Q2254.38 137.688 2255.43 138.952 Q2256.48 140.194 2257 141.599 Q2257.51 143.005 2257.51 144.504 M2246.76 136.891 Q2244.19 137.126 2242.01 138.39 Q2239.83 139.655 2238.43 141.529 Q2237.02 143.379 2236.25 145.604 Q2235.47 147.806 2235.47 149.984 Q2235.47 151.694 2236.04 153.006 Q2236.62 154.318 2237.58 155.067 Q2238.54 155.793 2239.6 156.191 Q2240.67 156.566 2241.82 156.613 L2246.76 136.891 M2254.38 143.496 Q2254.38 140.451 2252.62 138.742 Q2250.86 137.032 2248.01 136.891 L2243.06 156.613 Q2245.15 156.449 2246.97 155.582 Q2248.83 154.692 2250.16 153.381 Q2251.5 152.046 2252.46 150.406 Q2253.42 148.743 2253.88 146.986 Q2254.38 145.206 2254.38 143.496 Z" fill="#000000" fill-rule="nonzero" fill-opacity="1" /></svg>
