<?xml version="1.0" encoding="utf-8"?>
<svg xmlns="http://www.w3.org/2000/svg" xmlns:xlink="http://www.w3.org/1999/xlink" width="600" height="400" viewBox="0 0 2400 1600">
<defs>
  <clipPath id="clip510">
    <rect x="0" y="0" width="2400" height="1600"/>
  </clipPath>
</defs>
<path clip-path="url(#clip510)" d="M0 1600 L2400 1600 L2400 0 L0 0  Z" fill="#ffffff" fill-rule="evenodd" fill-opacity="1"/>
<defs>
  <clipPath id="clip511">
    <rect x="480" y="0" width="1681" height="1600"/>
  </clipPath>
</defs>
<path clip-path="url(#clip510)" d="M210.907 1423.18 L2352.76 1423.18 L2352.76 47.2441 L210.907 47.2441  Z" fill="#ffffff" fill-rule="evenodd" fill-opacity="1"/>
<defs>
  <clipPath id="clip512">
    <rect x="210" y="47" width="2143" height="1377"/>
  </clipPath>
</defs>
<polyline clip-path="url(#clip512)" style="stroke:#000000; stroke-linecap:round; stroke-linejoin:round; stroke-width:2; stroke-opacity:0.1; fill:none" points="238.935,1423.18 238.935,47.2441 "/>
<polyline clip-path="url(#clip512)" style="stroke:#000000; stroke-linecap:round; stroke-linejoin:round; stroke-width:2; stroke-opacity:0.1; fill:none" points="564.84,1423.18 564.84,47.2441 "/>
<polyline clip-path="url(#clip512)" style="stroke:#000000; stroke-linecap:round; stroke-linejoin:round; stroke-width:2; stroke-opacity:0.1; fill:none" points="890.745,1423.18 890.745,47.2441 "/>
<polyline clip-path="url(#clip512)" style="stroke:#000000; stroke-linecap:round; stroke-linejoin:round; stroke-width:2; stroke-opacity:0.1; fill:none" points="1216.65,1423.18 1216.65,47.2441 "/>
<polyline clip-path="url(#clip512)" style="stroke:#000000; stroke-linecap:round; stroke-linejoin:round; stroke-width:2; stroke-opacity:0.1; fill:none" points="1542.56,1423.18 1542.56,47.2441 "/>
<polyline clip-path="url(#clip512)" style="stroke:#000000; stroke-linecap:round; stroke-linejoin:round; stroke-width:2; stroke-opacity:0.1; fill:none" points="1868.46,1423.18 1868.46,47.2441 "/>
<polyline clip-path="url(#clip512)" style="stroke:#000000; stroke-linecap:round; stroke-linejoin:round; stroke-width:2; stroke-opacity:0.1; fill:none" points="2194.37,1423.18 2194.37,47.2441 "/>
<polyline clip-path="url(#clip510)" style="stroke:#000000; stroke-linecap:round; stroke-linejoin:round; stroke-width:4; stroke-opacity:1; fill:none" points="210.907,1423.18 2352.76,1423.18 "/>
<polyline clip-path="url(#clip510)" style="stroke:#000000; stroke-linecap:round; stroke-linejoin:round; stroke-width:4; stroke-opacity:1; fill:none" points="238.935,1423.18 238.935,1404.28 "/>
<polyline clip-path="url(#clip510)" style="stroke:#000000; stroke-linecap:round; stroke-linejoin:round; stroke-width:4; stroke-opacity:1; fill:none" points="564.84,1423.18 564.84,1404.28 "/>
<polyline clip-path="url(#clip510)" style="stroke:#000000; stroke-linecap:round; stroke-linejoin:round; stroke-width:4; stroke-opacity:1; fill:none" points="890.745,1423.18 890.745,1404.28 "/>
<polyline clip-path="url(#clip510)" style="stroke:#000000; stroke-linecap:round; stroke-linejoin:round; stroke-width:4; stroke-opacity:1; fill:none" points="1216.65,1423.18 1216.65,1404.28 "/>
<polyline clip-path="url(#clip510)" style="stroke:#000000; stroke-linecap:round; stroke-linejoin:round; stroke-width:4; stroke-opacity:1; fill:none" points="1542.56,1423.18 1542.56,1404.28 "/>
<polyline clip-path="url(#clip510)" style="stroke:#000000; stroke-linecap:round; stroke-linejoin:round; stroke-width:4; stroke-opacity:1; fill:none" points="1868.46,1423.18 1868.46,1404.28 "/>
<polyline clip-path="url(#clip510)" style="stroke:#000000; stroke-linecap:round; stroke-linejoin:round; stroke-width:4; stroke-opacity:1; fill:none" points="2194.37,1423.18 2194.37,1404.28 "/>
<path clip-path="url(#clip510)" d="M228.288 1469.4 Q228.288 1461.96 230.165 1457.91 Q232.784 1451.88 238.959 1451.88 Q240.269 1451.88 241.627 1452.26 Q243.011 1452.6 244.74 1453.96 Q246.494 1455.32 247.556 1457.54 Q249.582 1461.84 249.582 1469.4 Q249.582 1476.79 247.704 1480.81 Q244.962 1486.69 238.91 1486.69 Q236.637 1486.69 234.315 1485.53 Q232.018 1484.37 230.56 1481.58 Q228.288 1477.4 228.288 1469.4 M232.487 1468.78 Q232.487 1476.41 233.031 1479.45 Q233.648 1482.74 235.328 1484.17 Q237.033 1485.58 238.91 1485.58 Q240.936 1485.58 242.616 1484.07 Q244.32 1482.54 244.839 1479.26 Q245.407 1476.02 245.382 1468.78 Q245.382 1461.74 244.888 1458.92 Q244.221 1455.64 242.443 1454.33 Q240.689 1453 238.91 1453 Q238.243 1453 237.527 1453.19 Q236.835 1453.39 235.822 1453.96 Q234.809 1454.53 234.019 1455.94 Q233.253 1457.34 232.882 1459.47 Q232.487 1462.21 232.487 1468.78 Z" fill="#000000" fill-rule="nonzero" fill-opacity="1" /><path clip-path="url(#clip510)" d="M542.805 1456.7 L542.805 1455.12 Q548.882 1455.12 552.019 1451.88 Q552.884 1451.88 553.032 1452.08 Q553.18 1452.28 553.18 1453.19 L553.18 1481.58 Q553.18 1483.08 553.921 1483.55 Q554.662 1484.02 557.898 1484.02 L559.504 1484.02 L559.504 1485.58 Q557.725 1485.43 551.303 1485.43 Q544.88 1485.43 543.126 1485.58 L543.126 1484.02 L544.731 1484.02 Q547.918 1484.02 548.684 1483.58 Q549.45 1483.11 549.45 1481.58 L549.45 1455.37 Q546.807 1456.7 542.805 1456.7 Z" fill="#000000" fill-rule="nonzero" fill-opacity="1" /><path clip-path="url(#clip510)" d="M565.581 1469.4 Q565.581 1461.96 567.459 1457.91 Q570.077 1451.88 576.253 1451.88 Q577.562 1451.88 578.921 1452.26 Q580.304 1452.6 582.033 1453.96 Q583.787 1455.32 584.85 1457.54 Q586.875 1461.84 586.875 1469.4 Q586.875 1476.79 584.998 1480.81 Q582.256 1486.69 576.204 1486.69 Q573.931 1486.69 571.609 1485.53 Q569.311 1484.37 567.854 1481.58 Q565.581 1477.4 565.581 1469.4 M569.781 1468.78 Q569.781 1476.41 570.324 1479.45 Q570.942 1482.74 572.622 1484.17 Q574.326 1485.58 576.204 1485.58 Q578.229 1485.58 579.909 1484.07 Q581.614 1482.54 582.132 1479.26 Q582.7 1476.02 582.676 1468.78 Q582.676 1461.74 582.182 1458.92 Q581.515 1455.64 579.736 1454.33 Q577.982 1453 576.204 1453 Q575.537 1453 574.82 1453.19 Q574.128 1453.39 573.116 1453.96 Q572.103 1454.53 571.312 1455.94 Q570.546 1457.34 570.176 1459.47 Q569.781 1462.21 569.781 1468.78 Z" fill="#000000" fill-rule="nonzero" fill-opacity="1" /><path clip-path="url(#clip510)" d="M867.722 1485.58 Q867.722 1484.67 867.796 1484.39 Q867.895 1484.12 868.29 1483.7 L877.998 1472.88 Q883.309 1466.9 883.309 1461.69 Q883.309 1458.31 881.531 1455.89 Q879.777 1453.47 876.541 1453.47 Q874.317 1453.47 872.44 1454.82 Q870.563 1456.18 869.698 1458.6 Q869.846 1458.55 870.365 1458.55 Q871.625 1458.55 872.316 1459.34 Q873.033 1460.14 873.033 1461.2 Q873.033 1462.56 872.144 1463.22 Q871.279 1463.87 870.414 1463.87 Q870.068 1463.87 869.599 1463.79 Q869.154 1463.72 868.438 1463.03 Q867.722 1462.31 867.722 1461.05 Q867.722 1457.52 870.39 1454.7 Q873.082 1451.88 877.183 1451.88 Q881.827 1451.88 884.866 1454.65 Q887.929 1457.39 887.929 1461.69 Q887.929 1463.2 887.46 1464.58 Q887.015 1465.94 886.397 1467 Q885.804 1468.07 884.174 1469.77 Q882.544 1471.47 881.234 1472.68 Q879.925 1473.9 876.985 1476.46 L871.625 1481.68 L880.74 1481.68 Q885.187 1481.68 885.533 1481.28 Q886.027 1480.57 886.644 1476.79 L887.929 1476.79 L886.496 1485.58 L867.722 1485.58 Z" fill="#000000" fill-rule="nonzero" fill-opacity="1" /><path clip-path="url(#clip510)" d="M892.474 1469.4 Q892.474 1461.96 894.352 1457.91 Q896.97 1451.88 903.146 1451.88 Q904.456 1451.88 905.814 1452.26 Q907.198 1452.6 908.927 1453.96 Q910.681 1455.32 911.743 1457.54 Q913.769 1461.84 913.769 1469.4 Q913.769 1476.79 911.891 1480.81 Q909.149 1486.69 903.097 1486.69 Q900.824 1486.69 898.502 1485.53 Q896.205 1484.37 894.747 1481.58 Q892.474 1477.4 892.474 1469.4 M896.674 1468.78 Q896.674 1476.41 897.217 1479.45 Q897.835 1482.74 899.515 1484.17 Q901.219 1485.58 903.097 1485.58 Q905.123 1485.58 906.802 1484.07 Q908.507 1482.54 909.026 1479.26 Q909.594 1476.02 909.569 1468.78 Q909.569 1461.74 909.075 1458.92 Q908.408 1455.64 906.629 1454.33 Q904.875 1453 903.097 1453 Q902.43 1453 901.713 1453.19 Q901.022 1453.39 900.009 1453.96 Q898.996 1454.53 898.206 1455.94 Q897.44 1457.34 897.069 1459.47 Q896.674 1462.21 896.674 1468.78 Z" fill="#000000" fill-rule="nonzero" fill-opacity="1" /><path clip-path="url(#clip510)" d="M1193.43 1478.76 Q1193.43 1477.25 1194.29 1476.54 Q1195.16 1475.82 1196.27 1475.82 Q1197.43 1475.82 1198.25 1476.59 Q1199.09 1477.33 1199.09 1478.64 Q1199.09 1480.05 1198.1 1480.84 Q1197.13 1481.63 1195.75 1481.43 Q1196.96 1483.46 1199.19 1484.37 Q1201.43 1485.28 1203.51 1485.28 Q1205.68 1485.28 1207.44 1483.41 Q1209.21 1481.53 1209.21 1476.93 Q1209.21 1473.03 1207.68 1470.78 Q1206.18 1468.53 1203.19 1468.53 L1200.96 1468.53 Q1200.2 1468.53 1199.98 1468.46 Q1199.75 1468.39 1199.75 1467.97 Q1199.75 1467.47 1200.52 1467.37 Q1201.28 1467.37 1202.5 1467.23 Q1205.44 1467.13 1206.99 1464.58 Q1208.4 1462.21 1208.4 1458.83 Q1208.4 1455.74 1206.92 1454.45 Q1205.46 1453.14 1203.56 1453.14 Q1201.78 1453.14 1199.83 1453.89 Q1197.88 1454.63 1196.81 1456.28 Q1199.95 1456.28 1199.95 1458.83 Q1199.95 1459.94 1199.23 1460.68 Q1198.54 1461.4 1197.38 1461.4 Q1196.27 1461.4 1195.53 1460.7 Q1194.79 1459.99 1194.79 1458.78 Q1194.79 1455.89 1197.36 1453.89 Q1199.95 1451.88 1203.76 1451.88 Q1207.51 1451.88 1210.28 1453.86 Q1213.07 1455.84 1213.07 1458.88 Q1213.07 1461.86 1211.09 1464.31 Q1209.12 1466.76 1205.98 1467.77 Q1209.83 1468.53 1212.13 1471.15 Q1214.43 1473.75 1214.43 1476.93 Q1214.43 1480.89 1211.31 1483.8 Q1208.2 1486.69 1203.66 1486.69 Q1199.46 1486.69 1196.44 1484.42 Q1193.43 1482.15 1193.43 1478.76 Z" fill="#000000" fill-rule="nonzero" fill-opacity="1" /><path clip-path="url(#clip510)" d="M1218.58 1469.4 Q1218.58 1461.96 1220.45 1457.91 Q1223.07 1451.88 1229.25 1451.88 Q1230.56 1451.88 1231.92 1452.26 Q1233.3 1452.6 1235.03 1453.96 Q1236.78 1455.32 1237.85 1457.54 Q1239.87 1461.84 1239.87 1469.4 Q1239.87 1476.79 1237.99 1480.81 Q1235.25 1486.69 1229.2 1486.69 Q1226.93 1486.69 1224.6 1485.53 Q1222.31 1484.37 1220.85 1481.58 Q1218.58 1477.4 1218.58 1469.4 M1222.78 1468.78 Q1222.78 1476.41 1223.32 1479.45 Q1223.94 1482.74 1225.62 1484.17 Q1227.32 1485.58 1229.2 1485.58 Q1231.23 1485.58 1232.91 1484.07 Q1234.61 1482.54 1235.13 1479.26 Q1235.7 1476.02 1235.67 1468.78 Q1235.67 1461.74 1235.18 1458.92 Q1234.51 1455.64 1232.73 1454.33 Q1230.98 1453 1229.2 1453 Q1228.53 1453 1227.82 1453.19 Q1227.12 1453.39 1226.11 1453.96 Q1225.1 1454.53 1224.31 1455.94 Q1223.54 1457.34 1223.17 1459.47 Q1222.78 1462.21 1222.78 1468.78 Z" fill="#000000" fill-rule="nonzero" fill-opacity="1" /><path clip-path="url(#clip510)" d="M1518.98 1477.23 L1518.98 1475.67 L1534.51 1451.93 Q1534.91 1451.32 1535.53 1451.34 Q1536.1 1451.34 1536.22 1451.56 Q1536.34 1451.79 1536.34 1452.65 L1536.34 1475.67 L1541.41 1475.67 L1541.41 1477.23 L1536.34 1477.23 L1536.34 1481.63 Q1536.34 1483.08 1536.94 1483.55 Q1537.55 1484.02 1540.17 1484.02 L1541.23 1484.02 L1541.23 1485.58 Q1539.16 1485.43 1534.37 1485.43 Q1529.6 1485.43 1527.52 1485.58 L1527.52 1484.02 L1528.59 1484.02 Q1531.2 1484.02 1531.82 1483.58 Q1532.44 1483.11 1532.44 1481.63 L1532.44 1477.23 L1518.98 1477.23 M1520.41 1475.67 L1532.74 1475.67 L1532.74 1456.8 L1520.41 1475.67 Z" fill="#000000" fill-rule="nonzero" fill-opacity="1" /><path clip-path="url(#clip510)" d="M1544.84 1469.4 Q1544.84 1461.96 1546.72 1457.91 Q1549.34 1451.88 1555.51 1451.88 Q1556.82 1451.88 1558.18 1452.26 Q1559.56 1452.6 1561.29 1453.96 Q1563.05 1455.32 1564.11 1457.54 Q1566.13 1461.84 1566.13 1469.4 Q1566.13 1476.79 1564.26 1480.81 Q1561.52 1486.69 1555.46 1486.69 Q1553.19 1486.69 1550.87 1485.53 Q1548.57 1484.37 1547.11 1481.58 Q1544.84 1477.4 1544.84 1469.4 M1549.04 1468.78 Q1549.04 1476.41 1549.58 1479.45 Q1550.2 1482.74 1551.88 1484.17 Q1553.59 1485.58 1555.46 1485.58 Q1557.49 1485.58 1559.17 1484.07 Q1560.87 1482.54 1561.39 1479.26 Q1561.96 1476.02 1561.94 1468.78 Q1561.94 1461.74 1561.44 1458.92 Q1560.77 1455.64 1559 1454.33 Q1557.24 1453 1555.46 1453 Q1554.8 1453 1554.08 1453.19 Q1553.39 1453.39 1552.38 1453.96 Q1551.36 1454.53 1550.57 1455.94 Q1549.81 1457.34 1549.44 1459.47 Q1549.04 1462.21 1549.04 1468.78 Z" fill="#000000" fill-rule="nonzero" fill-opacity="1" /><path clip-path="url(#clip510)" d="M1845.44 1477.43 Q1845.44 1475.92 1846.25 1475.35 Q1847.07 1474.76 1847.93 1474.76 Q1849.09 1474.76 1849.76 1475.5 Q1850.45 1476.22 1850.45 1477.23 Q1850.45 1478.24 1849.76 1478.98 Q1849.09 1479.7 1847.93 1479.7 Q1847.36 1479.7 1847.07 1479.6 Q1847.73 1481.92 1849.76 1483.6 Q1851.81 1485.28 1854.5 1485.28 Q1857.89 1485.28 1859.91 1482 Q1861.12 1479.87 1861.12 1475.06 Q1861.12 1470.81 1860.21 1468.68 Q1858.8 1465.45 1855.91 1465.45 Q1851.81 1465.45 1849.39 1468.98 Q1849.09 1469.42 1848.75 1469.45 Q1848.25 1469.45 1848.13 1469.18 Q1848.03 1468.88 1848.03 1468.11 L1848.03 1453.14 Q1848.03 1451.93 1848.53 1451.93 Q1848.72 1451.93 1849.14 1452.08 Q1852.33 1453.49 1855.86 1453.51 Q1859.49 1453.51 1862.75 1452.03 Q1863 1451.88 1863.15 1451.88 Q1863.64 1451.88 1863.67 1452.45 Q1863.67 1452.65 1863.25 1453.24 Q1862.85 1453.81 1861.99 1454.58 Q1861.12 1455.32 1860.01 1456.03 Q1858.9 1456.75 1857.27 1457.25 Q1855.66 1457.71 1853.89 1457.71 Q1851.76 1457.71 1849.59 1457.05 L1849.59 1466.9 Q1852.21 1464.33 1856.01 1464.33 Q1860.06 1464.33 1862.85 1467.6 Q1865.64 1470.86 1865.64 1475.4 Q1865.64 1480.17 1862.33 1483.43 Q1859.05 1486.69 1854.6 1486.69 Q1850.55 1486.69 1847.98 1483.8 Q1845.44 1480.91 1845.44 1477.43 Z" fill="#000000" fill-rule="nonzero" fill-opacity="1" /><path clip-path="url(#clip510)" d="M1870.19 1469.4 Q1870.19 1461.96 1872.07 1457.91 Q1874.69 1451.88 1880.86 1451.88 Q1882.17 1451.88 1883.53 1452.26 Q1884.91 1452.6 1886.64 1453.96 Q1888.4 1455.32 1889.46 1457.54 Q1891.48 1461.84 1891.48 1469.4 Q1891.48 1476.79 1889.61 1480.81 Q1886.86 1486.69 1880.81 1486.69 Q1878.54 1486.69 1876.22 1485.53 Q1873.92 1484.37 1872.46 1481.58 Q1870.19 1477.4 1870.19 1469.4 M1874.39 1468.78 Q1874.39 1476.41 1874.93 1479.45 Q1875.55 1482.74 1877.23 1484.17 Q1878.93 1485.58 1880.81 1485.58 Q1882.84 1485.58 1884.52 1484.07 Q1886.22 1482.54 1886.74 1479.26 Q1887.31 1476.02 1887.28 1468.78 Q1887.28 1461.74 1886.79 1458.92 Q1886.12 1455.64 1884.35 1454.33 Q1882.59 1453 1880.81 1453 Q1880.15 1453 1879.43 1453.19 Q1878.74 1453.39 1877.72 1453.96 Q1876.71 1454.53 1875.92 1455.94 Q1875.16 1457.34 1874.78 1459.47 Q1874.39 1462.21 1874.39 1468.78 Z" fill="#000000" fill-rule="nonzero" fill-opacity="1" /><path clip-path="url(#clip510)" d="M2171.14 1469.6 Q2171.14 1461.64 2175.2 1456.78 Q2179.25 1451.88 2184.46 1451.88 Q2187.5 1451.88 2189.18 1453.44 Q2190.88 1454.97 2190.88 1457.34 Q2190.88 1458.65 2190.12 1459.22 Q2189.35 1459.79 2188.56 1459.79 Q2187.65 1459.79 2186.93 1459.17 Q2186.21 1458.55 2186.21 1457.44 Q2186.21 1455.17 2189.01 1455.17 Q2187.7 1453.14 2184.56 1453.14 Q2183.6 1453.14 2182.61 1453.44 Q2181.62 1453.71 2180.33 1454.65 Q2179.05 1455.59 2178.06 1457.07 Q2177.07 1458.55 2176.38 1461.35 Q2175.69 1464.14 2175.69 1467.77 L2175.69 1468.98 Q2177.77 1463.96 2182.01 1463.99 Q2186.26 1463.99 2189.2 1467.23 Q2192.14 1470.46 2192.14 1475.25 Q2192.14 1480.17 2189.08 1483.43 Q2186.02 1486.69 2181.72 1486.69 Q2179.79 1486.69 2178.04 1485.88 Q2176.31 1485.09 2174.68 1483.26 Q2173.07 1481.43 2172.11 1477.92 Q2171.14 1474.41 2171.14 1469.6 M2175.79 1474.14 Q2175.79 1479.11 2176.7 1481.48 Q2176.85 1481.87 2177.17 1482.42 Q2177.52 1482.96 2178.09 1483.68 Q2178.68 1484.37 2179.64 1484.84 Q2180.61 1485.28 2181.72 1485.28 Q2185.1 1485.28 2186.73 1482 Q2187.6 1480.17 2187.6 1475.2 Q2187.6 1470.14 2186.68 1468.29 Q2185.13 1465.15 2181.96 1465.15 Q2179.84 1465.15 2178.36 1466.61 Q2176.9 1468.07 2176.33 1470.02 Q2175.79 1471.97 2175.79 1474.14 Z" fill="#000000" fill-rule="nonzero" fill-opacity="1" /><path clip-path="url(#clip510)" d="M2196.29 1469.4 Q2196.29 1461.96 2198.17 1457.91 Q2200.79 1451.88 2206.96 1451.88 Q2208.27 1451.88 2209.63 1452.26 Q2211.02 1452.6 2212.75 1453.96 Q2214.5 1455.32 2215.56 1457.54 Q2217.59 1461.84 2217.59 1469.4 Q2217.59 1476.79 2215.71 1480.81 Q2212.97 1486.69 2206.92 1486.69 Q2204.64 1486.69 2202.32 1485.53 Q2200.02 1484.37 2198.57 1481.58 Q2196.29 1477.4 2196.29 1469.4 M2200.49 1468.78 Q2200.49 1476.41 2201.04 1479.45 Q2201.65 1482.74 2203.33 1484.17 Q2205.04 1485.58 2206.92 1485.58 Q2208.94 1485.58 2210.62 1484.07 Q2212.33 1482.54 2212.84 1479.26 Q2213.41 1476.02 2213.39 1468.78 Q2213.39 1461.74 2212.89 1458.92 Q2212.23 1455.64 2210.45 1454.33 Q2208.69 1453 2206.92 1453 Q2206.25 1453 2205.53 1453.19 Q2204.84 1453.39 2203.83 1453.96 Q2202.81 1454.53 2202.02 1455.94 Q2201.26 1457.34 2200.89 1459.47 Q2200.49 1462.21 2200.49 1468.78 Z" fill="#000000" fill-rule="nonzero" fill-opacity="1" /><path clip-path="url(#clip510)" d="M975.006 1568.04 L975.006 1565.9 Q978.709 1565.9 979.558 1565.46 Q980.407 1564.99 980.407 1562.74 L980.407 1544.1 Q980.407 1541.52 979.49 1540.87 Q978.607 1540.22 975.006 1540.22 L975.006 1538.05 L984.789 1537.3 L984.789 1544.61 Q988.05 1537.3 995.081 1537.3 Q1000.31 1537.3 1002.38 1539.89 Q1003.91 1541.62 1004.22 1543.55 Q1004.56 1545.49 1004.56 1550.52 L1004.56 1563.8 Q1004.63 1565.26 1005.75 1565.6 Q1006.87 1565.9 1009.99 1565.9 L1009.99 1568.04 Q1002.89 1567.84 1002.18 1567.84 Q1001.64 1567.84 994.334 1568.04 L994.334 1565.9 Q998.036 1565.9 998.885 1565.46 Q999.768 1564.99 999.768 1562.74 L999.768 1546.54 Q999.768 1543.01 998.681 1540.94 Q997.595 1538.83 994.605 1538.83 Q991.005 1538.83 988.118 1541.86 Q985.231 1544.88 985.231 1549.97 L985.231 1562.74 Q985.231 1564.99 986.08 1565.46 Q986.963 1565.9 990.631 1565.9 L990.631 1568.04 Q983.532 1567.84 982.853 1567.84 Q982.309 1567.84 975.006 1568.04 Z" fill="#000000" fill-rule="nonzero" fill-opacity="1" /><path clip-path="url(#clip510)" d="M1011.66 1540.22 L1011.66 1538.05 L1021.88 1537.3 L1021.88 1560.4 Q1021.88 1562.07 1022.02 1563.05 Q1022.15 1564 1022.7 1565.12 Q1023.27 1566.24 1024.56 1566.75 Q1025.89 1567.26 1028 1567.26 Q1031.77 1567.26 1034.08 1564.17 Q1036.42 1561.08 1036.42 1556.5 L1036.42 1544.1 Q1036.42 1541.52 1035.5 1540.87 Q1034.58 1540.22 1030.98 1540.22 L1030.98 1538.05 L1041.21 1537.3 L1041.21 1562 Q1041.21 1564.58 1042.09 1565.26 Q1043.01 1565.9 1046.64 1565.9 L1046.64 1568.04 L1036.62 1568.83 L1036.62 1562.54 Q1033.7 1568.79 1027.66 1568.83 Q1024.6 1568.83 1022.49 1568.04 Q1020.42 1567.26 1019.37 1566.31 Q1018.31 1565.33 1017.74 1563.46 Q1017.19 1561.59 1017.13 1560.44 Q1017.06 1559.28 1017.06 1557.04 L1017.06 1546.61 Q1017.06 1541.89 1016.38 1541.07 Q1015.7 1540.22 1011.66 1540.22 Z" fill="#000000" fill-rule="nonzero" fill-opacity="1" /><path clip-path="url(#clip510)" d="M1050.24 1568.04 L1050.24 1565.9 Q1053.95 1565.9 1054.8 1565.46 Q1055.64 1564.99 1055.64 1562.74 L1055.64 1544.1 Q1055.64 1541.52 1054.73 1540.87 Q1053.84 1540.22 1050.24 1540.22 L1050.24 1538.05 L1060.03 1537.3 L1060.03 1544.61 Q1063.29 1537.3 1070.32 1537.3 Q1078.47 1537.3 1079.59 1544.1 Q1080.78 1541.45 1083.26 1539.38 Q1085.77 1537.3 1089.68 1537.3 Q1094.91 1537.3 1096.98 1539.89 Q1098.51 1541.62 1098.82 1543.55 Q1099.12 1545.49 1099.12 1550.52 L1099.12 1563.8 Q1099.19 1565.26 1100.31 1565.6 Q1101.43 1565.9 1104.56 1565.9 L1104.56 1568.04 Q1097.46 1567.84 1096.78 1567.84 Q1096.24 1567.84 1088.9 1568.04 L1088.9 1565.9 Q1092.6 1565.9 1093.45 1565.46 Q1094.33 1564.99 1094.33 1562.74 L1094.33 1546.54 Q1094.33 1543.01 1093.25 1540.94 Q1092.16 1538.83 1089.17 1538.83 Q1085.57 1538.83 1082.68 1541.86 Q1079.79 1544.88 1079.79 1549.97 L1079.79 1562.74 Q1079.79 1564.99 1080.64 1565.46 Q1081.53 1565.9 1085.23 1565.9 L1085.23 1568.04 Q1078.13 1567.84 1077.42 1567.84 Q1076.87 1567.84 1069.57 1568.04 L1069.57 1565.9 Q1073.27 1565.9 1074.12 1565.46 Q1075.01 1564.99 1075.01 1562.74 L1075.01 1546.54 Q1075.01 1543.01 1073.92 1540.94 Q1072.83 1538.83 1069.84 1538.83 Q1066.24 1538.83 1063.35 1541.86 Q1060.47 1544.88 1060.47 1549.97 L1060.47 1562.74 Q1060.47 1564.99 1061.32 1565.46 Q1062.2 1565.9 1065.87 1565.9 L1065.87 1568.04 Q1058.77 1567.84 1058.09 1567.84 Q1057.55 1567.84 1050.24 1568.04 Z" fill="#000000" fill-rule="nonzero" fill-opacity="1" /><path clip-path="url(#clip510)" d="M1105.92 1522.7 L1105.92 1520.52 L1115.94 1519.78 L1115.94 1541.82 Q1119.98 1537.3 1125.48 1537.3 Q1131.46 1537.3 1135.84 1541.89 Q1140.22 1546.47 1140.22 1553.03 Q1140.22 1559.65 1135.64 1564.24 Q1131.05 1568.83 1124.7 1568.83 Q1118.93 1568.83 1115.6 1563.73 Q1113.15 1567.98 1113.08 1568.04 L1111.35 1568.04 L1111.35 1526.57 Q1111.35 1523.99 1110.43 1523.34 Q1109.52 1522.7 1105.92 1522.7 M1116.14 1560.13 Q1116.14 1561.59 1117.12 1563.05 Q1119.88 1567.26 1124.36 1567.26 Q1124.39 1567.26 1124.43 1567.26 Q1129.29 1567.26 1132.31 1562.81 Q1134.45 1559.48 1134.45 1552.96 Q1134.45 1546.51 1132.44 1543.28 Q1129.66 1538.83 1125.14 1538.83 Q1120.05 1538.83 1116.92 1543.28 Q1116.14 1544.4 1116.14 1545.8 L1116.14 1560.13 Z" fill="#000000" fill-rule="nonzero" fill-opacity="1" /><path clip-path="url(#clip510)" d="M1146.44 1552.72 Q1146.44 1546.17 1150.65 1541.52 Q1154.86 1536.86 1160.91 1536.86 Q1167.02 1536.86 1170.18 1540.84 Q1173.37 1544.81 1173.37 1550.52 Q1173.37 1551.57 1173.1 1551.77 Q1172.83 1551.98 1171.64 1551.98 L1152.21 1551.98 Q1152.21 1559.08 1154.32 1562.41 Q1157.24 1567.06 1162.17 1567.06 Q1162.84 1567.06 1163.66 1566.92 Q1164.48 1566.79 1166.14 1566.21 Q1167.8 1565.6 1169.26 1564 Q1170.72 1562.41 1171.57 1559.89 Q1171.78 1558.91 1172.46 1558.94 Q1173.37 1558.94 1173.37 1559.76 Q1173.37 1560.37 1172.7 1561.76 Q1172.05 1563.12 1170.79 1564.75 Q1169.54 1566.38 1167.09 1567.6 Q1164.68 1568.83 1161.76 1568.83 Q1155.64 1568.83 1151.02 1564.21 Q1146.44 1559.55 1146.44 1552.72 M1152.28 1550.52 L1168.79 1550.52 Q1168.79 1549.06 1168.52 1547.43 Q1168.28 1545.8 1167.53 1543.55 Q1166.82 1541.28 1165.12 1539.85 Q1163.42 1538.42 1160.91 1538.42 Q1159.79 1538.42 1158.56 1538.9 Q1157.38 1539.38 1155.92 1540.53 Q1154.45 1541.69 1153.44 1544.3 Q1152.42 1546.92 1152.28 1550.52 Z" fill="#000000" fill-rule="nonzero" fill-opacity="1" /><path clip-path="url(#clip510)" d="M1177.31 1568.04 L1177.31 1565.9 Q1181.02 1565.9 1181.87 1565.46 Q1182.75 1564.99 1182.75 1562.74 L1182.75 1544.1 Q1182.75 1541.52 1181.83 1540.87 Q1180.95 1540.22 1177.31 1540.22 L1177.31 1538.05 L1187 1537.3 L1187 1544.95 Q1187.98 1541.96 1190.05 1539.65 Q1192.16 1537.3 1195.55 1537.3 Q1197.8 1537.3 1199.22 1538.56 Q1200.68 1539.82 1200.68 1541.55 Q1200.68 1543.08 1199.73 1543.86 Q1198.82 1544.61 1197.69 1544.61 Q1196.44 1544.61 1195.55 1543.83 Q1194.71 1543.01 1194.71 1541.62 Q1194.71 1540.77 1195.08 1540.12 Q1195.49 1539.44 1195.79 1539.21 Q1196.1 1538.97 1196.3 1538.9 Q1196.17 1538.83 1195.55 1538.83 Q1191.72 1538.83 1189.51 1542.67 Q1187.33 1546.47 1187.33 1551.91 L1187.33 1562.61 Q1187.33 1564.61 1188.15 1565.26 Q1189 1565.9 1192.63 1565.9 L1194.09 1565.9 L1194.09 1568.04 Q1191.31 1567.84 1185.26 1567.84 Q1184.41 1567.84 1183.09 1567.87 Q1181.76 1567.91 1180.03 1567.98 Q1178.3 1568.04 1177.31 1568.04 Z" fill="#000000" fill-rule="nonzero" fill-opacity="1" /><path clip-path="url(#clip510)" d="M1232.21 1564.31 Q1227.62 1559.76 1227.62 1553.17 Q1227.62 1546.54 1232.1 1541.72 Q1236.62 1536.86 1243.07 1536.86 Q1249.39 1536.86 1253.91 1541.69 Q1258.46 1546.47 1258.46 1553.17 Q1258.46 1559.72 1253.88 1564.27 Q1249.32 1568.83 1243.01 1568.83 Q1236.82 1568.83 1232.21 1564.31 M1233.39 1552.59 Q1233.39 1559.35 1235.16 1562.41 Q1237.88 1567.06 1243.07 1567.06 Q1245.66 1567.06 1247.8 1565.67 Q1249.97 1564.27 1251.16 1561.93 Q1252.69 1558.87 1252.69 1552.59 Q1252.69 1545.9 1250.85 1542.94 Q1248.14 1538.42 1243.01 1538.42 Q1240.77 1538.42 1238.56 1539.61 Q1236.38 1540.77 1235.06 1543.08 Q1233.39 1546.14 1233.39 1552.59 Z" fill="#000000" fill-rule="nonzero" fill-opacity="1" /><path clip-path="url(#clip510)" d="M1262.78 1540.22 L1262.78 1538.05 L1268.24 1538.05 L1268.24 1530.07 Q1268.24 1524.91 1271.57 1521.95 Q1274.94 1519 1279.05 1519 Q1281.76 1519 1283.53 1520.46 Q1285.3 1521.92 1285.3 1523.89 Q1285.3 1525.21 1284.48 1526.09 Q1283.7 1526.94 1282.24 1526.94 Q1280.85 1526.94 1280.03 1526.06 Q1279.25 1525.18 1279.25 1523.95 Q1279.25 1521.71 1281.32 1521.03 Q1280.27 1520.56 1279.05 1520.52 Q1276.53 1520.52 1274.56 1523.11 Q1272.63 1525.69 1272.63 1530 L1272.63 1538.05 L1280.78 1538.05 L1280.78 1540.22 L1272.86 1540.22 L1272.86 1562.61 Q1272.86 1564.61 1273.68 1565.26 Q1274.53 1565.9 1278.13 1565.9 L1279.59 1565.9 L1279.59 1568.04 Q1276.8 1567.84 1270.76 1567.84 Q1269.91 1567.84 1268.58 1567.87 Q1267.29 1567.91 1265.53 1567.98 Q1263.79 1568.04 1262.84 1568.04 L1262.84 1565.9 Q1266.55 1565.9 1267.4 1565.46 Q1268.24 1564.99 1268.24 1562.74 L1268.24 1540.22 L1262.78 1540.22 Z" fill="#000000" fill-rule="nonzero" fill-opacity="1" /><path clip-path="url(#clip510)" d="M1306.12 1540.22 L1306.12 1538.7 Q1309.31 1538.56 1311.42 1536.32 Q1313.56 1534.04 1314.27 1531.26 Q1315.02 1528.47 1315.09 1525.25 L1316.82 1525.25 L1316.82 1538.05 L1326.77 1538.05 L1326.77 1540.22 L1316.82 1540.22 L1316.82 1559.55 Q1316.82 1567.06 1321.51 1567.06 Q1323.51 1567.06 1324.83 1565.02 Q1326.16 1562.95 1326.16 1559.28 L1326.16 1555.44 L1327.89 1555.44 L1327.89 1559.42 Q1327.89 1563.19 1326.16 1566.01 Q1324.43 1568.83 1321 1568.83 Q1319.74 1568.83 1318.48 1568.49 Q1317.26 1568.18 1315.63 1567.36 Q1314.03 1566.52 1313.01 1564.48 Q1312.03 1562.41 1312.03 1559.42 L1312.03 1540.22 L1306.12 1540.22 Z" fill="#000000" fill-rule="nonzero" fill-opacity="1" /><path clip-path="url(#clip510)" d="M1334.07 1568.04 L1334.07 1565.9 Q1337.78 1565.9 1338.62 1565.46 Q1339.47 1564.99 1339.47 1562.74 L1339.47 1544.03 Q1339.47 1541.45 1338.59 1540.84 Q1337.74 1540.22 1334.34 1540.22 L1334.34 1538.05 L1344.06 1537.3 L1344.06 1562.81 Q1344.06 1564.88 1344.81 1565.39 Q1345.55 1565.9 1348.95 1565.9 L1348.95 1568.04 Q1341.85 1567.84 1341.72 1567.84 Q1340.76 1567.84 1334.07 1568.04 M1336.99 1525.18 Q1336.99 1523.78 1338.05 1522.66 Q1339.13 1521.51 1340.66 1521.51 Q1342.19 1521.51 1343.28 1522.56 Q1344.36 1523.58 1344.36 1525.21 Q1344.36 1526.81 1343.28 1527.86 Q1342.19 1528.88 1340.66 1528.88 Q1339.07 1528.88 1338.01 1527.76 Q1336.99 1526.64 1336.99 1525.18 Z" fill="#000000" fill-rule="nonzero" fill-opacity="1" /><path clip-path="url(#clip510)" d="M1353.26 1568.04 L1353.26 1565.9 Q1356.97 1565.9 1357.82 1565.46 Q1358.67 1564.99 1358.67 1562.74 L1358.67 1544.1 Q1358.67 1541.52 1357.75 1540.87 Q1356.86 1540.22 1353.26 1540.22 L1353.26 1538.05 L1363.05 1537.3 L1363.05 1544.61 Q1366.31 1537.3 1373.34 1537.3 Q1381.49 1537.3 1382.61 1544.1 Q1383.8 1541.45 1386.28 1539.38 Q1388.79 1537.3 1392.7 1537.3 Q1397.93 1537.3 1400 1539.89 Q1401.53 1541.62 1401.84 1543.55 Q1402.14 1545.49 1402.14 1550.52 L1402.14 1563.8 Q1402.21 1565.26 1403.33 1565.6 Q1404.45 1565.9 1407.58 1565.9 L1407.58 1568.04 Q1400.48 1567.84 1399.8 1567.84 Q1399.26 1567.84 1391.92 1568.04 L1391.92 1565.9 Q1395.62 1565.9 1396.47 1565.46 Q1397.35 1564.99 1397.35 1562.74 L1397.35 1546.54 Q1397.35 1543.01 1396.27 1540.94 Q1395.18 1538.83 1392.19 1538.83 Q1388.59 1538.83 1385.7 1541.86 Q1382.82 1544.88 1382.82 1549.97 L1382.82 1562.74 Q1382.82 1564.99 1383.66 1565.46 Q1384.55 1565.9 1388.25 1565.9 L1388.25 1568.04 Q1381.15 1567.84 1380.44 1567.84 Q1379.89 1567.84 1372.59 1568.04 L1372.59 1565.9 Q1376.29 1565.9 1377.14 1565.46 Q1378.03 1564.99 1378.03 1562.74 L1378.03 1546.54 Q1378.03 1543.01 1376.94 1540.94 Q1375.85 1538.83 1372.86 1538.83 Q1369.26 1538.83 1366.38 1541.86 Q1363.49 1544.88 1363.49 1549.97 L1363.49 1562.74 Q1363.49 1564.99 1364.34 1565.46 Q1365.22 1565.9 1368.89 1565.9 L1368.89 1568.04 Q1361.79 1567.84 1361.11 1567.84 Q1360.57 1567.84 1353.26 1568.04 Z" fill="#000000" fill-rule="nonzero" fill-opacity="1" /><path clip-path="url(#clip510)" d="M1410.87 1552.72 Q1410.87 1546.17 1415.08 1541.52 Q1419.3 1536.86 1425.34 1536.86 Q1431.46 1536.86 1434.62 1540.84 Q1437.81 1544.81 1437.81 1550.52 Q1437.81 1551.57 1437.54 1551.77 Q1437.26 1551.98 1436.08 1551.98 L1416.65 1551.98 Q1416.65 1559.08 1418.75 1562.41 Q1421.67 1567.06 1426.6 1567.06 Q1427.28 1567.06 1428.09 1566.92 Q1428.91 1566.79 1430.57 1566.21 Q1432.24 1565.6 1433.7 1564 Q1435.16 1562.41 1436.01 1559.89 Q1436.21 1558.91 1436.89 1558.94 Q1437.81 1558.94 1437.81 1559.76 Q1437.81 1560.37 1437.13 1561.76 Q1436.48 1563.12 1435.23 1564.75 Q1433.97 1566.38 1431.52 1567.6 Q1429.11 1568.83 1426.19 1568.83 Q1420.08 1568.83 1415.46 1564.21 Q1410.87 1559.55 1410.87 1552.72 M1416.71 1550.52 L1433.22 1550.52 Q1433.22 1549.06 1432.95 1547.43 Q1432.71 1545.8 1431.97 1543.55 Q1431.25 1541.28 1429.55 1539.85 Q1427.86 1538.42 1425.34 1538.42 Q1424.22 1538.42 1423 1538.9 Q1421.81 1539.38 1420.35 1540.53 Q1418.89 1541.69 1417.87 1544.3 Q1416.85 1546.92 1416.71 1550.52 Z" fill="#000000" fill-rule="nonzero" fill-opacity="1" /><path clip-path="url(#clip510)" d="M1442.12 1567.13 L1442.12 1557.96 Q1442.12 1557.17 1442.16 1556.9 Q1442.19 1556.63 1442.39 1556.43 Q1442.6 1556.22 1443.01 1556.22 Q1443.48 1556.22 1443.65 1556.43 Q1443.85 1556.63 1443.99 1557.41 Q1445.04 1562.2 1447.29 1564.75 Q1449.56 1567.26 1453.67 1567.26 Q1457.58 1567.26 1459.55 1565.53 Q1461.52 1563.8 1461.52 1560.94 Q1461.52 1555.85 1454.28 1554.56 Q1450.1 1553.71 1448.37 1553.17 Q1446.64 1552.59 1445.11 1551.33 Q1442.12 1548.89 1442.12 1545.42 Q1442.12 1541.96 1444.74 1539.41 Q1447.39 1536.86 1453.23 1536.86 Q1457.14 1536.86 1459.79 1538.83 Q1460.57 1538.22 1460.97 1537.71 Q1461.89 1536.86 1462.37 1536.86 Q1462.91 1536.86 1463.01 1537.24 Q1463.11 1537.58 1463.11 1538.56 L1463.11 1545.56 Q1463.11 1546.34 1463.08 1546.61 Q1463.05 1546.88 1462.84 1547.09 Q1462.64 1547.26 1462.2 1547.26 Q1461.42 1547.26 1461.38 1546.61 Q1460.84 1538.19 1453.23 1538.19 Q1449.12 1538.19 1447.29 1539.78 Q1445.45 1541.35 1445.45 1543.49 Q1445.45 1544.67 1445.99 1545.59 Q1446.57 1546.47 1447.29 1547.02 Q1448.03 1547.53 1449.39 1548.04 Q1450.75 1548.51 1451.57 1548.68 Q1452.41 1548.85 1454.01 1549.19 Q1459.58 1550.25 1461.93 1552.52 Q1464.85 1555.44 1464.85 1559.14 Q1464.85 1563.25 1462.06 1566.04 Q1459.28 1568.83 1453.67 1568.83 Q1449.15 1568.83 1445.99 1565.8 Q1445.59 1566.21 1445.28 1566.58 Q1444.98 1566.92 1444.84 1567.06 Q1444.74 1567.19 1444.7 1567.3 Q1444.67 1567.36 1444.6 1567.43 Q1443.21 1568.83 1442.87 1568.83 Q1442.33 1568.83 1442.22 1568.45 Q1442.12 1568.11 1442.12 1567.13 Z" fill="#000000" fill-rule="nonzero" fill-opacity="1" /><path clip-path="url(#clip510)" d="M1468.51 1540.22 L1468.51 1538.7 Q1471.71 1538.56 1473.81 1536.32 Q1475.95 1534.04 1476.67 1531.26 Q1477.41 1528.47 1477.48 1525.25 L1479.21 1525.25 L1479.21 1538.05 L1489.17 1538.05 L1489.17 1540.22 L1479.21 1540.22 L1479.21 1559.55 Q1479.21 1567.06 1483.9 1567.06 Q1485.91 1567.06 1487.23 1565.02 Q1488.56 1562.95 1488.56 1559.28 L1488.56 1555.44 L1490.29 1555.44 L1490.29 1559.42 Q1490.29 1563.19 1488.56 1566.01 Q1486.82 1568.83 1483.39 1568.83 Q1482.14 1568.83 1480.88 1568.49 Q1479.66 1568.18 1478.03 1567.36 Q1476.43 1566.52 1475.41 1564.48 Q1474.42 1562.41 1474.42 1559.42 L1474.42 1540.22 L1468.51 1540.22 Z" fill="#000000" fill-rule="nonzero" fill-opacity="1" /><path clip-path="url(#clip510)" d="M1496.1 1552.72 Q1496.1 1546.17 1500.31 1541.52 Q1504.52 1536.86 1510.57 1536.86 Q1516.68 1536.86 1519.84 1540.84 Q1523.03 1544.81 1523.03 1550.52 Q1523.03 1551.57 1522.76 1551.77 Q1522.49 1551.98 1521.3 1551.98 L1501.87 1551.98 Q1501.87 1559.08 1503.98 1562.41 Q1506.9 1567.06 1511.82 1567.06 Q1512.5 1567.06 1513.32 1566.92 Q1514.13 1566.79 1515.8 1566.21 Q1517.46 1565.6 1518.92 1564 Q1520.38 1562.41 1521.23 1559.89 Q1521.44 1558.91 1522.11 1558.94 Q1523.03 1558.94 1523.03 1559.76 Q1523.03 1560.37 1522.35 1561.76 Q1521.71 1563.12 1520.45 1564.75 Q1519.19 1566.38 1516.75 1567.6 Q1514.34 1568.83 1511.42 1568.83 Q1505.3 1568.83 1500.68 1564.21 Q1496.1 1559.55 1496.1 1552.72 M1501.94 1550.52 L1518.45 1550.52 Q1518.45 1549.06 1518.17 1547.43 Q1517.94 1545.8 1517.19 1543.55 Q1516.48 1541.28 1514.78 1539.85 Q1513.08 1538.42 1510.57 1538.42 Q1509.45 1538.42 1508.22 1538.9 Q1507.03 1539.38 1505.57 1540.53 Q1504.11 1541.69 1503.09 1544.3 Q1502.07 1546.92 1501.94 1550.52 Z" fill="#000000" fill-rule="nonzero" fill-opacity="1" /><path clip-path="url(#clip510)" d="M1526.97 1579.39 Q1530.67 1579.39 1531.52 1578.91 Q1532.41 1578.47 1532.41 1576.26 L1532.41 1543.69 Q1532.41 1541.38 1531.52 1540.8 Q1530.67 1540.22 1526.97 1540.22 L1526.97 1538.05 L1536.99 1537.3 L1536.99 1541.89 Q1541.17 1537.3 1546.74 1537.3 Q1552.65 1537.3 1556.97 1541.89 Q1561.28 1546.47 1561.28 1553.03 Q1561.28 1559.65 1556.69 1564.24 Q1552.11 1568.83 1545.76 1568.83 Q1542.29 1568.83 1539.95 1567.06 Q1537.64 1565.26 1537.2 1563.93 L1537.2 1564.58 L1537.2 1576.26 Q1537.2 1578.51 1538.08 1578.95 Q1538.96 1579.39 1542.63 1579.39 L1542.63 1581.53 Q1535.33 1581.32 1534.78 1581.32 Q1534.11 1581.32 1526.97 1581.53 L1526.97 1579.39 M1537.2 1560.13 Q1537.2 1561.18 1537.33 1561.56 Q1537.5 1561.93 1538.18 1563.05 Q1540.93 1567.26 1545.42 1567.26 Q1545.45 1567.26 1545.48 1567.26 Q1549.46 1567.26 1552.48 1563.22 Q1555.5 1559.14 1555.5 1553.03 Q1555.5 1547.19 1552.75 1543.11 Q1550 1539.04 1546.2 1539.04 Q1543.48 1539.04 1541.1 1540.5 Q1538.72 1541.96 1537.2 1544.61 L1537.2 1560.13 Z" fill="#000000" fill-rule="nonzero" fill-opacity="1" /><path clip-path="url(#clip510)" d="M1565.93 1567.13 L1565.93 1557.96 Q1565.93 1557.17 1565.97 1556.9 Q1566 1556.63 1566.2 1556.43 Q1566.41 1556.22 1566.82 1556.22 Q1567.29 1556.22 1567.46 1556.43 Q1567.66 1556.63 1567.8 1557.41 Q1568.85 1562.2 1571.1 1564.75 Q1573.37 1567.26 1577.48 1567.26 Q1581.39 1567.26 1583.36 1565.53 Q1585.33 1563.8 1585.33 1560.94 Q1585.33 1555.85 1578.09 1554.56 Q1573.91 1553.71 1572.18 1553.17 Q1570.45 1552.59 1568.92 1551.33 Q1565.93 1548.89 1565.93 1545.42 Q1565.93 1541.96 1568.55 1539.41 Q1571.2 1536.86 1577.04 1536.86 Q1580.95 1536.86 1583.6 1538.83 Q1584.38 1538.22 1584.78 1537.71 Q1585.7 1536.86 1586.18 1536.86 Q1586.72 1536.86 1586.82 1537.24 Q1586.92 1537.58 1586.92 1538.56 L1586.92 1545.56 Q1586.92 1546.34 1586.89 1546.61 Q1586.86 1546.88 1586.65 1547.09 Q1586.45 1547.26 1586.01 1547.26 Q1585.23 1547.26 1585.19 1546.61 Q1584.65 1538.19 1577.04 1538.19 Q1572.93 1538.19 1571.1 1539.78 Q1569.26 1541.35 1569.26 1543.49 Q1569.26 1544.67 1569.8 1545.59 Q1570.38 1546.47 1571.1 1547.02 Q1571.84 1547.53 1573.2 1548.04 Q1574.56 1548.51 1575.38 1548.68 Q1576.22 1548.85 1577.82 1549.19 Q1583.39 1550.25 1585.74 1552.52 Q1588.66 1555.44 1588.66 1559.14 Q1588.66 1563.25 1585.87 1566.04 Q1583.09 1568.83 1577.48 1568.83 Q1572.96 1568.83 1569.8 1565.8 Q1569.4 1566.21 1569.09 1566.58 Q1568.79 1566.92 1568.65 1567.06 Q1568.55 1567.19 1568.51 1567.3 Q1568.48 1567.36 1568.41 1567.43 Q1567.02 1568.83 1566.68 1568.83 Q1566.14 1568.83 1566.03 1568.45 Q1565.93 1568.11 1565.93 1567.13 Z" fill="#000000" fill-rule="nonzero" fill-opacity="1" /><polyline clip-path="url(#clip512)" style="stroke:#000000; stroke-linecap:round; stroke-linejoin:round; stroke-width:2; stroke-opacity:0.1; fill:none" points="210.907,1415.87 2352.76,1415.87 "/>
<polyline clip-path="url(#clip512)" style="stroke:#000000; stroke-linecap:round; stroke-linejoin:round; stroke-width:2; stroke-opacity:0.1; fill:none" points="210.907,1180.85 2352.76,1180.85 "/>
<polyline clip-path="url(#clip512)" style="stroke:#000000; stroke-linecap:round; stroke-linejoin:round; stroke-width:2; stroke-opacity:0.1; fill:none" points="210.907,945.833 2352.76,945.833 "/>
<polyline clip-path="url(#clip512)" style="stroke:#000000; stroke-linecap:round; stroke-linejoin:round; stroke-width:2; stroke-opacity:0.1; fill:none" points="210.907,710.816 2352.76,710.816 "/>
<polyline clip-path="url(#clip512)" style="stroke:#000000; stroke-linecap:round; stroke-linejoin:round; stroke-width:2; stroke-opacity:0.1; fill:none" points="210.907,475.798 2352.76,475.798 "/>
<polyline clip-path="url(#clip512)" style="stroke:#000000; stroke-linecap:round; stroke-linejoin:round; stroke-width:2; stroke-opacity:0.1; fill:none" points="210.907,240.781 2352.76,240.781 "/>
<polyline clip-path="url(#clip510)" style="stroke:#000000; stroke-linecap:round; stroke-linejoin:round; stroke-width:4; stroke-opacity:1; fill:none" points="210.907,1423.18 210.907,47.2441 "/>
<polyline clip-path="url(#clip510)" style="stroke:#000000; stroke-linecap:round; stroke-linejoin:round; stroke-width:4; stroke-opacity:1; fill:none" points="210.907,1415.87 229.805,1415.87 "/>
<polyline clip-path="url(#clip510)" style="stroke:#000000; stroke-linecap:round; stroke-linejoin:round; stroke-width:4; stroke-opacity:1; fill:none" points="210.907,1180.85 229.805,1180.85 "/>
<polyline clip-path="url(#clip510)" style="stroke:#000000; stroke-linecap:round; stroke-linejoin:round; stroke-width:4; stroke-opacity:1; fill:none" points="210.907,945.833 229.805,945.833 "/>
<polyline clip-path="url(#clip510)" style="stroke:#000000; stroke-linecap:round; stroke-linejoin:round; stroke-width:4; stroke-opacity:1; fill:none" points="210.907,710.816 229.805,710.816 "/>
<polyline clip-path="url(#clip510)" style="stroke:#000000; stroke-linecap:round; stroke-linejoin:round; stroke-width:4; stroke-opacity:1; fill:none" points="210.907,475.798 229.805,475.798 "/>
<polyline clip-path="url(#clip510)" style="stroke:#000000; stroke-linecap:round; stroke-linejoin:round; stroke-width:4; stroke-opacity:1; fill:none" points="210.907,240.781 229.805,240.781 "/>
<path clip-path="url(#clip510)" d="M114.26 1416.97 Q114.26 1409.53 116.138 1405.48 Q118.756 1399.45 124.932 1399.45 Q126.241 1399.45 127.6 1399.82 Q128.983 1400.17 130.713 1401.53 Q132.467 1402.89 133.529 1405.11 Q135.554 1409.41 135.554 1416.97 Q135.554 1424.35 133.677 1428.38 Q130.935 1434.26 124.883 1434.26 Q122.61 1434.26 120.288 1433.1 Q117.99 1431.94 116.533 1429.15 Q114.26 1424.97 114.26 1416.97 M118.46 1416.35 Q118.46 1423.98 119.003 1427.02 Q119.621 1430.31 121.301 1431.74 Q123.005 1433.15 124.883 1433.15 Q126.908 1433.15 128.588 1431.64 Q130.293 1430.11 130.811 1426.82 Q131.38 1423.59 131.355 1416.35 Q131.355 1409.31 130.861 1406.49 Q130.194 1403.21 128.415 1401.9 Q126.661 1400.56 124.883 1400.56 Q124.216 1400.56 123.499 1400.76 Q122.808 1400.96 121.795 1401.53 Q120.782 1402.1 119.991 1403.5 Q119.226 1404.91 118.855 1407.04 Q118.46 1409.78 118.46 1416.35 Z" fill="#000000" fill-rule="nonzero" fill-opacity="1" /><path clip-path="url(#clip510)" d="M142.644 1432.33 Q141.879 1431.52 141.879 1430.46 Q141.879 1429.39 142.644 1428.63 Q143.41 1427.84 144.571 1427.84 Q145.683 1427.84 146.424 1428.58 Q147.19 1429.29 147.19 1430.48 Q147.19 1431.64 146.375 1432.41 Q145.584 1433.15 144.571 1433.15 Q143.41 1433.15 142.644 1432.33 Z" fill="#000000" fill-rule="nonzero" fill-opacity="1" /><path clip-path="url(#clip510)" d="M153.613 1416.97 Q153.613 1409.53 155.49 1405.48 Q158.109 1399.45 164.284 1399.45 Q165.594 1399.45 166.952 1399.82 Q168.336 1400.17 170.065 1401.53 Q171.819 1402.89 172.881 1405.11 Q174.907 1409.41 174.907 1416.97 Q174.907 1424.35 173.029 1428.38 Q170.287 1434.26 164.235 1434.26 Q161.962 1434.26 159.64 1433.1 Q157.343 1431.94 155.885 1429.15 Q153.613 1424.97 153.613 1416.97 M157.812 1416.35 Q157.812 1423.98 158.356 1427.02 Q158.973 1430.31 160.653 1431.74 Q162.358 1433.15 164.235 1433.15 Q166.261 1433.15 167.941 1431.64 Q169.645 1430.11 170.164 1426.82 Q170.732 1423.59 170.707 1416.35 Q170.707 1409.31 170.213 1406.49 Q169.546 1403.21 167.768 1401.9 Q166.014 1400.56 164.235 1400.56 Q163.568 1400.56 162.852 1400.76 Q162.16 1400.96 161.147 1401.53 Q160.134 1402.1 159.344 1403.5 Q158.578 1404.91 158.207 1407.04 Q157.812 1409.78 157.812 1416.35 Z" fill="#000000" fill-rule="nonzero" fill-opacity="1" /><path clip-path="url(#clip510)" d="M114.804 1181.95 Q114.804 1174.51 116.681 1170.46 Q119.3 1164.44 125.475 1164.44 Q126.785 1164.44 128.143 1164.81 Q129.527 1165.15 131.256 1166.51 Q133.01 1167.87 134.072 1170.09 Q136.098 1174.39 136.098 1181.95 Q136.098 1189.34 134.22 1193.36 Q131.478 1199.24 125.426 1199.24 Q123.153 1199.24 120.831 1198.08 Q118.534 1196.92 117.076 1194.13 Q114.804 1189.95 114.804 1181.95 M119.003 1181.33 Q119.003 1188.97 119.547 1192 Q120.164 1195.29 121.844 1196.72 Q123.549 1198.13 125.426 1198.13 Q127.452 1198.13 129.132 1196.62 Q130.836 1195.09 131.355 1191.81 Q131.923 1188.57 131.898 1181.33 Q131.898 1174.29 131.404 1171.48 Q130.737 1168.19 128.959 1166.88 Q127.205 1165.55 125.426 1165.55 Q124.759 1165.55 124.043 1165.74 Q123.351 1165.94 122.338 1166.51 Q121.325 1167.08 120.535 1168.49 Q119.769 1169.89 119.398 1172.02 Q119.003 1174.76 119.003 1181.33 Z" fill="#000000" fill-rule="nonzero" fill-opacity="1" /><path clip-path="url(#clip510)" d="M143.188 1197.32 Q142.422 1196.5 142.422 1195.44 Q142.422 1194.38 143.188 1193.61 Q143.954 1192.82 145.115 1192.82 Q146.226 1192.82 146.967 1193.56 Q147.733 1194.28 147.733 1195.46 Q147.733 1196.62 146.918 1197.39 Q146.127 1198.13 145.115 1198.13 Q143.954 1198.13 143.188 1197.32 Z" fill="#000000" fill-rule="nonzero" fill-opacity="1" /><path clip-path="url(#clip510)" d="M154.7 1189.98 Q154.7 1188.47 155.515 1187.9 Q156.33 1187.31 157.195 1187.31 Q158.356 1187.31 159.023 1188.05 Q159.714 1188.77 159.714 1189.78 Q159.714 1190.79 159.023 1191.53 Q158.356 1192.25 157.195 1192.25 Q156.626 1192.25 156.33 1192.15 Q156.997 1194.47 159.023 1196.15 Q161.073 1197.83 163.766 1197.83 Q167.15 1197.83 169.176 1194.55 Q170.386 1192.42 170.386 1187.61 Q170.386 1183.36 169.472 1181.23 Q168.064 1178 165.174 1178 Q161.073 1178 158.652 1181.53 Q158.356 1181.97 158.01 1182 Q157.516 1182 157.392 1181.73 Q157.293 1181.43 157.293 1180.67 L157.293 1165.7 Q157.293 1164.48 157.787 1164.48 Q157.985 1164.48 158.405 1164.63 Q161.592 1166.04 165.124 1166.07 Q168.756 1166.07 172.017 1164.58 Q172.264 1164.44 172.412 1164.44 Q172.906 1164.44 172.931 1165 Q172.931 1165.2 172.511 1165.79 Q172.115 1166.36 171.251 1167.13 Q170.386 1167.87 169.275 1168.59 Q168.163 1169.3 166.532 1169.8 Q164.927 1170.27 163.148 1170.27 Q161.024 1170.27 158.85 1169.6 L158.85 1179.45 Q161.468 1176.89 165.273 1176.89 Q169.324 1176.89 172.115 1180.15 Q174.907 1183.41 174.907 1187.95 Q174.907 1192.72 171.597 1195.98 Q168.311 1199.24 163.865 1199.24 Q159.813 1199.24 157.244 1196.35 Q154.7 1193.46 154.7 1189.98 Z" fill="#000000" fill-rule="nonzero" fill-opacity="1" /><path clip-path="url(#clip510)" d="M116.78 934.235 L116.78 932.654 Q122.857 932.654 125.994 929.418 Q126.859 929.418 127.007 929.615 Q127.155 929.813 127.155 930.727 L127.155 959.111 Q127.155 960.618 127.896 961.087 Q128.638 961.557 131.874 961.557 L133.479 961.557 L133.479 963.113 Q131.701 962.965 125.278 962.965 Q118.855 962.965 117.101 963.113 L117.101 961.557 L118.707 961.557 Q121.893 961.557 122.659 961.112 Q123.425 960.643 123.425 959.111 L123.425 932.901 Q120.782 934.235 116.78 934.235 Z" fill="#000000" fill-rule="nonzero" fill-opacity="1" /><path clip-path="url(#clip510)" d="M142.644 962.298 Q141.879 961.483 141.879 960.42 Q141.879 959.358 142.644 958.592 Q143.41 957.802 144.571 957.802 Q145.683 957.802 146.424 958.543 Q147.19 959.259 147.19 960.445 Q147.19 961.606 146.375 962.372 Q145.584 963.113 144.571 963.113 Q143.41 963.113 142.644 962.298 Z" fill="#000000" fill-rule="nonzero" fill-opacity="1" /><path clip-path="url(#clip510)" d="M153.613 946.932 Q153.613 939.497 155.49 935.445 Q158.109 929.418 164.284 929.418 Q165.594 929.418 166.952 929.788 Q168.336 930.134 170.065 931.493 Q171.819 932.851 172.881 935.075 Q174.907 939.373 174.907 946.932 Q174.907 954.319 173.029 958.345 Q170.287 964.225 164.235 964.225 Q161.962 964.225 159.64 963.064 Q157.343 961.903 155.885 959.111 Q153.613 954.936 153.613 946.932 M157.812 946.315 Q157.812 953.948 158.356 956.987 Q158.973 960.272 160.653 961.705 Q162.358 963.113 164.235 963.113 Q166.261 963.113 167.941 961.606 Q169.645 960.075 170.164 956.789 Q170.732 953.553 170.707 946.315 Q170.707 939.274 170.213 936.458 Q169.546 933.173 167.768 931.863 Q166.014 930.529 164.235 930.529 Q163.568 930.529 162.852 930.727 Q162.16 930.925 161.147 931.493 Q160.134 932.061 159.344 933.469 Q158.578 934.877 158.207 937.002 Q157.812 939.744 157.812 946.315 Z" fill="#000000" fill-rule="nonzero" fill-opacity="1" /><path clip-path="url(#clip510)" d="M117.323 699.217 L117.323 697.636 Q123.4 697.636 126.538 694.4 Q127.402 694.4 127.551 694.598 Q127.699 694.795 127.699 695.709 L127.699 724.094 Q127.699 725.601 128.44 726.07 Q129.181 726.539 132.417 726.539 L134.023 726.539 L134.023 728.096 Q132.244 727.947 125.821 727.947 Q119.398 727.947 117.645 728.096 L117.645 726.539 L119.25 726.539 Q122.437 726.539 123.203 726.095 Q123.969 725.625 123.969 724.094 L123.969 697.883 Q121.325 699.217 117.323 699.217 Z" fill="#000000" fill-rule="nonzero" fill-opacity="1" /><path clip-path="url(#clip510)" d="M143.188 727.28 Q142.422 726.465 142.422 725.403 Q142.422 724.341 143.188 723.575 Q143.954 722.784 145.115 722.784 Q146.226 722.784 146.967 723.525 Q147.733 724.242 147.733 725.428 Q147.733 726.589 146.918 727.354 Q146.127 728.096 145.115 728.096 Q143.954 728.096 143.188 727.28 Z" fill="#000000" fill-rule="nonzero" fill-opacity="1" /><path clip-path="url(#clip510)" d="M154.7 719.943 Q154.7 718.437 155.515 717.868 Q156.33 717.275 157.195 717.275 Q158.356 717.275 159.023 718.017 Q159.714 718.733 159.714 719.746 Q159.714 720.759 159.023 721.5 Q158.356 722.216 157.195 722.216 Q156.626 722.216 156.33 722.117 Q156.997 724.439 159.023 726.119 Q161.073 727.799 163.766 727.799 Q167.15 727.799 169.176 724.514 Q170.386 722.389 170.386 717.572 Q170.386 713.323 169.472 711.198 Q168.064 707.962 165.174 707.962 Q161.073 707.962 158.652 711.495 Q158.356 711.94 158.01 711.964 Q157.516 711.964 157.392 711.693 Q157.293 711.396 157.293 710.63 L157.293 695.66 Q157.293 694.45 157.787 694.45 Q157.985 694.45 158.405 694.598 Q161.592 696.006 165.124 696.031 Q168.756 696.031 172.017 694.548 Q172.264 694.4 172.412 694.4 Q172.906 694.4 172.931 694.968 Q172.931 695.166 172.511 695.759 Q172.115 696.327 171.251 697.093 Q170.386 697.834 169.275 698.55 Q168.163 699.267 166.532 699.761 Q164.927 700.23 163.148 700.23 Q161.024 700.23 158.85 699.563 L158.85 709.42 Q161.468 706.851 165.273 706.851 Q169.324 706.851 172.115 710.112 Q174.907 713.372 174.907 717.918 Q174.907 722.686 171.597 725.946 Q168.311 729.207 163.865 729.207 Q159.813 729.207 157.244 726.317 Q154.7 723.427 154.7 719.943 Z" fill="#000000" fill-rule="nonzero" fill-opacity="1" /><path clip-path="url(#clip510)" d="M114.804 493.078 Q114.804 492.164 114.878 491.892 Q114.977 491.621 115.372 491.201 L125.08 480.381 Q130.391 474.402 130.391 469.19 Q130.391 465.806 128.613 463.385 Q126.859 460.964 123.623 460.964 Q121.399 460.964 119.522 462.322 Q117.645 463.681 116.78 466.102 Q116.928 466.053 117.447 466.053 Q118.707 466.053 119.398 466.843 Q120.115 467.634 120.115 468.696 Q120.115 470.055 119.226 470.722 Q118.361 471.364 117.496 471.364 Q117.15 471.364 116.681 471.29 Q116.236 471.216 115.52 470.524 Q114.804 469.808 114.804 468.548 Q114.804 465.015 117.472 462.199 Q120.164 459.383 124.265 459.383 Q128.909 459.383 131.948 462.149 Q135.011 464.892 135.011 469.19 Q135.011 470.697 134.542 472.08 Q134.097 473.439 133.479 474.501 Q132.886 475.563 131.256 477.268 Q129.626 478.972 128.316 480.183 Q127.007 481.393 124.067 483.963 L118.707 489.175 L127.822 489.175 Q132.269 489.175 132.615 488.78 Q133.109 488.063 133.726 484.284 L135.011 484.284 L133.578 493.078 L114.804 493.078 Z" fill="#000000" fill-rule="nonzero" fill-opacity="1" /><path clip-path="url(#clip510)" d="M142.644 492.263 Q141.879 491.448 141.879 490.385 Q141.879 489.323 142.644 488.557 Q143.41 487.767 144.571 487.767 Q145.683 487.767 146.424 488.508 Q147.19 489.224 147.19 490.41 Q147.19 491.571 146.375 492.337 Q145.584 493.078 144.571 493.078 Q143.41 493.078 142.644 492.263 Z" fill="#000000" fill-rule="nonzero" fill-opacity="1" /><path clip-path="url(#clip510)" d="M153.613 476.897 Q153.613 469.462 155.49 465.41 Q158.109 459.383 164.284 459.383 Q165.594 459.383 166.952 459.753 Q168.336 460.099 170.065 461.458 Q171.819 462.816 172.881 465.04 Q174.907 469.338 174.907 476.897 Q174.907 484.284 173.029 488.31 Q170.287 494.19 164.235 494.19 Q161.962 494.19 159.64 493.029 Q157.343 491.868 155.885 489.076 Q153.613 484.901 153.613 476.897 M157.812 476.28 Q157.812 483.913 158.356 486.952 Q158.973 490.237 160.653 491.67 Q162.358 493.078 164.235 493.078 Q166.261 493.078 167.941 491.571 Q169.645 490.04 170.164 486.754 Q170.732 483.518 170.707 476.28 Q170.707 469.239 170.213 466.423 Q169.546 463.138 167.768 461.828 Q166.014 460.494 164.235 460.494 Q163.568 460.494 162.852 460.692 Q162.16 460.89 161.147 461.458 Q160.134 462.026 159.344 463.434 Q158.578 464.842 158.207 466.967 Q157.812 469.709 157.812 476.28 Z" fill="#000000" fill-rule="nonzero" fill-opacity="1" /><path clip-path="url(#clip510)" d="M115.347 258.061 Q115.347 257.147 115.421 256.875 Q115.52 256.603 115.915 256.183 L125.624 245.363 Q130.935 239.385 130.935 234.172 Q130.935 230.788 129.156 228.367 Q127.402 225.946 124.166 225.946 Q121.943 225.946 120.065 227.305 Q118.188 228.664 117.323 231.084 Q117.472 231.035 117.99 231.035 Q119.25 231.035 119.942 231.826 Q120.658 232.616 120.658 233.678 Q120.658 235.037 119.769 235.704 Q118.904 236.346 118.04 236.346 Q117.694 236.346 117.225 236.272 Q116.78 236.198 116.064 235.506 Q115.347 234.79 115.347 233.53 Q115.347 229.998 118.015 227.181 Q120.708 224.365 124.808 224.365 Q129.453 224.365 132.491 227.132 Q135.554 229.874 135.554 234.172 Q135.554 235.679 135.085 237.063 Q134.64 238.421 134.023 239.484 Q133.43 240.546 131.8 242.25 Q130.169 243.955 128.86 245.165 Q127.551 246.376 124.611 248.945 L119.25 254.157 L128.366 254.157 Q132.812 254.157 133.158 253.762 Q133.652 253.046 134.27 249.266 L135.554 249.266 L134.122 258.061 L115.347 258.061 Z" fill="#000000" fill-rule="nonzero" fill-opacity="1" /><path clip-path="url(#clip510)" d="M143.188 257.245 Q142.422 256.43 142.422 255.368 Q142.422 254.306 143.188 253.54 Q143.954 252.749 145.115 252.749 Q146.226 252.749 146.967 253.49 Q147.733 254.207 147.733 255.393 Q147.733 256.554 146.918 257.319 Q146.127 258.061 145.115 258.061 Q143.954 258.061 143.188 257.245 Z" fill="#000000" fill-rule="nonzero" fill-opacity="1" /><path clip-path="url(#clip510)" d="M154.7 249.908 Q154.7 248.402 155.515 247.833 Q156.33 247.24 157.195 247.24 Q158.356 247.24 159.023 247.982 Q159.714 248.698 159.714 249.711 Q159.714 250.724 159.023 251.465 Q158.356 252.181 157.195 252.181 Q156.626 252.181 156.33 252.082 Q156.997 254.404 159.023 256.084 Q161.073 257.764 163.766 257.764 Q167.15 257.764 169.176 254.479 Q170.386 252.354 170.386 247.537 Q170.386 243.288 169.472 241.163 Q168.064 237.927 165.174 237.927 Q161.073 237.927 158.652 241.46 Q158.356 241.905 158.01 241.929 Q157.516 241.929 157.392 241.658 Q157.293 241.361 157.293 240.595 L157.293 225.625 Q157.293 224.415 157.787 224.415 Q157.985 224.415 158.405 224.563 Q161.592 225.971 165.124 225.996 Q168.756 225.996 172.017 224.513 Q172.264 224.365 172.412 224.365 Q172.906 224.365 172.931 224.933 Q172.931 225.131 172.511 225.724 Q172.115 226.292 171.251 227.058 Q170.386 227.799 169.275 228.515 Q168.163 229.232 166.532 229.726 Q164.927 230.195 163.148 230.195 Q161.024 230.195 158.85 229.528 L158.85 239.385 Q161.468 236.816 165.273 236.816 Q169.324 236.816 172.115 240.077 Q174.907 243.337 174.907 247.883 Q174.907 252.651 171.597 255.911 Q168.311 259.172 163.865 259.172 Q159.813 259.172 157.244 256.282 Q154.7 253.392 154.7 249.908 Z" fill="#000000" fill-rule="nonzero" fill-opacity="1" /><path clip-path="url(#clip510)" d="M49.0586 877.772 Q42.435 877.772 37.8495 873.152 Q33.2639 868.533 33.2639 862.283 Q33.2639 856.984 37.5777 853.519 L22.5303 853.519 Q19.9488 853.519 19.3034 854.437 Q18.6581 855.32 18.6581 858.92 L16.4842 858.92 L15.7369 848.9 L57.958 848.9 Q60.5395 848.9 61.2189 848.017 Q61.8642 847.1 61.8642 843.499 L64.0042 843.499 L64.7854 853.723 L60.1659 853.723 Q64.7514 857.324 64.7854 863.03 Q64.7854 869.008 60.1998 873.39 Q55.6143 877.772 49.0586 877.772 M49.1266 871.998 Q55.5803 871.998 58.7732 869.993 Q63.2229 867.208 63.2229 862.691 Q63.2229 857.528 58.3656 854.471 Q57.1768 853.689 55.7841 853.723 L41.5179 853.723 Q40.1253 853.723 38.9704 854.471 Q34.7924 857.324 34.7924 861.977 Q34.7924 866.835 39.2421 869.858 Q42.5709 871.998 49.1266 871.998 Z" fill="#000000" fill-rule="nonzero" fill-opacity="1" /><path clip-path="url(#clip510)" d="M64.0042 839.253 L61.8642 839.253 Q61.8642 835.551 61.4227 834.702 Q60.9471 833.852 58.7053 833.852 L39.9894 833.852 Q37.4079 833.852 36.7965 834.736 Q36.1851 835.585 36.1851 838.982 L34.0112 838.982 L33.2639 829.267 L58.7732 829.267 Q60.8452 829.267 61.3547 828.52 Q61.8642 827.772 61.8642 824.376 L64.0042 824.376 Q63.8004 831.475 63.8004 831.611 Q63.8004 832.562 64.0042 839.253 M21.1377 836.332 Q19.745 836.332 18.6241 835.279 Q17.4692 834.192 17.4692 832.664 Q17.4692 831.135 18.5222 830.048 Q19.5412 828.961 21.1716 828.961 Q22.7681 828.961 23.8211 830.048 Q24.8401 831.135 24.8401 832.664 Q24.8401 834.26 23.7192 835.313 Q22.5982 836.332 21.1377 836.332 Z" fill="#000000" fill-rule="nonzero" fill-opacity="1" /><path clip-path="url(#clip510)" d="M36.1851 819.994 L34.0112 819.994 L34.0112 814.525 L26.0289 814.525 Q20.8659 814.525 17.9108 811.196 Q14.9556 807.834 14.9556 803.724 Q14.9556 801.006 16.4162 799.24 Q17.8768 797.474 19.8469 797.474 Q21.1716 797.474 22.0548 798.289 Q22.9039 799.07 22.9039 800.531 Q22.9039 801.923 22.0208 802.739 Q21.1377 803.52 19.9148 803.52 Q17.673 803.52 16.9937 801.448 Q16.5181 802.501 16.4842 803.724 Q16.4842 806.237 19.0657 808.207 Q21.6472 810.143 25.961 810.143 L34.0112 810.143 L34.0112 801.991 L36.1851 801.991 L36.1851 809.906 L58.5694 809.906 Q60.5735 809.906 61.2189 809.09 Q61.8642 808.241 61.8642 804.641 L61.8642 803.18 L64.0042 803.18 Q63.8004 805.965 63.8004 812.012 Q63.8004 812.861 63.8343 814.186 Q63.8683 815.476 63.9362 817.243 Q64.0042 818.975 64.0042 819.926 L61.8642 819.926 Q61.8642 816.224 61.4227 815.374 Q60.9471 814.525 58.7053 814.525 L36.1851 814.525 L36.1851 819.994 Z" fill="#000000" fill-rule="nonzero" fill-opacity="1" /><path clip-path="url(#clip510)" d="M36.1851 798.798 L34.0112 798.798 L34.0112 793.33 L26.0289 793.33 Q20.8659 793.33 17.9108 790.001 Q14.9556 786.638 14.9556 782.528 Q14.9556 779.811 16.4162 778.045 Q17.8768 776.278 19.8469 776.278 Q21.1716 776.278 22.0548 777.093 Q22.9039 777.875 22.9039 779.335 Q22.9039 780.728 22.0208 781.543 Q21.1377 782.324 19.9148 782.324 Q17.673 782.324 16.9937 780.252 Q16.5181 781.305 16.4842 782.528 Q16.4842 785.042 19.0657 787.012 Q21.6472 788.948 25.961 788.948 L34.0112 788.948 L34.0112 780.796 L36.1851 780.796 L36.1851 788.71 L58.5694 788.71 Q60.5735 788.71 61.2189 787.895 Q61.8642 787.046 61.8642 783.445 L61.8642 781.985 L64.0042 781.985 Q63.8004 784.77 63.8004 790.816 Q63.8004 791.665 63.8343 792.99 Q63.8683 794.281 63.9362 796.047 Q64.0042 797.779 64.0042 798.73 L61.8642 798.73 Q61.8642 795.028 61.4227 794.179 Q60.9471 793.33 58.7053 793.33 L36.1851 793.33 L36.1851 798.798 Z" fill="#000000" fill-rule="nonzero" fill-opacity="1" /><path clip-path="url(#clip510)" d="M48.685 777.977 Q42.1293 777.977 37.4758 773.765 Q32.8223 769.553 32.8223 763.507 Q32.8223 757.392 36.7965 754.234 Q40.7706 751.041 46.4771 751.041 Q47.5301 751.041 47.7339 751.312 Q47.9377 751.584 47.9377 752.773 L47.9377 772.202 Q55.0368 772.202 58.3656 770.096 Q63.0191 767.175 63.0191 762.25 Q63.0191 761.57 62.8832 760.755 Q62.7474 759.94 62.1699 758.276 Q61.5585 756.611 59.9621 755.151 Q58.3656 753.69 55.852 752.841 Q54.867 752.637 54.901 751.958 Q54.901 751.041 55.7162 751.041 Q56.3276 751.041 57.7202 751.72 Q59.0789 752.365 60.7093 753.622 Q62.3398 754.879 63.5626 757.325 Q64.7854 759.736 64.7854 762.657 Q64.7854 768.771 60.1659 773.391 Q55.5124 777.977 48.685 777.977 M46.4771 772.134 L46.4771 755.626 Q45.0165 755.626 43.3861 755.898 Q41.7557 756.136 39.5139 756.883 Q37.2381 757.596 35.8114 759.295 Q34.3848 760.993 34.3848 763.507 Q34.3848 764.627 34.8604 765.85 Q35.3359 767.039 36.4908 768.5 Q37.6457 769.96 40.2611 770.979 Q42.8766 771.998 46.4771 772.134 Z" fill="#000000" fill-rule="nonzero" fill-opacity="1" /><path clip-path="url(#clip510)" d="M64.0042 747.1 L61.8642 747.1 Q61.8642 743.398 61.4227 742.549 Q60.9471 741.666 58.7053 741.666 L40.0573 741.666 Q37.4758 741.666 36.8305 742.583 Q36.1851 743.466 36.1851 747.1 L34.0112 747.1 L33.2639 737.42 L40.9065 737.42 Q37.9174 736.435 35.6076 734.363 Q33.2639 732.257 33.2639 728.86 Q33.2639 726.618 34.5207 725.192 Q35.7775 723.731 37.5098 723.731 Q39.0383 723.731 39.8196 724.682 Q40.5668 725.599 40.5668 726.72 Q40.5668 727.977 39.7856 728.86 Q38.9704 729.709 37.5777 729.709 Q36.7286 729.709 36.0832 729.336 Q35.4038 728.928 35.1661 728.622 Q34.9283 728.317 34.8604 728.113 Q34.7924 728.249 34.7924 728.86 Q34.7924 732.698 38.6307 734.906 Q42.435 737.08 47.8698 737.08 L58.5694 737.08 Q60.5735 737.08 61.2189 736.265 Q61.8642 735.416 61.8642 731.781 L61.8642 730.321 L64.0042 730.321 Q63.8004 733.106 63.8004 739.152 Q63.8004 740.001 63.8343 741.326 Q63.8683 742.651 63.9362 744.383 Q64.0042 746.115 64.0042 747.1 Z" fill="#000000" fill-rule="nonzero" fill-opacity="1" /><path clip-path="url(#clip510)" d="M48.685 719.927 Q42.1293 719.927 37.4758 715.715 Q32.8223 711.503 32.8223 705.457 Q32.8223 699.343 36.7965 696.184 Q40.7706 692.991 46.4771 692.991 Q47.5301 692.991 47.7339 693.263 Q47.9377 693.534 47.9377 694.723 L47.9377 714.152 Q55.0368 714.152 58.3656 712.046 Q63.0191 709.125 63.0191 704.2 Q63.0191 703.521 62.8832 702.705 Q62.7474 701.89 62.1699 700.226 Q61.5585 698.561 59.9621 697.101 Q58.3656 695.64 55.852 694.791 Q54.867 694.587 54.901 693.908 Q54.901 692.991 55.7162 692.991 Q56.3276 692.991 57.7202 693.67 Q59.0789 694.316 60.7093 695.572 Q62.3398 696.829 63.5626 699.275 Q64.7854 701.686 64.7854 704.608 Q64.7854 710.722 60.1659 715.341 Q55.5124 719.927 48.685 719.927 M46.4771 714.084 L46.4771 697.576 Q45.0165 697.576 43.3861 697.848 Q41.7557 698.086 39.5139 698.833 Q37.2381 699.546 35.8114 701.245 Q34.3848 702.943 34.3848 705.457 Q34.3848 706.578 34.8604 707.801 Q35.3359 708.989 36.4908 710.45 Q37.6457 711.911 40.2611 712.93 Q42.8766 713.949 46.4771 714.084 Z" fill="#000000" fill-rule="nonzero" fill-opacity="1" /><path clip-path="url(#clip510)" d="M64.0042 688.745 L61.8642 688.745 Q61.8642 685.043 61.4227 684.193 Q60.9471 683.344 58.7053 683.344 L40.0573 683.344 Q37.4758 683.344 36.8305 684.261 Q36.1851 685.144 36.1851 688.745 L34.0112 688.745 L33.2639 678.962 L40.5668 678.962 Q33.2639 675.702 33.2639 668.67 Q33.2639 663.439 35.8454 661.367 Q37.5777 659.839 39.5139 659.533 Q41.45 659.194 46.4771 659.194 L59.7583 659.194 Q61.2189 659.126 61.5585 658.005 Q61.8642 656.884 61.8642 653.759 L64.0042 653.759 Q63.8004 660.858 63.8004 661.571 Q63.8004 662.115 64.0042 669.418 L61.8642 669.418 Q61.8642 665.715 61.4227 664.866 Q60.9471 663.983 58.7053 663.983 L42.503 663.983 Q38.9704 663.983 36.8984 665.07 Q34.7924 666.157 34.7924 669.146 Q34.7924 672.746 37.8155 675.634 Q40.8386 678.521 45.9336 678.521 L58.7053 678.521 Q60.9471 678.521 61.4227 677.672 Q61.8642 676.789 61.8642 673.12 L64.0042 673.12 Q63.8004 680.219 63.8004 680.899 Q63.8004 681.442 64.0042 688.745 Z" fill="#000000" fill-rule="nonzero" fill-opacity="1" /><path clip-path="url(#clip510)" d="M60.1998 645.607 Q55.5803 650.022 48.9907 650.022 Q42.3671 650.022 37.6117 645.675 Q32.8223 641.327 32.8223 634.941 Q32.8223 630.695 34.8604 627.502 Q36.8644 624.309 40.2951 624.309 Q41.8236 624.309 42.7068 625.226 Q43.556 626.11 43.556 627.502 Q43.556 628.963 42.6728 629.846 Q41.7557 630.695 40.363 630.695 Q39.7516 630.695 39.1402 630.491 Q38.5288 630.288 37.8834 629.54 Q37.2381 628.759 37.1362 627.434 Q34.5886 629.914 34.5886 634.737 Q34.5886 634.805 34.5886 634.873 Q34.5886 638.406 37.9174 641.327 Q41.2462 644.248 48.8548 644.248 Q52.829 644.248 55.7501 643.297 Q58.6374 642.312 60.1319 640.715 Q61.6265 639.119 62.3398 637.557 Q63.0191 635.994 63.0191 634.465 Q63.0191 627.638 55.7162 625.328 Q55.0368 625.125 55.0368 624.445 Q55.0368 623.528 55.7162 623.528 Q56.0559 623.528 56.939 623.8 Q57.8221 624.072 59.2148 624.921 Q60.6074 625.77 61.8303 626.993 Q63.0191 628.182 63.9023 630.322 Q64.7854 632.427 64.7854 635.077 Q64.7854 641.191 60.1998 645.607 Z" fill="#000000" fill-rule="nonzero" fill-opacity="1" /><path clip-path="url(#clip510)" d="M48.685 619.588 Q42.1293 619.588 37.4758 615.376 Q32.8223 611.164 32.8223 605.118 Q32.8223 599.004 36.7965 595.845 Q40.7706 592.652 46.4771 592.652 Q47.5301 592.652 47.7339 592.924 Q47.9377 593.195 47.9377 594.384 L47.9377 613.813 Q55.0368 613.813 58.3656 611.708 Q63.0191 608.786 63.0191 603.861 Q63.0191 603.182 62.8832 602.367 Q62.7474 601.551 62.1699 599.887 Q61.5585 598.223 59.9621 596.762 Q58.3656 595.301 55.852 594.452 Q54.867 594.248 54.901 593.569 Q54.901 592.652 55.7162 592.652 Q56.3276 592.652 57.7202 593.331 Q59.0789 593.977 60.7093 595.233 Q62.3398 596.49 63.5626 598.936 Q64.7854 601.348 64.7854 604.269 Q64.7854 610.383 60.1659 615.002 Q55.5124 619.588 48.685 619.588 M46.4771 613.746 L46.4771 597.238 Q45.0165 597.238 43.3861 597.509 Q41.7557 597.747 39.5139 598.494 Q37.2381 599.208 35.8114 600.906 Q34.3848 602.604 34.3848 605.118 Q34.3848 606.239 34.8604 607.462 Q35.3359 608.65 36.4908 610.111 Q37.6457 611.572 40.2611 612.591 Q42.8766 613.61 46.4771 613.746 Z" fill="#000000" fill-rule="nonzero" fill-opacity="1" /><polyline clip-path="url(#clip512)" style="stroke:#009af9; stroke-linecap:round; stroke-linejoin:round; stroke-width:4; stroke-opacity:1; fill:none" points="271.525,86.1857 304.116,580.632 336.706,778.998 369.297,953.155 401.887,1093.46 434.478,1173.17 467.068,1206.61 499.659,1224.51 532.249,1238.43 564.84,1250.25 597.43,1260.54 630.021,1269.61 662.612,1277.67 695.202,1284.89 727.793,1291.4 760.383,1297.31 792.974,1302.7 825.564,1307.66 858.155,1312.22 890.745,1316.45 923.336,1320.37 955.926,1324.01 988.517,1327.42 1021.11,1330.6 1053.7,1333.58 1086.29,1336.39 1118.88,1339.03 1151.47,1341.52 1184.06,1343.87 1216.65,1346.1 1249.24,1348.22 1281.83,1350.23 1314.42,1352.14 1347.01,1353.96 1379.6,1355.7 1412.19,1357.36 1444.78,1358.94 1477.37,1360.46 1509.97,1361.91 1542.56,1363.3 1575.15,1364.63 1607.74,1365.91 1640.33,1367.14 1672.92,1368.32 1705.51,1369.45 1738.1,1370.55 1770.69,1371.6 1803.28,1372.61 1835.87,1373.59 1868.46,1374.53 1901.05,1375.44 1933.64,1376.31 1966.23,1377.16 1998.82,1377.98 2031.41,1378.77 2064,1379.53 2096.59,1380.27 2129.18,1380.98 2161.78,1381.68 2194.37,1382.35 2226.96,1383 2259.55,1383.63 2292.14,1384.24 "/>
<polyline clip-path="url(#clip512)" style="stroke:#e26f46; stroke-linecap:round; stroke-linejoin:round; stroke-width:4; stroke-opacity:1; fill:none" points="271.525,86.4655 304.116,576.766 336.706,780.313 369.297,961.48 401.887,1096.31 434.478,1163.4 467.068,1188.45 499.659,1202.87 532.249,1214.33 564.84,1224.05 597.43,1232.48 630.021,1239.89 662.612,1246.46 695.202,1252.35 727.793,1257.66 760.383,1262.5 792.974,1266.94 825.564,1271.03 858.155,1274.83 890.745,1278.37 923.336,1281.68 955.926,1284.79 988.517,1287.73 1021.11,1290.52 1053.7,1293.17 1086.29,1295.7 1118.88,1298.12 1151.47,1300.44 1184.06,1302.67 1216.65,1304.82 1249.24,1306.89 1281.83,1308.89 1314.42,1310.82 1347.01,1312.69 1379.6,1314.49 1412.19,1316.24 1444.78,1317.94 1477.37,1319.58 1509.97,1321.17 1542.56,1322.71 1575.15,1324.21 1607.74,1325.67 1640.33,1327.08 1672.92,1328.45 1705.51,1329.78 1738.1,1331.07 1770.69,1332.32 1803.28,1333.53 1835.87,1334.7 1868.46,1335.84 1901.05,1336.93 1933.64,1337.99 1966.23,1339 1998.82,1339.97 2031.41,1340.89 2064,1341.77 2096.59,1342.6 2129.18,1343.38 2161.78,1344.1 2194.37,1344.77 2226.96,1345.37 2259.55,1345.89 2292.14,1346.34 "/>
<path clip-path="url(#clip510)" d="M1903.96 248.629 L2281.36 248.629 L2281.36 93.1086 L1903.96 93.1086  Z" fill="#ffffff" fill-rule="evenodd" fill-opacity="1"/>
<polyline clip-path="url(#clip510)" style="stroke:#000000; stroke-linecap:round; stroke-linejoin:round; stroke-width:4; stroke-opacity:1; fill:none" points="1903.96,248.629 2281.36,248.629 2281.36,93.1086 1903.96,93.1086 1903.96,248.629 "/>
<polyline clip-path="url(#clip510)" style="stroke:#009af9; stroke-linecap:round; stroke-linejoin:round; stroke-width:4; stroke-opacity:1; fill:none" points="1927.76,144.949 2070.55,144.949 "/>
<path clip-path="url(#clip510)" d="M2094.35 162.229 L2094.35 160.672 Q2097.04 160.672 2097.66 160.351 Q2098.3 160.005 2098.3 158.375 L2098.3 144.813 Q2098.3 142.935 2097.63 142.466 Q2096.99 141.997 2094.35 141.997 L2094.35 140.416 L2101.39 139.872 L2101.39 145.43 Q2102.1 143.256 2103.61 141.577 Q2105.14 139.872 2107.61 139.872 Q2109.24 139.872 2110.28 140.786 Q2111.34 141.7 2111.34 142.96 Q2111.34 144.072 2110.65 144.64 Q2109.98 145.183 2109.17 145.183 Q2108.26 145.183 2107.61 144.615 Q2107 144.022 2107 143.009 Q2107 142.392 2107.27 141.922 Q2107.56 141.428 2107.79 141.255 Q2108.01 141.083 2108.16 141.033 Q2108.06 140.984 2107.61 140.984 Q2104.82 140.984 2103.22 143.775 Q2101.64 146.542 2101.64 150.495 L2101.64 158.276 Q2101.64 159.734 2102.23 160.203 Q2102.85 160.672 2105.49 160.672 L2106.55 160.672 L2106.55 162.229 Q2104.53 162.08 2100.13 162.08 Q2099.51 162.08 2098.55 162.105 Q2097.58 162.13 2096.32 162.179 Q2095.06 162.229 2094.35 162.229 Z" fill="#000000" fill-rule="nonzero" fill-opacity="1" /><path clip-path="url(#clip510)" d="M2114.11 151.087 Q2114.11 146.32 2117.17 142.935 Q2120.24 139.551 2124.63 139.551 Q2129.08 139.551 2131.38 142.441 Q2133.7 145.332 2133.7 149.482 Q2133.7 150.247 2133.5 150.396 Q2133.3 150.544 2132.44 150.544 L2118.31 150.544 Q2118.31 155.707 2119.84 158.128 Q2121.97 161.512 2125.55 161.512 Q2126.04 161.512 2126.63 161.413 Q2127.23 161.315 2128.44 160.895 Q2129.65 160.45 2130.71 159.289 Q2131.77 158.128 2132.39 156.3 Q2132.54 155.583 2133.03 155.608 Q2133.7 155.608 2133.7 156.201 Q2133.7 156.646 2133.21 157.658 Q2132.74 158.647 2131.82 159.832 Q2130.91 161.018 2129.13 161.907 Q2127.38 162.797 2125.25 162.797 Q2120.8 162.797 2117.45 159.437 Q2114.11 156.053 2114.11 151.087 M2118.36 149.482 L2130.37 149.482 Q2130.37 148.419 2130.17 147.234 Q2129.99 146.048 2129.45 144.417 Q2128.93 142.762 2127.7 141.725 Q2126.46 140.687 2124.63 140.687 Q2123.82 140.687 2122.93 141.033 Q2122.06 141.379 2121 142.219 Q2119.94 143.059 2119.2 144.961 Q2118.46 146.863 2118.36 149.482 Z" fill="#000000" fill-rule="nonzero" fill-opacity="1" /><path clip-path="url(#clip510)" d="M2136.84 162.229 L2136.84 160.672 Q2139.53 160.672 2140.15 160.351 Q2140.77 160.005 2140.77 158.375 L2140.77 132.066 Q2140.77 130.188 2140.1 129.719 Q2139.46 129.25 2136.84 129.25 L2136.84 127.669 L2144.1 127.125 L2144.1 158.375 Q2144.1 160.005 2144.74 160.351 Q2145.38 160.672 2148.05 160.672 L2148.05 162.229 Q2147.44 162.229 2146.15 162.179 Q2144.87 162.13 2143.93 162.105 Q2142.99 162.08 2142.44 162.08 Q2141.85 162.08 2136.84 162.229 Z" fill="#000000" fill-rule="nonzero" fill-opacity="1" /><path clip-path="url(#clip510)" d="M2151.29 157.411 Q2151.29 153.113 2156.35 150.84 Q2159.39 149.383 2165.67 149.012 L2165.67 147.16 Q2165.67 144.022 2164.01 142.367 Q2162.38 140.687 2160.31 140.687 Q2156.6 140.687 2154.82 143.009 Q2156.33 143.059 2156.87 143.825 Q2157.42 144.566 2157.42 145.332 Q2157.42 146.344 2156.77 147.011 Q2156.16 147.654 2155.09 147.654 Q2154.08 147.654 2153.41 147.036 Q2152.75 146.394 2152.75 145.282 Q2152.75 142.812 2154.97 141.181 Q2157.22 139.551 2160.4 139.551 Q2164.55 139.551 2167.32 142.342 Q2168.19 143.207 2168.61 144.319 Q2169.05 145.43 2169.1 146.171 Q2169.15 146.888 2169.15 148.321 L2169.15 158.424 Q2169.15 158.721 2169.25 159.215 Q2169.35 159.709 2169.79 160.351 Q2170.26 160.969 2171.03 160.969 Q2172.85 160.969 2172.83 157.733 L2172.83 154.892 L2174.11 154.892 L2174.11 157.733 Q2174.11 160.425 2172.68 161.488 Q2171.27 162.525 2169.96 162.525 Q2168.28 162.525 2167.22 161.29 Q2166.16 160.055 2166.01 158.375 Q2165.25 160.302 2163.49 161.562 Q2161.76 162.797 2159.39 162.797 Q2157.56 162.797 2155.83 162.327 Q2154.13 161.883 2152.7 160.623 Q2151.29 159.338 2151.29 157.411 M2155.19 157.362 Q2155.19 159.24 2156.53 160.45 Q2157.86 161.66 2159.74 161.66 Q2161.86 161.66 2163.76 160.03 Q2165.67 158.375 2165.67 155.139 L2165.67 150.075 Q2160.06 150.272 2157.61 152.52 Q2155.19 154.744 2155.19 157.362 Z" fill="#000000" fill-rule="nonzero" fill-opacity="1" /><path clip-path="url(#clip510)" d="M2175.08 162.229 L2175.08 160.672 Q2179.03 160.672 2181.55 157.634 Q2181.55 157.634 2186.29 151.606 L2181.28 145.084 Q2179.5 142.812 2178.71 142.417 Q2177.94 141.997 2175.33 141.997 L2175.33 140.416 Q2177.4 140.564 2180.12 140.564 Q2181.62 140.564 2185.6 140.416 L2185.6 141.997 Q2183.82 142.095 2183.82 143.256 Q2183.82 143.652 2184.27 144.17 L2188.22 149.284 L2191.36 145.332 Q2192.12 144.417 2192.12 143.553 Q2192.12 142.145 2190.64 141.997 L2190.64 140.416 Q2192.62 140.564 2195.51 140.564 Q2197.68 140.564 2199.66 140.416 L2199.66 141.997 Q2195.8 142.095 2193.63 144.615 Q2192.67 145.677 2188.99 150.346 L2195.75 159.091 Q2196.57 160.154 2197.48 160.425 Q2198.4 160.672 2200.57 160.672 L2200.57 162.229 Q2198.3 162.08 2195.71 162.08 Q2194.79 162.08 2190.25 162.229 L2190.25 160.672 Q2191.16 160.623 2191.6 160.228 Q2192.07 159.808 2192.07 159.388 Q2192.07 159.19 2191.01 157.733 L2187.16 152.668 Q2183.3 157.214 2182.81 158.276 Q2182.61 158.721 2182.61 159.091 Q2182.61 160.45 2184.07 160.672 L2184.07 162.229 Q2180.44 162.08 2179.28 162.08 Q2177.05 162.08 2175.08 162.229 Z" fill="#000000" fill-rule="nonzero" fill-opacity="1" /><path clip-path="url(#clip510)" d="M2202.52 151.087 Q2202.52 146.32 2205.59 142.935 Q2208.65 139.551 2213.05 139.551 Q2217.49 139.551 2219.79 142.441 Q2222.11 145.332 2222.11 149.482 Q2222.11 150.247 2221.92 150.396 Q2221.72 150.544 2220.85 150.544 L2206.72 150.544 Q2206.72 155.707 2208.25 158.128 Q2210.38 161.512 2213.96 161.512 Q2214.46 161.512 2215.05 161.413 Q2215.64 161.315 2216.85 160.895 Q2218.06 160.45 2219.12 159.289 Q2220.19 158.128 2220.8 156.3 Q2220.95 155.583 2221.45 155.608 Q2222.11 155.608 2222.11 156.201 Q2222.11 156.646 2221.62 157.658 Q2221.15 158.647 2220.24 159.832 Q2219.32 161.018 2217.54 161.907 Q2215.79 162.797 2213.66 162.797 Q2209.22 162.797 2205.86 159.437 Q2202.52 156.053 2202.52 151.087 M2206.77 149.482 L2218.78 149.482 Q2218.78 148.419 2218.58 147.234 Q2218.41 146.048 2217.86 144.417 Q2217.35 142.762 2216.11 141.725 Q2214.88 140.687 2213.05 140.687 Q2212.23 140.687 2211.34 141.033 Q2210.48 141.379 2209.42 142.219 Q2208.35 143.059 2207.61 144.961 Q2206.87 146.863 2206.77 149.482 Z" fill="#000000" fill-rule="nonzero" fill-opacity="1" /><path clip-path="url(#clip510)" d="M2225.3 151.359 Q2225.3 146.542 2228.66 143.207 Q2232.02 139.872 2236.56 139.872 Q2240.42 139.872 2242.94 143.009 L2242.94 132.066 Q2242.94 130.188 2242.27 129.719 Q2241.63 129.25 2239.01 129.25 L2239.01 127.669 L2246.3 127.125 L2246.3 157.831 Q2246.3 159.709 2246.94 160.203 Q2247.61 160.672 2250.23 160.672 L2250.23 162.229 L2242.79 162.797 L2242.79 159.437 Q2240.17 162.772 2236.02 162.797 Q2231.67 162.797 2228.49 159.462 Q2225.3 156.127 2225.3 151.359 M2229.5 151.409 Q2229.5 156.102 2230.96 158.424 Q2232.98 161.66 2236.27 161.66 Q2240.02 161.66 2242.25 158.128 Q2242.81 157.263 2242.79 156.25 L2242.79 145.875 Q2242.79 144.862 2242.25 144.022 Q2240.17 140.984 2236.79 140.984 Q2233.25 140.984 2231.06 144.22 Q2229.5 146.641 2229.5 151.409 Z" fill="#000000" fill-rule="nonzero" fill-opacity="1" /><polyline clip-path="url(#clip510)" style="stroke:#e26f46; stroke-linecap:round; stroke-linejoin:round; stroke-width:4; stroke-opacity:1; fill:none" points="1927.76,196.789 2070.55,196.789 "/>
<path clip-path="url(#clip510)" d="M2097.68 211.351 Q2094.35 208.041 2094.35 203.249 Q2094.35 198.431 2097.61 194.924 Q2100.89 191.391 2105.59 191.391 Q2110.18 191.391 2113.47 194.899 Q2116.78 198.382 2116.78 203.249 Q2116.78 208.016 2113.44 211.327 Q2110.13 214.637 2105.54 214.637 Q2101.04 214.637 2097.68 211.351 M2098.55 202.829 Q2098.55 207.745 2099.83 209.968 Q2101.81 213.352 2105.59 213.352 Q2107.47 213.352 2109.02 212.339 Q2110.6 211.327 2111.47 209.622 Q2112.58 207.399 2112.58 202.829 Q2112.58 197.962 2111.24 195.813 Q2109.27 192.527 2105.54 192.527 Q2103.91 192.527 2102.3 193.392 Q2100.72 194.232 2099.76 195.912 Q2098.55 198.135 2098.55 202.829 Z" fill="#000000" fill-rule="nonzero" fill-opacity="1" /><path clip-path="url(#clip510)" d="M2119.64 214.069 L2119.64 212.512 Q2122.34 212.512 2122.95 212.191 Q2123.6 211.845 2123.6 210.215 L2123.6 196.653 Q2123.6 194.775 2122.93 194.306 Q2122.29 193.837 2119.64 193.837 L2119.64 192.256 L2126.68 191.712 L2126.68 197.27 Q2127.4 195.096 2128.91 193.417 Q2130.44 191.712 2132.91 191.712 Q2134.54 191.712 2135.58 192.626 Q2136.64 193.54 2136.64 194.8 Q2136.64 195.912 2135.95 196.48 Q2135.28 197.023 2134.47 197.023 Q2133.55 197.023 2132.91 196.455 Q2132.29 195.862 2132.29 194.849 Q2132.29 194.232 2132.56 193.762 Q2132.86 193.268 2133.08 193.095 Q2133.3 192.923 2133.45 192.873 Q2133.35 192.824 2132.91 192.824 Q2130.12 192.824 2128.51 195.615 Q2126.93 198.382 2126.93 202.335 L2126.93 210.116 Q2126.93 211.574 2127.52 212.043 Q2128.14 212.512 2130.78 212.512 L2131.85 212.512 L2131.85 214.069 Q2129.82 213.92 2125.42 213.92 Q2124.81 213.92 2123.84 213.945 Q2122.88 213.97 2121.62 214.019 Q2120.36 214.069 2119.64 214.069 Z" fill="#000000" fill-rule="nonzero" fill-opacity="1" /><path clip-path="url(#clip510)" d="M2139.68 214.069 L2139.68 212.512 Q2142.37 212.512 2142.99 212.191 Q2143.61 211.845 2143.61 210.215 L2143.61 196.603 Q2143.61 194.726 2142.96 194.281 Q2142.35 193.837 2139.88 193.837 L2139.88 192.256 L2146.94 191.712 L2146.94 210.264 Q2146.94 211.771 2147.48 212.142 Q2148.03 212.512 2150.5 212.512 L2150.5 214.069 Q2145.34 213.92 2145.24 213.92 Q2144.54 213.92 2139.68 214.069 M2141.8 182.893 Q2141.8 181.88 2142.57 181.065 Q2143.36 180.225 2144.47 180.225 Q2145.58 180.225 2146.37 180.991 Q2147.16 181.732 2147.16 182.918 Q2147.16 184.079 2146.37 184.845 Q2145.58 185.586 2144.47 185.586 Q2143.31 185.586 2142.54 184.77 Q2141.8 183.955 2141.8 182.893 Z" fill="#000000" fill-rule="nonzero" fill-opacity="1" /><path clip-path="url(#clip510)" d="M2153.41 218.071 Q2153.41 216.44 2154.65 215.032 Q2155.91 213.624 2158.08 213.006 Q2155.86 211.598 2155.86 208.51 Q2155.86 206.139 2157.42 204.311 Q2155.04 202.335 2155.04 199.098 Q2155.04 196.109 2157.42 193.911 Q2159.79 191.712 2163.25 191.712 Q2166.28 191.712 2168.61 193.54 Q2171.03 191.169 2173.97 191.144 Q2175.28 191.144 2175.89 191.959 Q2176.54 192.774 2176.54 193.639 Q2176.54 194.405 2176.04 194.775 Q2175.57 195.146 2175.08 195.146 Q2174.46 195.146 2174.02 194.751 Q2173.6 194.331 2173.6 193.688 Q2173.6 192.626 2174.41 192.305 Q2174.26 192.256 2173.92 192.256 Q2171.45 192.256 2169.35 194.232 Q2171.42 196.159 2171.42 199.148 Q2171.42 202.137 2169.05 204.335 Q2166.68 206.534 2163.25 206.534 Q2160.4 206.534 2158.23 204.953 Q2157.37 205.966 2157.37 207.349 Q2157.37 208.609 2158.13 209.597 Q2158.9 210.585 2160.06 210.734 Q2160.4 210.783 2163.84 210.783 Q2165.86 210.783 2166.98 210.832 Q2168.09 210.882 2169.67 211.228 Q2171.27 211.549 2172.53 212.191 Q2175.82 214.019 2175.84 217.972 Q2175.84 220.862 2172.51 222.665 Q2169.2 224.493 2164.6 224.493 Q2159.96 224.493 2156.67 222.641 Q2153.41 220.813 2153.41 218.071 M2156.06 218.071 Q2156.06 220.146 2158.5 221.727 Q2160.95 223.332 2164.65 223.332 Q2168.28 223.332 2170.73 221.751 Q2173.2 220.195 2173.2 218.071 Q2173.2 216.564 2172.34 215.6 Q2171.47 214.637 2169.69 214.242 Q2167.94 213.871 2166.7 213.797 Q2165.47 213.723 2163.2 213.723 L2160.21 213.723 Q2158.48 213.822 2157.27 215.081 Q2156.06 216.341 2156.06 218.071 M2158.82 199.148 Q2158.82 205.373 2163.25 205.373 Q2165.47 205.373 2166.83 203.347 Q2167.64 201.989 2167.64 199.098 Q2167.64 192.873 2163.25 192.873 Q2161.02 192.873 2159.64 194.899 Q2158.82 196.257 2158.82 199.148 Z" fill="#000000" fill-rule="nonzero" fill-opacity="1" /><path clip-path="url(#clip510)" d="M2178.98 214.069 L2178.98 212.512 Q2181.67 212.512 2182.29 212.191 Q2182.91 211.845 2182.91 210.215 L2182.91 196.603 Q2182.91 194.726 2182.27 194.281 Q2181.65 193.837 2179.18 193.837 L2179.18 192.256 L2186.24 191.712 L2186.24 210.264 Q2186.24 211.771 2186.79 212.142 Q2187.33 212.512 2189.8 212.512 L2189.8 214.069 Q2184.64 213.92 2184.54 213.92 Q2183.85 213.92 2178.98 214.069 M2181.11 182.893 Q2181.11 181.88 2181.87 181.065 Q2182.66 180.225 2183.77 180.225 Q2184.89 180.225 2185.68 180.991 Q2186.47 181.732 2186.47 182.918 Q2186.47 184.079 2185.68 184.845 Q2184.89 185.586 2183.77 185.586 Q2182.61 185.586 2181.85 184.77 Q2181.11 183.955 2181.11 182.893 Z" fill="#000000" fill-rule="nonzero" fill-opacity="1" /><path clip-path="url(#clip510)" d="M2192.94 214.069 L2192.94 212.512 Q2195.63 212.512 2196.25 212.191 Q2196.87 211.845 2196.87 210.215 L2196.87 196.653 Q2196.87 194.775 2196.2 194.306 Q2195.56 193.837 2192.94 193.837 L2192.94 192.256 L2200.05 191.712 L2200.05 197.023 Q2202.42 191.712 2207.54 191.712 Q2211.34 191.712 2212.85 193.59 Q2213.96 194.849 2214.18 196.257 Q2214.43 197.666 2214.43 201.322 L2214.43 210.981 Q2214.48 212.043 2215.3 212.29 Q2216.11 212.512 2218.38 212.512 L2218.38 214.069 Q2213.22 213.92 2212.7 213.92 Q2212.31 213.92 2206.99 214.069 L2206.99 212.512 Q2209.69 212.512 2210.31 212.191 Q2210.95 211.845 2210.95 210.215 L2210.95 198.431 Q2210.95 195.862 2210.16 194.355 Q2209.37 192.824 2207.19 192.824 Q2204.57 192.824 2202.47 195.022 Q2200.37 197.221 2200.37 200.926 L2200.37 210.215 Q2200.37 211.845 2200.99 212.191 Q2201.63 212.512 2204.3 212.512 L2204.3 214.069 Q2199.14 213.92 2198.65 213.92 Q2198.25 213.92 2192.94 214.069 Z" fill="#000000" fill-rule="nonzero" fill-opacity="1" /><path clip-path="url(#clip510)" d="M2221.5 209.251 Q2221.5 204.953 2226.56 202.68 Q2229.6 201.223 2235.87 200.852 L2235.87 199 Q2235.87 195.862 2234.22 194.207 Q2232.59 192.527 2230.51 192.527 Q2226.81 192.527 2225.03 194.849 Q2226.54 194.899 2227.08 195.665 Q2227.62 196.406 2227.62 197.172 Q2227.62 198.184 2226.98 198.851 Q2226.36 199.494 2225.3 199.494 Q2224.29 199.494 2223.62 198.876 Q2222.95 198.234 2222.95 197.122 Q2222.95 194.652 2225.18 193.021 Q2227.42 191.391 2230.61 191.391 Q2234.76 191.391 2237.53 194.182 Q2238.39 195.047 2238.81 196.159 Q2239.26 197.27 2239.31 198.011 Q2239.36 198.728 2239.36 200.161 L2239.36 210.264 Q2239.36 210.561 2239.46 211.055 Q2239.55 211.549 2240 212.191 Q2240.47 212.809 2241.23 212.809 Q2243.06 212.809 2243.04 209.573 L2243.04 206.732 L2244.32 206.732 L2244.32 209.573 Q2244.32 212.265 2242.89 213.328 Q2241.48 214.365 2240.17 214.365 Q2238.49 214.365 2237.43 213.13 Q2236.37 211.895 2236.22 210.215 Q2235.45 212.142 2233.7 213.402 Q2231.97 214.637 2229.6 214.637 Q2227.77 214.637 2226.04 214.167 Q2224.34 213.723 2222.9 212.463 Q2221.5 211.178 2221.5 209.251 M2225.4 209.202 Q2225.4 211.08 2226.73 212.29 Q2228.07 213.5 2229.94 213.5 Q2232.07 213.5 2233.97 211.87 Q2235.87 210.215 2235.87 206.979 L2235.87 201.915 Q2230.27 202.112 2227.82 204.36 Q2225.4 206.584 2225.4 209.202 Z" fill="#000000" fill-rule="nonzero" fill-opacity="1" /><path clip-path="url(#clip510)" d="M2246.35 214.069 L2246.35 212.512 Q2249.04 212.512 2249.66 212.191 Q2250.28 211.845 2250.28 210.215 L2250.28 183.906 Q2250.28 182.028 2249.61 181.559 Q2248.97 181.09 2246.35 181.09 L2246.35 179.509 L2253.61 178.965 L2253.61 210.215 Q2253.61 211.845 2254.25 212.191 Q2254.89 212.512 2257.56 212.512 L2257.56 214.069 Q2256.95 214.069 2255.66 214.019 Q2254.38 213.97 2253.44 213.945 Q2252.5 213.92 2251.95 213.92 Q2251.36 213.92 2246.35 214.069 Z" fill="#000000" fill-rule="nonzero" fill-opacity="1" /></svg>
