<?xml version="1.0" encoding="utf-8"?>
<svg xmlns="http://www.w3.org/2000/svg" xmlns:xlink="http://www.w3.org/1999/xlink" width="600" height="400" viewBox="0 0 2400 1600">
<defs>
  <clipPath id="clip150">
    <rect x="0" y="0" width="2400" height="1600"/>
  </clipPath>
</defs>
<path clip-path="url(#clip150)" d="M0 1600 L2400 1600 L2400 0 L0 0  Z" fill="#ffffff" fill-rule="evenodd" fill-opacity="1"/>
<defs>
  <clipPath id="clip151">
    <rect x="480" y="0" width="1681" height="1600"/>
  </clipPath>
</defs>
<path clip-path="url(#clip150)" d="M174.149 1423.18 L2352.76 1423.18 L2352.76 47.2441 L174.149 47.2441  Z" fill="#ffffff" fill-rule="evenodd" fill-opacity="1"/>
<defs>
  <clipPath id="clip152">
    <rect x="174" y="47" width="2180" height="1377"/>
  </clipPath>
</defs>
<polyline clip-path="url(#clip152)" style="stroke:#000000; stroke-linecap:round; stroke-linejoin:round; stroke-width:2; stroke-opacity:0.1; fill:none" points="219.496,1423.18 219.496,47.2441 "/>
<polyline clip-path="url(#clip152)" style="stroke:#000000; stroke-linecap:round; stroke-linejoin:round; stroke-width:2; stroke-opacity:0.1; fill:none" points="545.732,1423.18 545.732,47.2441 "/>
<polyline clip-path="url(#clip152)" style="stroke:#000000; stroke-linecap:round; stroke-linejoin:round; stroke-width:2; stroke-opacity:0.1; fill:none" points="871.969,1423.18 871.969,47.2441 "/>
<polyline clip-path="url(#clip152)" style="stroke:#000000; stroke-linecap:round; stroke-linejoin:round; stroke-width:2; stroke-opacity:0.1; fill:none" points="1198.21,1423.18 1198.21,47.2441 "/>
<polyline clip-path="url(#clip152)" style="stroke:#000000; stroke-linecap:round; stroke-linejoin:round; stroke-width:2; stroke-opacity:0.1; fill:none" points="1524.44,1423.18 1524.44,47.2441 "/>
<polyline clip-path="url(#clip152)" style="stroke:#000000; stroke-linecap:round; stroke-linejoin:round; stroke-width:2; stroke-opacity:0.1; fill:none" points="1850.68,1423.18 1850.68,47.2441 "/>
<polyline clip-path="url(#clip152)" style="stroke:#000000; stroke-linecap:round; stroke-linejoin:round; stroke-width:2; stroke-opacity:0.1; fill:none" points="2176.91,1423.18 2176.91,47.2441 "/>
<polyline clip-path="url(#clip150)" style="stroke:#000000; stroke-linecap:round; stroke-linejoin:round; stroke-width:4; stroke-opacity:1; fill:none" points="174.149,1423.18 2352.76,1423.18 "/>
<polyline clip-path="url(#clip150)" style="stroke:#000000; stroke-linecap:round; stroke-linejoin:round; stroke-width:4; stroke-opacity:1; fill:none" points="219.496,1423.18 219.496,1404.28 "/>
<polyline clip-path="url(#clip150)" style="stroke:#000000; stroke-linecap:round; stroke-linejoin:round; stroke-width:4; stroke-opacity:1; fill:none" points="545.732,1423.18 545.732,1404.28 "/>
<polyline clip-path="url(#clip150)" style="stroke:#000000; stroke-linecap:round; stroke-linejoin:round; stroke-width:4; stroke-opacity:1; fill:none" points="871.969,1423.18 871.969,1404.28 "/>
<polyline clip-path="url(#clip150)" style="stroke:#000000; stroke-linecap:round; stroke-linejoin:round; stroke-width:4; stroke-opacity:1; fill:none" points="1198.21,1423.18 1198.21,1404.28 "/>
<polyline clip-path="url(#clip150)" style="stroke:#000000; stroke-linecap:round; stroke-linejoin:round; stroke-width:4; stroke-opacity:1; fill:none" points="1524.44,1423.18 1524.44,1404.28 "/>
<polyline clip-path="url(#clip150)" style="stroke:#000000; stroke-linecap:round; stroke-linejoin:round; stroke-width:4; stroke-opacity:1; fill:none" points="1850.68,1423.18 1850.68,1404.28 "/>
<polyline clip-path="url(#clip150)" style="stroke:#000000; stroke-linecap:round; stroke-linejoin:round; stroke-width:4; stroke-opacity:1; fill:none" points="2176.91,1423.18 2176.91,1404.28 "/>
<path clip-path="url(#clip150)" d="M219.496 1454.1 Q215.885 1454.1 214.056 1457.66 Q212.25 1461.2 212.25 1468.33 Q212.25 1475.44 214.056 1479.01 Q215.885 1482.55 219.496 1482.55 Q223.13 1482.55 224.936 1479.01 Q226.764 1475.44 226.764 1468.33 Q226.764 1461.2 224.936 1457.66 Q223.13 1454.1 219.496 1454.1 M219.496 1450.39 Q225.306 1450.39 228.361 1455 Q231.44 1459.58 231.44 1468.33 Q231.44 1477.06 228.361 1481.67 Q225.306 1486.25 219.496 1486.25 Q213.686 1486.25 210.607 1481.67 Q207.551 1477.06 207.551 1468.33 Q207.551 1459.58 210.607 1455 Q213.686 1450.39 219.496 1450.39 Z" fill="#000000" fill-rule="nonzero" fill-opacity="1" /><path clip-path="url(#clip150)" d="M524.505 1481.64 L540.825 1481.64 L540.825 1485.58 L518.881 1485.58 L518.881 1481.64 Q521.543 1478.89 526.126 1474.26 Q530.732 1469.61 531.913 1468.27 Q534.158 1465.74 535.038 1464.01 Q535.941 1462.25 535.941 1460.56 Q535.941 1457.8 533.996 1456.07 Q532.075 1454.33 528.973 1454.33 Q526.774 1454.33 524.32 1455.09 Q521.89 1455.86 519.112 1457.41 L519.112 1452.69 Q521.936 1451.55 524.39 1450.97 Q526.843 1450.39 528.88 1450.39 Q534.251 1450.39 537.445 1453.08 Q540.64 1455.77 540.64 1460.26 Q540.64 1462.39 539.829 1464.31 Q539.042 1466.2 536.936 1468.8 Q536.357 1469.47 533.255 1472.69 Q530.154 1475.88 524.505 1481.64 Z" fill="#000000" fill-rule="nonzero" fill-opacity="1" /><path clip-path="url(#clip150)" d="M560.64 1454.1 Q557.028 1454.1 555.2 1457.66 Q553.394 1461.2 553.394 1468.33 Q553.394 1475.44 555.2 1479.01 Q557.028 1482.55 560.64 1482.55 Q564.274 1482.55 566.079 1479.01 Q567.908 1475.44 567.908 1468.33 Q567.908 1461.2 566.079 1457.66 Q564.274 1454.1 560.64 1454.1 M560.64 1450.39 Q566.45 1450.39 569.505 1455 Q572.584 1459.58 572.584 1468.33 Q572.584 1477.06 569.505 1481.67 Q566.45 1486.25 560.64 1486.25 Q554.829 1486.25 551.751 1481.67 Q548.695 1477.06 548.695 1468.33 Q548.695 1459.58 551.751 1455 Q554.829 1450.39 560.64 1450.39 Z" fill="#000000" fill-rule="nonzero" fill-opacity="1" /><path clip-path="url(#clip150)" d="M860.14 1455.09 L848.335 1473.54 L860.14 1473.54 L860.14 1455.09 M858.913 1451.02 L864.793 1451.02 L864.793 1473.54 L869.723 1473.54 L869.723 1477.43 L864.793 1477.43 L864.793 1485.58 L860.14 1485.58 L860.14 1477.43 L844.538 1477.43 L844.538 1472.92 L858.913 1451.02 Z" fill="#000000" fill-rule="nonzero" fill-opacity="1" /><path clip-path="url(#clip150)" d="M887.455 1454.1 Q883.844 1454.1 882.015 1457.66 Q880.209 1461.2 880.209 1468.33 Q880.209 1475.44 882.015 1479.01 Q883.844 1482.55 887.455 1482.55 Q891.089 1482.55 892.894 1479.01 Q894.723 1475.44 894.723 1468.33 Q894.723 1461.2 892.894 1457.66 Q891.089 1454.1 887.455 1454.1 M887.455 1450.39 Q893.265 1450.39 896.32 1455 Q899.399 1459.58 899.399 1468.33 Q899.399 1477.06 896.32 1481.67 Q893.265 1486.25 887.455 1486.25 Q881.645 1486.25 878.566 1481.67 Q875.51 1477.06 875.51 1468.33 Q875.51 1459.58 878.566 1455 Q881.645 1450.39 887.455 1450.39 Z" fill="#000000" fill-rule="nonzero" fill-opacity="1" /><path clip-path="url(#clip150)" d="M1183.61 1466.44 Q1180.46 1466.44 1178.61 1468.59 Q1176.78 1470.74 1176.78 1474.49 Q1176.78 1478.22 1178.61 1480.39 Q1180.46 1482.55 1183.61 1482.55 Q1186.76 1482.55 1188.59 1480.39 Q1190.44 1478.22 1190.44 1474.49 Q1190.44 1470.74 1188.59 1468.59 Q1186.76 1466.44 1183.61 1466.44 M1192.89 1451.78 L1192.89 1456.04 Q1191.13 1455.21 1189.33 1454.77 Q1187.55 1454.33 1185.79 1454.33 Q1181.16 1454.33 1178.7 1457.45 Q1176.27 1460.58 1175.93 1466.9 Q1177.29 1464.89 1179.35 1463.82 Q1181.41 1462.73 1183.89 1462.73 Q1189.1 1462.73 1192.11 1465.9 Q1195.14 1469.05 1195.14 1474.49 Q1195.14 1479.82 1191.99 1483.03 Q1188.84 1486.25 1183.61 1486.25 Q1177.61 1486.25 1174.44 1481.67 Q1171.27 1477.06 1171.27 1468.33 Q1171.27 1460.14 1175.16 1455.28 Q1179.05 1450.39 1185.6 1450.39 Q1187.36 1450.39 1189.14 1450.74 Q1190.95 1451.09 1192.89 1451.78 Z" fill="#000000" fill-rule="nonzero" fill-opacity="1" /><path clip-path="url(#clip150)" d="M1213.19 1454.1 Q1209.58 1454.1 1207.75 1457.66 Q1205.95 1461.2 1205.95 1468.33 Q1205.95 1475.44 1207.75 1479.01 Q1209.58 1482.55 1213.19 1482.55 Q1216.83 1482.55 1218.63 1479.01 Q1220.46 1475.44 1220.46 1468.33 Q1220.46 1461.2 1218.63 1457.66 Q1216.83 1454.1 1213.19 1454.1 M1213.19 1450.39 Q1219 1450.39 1222.06 1455 Q1225.14 1459.58 1225.14 1468.33 Q1225.14 1477.06 1222.06 1481.67 Q1219 1486.25 1213.19 1486.25 Q1207.38 1486.25 1204.3 1481.67 Q1201.25 1477.06 1201.25 1468.33 Q1201.25 1459.58 1204.3 1455 Q1207.38 1450.39 1213.19 1450.39 Z" fill="#000000" fill-rule="nonzero" fill-opacity="1" /><path clip-path="url(#clip150)" d="M1509.31 1469.17 Q1505.98 1469.17 1504.06 1470.95 Q1502.16 1472.73 1502.16 1475.86 Q1502.16 1478.98 1504.06 1480.77 Q1505.98 1482.55 1509.31 1482.55 Q1512.65 1482.55 1514.57 1480.77 Q1516.49 1478.96 1516.49 1475.86 Q1516.49 1472.73 1514.57 1470.95 Q1512.67 1469.17 1509.31 1469.17 M1504.64 1467.18 Q1501.63 1466.44 1499.94 1464.38 Q1498.27 1462.32 1498.27 1459.35 Q1498.27 1455.21 1501.21 1452.8 Q1504.18 1450.39 1509.31 1450.39 Q1514.48 1450.39 1517.42 1452.8 Q1520.36 1455.21 1520.36 1459.35 Q1520.36 1462.32 1518.67 1464.38 Q1517 1466.44 1514.01 1467.18 Q1517.39 1467.96 1519.27 1470.26 Q1521.17 1472.55 1521.17 1475.86 Q1521.17 1480.88 1518.09 1483.57 Q1515.03 1486.25 1509.31 1486.25 Q1503.6 1486.25 1500.52 1483.57 Q1497.46 1480.88 1497.46 1475.86 Q1497.46 1472.55 1499.36 1470.26 Q1501.26 1467.96 1504.64 1467.18 M1502.93 1459.79 Q1502.93 1462.48 1504.59 1463.98 Q1506.28 1465.49 1509.31 1465.49 Q1512.32 1465.49 1514.01 1463.98 Q1515.73 1462.48 1515.73 1459.79 Q1515.73 1457.11 1514.01 1455.6 Q1512.32 1454.1 1509.31 1454.1 Q1506.28 1454.1 1504.59 1455.6 Q1502.93 1457.11 1502.93 1459.79 Z" fill="#000000" fill-rule="nonzero" fill-opacity="1" /><path clip-path="url(#clip150)" d="M1539.48 1454.1 Q1535.87 1454.1 1534.04 1457.66 Q1532.23 1461.2 1532.23 1468.33 Q1532.23 1475.44 1534.04 1479.01 Q1535.87 1482.55 1539.48 1482.55 Q1543.11 1482.55 1544.92 1479.01 Q1546.74 1475.44 1546.74 1468.33 Q1546.74 1461.2 1544.92 1457.66 Q1543.11 1454.1 1539.48 1454.1 M1539.48 1450.39 Q1545.29 1450.39 1548.34 1455 Q1551.42 1459.58 1551.42 1468.33 Q1551.42 1477.06 1548.34 1481.67 Q1545.29 1486.25 1539.48 1486.25 Q1533.67 1486.25 1530.59 1481.67 Q1527.53 1477.06 1527.53 1468.33 Q1527.53 1459.58 1530.59 1455 Q1533.67 1450.39 1539.48 1450.39 Z" fill="#000000" fill-rule="nonzero" fill-opacity="1" /><path clip-path="url(#clip150)" d="M1810.28 1481.64 L1817.92 1481.64 L1817.92 1455.28 L1809.61 1456.95 L1809.61 1452.69 L1817.88 1451.02 L1822.55 1451.02 L1822.55 1481.64 L1830.19 1481.64 L1830.19 1485.58 L1810.28 1485.58 L1810.28 1481.64 Z" fill="#000000" fill-rule="nonzero" fill-opacity="1" /><path clip-path="url(#clip150)" d="M1849.64 1454.1 Q1846.03 1454.1 1844.2 1457.66 Q1842.39 1461.2 1842.39 1468.33 Q1842.39 1475.44 1844.2 1479.01 Q1846.03 1482.55 1849.64 1482.55 Q1853.27 1482.55 1855.08 1479.01 Q1856.9 1475.44 1856.9 1468.33 Q1856.9 1461.2 1855.08 1457.66 Q1853.27 1454.1 1849.64 1454.1 M1849.64 1450.39 Q1855.45 1450.39 1858.5 1455 Q1861.58 1459.58 1861.58 1468.33 Q1861.58 1477.06 1858.5 1481.67 Q1855.45 1486.25 1849.64 1486.25 Q1843.83 1486.25 1840.75 1481.67 Q1837.69 1477.06 1837.69 1468.33 Q1837.69 1459.58 1840.75 1455 Q1843.83 1450.39 1849.64 1450.39 Z" fill="#000000" fill-rule="nonzero" fill-opacity="1" /><path clip-path="url(#clip150)" d="M1879.8 1454.1 Q1876.19 1454.1 1874.36 1457.66 Q1872.55 1461.2 1872.55 1468.33 Q1872.55 1475.44 1874.36 1479.01 Q1876.19 1482.55 1879.8 1482.55 Q1883.43 1482.55 1885.24 1479.01 Q1887.07 1475.44 1887.07 1468.33 Q1887.07 1461.2 1885.24 1457.66 Q1883.43 1454.1 1879.8 1454.1 M1879.8 1450.39 Q1885.61 1450.39 1888.66 1455 Q1891.74 1459.58 1891.74 1468.33 Q1891.74 1477.06 1888.66 1481.67 Q1885.61 1486.25 1879.8 1486.25 Q1873.99 1486.25 1870.91 1481.67 Q1867.85 1477.06 1867.85 1468.33 Q1867.85 1459.58 1870.91 1455 Q1873.99 1450.39 1879.8 1450.39 Z" fill="#000000" fill-rule="nonzero" fill-opacity="1" /><path clip-path="url(#clip150)" d="M2136.52 1481.64 L2144.16 1481.64 L2144.16 1455.28 L2135.85 1456.95 L2135.85 1452.69 L2144.11 1451.02 L2148.79 1451.02 L2148.79 1481.64 L2156.43 1481.64 L2156.43 1485.58 L2136.52 1485.58 L2136.52 1481.64 Z" fill="#000000" fill-rule="nonzero" fill-opacity="1" /><path clip-path="url(#clip150)" d="M2169.9 1481.64 L2186.22 1481.64 L2186.22 1485.58 L2164.28 1485.58 L2164.28 1481.64 Q2166.94 1478.89 2171.52 1474.26 Q2176.13 1469.61 2177.31 1468.27 Q2179.55 1465.74 2180.43 1464.01 Q2181.34 1462.25 2181.34 1460.56 Q2181.34 1457.8 2179.39 1456.07 Q2177.47 1454.33 2174.37 1454.33 Q2172.17 1454.33 2169.72 1455.09 Q2167.28 1455.86 2164.51 1457.41 L2164.51 1452.69 Q2167.33 1451.55 2169.78 1450.97 Q2172.24 1450.39 2174.28 1450.39 Q2179.65 1450.39 2182.84 1453.08 Q2186.03 1455.77 2186.03 1460.26 Q2186.03 1462.39 2185.22 1464.31 Q2184.44 1466.2 2182.33 1468.8 Q2181.75 1469.47 2178.65 1472.69 Q2175.55 1475.88 2169.9 1481.64 Z" fill="#000000" fill-rule="nonzero" fill-opacity="1" /><path clip-path="url(#clip150)" d="M2206.03 1454.1 Q2202.42 1454.1 2200.59 1457.66 Q2198.79 1461.2 2198.79 1468.33 Q2198.79 1475.44 2200.59 1479.01 Q2202.42 1482.55 2206.03 1482.55 Q2209.67 1482.55 2211.47 1479.01 Q2213.3 1475.44 2213.3 1468.33 Q2213.3 1461.2 2211.47 1457.66 Q2209.67 1454.1 2206.03 1454.1 M2206.03 1450.39 Q2211.84 1450.39 2214.9 1455 Q2217.98 1459.58 2217.98 1468.33 Q2217.98 1477.06 2214.9 1481.67 Q2211.84 1486.25 2206.03 1486.25 Q2200.22 1486.25 2197.15 1481.67 Q2194.09 1477.06 2194.09 1468.33 Q2194.09 1459.58 2197.15 1455 Q2200.22 1450.39 2206.03 1450.39 Z" fill="#000000" fill-rule="nonzero" fill-opacity="1" /><path clip-path="url(#clip150)" d="M957.405 1546.53 L957.405 1568.04 L951.549 1568.04 L951.549 1546.72 Q951.549 1541.66 949.575 1539.14 Q947.602 1536.63 943.655 1536.63 Q938.913 1536.63 936.176 1539.65 Q933.438 1542.68 933.438 1547.9 L933.438 1568.04 L927.55 1568.04 L927.55 1532.4 L933.438 1532.4 L933.438 1537.93 Q935.539 1534.72 938.372 1533.13 Q941.236 1531.54 944.96 1531.54 Q951.103 1531.54 954.254 1535.36 Q957.405 1539.14 957.405 1546.53 Z" fill="#000000" fill-rule="nonzero" fill-opacity="1" /><path clip-path="url(#clip150)" d="M968.481 1553.98 L968.481 1532.4 L974.338 1532.4 L974.338 1553.75 Q974.338 1558.81 976.311 1561.36 Q978.285 1563.87 982.231 1563.87 Q986.974 1563.87 989.711 1560.85 Q992.48 1557.83 992.48 1552.61 L992.48 1532.4 L998.337 1532.4 L998.337 1568.04 L992.48 1568.04 L992.48 1562.57 Q990.348 1565.82 987.515 1567.41 Q984.714 1568.97 980.99 1568.97 Q974.847 1568.97 971.664 1565.15 Q968.481 1561.33 968.481 1553.98 M983.218 1531.54 L983.218 1531.54 Z" fill="#000000" fill-rule="nonzero" fill-opacity="1" /><path clip-path="url(#clip150)" d="M1038.15 1539.24 Q1040.35 1535.29 1043.41 1533.41 Q1046.46 1531.54 1050.6 1531.54 Q1056.17 1531.54 1059.19 1535.45 Q1062.22 1539.33 1062.22 1546.53 L1062.22 1568.04 L1056.33 1568.04 L1056.33 1546.72 Q1056.33 1541.59 1054.51 1539.11 Q1052.7 1536.63 1048.98 1536.63 Q1044.42 1536.63 1041.78 1539.65 Q1039.14 1542.68 1039.14 1547.9 L1039.14 1568.04 L1033.25 1568.04 L1033.25 1546.72 Q1033.25 1541.56 1031.44 1539.11 Q1029.62 1536.63 1025.84 1536.63 Q1021.35 1536.63 1018.71 1539.68 Q1016.07 1542.71 1016.07 1547.9 L1016.07 1568.04 L1010.18 1568.04 L1010.18 1532.4 L1016.07 1532.4 L1016.07 1537.93 Q1018.07 1534.66 1020.87 1533.1 Q1023.67 1531.54 1027.52 1531.54 Q1031.41 1531.54 1034.11 1533.51 Q1036.85 1535.48 1038.15 1539.24 Z" fill="#000000" fill-rule="nonzero" fill-opacity="1" /><path clip-path="url(#clip150)" d="M1099.49 1550.25 Q1099.49 1543.79 1096.81 1540.13 Q1094.17 1536.44 1089.53 1536.44 Q1084.88 1536.44 1082.2 1540.13 Q1079.56 1543.79 1079.56 1550.25 Q1079.56 1556.71 1082.2 1560.4 Q1084.88 1564.07 1089.53 1564.07 Q1094.17 1564.07 1096.81 1560.4 Q1099.49 1556.71 1099.49 1550.25 M1079.56 1537.81 Q1081.41 1534.62 1084.21 1533.1 Q1087.04 1531.54 1090.96 1531.54 Q1097.45 1531.54 1101.49 1536.69 Q1105.57 1541.85 1105.57 1550.25 Q1105.57 1558.65 1101.49 1563.81 Q1097.45 1568.97 1090.96 1568.97 Q1087.04 1568.97 1084.21 1567.44 Q1081.41 1565.88 1079.56 1562.7 L1079.56 1568.04 L1073.67 1568.04 L1073.67 1518.52 L1079.56 1518.52 L1079.56 1537.81 Z" fill="#000000" fill-rule="nonzero" fill-opacity="1" /><path clip-path="url(#clip150)" d="M1145.77 1548.76 L1145.77 1551.62 L1118.84 1551.62 Q1119.22 1557.67 1122.47 1560.85 Q1125.75 1564 1131.57 1564 Q1134.94 1564 1138.1 1563.17 Q1141.28 1562.35 1144.4 1560.69 L1144.4 1566.23 Q1141.25 1567.57 1137.94 1568.27 Q1134.63 1568.97 1131.22 1568.97 Q1122.69 1568.97 1117.69 1564 Q1112.73 1559.04 1112.73 1550.57 Q1112.73 1541.82 1117.44 1536.69 Q1122.18 1531.54 1130.2 1531.54 Q1137.4 1531.54 1141.57 1536.18 Q1145.77 1540.8 1145.77 1548.76 M1139.91 1547.04 Q1139.85 1542.23 1137.2 1539.37 Q1134.59 1536.5 1130.27 1536.5 Q1125.36 1536.5 1122.4 1539.27 Q1119.48 1542.04 1119.03 1547.07 L1139.91 1547.04 Z" fill="#000000" fill-rule="nonzero" fill-opacity="1" /><path clip-path="url(#clip150)" d="M1176.04 1537.87 Q1175.05 1537.3 1173.87 1537.04 Q1172.73 1536.76 1171.32 1536.76 Q1166.36 1536.76 1163.69 1540 Q1161.04 1543.22 1161.04 1549.27 L1161.04 1568.04 L1155.16 1568.04 L1155.16 1532.4 L1161.04 1532.4 L1161.04 1537.93 Q1162.89 1534.69 1165.85 1533.13 Q1168.81 1531.54 1173.04 1531.54 Q1173.65 1531.54 1174.38 1531.63 Q1175.11 1531.7 1176 1531.85 L1176.04 1537.87 Z" fill="#000000" fill-rule="nonzero" fill-opacity="1" /><path clip-path="url(#clip150)" d="M1216.71 1536.5 Q1212 1536.5 1209.26 1540.19 Q1206.53 1543.85 1206.53 1550.25 Q1206.53 1556.65 1209.23 1560.34 Q1211.97 1564 1216.71 1564 Q1221.39 1564 1224.13 1560.31 Q1226.87 1556.62 1226.87 1550.25 Q1226.87 1543.92 1224.13 1540.23 Q1221.39 1536.5 1216.71 1536.5 M1216.71 1531.54 Q1224.35 1531.54 1228.71 1536.5 Q1233.07 1541.47 1233.07 1550.25 Q1233.07 1559 1228.71 1564 Q1224.35 1568.97 1216.71 1568.97 Q1209.04 1568.97 1204.68 1564 Q1200.35 1559 1200.35 1550.25 Q1200.35 1541.47 1204.68 1536.5 Q1209.04 1531.54 1216.71 1531.54 Z" fill="#000000" fill-rule="nonzero" fill-opacity="1" /><path clip-path="url(#clip150)" d="M1260.83 1518.52 L1260.83 1523.39 L1255.22 1523.39 Q1252.07 1523.39 1250.83 1524.66 Q1249.62 1525.93 1249.62 1529.24 L1249.62 1532.4 L1259.27 1532.4 L1259.27 1536.95 L1249.62 1536.95 L1249.62 1568.04 L1243.73 1568.04 L1243.73 1536.95 L1238.13 1536.95 L1238.13 1532.4 L1243.73 1532.4 L1243.73 1529.91 Q1243.73 1523.96 1246.5 1521.26 Q1249.27 1518.52 1255.29 1518.52 L1260.83 1518.52 Z" fill="#000000" fill-rule="nonzero" fill-opacity="1" /><path clip-path="url(#clip150)" d="M1292.24 1522.27 L1292.24 1532.4 L1304.3 1532.4 L1304.3 1536.95 L1292.24 1536.95 L1292.24 1556.3 Q1292.24 1560.66 1293.42 1561.9 Q1294.63 1563.14 1298.29 1563.14 L1304.3 1563.14 L1304.3 1568.04 L1298.29 1568.04 Q1291.51 1568.04 1288.93 1565.53 Q1286.35 1562.98 1286.35 1556.3 L1286.35 1536.95 L1282.06 1536.95 L1282.06 1532.4 L1286.35 1532.4 L1286.35 1522.27 L1292.24 1522.27 Z" fill="#000000" fill-rule="nonzero" fill-opacity="1" /><path clip-path="url(#clip150)" d="M1312.01 1532.4 L1317.86 1532.4 L1317.86 1568.04 L1312.01 1568.04 L1312.01 1532.4 M1312.01 1518.52 L1317.86 1518.52 L1317.86 1525.93 L1312.01 1525.93 L1312.01 1518.52 Z" fill="#000000" fill-rule="nonzero" fill-opacity="1" /><path clip-path="url(#clip150)" d="M1357.87 1539.24 Q1360.07 1535.29 1363.12 1533.41 Q1366.18 1531.54 1370.32 1531.54 Q1375.89 1531.54 1378.91 1535.45 Q1381.93 1539.33 1381.93 1546.53 L1381.93 1568.04 L1376.05 1568.04 L1376.05 1546.72 Q1376.05 1541.59 1374.23 1539.11 Q1372.42 1536.63 1368.69 1536.63 Q1364.14 1536.63 1361.5 1539.65 Q1358.86 1542.68 1358.86 1547.9 L1358.86 1568.04 L1352.97 1568.04 L1352.97 1546.72 Q1352.97 1541.56 1351.16 1539.11 Q1349.34 1536.63 1345.55 1536.63 Q1341.07 1536.63 1338.42 1539.68 Q1335.78 1542.71 1335.78 1547.9 L1335.78 1568.04 L1329.89 1568.04 L1329.89 1532.4 L1335.78 1532.4 L1335.78 1537.93 Q1337.79 1534.66 1340.59 1533.1 Q1343.39 1531.54 1347.24 1531.54 Q1351.12 1531.54 1353.83 1533.51 Q1356.57 1535.48 1357.87 1539.24 Z" fill="#000000" fill-rule="nonzero" fill-opacity="1" /><path clip-path="url(#clip150)" d="M1424.11 1548.76 L1424.11 1551.62 L1397.18 1551.62 Q1397.56 1557.67 1400.81 1560.85 Q1404.09 1564 1409.91 1564 Q1413.29 1564 1416.44 1563.17 Q1419.62 1562.35 1422.74 1560.69 L1422.74 1566.23 Q1419.59 1567.57 1416.28 1568.27 Q1412.97 1568.97 1409.56 1568.97 Q1401.03 1568.97 1396.03 1564 Q1391.07 1559.04 1391.07 1550.57 Q1391.07 1541.82 1395.78 1536.69 Q1400.52 1531.54 1408.54 1531.54 Q1415.74 1531.54 1419.91 1536.18 Q1424.11 1540.8 1424.11 1548.76 M1418.25 1547.04 Q1418.19 1542.23 1415.55 1539.37 Q1412.94 1536.5 1408.61 1536.5 Q1403.7 1536.5 1400.74 1539.27 Q1397.82 1542.04 1397.37 1547.07 L1418.25 1547.04 Z" fill="#000000" fill-rule="nonzero" fill-opacity="1" /><path clip-path="url(#clip150)" d="M1456.44 1533.45 L1456.44 1538.98 Q1453.96 1537.71 1451.29 1537.07 Q1448.61 1536.44 1445.75 1536.44 Q1441.39 1536.44 1439.19 1537.77 Q1437.03 1539.11 1437.03 1541.79 Q1437.03 1543.82 1438.59 1545 Q1440.15 1546.15 1444.86 1547.2 L1446.86 1547.64 Q1453.1 1548.98 1455.71 1551.43 Q1458.35 1553.85 1458.35 1558.21 Q1458.35 1563.17 1454.41 1566.07 Q1450.49 1568.97 1443.62 1568.97 Q1440.75 1568.97 1437.63 1568.39 Q1434.55 1567.85 1431.11 1566.74 L1431.11 1560.69 Q1434.36 1562.38 1437.51 1563.24 Q1440.66 1564.07 1443.75 1564.07 Q1447.88 1564.07 1450.11 1562.66 Q1452.34 1561.23 1452.34 1558.65 Q1452.34 1556.27 1450.72 1554.99 Q1449.12 1553.72 1443.68 1552.54 L1441.64 1552.07 Q1436.2 1550.92 1433.78 1548.56 Q1431.36 1546.18 1431.36 1542.04 Q1431.36 1537.01 1434.93 1534.27 Q1438.49 1531.54 1445.05 1531.54 Q1448.3 1531.54 1451.16 1532.01 Q1454.03 1532.49 1456.44 1533.45 Z" fill="#000000" fill-rule="nonzero" fill-opacity="1" /><path clip-path="url(#clip150)" d="M1473.47 1522.27 L1473.47 1532.4 L1485.54 1532.4 L1485.54 1536.95 L1473.47 1536.95 L1473.47 1556.3 Q1473.47 1560.66 1474.65 1561.9 Q1475.86 1563.14 1479.52 1563.14 L1485.54 1563.14 L1485.54 1568.04 L1479.52 1568.04 Q1472.74 1568.04 1470.16 1565.53 Q1467.58 1562.98 1467.58 1556.3 L1467.58 1536.95 L1463.29 1536.95 L1463.29 1532.4 L1467.58 1532.4 L1467.58 1522.27 L1473.47 1522.27 Z" fill="#000000" fill-rule="nonzero" fill-opacity="1" /><path clip-path="url(#clip150)" d="M1523.73 1548.76 L1523.73 1551.62 L1496.8 1551.62 Q1497.19 1557.67 1500.43 1560.85 Q1503.71 1564 1509.53 1564 Q1512.91 1564 1516.06 1563.17 Q1519.24 1562.35 1522.36 1560.69 L1522.36 1566.23 Q1519.21 1567.57 1515.9 1568.27 Q1512.59 1568.97 1509.18 1568.97 Q1500.65 1568.97 1495.66 1564 Q1490.69 1559.04 1490.69 1550.57 Q1490.69 1541.82 1495.4 1536.69 Q1500.15 1531.54 1508.17 1531.54 Q1515.36 1531.54 1519.53 1536.18 Q1523.73 1540.8 1523.73 1548.76 M1517.87 1547.04 Q1517.81 1542.23 1515.17 1539.37 Q1512.56 1536.5 1508.23 1536.5 Q1503.33 1536.5 1500.37 1539.27 Q1497.44 1542.04 1496.99 1547.07 L1517.87 1547.04 Z" fill="#000000" fill-rule="nonzero" fill-opacity="1" /><path clip-path="url(#clip150)" d="M1539.01 1562.7 L1539.01 1581.6 L1533.12 1581.6 L1533.12 1532.4 L1539.01 1532.4 L1539.01 1537.81 Q1540.85 1534.62 1543.65 1533.1 Q1546.49 1531.54 1550.4 1531.54 Q1556.9 1531.54 1560.94 1536.69 Q1565.01 1541.85 1565.01 1550.25 Q1565.01 1558.65 1560.94 1563.81 Q1556.9 1568.97 1550.4 1568.97 Q1546.49 1568.97 1543.65 1567.44 Q1540.85 1565.88 1539.01 1562.7 M1558.93 1550.25 Q1558.93 1543.79 1556.26 1540.13 Q1553.62 1536.44 1548.97 1536.44 Q1544.32 1536.44 1541.65 1540.13 Q1539.01 1543.79 1539.01 1550.25 Q1539.01 1556.71 1541.65 1560.4 Q1544.32 1564.07 1548.97 1564.07 Q1553.62 1564.07 1556.26 1560.4 Q1558.93 1556.71 1558.93 1550.25 Z" fill="#000000" fill-rule="nonzero" fill-opacity="1" /><path clip-path="url(#clip150)" d="M1597.45 1533.45 L1597.45 1538.98 Q1594.96 1537.71 1592.29 1537.07 Q1589.62 1536.44 1586.75 1536.44 Q1582.39 1536.44 1580.19 1537.77 Q1578.03 1539.11 1578.03 1541.79 Q1578.03 1543.82 1579.59 1545 Q1581.15 1546.15 1585.86 1547.2 L1587.86 1547.64 Q1594.1 1548.98 1596.71 1551.43 Q1599.35 1553.85 1599.35 1558.21 Q1599.35 1563.17 1595.41 1566.07 Q1591.49 1568.97 1584.62 1568.97 Q1581.75 1568.97 1578.63 1568.39 Q1575.55 1567.85 1572.11 1566.74 L1572.11 1560.69 Q1575.36 1562.38 1578.51 1563.24 Q1581.66 1564.07 1584.75 1564.07 Q1588.88 1564.07 1591.11 1562.66 Q1593.34 1561.23 1593.34 1558.65 Q1593.34 1556.27 1591.72 1554.99 Q1590.12 1553.72 1584.68 1552.54 L1582.64 1552.07 Q1577.2 1550.92 1574.78 1548.56 Q1572.36 1546.18 1572.36 1542.04 Q1572.36 1537.01 1575.93 1534.27 Q1579.49 1531.54 1586.05 1531.54 Q1589.3 1531.54 1592.16 1532.01 Q1595.03 1532.49 1597.45 1533.45 Z" fill="#000000" fill-rule="nonzero" fill-opacity="1" /><polyline clip-path="url(#clip152)" style="stroke:#000000; stroke-linecap:round; stroke-linejoin:round; stroke-width:2; stroke-opacity:0.1; fill:none" points="174.149,1384.24 2352.76,1384.24 "/>
<polyline clip-path="url(#clip152)" style="stroke:#000000; stroke-linecap:round; stroke-linejoin:round; stroke-width:2; stroke-opacity:0.1; fill:none" points="174.149,960.448 2352.76,960.448 "/>
<polyline clip-path="url(#clip152)" style="stroke:#000000; stroke-linecap:round; stroke-linejoin:round; stroke-width:2; stroke-opacity:0.1; fill:none" points="174.149,536.657 2352.76,536.657 "/>
<polyline clip-path="url(#clip152)" style="stroke:#000000; stroke-linecap:round; stroke-linejoin:round; stroke-width:2; stroke-opacity:0.1; fill:none" points="174.149,112.867 2352.76,112.867 "/>
<polyline clip-path="url(#clip150)" style="stroke:#000000; stroke-linecap:round; stroke-linejoin:round; stroke-width:4; stroke-opacity:1; fill:none" points="174.149,1423.18 174.149,47.2441 "/>
<polyline clip-path="url(#clip150)" style="stroke:#000000; stroke-linecap:round; stroke-linejoin:round; stroke-width:4; stroke-opacity:1; fill:none" points="174.149,1384.24 193.047,1384.24 "/>
<polyline clip-path="url(#clip150)" style="stroke:#000000; stroke-linecap:round; stroke-linejoin:round; stroke-width:4; stroke-opacity:1; fill:none" points="174.149,960.448 193.047,960.448 "/>
<polyline clip-path="url(#clip150)" style="stroke:#000000; stroke-linecap:round; stroke-linejoin:round; stroke-width:4; stroke-opacity:1; fill:none" points="174.149,536.657 193.047,536.657 "/>
<polyline clip-path="url(#clip150)" style="stroke:#000000; stroke-linecap:round; stroke-linejoin:round; stroke-width:4; stroke-opacity:1; fill:none" points="174.149,112.867 193.047,112.867 "/>
<path clip-path="url(#clip150)" d="M126.205 1370.04 Q122.593 1370.04 120.765 1373.6 Q118.959 1377.14 118.959 1384.27 Q118.959 1391.38 120.765 1394.94 Q122.593 1398.49 126.205 1398.49 Q129.839 1398.49 131.644 1394.94 Q133.473 1391.38 133.473 1384.27 Q133.473 1377.14 131.644 1373.6 Q129.839 1370.04 126.205 1370.04 M126.205 1366.33 Q132.015 1366.33 135.07 1370.94 Q138.149 1375.52 138.149 1384.27 Q138.149 1393 135.07 1397.61 Q132.015 1402.19 126.205 1402.19 Q120.394 1402.19 117.316 1397.61 Q114.26 1393 114.26 1384.27 Q114.26 1375.52 117.316 1370.94 Q120.394 1366.33 126.205 1366.33 Z" fill="#000000" fill-rule="nonzero" fill-opacity="1" /><path clip-path="url(#clip150)" d="M118.242 973.793 L125.88 973.793 L125.88 947.427 L117.57 949.094 L117.57 944.834 L125.834 943.168 L130.51 943.168 L130.51 973.793 L138.149 973.793 L138.149 977.728 L118.242 977.728 L118.242 973.793 Z" fill="#000000" fill-rule="nonzero" fill-opacity="1" /><path clip-path="url(#clip150)" d="M121.83 550.002 L138.149 550.002 L138.149 553.937 L116.205 553.937 L116.205 550.002 Q118.867 547.247 123.45 542.618 Q128.056 537.965 129.237 536.622 Q131.482 534.099 132.362 532.363 Q133.265 530.604 133.265 528.914 Q133.265 526.16 131.32 524.423 Q129.399 522.687 126.297 522.687 Q124.098 522.687 121.644 523.451 Q119.214 524.215 116.436 525.766 L116.436 521.044 Q119.26 519.91 121.714 519.331 Q124.168 518.752 126.205 518.752 Q131.575 518.752 134.769 521.437 Q137.964 524.123 137.964 528.613 Q137.964 530.743 137.154 532.664 Q136.367 534.562 134.26 537.155 Q133.681 537.826 130.58 541.044 Q127.478 544.238 121.83 550.002 Z" fill="#000000" fill-rule="nonzero" fill-opacity="1" /><path clip-path="url(#clip150)" d="M131.019 111.512 Q134.376 112.23 136.251 114.499 Q138.149 116.767 138.149 120.1 Q138.149 125.216 134.63 128.017 Q131.112 130.818 124.63 130.818 Q122.455 130.818 120.14 130.378 Q117.848 129.961 115.394 129.105 L115.394 124.591 Q117.339 125.725 119.654 126.304 Q121.968 126.883 124.492 126.883 Q128.89 126.883 131.181 125.147 Q133.496 123.411 133.496 120.1 Q133.496 117.045 131.343 115.332 Q129.214 113.596 125.394 113.596 L121.367 113.596 L121.367 109.753 L125.58 109.753 Q129.029 109.753 130.857 108.387 Q132.686 106.999 132.686 104.406 Q132.686 101.744 130.788 100.332 Q128.913 98.8968 125.394 98.8968 Q123.473 98.8968 121.274 99.3135 Q119.075 99.7301 116.436 100.61 L116.436 96.4431 Q119.098 95.7024 121.413 95.332 Q123.751 94.9616 125.811 94.9616 Q131.135 94.9616 134.237 97.3922 Q137.339 99.7996 137.339 103.92 Q137.339 106.79 135.695 108.781 Q134.052 110.749 131.019 111.512 Z" fill="#000000" fill-rule="nonzero" fill-opacity="1" /><path clip-path="url(#clip150)" d="M33.7671 869.783 L14.479 869.783 L14.479 863.927 L64.0042 863.927 L64.0042 869.783 L58.657 869.783 Q61.8398 871.629 63.3994 874.462 Q64.9272 877.263 64.9272 881.209 Q64.9272 887.671 59.771 891.745 Q54.6147 895.787 46.212 895.787 Q37.8093 895.787 32.6531 891.745 Q27.4968 887.671 27.4968 881.209 Q27.4968 877.263 29.0564 874.462 Q30.5842 871.629 33.7671 869.783 M46.212 889.739 Q52.6732 889.739 56.3653 887.098 Q60.0256 884.424 60.0256 879.777 Q60.0256 875.13 56.3653 872.457 Q52.6732 869.783 46.212 869.783 Q39.7508 869.783 36.0905 872.457 Q32.3984 875.13 32.3984 879.777 Q32.3984 884.424 36.0905 887.098 Q39.7508 889.739 46.212 889.739 Z" fill="#000000" fill-rule="nonzero" fill-opacity="1" /><path clip-path="url(#clip150)" d="M28.3562 851.864 L28.3562 846.007 L64.0042 846.007 L64.0042 851.864 L28.3562 851.864 M14.479 851.864 L14.479 846.007 L21.895 846.007 L21.895 851.864 L14.479 851.864 Z" fill="#000000" fill-rule="nonzero" fill-opacity="1" /><path clip-path="url(#clip150)" d="M14.479 815.706 L19.3487 815.706 L19.3487 821.308 Q19.3487 824.459 20.6219 825.7 Q21.895 826.91 25.2052 826.91 L28.3562 826.91 L28.3562 817.266 L32.9077 817.266 L32.9077 826.91 L64.0042 826.91 L64.0042 832.798 L32.9077 832.798 L32.9077 838.4 L28.3562 838.4 L28.3562 832.798 L25.8736 832.798 Q19.9216 832.798 17.2162 830.029 Q14.479 827.26 14.479 821.244 L14.479 815.706 Z" fill="#000000" fill-rule="nonzero" fill-opacity="1" /><path clip-path="url(#clip150)" d="M14.479 792.758 L19.3487 792.758 L19.3487 798.36 Q19.3487 801.511 20.6219 802.752 Q21.895 803.962 25.2052 803.962 L28.3562 803.962 L28.3562 794.318 L32.9077 794.318 L32.9077 803.962 L64.0042 803.962 L64.0042 809.85 L32.9077 809.85 L32.9077 815.452 L28.3562 815.452 L28.3562 809.85 L25.8736 809.85 Q19.9216 809.85 17.2162 807.081 Q14.479 804.312 14.479 798.296 L14.479 792.758 Z" fill="#000000" fill-rule="nonzero" fill-opacity="1" /><path clip-path="url(#clip150)" d="M44.7161 757.365 L47.5806 757.365 L47.5806 784.292 Q53.6281 783.91 56.8109 780.663 Q59.9619 777.385 59.9619 771.56 Q59.9619 768.186 59.1344 765.035 Q58.3069 761.852 56.6518 758.733 L62.1899 758.733 Q63.5267 761.884 64.227 765.194 Q64.9272 768.505 64.9272 771.91 Q64.9272 780.44 59.9619 785.437 Q54.9967 790.403 46.5303 790.403 Q37.7774 790.403 32.6531 785.692 Q27.4968 780.95 27.4968 772.929 Q27.4968 765.736 32.1438 761.566 Q36.7589 757.365 44.7161 757.365 M42.9973 763.221 Q38.1912 763.285 35.3266 765.927 Q32.4621 768.536 32.4621 772.865 Q32.4621 777.767 35.2312 780.727 Q38.0002 783.655 43.0292 784.101 L42.9973 763.221 Z" fill="#000000" fill-rule="nonzero" fill-opacity="1" /><path clip-path="url(#clip150)" d="M33.8307 727.096 Q33.2578 728.082 33.0032 729.26 Q32.7167 730.406 32.7167 731.806 Q32.7167 736.772 35.9632 739.445 Q39.1779 742.087 45.2253 742.087 L64.0042 742.087 L64.0042 747.975 L28.3562 747.975 L28.3562 742.087 L33.8944 742.087 Q30.6479 740.241 29.0883 737.281 Q27.4968 734.321 27.4968 730.088 Q27.4968 729.483 27.5923 728.751 Q27.656 728.019 27.8151 727.128 L33.8307 727.096 Z" fill="#000000" fill-rule="nonzero" fill-opacity="1" /><path clip-path="url(#clip150)" d="M44.7161 691.893 L47.5806 691.893 L47.5806 718.82 Q53.6281 718.438 56.8109 715.192 Q59.9619 711.913 59.9619 706.089 Q59.9619 702.715 59.1344 699.564 Q58.3069 696.381 56.6518 693.262 L62.1899 693.262 Q63.5267 696.413 64.227 699.723 Q64.9272 703.033 64.9272 706.439 Q64.9272 714.969 59.9619 719.966 Q54.9967 724.931 46.5303 724.931 Q37.7774 724.931 32.6531 720.221 Q27.4968 715.478 27.4968 707.457 Q27.4968 700.264 32.1438 696.095 Q36.7589 691.893 44.7161 691.893 M42.9973 697.75 Q38.1912 697.813 35.3266 700.455 Q32.4621 703.065 32.4621 707.394 Q32.4621 712.295 35.2312 715.255 Q38.0002 718.184 43.0292 718.629 L42.9973 697.75 Z" fill="#000000" fill-rule="nonzero" fill-opacity="1" /><path clip-path="url(#clip150)" d="M42.4881 652.649 L64.0042 652.649 L64.0042 658.505 L42.679 658.505 Q37.6183 658.505 35.1038 660.479 Q32.5894 662.452 32.5894 666.399 Q32.5894 671.141 35.6131 673.878 Q38.6368 676.616 43.8567 676.616 L64.0042 676.616 L64.0042 682.504 L28.3562 682.504 L28.3562 676.616 L33.8944 676.616 Q30.6797 674.515 29.0883 671.682 Q27.4968 668.818 27.4968 665.094 Q27.4968 658.951 31.3163 655.8 Q35.1038 652.649 42.4881 652.649 Z" fill="#000000" fill-rule="nonzero" fill-opacity="1" /><path clip-path="url(#clip150)" d="M29.7248 615.314 L35.1993 615.314 Q33.8307 617.797 33.1623 620.311 Q32.4621 622.794 32.4621 625.34 Q32.4621 631.037 36.0905 634.188 Q39.6872 637.339 46.212 637.339 Q52.7369 637.339 56.3653 634.188 Q59.9619 631.037 59.9619 625.34 Q59.9619 622.794 59.2935 620.311 Q58.5933 617.797 57.2247 615.314 L62.6355 615.314 Q63.7814 617.765 64.3543 620.406 Q64.9272 623.016 64.9272 625.976 Q64.9272 634.029 59.8664 638.772 Q54.8057 643.514 46.212 643.514 Q37.491 643.514 32.4939 638.74 Q27.4968 633.934 27.4968 625.595 Q27.4968 622.889 28.0697 620.311 Q28.6108 617.733 29.7248 615.314 Z" fill="#000000" fill-rule="nonzero" fill-opacity="1" /><path clip-path="url(#clip150)" d="M44.7161 574.637 L47.5806 574.637 L47.5806 601.564 Q53.6281 601.182 56.8109 597.936 Q59.9619 594.657 59.9619 588.833 Q59.9619 585.459 59.1344 582.308 Q58.3069 579.125 56.6518 576.006 L62.1899 576.006 Q63.5267 579.157 64.227 582.467 Q64.9272 585.777 64.9272 589.183 Q64.9272 597.713 59.9619 602.71 Q54.9967 607.675 46.5303 607.675 Q37.7774 607.675 32.6531 602.964 Q27.4968 598.222 27.4968 590.201 Q27.4968 583.008 32.1438 578.838 Q36.7589 574.637 44.7161 574.637 M42.9973 580.493 Q38.1912 580.557 35.3266 583.199 Q32.4621 585.809 32.4621 590.138 Q32.4621 595.039 35.2312 597.999 Q38.0002 600.927 43.0292 601.373 L42.9973 580.493 Z" fill="#000000" fill-rule="nonzero" fill-opacity="1" /><polyline clip-path="url(#clip152)" style="stroke:#009af9; stroke-linecap:round; stroke-linejoin:round; stroke-width:4; stroke-opacity:1; fill:none" points="235.808,86.1857 252.119,692.427 268.431,849.772 284.743,937.554 301.055,983.089 317.367,917.214 333.679,1183.75 349.99,1348.15 366.302,1378.86 382.614,1382.09 398.926,1383.22 415.238,1383.74 431.549,1383.98 447.861,1384.1 464.173,1384.16 480.485,1384.19 496.797,1384.21 513.109,1384.22 529.42,1384.22 545.732,1384.23 562.044,1384.23 578.356,1384.23 594.668,1384.23 610.98,1384.24 627.291,1384.24 643.603,1384.24 659.915,1384.24 676.227,1384.24 692.539,1384.24 708.85,1384.24 725.162,1384.24 741.474,1384.24 757.786,1384.24 774.098,1384.24 790.41,1384.24 806.721,1384.24 823.033,1384.24 839.345,1384.24 855.657,1384.24 871.969,1384.24 888.28,1384.24 904.592,1384.24 920.904,1384.24 937.216,1384.24 953.528,1384.24 969.84,1384.24 986.151,1384.24 1002.46,1384.24 1018.78,1384.24 1035.09,1384.24 1051.4,1384.24 1067.71,1384.24 1084.02,1384.24 1100.33,1384.24 1116.65,1384.24 1132.96,1384.24 1149.27,1384.24 1165.58,1384.24 1181.89,1384.24 1198.21,1384.24 1214.52,1384.24 1230.83,1384.24 1247.14,1384.24 1263.45,1384.24 1279.76,1384.24 "/>
<path clip-path="url(#clip150)" d="M246.769 196.789 L532.662 196.789 L532.662 93.1086 L246.769 93.1086  Z" fill="#ffffff" fill-rule="evenodd" fill-opacity="1"/>
<polyline clip-path="url(#clip150)" style="stroke:#000000; stroke-linecap:round; stroke-linejoin:round; stroke-width:4; stroke-opacity:1; fill:none" points="246.769,196.789 532.662,196.789 532.662,93.1086 246.769,93.1086 246.769,196.789 "/>
<polyline clip-path="url(#clip150)" style="stroke:#009af9; stroke-linecap:round; stroke-linejoin:round; stroke-width:4; stroke-opacity:1; fill:none" points="270.976,144.949 416.216,144.949 "/>
<path clip-path="url(#clip150)" d="M440.423 156.613 Q440.423 156.426 441.056 155.208 Q441.688 153.966 443.913 149.539 Q446.138 145.089 448.434 140.428 L456.702 123.798 Q457.287 122.744 458.037 122.744 Q458.716 122.744 459.021 123.166 Q459.325 123.587 460.73 126.421 Q461.456 127.803 461.878 128.693 L475.44 155.84 Q475.674 156.426 475.697 156.613 Q475.697 157.081 474.878 157.081 L441.688 157.081 Q440.423 157.081 440.423 156.613 M443.585 153.428 L469.397 153.428 L456.491 127.522 L443.585 153.428 Z" fill="#000000" fill-rule="nonzero" fill-opacity="1" /><path clip-path="url(#clip150)" d="M505.315 144.504 Q505.315 146.869 504.098 149.235 Q502.88 151.601 500.889 153.428 Q498.898 155.231 496.181 156.402 Q493.464 157.573 490.63 157.667 L488.803 164.811 Q488.451 166.544 488.264 166.731 Q488.077 166.919 487.796 166.919 Q487.21 166.919 487.21 166.38 Q487.21 166.216 488.264 162.164 L489.388 157.667 Q485.125 157.433 482.643 154.973 Q480.16 152.514 480.16 148.977 Q480.16 146.588 481.378 144.223 Q482.619 141.833 484.61 140.03 Q486.624 138.226 489.341 137.079 Q492.058 135.931 494.846 135.837 L497.633 124.758 Q497.773 124.126 497.891 123.962 Q498.008 123.798 498.359 123.798 Q498.617 123.798 498.757 123.915 Q498.898 124.032 498.898 124.149 L498.921 124.267 L498.781 124.946 L496.087 135.837 Q498.476 136.001 500.327 136.844 Q502.177 137.688 503.231 138.952 Q504.285 140.194 504.8 141.599 Q505.315 143.005 505.315 144.504 M494.565 136.891 Q491.988 137.126 489.81 138.39 Q487.632 139.655 486.226 141.529 Q484.821 143.379 484.048 145.604 Q483.275 147.806 483.275 149.984 Q483.275 151.694 483.837 153.006 Q484.423 154.318 485.383 155.067 Q486.343 155.793 487.397 156.191 Q488.475 156.566 489.622 156.613 L494.565 136.891 M502.177 143.496 Q502.177 140.451 500.42 138.742 Q498.664 137.032 495.806 136.891 L490.864 156.613 Q492.948 156.449 494.775 155.582 Q496.626 154.692 497.961 153.381 Q499.296 152.046 500.256 150.406 Q501.217 148.743 501.685 146.986 Q502.177 145.206 502.177 143.496 Z" fill="#000000" fill-rule="nonzero" fill-opacity="1" /></svg>
