<?xml version="1.0" encoding="utf-8"?>
<svg xmlns="http://www.w3.org/2000/svg" xmlns:xlink="http://www.w3.org/1999/xlink" width="600" height="400" viewBox="0 0 2400 1600">
<defs>
  <clipPath id="clip540">
    <rect x="0" y="0" width="2400" height="1600"/>
  </clipPath>
</defs>
<path clip-path="url(#clip540)" d="M0 1600 L2400 1600 L2400 0 L0 0  Z" fill="#ffffff" fill-rule="evenodd" fill-opacity="1"/>
<defs>
  <clipPath id="clip541">
    <rect x="480" y="0" width="1681" height="1600"/>
  </clipPath>
</defs>
<path clip-path="url(#clip540)" d="M200.651 1486.45 L2352.76 1486.45 L2352.76 47.2441 L200.651 47.2441  Z" fill="#ffffff" fill-rule="evenodd" fill-opacity="1"/>
<defs>
  <clipPath id="clip542">
    <rect x="200" y="47" width="2153" height="1440"/>
  </clipPath>
</defs>
<polyline clip-path="url(#clip542)" style="stroke:#000000; stroke-linecap:round; stroke-linejoin:round; stroke-width:2; stroke-opacity:0.1; fill:none" points="219.262,1486.45 219.262,47.2441 "/>
<polyline clip-path="url(#clip542)" style="stroke:#000000; stroke-linecap:round; stroke-linejoin:round; stroke-width:2; stroke-opacity:0.1; fill:none" points="642.238,1486.45 642.238,47.2441 "/>
<polyline clip-path="url(#clip542)" style="stroke:#000000; stroke-linecap:round; stroke-linejoin:round; stroke-width:2; stroke-opacity:0.1; fill:none" points="1065.22,1486.45 1065.22,47.2441 "/>
<polyline clip-path="url(#clip542)" style="stroke:#000000; stroke-linecap:round; stroke-linejoin:round; stroke-width:2; stroke-opacity:0.1; fill:none" points="1488.19,1486.45 1488.19,47.2441 "/>
<polyline clip-path="url(#clip542)" style="stroke:#000000; stroke-linecap:round; stroke-linejoin:round; stroke-width:2; stroke-opacity:0.1; fill:none" points="1911.17,1486.45 1911.17,47.2441 "/>
<polyline clip-path="url(#clip542)" style="stroke:#000000; stroke-linecap:round; stroke-linejoin:round; stroke-width:2; stroke-opacity:0.1; fill:none" points="2334.14,1486.45 2334.14,47.2441 "/>
<polyline clip-path="url(#clip540)" style="stroke:#000000; stroke-linecap:round; stroke-linejoin:round; stroke-width:4; stroke-opacity:1; fill:none" points="200.651,1486.45 2352.76,1486.45 "/>
<polyline clip-path="url(#clip540)" style="stroke:#000000; stroke-linecap:round; stroke-linejoin:round; stroke-width:4; stroke-opacity:1; fill:none" points="219.262,1486.45 219.262,1467.55 "/>
<polyline clip-path="url(#clip540)" style="stroke:#000000; stroke-linecap:round; stroke-linejoin:round; stroke-width:4; stroke-opacity:1; fill:none" points="642.238,1486.45 642.238,1467.55 "/>
<polyline clip-path="url(#clip540)" style="stroke:#000000; stroke-linecap:round; stroke-linejoin:round; stroke-width:4; stroke-opacity:1; fill:none" points="1065.22,1486.45 1065.22,1467.55 "/>
<polyline clip-path="url(#clip540)" style="stroke:#000000; stroke-linecap:round; stroke-linejoin:round; stroke-width:4; stroke-opacity:1; fill:none" points="1488.19,1486.45 1488.19,1467.55 "/>
<polyline clip-path="url(#clip540)" style="stroke:#000000; stroke-linecap:round; stroke-linejoin:round; stroke-width:4; stroke-opacity:1; fill:none" points="1911.17,1486.45 1911.17,1467.55 "/>
<polyline clip-path="url(#clip540)" style="stroke:#000000; stroke-linecap:round; stroke-linejoin:round; stroke-width:4; stroke-opacity:1; fill:none" points="2334.14,1486.45 2334.14,1467.55 "/>
<path clip-path="url(#clip540)" d="M208.615 1532.67 Q208.615 1525.23 210.492 1521.18 Q213.111 1515.15 219.286 1515.15 Q220.596 1515.15 221.954 1515.52 Q223.338 1515.87 225.067 1517.23 Q226.821 1518.59 227.883 1520.81 Q229.909 1525.11 229.909 1532.67 Q229.909 1540.05 228.031 1544.08 Q225.289 1549.96 219.237 1549.96 Q216.964 1549.96 214.642 1548.8 Q212.345 1547.64 210.887 1544.85 Q208.615 1540.67 208.615 1532.67 M212.814 1532.05 Q212.814 1539.68 213.358 1542.72 Q213.975 1546.01 215.655 1547.44 Q217.36 1548.85 219.237 1548.85 Q221.263 1548.85 222.943 1547.34 Q224.647 1545.81 225.166 1542.52 Q225.734 1539.29 225.709 1532.05 Q225.709 1525.01 225.215 1522.19 Q224.548 1518.91 222.77 1517.6 Q221.016 1516.26 219.237 1516.26 Q218.57 1516.26 217.854 1516.46 Q217.162 1516.66 216.149 1517.23 Q215.136 1517.8 214.346 1519.2 Q213.58 1520.61 213.209 1522.74 Q212.814 1525.48 212.814 1532.05 Z" fill="#000000" fill-rule="nonzero" fill-opacity="1" /><path clip-path="url(#clip540)" d="M620.203 1519.97 L620.203 1518.39 Q626.28 1518.39 629.417 1515.15 Q630.282 1515.15 630.43 1515.35 Q630.578 1515.55 630.578 1516.46 L630.578 1544.85 Q630.578 1546.35 631.319 1546.82 Q632.061 1547.29 635.297 1547.29 L636.902 1547.29 L636.902 1548.85 Q635.124 1548.7 628.701 1548.7 Q622.278 1548.7 620.524 1548.85 L620.524 1547.29 L622.13 1547.29 Q625.317 1547.29 626.082 1546.85 Q626.848 1546.38 626.848 1544.85 L626.848 1518.64 Q624.205 1519.97 620.203 1519.97 Z" fill="#000000" fill-rule="nonzero" fill-opacity="1" /><path clip-path="url(#clip540)" d="M642.979 1532.67 Q642.979 1525.23 644.857 1521.18 Q647.475 1515.15 653.651 1515.15 Q654.961 1515.15 656.319 1515.52 Q657.703 1515.87 659.432 1517.23 Q661.186 1518.59 662.248 1520.81 Q664.274 1525.11 664.274 1532.67 Q664.274 1540.05 662.396 1544.08 Q659.654 1549.96 653.602 1549.96 Q651.329 1549.96 649.007 1548.8 Q646.71 1547.64 645.252 1544.85 Q642.979 1540.67 642.979 1532.67 M647.179 1532.05 Q647.179 1539.68 647.723 1542.72 Q648.34 1546.01 650.02 1547.44 Q651.724 1548.85 653.602 1548.85 Q655.628 1548.85 657.307 1547.34 Q659.012 1545.81 659.531 1542.52 Q660.099 1539.29 660.074 1532.05 Q660.074 1525.01 659.58 1522.19 Q658.913 1518.91 657.134 1517.6 Q655.381 1516.26 653.602 1516.26 Q652.935 1516.26 652.219 1516.46 Q651.527 1516.66 650.514 1517.23 Q649.501 1517.8 648.711 1519.2 Q647.945 1520.61 647.574 1522.74 Q647.179 1525.48 647.179 1532.05 Z" fill="#000000" fill-rule="nonzero" fill-opacity="1" /><path clip-path="url(#clip540)" d="M1042.19 1548.85 Q1042.19 1547.93 1042.27 1547.66 Q1042.36 1547.39 1042.76 1546.97 L1052.47 1536.15 Q1057.78 1530.17 1057.78 1524.96 Q1057.78 1521.58 1056 1519.15 Q1054.25 1516.73 1051.01 1516.73 Q1048.79 1516.73 1046.91 1518.09 Q1045.03 1519.45 1044.17 1521.87 Q1044.32 1521.82 1044.83 1521.82 Q1046.09 1521.82 1046.79 1522.61 Q1047.5 1523.4 1047.5 1524.47 Q1047.5 1525.82 1046.61 1526.49 Q1045.75 1527.13 1044.88 1527.13 Q1044.54 1527.13 1044.07 1527.06 Q1043.62 1526.99 1042.91 1526.29 Q1042.19 1525.58 1042.19 1524.32 Q1042.19 1520.78 1044.86 1517.97 Q1047.55 1515.15 1051.65 1515.15 Q1056.3 1515.15 1059.34 1517.92 Q1062.4 1520.66 1062.4 1524.96 Q1062.4 1526.47 1061.93 1527.85 Q1061.48 1529.21 1060.87 1530.27 Q1060.27 1531.33 1058.64 1533.04 Q1057.01 1534.74 1055.7 1535.95 Q1054.39 1537.16 1051.46 1539.73 L1046.09 1544.94 L1055.21 1544.94 Q1059.66 1544.94 1060 1544.55 Q1060.5 1543.83 1061.11 1540.05 L1062.4 1540.05 L1060.97 1548.85 L1042.19 1548.85 Z" fill="#000000" fill-rule="nonzero" fill-opacity="1" /><path clip-path="url(#clip540)" d="M1066.94 1532.67 Q1066.94 1525.23 1068.82 1521.18 Q1071.44 1515.15 1077.62 1515.15 Q1078.93 1515.15 1080.28 1515.52 Q1081.67 1515.87 1083.4 1517.23 Q1085.15 1518.59 1086.21 1520.81 Q1088.24 1525.11 1088.24 1532.67 Q1088.24 1540.05 1086.36 1544.08 Q1083.62 1549.96 1077.57 1549.96 Q1075.29 1549.96 1072.97 1548.8 Q1070.67 1547.64 1069.22 1544.85 Q1066.94 1540.67 1066.94 1532.67 M1071.14 1532.05 Q1071.14 1539.68 1071.69 1542.72 Q1072.3 1546.01 1073.98 1547.44 Q1075.69 1548.85 1077.57 1548.85 Q1079.59 1548.85 1081.27 1547.34 Q1082.98 1545.81 1083.5 1542.52 Q1084.06 1539.29 1084.04 1532.05 Q1084.04 1525.01 1083.54 1522.19 Q1082.88 1518.91 1081.1 1517.6 Q1079.35 1516.26 1077.57 1516.26 Q1076.9 1516.26 1076.18 1516.46 Q1075.49 1516.66 1074.48 1517.23 Q1073.47 1517.8 1072.68 1519.2 Q1071.91 1520.61 1071.54 1522.74 Q1071.14 1525.48 1071.14 1532.05 Z" fill="#000000" fill-rule="nonzero" fill-opacity="1" /><path clip-path="url(#clip540)" d="M1464.97 1542.03 Q1464.97 1540.52 1465.84 1539.81 Q1466.7 1539.09 1467.81 1539.09 Q1468.97 1539.09 1469.79 1539.86 Q1470.63 1540.6 1470.63 1541.91 Q1470.63 1543.31 1469.64 1544.1 Q1468.68 1544.9 1467.29 1544.7 Q1468.5 1546.72 1470.73 1547.64 Q1472.97 1548.55 1475.05 1548.55 Q1477.22 1548.55 1478.98 1546.67 Q1480.76 1544.8 1480.76 1540.2 Q1480.76 1536.3 1479.22 1534.05 Q1477.72 1531.8 1474.73 1531.8 L1472.51 1531.8 Q1471.74 1531.8 1471.52 1531.73 Q1471.29 1531.65 1471.29 1531.23 Q1471.29 1530.74 1472.06 1530.64 Q1472.83 1530.64 1474.04 1530.49 Q1476.98 1530.39 1478.53 1527.85 Q1479.94 1525.48 1479.94 1522.09 Q1479.94 1519.01 1478.46 1517.72 Q1477 1516.41 1475.1 1516.41 Q1473.32 1516.41 1471.37 1517.15 Q1469.42 1517.89 1468.35 1519.55 Q1471.49 1519.55 1471.49 1522.09 Q1471.49 1523.21 1470.78 1523.95 Q1470.08 1524.66 1468.92 1524.66 Q1467.81 1524.66 1467.07 1523.97 Q1466.33 1523.26 1466.33 1522.04 Q1466.33 1519.15 1468.9 1517.15 Q1471.49 1515.15 1475.3 1515.15 Q1479.05 1515.15 1481.82 1517.13 Q1484.61 1519.11 1484.61 1522.14 Q1484.61 1525.13 1482.63 1527.58 Q1480.66 1530.02 1477.52 1531.04 Q1481.37 1531.8 1483.67 1534.42 Q1485.97 1537.01 1485.97 1540.2 Q1485.97 1544.15 1482.86 1547.07 Q1479.74 1549.96 1475.2 1549.96 Q1471 1549.96 1467.98 1547.69 Q1464.97 1545.41 1464.97 1542.03 Z" fill="#000000" fill-rule="nonzero" fill-opacity="1" /><path clip-path="url(#clip540)" d="M1490.12 1532.67 Q1490.12 1525.23 1492 1521.18 Q1494.61 1515.15 1500.79 1515.15 Q1502.1 1515.15 1503.46 1515.52 Q1504.84 1515.87 1506.57 1517.23 Q1508.32 1518.59 1509.39 1520.81 Q1511.41 1525.11 1511.41 1532.67 Q1511.41 1540.05 1509.54 1544.08 Q1506.79 1549.96 1500.74 1549.96 Q1498.47 1549.96 1496.15 1548.8 Q1493.85 1547.64 1492.39 1544.85 Q1490.12 1540.67 1490.12 1532.67 M1494.32 1532.05 Q1494.32 1539.68 1494.86 1542.72 Q1495.48 1546.01 1497.16 1547.44 Q1498.86 1548.85 1500.74 1548.85 Q1502.77 1548.85 1504.45 1547.34 Q1506.15 1545.81 1506.67 1542.52 Q1507.24 1539.29 1507.21 1532.05 Q1507.21 1525.01 1506.72 1522.19 Q1506.05 1518.91 1504.27 1517.6 Q1502.52 1516.26 1500.74 1516.26 Q1500.07 1516.26 1499.36 1516.46 Q1498.67 1516.66 1497.65 1517.23 Q1496.64 1517.8 1495.85 1519.2 Q1495.08 1520.61 1494.71 1522.74 Q1494.32 1525.48 1494.32 1532.05 Z" fill="#000000" fill-rule="nonzero" fill-opacity="1" /><path clip-path="url(#clip540)" d="M1887.59 1540.5 L1887.59 1538.94 L1903.13 1515.2 Q1903.52 1514.58 1904.14 1514.61 Q1904.71 1514.61 1904.83 1514.83 Q1904.96 1515.05 1904.96 1515.92 L1904.96 1538.94 L1910.02 1538.94 L1910.02 1540.5 L1904.96 1540.5 L1904.96 1544.9 Q1904.96 1546.35 1905.55 1546.82 Q1906.17 1547.29 1908.78 1547.29 L1909.85 1547.29 L1909.85 1548.85 Q1907.77 1548.7 1902.98 1548.7 Q1898.21 1548.7 1896.14 1548.85 L1896.14 1547.29 L1897.2 1547.29 Q1899.82 1547.29 1900.43 1546.85 Q1901.05 1546.38 1901.05 1544.9 L1901.05 1540.5 L1887.59 1540.5 M1889.02 1538.94 L1901.35 1538.94 L1901.35 1520.07 L1889.02 1538.94 Z" fill="#000000" fill-rule="nonzero" fill-opacity="1" /><path clip-path="url(#clip540)" d="M1913.45 1532.67 Q1913.45 1525.23 1915.33 1521.18 Q1917.95 1515.15 1924.13 1515.15 Q1925.43 1515.15 1926.79 1515.52 Q1928.18 1515.87 1929.91 1517.23 Q1931.66 1518.59 1932.72 1520.81 Q1934.75 1525.11 1934.75 1532.67 Q1934.75 1540.05 1932.87 1544.08 Q1930.13 1549.96 1924.08 1549.96 Q1921.8 1549.96 1919.48 1548.8 Q1917.18 1547.64 1915.73 1544.85 Q1913.45 1540.67 1913.45 1532.67 M1917.65 1532.05 Q1917.65 1539.68 1918.2 1542.72 Q1918.81 1546.01 1920.49 1547.44 Q1922.2 1548.85 1924.08 1548.85 Q1926.1 1548.85 1927.78 1547.34 Q1929.49 1545.81 1930 1542.52 Q1930.57 1539.29 1930.55 1532.05 Q1930.55 1525.01 1930.05 1522.19 Q1929.39 1518.91 1927.61 1517.6 Q1925.85 1516.26 1924.08 1516.26 Q1923.41 1516.26 1922.69 1516.46 Q1922 1516.66 1920.99 1517.23 Q1919.98 1517.8 1919.18 1519.2 Q1918.42 1520.61 1918.05 1522.74 Q1917.65 1525.48 1917.65 1532.05 Z" fill="#000000" fill-rule="nonzero" fill-opacity="1" /><path clip-path="url(#clip540)" d="M2311.12 1540.7 Q2311.12 1539.19 2311.94 1538.62 Q2312.75 1538.03 2313.62 1538.03 Q2314.78 1538.03 2315.44 1538.77 Q2316.14 1539.49 2316.14 1540.5 Q2316.14 1541.51 2315.44 1542.25 Q2314.78 1542.97 2313.62 1542.97 Q2313.05 1542.97 2312.75 1542.87 Q2313.42 1545.19 2315.44 1546.87 Q2317.49 1548.55 2320.19 1548.55 Q2323.57 1548.55 2325.6 1545.27 Q2326.81 1543.14 2326.81 1538.32 Q2326.81 1534.08 2325.89 1531.95 Q2324.49 1528.71 2321.6 1528.71 Q2317.49 1528.71 2315.07 1532.25 Q2314.78 1532.69 2314.43 1532.72 Q2313.94 1532.72 2313.81 1532.44 Q2313.72 1532.15 2313.72 1531.38 L2313.72 1516.41 Q2313.72 1515.2 2314.21 1515.2 Q2314.41 1515.2 2314.83 1515.35 Q2318.01 1516.76 2321.55 1516.78 Q2325.18 1516.78 2328.44 1515.3 Q2328.69 1515.15 2328.83 1515.15 Q2329.33 1515.15 2329.35 1515.72 Q2329.35 1515.92 2328.93 1516.51 Q2328.54 1517.08 2327.67 1517.85 Q2326.81 1518.59 2325.7 1519.3 Q2324.58 1520.02 2322.95 1520.51 Q2321.35 1520.98 2319.57 1520.98 Q2317.45 1520.98 2315.27 1520.32 L2315.27 1530.17 Q2317.89 1527.6 2321.69 1527.6 Q2325.75 1527.6 2328.54 1530.86 Q2331.33 1534.12 2331.33 1538.67 Q2331.33 1543.44 2328.02 1546.7 Q2324.73 1549.96 2320.29 1549.96 Q2316.23 1549.96 2313.67 1547.07 Q2311.12 1544.18 2311.12 1540.7 Z" fill="#000000" fill-rule="nonzero" fill-opacity="1" /><path clip-path="url(#clip540)" d="M2335.87 1532.67 Q2335.87 1525.23 2337.75 1521.18 Q2340.37 1515.15 2346.55 1515.15 Q2347.86 1515.15 2349.21 1515.52 Q2350.6 1515.87 2352.33 1517.23 Q2354.08 1518.59 2355.14 1520.81 Q2357.17 1525.11 2357.17 1532.67 Q2357.17 1540.05 2355.29 1544.08 Q2352.55 1549.96 2346.5 1549.96 Q2344.22 1549.96 2341.9 1548.8 Q2339.6 1547.64 2338.15 1544.85 Q2335.87 1540.67 2335.87 1532.67 M2340.07 1532.05 Q2340.07 1539.68 2340.62 1542.72 Q2341.23 1546.01 2342.91 1547.44 Q2344.62 1548.85 2346.5 1548.85 Q2348.52 1548.85 2350.2 1547.34 Q2351.91 1545.81 2352.43 1542.52 Q2352.99 1539.29 2352.97 1532.05 Q2352.97 1525.01 2352.47 1522.19 Q2351.81 1518.91 2350.03 1517.6 Q2348.28 1516.26 2346.5 1516.26 Q2345.83 1516.26 2345.11 1516.46 Q2344.42 1516.66 2343.41 1517.23 Q2342.4 1517.8 2341.61 1519.2 Q2340.84 1520.61 2340.47 1522.74 Q2340.07 1525.48 2340.07 1532.05 Z" fill="#000000" fill-rule="nonzero" fill-opacity="1" /><polyline clip-path="url(#clip542)" style="stroke:#000000; stroke-linecap:round; stroke-linejoin:round; stroke-width:2; stroke-opacity:0.1; fill:none" points="200.651,1271.53 2352.76,1271.53 "/>
<polyline clip-path="url(#clip542)" style="stroke:#000000; stroke-linecap:round; stroke-linejoin:round; stroke-width:2; stroke-opacity:0.1; fill:none" points="200.651,1025.33 2352.76,1025.33 "/>
<polyline clip-path="url(#clip542)" style="stroke:#000000; stroke-linecap:round; stroke-linejoin:round; stroke-width:2; stroke-opacity:0.1; fill:none" points="200.651,779.123 2352.76,779.123 "/>
<polyline clip-path="url(#clip542)" style="stroke:#000000; stroke-linecap:round; stroke-linejoin:round; stroke-width:2; stroke-opacity:0.1; fill:none" points="200.651,532.92 2352.76,532.92 "/>
<polyline clip-path="url(#clip542)" style="stroke:#000000; stroke-linecap:round; stroke-linejoin:round; stroke-width:2; stroke-opacity:0.1; fill:none" points="200.651,286.718 2352.76,286.718 "/>
<polyline clip-path="url(#clip540)" style="stroke:#000000; stroke-linecap:round; stroke-linejoin:round; stroke-width:4; stroke-opacity:1; fill:none" points="200.651,1486.45 200.651,47.2441 "/>
<polyline clip-path="url(#clip540)" style="stroke:#000000; stroke-linecap:round; stroke-linejoin:round; stroke-width:4; stroke-opacity:1; fill:none" points="200.651,1271.53 219.548,1271.53 "/>
<polyline clip-path="url(#clip540)" style="stroke:#000000; stroke-linecap:round; stroke-linejoin:round; stroke-width:4; stroke-opacity:1; fill:none" points="200.651,1025.33 219.548,1025.33 "/>
<polyline clip-path="url(#clip540)" style="stroke:#000000; stroke-linecap:round; stroke-linejoin:round; stroke-width:4; stroke-opacity:1; fill:none" points="200.651,779.123 219.548,779.123 "/>
<polyline clip-path="url(#clip540)" style="stroke:#000000; stroke-linecap:round; stroke-linejoin:round; stroke-width:4; stroke-opacity:1; fill:none" points="200.651,532.92 219.548,532.92 "/>
<polyline clip-path="url(#clip540)" style="stroke:#000000; stroke-linecap:round; stroke-linejoin:round; stroke-width:4; stroke-opacity:1; fill:none" points="200.651,286.718 219.548,286.718 "/>
<path clip-path="url(#clip540)" d="M50.9921 1266.38 L50.9921 1264.8 Q57.0692 1264.8 60.2065 1261.56 Q61.0711 1261.56 61.2193 1261.76 Q61.3675 1261.96 61.3675 1262.87 L61.3675 1291.25 Q61.3675 1292.76 62.1086 1293.23 Q62.8497 1293.7 66.0859 1293.7 L67.6916 1293.7 L67.6916 1295.26 Q65.913 1295.11 59.4901 1295.11 Q53.0672 1295.11 51.3133 1295.26 L51.3133 1293.7 L52.919 1293.7 Q56.1057 1293.7 56.8715 1293.25 Q57.6373 1292.78 57.6373 1291.25 L57.6373 1265.04 Q54.9941 1266.38 50.9921 1266.38 Z" fill="#000000" fill-rule="nonzero" fill-opacity="1" /><path clip-path="url(#clip540)" d="M73.7686 1279.07 Q73.7686 1271.64 75.6461 1267.59 Q78.2646 1261.56 84.4405 1261.56 Q85.7498 1261.56 87.1084 1261.93 Q88.4918 1262.28 90.2211 1263.63 Q91.975 1264.99 93.0372 1267.22 Q95.0629 1271.52 95.0629 1279.07 Q95.0629 1286.46 93.1855 1290.49 Q90.4434 1296.37 84.3911 1296.37 Q82.1184 1296.37 79.7962 1295.21 Q77.4988 1294.04 76.0413 1291.25 Q73.7686 1287.08 73.7686 1279.07 M77.9682 1278.46 Q77.9682 1286.09 78.5117 1289.13 Q79.1293 1292.41 80.8091 1293.85 Q82.5136 1295.26 84.3911 1295.26 Q86.4167 1295.26 88.0966 1293.75 Q89.8011 1292.22 90.3199 1288.93 Q90.8881 1285.69 90.8633 1278.46 Q90.8633 1271.42 90.3693 1268.6 Q89.7023 1265.31 87.9236 1264.01 Q86.1697 1262.67 84.3911 1262.67 Q83.7241 1262.67 83.0077 1262.87 Q82.316 1263.07 81.3031 1263.63 Q80.2903 1264.2 79.4998 1265.61 Q78.734 1267.02 78.3634 1269.14 Q77.9682 1271.89 77.9682 1278.46 Z" fill="#000000" fill-rule="nonzero" fill-opacity="1" /><path clip-path="url(#clip540)" d="M122.2 1256.99 Q122.44 1257.23 122.44 1257.57 Q122.44 1257.91 122.2 1258.15 Q121.959 1258.39 121.617 1258.39 L95.8859 1258.39 Q95.5446 1258.39 95.3038 1258.15 Q95.0629 1257.91 95.0629 1257.57 Q95.0629 1257.23 95.3038 1256.99 Q95.5446 1256.75 95.8859 1256.75 L121.617 1256.75 Q121.959 1256.75 122.2 1256.99 Z" fill="#000000" fill-rule="nonzero" fill-opacity="1" /><path clip-path="url(#clip540)" d="M128.382 1244.38 L128.382 1243.1 Q133.319 1243.1 135.868 1240.47 Q136.571 1240.47 136.691 1240.63 Q136.812 1240.79 136.812 1241.53 L136.812 1264.59 Q136.812 1265.82 137.414 1266.2 Q138.016 1266.58 140.645 1266.58 L141.95 1266.58 L141.95 1267.84 Q140.505 1267.72 135.286 1267.72 Q130.068 1267.72 128.643 1267.84 L128.643 1266.58 L129.947 1266.58 Q132.536 1266.58 133.159 1266.22 Q133.781 1265.84 133.781 1264.59 L133.781 1243.3 Q131.633 1244.38 128.382 1244.38 Z" fill="#000000" fill-rule="nonzero" fill-opacity="1" /><path clip-path="url(#clip540)" d="M146.426 1261.06 L146.426 1259.8 L159.051 1240.51 Q159.372 1240.01 159.874 1240.03 Q160.335 1240.03 160.436 1240.21 Q160.536 1240.39 160.536 1241.09 L160.536 1259.8 L164.651 1259.8 L164.651 1261.06 L160.536 1261.06 L160.536 1264.63 Q160.536 1265.82 161.018 1266.2 Q161.52 1266.58 163.647 1266.58 L164.51 1266.58 L164.51 1267.84 Q162.824 1267.72 158.93 1267.72 Q155.057 1267.72 153.371 1267.84 L153.371 1266.58 L154.234 1266.58 Q156.361 1266.58 156.863 1266.22 Q157.365 1265.84 157.365 1264.63 L157.365 1261.06 L146.426 1261.06 M147.59 1259.8 L157.606 1259.8 L157.606 1244.46 L147.59 1259.8 Z" fill="#000000" fill-rule="nonzero" fill-opacity="1" /><path clip-path="url(#clip540)" d="M51.8953 1020.17 L51.8953 1018.59 Q57.9724 1018.59 61.1097 1015.36 Q61.9743 1015.36 62.1225 1015.55 Q62.2708 1015.75 62.2708 1016.67 L62.2708 1045.05 Q62.2708 1046.56 63.0119 1047.03 Q63.753 1047.5 66.9891 1047.5 L68.5948 1047.5 L68.5948 1049.05 Q66.8162 1048.9 60.3933 1048.9 Q53.9704 1048.9 52.2165 1049.05 L52.2165 1047.5 L53.8222 1047.5 Q57.0089 1047.5 57.7747 1047.05 Q58.5405 1046.58 58.5405 1045.05 L58.5405 1018.84 Q55.8973 1020.17 51.8953 1020.17 Z" fill="#000000" fill-rule="nonzero" fill-opacity="1" /><path clip-path="url(#clip540)" d="M74.6718 1032.87 Q74.6718 1025.44 76.5493 1021.38 Q79.1679 1015.36 85.3437 1015.36 Q86.653 1015.36 88.0117 1015.73 Q89.395 1016.07 91.1243 1017.43 Q92.8782 1018.79 93.9405 1021.01 Q95.9661 1025.31 95.9661 1032.87 Q95.9661 1040.26 94.0887 1044.28 Q91.3466 1050.16 85.2943 1050.16 Q83.0216 1050.16 80.6995 1049 Q78.402 1047.84 76.9445 1045.05 Q74.6718 1040.88 74.6718 1032.87 M78.8714 1032.25 Q78.8714 1039.89 79.4149 1042.93 Q80.0325 1046.21 81.7123 1047.64 Q83.4168 1049.05 85.2943 1049.05 Q87.32 1049.05 88.9998 1047.55 Q90.7043 1046.01 91.2231 1042.73 Q91.7913 1039.49 91.7666 1032.25 Q91.7666 1025.21 91.2725 1022.4 Q90.6055 1019.11 88.8269 1017.8 Q87.0729 1016.47 85.2943 1016.47 Q84.6273 1016.47 83.9109 1016.67 Q83.2192 1016.86 82.2064 1017.43 Q81.1935 1018 80.403 1019.41 Q79.6372 1020.82 79.2667 1022.94 Q78.8714 1025.68 78.8714 1032.25 Z" fill="#000000" fill-rule="nonzero" fill-opacity="1" /><path clip-path="url(#clip540)" d="M123.103 1010.78 Q123.344 1011.02 123.344 1011.37 Q123.344 1011.71 123.103 1011.95 Q122.862 1012.19 122.521 1012.19 L96.7891 1012.19 Q96.4479 1012.19 96.207 1011.95 Q95.9661 1011.71 95.9661 1011.37 Q95.9661 1011.02 96.207 1010.78 Q96.4479 1010.54 96.7891 1010.54 L122.521 1010.54 Q122.862 1010.54 123.103 1010.78 Z" fill="#000000" fill-rule="nonzero" fill-opacity="1" /><path clip-path="url(#clip540)" d="M129.285 998.179 L129.285 996.894 Q134.222 996.894 136.771 994.265 Q137.474 994.265 137.594 994.425 Q137.715 994.586 137.715 995.329 L137.715 1018.39 Q137.715 1019.62 138.317 1020 Q138.919 1020.38 141.548 1020.38 L142.853 1020.38 L142.853 1021.64 Q141.408 1021.52 136.189 1021.52 Q130.971 1021.52 129.546 1021.64 L129.546 1020.38 L130.85 1020.38 Q133.44 1020.38 134.062 1020.02 Q134.684 1019.64 134.684 1018.39 L134.684 997.095 Q132.536 998.179 129.285 998.179 Z" fill="#000000" fill-rule="nonzero" fill-opacity="1" /><path clip-path="url(#clip540)" d="M148.232 1021.64 Q148.232 1020.9 148.292 1020.68 Q148.373 1020.46 148.694 1020.12 L156.582 1011.33 Q160.897 1006.47 160.897 1002.23 Q160.897 999.483 159.452 997.516 Q158.027 995.549 155.398 995.549 Q153.591 995.549 152.066 996.653 Q150.54 997.757 149.838 999.724 Q149.958 999.684 150.38 999.684 Q151.404 999.684 151.966 1000.33 Q152.548 1000.97 152.548 1001.83 Q152.548 1002.94 151.825 1003.48 Q151.123 1004 150.42 1004 Q150.139 1004 149.758 1003.94 Q149.396 1003.88 148.814 1003.32 Q148.232 1002.73 148.232 1001.71 Q148.232 998.841 150.4 996.553 Q152.588 994.265 155.92 994.265 Q159.693 994.265 162.162 996.513 Q164.651 998.741 164.651 1002.23 Q164.651 1003.46 164.269 1004.58 Q163.908 1005.69 163.406 1006.55 Q162.925 1007.41 161.6 1008.8 Q160.275 1010.18 159.211 1011.17 Q158.148 1012.15 155.759 1014.24 L151.404 1018.47 L158.81 1018.47 Q162.423 1018.47 162.704 1018.15 Q163.105 1017.57 163.607 1014.5 L164.651 1014.5 L163.487 1021.64 L148.232 1021.64 Z" fill="#000000" fill-rule="nonzero" fill-opacity="1" /><path clip-path="url(#clip540)" d="M51.4538 773.972 L51.4538 772.391 Q57.5308 772.391 60.6681 769.155 Q61.5327 769.155 61.681 769.353 Q61.8292 769.55 61.8292 770.464 L61.8292 798.848 Q61.8292 800.355 62.5703 800.825 Q63.3114 801.294 66.5475 801.294 L68.1532 801.294 L68.1532 802.85 Q66.3746 802.702 59.9517 802.702 Q53.5289 802.702 51.7749 802.85 L51.7749 801.294 L53.3806 801.294 Q56.5674 801.294 57.3332 800.849 Q58.099 800.38 58.099 798.848 L58.099 772.638 Q55.4557 773.972 51.4538 773.972 Z" fill="#000000" fill-rule="nonzero" fill-opacity="1" /><path clip-path="url(#clip540)" d="M74.2303 786.67 Q74.2303 779.234 76.1077 775.183 Q78.7263 769.155 84.9021 769.155 Q86.2114 769.155 87.5701 769.525 Q88.9535 769.871 90.6827 771.23 Q92.4366 772.589 93.4989 774.812 Q95.5246 779.11 95.5246 786.67 Q95.5246 794.056 93.6471 798.083 Q90.905 803.962 84.8527 803.962 Q82.58 803.962 80.2579 802.801 Q77.9605 801.64 76.503 798.848 Q74.2303 794.673 74.2303 786.67 M78.4298 786.052 Q78.4298 793.685 78.9733 796.724 Q79.5909 800.009 81.2707 801.442 Q82.9753 802.85 84.8527 802.85 Q86.8784 802.85 88.5582 801.343 Q90.2627 799.812 90.7815 796.526 Q91.3497 793.29 91.325 786.052 Q91.325 779.012 90.8309 776.195 Q90.1639 772.91 88.3853 771.601 Q86.6314 770.267 84.8527 770.267 Q84.1857 770.267 83.4693 770.464 Q82.7776 770.662 81.7648 771.23 Q80.752 771.798 79.9614 773.206 Q79.1956 774.614 78.8251 776.739 Q78.4298 779.481 78.4298 786.052 Z" fill="#000000" fill-rule="nonzero" fill-opacity="1" /><path clip-path="url(#clip540)" d="M122.661 764.581 Q122.902 764.822 122.902 765.163 Q122.902 765.504 122.661 765.745 Q122.42 765.986 122.079 765.986 L96.3475 765.986 Q96.0063 765.986 95.7654 765.745 Q95.5246 765.504 95.5246 765.163 Q95.5246 764.822 95.7654 764.581 Q96.0063 764.34 96.3475 764.34 L122.079 764.34 Q122.42 764.34 122.661 764.581 Z" fill="#000000" fill-rule="nonzero" fill-opacity="1" /><path clip-path="url(#clip540)" d="M128.843 751.976 L128.843 750.692 Q133.781 750.692 136.33 748.062 Q137.032 748.062 137.153 748.223 Q137.273 748.384 137.273 749.126 L137.273 772.188 Q137.273 773.413 137.875 773.794 Q138.478 774.175 141.107 774.175 L142.412 774.175 L142.412 775.44 Q140.966 775.319 135.748 775.319 Q130.529 775.319 129.104 775.44 L129.104 774.175 L130.409 774.175 Q132.998 774.175 133.62 773.814 Q134.242 773.433 134.242 772.188 L134.242 750.892 Q132.095 751.976 128.843 751.976 Z" fill="#000000" fill-rule="nonzero" fill-opacity="1" /><path clip-path="url(#clip540)" d="M147.349 762.293 Q147.349 756.252 148.875 752.96 Q151.002 748.062 156.02 748.062 Q157.084 748.062 158.188 748.363 Q159.312 748.644 160.717 749.748 Q162.142 750.852 163.005 752.659 Q164.651 756.151 164.651 762.293 Q164.651 768.294 163.125 771.566 Q160.897 776.343 155.98 776.343 Q154.133 776.343 152.247 775.4 Q150.38 774.456 149.196 772.188 Q147.349 768.796 147.349 762.293 M150.761 761.791 Q150.761 767.993 151.203 770.462 Q151.705 773.132 153.069 774.296 Q154.454 775.44 155.98 775.44 Q157.626 775.44 158.991 774.216 Q160.376 772.971 160.797 770.302 Q161.259 767.672 161.239 761.791 Q161.239 756.071 160.837 753.783 Q160.295 751.113 158.85 750.049 Q157.425 748.966 155.98 748.966 Q155.438 748.966 154.856 749.126 Q154.294 749.287 153.471 749.748 Q152.648 750.21 152.006 751.354 Q151.383 752.498 151.082 754.224 Q150.761 756.452 150.761 761.791 Z" fill="#000000" fill-rule="nonzero" fill-opacity="1" /><path clip-path="url(#clip540)" d="M72.1274 527.77 L72.1274 526.189 Q78.2044 526.189 81.3417 522.952 Q82.2064 522.952 82.3546 523.15 Q82.5028 523.348 82.5028 524.262 L82.5028 552.646 Q82.5028 554.153 83.2439 554.622 Q83.985 555.092 87.2211 555.092 L88.8269 555.092 L88.8269 556.648 Q87.0482 556.5 80.6253 556.5 Q74.2025 556.5 72.4485 556.648 L72.4485 555.092 L74.0543 555.092 Q77.241 555.092 78.0068 554.647 Q78.7726 554.177 78.7726 552.646 L78.7726 526.436 Q76.1293 527.77 72.1274 527.77 Z" fill="#000000" fill-rule="nonzero" fill-opacity="1" /><path clip-path="url(#clip540)" d="M94.9039 540.467 Q94.9039 533.031 96.7813 528.98 Q99.3999 522.952 105.576 522.952 Q106.885 522.952 108.244 523.323 Q109.627 523.669 111.356 525.028 Q113.11 526.386 114.173 528.61 Q116.198 532.908 116.198 540.467 Q116.198 547.853 114.321 551.88 Q111.579 557.759 105.526 557.759 Q103.254 557.759 100.932 556.598 Q98.6341 555.437 97.1766 552.646 Q94.9039 548.471 94.9039 540.467 M99.1035 539.85 Q99.1035 547.483 99.6469 550.521 Q100.265 553.807 101.944 555.24 Q103.649 556.648 105.526 556.648 Q107.552 556.648 109.232 555.141 Q110.936 553.609 111.455 550.324 Q112.023 547.088 111.999 539.85 Q111.999 532.809 111.505 529.993 Q110.838 526.707 109.059 525.398 Q107.305 524.064 105.526 524.064 Q104.859 524.064 104.143 524.262 Q103.451 524.459 102.438 525.028 Q101.426 525.596 100.635 527.004 Q99.8693 528.412 99.4987 530.536 Q99.1035 533.278 99.1035 539.85 Z" fill="#000000" fill-rule="nonzero" fill-opacity="1" /><path clip-path="url(#clip540)" d="M143.335 518.379 Q143.576 518.62 143.576 518.961 Q143.576 519.302 143.335 519.543 Q143.094 519.784 142.753 519.784 L117.021 519.784 Q116.68 519.784 116.439 519.543 Q116.198 519.302 116.198 518.961 Q116.198 518.62 116.439 518.379 Q116.68 518.138 117.021 518.138 L142.753 518.138 Q143.094 518.138 143.335 518.379 Z" fill="#000000" fill-rule="nonzero" fill-opacity="1" /><path clip-path="url(#clip540)" d="M147.59 523.035 Q147.59 518.439 153.511 515.468 Q150.962 513.742 150.5 513.24 Q148.694 511.233 148.694 508.724 Q148.694 505.854 150.862 503.867 Q153.049 501.86 156.14 501.86 Q159.091 501.86 161.319 503.566 Q163.547 505.272 163.547 507.982 Q163.547 511.795 158.569 514.364 Q161.861 516.412 162.644 517.275 Q164.651 519.503 164.651 522.333 Q164.651 525.625 162.122 527.893 Q159.593 530.141 156.1 530.141 Q152.688 530.141 150.139 528.154 Q147.59 526.166 147.59 523.035 M149.637 523.035 Q149.637 525.584 151.544 527.29 Q153.471 528.997 156.14 528.997 Q158.73 528.997 160.657 527.511 Q162.603 526.026 162.603 523.818 Q162.603 522.955 162.302 522.212 Q162.021 521.47 161.439 520.888 Q160.877 520.286 160.516 520.025 Q160.175 519.744 159.512 519.282 L154.454 516.091 Q149.637 518.76 149.637 523.035 M150.5 507.119 Q150.5 509.086 152.568 510.451 L157.666 513.742 Q161.74 511.354 161.74 507.982 Q161.74 505.794 160.074 504.349 Q158.409 502.884 156.1 502.884 Q153.832 502.884 152.166 504.088 Q150.5 505.272 150.5 507.119 Z" fill="#000000" fill-rule="nonzero" fill-opacity="1" /><path clip-path="url(#clip540)" d="M72.1274 281.567 L72.1274 279.986 Q78.2044 279.986 81.3417 276.75 Q82.2064 276.75 82.3546 276.948 Q82.5028 277.145 82.5028 278.059 L82.5028 306.443 Q82.5028 307.95 83.2439 308.42 Q83.985 308.889 87.2211 308.889 L88.8269 308.889 L88.8269 310.445 Q87.0482 310.297 80.6253 310.297 Q74.2025 310.297 72.4485 310.445 L72.4485 308.889 L74.0543 308.889 Q77.241 308.889 78.0068 308.444 Q78.7726 307.975 78.7726 306.443 L78.7726 280.233 Q76.1293 281.567 72.1274 281.567 Z" fill="#000000" fill-rule="nonzero" fill-opacity="1" /><path clip-path="url(#clip540)" d="M94.9039 294.265 Q94.9039 286.829 96.7813 282.778 Q99.3999 276.75 105.576 276.75 Q106.885 276.75 108.244 277.121 Q109.627 277.466 111.356 278.825 Q113.11 280.184 114.173 282.407 Q116.198 286.705 116.198 294.265 Q116.198 301.651 114.321 305.678 Q111.579 311.557 105.526 311.557 Q103.254 311.557 100.932 310.396 Q98.6341 309.235 97.1766 306.443 Q94.9039 302.269 94.9039 294.265 M99.1035 293.647 Q99.1035 301.28 99.6469 304.319 Q100.265 307.604 101.944 309.037 Q103.649 310.445 105.526 310.445 Q107.552 310.445 109.232 308.938 Q110.936 307.407 111.455 304.121 Q112.023 300.885 111.999 293.647 Q111.999 286.607 111.505 283.79 Q110.838 280.505 109.059 279.196 Q107.305 277.862 105.526 277.862 Q104.859 277.862 104.143 278.059 Q103.451 278.257 102.438 278.825 Q101.426 279.393 100.635 280.801 Q99.8693 282.209 99.4987 284.334 Q99.1035 287.076 99.1035 293.647 Z" fill="#000000" fill-rule="nonzero" fill-opacity="1" /><path clip-path="url(#clip540)" d="M143.335 272.176 Q143.576 272.417 143.576 272.758 Q143.576 273.1 143.335 273.34 Q143.094 273.581 142.753 273.581 L117.021 273.581 Q116.68 273.581 116.439 273.34 Q116.198 273.1 116.198 272.758 Q116.198 272.417 116.439 272.176 Q116.68 271.935 117.021 271.935 L142.753 271.935 Q143.094 271.935 143.335 272.176 Z" fill="#000000" fill-rule="nonzero" fill-opacity="1" /><path clip-path="url(#clip540)" d="M147.59 270.049 Q147.59 263.586 150.882 259.632 Q154.173 255.657 158.409 255.657 Q160.877 255.657 162.242 256.922 Q163.627 258.166 163.627 260.093 Q163.627 261.157 163.005 261.619 Q162.383 262.08 161.74 262.08 Q160.998 262.08 160.416 261.579 Q159.834 261.077 159.834 260.174 Q159.834 258.327 162.102 258.327 Q161.038 256.681 158.489 256.681 Q157.706 256.681 156.903 256.922 Q156.1 257.143 155.057 257.905 Q154.013 258.668 153.21 259.872 Q152.407 261.077 151.845 263.345 Q151.283 265.613 151.283 268.563 L151.283 269.547 Q152.969 265.472 156.421 265.493 Q159.874 265.493 162.262 268.122 Q164.651 270.751 164.651 274.645 Q164.651 278.639 162.162 281.289 Q159.673 283.938 156.181 283.938 Q154.615 283.938 153.19 283.276 Q151.785 282.634 150.46 281.148 Q149.156 279.663 148.373 276.813 Q147.59 273.963 147.59 270.049 M151.363 273.742 Q151.363 277.776 152.106 279.703 Q152.226 280.024 152.487 280.466 Q152.768 280.907 153.23 281.489 Q153.712 282.051 154.495 282.433 Q155.277 282.794 156.181 282.794 Q158.93 282.794 160.255 280.125 Q160.958 278.639 160.958 274.605 Q160.958 270.49 160.215 268.985 Q158.95 266.436 156.381 266.436 Q154.655 266.436 153.451 267.62 Q152.267 268.804 151.805 270.39 Q151.363 271.976 151.363 273.742 Z" fill="#000000" fill-rule="nonzero" fill-opacity="1" /><polyline clip-path="url(#clip542)" style="stroke:#009af9; stroke-linecap:round; stroke-linejoin:round; stroke-width:4; stroke-opacity:1; fill:none" points="261.559,87.9763 303.857,177.37 346.155,255.61 388.452,332.154 430.75,403.627 473.048,459.917 515.345,498.516 557.643,529.661 599.941,559.037 642.238,588.024 684.536,616.913 726.834,645.771 769.131,674.618 811.429,703.461 853.727,732.303 896.024,761.144 938.322,789.985 980.62,818.826 1022.92,847.666 1065.22,876.507 1107.51,905.348 1149.81,934.187 1192.11,963.032 1234.41,991.866 1276.7,1020.71 1319,1049.56 1361.3,1078.36 1403.6,1107.21 1445.89,1135.95 1488.19,1164.48 1530.49,1193.48 1572.79,1220.76 1615.08,1247.89 1657.38,1266.71 1699.68,1282.87 1741.98,1297.73 1784.28,1312.41 1826.57,1328.33 1868.87,1334.51 1911.17,1350.68 1953.47,1366.31 1995.76,1387.23 2038.06,1397.09 2080.36,1405.51 2122.66,1432.06 2164.95,1425.05 2207.25,1426.1 2249.55,1445.72 2291.85,1441.6 "/>
<path clip-path="url(#clip540)" d="M2018.92 198.898 L2281.02 198.898 L2281.02 95.2176 L2018.92 95.2176  Z" fill="#ffffff" fill-rule="evenodd" fill-opacity="1"/>
<polyline clip-path="url(#clip540)" style="stroke:#000000; stroke-linecap:round; stroke-linejoin:round; stroke-width:4; stroke-opacity:1; fill:none" points="2018.92,198.898 2281.02,198.898 2281.02,95.2176 2018.92,95.2176 2018.92,198.898 "/>
<polyline clip-path="url(#clip540)" style="stroke:#009af9; stroke-linecap:round; stroke-linejoin:round; stroke-width:4; stroke-opacity:1; fill:none" points="2042.83,147.058 2186.31,147.058 "/>
<path clip-path="url(#clip540)" d="M2210.22 170.612 Q2210.22 169.55 2210.84 168.982 Q2211.48 168.438 2212.34 168.438 Q2213.26 168.438 2213.85 169.006 Q2214.47 169.599 2214.47 170.563 Q2214.47 172.44 2212.49 172.687 Q2213.46 173.601 2214.86 173.601 Q2216.37 173.601 2217.58 172.49 Q2218.82 171.378 2219.34 170.316 Q2219.88 169.254 2220.64 167.327 Q2221.36 165.82 2221.9 164.338 L2214.32 145.859 Q2213.83 144.649 2213.06 144.377 Q2212.29 144.106 2210.22 144.106 L2210.22 142.524 Q2212.49 142.673 2215.14 142.673 Q2216.69 142.673 2220.64 142.524 L2220.64 144.106 Q2217.8 144.106 2217.8 145.415 Q2217.8 145.563 2218.1 146.329 L2223.73 159.94 L2228.85 147.49 Q2229.14 146.773 2229.14 146.279 Q2229.14 144.204 2226.77 144.106 L2226.77 142.524 Q2230.11 142.673 2231.17 142.673 Q2233.24 142.673 2234.95 142.524 L2234.95 144.106 Q2231.56 144.106 2230.25 147.342 L2221.34 168.932 Q2218.92 174.688 2214.86 174.713 Q2212.94 174.713 2211.58 173.527 Q2210.22 172.341 2210.22 170.612 Z" fill="#000000" fill-rule="nonzero" fill-opacity="1" /><path clip-path="url(#clip540)" d="M2240.41 135.459 L2240.41 133.878 Q2246.48 133.878 2249.62 130.642 Q2250.49 130.642 2250.63 130.84 Q2250.78 131.037 2250.78 131.951 L2250.78 160.336 Q2250.78 161.843 2251.52 162.312 Q2252.26 162.781 2255.5 162.781 L2257.11 162.781 L2257.11 164.338 Q2255.33 164.189 2248.91 164.189 Q2242.48 164.189 2240.73 164.338 L2240.73 162.781 L2242.33 162.781 Q2245.52 162.781 2246.29 162.337 Q2247.05 161.867 2247.05 160.336 L2247.05 134.125 Q2244.41 135.459 2240.41 135.459 Z" fill="#000000" fill-rule="nonzero" fill-opacity="1" /></svg>
