<?xml version="1.0" encoding="utf-8"?>
<svg xmlns="http://www.w3.org/2000/svg" xmlns:xlink="http://www.w3.org/1999/xlink" width="600" height="400" viewBox="0 0 2400 1600">
<defs>
  <clipPath id="clip120">
    <rect x="0" y="0" width="2400" height="1600"/>
  </clipPath>
</defs>
<path clip-path="url(#clip120)" d="M0 1600 L2400 1600 L2400 0 L0 0  Z" fill="#ffffff" fill-rule="evenodd" fill-opacity="1"/>
<defs>
  <clipPath id="clip121">
    <rect x="480" y="0" width="1681" height="1600"/>
  </clipPath>
</defs>
<path clip-path="url(#clip120)" d="M289.514 1423.18 L2352.76 1423.18 L2352.76 47.2441 L289.514 47.2441  Z" fill="#ffffff" fill-rule="evenodd" fill-opacity="1"/>
<defs>
  <clipPath id="clip122">
    <rect x="289" y="47" width="2064" height="1377"/>
  </clipPath>
</defs>
<polyline clip-path="url(#clip122)" style="stroke:#000000; stroke-linecap:round; stroke-linejoin:round; stroke-width:2; stroke-opacity:0.1; fill:none" points="2294.36,1423.18 2294.36,47.2441 "/>
<polyline clip-path="url(#clip122)" style="stroke:#000000; stroke-linecap:round; stroke-linejoin:round; stroke-width:2; stroke-opacity:0.1; fill:none" points="1321.14,1423.18 1321.14,47.2441 "/>
<polyline clip-path="url(#clip122)" style="stroke:#000000; stroke-linecap:round; stroke-linejoin:round; stroke-width:2; stroke-opacity:0.1; fill:none" points="868.61,1423.18 868.61,47.2441 "/>
<polyline clip-path="url(#clip122)" style="stroke:#000000; stroke-linecap:round; stroke-linejoin:round; stroke-width:2; stroke-opacity:0.1; fill:none" points="570.54,1423.18 570.54,47.2441 "/>
<polyline clip-path="url(#clip122)" style="stroke:#000000; stroke-linecap:round; stroke-linejoin:round; stroke-width:2; stroke-opacity:0.1; fill:none" points="347.908,1423.18 347.908,47.2441 "/>
<polyline clip-path="url(#clip120)" style="stroke:#000000; stroke-linecap:round; stroke-linejoin:round; stroke-width:4; stroke-opacity:1; fill:none" points="2352.76,1423.18 289.514,1423.18 "/>
<polyline clip-path="url(#clip120)" style="stroke:#000000; stroke-linecap:round; stroke-linejoin:round; stroke-width:4; stroke-opacity:1; fill:none" points="2294.36,1423.18 2294.36,1404.28 "/>
<polyline clip-path="url(#clip120)" style="stroke:#000000; stroke-linecap:round; stroke-linejoin:round; stroke-width:4; stroke-opacity:1; fill:none" points="1321.14,1423.18 1321.14,1404.28 "/>
<polyline clip-path="url(#clip120)" style="stroke:#000000; stroke-linecap:round; stroke-linejoin:round; stroke-width:4; stroke-opacity:1; fill:none" points="868.61,1423.18 868.61,1404.28 "/>
<polyline clip-path="url(#clip120)" style="stroke:#000000; stroke-linecap:round; stroke-linejoin:round; stroke-width:4; stroke-opacity:1; fill:none" points="570.54,1423.18 570.54,1404.28 "/>
<polyline clip-path="url(#clip120)" style="stroke:#000000; stroke-linecap:round; stroke-linejoin:round; stroke-width:4; stroke-opacity:1; fill:none" points="347.908,1423.18 347.908,1404.28 "/>
<path clip-path="url(#clip120)" d="M2157.9 1464.23 L2157.9 1462.73 Q2163.66 1462.73 2166.64 1459.67 Q2167.46 1459.67 2167.6 1459.85 Q2167.74 1460.04 2167.74 1460.91 L2167.74 1487.82 Q2167.74 1489.25 2168.44 1489.69 Q2169.14 1490.14 2172.21 1490.14 L2173.74 1490.14 L2173.74 1491.61 Q2172.05 1491.47 2165.96 1491.47 Q2159.87 1491.47 2158.21 1491.61 L2158.21 1490.14 L2159.73 1490.14 Q2162.75 1490.14 2163.48 1489.72 Q2164.2 1489.27 2164.2 1487.82 L2164.2 1462.97 Q2161.7 1464.23 2157.9 1464.23 Z" fill="#000000" fill-rule="nonzero" fill-opacity="1" /><path clip-path="url(#clip120)" d="M2176.05 1476.27 Q2176.05 1469.22 2177.83 1465.38 Q2180.31 1459.67 2186.17 1459.67 Q2187.41 1459.67 2188.7 1460.02 Q2190.01 1460.35 2191.65 1461.63 Q2193.31 1462.92 2194.32 1465.03 Q2196.24 1469.11 2196.24 1476.27 Q2196.24 1483.28 2194.46 1487.09 Q2191.86 1492.67 2186.12 1492.67 Q2183.97 1492.67 2181.76 1491.57 Q2179.59 1490.47 2178.2 1487.82 Q2176.05 1483.86 2176.05 1476.27 M2180.03 1475.69 Q2180.03 1482.92 2180.55 1485.81 Q2181.13 1488.92 2182.72 1490.28 Q2184.34 1491.61 2186.12 1491.61 Q2188.04 1491.61 2189.63 1490.19 Q2191.25 1488.73 2191.74 1485.62 Q2192.28 1482.55 2192.26 1475.69 Q2192.26 1469.01 2191.79 1466.34 Q2191.16 1463.23 2189.47 1461.98 Q2187.81 1460.72 2186.12 1460.72 Q2185.49 1460.72 2184.81 1460.91 Q2184.15 1461.09 2183.19 1461.63 Q2182.23 1462.17 2181.48 1463.51 Q2180.76 1464.84 2180.41 1466.86 Q2180.03 1469.46 2180.03 1475.69 Z" fill="#000000" fill-rule="nonzero" fill-opacity="1" /><path clip-path="url(#clip120)" d="M2199.99 1491.61 Q2199.99 1490.75 2200.06 1490.49 Q2200.16 1490.23 2200.53 1489.83 L2209.73 1479.58 Q2214.77 1473.91 2214.77 1468.96 Q2214.77 1465.76 2213.08 1463.46 Q2211.42 1461.17 2208.35 1461.17 Q2206.24 1461.17 2204.46 1462.45 Q2202.68 1463.74 2201.86 1466.04 Q2202.01 1465.99 2202.5 1465.99 Q2203.69 1465.99 2204.35 1466.74 Q2205.03 1467.49 2205.03 1468.5 Q2205.03 1469.78 2204.18 1470.42 Q2203.36 1471.03 2202.54 1471.03 Q2202.22 1471.03 2201.77 1470.96 Q2201.35 1470.89 2200.67 1470.23 Q2199.99 1469.55 2199.99 1468.36 Q2199.99 1465.01 2202.52 1462.34 Q2205.07 1459.67 2208.96 1459.67 Q2213.37 1459.67 2216.25 1462.29 Q2219.15 1464.89 2219.15 1468.96 Q2219.15 1470.39 2218.71 1471.71 Q2218.28 1472.99 2217.7 1474 Q2217.14 1475.01 2215.59 1476.62 Q2214.04 1478.24 2212.8 1479.39 Q2211.56 1480.54 2208.77 1482.97 L2203.69 1487.91 L2212.33 1487.91 Q2216.55 1487.91 2216.88 1487.54 Q2217.35 1486.86 2217.93 1483.28 L2219.15 1483.28 L2217.79 1491.61 L2199.99 1491.61 Z" fill="#000000" fill-rule="nonzero" fill-opacity="1" /><path clip-path="url(#clip120)" d="M2223.74 1483.7 L2223.74 1482.22 L2238.47 1459.71 Q2238.85 1459.13 2239.43 1459.15 Q2239.97 1459.15 2240.09 1459.36 Q2240.21 1459.57 2240.21 1460.39 L2240.21 1482.22 L2245.01 1482.22 L2245.01 1483.7 L2240.21 1483.7 L2240.21 1487.87 Q2240.21 1489.25 2240.77 1489.69 Q2241.35 1490.14 2243.84 1490.14 L2244.84 1490.14 L2244.84 1491.61 Q2242.88 1491.47 2238.33 1491.47 Q2233.81 1491.47 2231.85 1491.61 L2231.85 1490.14 L2232.85 1490.14 Q2235.34 1490.14 2235.92 1489.72 Q2236.51 1489.27 2236.51 1487.87 L2236.51 1483.7 L2223.74 1483.7 M2225.1 1482.22 L2236.79 1482.22 L2236.79 1464.33 L2225.1 1482.22 Z" fill="#000000" fill-rule="nonzero" fill-opacity="1" /><path clip-path="url(#clip120)" d="M2249.91 1466.09 Q2249.91 1465.48 2249.96 1465.3 Q2250.02 1465.12 2250.29 1464.84 L2256.73 1457.66 Q2260.25 1453.69 2260.25 1450.23 Q2260.25 1447.99 2259.07 1446.38 Q2257.91 1444.77 2255.76 1444.77 Q2254.29 1444.77 2253.04 1445.67 Q2251.79 1446.58 2251.22 1448.18 Q2251.32 1448.15 2251.66 1448.15 Q2252.5 1448.15 2252.96 1448.67 Q2253.43 1449.2 2253.43 1449.9 Q2253.43 1450.81 2252.84 1451.25 Q2252.27 1451.68 2251.7 1451.68 Q2251.47 1451.68 2251.15 1451.63 Q2250.86 1451.58 2250.38 1451.12 Q2249.91 1450.64 2249.91 1449.81 Q2249.91 1447.46 2251.68 1445.59 Q2253.47 1443.72 2256.19 1443.72 Q2259.27 1443.72 2261.29 1445.56 Q2263.32 1447.38 2263.32 1450.23 Q2263.32 1451.23 2263.01 1452.15 Q2262.71 1453.05 2262.3 1453.76 Q2261.91 1454.46 2260.83 1455.59 Q2259.75 1456.73 2258.88 1457.53 Q2258.01 1458.33 2256.06 1460.04 L2252.5 1463.5 L2258.55 1463.5 Q2261.5 1463.5 2261.73 1463.23 Q2262.06 1462.76 2262.47 1460.25 L2263.32 1460.25 L2262.37 1466.09 L2249.91 1466.09 Z" fill="#000000" fill-rule="nonzero" fill-opacity="1" /><path clip-path="url(#clip120)" d="M2323.63 1478.99 Q2324.05 1479.15 2324.05 1479.62 Q2324.05 1480.09 2323.63 1480.25 Q2320.12 1481.43 2317.05 1485.24 Q2314.87 1488.08 2314.26 1491.33 Q2314.19 1491.66 2313.93 1491.87 Q2313.68 1492.08 2313.32 1492.08 Q2312.93 1492.08 2312.65 1491.8 Q2312.36 1491.54 2312.36 1491.15 Q2312.36 1491.12 2312.39 1491.05 Q2312.41 1490.96 2312.41 1490.94 Q2313.11 1487.14 2315.57 1484.03 Q2317.12 1482.06 2319.32 1480.58 L2282.57 1480.58 Q2282.17 1480.58 2281.89 1480.3 Q2281.61 1480.02 2281.61 1479.62 Q2281.61 1479.22 2281.89 1478.94 Q2282.17 1478.66 2282.57 1478.66 L2319.32 1478.66 Q2317.12 1477.19 2315.57 1475.22 Q2313.11 1472.1 2312.41 1468.31 Q2312.41 1468.29 2312.39 1468.22 Q2312.36 1468.12 2312.36 1468.1 Q2312.36 1467.7 2312.65 1467.44 Q2312.93 1467.16 2313.32 1467.16 Q2313.68 1467.16 2313.93 1467.37 Q2314.19 1467.58 2314.26 1467.91 Q2314.87 1471.17 2317.05 1474 Q2320.12 1477.82 2323.63 1478.99 Z" fill="#000000" fill-rule="nonzero" fill-opacity="1" /><path clip-path="url(#clip120)" d="M2342.42 1483.88 Q2342.42 1482.46 2343.19 1481.92 Q2343.96 1481.36 2344.78 1481.36 Q2345.88 1481.36 2346.51 1482.06 Q2347.17 1482.74 2347.17 1483.7 Q2347.17 1484.66 2346.51 1485.36 Q2345.88 1486.04 2344.78 1486.04 Q2344.24 1486.04 2343.96 1485.95 Q2344.59 1488.15 2346.51 1489.74 Q2348.46 1491.33 2351.01 1491.33 Q2354.22 1491.33 2356.14 1488.22 Q2357.29 1486.2 2357.29 1481.64 Q2357.29 1477.61 2356.42 1475.59 Q2355.09 1472.53 2352.35 1472.53 Q2348.46 1472.53 2346.16 1475.87 Q2345.88 1476.3 2345.55 1476.32 Q2345.09 1476.32 2344.97 1476.06 Q2344.87 1475.78 2344.87 1475.05 L2344.87 1460.86 Q2344.87 1459.71 2345.34 1459.71 Q2345.53 1459.71 2345.93 1459.85 Q2348.95 1461.19 2352.3 1461.21 Q2355.74 1461.21 2358.83 1459.81 Q2359.07 1459.67 2359.21 1459.67 Q2359.68 1459.67 2359.7 1460.2 Q2359.7 1460.39 2359.3 1460.95 Q2358.93 1461.49 2358.11 1462.22 Q2357.29 1462.92 2356.23 1463.6 Q2355.18 1464.28 2353.63 1464.75 Q2352.11 1465.19 2350.43 1465.19 Q2348.41 1465.19 2346.35 1464.56 L2346.35 1473.91 Q2348.83 1471.47 2352.44 1471.47 Q2356.28 1471.47 2358.93 1474.56 Q2361.58 1477.65 2361.58 1481.96 Q2361.58 1486.48 2358.44 1489.58 Q2355.32 1492.67 2351.11 1492.67 Q2347.26 1492.67 2344.83 1489.93 Q2342.42 1487.19 2342.42 1483.88 Z" fill="#000000" fill-rule="nonzero" fill-opacity="1" /><path clip-path="url(#clip120)" d="M2364.59 1464.23 L2364.59 1462.73 Q2370.35 1462.73 2373.32 1459.67 Q2374.14 1459.67 2374.28 1459.85 Q2374.42 1460.04 2374.42 1460.91 L2374.42 1487.82 Q2374.42 1489.25 2375.13 1489.69 Q2375.83 1490.14 2378.9 1490.14 L2380.42 1490.14 L2380.42 1491.61 Q2378.73 1491.47 2372.64 1491.47 Q2366.55 1491.47 2364.89 1491.61 L2364.89 1490.14 L2366.41 1490.14 Q2369.43 1490.14 2370.16 1489.72 Q2370.89 1489.27 2370.89 1487.82 L2370.89 1462.97 Q2368.38 1464.23 2364.59 1464.23 Z" fill="#000000" fill-rule="nonzero" fill-opacity="1" /><path clip-path="url(#clip120)" d="M2388.34 1491.61 Q2388.34 1490.75 2388.41 1490.49 Q2388.5 1490.23 2388.87 1489.83 L2398.08 1479.58 Q2403.12 1473.91 2403.12 1468.96 Q2403.12 1465.76 2401.43 1463.46 Q2399.77 1461.17 2396.7 1461.17 Q2394.59 1461.17 2392.81 1462.45 Q2391.03 1463.74 2390.21 1466.04 Q2390.35 1465.99 2390.84 1465.99 Q2392.04 1465.99 2392.69 1466.74 Q2393.37 1467.49 2393.37 1468.5 Q2393.37 1469.78 2392.53 1470.42 Q2391.71 1471.03 2390.89 1471.03 Q2390.56 1471.03 2390.12 1470.96 Q2389.69 1470.89 2389.01 1470.23 Q2388.34 1469.55 2388.34 1468.36 Q2388.34 1465.01 2390.87 1462.34 Q2393.42 1459.67 2397.31 1459.67 Q2401.71 1459.67 2404.59 1462.29 Q2407.5 1464.89 2407.5 1468.96 Q2407.5 1470.39 2407.05 1471.71 Q2406.63 1472.99 2406.04 1474 Q2405.48 1475.01 2403.93 1476.62 Q2402.39 1478.24 2401.15 1479.39 Q2399.91 1480.54 2397.12 1482.97 L2392.04 1487.91 L2400.68 1487.91 Q2404.9 1487.91 2405.22 1487.54 Q2405.69 1486.86 2406.28 1483.28 L2407.5 1483.28 L2406.14 1491.61 L2388.34 1491.61 Z" fill="#000000" fill-rule="nonzero" fill-opacity="1" /><path clip-path="url(#clip120)" d="M2412.42 1466.62 Q2412.42 1466.01 2412.47 1465.83 Q2412.54 1465.65 2412.8 1465.37 L2419.24 1458.19 Q2422.77 1454.22 2422.77 1450.76 Q2422.77 1448.52 2421.59 1446.91 Q2420.43 1445.3 2418.28 1445.3 Q2416.8 1445.3 2415.56 1446.21 Q2414.31 1447.11 2413.74 1448.71 Q2413.83 1448.68 2414.18 1448.68 Q2415.01 1448.68 2415.47 1449.21 Q2415.95 1449.73 2415.95 1450.44 Q2415.95 1451.34 2415.36 1451.78 Q2414.79 1452.21 2414.21 1452.21 Q2413.98 1452.21 2413.67 1452.16 Q2413.38 1452.11 2412.9 1451.65 Q2412.42 1451.17 2412.42 1450.34 Q2412.42 1447.99 2414.2 1446.12 Q2415.98 1444.25 2418.7 1444.25 Q2421.79 1444.25 2423.8 1446.09 Q2425.84 1447.91 2425.84 1450.76 Q2425.84 1451.76 2425.52 1452.68 Q2425.23 1453.58 2424.82 1454.29 Q2424.43 1454.99 2423.34 1456.12 Q2422.26 1457.26 2421.39 1458.06 Q2420.52 1458.86 2418.57 1460.57 L2415.01 1464.03 L2421.06 1464.03 Q2424.02 1464.03 2424.25 1463.77 Q2424.57 1463.29 2424.98 1460.78 L2425.84 1460.78 L2424.89 1466.62 L2412.42 1466.62 Z" fill="#000000" fill-rule="nonzero" fill-opacity="1" /><path clip-path="url(#clip120)" d="M1194.42 1483.62 Q1194.42 1482.19 1195.19 1481.65 Q1195.97 1481.09 1196.79 1481.09 Q1197.89 1481.09 1198.52 1481.79 Q1199.18 1482.47 1199.18 1483.43 Q1199.18 1484.39 1198.52 1485.09 Q1197.89 1485.77 1196.79 1485.77 Q1196.25 1485.77 1195.97 1485.68 Q1196.6 1487.88 1198.52 1489.47 Q1200.46 1491.07 1203.02 1491.07 Q1206.23 1491.07 1208.15 1487.95 Q1209.29 1485.94 1209.29 1481.37 Q1209.29 1477.34 1208.43 1475.33 Q1207.09 1472.26 1204.35 1472.26 Q1200.46 1472.26 1198.17 1475.61 Q1197.89 1476.03 1197.56 1476.05 Q1197.09 1476.05 1196.97 1475.8 Q1196.88 1475.52 1196.88 1474.79 L1196.88 1460.6 Q1196.88 1459.45 1197.35 1459.45 Q1197.54 1459.45 1197.93 1459.59 Q1200.96 1460.92 1204.3 1460.95 Q1207.75 1460.95 1210.84 1459.54 Q1211.07 1459.4 1211.21 1459.4 Q1211.68 1459.4 1211.71 1459.94 Q1211.71 1460.13 1211.31 1460.69 Q1210.93 1461.23 1210.11 1461.95 Q1209.29 1462.66 1208.24 1463.34 Q1207.19 1464.01 1205.64 1464.48 Q1204.12 1464.93 1202.43 1464.93 Q1200.42 1464.93 1198.36 1464.3 L1198.36 1473.64 Q1200.84 1471.21 1204.45 1471.21 Q1208.29 1471.21 1210.93 1474.3 Q1213.58 1477.39 1213.58 1481.7 Q1213.58 1486.22 1210.44 1489.31 Q1207.33 1492.4 1203.11 1492.4 Q1199.27 1492.4 1196.83 1489.66 Q1194.42 1486.92 1194.42 1483.62 Z" fill="#000000" fill-rule="nonzero" fill-opacity="1" /><path clip-path="url(#clip120)" d="M1216.59 1463.97 L1216.59 1462.47 Q1222.35 1462.47 1225.33 1459.4 Q1226.15 1459.4 1226.29 1459.59 Q1226.43 1459.78 1226.43 1460.64 L1226.43 1487.55 Q1226.43 1488.98 1227.13 1489.43 Q1227.83 1489.87 1230.9 1489.87 L1232.42 1489.87 L1232.42 1491.35 Q1230.74 1491.21 1224.65 1491.21 Q1218.56 1491.21 1216.89 1491.35 L1216.89 1489.87 L1218.42 1489.87 Q1221.44 1489.87 1222.16 1489.45 Q1222.89 1489.01 1222.89 1487.55 L1222.89 1462.7 Q1220.38 1463.97 1216.59 1463.97 Z" fill="#000000" fill-rule="nonzero" fill-opacity="1" /><path clip-path="url(#clip120)" d="M1240.34 1491.35 Q1240.34 1490.48 1240.41 1490.22 Q1240.5 1489.97 1240.88 1489.57 L1250.08 1479.31 Q1255.12 1473.64 1255.12 1468.7 Q1255.12 1465.49 1253.43 1463.19 Q1251.77 1460.9 1248.7 1460.9 Q1246.59 1460.9 1244.81 1462.19 Q1243.03 1463.48 1242.21 1465.77 Q1242.35 1465.72 1242.85 1465.72 Q1244.04 1465.72 1244.7 1466.47 Q1245.38 1467.22 1245.38 1468.23 Q1245.38 1469.52 1244.53 1470.15 Q1243.71 1470.76 1242.89 1470.76 Q1242.57 1470.76 1242.12 1470.69 Q1241.7 1470.62 1241.02 1469.96 Q1240.34 1469.28 1240.34 1468.09 Q1240.34 1464.74 1242.87 1462.07 Q1245.42 1459.4 1249.31 1459.4 Q1253.71 1459.4 1256.6 1462.02 Q1259.5 1464.62 1259.5 1468.7 Q1259.5 1470.13 1259.05 1471.44 Q1258.63 1472.73 1258.05 1473.73 Q1257.49 1474.74 1255.94 1476.36 Q1254.39 1477.97 1253.15 1479.12 Q1251.91 1480.27 1249.12 1482.71 L1244.04 1487.65 L1252.68 1487.65 Q1256.9 1487.65 1257.23 1487.27 Q1257.7 1486.59 1258.28 1483.01 L1259.5 1483.01 L1258.14 1491.35 L1240.34 1491.35 Z" fill="#000000" fill-rule="nonzero" fill-opacity="1" /><path clip-path="url(#clip120)" d="M1264.43 1466.35 Q1264.43 1465.75 1264.48 1465.57 Q1264.54 1465.39 1264.81 1465.11 L1271.25 1457.93 Q1274.77 1453.96 1274.77 1450.5 Q1274.77 1448.25 1273.59 1446.64 Q1272.43 1445.04 1270.28 1445.04 Q1268.81 1445.04 1267.56 1445.94 Q1266.31 1446.84 1265.74 1448.45 Q1265.84 1448.42 1266.18 1448.42 Q1267.02 1448.42 1267.48 1448.94 Q1267.95 1449.46 1267.95 1450.17 Q1267.95 1451.07 1267.36 1451.51 Q1266.79 1451.94 1266.22 1451.94 Q1265.99 1451.94 1265.68 1451.89 Q1265.38 1451.84 1264.9 1451.38 Q1264.43 1450.91 1264.43 1450.07 Q1264.43 1447.73 1266.2 1445.86 Q1267.99 1443.99 1270.71 1443.99 Q1273.79 1443.99 1275.81 1445.83 Q1277.84 1447.65 1277.84 1450.5 Q1277.84 1451.5 1277.53 1452.42 Q1277.23 1453.32 1276.82 1454.02 Q1276.43 1454.73 1275.35 1455.86 Q1274.27 1456.99 1273.4 1457.79 Q1272.53 1458.6 1270.58 1460.3 L1267.02 1463.76 L1273.07 1463.76 Q1276.02 1463.76 1276.25 1463.5 Q1276.58 1463.02 1276.99 1460.52 L1277.84 1460.52 L1276.89 1466.35 L1264.43 1466.35 Z" fill="#000000" fill-rule="nonzero" fill-opacity="1" /><path clip-path="url(#clip120)" d="M1338.15 1478.72 Q1338.57 1478.89 1338.57 1479.36 Q1338.57 1479.82 1338.15 1479.99 Q1334.64 1481.16 1331.57 1484.98 Q1329.39 1487.81 1328.78 1491.07 Q1328.71 1491.4 1328.45 1491.61 Q1328.2 1491.82 1327.85 1491.82 Q1327.45 1491.82 1327.17 1491.54 Q1326.89 1491.28 1326.89 1490.88 Q1326.89 1490.86 1326.91 1490.79 Q1326.93 1490.69 1326.93 1490.67 Q1327.64 1486.87 1330.09 1483.76 Q1331.64 1481.79 1333.84 1480.32 L1297.09 1480.32 Q1296.69 1480.32 1296.41 1480.04 Q1296.13 1479.75 1296.13 1479.36 Q1296.13 1478.96 1296.41 1478.68 Q1296.69 1478.4 1297.09 1478.4 L1333.84 1478.4 Q1331.64 1476.92 1330.09 1474.95 Q1327.64 1471.84 1326.93 1468.04 Q1326.93 1468.02 1326.91 1467.95 Q1326.89 1467.86 1326.89 1467.83 Q1326.89 1467.43 1327.17 1467.18 Q1327.45 1466.9 1327.85 1466.9 Q1328.2 1466.9 1328.45 1467.11 Q1328.71 1467.32 1328.78 1467.65 Q1329.39 1470.9 1331.57 1473.73 Q1334.64 1477.55 1338.15 1478.72 Z" fill="#000000" fill-rule="nonzero" fill-opacity="1" /><path clip-path="url(#clip120)" d="M1356.94 1491.35 Q1356.94 1490.48 1357.01 1490.22 Q1357.1 1489.97 1357.48 1489.57 L1366.68 1479.31 Q1371.72 1473.64 1371.72 1468.7 Q1371.72 1465.49 1370.03 1463.19 Q1368.37 1460.9 1365.3 1460.9 Q1363.19 1460.9 1361.41 1462.19 Q1359.63 1463.48 1358.81 1465.77 Q1358.95 1465.72 1359.44 1465.72 Q1360.64 1465.72 1361.29 1466.47 Q1361.97 1467.22 1361.97 1468.23 Q1361.97 1469.52 1361.13 1470.15 Q1360.31 1470.76 1359.49 1470.76 Q1359.16 1470.76 1358.72 1470.69 Q1358.3 1470.62 1357.62 1469.96 Q1356.94 1469.28 1356.94 1468.09 Q1356.94 1464.74 1359.47 1462.07 Q1362.02 1459.4 1365.91 1459.4 Q1370.31 1459.4 1373.19 1462.02 Q1376.1 1464.62 1376.1 1468.7 Q1376.1 1470.13 1375.65 1471.44 Q1375.23 1472.73 1374.64 1473.73 Q1374.08 1474.74 1372.54 1476.36 Q1370.99 1477.97 1369.75 1479.12 Q1368.51 1480.27 1365.72 1482.71 L1360.64 1487.65 L1369.28 1487.65 Q1373.5 1487.65 1373.82 1487.27 Q1374.29 1486.59 1374.88 1483.01 L1376.1 1483.01 L1374.74 1491.35 L1356.94 1491.35 Z" fill="#000000" fill-rule="nonzero" fill-opacity="1" /><path clip-path="url(#clip120)" d="M1380.88 1483.62 Q1380.88 1482.19 1381.65 1481.65 Q1382.42 1481.09 1383.24 1481.09 Q1384.35 1481.09 1384.98 1481.79 Q1385.63 1482.47 1385.63 1483.43 Q1385.63 1484.39 1384.98 1485.09 Q1384.35 1485.77 1383.24 1485.77 Q1382.71 1485.77 1382.42 1485.68 Q1383.06 1487.88 1384.98 1489.47 Q1386.92 1491.07 1389.47 1491.07 Q1392.68 1491.07 1394.6 1487.95 Q1395.75 1485.94 1395.75 1481.37 Q1395.75 1477.34 1394.89 1475.33 Q1393.55 1472.26 1390.81 1472.26 Q1386.92 1472.26 1384.63 1475.61 Q1384.35 1476.03 1384.02 1476.05 Q1383.55 1476.05 1383.43 1475.8 Q1383.34 1475.52 1383.34 1474.79 L1383.34 1460.6 Q1383.34 1459.45 1383.81 1459.45 Q1383.99 1459.45 1384.39 1459.59 Q1387.41 1460.92 1390.76 1460.95 Q1394.21 1460.95 1397.3 1459.54 Q1397.53 1459.4 1397.67 1459.4 Q1398.14 1459.4 1398.16 1459.94 Q1398.16 1460.13 1397.77 1460.69 Q1397.39 1461.23 1396.57 1461.95 Q1395.75 1462.66 1394.7 1463.34 Q1393.64 1464.01 1392.1 1464.48 Q1390.58 1464.93 1388.89 1464.93 Q1386.87 1464.93 1384.81 1464.3 L1384.81 1473.64 Q1387.3 1471.21 1390.9 1471.21 Q1394.74 1471.21 1397.39 1474.3 Q1400.04 1477.39 1400.04 1481.7 Q1400.04 1486.22 1396.9 1489.31 Q1393.78 1492.4 1389.57 1492.4 Q1385.73 1492.4 1383.29 1489.66 Q1380.88 1486.92 1380.88 1483.62 Z" fill="#000000" fill-rule="nonzero" fill-opacity="1" /><path clip-path="url(#clip120)" d="M1404.63 1476.19 Q1404.63 1468.65 1408.47 1464.04 Q1412.31 1459.4 1417.25 1459.4 Q1420.13 1459.4 1421.73 1460.88 Q1423.34 1462.33 1423.34 1464.58 Q1423.34 1465.82 1422.62 1466.36 Q1421.89 1466.9 1421.14 1466.9 Q1420.27 1466.9 1419.6 1466.31 Q1418.92 1465.72 1418.92 1464.67 Q1418.92 1462.52 1421.56 1462.52 Q1420.32 1460.6 1417.35 1460.6 Q1416.43 1460.6 1415.5 1460.88 Q1414.56 1461.13 1413.34 1462.02 Q1412.12 1462.91 1411.19 1464.32 Q1410.25 1465.72 1409.59 1468.37 Q1408.94 1471.02 1408.94 1474.46 L1408.94 1475.61 Q1410.91 1470.85 1414.93 1470.88 Q1418.96 1470.88 1421.75 1473.95 Q1424.54 1477.01 1424.54 1481.56 Q1424.54 1486.22 1421.63 1489.31 Q1418.73 1492.4 1414.65 1492.4 Q1412.83 1492.4 1411.16 1491.63 Q1409.52 1490.88 1407.98 1489.15 Q1406.46 1487.41 1405.54 1484.09 Q1404.63 1480.76 1404.63 1476.19 M1409.03 1480.5 Q1409.03 1485.21 1409.9 1487.46 Q1410.04 1487.84 1410.34 1488.35 Q1410.67 1488.87 1411.21 1489.55 Q1411.77 1490.2 1412.69 1490.65 Q1413.6 1491.07 1414.65 1491.07 Q1417.86 1491.07 1419.41 1487.95 Q1420.23 1486.22 1420.23 1481.51 Q1420.23 1476.71 1419.36 1474.95 Q1417.89 1471.98 1414.89 1471.98 Q1412.87 1471.98 1411.47 1473.36 Q1410.09 1474.74 1409.55 1476.59 Q1409.03 1478.44 1409.03 1480.5 Z" fill="#000000" fill-rule="nonzero" fill-opacity="1" /><path clip-path="url(#clip120)" d="M1429.45 1466.35 Q1429.45 1465.75 1429.5 1465.57 Q1429.57 1465.39 1429.83 1465.11 L1436.27 1457.93 Q1439.8 1453.96 1439.8 1450.5 Q1439.8 1448.25 1438.62 1446.64 Q1437.45 1445.04 1435.31 1445.04 Q1433.83 1445.04 1432.58 1445.94 Q1431.34 1446.84 1430.76 1448.45 Q1430.86 1448.42 1431.21 1448.42 Q1432.04 1448.42 1432.5 1448.94 Q1432.98 1449.46 1432.98 1450.17 Q1432.98 1451.07 1432.39 1451.51 Q1431.81 1451.94 1431.24 1451.94 Q1431.01 1451.94 1430.7 1451.89 Q1430.4 1451.84 1429.93 1451.38 Q1429.45 1450.91 1429.45 1450.07 Q1429.45 1447.73 1431.22 1445.86 Q1433.01 1443.99 1435.73 1443.99 Q1438.81 1443.99 1440.83 1445.83 Q1442.86 1447.65 1442.86 1450.5 Q1442.86 1451.5 1442.55 1452.42 Q1442.26 1453.32 1441.85 1454.02 Q1441.45 1454.73 1440.37 1455.86 Q1439.29 1456.99 1438.42 1457.79 Q1437.55 1458.6 1435.6 1460.3 L1432.04 1463.76 L1438.09 1463.76 Q1441.04 1463.76 1441.27 1463.5 Q1441.6 1463.02 1442.01 1460.52 L1442.86 1460.52 L1441.91 1466.35 L1429.45 1466.35 Z" fill="#000000" fill-rule="nonzero" fill-opacity="1" /><path clip-path="url(#clip120)" d="M742.444 1491.35 Q742.444 1490.48 742.514 1490.22 Q742.608 1489.97 742.983 1489.57 L752.188 1479.31 Q757.223 1473.64 757.223 1468.7 Q757.223 1465.49 755.537 1463.19 Q753.874 1460.9 750.806 1460.9 Q748.698 1460.9 746.917 1462.19 Q745.137 1463.48 744.318 1465.77 Q744.458 1465.72 744.95 1465.72 Q746.145 1465.72 746.8 1466.47 Q747.48 1467.22 747.48 1468.23 Q747.48 1469.52 746.636 1470.15 Q745.817 1470.76 744.997 1470.76 Q744.669 1470.76 744.224 1470.69 Q743.802 1470.62 743.123 1469.96 Q742.444 1469.28 742.444 1468.09 Q742.444 1464.74 744.973 1462.07 Q747.526 1459.4 751.415 1459.4 Q755.818 1459.4 758.699 1462.02 Q761.603 1464.62 761.603 1468.7 Q761.603 1470.13 761.158 1471.44 Q760.737 1472.73 760.151 1473.73 Q759.589 1474.74 758.043 1476.36 Q756.497 1477.97 755.256 1479.12 Q754.014 1480.27 751.227 1482.71 L746.145 1487.65 L754.787 1487.65 Q759.003 1487.65 759.331 1487.27 Q759.8 1486.59 760.385 1483.01 L761.603 1483.01 L760.245 1491.35 L742.444 1491.35 Z" fill="#000000" fill-rule="nonzero" fill-opacity="1" /><path clip-path="url(#clip120)" d="M766.386 1483.62 Q766.386 1482.19 767.159 1481.65 Q767.932 1481.09 768.751 1481.09 Q769.852 1481.09 770.485 1481.79 Q771.141 1482.47 771.141 1483.43 Q771.141 1484.39 770.485 1485.09 Q769.852 1485.77 768.751 1485.77 Q768.213 1485.77 767.932 1485.68 Q768.564 1487.88 770.485 1489.47 Q772.429 1491.07 774.982 1491.07 Q778.191 1491.07 780.111 1487.95 Q781.259 1485.94 781.259 1481.37 Q781.259 1477.34 780.392 1475.33 Q779.057 1472.26 776.317 1472.26 Q772.429 1472.26 770.133 1475.61 Q769.852 1476.03 769.524 1476.05 Q769.056 1476.05 768.939 1475.8 Q768.845 1475.52 768.845 1474.79 L768.845 1460.6 Q768.845 1459.45 769.314 1459.45 Q769.501 1459.45 769.899 1459.59 Q772.921 1460.92 776.27 1460.95 Q779.713 1460.95 782.805 1459.54 Q783.039 1459.4 783.18 1459.4 Q783.648 1459.4 783.672 1459.94 Q783.672 1460.13 783.273 1460.69 Q782.899 1461.23 782.079 1461.95 Q781.259 1462.66 780.205 1463.34 Q779.151 1464.01 777.605 1464.48 Q776.083 1464.93 774.396 1464.93 Q772.382 1464.93 770.321 1464.3 L770.321 1473.64 Q772.804 1471.21 776.411 1471.21 Q780.252 1471.21 782.899 1474.3 Q785.545 1477.39 785.545 1481.7 Q785.545 1486.22 782.407 1489.31 Q779.292 1492.4 775.076 1492.4 Q771.234 1492.4 768.798 1489.66 Q766.386 1486.92 766.386 1483.62 Z" fill="#000000" fill-rule="nonzero" fill-opacity="1" /><path clip-path="url(#clip120)" d="M790.136 1476.19 Q790.136 1468.65 793.977 1464.04 Q797.818 1459.4 802.761 1459.4 Q805.641 1459.4 807.234 1460.88 Q808.85 1462.33 808.85 1464.58 Q808.85 1465.82 808.124 1466.36 Q807.398 1466.9 806.649 1466.9 Q805.782 1466.9 805.103 1466.31 Q804.424 1465.72 804.424 1464.67 Q804.424 1462.52 807.07 1462.52 Q805.829 1460.6 802.854 1460.6 Q801.941 1460.6 801.004 1460.88 Q800.067 1461.13 798.849 1462.02 Q797.631 1462.91 796.694 1464.32 Q795.757 1465.72 795.101 1468.37 Q794.446 1471.02 794.446 1474.46 L794.446 1475.61 Q796.413 1470.85 800.442 1470.88 Q804.47 1470.88 807.258 1473.95 Q810.045 1477.01 810.045 1481.56 Q810.045 1486.22 807.141 1489.31 Q804.236 1492.4 800.161 1492.4 Q798.334 1492.4 796.671 1491.63 Q795.031 1490.88 793.485 1489.15 Q791.963 1487.41 791.049 1484.09 Q790.136 1480.76 790.136 1476.19 M794.539 1480.5 Q794.539 1485.21 795.406 1487.46 Q795.546 1487.84 795.851 1488.35 Q796.179 1488.87 796.718 1489.55 Q797.28 1490.2 798.193 1490.65 Q799.107 1491.07 800.161 1491.07 Q803.369 1491.07 804.915 1487.95 Q805.735 1486.22 805.735 1481.51 Q805.735 1476.71 804.869 1474.95 Q803.393 1471.98 800.395 1471.98 Q798.381 1471.98 796.975 1473.36 Q795.593 1474.74 795.055 1476.59 Q794.539 1478.44 794.539 1480.5 Z" fill="#000000" fill-rule="nonzero" fill-opacity="1" /><path clip-path="url(#clip120)" d="M814.959 1466.35 Q814.959 1465.75 815.008 1465.57 Q815.074 1465.39 815.336 1465.11 L821.78 1457.93 Q825.305 1453.96 825.305 1450.5 Q825.305 1448.25 824.124 1446.64 Q822.96 1445.04 820.812 1445.04 Q819.337 1445.04 818.091 1445.94 Q816.844 1446.84 816.271 1448.45 Q816.369 1448.42 816.713 1448.42 Q817.549 1448.42 818.009 1448.94 Q818.484 1449.46 818.484 1450.17 Q818.484 1451.07 817.894 1451.51 Q817.32 1451.94 816.746 1451.94 Q816.517 1451.94 816.205 1451.89 Q815.91 1451.84 815.434 1451.38 Q814.959 1450.91 814.959 1450.07 Q814.959 1447.73 816.73 1445.86 Q818.517 1443.99 821.238 1443.99 Q824.321 1443.99 826.338 1445.83 Q828.371 1447.65 828.371 1450.5 Q828.371 1451.5 828.059 1452.42 Q827.764 1453.32 827.354 1454.02 Q826.961 1454.73 825.878 1455.86 Q824.796 1456.99 823.927 1457.79 Q823.058 1458.6 821.107 1460.3 L817.549 1463.76 L823.599 1463.76 Q826.551 1463.76 826.78 1463.5 Q827.108 1463.02 827.518 1460.52 L828.371 1460.52 L827.42 1466.35 L814.959 1466.35 Z" fill="#000000" fill-rule="nonzero" fill-opacity="1" /><path clip-path="url(#clip120)" d="M888.682 1478.72 Q889.103 1478.89 889.103 1479.36 Q889.103 1479.82 888.682 1479.99 Q885.168 1481.16 882.1 1484.98 Q879.922 1487.81 879.313 1491.07 Q879.242 1491.4 878.985 1491.61 Q878.727 1491.82 878.376 1491.82 Q877.978 1491.82 877.696 1491.54 Q877.415 1491.28 877.415 1490.88 Q877.415 1490.86 877.439 1490.79 Q877.462 1490.69 877.462 1490.67 Q878.165 1486.87 880.624 1483.76 Q882.17 1481.79 884.372 1480.32 L847.622 1480.32 Q847.224 1480.32 846.943 1480.04 Q846.662 1479.75 846.662 1479.36 Q846.662 1478.96 846.943 1478.68 Q847.224 1478.4 847.622 1478.4 L884.372 1478.4 Q882.17 1476.92 880.624 1474.95 Q878.165 1471.84 877.462 1468.04 Q877.462 1468.02 877.439 1467.95 Q877.415 1467.86 877.415 1467.83 Q877.415 1467.43 877.696 1467.18 Q877.978 1466.9 878.376 1466.9 Q878.727 1466.9 878.985 1467.11 Q879.242 1467.32 879.313 1467.65 Q879.922 1470.9 882.1 1473.73 Q885.168 1477.55 888.682 1478.72 Z" fill="#000000" fill-rule="nonzero" fill-opacity="1" /><path clip-path="url(#clip120)" d="M907.466 1463.97 L907.466 1462.47 Q913.228 1462.47 916.203 1459.4 Q917.023 1459.4 917.163 1459.59 Q917.304 1459.78 917.304 1460.64 L917.304 1487.55 Q917.304 1488.98 918.007 1489.43 Q918.709 1489.87 921.778 1489.87 L923.3 1489.87 L923.3 1491.35 Q921.614 1491.21 915.524 1491.21 Q909.434 1491.21 907.771 1491.35 L907.771 1489.87 L909.293 1489.87 Q912.315 1489.87 913.041 1489.45 Q913.767 1489.01 913.767 1487.55 L913.767 1462.7 Q911.261 1463.97 907.466 1463.97 Z" fill="#000000" fill-rule="nonzero" fill-opacity="1" /><path clip-path="url(#clip120)" d="M927.805 1491.35 Q927.805 1490.48 927.876 1490.22 Q927.969 1489.97 928.344 1489.57 L937.549 1479.31 Q942.585 1473.64 942.585 1468.7 Q942.585 1465.49 940.899 1463.19 Q939.236 1460.9 936.167 1460.9 Q934.059 1460.9 932.279 1462.19 Q930.499 1463.48 929.679 1465.77 Q929.82 1465.72 930.312 1465.72 Q931.506 1465.72 932.162 1466.47 Q932.841 1467.22 932.841 1468.23 Q932.841 1469.52 931.998 1470.15 Q931.178 1470.76 930.359 1470.76 Q930.031 1470.76 929.586 1470.69 Q929.164 1470.62 928.485 1469.96 Q927.805 1469.28 927.805 1468.09 Q927.805 1464.74 930.335 1462.07 Q932.888 1459.4 936.776 1459.4 Q941.18 1459.4 944.061 1462.02 Q946.965 1464.62 946.965 1468.7 Q946.965 1470.13 946.52 1471.44 Q946.098 1472.73 945.513 1473.73 Q944.951 1474.74 943.405 1476.36 Q941.859 1477.97 940.618 1479.12 Q939.376 1480.27 936.589 1482.71 L931.506 1487.65 L940.149 1487.65 Q944.365 1487.65 944.693 1487.27 Q945.161 1486.59 945.747 1483.01 L946.965 1483.01 L945.607 1491.35 L927.805 1491.35 Z" fill="#000000" fill-rule="nonzero" fill-opacity="1" /><path clip-path="url(#clip120)" d="M951.555 1484.11 Q951.555 1478.75 958.465 1475.28 Q955.49 1473.27 954.952 1472.68 Q952.844 1470.34 952.844 1467.41 Q952.844 1464.06 955.373 1461.74 Q957.926 1459.4 961.533 1459.4 Q964.977 1459.4 967.576 1461.39 Q970.176 1463.38 970.176 1466.54 Q970.176 1470.99 964.368 1473.99 Q968.209 1476.38 969.122 1477.39 Q971.465 1479.99 971.465 1483.29 Q971.465 1487.13 968.513 1489.78 Q965.562 1492.4 961.487 1492.4 Q957.505 1492.4 954.53 1490.08 Q951.555 1487.77 951.555 1484.11 M953.945 1484.11 Q953.945 1487.09 956.17 1489.08 Q958.418 1491.07 961.533 1491.07 Q964.555 1491.07 966.803 1489.33 Q969.075 1487.6 969.075 1485.02 Q969.075 1484.02 968.724 1483.15 Q968.396 1482.28 967.717 1481.6 Q967.061 1480.9 966.64 1480.6 Q966.241 1480.27 965.468 1479.73 L959.566 1476.01 Q953.945 1479.12 953.945 1484.11 M954.952 1465.54 Q954.952 1467.83 957.364 1469.43 L963.314 1473.27 Q968.068 1470.48 968.068 1466.54 Q968.068 1463.99 966.124 1462.3 Q964.18 1460.6 961.487 1460.6 Q958.84 1460.6 956.896 1462 Q954.952 1463.38 954.952 1465.54 Z" fill="#000000" fill-rule="nonzero" fill-opacity="1" /><path clip-path="url(#clip120)" d="M976.379 1466.35 Q976.379 1465.75 976.428 1465.57 Q976.493 1465.39 976.756 1465.11 L983.199 1457.93 Q986.724 1453.96 986.724 1450.5 Q986.724 1448.25 985.544 1446.64 Q984.38 1445.04 982.232 1445.04 Q980.756 1445.04 979.51 1445.94 Q978.264 1446.84 977.69 1448.45 Q977.789 1448.42 978.133 1448.42 Q978.969 1448.42 979.428 1448.94 Q979.904 1449.46 979.904 1450.17 Q979.904 1451.07 979.313 1451.51 Q978.74 1451.94 978.166 1451.94 Q977.936 1451.94 977.625 1451.89 Q977.33 1451.84 976.854 1451.38 Q976.379 1450.91 976.379 1450.07 Q976.379 1447.73 978.149 1445.86 Q979.936 1443.99 982.658 1443.99 Q985.741 1443.99 987.757 1445.83 Q989.79 1447.65 989.79 1450.5 Q989.79 1451.5 989.479 1452.42 Q989.184 1453.32 988.774 1454.02 Q988.38 1454.73 987.298 1455.86 Q986.216 1456.99 985.347 1457.79 Q984.478 1458.6 982.527 1460.3 L978.969 1463.76 L985.019 1463.76 Q987.97 1463.76 988.2 1463.5 Q988.528 1463.02 988.938 1460.52 L989.79 1460.52 L988.839 1466.35 L976.379 1466.35 Z" fill="#000000" fill-rule="nonzero" fill-opacity="1" /><path clip-path="url(#clip120)" d="M455.672 1464.23 L455.672 1462.73 Q461.434 1462.73 464.409 1459.67 Q465.229 1459.67 465.369 1459.85 Q465.51 1460.04 465.51 1460.91 L465.51 1487.82 Q465.51 1489.25 466.213 1489.69 Q466.915 1490.14 469.984 1490.14 L471.506 1490.14 L471.506 1491.61 Q469.82 1491.47 463.73 1491.47 Q457.64 1491.47 455.977 1491.61 L455.977 1490.14 L457.499 1490.14 Q460.521 1490.14 461.247 1489.72 Q461.973 1489.27 461.973 1487.82 L461.973 1462.97 Q459.467 1464.23 455.672 1464.23 Z" fill="#000000" fill-rule="nonzero" fill-opacity="1" /><path clip-path="url(#clip120)" d="M476.011 1491.61 Q476.011 1490.75 476.082 1490.49 Q476.175 1490.23 476.55 1489.83 L485.755 1479.58 Q490.791 1473.91 490.791 1468.96 Q490.791 1465.76 489.105 1463.46 Q487.442 1461.17 484.373 1461.17 Q482.265 1461.17 480.485 1462.45 Q478.705 1463.74 477.885 1466.04 Q478.026 1465.99 478.518 1465.99 Q479.712 1465.99 480.368 1466.74 Q481.047 1467.49 481.047 1468.5 Q481.047 1469.78 480.204 1470.42 Q479.384 1471.03 478.564 1471.03 Q478.237 1471.03 477.792 1470.96 Q477.37 1470.89 476.691 1470.23 Q476.011 1469.55 476.011 1468.36 Q476.011 1465.01 478.541 1462.34 Q481.094 1459.67 484.982 1459.67 Q489.386 1459.67 492.267 1462.29 Q495.171 1464.89 495.171 1468.96 Q495.171 1470.39 494.726 1471.71 Q494.304 1472.99 493.719 1474 Q493.157 1475.01 491.611 1476.62 Q490.065 1478.24 488.824 1479.39 Q487.582 1480.54 484.795 1482.97 L479.712 1487.91 L488.355 1487.91 Q492.571 1487.91 492.899 1487.54 Q493.367 1486.86 493.953 1483.28 L495.171 1483.28 L493.812 1491.61 L476.011 1491.61 Z" fill="#000000" fill-rule="nonzero" fill-opacity="1" /><path clip-path="url(#clip120)" d="M499.761 1484.38 Q499.761 1479.01 506.671 1475.55 Q503.696 1473.53 503.158 1472.95 Q501.05 1470.6 501.05 1467.68 Q501.05 1464.33 503.579 1462.01 Q506.132 1459.67 509.739 1459.67 Q513.182 1459.67 515.782 1461.66 Q518.382 1463.65 518.382 1466.81 Q518.382 1471.26 512.574 1474.26 Q516.415 1476.65 517.328 1477.65 Q519.671 1480.25 519.671 1483.56 Q519.671 1487.4 516.719 1490.04 Q513.768 1492.67 509.693 1492.67 Q505.711 1492.67 502.736 1490.35 Q499.761 1488.03 499.761 1484.38 M502.151 1484.38 Q502.151 1487.35 504.376 1489.34 Q506.624 1491.33 509.739 1491.33 Q512.761 1491.33 515.009 1489.6 Q517.281 1487.87 517.281 1485.29 Q517.281 1484.28 516.93 1483.42 Q516.602 1482.55 515.923 1481.87 Q515.267 1481.17 514.845 1480.86 Q514.447 1480.54 513.674 1480 L507.772 1476.27 Q502.151 1479.39 502.151 1484.38 M503.158 1465.8 Q503.158 1468.1 505.57 1469.69 L511.519 1473.53 Q516.274 1470.74 516.274 1466.81 Q516.274 1464.26 514.33 1462.57 Q512.386 1460.86 509.693 1460.86 Q507.046 1460.86 505.102 1462.27 Q503.158 1463.65 503.158 1465.8 Z" fill="#000000" fill-rule="nonzero" fill-opacity="1" /><path clip-path="url(#clip120)" d="M524.585 1466.62 Q524.585 1466.01 524.634 1465.83 Q524.699 1465.65 524.962 1465.37 L531.405 1458.19 Q534.93 1454.22 534.93 1450.76 Q534.93 1448.52 533.75 1446.91 Q532.586 1445.3 530.438 1445.3 Q528.962 1445.3 527.716 1446.21 Q526.47 1447.11 525.896 1448.71 Q525.995 1448.68 526.339 1448.68 Q527.175 1448.68 527.634 1449.21 Q528.11 1449.73 528.11 1450.44 Q528.11 1451.34 527.519 1451.78 Q526.946 1452.21 526.372 1452.21 Q526.142 1452.21 525.831 1452.16 Q525.536 1452.11 525.06 1451.65 Q524.585 1451.17 524.585 1450.34 Q524.585 1447.99 526.355 1446.12 Q528.142 1444.25 530.864 1444.25 Q533.947 1444.25 535.963 1446.09 Q537.996 1447.91 537.996 1450.76 Q537.996 1451.76 537.685 1452.68 Q537.39 1453.58 536.98 1454.29 Q536.586 1454.99 535.504 1456.12 Q534.422 1457.26 533.553 1458.06 Q532.684 1458.86 530.733 1460.57 L527.175 1464.03 L533.225 1464.03 Q536.176 1464.03 536.406 1463.77 Q536.734 1463.29 537.144 1460.78 L537.996 1460.78 L537.045 1466.62 L524.585 1466.62 Z" fill="#000000" fill-rule="nonzero" fill-opacity="1" /><path clip-path="url(#clip120)" d="M598.307 1478.99 Q598.729 1479.15 598.729 1479.62 Q598.729 1480.09 598.307 1480.25 Q594.794 1481.43 591.726 1485.24 Q589.547 1488.08 588.938 1491.33 Q588.868 1491.66 588.61 1491.87 Q588.353 1492.08 588.001 1492.08 Q587.603 1492.08 587.322 1491.8 Q587.041 1491.54 587.041 1491.15 Q587.041 1491.12 587.064 1491.05 Q587.088 1490.96 587.088 1490.94 Q587.791 1487.14 590.25 1484.03 Q591.796 1482.06 593.998 1480.58 L557.248 1480.58 Q556.85 1480.58 556.568 1480.3 Q556.287 1480.02 556.287 1479.62 Q556.287 1479.22 556.568 1478.94 Q556.85 1478.66 557.248 1478.66 L593.998 1478.66 Q591.796 1477.19 590.25 1475.22 Q587.791 1472.1 587.088 1468.31 Q587.088 1468.29 587.064 1468.22 Q587.041 1468.12 587.041 1468.1 Q587.041 1467.7 587.322 1467.44 Q587.603 1467.16 588.001 1467.16 Q588.353 1467.16 588.61 1467.37 Q588.868 1467.58 588.938 1467.91 Q589.547 1471.17 591.726 1474 Q594.794 1477.82 598.307 1478.99 Z" fill="#000000" fill-rule="nonzero" fill-opacity="1" /><path clip-path="url(#clip120)" d="M617.092 1476.46 Q617.092 1468.92 620.933 1464.3 Q624.775 1459.67 629.717 1459.67 Q632.598 1459.67 634.19 1461.14 Q635.807 1462.59 635.807 1464.84 Q635.807 1466.08 635.081 1466.62 Q634.354 1467.16 633.605 1467.16 Q632.738 1467.16 632.059 1466.58 Q631.38 1465.99 631.38 1464.94 Q631.38 1462.78 634.027 1462.78 Q632.785 1460.86 629.81 1460.86 Q628.897 1460.86 627.96 1461.14 Q627.023 1461.4 625.805 1462.29 Q624.587 1463.18 623.65 1464.58 Q622.713 1465.99 622.058 1468.64 Q621.402 1471.28 621.402 1474.73 L621.402 1475.87 Q623.369 1471.12 627.398 1471.14 Q631.427 1471.14 634.214 1474.21 Q637.001 1477.28 637.001 1481.82 Q637.001 1486.48 634.097 1489.58 Q631.192 1492.67 627.117 1492.67 Q625.29 1492.67 623.627 1491.9 Q621.987 1491.15 620.441 1489.41 Q618.919 1487.68 618.006 1484.35 Q617.092 1481.03 617.092 1476.46 M621.495 1480.77 Q621.495 1485.48 622.362 1487.73 Q622.503 1488.1 622.807 1488.62 Q623.135 1489.13 623.674 1489.81 Q624.236 1490.47 625.149 1490.91 Q626.063 1491.33 627.117 1491.33 Q630.326 1491.33 631.872 1488.22 Q632.691 1486.48 632.691 1481.78 Q632.691 1476.98 631.825 1475.22 Q630.349 1472.24 627.351 1472.24 Q625.337 1472.24 623.931 1473.63 Q622.55 1475.01 622.011 1476.86 Q621.495 1478.71 621.495 1480.77 Z" fill="#000000" fill-rule="nonzero" fill-opacity="1" /><path clip-path="url(#clip120)" d="M640.842 1483.7 L640.842 1482.22 L655.575 1459.71 Q655.95 1459.13 656.535 1459.15 Q657.074 1459.15 657.191 1459.36 Q657.308 1459.57 657.308 1460.39 L657.308 1482.22 L662.11 1482.22 L662.11 1483.7 L657.308 1483.7 L657.308 1487.87 Q657.308 1489.25 657.87 1489.69 Q658.456 1490.14 660.939 1490.14 L661.946 1490.14 L661.946 1491.61 Q659.978 1491.47 655.434 1491.47 Q650.914 1491.47 648.946 1491.61 L648.946 1490.14 L649.953 1490.14 Q652.436 1490.14 653.022 1489.72 Q653.607 1489.27 653.607 1487.87 L653.607 1483.7 L640.842 1483.7 M642.201 1482.22 L653.888 1482.22 L653.888 1464.33 L642.201 1482.22 Z" fill="#000000" fill-rule="nonzero" fill-opacity="1" /><path clip-path="url(#clip120)" d="M667.009 1466.09 Q667.009 1465.48 667.058 1465.3 Q667.124 1465.12 667.386 1464.84 L673.83 1457.66 Q677.355 1453.69 677.355 1450.23 Q677.355 1447.99 676.174 1446.38 Q675.01 1444.77 672.862 1444.77 Q671.387 1444.77 670.141 1445.67 Q668.894 1446.58 668.321 1448.18 Q668.419 1448.15 668.763 1448.15 Q669.599 1448.15 670.059 1448.67 Q670.534 1449.2 670.534 1449.9 Q670.534 1450.81 669.944 1451.25 Q669.37 1451.68 668.796 1451.68 Q668.567 1451.68 668.255 1451.63 Q667.96 1451.58 667.484 1451.12 Q667.009 1450.64 667.009 1449.81 Q667.009 1447.46 668.78 1445.59 Q670.567 1443.72 673.289 1443.72 Q676.371 1443.72 678.388 1445.56 Q680.421 1447.38 680.421 1450.23 Q680.421 1451.23 680.109 1452.15 Q679.814 1453.05 679.404 1453.76 Q679.011 1454.46 677.928 1455.59 Q676.846 1456.73 675.977 1457.53 Q675.108 1458.33 673.157 1460.04 L669.599 1463.5 L675.649 1463.5 Q678.601 1463.5 678.83 1463.23 Q679.158 1462.76 679.568 1460.25 L680.421 1460.25 L679.47 1466.09 L667.009 1466.09 Z" fill="#000000" fill-rule="nonzero" fill-opacity="1" /><path clip-path="url(#clip120)" d="M243.577 1476.46 Q243.577 1468.92 247.419 1464.3 Q251.26 1459.67 256.202 1459.67 Q259.083 1459.67 260.676 1461.14 Q262.292 1462.59 262.292 1464.84 Q262.292 1466.08 261.566 1466.62 Q260.84 1467.16 260.09 1467.16 Q259.224 1467.16 258.544 1466.58 Q257.865 1465.99 257.865 1464.94 Q257.865 1462.78 260.512 1462.78 Q259.27 1460.86 256.296 1460.86 Q255.382 1460.86 254.445 1461.14 Q253.508 1461.4 252.29 1462.29 Q251.073 1463.18 250.136 1464.58 Q249.199 1465.99 248.543 1468.64 Q247.887 1471.28 247.887 1474.73 L247.887 1475.87 Q249.855 1471.12 253.883 1471.14 Q257.912 1471.14 260.699 1474.21 Q263.486 1477.28 263.486 1481.82 Q263.486 1486.48 260.582 1489.58 Q257.678 1492.67 253.602 1492.67 Q251.775 1492.67 250.112 1491.9 Q248.473 1491.15 246.927 1489.41 Q245.404 1487.68 244.491 1484.35 Q243.577 1481.03 243.577 1476.46 M247.981 1480.77 Q247.981 1485.48 248.847 1487.73 Q248.988 1488.1 249.292 1488.62 Q249.62 1489.13 250.159 1489.81 Q250.721 1490.47 251.635 1490.91 Q252.548 1491.33 253.602 1491.33 Q256.811 1491.33 258.357 1488.22 Q259.177 1486.48 259.177 1481.78 Q259.177 1476.98 258.31 1475.22 Q256.834 1472.24 253.836 1472.24 Q251.822 1472.24 250.417 1473.63 Q249.035 1475.01 248.496 1476.86 Q247.981 1478.71 247.981 1480.77 Z" fill="#000000" fill-rule="nonzero" fill-opacity="1" /><path clip-path="url(#clip120)" d="M267.327 1483.7 L267.327 1482.22 L282.06 1459.71 Q282.435 1459.13 283.02 1459.15 Q283.559 1459.15 283.676 1459.36 Q283.793 1459.57 283.793 1460.39 L283.793 1482.22 L288.595 1482.22 L288.595 1483.7 L283.793 1483.7 L283.793 1487.87 Q283.793 1489.25 284.355 1489.69 Q284.941 1490.14 287.424 1490.14 L288.431 1490.14 L288.431 1491.61 Q286.463 1491.47 281.92 1491.47 Q277.399 1491.47 275.431 1491.61 L275.431 1490.14 L276.439 1490.14 Q278.921 1490.14 279.507 1489.72 Q280.093 1489.27 280.093 1487.87 L280.093 1483.7 L267.327 1483.7 M268.686 1482.22 L280.374 1482.22 L280.374 1464.33 L268.686 1482.22 Z" fill="#000000" fill-rule="nonzero" fill-opacity="1" /><path clip-path="url(#clip120)" d="M293.494 1466.09 Q293.494 1465.48 293.543 1465.3 Q293.609 1465.12 293.871 1464.84 L300.315 1457.66 Q303.84 1453.69 303.84 1450.23 Q303.84 1447.99 302.659 1446.38 Q301.495 1444.77 299.347 1444.77 Q297.872 1444.77 296.626 1445.67 Q295.38 1446.58 294.806 1448.18 Q294.904 1448.15 295.249 1448.15 Q296.085 1448.15 296.544 1448.67 Q297.019 1449.2 297.019 1449.9 Q297.019 1450.81 296.429 1451.25 Q295.855 1451.68 295.281 1451.68 Q295.052 1451.68 294.74 1451.63 Q294.445 1451.58 293.97 1451.12 Q293.494 1450.64 293.494 1449.81 Q293.494 1447.46 295.265 1445.59 Q297.052 1443.72 299.774 1443.72 Q302.856 1443.72 304.873 1445.56 Q306.906 1447.38 306.906 1450.23 Q306.906 1451.23 306.594 1452.15 Q306.299 1453.05 305.889 1453.76 Q305.496 1454.46 304.414 1455.59 Q303.332 1456.73 302.463 1457.53 Q301.594 1458.33 299.643 1460.04 L296.085 1463.5 L302.135 1463.5 Q305.086 1463.5 305.316 1463.23 Q305.643 1462.76 306.053 1460.25 L306.906 1460.25 L305.955 1466.09 L293.494 1466.09 Z" fill="#000000" fill-rule="nonzero" fill-opacity="1" /><path clip-path="url(#clip120)" d="M367.217 1478.99 Q367.638 1479.15 367.638 1479.62 Q367.638 1480.09 367.217 1480.25 Q363.704 1481.43 360.635 1485.24 Q358.457 1488.08 357.848 1491.33 Q357.778 1491.66 357.52 1491.87 Q357.262 1492.08 356.911 1492.08 Q356.513 1492.08 356.232 1491.8 Q355.951 1491.54 355.951 1491.15 Q355.951 1491.12 355.974 1491.05 Q355.998 1490.96 355.998 1490.94 Q356.7 1487.14 359.16 1484.03 Q360.705 1482.06 362.907 1480.58 L326.157 1480.58 Q325.759 1480.58 325.478 1480.3 Q325.197 1480.02 325.197 1479.62 Q325.197 1479.22 325.478 1478.94 Q325.759 1478.66 326.157 1478.66 L362.907 1478.66 Q360.705 1477.19 359.16 1475.22 Q356.7 1472.1 355.998 1468.31 Q355.998 1468.29 355.974 1468.22 Q355.951 1468.12 355.951 1468.1 Q355.951 1467.7 356.232 1467.44 Q356.513 1467.16 356.911 1467.16 Q357.262 1467.16 357.52 1467.37 Q357.778 1467.58 357.848 1467.91 Q358.457 1471.17 360.635 1474 Q363.704 1477.82 367.217 1478.99 Z" fill="#000000" fill-rule="nonzero" fill-opacity="1" /><path clip-path="url(#clip120)" d="M386.002 1485.15 Q386.002 1483.72 386.822 1483.04 Q387.641 1482.36 388.695 1482.36 Q389.796 1482.36 390.569 1483.09 Q391.365 1483.79 391.365 1485.03 Q391.365 1486.37 390.429 1487.12 Q389.515 1487.87 388.203 1487.68 Q389.351 1489.6 391.459 1490.47 Q393.591 1491.33 395.558 1491.33 Q397.619 1491.33 399.282 1489.55 Q400.969 1487.77 400.969 1483.42 Q400.969 1479.72 399.516 1477.58 Q398.088 1475.45 395.254 1475.45 L393.146 1475.45 Q392.419 1475.45 392.209 1475.38 Q391.998 1475.31 391.998 1474.91 Q391.998 1474.45 392.724 1474.35 Q393.45 1474.35 394.598 1474.21 Q397.385 1474.12 398.861 1471.71 Q400.196 1469.46 400.196 1466.25 Q400.196 1463.32 398.79 1462.1 Q397.408 1460.86 395.605 1460.86 Q393.919 1460.86 392.068 1461.56 Q390.218 1462.27 389.211 1463.84 Q392.185 1463.84 392.185 1466.25 Q392.185 1467.3 391.506 1468 Q390.85 1468.68 389.749 1468.68 Q388.695 1468.68 387.993 1468.03 Q387.29 1467.35 387.29 1466.2 Q387.29 1463.46 389.726 1461.56 Q392.185 1459.67 395.792 1459.67 Q399.353 1459.67 401.976 1461.54 Q404.623 1463.41 404.623 1466.29 Q404.623 1469.13 402.749 1471.45 Q400.875 1473.77 397.9 1474.73 Q401.554 1475.45 403.733 1477.94 Q405.911 1480.39 405.911 1483.42 Q405.911 1487.16 402.96 1489.93 Q400.008 1492.67 395.699 1492.67 Q391.717 1492.67 388.859 1490.51 Q386.002 1488.36 386.002 1485.15 Z" fill="#000000" fill-rule="nonzero" fill-opacity="1" /><path clip-path="url(#clip120)" d="M409.752 1491.61 Q409.752 1490.75 409.822 1490.49 Q409.916 1490.23 410.29 1489.83 L419.495 1479.58 Q424.531 1473.91 424.531 1468.96 Q424.531 1465.76 422.845 1463.46 Q421.182 1461.17 418.114 1461.17 Q416.006 1461.17 414.225 1462.45 Q412.445 1463.74 411.626 1466.04 Q411.766 1465.99 412.258 1465.99 Q413.452 1465.99 414.108 1466.74 Q414.788 1467.49 414.788 1468.5 Q414.788 1469.78 413.944 1470.42 Q413.125 1471.03 412.305 1471.03 Q411.977 1471.03 411.532 1470.96 Q411.11 1470.89 410.431 1470.23 Q409.752 1469.55 409.752 1468.36 Q409.752 1465.01 412.281 1462.34 Q414.834 1459.67 418.723 1459.67 Q423.126 1459.67 426.007 1462.29 Q428.911 1464.89 428.911 1468.96 Q428.911 1470.39 428.466 1471.71 Q428.045 1472.99 427.459 1474 Q426.897 1475.01 425.351 1476.62 Q423.805 1478.24 422.564 1479.39 Q421.322 1480.54 418.535 1482.97 L413.452 1487.91 L422.095 1487.91 Q426.311 1487.91 426.639 1487.54 Q427.108 1486.86 427.693 1483.28 L428.911 1483.28 L427.553 1491.61 L409.752 1491.61 Z" fill="#000000" fill-rule="nonzero" fill-opacity="1" /><path clip-path="url(#clip120)" d="M433.84 1466.62 Q433.84 1466.01 433.89 1465.83 Q433.955 1465.65 434.218 1465.37 L440.661 1458.19 Q444.186 1454.22 444.186 1450.76 Q444.186 1448.52 443.006 1446.91 Q441.842 1445.3 439.694 1445.3 Q438.218 1445.3 436.972 1446.21 Q435.726 1447.11 435.152 1448.71 Q435.251 1448.68 435.595 1448.68 Q436.431 1448.68 436.89 1449.21 Q437.366 1449.73 437.366 1450.44 Q437.366 1451.34 436.775 1451.78 Q436.201 1452.21 435.628 1452.21 Q435.398 1452.21 435.087 1452.16 Q434.791 1452.11 434.316 1451.65 Q433.84 1451.17 433.84 1450.34 Q433.84 1447.99 435.611 1446.12 Q437.398 1444.25 440.12 1444.25 Q443.202 1444.25 445.219 1446.09 Q447.252 1447.91 447.252 1450.76 Q447.252 1451.76 446.941 1452.68 Q446.646 1453.58 446.236 1454.29 Q445.842 1454.99 444.76 1456.12 Q443.678 1457.26 442.809 1458.06 Q441.94 1458.86 439.989 1460.57 L436.431 1464.03 L442.481 1464.03 Q445.432 1464.03 445.662 1463.77 Q445.99 1463.29 446.4 1460.78 L447.252 1460.78 L446.301 1466.62 L433.84 1466.62 Z" fill="#000000" fill-rule="nonzero" fill-opacity="1" /><path clip-path="url(#clip120)" d="M839.076 1533.76 L839.076 1539.24 Q836.593 1537.87 834.079 1537.2 Q831.596 1536.5 829.05 1536.5 Q823.353 1536.5 820.202 1540.13 Q817.051 1543.73 817.051 1550.25 Q817.051 1556.78 820.202 1560.4 Q823.353 1564 829.05 1564 Q831.596 1564 834.079 1563.33 Q836.593 1562.63 839.076 1561.26 L839.076 1566.68 Q836.625 1567.82 833.984 1568.39 Q831.374 1568.97 828.414 1568.97 Q820.361 1568.97 815.618 1563.91 Q810.876 1558.85 810.876 1550.25 Q810.876 1541.53 815.65 1536.53 Q820.456 1531.54 828.795 1531.54 Q831.501 1531.54 834.079 1532.11 Q836.657 1532.65 839.076 1533.76 Z" fill="#000000" fill-rule="nonzero" fill-opacity="1" /><path clip-path="url(#clip120)" d="M878.894 1546.53 L878.894 1568.04 L873.037 1568.04 L873.037 1546.72 Q873.037 1541.66 871.064 1539.14 Q869.09 1536.63 865.144 1536.63 Q860.401 1536.63 857.664 1539.65 Q854.927 1542.68 854.927 1547.9 L854.927 1568.04 L849.038 1568.04 L849.038 1518.52 L854.927 1518.52 L854.927 1537.93 Q857.027 1534.72 859.86 1533.13 Q862.725 1531.54 866.449 1531.54 Q872.592 1531.54 875.743 1535.36 Q878.894 1539.14 878.894 1546.53 Z" fill="#000000" fill-rule="nonzero" fill-opacity="1" /><path clip-path="url(#clip120)" d="M906.775 1550.12 Q899.678 1550.12 896.94 1551.75 Q894.203 1553.37 894.203 1557.29 Q894.203 1560.4 896.24 1562.25 Q898.309 1564.07 901.842 1564.07 Q906.712 1564.07 909.64 1560.63 Q912.6 1557.16 912.6 1551.43 L912.6 1550.12 L906.775 1550.12 M918.456 1547.71 L918.456 1568.04 L912.6 1568.04 L912.6 1562.63 Q910.595 1565.88 907.603 1567.44 Q904.611 1568.97 900.282 1568.97 Q894.808 1568.97 891.561 1565.91 Q888.347 1562.82 888.347 1557.67 Q888.347 1551.65 892.357 1548.6 Q896.399 1545.54 904.388 1545.54 L912.6 1545.54 L912.6 1544.97 Q912.6 1540.93 909.926 1538.73 Q907.285 1536.5 902.479 1536.5 Q899.423 1536.5 896.527 1537.23 Q893.63 1537.97 890.957 1539.43 L890.957 1534.02 Q894.171 1532.78 897.195 1532.17 Q900.219 1531.54 903.083 1531.54 Q910.818 1531.54 914.637 1535.55 Q918.456 1539.56 918.456 1547.71 Z" fill="#000000" fill-rule="nonzero" fill-opacity="1" /><path clip-path="url(#clip120)" d="M960.152 1546.53 L960.152 1568.04 L954.295 1568.04 L954.295 1546.72 Q954.295 1541.66 952.322 1539.14 Q950.349 1536.63 946.402 1536.63 Q941.659 1536.63 938.922 1539.65 Q936.185 1542.68 936.185 1547.9 L936.185 1568.04 L930.297 1568.04 L930.297 1532.4 L936.185 1532.4 L936.185 1537.93 Q938.286 1534.72 941.118 1533.13 Q943.983 1531.54 947.707 1531.54 Q953.85 1531.54 957.001 1535.36 Q960.152 1539.14 960.152 1546.53 Z" fill="#000000" fill-rule="nonzero" fill-opacity="1" /><path clip-path="url(#clip120)" d="M995.291 1549.81 Q995.291 1543.44 992.649 1539.94 Q990.039 1536.44 985.296 1536.44 Q980.586 1536.44 977.944 1539.94 Q975.334 1543.44 975.334 1549.81 Q975.334 1556.14 977.944 1559.64 Q980.586 1563.14 985.296 1563.14 Q990.039 1563.14 992.649 1559.64 Q995.291 1556.14 995.291 1549.81 M1001.15 1563.62 Q1001.15 1572.72 997.105 1577.15 Q993.063 1581.6 984.723 1581.6 Q981.636 1581.6 978.899 1581.13 Q976.162 1580.68 973.583 1579.72 L973.583 1574.03 Q976.162 1575.43 978.676 1576.1 Q981.19 1576.76 983.8 1576.76 Q989.561 1576.76 992.426 1573.74 Q995.291 1570.75 995.291 1564.67 L995.291 1561.77 Q993.476 1564.92 990.644 1566.48 Q987.811 1568.04 983.864 1568.04 Q977.307 1568.04 973.297 1563.05 Q969.287 1558.05 969.287 1549.81 Q969.287 1541.53 973.297 1536.53 Q977.307 1531.54 983.864 1531.54 Q987.811 1531.54 990.644 1533.1 Q993.476 1534.66 995.291 1537.81 L995.291 1532.4 L1001.15 1532.4 L1001.15 1563.62 Z" fill="#000000" fill-rule="nonzero" fill-opacity="1" /><path clip-path="url(#clip120)" d="M1043.7 1548.76 L1043.7 1551.62 L1016.77 1551.62 Q1017.16 1557.67 1020.4 1560.85 Q1023.68 1564 1029.51 1564 Q1032.88 1564 1036.03 1563.17 Q1039.21 1562.35 1042.33 1560.69 L1042.33 1566.23 Q1039.18 1567.57 1035.87 1568.27 Q1032.56 1568.97 1029.16 1568.97 Q1020.63 1568.97 1015.63 1564 Q1010.66 1559.04 1010.66 1550.57 Q1010.66 1541.82 1015.37 1536.69 Q1020.12 1531.54 1028.14 1531.54 Q1035.33 1531.54 1039.5 1536.18 Q1043.7 1540.8 1043.7 1548.76 M1037.85 1547.04 Q1037.78 1542.23 1035.14 1539.37 Q1032.53 1536.5 1028.2 1536.5 Q1023.3 1536.5 1020.34 1539.27 Q1017.41 1542.04 1016.97 1547.07 L1037.85 1547.04 Z" fill="#000000" fill-rule="nonzero" fill-opacity="1" /><path clip-path="url(#clip120)" d="M1074.03 1532.4 L1079.89 1532.4 L1079.89 1568.04 L1074.03 1568.04 L1074.03 1532.4 M1074.03 1518.52 L1079.89 1518.52 L1079.89 1525.93 L1074.03 1525.93 L1074.03 1518.52 Z" fill="#000000" fill-rule="nonzero" fill-opacity="1" /><path clip-path="url(#clip120)" d="M1121.78 1546.53 L1121.78 1568.04 L1115.92 1568.04 L1115.92 1546.72 Q1115.92 1541.66 1113.95 1539.14 Q1111.97 1536.63 1108.03 1536.63 Q1103.28 1536.63 1100.55 1539.65 Q1097.81 1542.68 1097.81 1547.9 L1097.81 1568.04 L1091.92 1568.04 L1091.92 1532.4 L1097.81 1532.4 L1097.81 1537.93 Q1099.91 1534.72 1102.74 1533.13 Q1105.61 1531.54 1109.33 1531.54 Q1115.48 1531.54 1118.63 1535.36 Q1121.78 1539.14 1121.78 1546.53 Z" fill="#000000" fill-rule="nonzero" fill-opacity="1" /><path clip-path="url(#clip120)" d="M1183.81 1546.53 L1183.81 1568.04 L1177.95 1568.04 L1177.95 1546.72 Q1177.95 1541.66 1175.98 1539.14 Q1174.01 1536.63 1170.06 1536.63 Q1165.32 1536.63 1162.58 1539.65 Q1159.84 1542.68 1159.84 1547.9 L1159.84 1568.04 L1153.96 1568.04 L1153.96 1532.4 L1159.84 1532.4 L1159.84 1537.93 Q1161.94 1534.72 1164.78 1533.13 Q1167.64 1531.54 1171.37 1531.54 Q1177.51 1531.54 1180.66 1535.36 Q1183.81 1539.14 1183.81 1546.53 Z" fill="#000000" fill-rule="nonzero" fill-opacity="1" /><path clip-path="url(#clip120)" d="M1194.89 1553.98 L1194.89 1532.4 L1200.74 1532.4 L1200.74 1553.75 Q1200.74 1558.81 1202.72 1561.36 Q1204.69 1563.87 1208.64 1563.87 Q1213.38 1563.87 1216.12 1560.85 Q1218.89 1557.83 1218.89 1552.61 L1218.89 1532.4 L1224.74 1532.4 L1224.74 1568.04 L1218.89 1568.04 L1218.89 1562.57 Q1216.75 1565.82 1213.92 1567.41 Q1211.12 1568.97 1207.4 1568.97 Q1201.25 1568.97 1198.07 1565.15 Q1194.89 1561.33 1194.89 1553.98 M1209.62 1531.54 L1209.62 1531.54 Z" fill="#000000" fill-rule="nonzero" fill-opacity="1" /><path clip-path="url(#clip120)" d="M1264.56 1539.24 Q1266.76 1535.29 1269.81 1533.41 Q1272.87 1531.54 1277 1531.54 Q1282.57 1531.54 1285.6 1535.45 Q1288.62 1539.33 1288.62 1546.53 L1288.62 1568.04 L1282.73 1568.04 L1282.73 1546.72 Q1282.73 1541.59 1280.92 1539.11 Q1279.11 1536.63 1275.38 1536.63 Q1270.83 1536.63 1268.19 1539.65 Q1265.55 1542.68 1265.55 1547.9 L1265.55 1568.04 L1259.66 1568.04 L1259.66 1546.72 Q1259.66 1541.56 1257.84 1539.11 Q1256.03 1536.63 1252.24 1536.63 Q1247.75 1536.63 1245.11 1539.68 Q1242.47 1542.71 1242.47 1547.9 L1242.47 1568.04 L1236.58 1568.04 L1236.58 1532.4 L1242.47 1532.4 L1242.47 1537.93 Q1244.48 1534.66 1247.28 1533.1 Q1250.08 1531.54 1253.93 1531.54 Q1257.81 1531.54 1260.52 1533.51 Q1263.25 1535.48 1264.56 1539.24 Z" fill="#000000" fill-rule="nonzero" fill-opacity="1" /><path clip-path="url(#clip120)" d="M1325.89 1550.25 Q1325.89 1543.79 1323.22 1540.13 Q1320.58 1536.44 1315.93 1536.44 Q1311.28 1536.44 1308.61 1540.13 Q1305.97 1543.79 1305.97 1550.25 Q1305.97 1556.71 1308.61 1560.4 Q1311.28 1564.07 1315.93 1564.07 Q1320.58 1564.07 1323.22 1560.4 Q1325.89 1556.71 1325.89 1550.25 M1305.97 1537.81 Q1307.81 1534.62 1310.62 1533.1 Q1313.45 1531.54 1317.36 1531.54 Q1323.86 1531.54 1327.9 1536.69 Q1331.97 1541.85 1331.97 1550.25 Q1331.97 1558.65 1327.9 1563.81 Q1323.86 1568.97 1317.36 1568.97 Q1313.45 1568.97 1310.62 1567.44 Q1307.81 1565.88 1305.97 1562.7 L1305.97 1568.04 L1300.08 1568.04 L1300.08 1518.52 L1305.97 1518.52 L1305.97 1537.81 Z" fill="#000000" fill-rule="nonzero" fill-opacity="1" /><path clip-path="url(#clip120)" d="M1372.17 1548.76 L1372.17 1551.62 L1345.25 1551.62 Q1345.63 1557.67 1348.87 1560.85 Q1352.15 1564 1357.98 1564 Q1361.35 1564 1364.5 1563.17 Q1367.68 1562.35 1370.8 1560.69 L1370.8 1566.23 Q1367.65 1567.57 1364.34 1568.27 Q1361.03 1568.97 1357.63 1568.97 Q1349.1 1568.97 1344.1 1564 Q1339.13 1559.04 1339.13 1550.57 Q1339.13 1541.82 1343.84 1536.69 Q1348.59 1531.54 1356.61 1531.54 Q1363.8 1531.54 1367.97 1536.18 Q1372.17 1540.8 1372.17 1548.76 M1366.32 1547.04 Q1366.25 1542.23 1363.61 1539.37 Q1361 1536.5 1356.67 1536.5 Q1351.77 1536.5 1348.81 1539.27 Q1345.88 1542.04 1345.44 1547.07 L1366.32 1547.04 Z" fill="#000000" fill-rule="nonzero" fill-opacity="1" /><path clip-path="url(#clip120)" d="M1402.44 1537.87 Q1401.45 1537.3 1400.28 1537.04 Q1399.13 1536.76 1397.73 1536.76 Q1392.77 1536.76 1390.09 1540 Q1387.45 1543.22 1387.45 1549.27 L1387.45 1568.04 L1381.56 1568.04 L1381.56 1532.4 L1387.45 1532.4 L1387.45 1537.93 Q1389.3 1534.69 1392.26 1533.13 Q1395.22 1531.54 1399.45 1531.54 Q1400.05 1531.54 1400.79 1531.63 Q1401.52 1531.7 1402.41 1531.85 L1402.44 1537.87 Z" fill="#000000" fill-rule="nonzero" fill-opacity="1" /><path clip-path="url(#clip120)" d="M1443.12 1536.5 Q1438.41 1536.5 1435.67 1540.19 Q1432.93 1543.85 1432.93 1550.25 Q1432.93 1556.65 1435.64 1560.34 Q1438.38 1564 1443.12 1564 Q1447.8 1564 1450.53 1560.31 Q1453.27 1556.62 1453.27 1550.25 Q1453.27 1543.92 1450.53 1540.23 Q1447.8 1536.5 1443.12 1536.5 M1443.12 1531.54 Q1450.76 1531.54 1455.12 1536.5 Q1459.48 1541.47 1459.48 1550.25 Q1459.48 1559 1455.12 1564 Q1450.76 1568.97 1443.12 1568.97 Q1435.45 1568.97 1431.09 1564 Q1426.76 1559 1426.76 1550.25 Q1426.76 1541.47 1431.09 1536.5 Q1435.45 1531.54 1443.12 1531.54 Z" fill="#000000" fill-rule="nonzero" fill-opacity="1" /><path clip-path="url(#clip120)" d="M1487.23 1518.52 L1487.23 1523.39 L1481.63 1523.39 Q1478.48 1523.39 1477.24 1524.66 Q1476.03 1525.93 1476.03 1529.24 L1476.03 1532.4 L1485.67 1532.4 L1485.67 1536.95 L1476.03 1536.95 L1476.03 1568.04 L1470.14 1568.04 L1470.14 1536.95 L1464.54 1536.95 L1464.54 1532.4 L1470.14 1532.4 L1470.14 1529.91 Q1470.14 1523.96 1472.91 1521.26 Q1475.68 1518.52 1481.69 1518.52 L1487.23 1518.52 Z" fill="#000000" fill-rule="nonzero" fill-opacity="1" /><path clip-path="url(#clip120)" d="M1536.31 1549.81 Q1536.31 1543.44 1533.67 1539.94 Q1531.06 1536.44 1526.32 1536.44 Q1521.61 1536.44 1518.97 1539.94 Q1516.36 1543.44 1516.36 1549.81 Q1516.36 1556.14 1518.97 1559.64 Q1521.61 1563.14 1526.32 1563.14 Q1531.06 1563.14 1533.67 1559.64 Q1536.31 1556.14 1536.31 1549.81 M1542.17 1563.62 Q1542.17 1572.72 1538.13 1577.15 Q1534.08 1581.6 1525.74 1581.6 Q1522.66 1581.6 1519.92 1581.13 Q1517.18 1580.68 1514.6 1579.72 L1514.6 1574.03 Q1517.18 1575.43 1519.7 1576.1 Q1522.21 1576.76 1524.82 1576.76 Q1530.58 1576.76 1533.45 1573.74 Q1536.31 1570.75 1536.31 1564.67 L1536.31 1561.77 Q1534.5 1564.92 1531.66 1566.48 Q1528.83 1568.04 1524.89 1568.04 Q1518.33 1568.04 1514.32 1563.05 Q1510.31 1558.05 1510.31 1549.81 Q1510.31 1541.53 1514.32 1536.53 Q1518.33 1531.54 1524.89 1531.54 Q1528.83 1531.54 1531.66 1533.1 Q1534.5 1534.66 1536.31 1537.81 L1536.31 1532.4 L1542.17 1532.4 L1542.17 1563.62 Z" fill="#000000" fill-rule="nonzero" fill-opacity="1" /><path clip-path="url(#clip120)" d="M1574.89 1537.87 Q1573.9 1537.3 1572.72 1537.04 Q1571.58 1536.76 1570.18 1536.76 Q1565.21 1536.76 1562.54 1540 Q1559.9 1543.22 1559.9 1549.27 L1559.9 1568.04 L1554.01 1568.04 L1554.01 1532.4 L1559.9 1532.4 L1559.9 1537.93 Q1561.74 1534.69 1564.7 1533.13 Q1567.66 1531.54 1571.9 1531.54 Q1572.5 1531.54 1573.23 1531.63 Q1573.97 1531.7 1574.86 1531.85 L1574.89 1537.87 Z" fill="#000000" fill-rule="nonzero" fill-opacity="1" /><path clip-path="url(#clip120)" d="M1581.03 1532.4 L1586.89 1532.4 L1586.89 1568.04 L1581.03 1568.04 L1581.03 1532.4 M1581.03 1518.52 L1586.89 1518.52 L1586.89 1525.93 L1581.03 1525.93 L1581.03 1518.52 Z" fill="#000000" fill-rule="nonzero" fill-opacity="1" /><path clip-path="url(#clip120)" d="M1622.6 1537.81 L1622.6 1518.52 L1628.46 1518.52 L1628.46 1568.04 L1622.6 1568.04 L1622.6 1562.7 Q1620.75 1565.88 1617.92 1567.44 Q1615.12 1568.97 1611.17 1568.97 Q1604.71 1568.97 1600.64 1563.81 Q1596.6 1558.65 1596.6 1550.25 Q1596.6 1541.85 1600.64 1536.69 Q1604.71 1531.54 1611.17 1531.54 Q1615.12 1531.54 1617.92 1533.1 Q1620.75 1534.62 1622.6 1537.81 M1602.64 1550.25 Q1602.64 1556.71 1605.28 1560.4 Q1607.96 1564.07 1612.6 1564.07 Q1617.25 1564.07 1619.93 1560.4 Q1622.6 1556.71 1622.6 1550.25 Q1622.6 1543.79 1619.93 1540.13 Q1617.25 1536.44 1612.6 1536.44 Q1607.96 1536.44 1605.28 1540.13 Q1602.64 1543.79 1602.64 1550.25 Z" fill="#000000" fill-rule="nonzero" fill-opacity="1" /><path clip-path="url(#clip120)" d="M1646.18 1562.7 L1646.18 1581.6 L1640.3 1581.6 L1640.3 1532.4 L1646.18 1532.4 L1646.18 1537.81 Q1648.03 1534.62 1650.83 1533.1 Q1653.66 1531.54 1657.58 1531.54 Q1664.07 1531.54 1668.11 1536.69 Q1672.19 1541.85 1672.19 1550.25 Q1672.19 1558.65 1668.11 1563.81 Q1664.07 1568.97 1657.58 1568.97 Q1653.66 1568.97 1650.83 1567.44 Q1648.03 1565.88 1646.18 1562.7 M1666.11 1550.25 Q1666.11 1543.79 1663.44 1540.13 Q1660.79 1536.44 1656.15 1536.44 Q1651.5 1536.44 1648.83 1540.13 Q1646.18 1543.79 1646.18 1550.25 Q1646.18 1556.71 1648.83 1560.4 Q1651.5 1564.07 1656.15 1564.07 Q1660.79 1564.07 1663.44 1560.4 Q1666.11 1556.71 1666.11 1550.25 Z" fill="#000000" fill-rule="nonzero" fill-opacity="1" /><path clip-path="url(#clip120)" d="M1695.71 1536.5 Q1691 1536.5 1688.26 1540.19 Q1685.52 1543.85 1685.52 1550.25 Q1685.52 1556.65 1688.23 1560.34 Q1690.97 1564 1695.71 1564 Q1700.39 1564 1703.13 1560.31 Q1705.86 1556.62 1705.86 1550.25 Q1705.86 1543.92 1703.13 1540.23 Q1700.39 1536.5 1695.71 1536.5 M1695.71 1531.54 Q1703.35 1531.54 1707.71 1536.5 Q1712.07 1541.47 1712.07 1550.25 Q1712.07 1559 1707.71 1564 Q1703.35 1568.97 1695.71 1568.97 Q1688.04 1568.97 1683.68 1564 Q1679.35 1559 1679.35 1550.25 Q1679.35 1541.47 1683.68 1536.5 Q1688.04 1531.54 1695.71 1531.54 Z" fill="#000000" fill-rule="nonzero" fill-opacity="1" /><path clip-path="url(#clip120)" d="M1721.78 1532.4 L1727.63 1532.4 L1727.63 1568.04 L1721.78 1568.04 L1721.78 1532.4 M1721.78 1518.52 L1727.63 1518.52 L1727.63 1525.93 L1721.78 1525.93 L1721.78 1518.52 Z" fill="#000000" fill-rule="nonzero" fill-opacity="1" /><path clip-path="url(#clip120)" d="M1769.52 1546.53 L1769.52 1568.04 L1763.66 1568.04 L1763.66 1546.72 Q1763.66 1541.66 1761.69 1539.14 Q1759.72 1536.63 1755.77 1536.63 Q1751.03 1536.63 1748.29 1539.65 Q1745.55 1542.68 1745.55 1547.9 L1745.55 1568.04 L1739.66 1568.04 L1739.66 1532.4 L1745.55 1532.4 L1745.55 1537.93 Q1747.65 1534.72 1750.49 1533.13 Q1753.35 1531.54 1757.07 1531.54 Q1763.22 1531.54 1766.37 1535.36 Q1769.52 1539.14 1769.52 1546.53 Z" fill="#000000" fill-rule="nonzero" fill-opacity="1" /><path clip-path="url(#clip120)" d="M1786.99 1522.27 L1786.99 1532.4 L1799.06 1532.4 L1799.06 1536.95 L1786.99 1536.95 L1786.99 1556.3 Q1786.99 1560.66 1788.17 1561.9 Q1789.38 1563.14 1793.04 1563.14 L1799.06 1563.14 L1799.06 1568.04 L1793.04 1568.04 Q1786.26 1568.04 1783.68 1565.53 Q1781.11 1562.98 1781.11 1556.3 L1781.11 1536.95 L1776.81 1536.95 L1776.81 1532.4 L1781.11 1532.4 L1781.11 1522.27 L1786.99 1522.27 Z" fill="#000000" fill-rule="nonzero" fill-opacity="1" /><path clip-path="url(#clip120)" d="M1829.48 1533.45 L1829.48 1538.98 Q1827 1537.71 1824.33 1537.07 Q1821.65 1536.44 1818.79 1536.44 Q1814.43 1536.44 1812.23 1537.77 Q1810.07 1539.11 1810.07 1541.79 Q1810.07 1543.82 1811.63 1545 Q1813.19 1546.15 1817.9 1547.2 L1819.9 1547.64 Q1826.14 1548.98 1828.75 1551.43 Q1831.39 1553.85 1831.39 1558.21 Q1831.39 1563.17 1827.45 1566.07 Q1823.53 1568.97 1816.66 1568.97 Q1813.79 1568.97 1810.67 1568.39 Q1807.59 1567.85 1804.15 1566.74 L1804.15 1560.69 Q1807.4 1562.38 1810.55 1563.24 Q1813.7 1564.07 1816.78 1564.07 Q1820.92 1564.07 1823.15 1562.66 Q1825.38 1561.23 1825.38 1558.65 Q1825.38 1556.27 1823.76 1554.99 Q1822.16 1553.72 1816.72 1552.54 L1814.68 1552.07 Q1809.24 1550.92 1806.82 1548.56 Q1804.4 1546.18 1804.4 1542.04 Q1804.4 1537.01 1807.97 1534.27 Q1811.53 1531.54 1818.09 1531.54 Q1821.34 1531.54 1824.2 1532.01 Q1827.07 1532.49 1829.48 1533.45 Z" fill="#000000" fill-rule="nonzero" fill-opacity="1" /><polyline clip-path="url(#clip122)" style="stroke:#000000; stroke-linecap:round; stroke-linejoin:round; stroke-width:2; stroke-opacity:0.1; fill:none" points="2352.76,1281.97 289.514,1281.97 "/>
<polyline clip-path="url(#clip122)" style="stroke:#000000; stroke-linecap:round; stroke-linejoin:round; stroke-width:2; stroke-opacity:0.1; fill:none" points="2352.76,1007.64 289.514,1007.64 "/>
<polyline clip-path="url(#clip122)" style="stroke:#000000; stroke-linecap:round; stroke-linejoin:round; stroke-width:2; stroke-opacity:0.1; fill:none" points="2352.76,733.316 289.514,733.316 "/>
<polyline clip-path="url(#clip122)" style="stroke:#000000; stroke-linecap:round; stroke-linejoin:round; stroke-width:2; stroke-opacity:0.1; fill:none" points="2352.76,458.989 289.514,458.989 "/>
<polyline clip-path="url(#clip122)" style="stroke:#000000; stroke-linecap:round; stroke-linejoin:round; stroke-width:2; stroke-opacity:0.1; fill:none" points="2352.76,184.662 289.514,184.662 "/>
<polyline clip-path="url(#clip120)" style="stroke:#000000; stroke-linecap:round; stroke-linejoin:round; stroke-width:4; stroke-opacity:1; fill:none" points="289.514,1423.18 289.514,47.2441 "/>
<polyline clip-path="url(#clip120)" style="stroke:#000000; stroke-linecap:round; stroke-linejoin:round; stroke-width:4; stroke-opacity:1; fill:none" points="289.514,1281.97 308.412,1281.97 "/>
<polyline clip-path="url(#clip120)" style="stroke:#000000; stroke-linecap:round; stroke-linejoin:round; stroke-width:4; stroke-opacity:1; fill:none" points="289.514,1007.64 308.412,1007.64 "/>
<polyline clip-path="url(#clip120)" style="stroke:#000000; stroke-linecap:round; stroke-linejoin:round; stroke-width:4; stroke-opacity:1; fill:none" points="289.514,733.316 308.412,733.316 "/>
<polyline clip-path="url(#clip120)" style="stroke:#000000; stroke-linecap:round; stroke-linejoin:round; stroke-width:4; stroke-opacity:1; fill:none" points="289.514,458.989 308.412,458.989 "/>
<polyline clip-path="url(#clip120)" style="stroke:#000000; stroke-linecap:round; stroke-linejoin:round; stroke-width:4; stroke-opacity:1; fill:none" points="289.514,184.662 308.412,184.662 "/>
<path clip-path="url(#clip120)" d="M114.931 1301.76 L122.57 1301.76 L122.57 1275.4 L114.26 1277.06 L114.26 1272.8 L122.524 1271.14 L127.2 1271.14 L127.2 1301.76 L134.839 1301.76 L134.839 1305.7 L114.931 1305.7 L114.931 1301.76 Z" fill="#000000" fill-rule="nonzero" fill-opacity="1" /><path clip-path="url(#clip120)" d="M154.283 1274.22 Q150.672 1274.22 148.843 1277.78 Q147.038 1281.32 147.038 1288.45 Q147.038 1295.56 148.843 1299.12 Q150.672 1302.66 154.283 1302.66 Q157.917 1302.66 159.723 1299.12 Q161.552 1295.56 161.552 1288.45 Q161.552 1281.32 159.723 1277.78 Q157.917 1274.22 154.283 1274.22 M154.283 1270.51 Q160.093 1270.51 163.149 1275.12 Q166.227 1279.7 166.227 1288.45 Q166.227 1297.18 163.149 1301.78 Q160.093 1306.37 154.283 1306.37 Q148.473 1306.37 145.394 1301.78 Q142.339 1297.18 142.339 1288.45 Q142.339 1279.7 145.394 1275.12 Q148.473 1270.51 154.283 1270.51 Z" fill="#000000" fill-rule="nonzero" fill-opacity="1" /><path clip-path="url(#clip120)" d="M166.227 1264.61 L190.339 1264.61 L190.339 1267.81 L166.227 1267.81 L166.227 1264.61 Z" fill="#000000" fill-rule="nonzero" fill-opacity="1" /><path clip-path="url(#clip120)" d="M208.978 1253.52 L199.386 1268.51 L208.978 1268.51 L208.978 1253.52 M207.981 1250.21 L212.758 1250.21 L212.758 1268.51 L216.764 1268.51 L216.764 1271.67 L212.758 1271.67 L212.758 1278.29 L208.978 1278.29 L208.978 1271.67 L196.301 1271.67 L196.301 1268 L207.981 1250.21 Z" fill="#000000" fill-rule="nonzero" fill-opacity="1" /><path clip-path="url(#clip120)" d="M223.046 1273.51 L227.014 1273.51 L227.014 1278.29 L223.046 1278.29 L223.046 1273.51 Z" fill="#000000" fill-rule="nonzero" fill-opacity="1" /><path clip-path="url(#clip120)" d="M245.728 1253.52 L236.136 1268.51 L245.728 1268.51 L245.728 1253.52 M244.731 1250.21 L249.508 1250.21 L249.508 1268.51 L253.514 1268.51 L253.514 1271.67 L249.508 1271.67 L249.508 1278.29 L245.728 1278.29 L245.728 1271.67 L233.051 1271.67 L233.051 1268 L244.731 1250.21 Z" fill="#000000" fill-rule="nonzero" fill-opacity="1" /><path clip-path="url(#clip120)" d="M116.624 1027.43 L124.263 1027.43 L124.263 1001.07 L115.953 1002.74 L115.953 998.477 L124.217 996.81 L128.893 996.81 L128.893 1027.43 L136.531 1027.43 L136.531 1031.37 L116.624 1031.37 L116.624 1027.43 Z" fill="#000000" fill-rule="nonzero" fill-opacity="1" /><path clip-path="url(#clip120)" d="M155.976 999.889 Q152.365 999.889 150.536 1003.45 Q148.73 1007 148.73 1014.12 Q148.73 1021.23 150.536 1024.8 Q152.365 1028.34 155.976 1028.34 Q159.61 1028.34 161.416 1024.8 Q163.244 1021.23 163.244 1014.12 Q163.244 1007 161.416 1003.45 Q159.61 999.889 155.976 999.889 M155.976 996.185 Q161.786 996.185 164.841 1000.79 Q167.92 1005.37 167.92 1014.12 Q167.92 1022.85 164.841 1027.46 Q161.786 1032.04 155.976 1032.04 Q150.166 1032.04 147.087 1027.46 Q144.031 1022.85 144.031 1014.12 Q144.031 1005.37 147.087 1000.79 Q150.166 996.185 155.976 996.185 Z" fill="#000000" fill-rule="nonzero" fill-opacity="1" /><path clip-path="url(#clip120)" d="M167.92 990.286 L192.032 990.286 L192.032 993.484 L167.92 993.484 L167.92 990.286 Z" fill="#000000" fill-rule="nonzero" fill-opacity="1" /><path clip-path="url(#clip120)" d="M210.67 979.19 L201.078 994.18 L210.67 994.18 L210.67 979.19 M209.673 975.88 L214.451 975.88 L214.451 994.18 L218.457 994.18 L218.457 997.339 L214.451 997.339 L214.451 1003.96 L210.67 1003.96 L210.67 997.339 L197.994 997.339 L197.994 993.672 L209.673 975.88 Z" fill="#000000" fill-rule="nonzero" fill-opacity="1" /><path clip-path="url(#clip120)" d="M224.738 999.182 L228.707 999.182 L228.707 1003.96 L224.738 1003.96 L224.738 999.182 Z" fill="#000000" fill-rule="nonzero" fill-opacity="1" /><path clip-path="url(#clip120)" d="M240.255 1000.76 L253.514 1000.76 L253.514 1003.96 L235.685 1003.96 L235.685 1000.76 Q237.847 998.524 241.571 994.763 Q245.314 990.982 246.273 989.891 Q248.098 987.841 248.812 986.431 Q249.546 985.001 249.546 983.628 Q249.546 981.39 247.966 979.98 Q246.405 978.569 243.885 978.569 Q242.098 978.569 240.104 979.19 Q238.13 979.81 235.873 981.071 L235.873 977.234 Q238.167 976.312 240.161 975.842 Q242.154 975.372 243.81 975.372 Q248.173 975.372 250.768 977.553 Q253.364 979.735 253.364 983.384 Q253.364 985.114 252.706 986.675 Q252.066 988.217 250.355 990.324 Q249.884 990.869 247.364 993.484 Q244.844 996.079 240.255 1000.76 Z" fill="#000000" fill-rule="nonzero" fill-opacity="1" /><path clip-path="url(#clip120)" d="M115.326 753.108 L122.965 753.108 L122.965 726.742 L114.655 728.409 L114.655 724.15 L122.919 722.483 L127.595 722.483 L127.595 753.108 L135.234 753.108 L135.234 757.043 L115.326 757.043 L115.326 753.108 Z" fill="#000000" fill-rule="nonzero" fill-opacity="1" /><path clip-path="url(#clip120)" d="M154.678 725.562 Q151.067 725.562 149.238 729.127 Q147.433 732.668 147.433 739.798 Q147.433 746.904 149.238 750.469 Q151.067 754.011 154.678 754.011 Q158.312 754.011 160.118 750.469 Q161.947 746.904 161.947 739.798 Q161.947 732.668 160.118 729.127 Q158.312 725.562 154.678 725.562 M154.678 721.858 Q160.488 721.858 163.544 726.465 Q166.622 731.048 166.622 739.798 Q166.622 748.525 163.544 753.131 Q160.488 757.714 154.678 757.714 Q148.868 757.714 145.789 753.131 Q142.734 748.525 142.734 739.798 Q142.734 731.048 145.789 726.465 Q148.868 721.858 154.678 721.858 Z" fill="#000000" fill-rule="nonzero" fill-opacity="1" /><path clip-path="url(#clip120)" d="M166.622 715.959 L190.734 715.959 L190.734 719.157 L166.622 719.157 L166.622 715.959 Z" fill="#000000" fill-rule="nonzero" fill-opacity="1" /><path clip-path="url(#clip120)" d="M209.372 704.863 L199.781 719.853 L209.372 719.853 L209.372 704.863 M208.376 701.553 L213.153 701.553 L213.153 719.853 L217.159 719.853 L217.159 723.012 L213.153 723.012 L213.153 729.633 L209.372 729.633 L209.372 723.012 L196.696 723.012 L196.696 719.345 L208.376 701.553 Z" fill="#000000" fill-rule="nonzero" fill-opacity="1" /><path clip-path="url(#clip120)" d="M223.441 724.856 L227.409 724.856 L227.409 729.633 L223.441 729.633 L223.441 724.856 Z" fill="#000000" fill-rule="nonzero" fill-opacity="1" /><path clip-path="url(#clip120)" d="M243.81 704.054 Q240.876 704.054 239.39 706.951 Q237.923 709.828 237.923 715.621 Q237.923 721.395 239.39 724.291 Q240.876 727.169 243.81 727.169 Q246.762 727.169 248.229 724.291 Q249.715 721.395 249.715 715.621 Q249.715 709.828 248.229 706.951 Q246.762 704.054 243.81 704.054 M243.81 701.045 Q248.53 701.045 251.013 704.788 Q253.514 708.512 253.514 715.621 Q253.514 722.711 251.013 726.454 Q248.53 730.178 243.81 730.178 Q239.089 730.178 236.587 726.454 Q234.105 722.711 234.105 715.621 Q234.105 708.512 236.587 704.788 Q239.089 701.045 243.81 701.045 Z" fill="#000000" fill-rule="nonzero" fill-opacity="1" /><path clip-path="url(#clip120)" d="M115.402 478.781 L123.04 478.781 L123.04 452.416 L114.73 454.082 L114.73 449.823 L122.994 448.156 L127.67 448.156 L127.67 478.781 L135.309 478.781 L135.309 482.716 L115.402 482.716 L115.402 478.781 Z" fill="#000000" fill-rule="nonzero" fill-opacity="1" /><path clip-path="url(#clip120)" d="M154.753 451.235 Q151.142 451.235 149.313 454.8 Q147.508 458.341 147.508 465.471 Q147.508 472.577 149.313 476.142 Q151.142 479.684 154.753 479.684 Q158.388 479.684 160.193 476.142 Q162.022 472.577 162.022 465.471 Q162.022 458.341 160.193 454.8 Q158.388 451.235 154.753 451.235 M154.753 447.531 Q160.563 447.531 163.619 452.138 Q166.698 456.721 166.698 465.471 Q166.698 474.198 163.619 478.804 Q160.563 483.388 154.753 483.388 Q148.943 483.388 145.864 478.804 Q142.809 474.198 142.809 465.471 Q142.809 456.721 145.864 452.138 Q148.943 447.531 154.753 447.531 Z" fill="#000000" fill-rule="nonzero" fill-opacity="1" /><path clip-path="url(#clip120)" d="M166.698 441.633 L190.809 441.633 L190.809 444.83 L166.698 444.83 L166.698 441.633 Z" fill="#000000" fill-rule="nonzero" fill-opacity="1" /><path clip-path="url(#clip120)" d="M210.52 440.166 Q213.247 440.749 214.77 442.592 Q216.313 444.435 216.313 447.143 Q216.313 451.3 213.454 453.576 Q210.595 455.851 205.329 455.851 Q203.561 455.851 201.68 455.494 Q199.818 455.155 197.825 454.46 L197.825 450.792 Q199.404 451.714 201.285 452.184 Q203.166 452.654 205.216 452.654 Q208.789 452.654 210.651 451.243 Q212.532 449.833 212.532 447.143 Q212.532 444.661 210.783 443.269 Q209.053 441.858 205.949 441.858 L202.677 441.858 L202.677 438.736 L206.1 438.736 Q208.902 438.736 210.388 437.627 Q211.874 436.498 211.874 434.392 Q211.874 432.229 210.332 431.081 Q208.808 429.915 205.949 429.915 Q204.388 429.915 202.602 430.254 Q200.815 430.592 198.671 431.307 L198.671 427.922 Q200.834 427.32 202.715 427.019 Q204.614 426.718 206.288 426.718 Q210.614 426.718 213.134 428.693 Q215.654 430.649 215.654 433.997 Q215.654 436.329 214.319 437.946 Q212.984 439.545 210.52 440.166 Z" fill="#000000" fill-rule="nonzero" fill-opacity="1" /><path clip-path="url(#clip120)" d="M223.516 450.529 L227.484 450.529 L227.484 455.306 L223.516 455.306 L223.516 450.529 Z" fill="#000000" fill-rule="nonzero" fill-opacity="1" /><path clip-path="url(#clip120)" d="M243.885 441.971 Q241.176 441.971 239.615 443.419 Q238.073 444.868 238.073 447.407 Q238.073 449.946 239.615 451.394 Q241.176 452.842 243.885 452.842 Q246.593 452.842 248.154 451.394 Q249.715 449.927 249.715 447.407 Q249.715 444.868 248.154 443.419 Q246.612 441.971 243.885 441.971 M240.086 440.354 Q237.641 439.752 236.268 438.078 Q234.913 436.404 234.913 433.997 Q234.913 430.63 237.302 428.674 Q239.709 426.718 243.885 426.718 Q248.079 426.718 250.467 428.674 Q252.856 430.63 252.856 433.997 Q252.856 436.404 251.483 438.078 Q250.129 439.752 247.703 440.354 Q250.449 440.993 251.972 442.855 Q253.514 444.717 253.514 447.407 Q253.514 451.488 251.013 453.67 Q248.53 455.851 243.885 455.851 Q239.239 455.851 236.738 453.67 Q234.255 451.488 234.255 447.407 Q234.255 444.717 235.797 442.855 Q237.34 440.993 240.086 440.354 M238.694 434.354 Q238.694 436.536 240.048 437.758 Q241.421 438.981 243.885 438.981 Q246.33 438.981 247.703 437.758 Q249.095 436.536 249.095 434.354 Q249.095 432.172 247.703 430.95 Q246.33 429.727 243.885 429.727 Q241.421 429.727 240.048 430.95 Q238.694 432.172 238.694 434.354 Z" fill="#000000" fill-rule="nonzero" fill-opacity="1" /><path clip-path="url(#clip120)" d="M115.195 204.454 L122.834 204.454 L122.834 178.089 L114.523 179.755 L114.523 175.496 L122.787 173.829 L127.463 173.829 L127.463 204.454 L135.102 204.454 L135.102 208.389 L115.195 208.389 L115.195 204.454 Z" fill="#000000" fill-rule="nonzero" fill-opacity="1" /><path clip-path="url(#clip120)" d="M154.546 176.908 Q150.935 176.908 149.107 180.473 Q147.301 184.015 147.301 191.144 Q147.301 198.251 149.107 201.815 Q150.935 205.357 154.546 205.357 Q158.181 205.357 159.986 201.815 Q161.815 198.251 161.815 191.144 Q161.815 184.015 159.986 180.473 Q158.181 176.908 154.546 176.908 M154.546 173.204 Q160.357 173.204 163.412 177.811 Q166.491 182.394 166.491 191.144 Q166.491 199.871 163.412 204.477 Q160.357 209.061 154.546 209.061 Q148.736 209.061 145.658 204.477 Q142.602 199.871 142.602 191.144 Q142.602 182.394 145.658 177.811 Q148.736 173.204 154.546 173.204 Z" fill="#000000" fill-rule="nonzero" fill-opacity="1" /><path clip-path="url(#clip120)" d="M166.491 167.306 L190.602 167.306 L190.602 170.503 L166.491 170.503 L166.491 167.306 Z" fill="#000000" fill-rule="nonzero" fill-opacity="1" /><path clip-path="url(#clip120)" d="M210.313 165.839 Q213.04 166.422 214.563 168.265 Q216.106 170.108 216.106 172.816 Q216.106 176.973 213.247 179.249 Q210.388 181.524 205.122 181.524 Q203.354 181.524 201.473 181.167 Q199.611 180.829 197.618 180.133 L197.618 176.465 Q199.197 177.387 201.078 177.857 Q202.959 178.327 205.009 178.327 Q208.583 178.327 210.445 176.917 Q212.325 175.506 212.325 172.816 Q212.325 170.334 210.576 168.942 Q208.846 167.532 205.743 167.532 L202.47 167.532 L202.47 164.409 L205.893 164.409 Q208.695 164.409 210.181 163.3 Q211.667 162.171 211.667 160.065 Q211.667 157.902 210.125 156.755 Q208.601 155.589 205.743 155.589 Q204.182 155.589 202.395 155.927 Q200.608 156.266 198.464 156.98 L198.464 153.595 Q200.627 152.993 202.508 152.692 Q204.407 152.391 206.081 152.391 Q210.407 152.391 212.927 154.366 Q215.447 156.322 215.447 159.67 Q215.447 162.002 214.112 163.619 Q212.777 165.218 210.313 165.839 Z" fill="#000000" fill-rule="nonzero" fill-opacity="1" /><path clip-path="url(#clip120)" d="M223.309 176.202 L227.277 176.202 L227.277 180.979 L223.309 180.979 L223.309 176.202 Z" fill="#000000" fill-rule="nonzero" fill-opacity="1" /><path clip-path="url(#clip120)" d="M244.148 165.425 Q241.59 165.425 240.086 167.174 Q238.6 168.923 238.6 171.97 Q238.6 174.998 240.086 176.766 Q241.59 178.515 244.148 178.515 Q246.706 178.515 248.192 176.766 Q249.696 174.998 249.696 171.97 Q249.696 168.923 248.192 167.174 Q246.706 165.425 244.148 165.425 M251.69 153.52 L251.69 156.98 Q250.261 156.303 248.794 155.946 Q247.345 155.589 245.916 155.589 Q242.154 155.589 240.161 158.128 Q238.186 160.667 237.904 165.801 Q239.014 164.165 240.687 163.3 Q242.361 162.416 244.374 162.416 Q248.606 162.416 251.051 164.992 Q253.514 167.55 253.514 171.97 Q253.514 176.296 250.956 178.91 Q248.399 181.524 244.148 181.524 Q239.277 181.524 236.7 177.801 Q234.124 174.058 234.124 166.967 Q234.124 160.309 237.283 156.36 Q240.443 152.391 245.766 152.391 Q247.195 152.391 248.643 152.673 Q250.11 152.955 251.69 153.52 Z" fill="#000000" fill-rule="nonzero" fill-opacity="1" /><path clip-path="url(#clip120)" d="M33.7671 869.783 L14.479 869.783 L14.479 863.927 L64.0042 863.927 L64.0042 869.783 L58.657 869.783 Q61.8398 871.629 63.3994 874.462 Q64.9272 877.263 64.9272 881.209 Q64.9272 887.671 59.771 891.745 Q54.6147 895.787 46.212 895.787 Q37.8093 895.787 32.6531 891.745 Q27.4968 887.671 27.4968 881.209 Q27.4968 877.263 29.0564 874.462 Q30.5842 871.629 33.7671 869.783 M46.212 889.739 Q52.6732 889.739 56.3653 887.098 Q60.0256 884.424 60.0256 879.777 Q60.0256 875.13 56.3653 872.457 Q52.6732 869.783 46.212 869.783 Q39.7508 869.783 36.0905 872.457 Q32.3984 875.13 32.3984 879.777 Q32.3984 884.424 36.0905 887.098 Q39.7508 889.739 46.212 889.739 Z" fill="#000000" fill-rule="nonzero" fill-opacity="1" /><path clip-path="url(#clip120)" d="M28.3562 851.864 L28.3562 846.007 L64.0042 846.007 L64.0042 851.864 L28.3562 851.864 M14.479 851.864 L14.479 846.007 L21.895 846.007 L21.895 851.864 L14.479 851.864 Z" fill="#000000" fill-rule="nonzero" fill-opacity="1" /><path clip-path="url(#clip120)" d="M14.479 815.706 L19.3487 815.706 L19.3487 821.308 Q19.3487 824.459 20.6219 825.7 Q21.895 826.91 25.2052 826.91 L28.3562 826.91 L28.3562 817.266 L32.9077 817.266 L32.9077 826.91 L64.0042 826.91 L64.0042 832.798 L32.9077 832.798 L32.9077 838.4 L28.3562 838.4 L28.3562 832.798 L25.8736 832.798 Q19.9216 832.798 17.2162 830.029 Q14.479 827.26 14.479 821.244 L14.479 815.706 Z" fill="#000000" fill-rule="nonzero" fill-opacity="1" /><path clip-path="url(#clip120)" d="M14.479 792.758 L19.3487 792.758 L19.3487 798.36 Q19.3487 801.511 20.6219 802.752 Q21.895 803.962 25.2052 803.962 L28.3562 803.962 L28.3562 794.318 L32.9077 794.318 L32.9077 803.962 L64.0042 803.962 L64.0042 809.85 L32.9077 809.85 L32.9077 815.452 L28.3562 815.452 L28.3562 809.85 L25.8736 809.85 Q19.9216 809.85 17.2162 807.081 Q14.479 804.312 14.479 798.296 L14.479 792.758 Z" fill="#000000" fill-rule="nonzero" fill-opacity="1" /><path clip-path="url(#clip120)" d="M44.7161 757.365 L47.5806 757.365 L47.5806 784.292 Q53.6281 783.91 56.8109 780.663 Q59.9619 777.385 59.9619 771.56 Q59.9619 768.186 59.1344 765.035 Q58.3069 761.852 56.6518 758.733 L62.1899 758.733 Q63.5267 761.884 64.227 765.194 Q64.9272 768.505 64.9272 771.91 Q64.9272 780.44 59.9619 785.437 Q54.9967 790.403 46.5303 790.403 Q37.7774 790.403 32.6531 785.692 Q27.4968 780.95 27.4968 772.929 Q27.4968 765.736 32.1438 761.566 Q36.7589 757.365 44.7161 757.365 M42.9973 763.221 Q38.1912 763.285 35.3266 765.927 Q32.4621 768.536 32.4621 772.865 Q32.4621 777.767 35.2312 780.727 Q38.0002 783.655 43.0292 784.101 L42.9973 763.221 Z" fill="#000000" fill-rule="nonzero" fill-opacity="1" /><path clip-path="url(#clip120)" d="M33.8307 727.096 Q33.2578 728.082 33.0032 729.26 Q32.7167 730.406 32.7167 731.806 Q32.7167 736.772 35.9632 739.445 Q39.1779 742.087 45.2253 742.087 L64.0042 742.087 L64.0042 747.975 L28.3562 747.975 L28.3562 742.087 L33.8944 742.087 Q30.6479 740.241 29.0883 737.281 Q27.4968 734.321 27.4968 730.088 Q27.4968 729.483 27.5923 728.751 Q27.656 728.019 27.8151 727.128 L33.8307 727.096 Z" fill="#000000" fill-rule="nonzero" fill-opacity="1" /><path clip-path="url(#clip120)" d="M44.7161 691.893 L47.5806 691.893 L47.5806 718.82 Q53.6281 718.438 56.8109 715.192 Q59.9619 711.913 59.9619 706.089 Q59.9619 702.715 59.1344 699.564 Q58.3069 696.381 56.6518 693.262 L62.1899 693.262 Q63.5267 696.413 64.227 699.723 Q64.9272 703.033 64.9272 706.439 Q64.9272 714.969 59.9619 719.966 Q54.9967 724.931 46.5303 724.931 Q37.7774 724.931 32.6531 720.221 Q27.4968 715.478 27.4968 707.457 Q27.4968 700.264 32.1438 696.095 Q36.7589 691.893 44.7161 691.893 M42.9973 697.75 Q38.1912 697.813 35.3266 700.455 Q32.4621 703.065 32.4621 707.394 Q32.4621 712.295 35.2312 715.255 Q38.0002 718.184 43.0292 718.629 L42.9973 697.75 Z" fill="#000000" fill-rule="nonzero" fill-opacity="1" /><path clip-path="url(#clip120)" d="M42.4881 652.649 L64.0042 652.649 L64.0042 658.505 L42.679 658.505 Q37.6183 658.505 35.1038 660.479 Q32.5894 662.452 32.5894 666.399 Q32.5894 671.141 35.6131 673.878 Q38.6368 676.616 43.8567 676.616 L64.0042 676.616 L64.0042 682.504 L28.3562 682.504 L28.3562 676.616 L33.8944 676.616 Q30.6797 674.515 29.0883 671.682 Q27.4968 668.818 27.4968 665.094 Q27.4968 658.951 31.3163 655.8 Q35.1038 652.649 42.4881 652.649 Z" fill="#000000" fill-rule="nonzero" fill-opacity="1" /><path clip-path="url(#clip120)" d="M29.7248 615.314 L35.1993 615.314 Q33.8307 617.797 33.1623 620.311 Q32.4621 622.794 32.4621 625.34 Q32.4621 631.037 36.0905 634.188 Q39.6872 637.339 46.212 637.339 Q52.7369 637.339 56.3653 634.188 Q59.9619 631.037 59.9619 625.34 Q59.9619 622.794 59.2935 620.311 Q58.5933 617.797 57.2247 615.314 L62.6355 615.314 Q63.7814 617.765 64.3543 620.406 Q64.9272 623.016 64.9272 625.976 Q64.9272 634.029 59.8664 638.772 Q54.8057 643.514 46.212 643.514 Q37.491 643.514 32.4939 638.74 Q27.4968 633.934 27.4968 625.595 Q27.4968 622.889 28.0697 620.311 Q28.6108 617.733 29.7248 615.314 Z" fill="#000000" fill-rule="nonzero" fill-opacity="1" /><path clip-path="url(#clip120)" d="M44.7161 574.637 L47.5806 574.637 L47.5806 601.564 Q53.6281 601.182 56.8109 597.936 Q59.9619 594.657 59.9619 588.833 Q59.9619 585.459 59.1344 582.308 Q58.3069 579.125 56.6518 576.006 L62.1899 576.006 Q63.5267 579.157 64.227 582.467 Q64.9272 585.777 64.9272 589.183 Q64.9272 597.713 59.9619 602.71 Q54.9967 607.675 46.5303 607.675 Q37.7774 607.675 32.6531 602.964 Q27.4968 598.222 27.4968 590.201 Q27.4968 583.008 32.1438 578.838 Q36.7589 574.637 44.7161 574.637 M42.9973 580.493 Q38.1912 580.557 35.3266 583.199 Q32.4621 585.809 32.4621 590.138 Q32.4621 595.039 35.2312 597.999 Q38.0002 600.927 43.0292 601.373 L42.9973 580.493 Z" fill="#000000" fill-rule="nonzero" fill-opacity="1" /><circle clip-path="url(#clip122)" cx="2294.36" cy="1384.24" r="14.4" fill="#009af9" fill-rule="evenodd" fill-opacity="1" stroke="#000000" stroke-opacity="1" stroke-width="3.2"/>
<circle clip-path="url(#clip122)" cx="1321.14" cy="846.708" r="14.4" fill="#009af9" fill-rule="evenodd" fill-opacity="1" stroke="#000000" stroke-opacity="1" stroke-width="3.2"/>
<circle clip-path="url(#clip122)" cx="868.61" cy="400.131" r="14.4" fill="#009af9" fill-rule="evenodd" fill-opacity="1" stroke="#000000" stroke-opacity="1" stroke-width="3.2"/>
<circle clip-path="url(#clip122)" cx="570.54" cy="124.986" r="14.4" fill="#009af9" fill-rule="evenodd" fill-opacity="1" stroke="#000000" stroke-opacity="1" stroke-width="3.2"/>
<circle clip-path="url(#clip122)" cx="347.908" cy="86.1857" r="14.4" fill="#009af9" fill-rule="evenodd" fill-opacity="1" stroke="#000000" stroke-opacity="1" stroke-width="3.2"/>
<path clip-path="url(#clip120)" d="M2009.62 196.789 L2283.98 196.789 L2283.98 93.1086 L2009.62 93.1086  Z" fill="#ffffff" fill-rule="evenodd" fill-opacity="1"/>
<polyline clip-path="url(#clip120)" style="stroke:#000000; stroke-linecap:round; stroke-linejoin:round; stroke-width:4; stroke-opacity:1; fill:none" points="2009.62,196.789 2283.98,196.789 2283.98,93.1086 2009.62,93.1086 2009.62,196.789 "/>
<circle clip-path="url(#clip120)" cx="2101.32" cy="144.949" r="20.48" fill="#009af9" fill-rule="evenodd" fill-opacity="1" stroke="#000000" stroke-opacity="1" stroke-width="4.55111"/>
<path clip-path="url(#clip120)" d="M2193.02 156.613 Q2193.02 156.426 2193.66 155.208 Q2194.29 153.966 2196.51 149.539 Q2198.74 145.089 2201.03 140.428 L2209.3 123.798 Q2209.89 122.744 2210.64 122.744 Q2211.32 122.744 2211.62 123.166 Q2211.93 123.587 2213.33 126.421 Q2214.06 127.803 2214.48 128.693 L2228.04 155.84 Q2228.27 156.426 2228.3 156.613 Q2228.3 157.081 2227.48 157.081 L2194.29 157.081 Q2193.02 157.081 2193.02 156.613 M2196.19 153.428 L2222 153.428 L2209.09 127.522 L2196.19 153.428 Z" fill="#000000" fill-rule="nonzero" fill-opacity="1" /><path clip-path="url(#clip120)" d="M2257.92 144.504 Q2257.92 146.869 2256.7 149.235 Q2255.48 151.601 2253.49 153.428 Q2251.5 155.231 2248.78 156.402 Q2246.06 157.573 2243.23 157.667 L2241.4 164.811 Q2241.05 166.544 2240.86 166.731 Q2240.68 166.919 2240.4 166.919 Q2239.81 166.919 2239.81 166.38 Q2239.81 166.216 2240.86 162.164 L2241.99 157.667 Q2237.73 157.433 2235.24 154.973 Q2232.76 152.514 2232.76 148.977 Q2232.76 146.588 2233.98 144.223 Q2235.22 141.833 2237.21 140.03 Q2239.22 138.226 2241.94 137.079 Q2244.66 135.931 2247.45 135.837 L2250.23 124.758 Q2250.37 124.126 2250.49 123.962 Q2250.61 123.798 2250.96 123.798 Q2251.22 123.798 2251.36 123.915 Q2251.5 124.032 2251.5 124.149 L2251.52 124.267 L2251.38 124.946 L2248.69 135.837 Q2251.08 136.001 2252.93 136.844 Q2254.78 137.688 2255.83 138.952 Q2256.89 140.194 2257.4 141.599 Q2257.92 143.005 2257.92 144.504 M2247.17 136.891 Q2244.59 137.126 2242.41 138.39 Q2240.23 139.655 2238.83 141.529 Q2237.42 143.379 2236.65 145.604 Q2235.88 147.806 2235.88 149.984 Q2235.88 151.694 2236.44 153.006 Q2237.02 154.318 2237.98 155.067 Q2238.94 155.793 2240 156.191 Q2241.08 156.566 2242.22 156.613 L2247.17 136.891 M2254.78 143.496 Q2254.78 140.451 2253.02 138.742 Q2251.26 137.032 2248.41 136.891 L2243.46 156.613 Q2245.55 156.449 2247.38 155.582 Q2249.23 154.692 2250.56 153.381 Q2251.9 152.046 2252.86 150.406 Q2253.82 148.743 2254.29 146.986 Q2254.78 145.206 2254.78 143.496 Z" fill="#000000" fill-rule="nonzero" fill-opacity="1" /></svg>
