<?xml version="1.0" encoding="utf-8"?>
<svg xmlns="http://www.w3.org/2000/svg" xmlns:xlink="http://www.w3.org/1999/xlink" width="600" height="400" viewBox="0 0 2400 1600">
<defs>
  <clipPath id="clip000">
    <rect x="0" y="0" width="2400" height="1600"/>
  </clipPath>
</defs>
<path clip-path="url(#clip000)" d="M0 1600 L2400 1600 L2400 0 L0 0  Z" fill="#ffffff" fill-rule="evenodd" fill-opacity="1"/>
<defs>
  <clipPath id="clip001">
    <rect x="480" y="0" width="1681" height="1600"/>
  </clipPath>
</defs>
<path clip-path="url(#clip000)" d="M289.514 1423.18 L2352.76 1423.18 L2352.76 47.2441 L289.514 47.2441  Z" fill="#ffffff" fill-rule="evenodd" fill-opacity="1"/>
<defs>
  <clipPath id="clip002">
    <rect x="289" y="47" width="2064" height="1377"/>
  </clipPath>
</defs>
<polyline clip-path="url(#clip002)" style="stroke:#000000; stroke-linecap:round; stroke-linejoin:round; stroke-width:2; stroke-opacity:0.1; fill:none" points="2294.36,1423.18 2294.36,47.2441 "/>
<polyline clip-path="url(#clip002)" style="stroke:#000000; stroke-linecap:round; stroke-linejoin:round; stroke-width:2; stroke-opacity:0.1; fill:none" points="1321.14,1423.18 1321.14,47.2441 "/>
<polyline clip-path="url(#clip002)" style="stroke:#000000; stroke-linecap:round; stroke-linejoin:round; stroke-width:2; stroke-opacity:0.1; fill:none" points="868.61,1423.18 868.61,47.2441 "/>
<polyline clip-path="url(#clip002)" style="stroke:#000000; stroke-linecap:round; stroke-linejoin:round; stroke-width:2; stroke-opacity:0.1; fill:none" points="570.54,1423.18 570.54,47.2441 "/>
<polyline clip-path="url(#clip002)" style="stroke:#000000; stroke-linecap:round; stroke-linejoin:round; stroke-width:2; stroke-opacity:0.1; fill:none" points="347.908,1423.18 347.908,47.2441 "/>
<polyline clip-path="url(#clip000)" style="stroke:#000000; stroke-linecap:round; stroke-linejoin:round; stroke-width:4; stroke-opacity:1; fill:none" points="2352.76,1423.18 289.514,1423.18 "/>
<polyline clip-path="url(#clip000)" style="stroke:#000000; stroke-linecap:round; stroke-linejoin:round; stroke-width:4; stroke-opacity:1; fill:none" points="2294.36,1423.18 2294.36,1404.28 "/>
<polyline clip-path="url(#clip000)" style="stroke:#000000; stroke-linecap:round; stroke-linejoin:round; stroke-width:4; stroke-opacity:1; fill:none" points="1321.14,1423.18 1321.14,1404.28 "/>
<polyline clip-path="url(#clip000)" style="stroke:#000000; stroke-linecap:round; stroke-linejoin:round; stroke-width:4; stroke-opacity:1; fill:none" points="868.61,1423.18 868.61,1404.28 "/>
<polyline clip-path="url(#clip000)" style="stroke:#000000; stroke-linecap:round; stroke-linejoin:round; stroke-width:4; stroke-opacity:1; fill:none" points="570.54,1423.18 570.54,1404.28 "/>
<polyline clip-path="url(#clip000)" style="stroke:#000000; stroke-linecap:round; stroke-linejoin:round; stroke-width:4; stroke-opacity:1; fill:none" points="347.908,1423.18 347.908,1404.28 "/>
<path clip-path="url(#clip000)" d="M2181.64 1456.48 L2181.64 1454.98 Q2187.4 1454.98 2190.38 1451.91 Q2191.2 1451.91 2191.34 1452.1 Q2191.48 1452.29 2191.48 1453.16 L2191.48 1480.07 Q2191.48 1481.5 2192.18 1481.94 Q2192.89 1482.39 2195.95 1482.39 L2197.48 1482.39 L2197.48 1483.86 Q2195.79 1483.72 2189.7 1483.72 Q2183.61 1483.72 2181.95 1483.86 L2181.95 1482.39 L2183.47 1482.39 Q2186.49 1482.39 2187.22 1481.97 Q2187.94 1481.52 2187.94 1480.07 L2187.94 1455.22 Q2185.44 1456.48 2181.64 1456.48 Z" fill="#000000" fill-rule="nonzero" fill-opacity="1" /><path clip-path="url(#clip000)" d="M2199.79 1468.52 Q2199.79 1461.47 2201.57 1457.63 Q2204.05 1451.91 2209.91 1451.91 Q2211.15 1451.91 2212.44 1452.27 Q2213.75 1452.59 2215.39 1453.88 Q2217.05 1455.17 2218.06 1457.28 Q2219.98 1461.35 2219.98 1468.52 Q2219.98 1475.52 2218.2 1479.34 Q2215.6 1484.92 2209.86 1484.92 Q2207.71 1484.92 2205.5 1483.82 Q2203.33 1482.71 2201.94 1480.07 Q2199.79 1476.11 2199.79 1468.52 M2203.77 1467.94 Q2203.77 1475.17 2204.29 1478.05 Q2204.87 1481.17 2206.46 1482.53 Q2208.08 1483.86 2209.86 1483.86 Q2211.78 1483.86 2213.37 1482.43 Q2214.99 1480.98 2215.48 1477.87 Q2216.02 1474.8 2216 1467.94 Q2216 1461.26 2215.53 1458.59 Q2214.9 1455.47 2213.21 1454.23 Q2211.55 1452.97 2209.86 1452.97 Q2209.23 1452.97 2208.55 1453.16 Q2207.89 1453.34 2206.93 1453.88 Q2205.97 1454.42 2205.22 1455.76 Q2204.5 1457.09 2204.15 1459.1 Q2203.77 1461.7 2203.77 1467.94 Z" fill="#000000" fill-rule="nonzero" fill-opacity="1" /><path clip-path="url(#clip000)" d="M2223.73 1483.86 Q2223.73 1483 2223.8 1482.74 Q2223.9 1482.48 2224.27 1482.08 L2233.48 1471.82 Q2238.51 1466.15 2238.51 1461.21 Q2238.51 1458 2236.82 1455.71 Q2235.16 1453.41 2232.09 1453.41 Q2229.99 1453.41 2228.21 1454.7 Q2226.43 1455.99 2225.61 1458.29 Q2225.75 1458.24 2226.24 1458.24 Q2227.43 1458.24 2228.09 1458.99 Q2228.77 1459.74 2228.77 1460.74 Q2228.77 1462.03 2227.92 1462.67 Q2227.1 1463.27 2226.28 1463.27 Q2225.96 1463.27 2225.51 1463.2 Q2225.09 1463.13 2224.41 1462.48 Q2223.73 1461.8 2223.73 1460.6 Q2223.73 1457.25 2226.26 1454.58 Q2228.81 1451.91 2232.7 1451.91 Q2237.11 1451.91 2239.99 1454.54 Q2242.89 1457.14 2242.89 1461.21 Q2242.89 1462.64 2242.45 1463.95 Q2242.02 1465.24 2241.44 1466.25 Q2240.88 1467.26 2239.33 1468.87 Q2237.79 1470.49 2236.54 1471.64 Q2235.3 1472.78 2232.51 1475.22 L2227.43 1480.16 L2236.08 1480.16 Q2240.29 1480.16 2240.62 1479.79 Q2241.09 1479.11 2241.67 1475.52 L2242.89 1475.52 L2241.53 1483.86 L2223.73 1483.86 Z" fill="#000000" fill-rule="nonzero" fill-opacity="1" /><path clip-path="url(#clip000)" d="M2242.96 1475.95 L2242.96 1474.47 L2257.7 1451.96 Q2258.07 1451.38 2258.66 1451.4 Q2259.2 1451.4 2259.31 1451.61 Q2259.43 1451.82 2259.43 1452.64 L2259.43 1474.47 L2264.23 1474.47 L2264.23 1475.95 L2259.43 1475.95 L2259.43 1480.11 Q2259.43 1481.5 2259.99 1481.94 Q2260.58 1482.39 2263.06 1482.39 L2264.07 1482.39 L2264.07 1483.86 Q2262.1 1483.72 2257.56 1483.72 Q2253.04 1483.72 2251.07 1483.86 L2251.07 1482.39 L2252.07 1482.39 Q2254.56 1482.39 2255.14 1481.97 Q2255.73 1481.52 2255.73 1480.11 L2255.73 1475.95 L2242.96 1475.95 M2244.32 1474.47 L2256.01 1474.47 L2256.01 1456.58 L2244.32 1474.47 Z" fill="#000000" fill-rule="nonzero" fill-opacity="1" /><path clip-path="url(#clip000)" d="M2322.04 1471.24 Q2322.46 1471.4 2322.46 1471.87 Q2322.46 1472.34 2322.04 1472.5 Q2318.52 1473.67 2315.46 1477.49 Q2313.28 1480.33 2312.67 1483.58 Q2312.6 1483.91 2312.34 1484.12 Q2312.08 1484.33 2311.73 1484.33 Q2311.33 1484.33 2311.05 1484.05 Q2310.77 1483.79 2310.77 1483.39 Q2310.77 1483.37 2310.8 1483.3 Q2310.82 1483.21 2310.82 1483.18 Q2311.52 1479.39 2313.98 1476.27 Q2315.53 1474.31 2317.73 1472.83 L2280.98 1472.83 Q2280.58 1472.83 2280.3 1472.55 Q2280.02 1472.27 2280.02 1471.87 Q2280.02 1471.47 2280.3 1471.19 Q2280.58 1470.91 2280.98 1470.91 L2317.73 1470.91 Q2315.53 1469.43 2313.98 1467.47 Q2311.52 1464.35 2310.82 1460.56 Q2310.82 1460.53 2310.8 1460.46 Q2310.77 1460.37 2310.77 1460.35 Q2310.77 1459.95 2311.05 1459.69 Q2311.33 1459.41 2311.73 1459.41 Q2312.08 1459.41 2312.34 1459.62 Q2312.6 1459.83 2312.67 1460.16 Q2313.28 1463.41 2315.46 1466.25 Q2318.52 1470.07 2322.04 1471.24 Z" fill="#000000" fill-rule="nonzero" fill-opacity="1" /><path clip-path="url(#clip000)" d="M2340.82 1476.13 Q2340.82 1474.7 2341.6 1474.17 Q2342.37 1473.6 2343.19 1473.6 Q2344.29 1473.6 2344.92 1474.31 Q2345.58 1474.99 2345.58 1475.95 Q2345.58 1476.91 2344.92 1477.61 Q2344.29 1478.29 2343.19 1478.29 Q2342.65 1478.29 2342.37 1478.19 Q2343 1480.4 2344.92 1481.99 Q2346.87 1483.58 2349.42 1483.58 Q2352.63 1483.58 2354.55 1480.47 Q2355.7 1478.45 2355.7 1473.88 Q2355.7 1469.86 2354.83 1467.84 Q2353.49 1464.77 2350.75 1464.77 Q2346.87 1464.77 2344.57 1468.12 Q2344.29 1468.54 2343.96 1468.57 Q2343.49 1468.57 2343.38 1468.31 Q2343.28 1468.03 2343.28 1467.3 L2343.28 1453.11 Q2343.28 1451.96 2343.75 1451.96 Q2343.94 1451.96 2344.34 1452.1 Q2347.36 1453.44 2350.71 1453.46 Q2354.15 1453.46 2357.24 1452.05 Q2357.48 1451.91 2357.62 1451.91 Q2358.09 1451.91 2358.11 1452.45 Q2358.11 1452.64 2357.71 1453.2 Q2357.34 1453.74 2356.52 1454.47 Q2355.7 1455.17 2354.64 1455.85 Q2353.59 1456.53 2352.04 1457 Q2350.52 1457.44 2348.83 1457.44 Q2346.82 1457.44 2344.76 1456.81 L2344.76 1466.15 Q2347.24 1463.72 2350.85 1463.72 Q2354.69 1463.72 2357.34 1466.81 Q2359.98 1469.9 2359.98 1474.21 Q2359.98 1478.73 2356.84 1481.82 Q2353.73 1484.92 2349.51 1484.92 Q2345.67 1484.92 2343.24 1482.18 Q2340.82 1479.44 2340.82 1476.13 Z" fill="#000000" fill-rule="nonzero" fill-opacity="1" /><path clip-path="url(#clip000)" d="M2362.99 1456.48 L2362.99 1454.98 Q2368.75 1454.98 2371.73 1451.91 Q2372.55 1451.91 2372.69 1452.1 Q2372.83 1452.29 2372.83 1453.16 L2372.83 1480.07 Q2372.83 1481.5 2373.53 1481.94 Q2374.24 1482.39 2377.3 1482.39 L2378.83 1482.39 L2378.83 1483.86 Q2377.14 1483.72 2371.05 1483.72 Q2364.96 1483.72 2363.3 1483.86 L2363.3 1482.39 L2364.82 1482.39 Q2367.84 1482.39 2368.57 1481.97 Q2369.29 1481.52 2369.29 1480.07 L2369.29 1455.22 Q2366.79 1456.48 2362.99 1456.48 Z" fill="#000000" fill-rule="nonzero" fill-opacity="1" /><path clip-path="url(#clip000)" d="M2383.33 1483.86 Q2383.33 1483 2383.4 1482.74 Q2383.5 1482.48 2383.87 1482.08 L2393.08 1471.82 Q2398.11 1466.15 2398.11 1461.21 Q2398.11 1458 2396.43 1455.71 Q2394.76 1453.41 2391.69 1453.41 Q2389.59 1453.41 2387.81 1454.7 Q2386.03 1455.99 2385.21 1458.29 Q2385.35 1458.24 2385.84 1458.24 Q2387.03 1458.24 2387.69 1458.99 Q2388.37 1459.74 2388.37 1460.74 Q2388.37 1462.03 2387.52 1462.67 Q2386.7 1463.27 2385.89 1463.27 Q2385.56 1463.27 2385.11 1463.2 Q2384.69 1463.13 2384.01 1462.48 Q2383.33 1461.8 2383.33 1460.6 Q2383.33 1457.25 2385.86 1454.58 Q2388.41 1451.91 2392.3 1451.91 Q2396.71 1451.91 2399.59 1454.54 Q2402.49 1457.14 2402.49 1461.21 Q2402.49 1462.64 2402.05 1463.95 Q2401.62 1465.24 2401.04 1466.25 Q2400.48 1467.26 2398.93 1468.87 Q2397.39 1470.49 2396.14 1471.64 Q2394.9 1472.78 2392.12 1475.22 L2387.03 1480.16 L2395.68 1480.16 Q2399.89 1480.16 2400.22 1479.79 Q2400.69 1479.11 2401.27 1475.52 L2402.49 1475.52 L2401.13 1483.86 L2383.33 1483.86 Z" fill="#000000" fill-rule="nonzero" fill-opacity="1" /><path clip-path="url(#clip000)" d="M1215.13 1475.87 Q1215.13 1474.44 1215.91 1473.9 Q1216.68 1473.34 1217.5 1473.34 Q1218.6 1473.34 1219.23 1474.04 Q1219.89 1474.72 1219.89 1475.68 Q1219.89 1476.64 1219.23 1477.34 Q1218.6 1478.02 1217.5 1478.02 Q1216.96 1478.02 1216.68 1477.93 Q1217.31 1480.13 1219.23 1481.72 Q1221.18 1483.32 1223.73 1483.32 Q1226.94 1483.32 1228.86 1480.2 Q1230.01 1478.19 1230.01 1473.62 Q1230.01 1469.59 1229.14 1467.58 Q1227.81 1464.51 1225.07 1464.51 Q1221.18 1464.51 1218.88 1467.86 Q1218.6 1468.28 1218.27 1468.3 Q1217.8 1468.3 1217.69 1468.04 Q1217.59 1467.76 1217.59 1467.04 L1217.59 1452.84 Q1217.59 1451.7 1218.06 1451.7 Q1218.25 1451.7 1218.65 1451.84 Q1221.67 1453.17 1225.02 1453.19 Q1228.46 1453.19 1231.55 1451.79 Q1231.79 1451.65 1231.93 1451.65 Q1232.4 1451.65 1232.42 1452.19 Q1232.42 1452.37 1232.02 1452.94 Q1231.65 1453.48 1230.83 1454.2 Q1230.01 1454.9 1228.95 1455.58 Q1227.9 1456.26 1226.35 1456.73 Q1224.83 1457.18 1223.14 1457.18 Q1221.13 1457.18 1219.07 1456.54 L1219.07 1465.89 Q1221.55 1463.45 1225.16 1463.45 Q1229 1463.45 1231.65 1466.55 Q1234.29 1469.64 1234.29 1473.95 Q1234.29 1478.47 1231.15 1481.56 Q1228.04 1484.65 1223.82 1484.65 Q1219.98 1484.65 1217.55 1481.91 Q1215.13 1479.17 1215.13 1475.87 Z" fill="#000000" fill-rule="nonzero" fill-opacity="1" /><path clip-path="url(#clip000)" d="M1237.3 1456.22 L1237.3 1454.72 Q1243.07 1454.72 1246.04 1451.65 Q1246.86 1451.65 1247 1451.84 Q1247.14 1452.02 1247.14 1452.89 L1247.14 1479.8 Q1247.14 1481.23 1247.84 1481.68 Q1248.55 1482.12 1251.62 1482.12 L1253.14 1482.12 L1253.14 1483.6 Q1251.45 1483.46 1245.36 1483.46 Q1239.27 1483.46 1237.61 1483.6 L1237.61 1482.12 L1239.13 1482.12 Q1242.15 1482.12 1242.88 1481.7 Q1243.6 1481.25 1243.6 1479.8 L1243.6 1454.95 Q1241.1 1456.22 1237.3 1456.22 Z" fill="#000000" fill-rule="nonzero" fill-opacity="1" /><path clip-path="url(#clip000)" d="M1257.64 1483.6 Q1257.64 1482.73 1257.71 1482.47 Q1257.81 1482.21 1258.18 1481.82 L1267.39 1471.56 Q1272.42 1465.89 1272.42 1460.95 Q1272.42 1457.74 1270.74 1455.44 Q1269.07 1453.15 1266 1453.15 Q1263.9 1453.15 1262.12 1454.44 Q1260.34 1455.72 1259.52 1458.02 Q1259.66 1457.97 1260.15 1457.97 Q1261.34 1457.97 1262 1458.72 Q1262.68 1459.47 1262.68 1460.48 Q1262.68 1461.77 1261.84 1462.4 Q1261.02 1463.01 1260.2 1463.01 Q1259.87 1463.01 1259.42 1462.94 Q1259 1462.87 1258.32 1462.21 Q1257.64 1461.53 1257.64 1460.34 Q1257.64 1456.99 1260.17 1454.32 Q1262.73 1451.65 1266.61 1451.65 Q1271.02 1451.65 1273.9 1454.27 Q1276.8 1456.87 1276.8 1460.95 Q1276.8 1462.38 1276.36 1463.69 Q1275.94 1464.98 1275.35 1465.98 Q1274.79 1466.99 1273.24 1468.61 Q1271.7 1470.22 1270.45 1471.37 Q1269.21 1472.52 1266.43 1474.95 L1261.34 1479.9 L1269.99 1479.9 Q1274.2 1479.9 1274.53 1479.52 Q1275 1478.84 1275.58 1475.26 L1276.8 1475.26 L1275.44 1483.6 L1257.64 1483.6 Z" fill="#000000" fill-rule="nonzero" fill-opacity="1" /><path clip-path="url(#clip000)" d="M1336.72 1470.97 Q1337.14 1471.14 1337.14 1471.6 Q1337.14 1472.07 1336.72 1472.24 Q1333.2 1473.41 1330.14 1477.23 Q1327.96 1480.06 1327.35 1483.32 Q1327.28 1483.64 1327.02 1483.85 Q1326.76 1484.07 1326.41 1484.07 Q1326.01 1484.07 1325.73 1483.78 Q1325.45 1483.53 1325.45 1483.13 Q1325.45 1483.1 1325.47 1483.03 Q1325.5 1482.94 1325.5 1482.92 Q1326.2 1479.12 1328.66 1476.01 Q1330.21 1474.04 1332.41 1472.56 L1295.66 1472.56 Q1295.26 1472.56 1294.98 1472.28 Q1294.7 1472 1294.7 1471.6 Q1294.7 1471.21 1294.98 1470.93 Q1295.26 1470.64 1295.66 1470.64 L1332.41 1470.64 Q1330.21 1469.17 1328.66 1467.2 Q1326.2 1464.09 1325.5 1460.29 Q1325.5 1460.27 1325.47 1460.2 Q1325.45 1460.1 1325.45 1460.08 Q1325.45 1459.68 1325.73 1459.42 Q1326.01 1459.14 1326.41 1459.14 Q1326.76 1459.14 1327.02 1459.35 Q1327.28 1459.57 1327.35 1459.89 Q1327.96 1463.15 1330.14 1465.98 Q1333.2 1469.8 1336.72 1470.97 Z" fill="#000000" fill-rule="nonzero" fill-opacity="1" /><path clip-path="url(#clip000)" d="M1355.5 1483.6 Q1355.5 1482.73 1355.57 1482.47 Q1355.67 1482.21 1356.04 1481.82 L1365.25 1471.56 Q1370.28 1465.89 1370.28 1460.95 Q1370.28 1457.74 1368.6 1455.44 Q1366.93 1453.15 1363.86 1453.15 Q1361.76 1453.15 1359.98 1454.44 Q1358.2 1455.72 1357.38 1458.02 Q1357.52 1457.97 1358.01 1457.97 Q1359.2 1457.97 1359.86 1458.72 Q1360.54 1459.47 1360.54 1460.48 Q1360.54 1461.77 1359.69 1462.4 Q1358.88 1463.01 1358.06 1463.01 Q1357.73 1463.01 1357.28 1462.94 Q1356.86 1462.87 1356.18 1462.21 Q1355.5 1461.53 1355.5 1460.34 Q1355.5 1456.99 1358.03 1454.32 Q1360.58 1451.65 1364.47 1451.65 Q1368.88 1451.65 1371.76 1454.27 Q1374.66 1456.87 1374.66 1460.95 Q1374.66 1462.38 1374.22 1463.69 Q1373.8 1464.98 1373.21 1465.98 Q1372.65 1466.99 1371.1 1468.61 Q1369.56 1470.22 1368.31 1471.37 Q1367.07 1472.52 1364.29 1474.95 L1359.2 1479.9 L1367.85 1479.9 Q1372.06 1479.9 1372.39 1479.52 Q1372.86 1478.84 1373.44 1475.26 L1374.66 1475.26 L1373.3 1483.6 L1355.5 1483.6 Z" fill="#000000" fill-rule="nonzero" fill-opacity="1" /><path clip-path="url(#clip000)" d="M1379.44 1475.87 Q1379.44 1474.44 1380.22 1473.9 Q1380.99 1473.34 1381.81 1473.34 Q1382.91 1473.34 1383.54 1474.04 Q1384.2 1474.72 1384.2 1475.68 Q1384.2 1476.64 1383.54 1477.34 Q1382.91 1478.02 1381.81 1478.02 Q1381.27 1478.02 1380.99 1477.93 Q1381.62 1480.13 1383.54 1481.72 Q1385.49 1483.32 1388.04 1483.32 Q1391.25 1483.32 1393.17 1480.2 Q1394.32 1478.19 1394.32 1473.62 Q1394.32 1469.59 1393.45 1467.58 Q1392.12 1464.51 1389.38 1464.51 Q1385.49 1464.51 1383.19 1467.86 Q1382.91 1468.28 1382.58 1468.3 Q1382.11 1468.3 1382 1468.04 Q1381.9 1467.76 1381.9 1467.04 L1381.9 1452.84 Q1381.9 1451.7 1382.37 1451.7 Q1382.56 1451.7 1382.96 1451.84 Q1385.98 1453.17 1389.33 1453.19 Q1392.77 1453.19 1395.86 1451.79 Q1396.1 1451.65 1396.24 1451.65 Q1396.71 1451.65 1396.73 1452.19 Q1396.73 1452.37 1396.33 1452.94 Q1395.96 1453.48 1395.14 1454.2 Q1394.32 1454.9 1393.26 1455.58 Q1392.21 1456.26 1390.66 1456.73 Q1389.14 1457.18 1387.45 1457.18 Q1385.44 1457.18 1383.38 1456.54 L1383.38 1465.89 Q1385.86 1463.45 1389.47 1463.45 Q1393.31 1463.45 1395.96 1466.55 Q1398.6 1469.64 1398.6 1473.95 Q1398.6 1478.47 1395.47 1481.56 Q1392.35 1484.65 1388.13 1484.65 Q1384.29 1484.65 1381.86 1481.91 Q1379.44 1479.17 1379.44 1475.87 Z" fill="#000000" fill-rule="nonzero" fill-opacity="1" /><path clip-path="url(#clip000)" d="M1403.39 1468.44 Q1403.39 1460.9 1407.23 1456.29 Q1411.07 1451.65 1416.01 1451.65 Q1418.89 1451.65 1420.48 1453.12 Q1422.1 1454.58 1422.1 1456.82 Q1422.1 1458.07 1421.37 1458.6 Q1420.65 1459.14 1419.9 1459.14 Q1419.03 1459.14 1418.35 1458.56 Q1417.67 1457.97 1417.67 1456.92 Q1417.67 1454.76 1420.32 1454.76 Q1419.08 1452.84 1416.1 1452.84 Q1415.19 1452.84 1414.25 1453.12 Q1413.32 1453.38 1412.1 1454.27 Q1410.88 1455.16 1409.94 1456.57 Q1409.01 1457.97 1408.35 1460.62 Q1407.7 1463.27 1407.7 1466.71 L1407.7 1467.86 Q1409.66 1463.1 1413.69 1463.13 Q1417.72 1463.13 1420.51 1466.19 Q1423.3 1469.26 1423.3 1473.81 Q1423.3 1478.47 1420.39 1481.56 Q1417.49 1484.65 1413.41 1484.65 Q1411.58 1484.65 1409.92 1483.88 Q1408.28 1483.13 1406.74 1481.4 Q1405.21 1479.66 1404.3 1476.34 Q1403.39 1473.01 1403.39 1468.44 M1407.79 1472.75 Q1407.79 1477.46 1408.66 1479.71 Q1408.8 1480.08 1409.1 1480.6 Q1409.43 1481.11 1409.97 1481.79 Q1410.53 1482.45 1411.44 1482.89 Q1412.36 1483.32 1413.41 1483.32 Q1416.62 1483.32 1418.17 1480.2 Q1418.99 1478.47 1418.99 1473.76 Q1418.99 1468.96 1418.12 1467.2 Q1416.64 1464.23 1413.65 1464.23 Q1411.63 1464.23 1410.23 1465.61 Q1408.84 1466.99 1408.31 1468.84 Q1407.79 1470.69 1407.79 1472.75 Z" fill="#000000" fill-rule="nonzero" fill-opacity="1" /><path clip-path="url(#clip000)" d="M761.723 1483.6 Q761.723 1482.73 761.793 1482.47 Q761.887 1482.21 762.262 1481.82 L771.467 1471.56 Q776.503 1465.89 776.503 1460.95 Q776.503 1457.74 774.816 1455.44 Q773.153 1453.15 770.085 1453.15 Q767.977 1453.15 766.197 1454.44 Q764.417 1455.72 763.597 1458.02 Q763.737 1457.97 764.229 1457.97 Q765.424 1457.97 766.08 1458.72 Q766.759 1459.47 766.759 1460.48 Q766.759 1461.77 765.916 1462.4 Q765.096 1463.01 764.276 1463.01 Q763.948 1463.01 763.503 1462.94 Q763.082 1462.87 762.402 1462.21 Q761.723 1461.53 761.723 1460.34 Q761.723 1456.99 764.253 1454.32 Q766.806 1451.65 770.694 1451.65 Q775.097 1451.65 777.978 1454.27 Q780.883 1456.87 780.883 1460.95 Q780.883 1462.38 780.438 1463.69 Q780.016 1464.98 779.43 1465.98 Q778.868 1466.99 777.322 1468.61 Q775.777 1470.22 774.535 1471.37 Q773.294 1472.52 770.506 1474.95 L765.424 1479.9 L774.067 1479.9 Q778.283 1479.9 778.611 1479.52 Q779.079 1478.84 779.665 1475.26 L780.883 1475.26 L779.524 1483.6 L761.723 1483.6 Z" fill="#000000" fill-rule="nonzero" fill-opacity="1" /><path clip-path="url(#clip000)" d="M785.665 1475.87 Q785.665 1474.44 786.438 1473.9 Q787.211 1473.34 788.031 1473.34 Q789.132 1473.34 789.764 1474.04 Q790.42 1474.72 790.42 1475.68 Q790.42 1476.64 789.764 1477.34 Q789.132 1478.02 788.031 1478.02 Q787.492 1478.02 787.211 1477.93 Q787.843 1480.13 789.764 1481.72 Q791.708 1483.32 794.261 1483.32 Q797.47 1483.32 799.391 1480.2 Q800.538 1478.19 800.538 1473.62 Q800.538 1469.59 799.672 1467.58 Q798.337 1464.51 795.596 1464.51 Q791.708 1464.51 789.413 1467.86 Q789.132 1468.28 788.804 1468.3 Q788.335 1468.3 788.218 1468.04 Q788.124 1467.76 788.124 1467.04 L788.124 1452.84 Q788.124 1451.7 788.593 1451.7 Q788.78 1451.7 789.178 1451.84 Q792.2 1453.17 795.549 1453.19 Q798.992 1453.19 802.084 1451.79 Q802.318 1451.65 802.459 1451.65 Q802.927 1451.65 802.951 1452.19 Q802.951 1452.37 802.553 1452.94 Q802.178 1453.48 801.358 1454.2 Q800.538 1454.9 799.484 1455.58 Q798.43 1456.26 796.884 1456.73 Q795.362 1457.18 793.676 1457.18 Q791.661 1457.18 789.6 1456.54 L789.6 1465.89 Q792.083 1463.45 795.69 1463.45 Q799.531 1463.45 802.178 1466.55 Q804.825 1469.64 804.825 1473.95 Q804.825 1478.47 801.686 1481.56 Q798.571 1484.65 794.355 1484.65 Q790.514 1484.65 788.078 1481.91 Q785.665 1479.17 785.665 1475.87 Z" fill="#000000" fill-rule="nonzero" fill-opacity="1" /><path clip-path="url(#clip000)" d="M809.607 1468.44 Q809.607 1460.9 813.448 1456.29 Q817.29 1451.65 822.232 1451.65 Q825.113 1451.65 826.705 1453.12 Q828.322 1454.58 828.322 1456.82 Q828.322 1458.07 827.595 1458.6 Q826.869 1459.14 826.12 1459.14 Q825.253 1459.14 824.574 1458.56 Q823.895 1457.97 823.895 1456.92 Q823.895 1454.76 826.541 1454.76 Q825.3 1452.84 822.325 1452.84 Q821.412 1452.84 820.475 1453.12 Q819.538 1453.38 818.32 1454.27 Q817.102 1455.16 816.165 1456.57 Q815.228 1457.97 814.573 1460.62 Q813.917 1463.27 813.917 1466.71 L813.917 1467.86 Q815.884 1463.1 819.913 1463.13 Q823.942 1463.13 826.729 1466.19 Q829.516 1469.26 829.516 1473.81 Q829.516 1478.47 826.612 1481.56 Q823.707 1484.65 819.632 1484.65 Q817.805 1484.65 816.142 1483.88 Q814.502 1483.13 812.956 1481.4 Q811.434 1479.66 810.521 1476.34 Q809.607 1473.01 809.607 1468.44 M814.01 1472.75 Q814.01 1477.46 814.877 1479.71 Q815.018 1480.08 815.322 1480.6 Q815.65 1481.11 816.189 1481.79 Q816.751 1482.45 817.664 1482.89 Q818.578 1483.32 819.632 1483.32 Q822.841 1483.32 824.387 1480.2 Q825.206 1478.47 825.206 1473.76 Q825.206 1468.96 824.34 1467.2 Q822.864 1464.23 819.866 1464.23 Q817.852 1464.23 816.446 1465.61 Q815.064 1466.99 814.526 1468.84 Q814.01 1470.69 814.01 1472.75 Z" fill="#000000" fill-rule="nonzero" fill-opacity="1" /><path clip-path="url(#clip000)" d="M888.682 1470.97 Q889.103 1471.14 889.103 1471.6 Q889.103 1472.07 888.682 1472.24 Q885.168 1473.41 882.1 1477.23 Q879.922 1480.06 879.313 1483.32 Q879.242 1483.64 878.985 1483.85 Q878.727 1484.07 878.376 1484.07 Q877.978 1484.07 877.696 1483.78 Q877.415 1483.53 877.415 1483.13 Q877.415 1483.1 877.439 1483.03 Q877.462 1482.94 877.462 1482.92 Q878.165 1479.12 880.624 1476.01 Q882.17 1474.04 884.372 1472.56 L847.622 1472.56 Q847.224 1472.56 846.943 1472.28 Q846.662 1472 846.662 1471.6 Q846.662 1471.21 846.943 1470.93 Q847.224 1470.64 847.622 1470.64 L884.372 1470.64 Q882.17 1469.17 880.624 1467.2 Q878.165 1464.09 877.462 1460.29 Q877.462 1460.27 877.439 1460.2 Q877.415 1460.1 877.415 1460.08 Q877.415 1459.68 877.696 1459.42 Q877.978 1459.14 878.376 1459.14 Q878.727 1459.14 878.985 1459.35 Q879.242 1459.57 879.313 1459.89 Q879.922 1463.15 882.1 1465.98 Q885.168 1469.8 888.682 1470.97 Z" fill="#000000" fill-rule="nonzero" fill-opacity="1" /><path clip-path="url(#clip000)" d="M907.466 1456.22 L907.466 1454.72 Q913.228 1454.72 916.203 1451.65 Q917.023 1451.65 917.163 1451.84 Q917.304 1452.02 917.304 1452.89 L917.304 1479.8 Q917.304 1481.23 918.007 1481.68 Q918.709 1482.12 921.778 1482.12 L923.3 1482.12 L923.3 1483.6 Q921.614 1483.46 915.524 1483.46 Q909.434 1483.46 907.771 1483.6 L907.771 1482.12 L909.293 1482.12 Q912.315 1482.12 913.041 1481.7 Q913.767 1481.25 913.767 1479.8 L913.767 1454.95 Q911.261 1456.22 907.466 1456.22 Z" fill="#000000" fill-rule="nonzero" fill-opacity="1" /><path clip-path="url(#clip000)" d="M927.805 1483.6 Q927.805 1482.73 927.876 1482.47 Q927.969 1482.21 928.344 1481.82 L937.549 1471.56 Q942.585 1465.89 942.585 1460.95 Q942.585 1457.74 940.899 1455.44 Q939.236 1453.15 936.167 1453.15 Q934.059 1453.15 932.279 1454.44 Q930.499 1455.72 929.679 1458.02 Q929.82 1457.97 930.312 1457.97 Q931.506 1457.97 932.162 1458.72 Q932.841 1459.47 932.841 1460.48 Q932.841 1461.77 931.998 1462.4 Q931.178 1463.01 930.359 1463.01 Q930.031 1463.01 929.586 1462.94 Q929.164 1462.87 928.485 1462.21 Q927.805 1461.53 927.805 1460.34 Q927.805 1456.99 930.335 1454.32 Q932.888 1451.65 936.776 1451.65 Q941.18 1451.65 944.061 1454.27 Q946.965 1456.87 946.965 1460.95 Q946.965 1462.38 946.52 1463.69 Q946.098 1464.98 945.513 1465.98 Q944.951 1466.99 943.405 1468.61 Q941.859 1470.22 940.618 1471.37 Q939.376 1472.52 936.589 1474.95 L931.506 1479.9 L940.149 1479.9 Q944.365 1479.9 944.693 1479.52 Q945.161 1478.84 945.747 1475.26 L946.965 1475.26 L945.607 1483.6 L927.805 1483.6 Z" fill="#000000" fill-rule="nonzero" fill-opacity="1" /><path clip-path="url(#clip000)" d="M951.747 1476.36 Q951.747 1471 958.657 1467.53 Q955.682 1465.51 955.144 1464.93 Q953.036 1462.59 953.036 1459.66 Q953.036 1456.31 955.565 1453.99 Q958.118 1451.65 961.725 1451.65 Q965.169 1451.65 967.768 1453.64 Q970.368 1455.63 970.368 1458.79 Q970.368 1463.24 964.56 1466.24 Q968.401 1468.63 969.314 1469.64 Q971.657 1472.24 971.657 1475.54 Q971.657 1479.38 968.705 1482.03 Q965.754 1484.65 961.679 1484.65 Q957.697 1484.65 954.722 1482.33 Q951.747 1480.01 951.747 1476.36 M954.137 1476.36 Q954.137 1479.33 956.362 1481.32 Q958.61 1483.32 961.725 1483.32 Q964.747 1483.32 966.995 1481.58 Q969.267 1479.85 969.267 1477.27 Q969.267 1476.27 968.916 1475.4 Q968.588 1474.53 967.909 1473.85 Q967.253 1473.15 966.832 1472.85 Q966.433 1472.52 965.66 1471.98 L959.758 1468.26 Q954.137 1471.37 954.137 1476.36 M955.144 1457.79 Q955.144 1460.08 957.556 1461.67 L963.506 1465.51 Q968.26 1462.73 968.26 1458.79 Q968.26 1456.24 966.316 1454.55 Q964.372 1452.84 961.679 1452.84 Q959.032 1452.84 957.088 1454.25 Q955.144 1455.63 955.144 1457.79 Z" fill="#000000" fill-rule="nonzero" fill-opacity="1" /><path clip-path="url(#clip000)" d="M477.041 1456.48 L477.041 1454.98 Q482.803 1454.98 485.778 1451.91 Q486.597 1451.91 486.738 1452.1 Q486.878 1452.29 486.878 1453.16 L486.878 1480.07 Q486.878 1481.5 487.581 1481.94 Q488.284 1482.39 491.352 1482.39 L492.875 1482.39 L492.875 1483.86 Q491.188 1483.72 485.098 1483.72 Q479.009 1483.72 477.346 1483.86 L477.346 1482.39 L478.868 1482.39 Q481.89 1482.39 482.616 1481.97 Q483.342 1481.52 483.342 1480.07 L483.342 1455.22 Q480.835 1456.48 477.041 1456.48 Z" fill="#000000" fill-rule="nonzero" fill-opacity="1" /><path clip-path="url(#clip000)" d="M497.38 1483.86 Q497.38 1483 497.45 1482.74 Q497.544 1482.48 497.919 1482.08 L507.124 1471.82 Q512.16 1466.15 512.16 1461.21 Q512.16 1458 510.473 1455.71 Q508.81 1453.41 505.742 1453.41 Q503.634 1453.41 501.854 1454.7 Q500.074 1455.99 499.254 1458.29 Q499.394 1458.24 499.886 1458.24 Q501.081 1458.24 501.737 1458.99 Q502.416 1459.74 502.416 1460.74 Q502.416 1462.03 501.573 1462.67 Q500.753 1463.27 499.933 1463.27 Q499.605 1463.27 499.16 1463.2 Q498.739 1463.13 498.059 1462.48 Q497.38 1461.8 497.38 1460.6 Q497.38 1457.25 499.91 1454.58 Q502.463 1451.91 506.351 1451.91 Q510.754 1451.91 513.635 1454.54 Q516.54 1457.14 516.54 1461.21 Q516.54 1462.64 516.095 1463.95 Q515.673 1465.24 515.087 1466.25 Q514.525 1467.26 512.979 1468.87 Q511.434 1470.49 510.192 1471.64 Q508.951 1472.78 506.163 1475.22 L501.081 1480.16 L509.724 1480.16 Q513.94 1480.16 514.268 1479.79 Q514.736 1479.11 515.322 1475.52 L516.54 1475.52 L515.181 1483.86 L497.38 1483.86 Z" fill="#000000" fill-rule="nonzero" fill-opacity="1" /><path clip-path="url(#clip000)" d="M521.322 1476.62 Q521.322 1471.26 528.232 1467.79 Q525.257 1465.78 524.718 1465.19 Q522.61 1462.85 522.61 1459.92 Q522.61 1456.58 525.14 1454.26 Q527.693 1451.91 531.3 1451.91 Q534.743 1451.91 537.343 1453.91 Q539.943 1455.9 539.943 1459.06 Q539.943 1463.51 534.134 1466.51 Q537.975 1468.9 538.889 1469.9 Q541.231 1472.5 541.231 1475.81 Q541.231 1479.65 538.28 1482.29 Q535.329 1484.92 531.253 1484.92 Q527.271 1484.92 524.297 1482.6 Q521.322 1480.28 521.322 1476.62 M523.711 1476.62 Q523.711 1479.6 525.936 1481.59 Q528.185 1483.58 531.3 1483.58 Q534.322 1483.58 536.57 1481.85 Q538.842 1480.11 538.842 1477.54 Q538.842 1476.53 538.491 1475.66 Q538.163 1474.8 537.484 1474.12 Q536.828 1473.42 536.406 1473.11 Q536.008 1472.78 535.235 1472.24 L529.333 1468.52 Q523.711 1471.64 523.711 1476.62 M524.718 1458.05 Q524.718 1460.35 527.131 1461.94 L533.08 1465.78 Q537.835 1462.99 537.835 1459.06 Q537.835 1456.5 535.891 1454.82 Q533.947 1453.11 531.253 1453.11 Q528.606 1453.11 526.662 1454.51 Q524.718 1455.9 524.718 1458.05 Z" fill="#000000" fill-rule="nonzero" fill-opacity="1" /><path clip-path="url(#clip000)" d="M600.397 1471.24 Q600.818 1471.4 600.818 1471.87 Q600.818 1472.34 600.397 1472.5 Q596.883 1473.67 593.815 1477.49 Q591.637 1480.33 591.028 1483.58 Q590.957 1483.91 590.7 1484.12 Q590.442 1484.33 590.091 1484.33 Q589.693 1484.33 589.411 1484.05 Q589.13 1483.79 589.13 1483.39 Q589.13 1483.37 589.154 1483.3 Q589.177 1483.21 589.177 1483.18 Q589.88 1479.39 592.339 1476.27 Q593.885 1474.31 596.087 1472.83 L559.337 1472.83 Q558.939 1472.83 558.658 1472.55 Q558.377 1472.27 558.377 1471.87 Q558.377 1471.47 558.658 1471.19 Q558.939 1470.91 559.337 1470.91 L596.087 1470.91 Q593.885 1469.43 592.339 1467.47 Q589.88 1464.35 589.177 1460.56 Q589.177 1460.53 589.154 1460.46 Q589.13 1460.37 589.13 1460.35 Q589.13 1459.95 589.411 1459.69 Q589.693 1459.41 590.091 1459.41 Q590.442 1459.41 590.7 1459.62 Q590.957 1459.83 591.028 1460.16 Q591.637 1463.41 593.815 1466.25 Q596.883 1470.07 600.397 1471.24 Z" fill="#000000" fill-rule="nonzero" fill-opacity="1" /><path clip-path="url(#clip000)" d="M619.181 1468.71 Q619.181 1461.17 623.023 1456.55 Q626.864 1451.91 631.806 1451.91 Q634.687 1451.91 636.28 1453.39 Q637.896 1454.84 637.896 1457.09 Q637.896 1458.33 637.17 1458.87 Q636.444 1459.41 635.694 1459.41 Q634.828 1459.41 634.148 1458.82 Q633.469 1458.24 633.469 1457.18 Q633.469 1455.03 636.116 1455.03 Q634.874 1453.11 631.9 1453.11 Q630.986 1453.11 630.049 1453.39 Q629.113 1453.65 627.895 1454.54 Q626.677 1455.43 625.74 1456.83 Q624.803 1458.24 624.147 1460.88 Q623.491 1463.53 623.491 1466.97 L623.491 1468.12 Q625.459 1463.37 629.487 1463.39 Q633.516 1463.39 636.303 1466.46 Q639.091 1469.53 639.091 1474.07 Q639.091 1478.73 636.186 1481.82 Q633.282 1484.92 629.206 1484.92 Q627.379 1484.92 625.716 1484.14 Q624.077 1483.39 622.531 1481.66 Q621.008 1479.93 620.095 1476.6 Q619.181 1473.28 619.181 1468.71 M623.585 1473.02 Q623.585 1477.73 624.452 1479.97 Q624.592 1480.35 624.897 1480.86 Q625.224 1481.38 625.763 1482.06 Q626.325 1482.71 627.239 1483.16 Q628.152 1483.58 629.206 1483.58 Q632.415 1483.58 633.961 1480.47 Q634.781 1478.73 634.781 1474.02 Q634.781 1469.22 633.914 1467.47 Q632.439 1464.49 629.44 1464.49 Q627.426 1464.49 626.021 1465.87 Q624.639 1467.26 624.1 1469.11 Q623.585 1470.96 623.585 1473.02 Z" fill="#000000" fill-rule="nonzero" fill-opacity="1" /><path clip-path="url(#clip000)" d="M640.288 1475.95 L640.288 1474.47 L655.021 1451.96 Q655.396 1451.38 655.981 1451.4 Q656.52 1451.4 656.637 1451.61 Q656.754 1451.82 656.754 1452.64 L656.754 1474.47 L661.556 1474.47 L661.556 1475.95 L656.754 1475.95 L656.754 1480.11 Q656.754 1481.5 657.317 1481.94 Q657.902 1482.39 660.385 1482.39 L661.392 1482.39 L661.392 1483.86 Q659.425 1483.72 654.881 1483.72 Q650.36 1483.72 648.393 1483.86 L648.393 1482.39 L649.4 1482.39 Q651.883 1482.39 652.468 1481.97 Q653.054 1481.52 653.054 1480.11 L653.054 1475.95 L640.288 1475.95 M641.647 1474.47 L653.335 1474.47 L653.335 1456.58 L641.647 1474.47 Z" fill="#000000" fill-rule="nonzero" fill-opacity="1" /><path clip-path="url(#clip000)" d="M264.579 1468.71 Q264.579 1461.17 268.42 1456.55 Q272.261 1451.91 277.203 1451.91 Q280.084 1451.91 281.677 1453.39 Q283.293 1454.84 283.293 1457.09 Q283.293 1458.33 282.567 1458.87 Q281.841 1459.41 281.092 1459.41 Q280.225 1459.41 279.546 1458.82 Q278.866 1458.24 278.866 1457.18 Q278.866 1455.03 281.513 1455.03 Q280.272 1453.11 277.297 1453.11 Q276.384 1453.11 275.447 1453.39 Q274.51 1453.65 273.292 1454.54 Q272.074 1455.43 271.137 1456.83 Q270.2 1458.24 269.544 1460.88 Q268.888 1463.53 268.888 1466.97 L268.888 1468.12 Q270.856 1463.37 274.885 1463.39 Q278.913 1463.39 281.701 1466.46 Q284.488 1469.53 284.488 1474.07 Q284.488 1478.73 281.583 1481.82 Q278.679 1484.92 274.604 1484.92 Q272.777 1484.92 271.114 1484.14 Q269.474 1483.39 267.928 1481.66 Q266.406 1479.93 265.492 1476.6 Q264.579 1473.28 264.579 1468.71 M268.982 1473.02 Q268.982 1477.73 269.849 1479.97 Q269.989 1480.35 270.294 1480.86 Q270.622 1481.38 271.16 1482.06 Q271.723 1482.71 272.636 1483.16 Q273.55 1483.58 274.604 1483.58 Q277.812 1483.58 279.358 1480.47 Q280.178 1478.73 280.178 1474.02 Q280.178 1469.22 279.311 1467.47 Q277.836 1464.49 274.838 1464.49 Q272.823 1464.49 271.418 1465.87 Q270.036 1467.26 269.497 1469.11 Q268.982 1470.96 268.982 1473.02 Z" fill="#000000" fill-rule="nonzero" fill-opacity="1" /><path clip-path="url(#clip000)" d="M285.686 1475.95 L285.686 1474.47 L300.418 1451.96 Q300.793 1451.38 301.379 1451.4 Q301.918 1451.4 302.035 1451.61 Q302.152 1451.82 302.152 1452.64 L302.152 1474.47 L306.953 1474.47 L306.953 1475.95 L302.152 1475.95 L302.152 1480.11 Q302.152 1481.5 302.714 1481.94 Q303.299 1482.39 305.782 1482.39 L306.789 1482.39 L306.789 1483.86 Q304.822 1483.72 300.278 1483.72 Q295.757 1483.72 293.79 1483.86 L293.79 1482.39 L294.797 1482.39 Q297.28 1482.39 297.865 1481.97 Q298.451 1481.52 298.451 1480.11 L298.451 1475.95 L285.686 1475.95 M287.044 1474.47 L298.732 1474.47 L298.732 1456.58 L287.044 1474.47 Z" fill="#000000" fill-rule="nonzero" fill-opacity="1" /><path clip-path="url(#clip000)" d="M364.76 1471.24 Q365.182 1471.4 365.182 1471.87 Q365.182 1472.34 364.76 1472.5 Q361.247 1473.67 358.179 1477.49 Q356 1480.33 355.391 1483.58 Q355.321 1483.91 355.063 1484.12 Q354.806 1484.33 354.454 1484.33 Q354.056 1484.33 353.775 1484.05 Q353.494 1483.79 353.494 1483.39 Q353.494 1483.37 353.518 1483.3 Q353.541 1483.21 353.541 1483.18 Q354.244 1479.39 356.703 1476.27 Q358.249 1474.31 360.451 1472.83 L323.701 1472.83 Q323.303 1472.83 323.022 1472.55 Q322.74 1472.27 322.74 1471.87 Q322.74 1471.47 323.022 1471.19 Q323.303 1470.91 323.701 1470.91 L360.451 1470.91 Q358.249 1469.43 356.703 1467.47 Q354.244 1464.35 353.541 1460.56 Q353.541 1460.53 353.518 1460.46 Q353.494 1460.37 353.494 1460.35 Q353.494 1459.95 353.775 1459.69 Q354.056 1459.41 354.454 1459.41 Q354.806 1459.41 355.063 1459.62 Q355.321 1459.83 355.391 1460.16 Q356 1463.41 358.179 1466.25 Q361.247 1470.07 364.76 1471.24 Z" fill="#000000" fill-rule="nonzero" fill-opacity="1" /><path clip-path="url(#clip000)" d="M383.545 1477.4 Q383.545 1475.97 384.365 1475.29 Q385.185 1474.61 386.239 1474.61 Q387.34 1474.61 388.113 1475.34 Q388.909 1476.04 388.909 1477.28 Q388.909 1478.62 387.972 1479.37 Q387.059 1480.11 385.747 1479.93 Q386.895 1481.85 389.003 1482.71 Q391.134 1483.58 393.102 1483.58 Q395.163 1483.58 396.826 1481.8 Q398.512 1480.02 398.512 1475.66 Q398.512 1471.96 397.06 1469.83 Q395.631 1467.7 392.797 1467.7 L390.689 1467.7 Q389.963 1467.7 389.752 1467.63 Q389.541 1467.56 389.541 1467.16 Q389.541 1466.69 390.267 1466.6 Q390.993 1466.6 392.141 1466.46 Q394.928 1466.37 396.404 1463.95 Q397.739 1461.7 397.739 1458.5 Q397.739 1455.57 396.334 1454.35 Q394.952 1453.11 393.148 1453.11 Q391.462 1453.11 389.612 1453.81 Q387.761 1454.51 386.754 1456.08 Q389.729 1456.08 389.729 1458.5 Q389.729 1459.55 389.049 1460.25 Q388.394 1460.93 387.293 1460.93 Q386.239 1460.93 385.536 1460.28 Q384.833 1459.6 384.833 1458.45 Q384.833 1455.71 387.269 1453.81 Q389.729 1451.91 393.336 1451.91 Q396.896 1451.91 399.519 1453.79 Q402.166 1455.66 402.166 1458.54 Q402.166 1461.38 400.292 1463.7 Q398.418 1466.01 395.444 1466.97 Q399.098 1467.7 401.276 1470.18 Q403.454 1472.64 403.454 1475.66 Q403.454 1479.41 400.503 1482.18 Q397.552 1484.92 393.242 1484.92 Q389.26 1484.92 386.403 1482.76 Q383.545 1480.61 383.545 1477.4 Z" fill="#000000" fill-rule="nonzero" fill-opacity="1" /><path clip-path="url(#clip000)" d="M407.487 1483.86 Q407.487 1483 407.557 1482.74 Q407.651 1482.48 408.026 1482.08 L417.231 1471.82 Q422.267 1466.15 422.267 1461.21 Q422.267 1458 420.58 1455.71 Q418.917 1453.41 415.849 1453.41 Q413.741 1453.41 411.961 1454.7 Q410.181 1455.99 409.361 1458.29 Q409.501 1458.24 409.993 1458.24 Q411.188 1458.24 411.844 1458.99 Q412.523 1459.74 412.523 1460.74 Q412.523 1462.03 411.68 1462.67 Q410.86 1463.27 410.04 1463.27 Q409.712 1463.27 409.267 1463.2 Q408.846 1463.13 408.166 1462.48 Q407.487 1461.8 407.487 1460.6 Q407.487 1457.25 410.017 1454.58 Q412.57 1451.91 416.458 1451.91 Q420.861 1451.91 423.742 1454.54 Q426.647 1457.14 426.647 1461.21 Q426.647 1462.64 426.202 1463.95 Q425.78 1465.24 425.195 1466.25 Q424.632 1467.26 423.087 1468.87 Q421.541 1470.49 420.299 1471.64 Q419.058 1472.78 416.271 1475.22 L411.188 1480.16 L419.831 1480.16 Q424.047 1480.16 424.375 1479.79 Q424.843 1479.11 425.429 1475.52 L426.647 1475.52 L425.288 1483.86 L407.487 1483.86 Z" fill="#000000" fill-rule="nonzero" fill-opacity="1" /><path clip-path="url(#clip000)" d="M1223.64 1549.81 Q1223.64 1543.44 1221 1539.94 Q1218.39 1536.44 1213.65 1536.44 Q1208.94 1536.44 1206.3 1539.94 Q1203.69 1543.44 1203.69 1549.81 Q1203.69 1556.14 1206.3 1559.64 Q1208.94 1563.14 1213.65 1563.14 Q1218.39 1563.14 1221 1559.64 Q1223.64 1556.14 1223.64 1549.81 M1229.5 1563.62 Q1229.5 1572.72 1225.46 1577.15 Q1221.42 1581.6 1213.08 1581.6 Q1209.99 1581.6 1207.25 1581.13 Q1204.52 1580.68 1201.94 1579.72 L1201.94 1574.03 Q1204.52 1575.43 1207.03 1576.1 Q1209.54 1576.76 1212.15 1576.76 Q1217.92 1576.76 1220.78 1573.74 Q1223.64 1570.75 1223.64 1564.67 L1223.64 1561.77 Q1221.83 1564.92 1219 1566.48 Q1216.16 1568.04 1212.22 1568.04 Q1205.66 1568.04 1201.65 1563.05 Q1197.64 1558.05 1197.64 1549.81 Q1197.64 1541.53 1201.65 1536.53 Q1205.66 1531.54 1212.22 1531.54 Q1216.16 1531.54 1219 1533.1 Q1221.83 1534.66 1223.64 1537.81 L1223.64 1532.4 L1229.5 1532.4 L1229.5 1563.62 Z" fill="#000000" fill-rule="nonzero" fill-opacity="1" /><path clip-path="url(#clip000)" d="M1262.22 1537.87 Q1261.23 1537.3 1260.06 1537.04 Q1258.91 1536.76 1257.51 1536.76 Q1252.54 1536.76 1249.87 1540 Q1247.23 1543.22 1247.23 1549.27 L1247.23 1568.04 L1241.34 1568.04 L1241.34 1532.4 L1247.23 1532.4 L1247.23 1537.93 Q1249.08 1534.69 1252.04 1533.13 Q1255 1531.54 1259.23 1531.54 Q1259.83 1531.54 1260.57 1531.63 Q1261.3 1531.7 1262.19 1531.85 L1262.22 1537.87 Z" fill="#000000" fill-rule="nonzero" fill-opacity="1" /><path clip-path="url(#clip000)" d="M1268.36 1532.4 L1274.22 1532.4 L1274.22 1568.04 L1268.36 1568.04 L1268.36 1532.4 M1268.36 1518.52 L1274.22 1518.52 L1274.22 1525.93 L1268.36 1525.93 L1268.36 1518.52 Z" fill="#000000" fill-rule="nonzero" fill-opacity="1" /><path clip-path="url(#clip000)" d="M1309.93 1537.81 L1309.93 1518.52 L1315.79 1518.52 L1315.79 1568.04 L1309.93 1568.04 L1309.93 1562.7 Q1308.09 1565.88 1305.25 1567.44 Q1302.45 1568.97 1298.51 1568.97 Q1292.04 1568.97 1287.97 1563.81 Q1283.93 1558.65 1283.93 1550.25 Q1283.93 1541.85 1287.97 1536.69 Q1292.04 1531.54 1298.51 1531.54 Q1302.45 1531.54 1305.25 1533.1 Q1308.09 1534.62 1309.93 1537.81 M1289.97 1550.25 Q1289.97 1556.71 1292.62 1560.4 Q1295.29 1564.07 1299.94 1564.07 Q1304.58 1564.07 1307.26 1560.4 Q1309.93 1556.71 1309.93 1550.25 Q1309.93 1543.79 1307.26 1540.13 Q1304.58 1536.44 1299.94 1536.44 Q1295.29 1536.44 1292.62 1540.13 Q1289.97 1543.79 1289.97 1550.25 Z" fill="#000000" fill-rule="nonzero" fill-opacity="1" /><path clip-path="url(#clip000)" d="M1350.58 1533.45 L1350.58 1538.98 Q1348.09 1537.71 1345.42 1537.07 Q1342.75 1536.44 1339.88 1536.44 Q1335.52 1536.44 1333.33 1537.77 Q1331.16 1539.11 1331.16 1541.79 Q1331.16 1543.82 1332.72 1545 Q1334.28 1546.15 1338.99 1547.2 L1341 1547.64 Q1347.23 1548.98 1349.84 1551.43 Q1352.49 1553.85 1352.49 1558.21 Q1352.49 1563.17 1348.54 1566.07 Q1344.62 1568.97 1337.75 1568.97 Q1334.89 1568.97 1331.77 1568.39 Q1328.68 1567.85 1325.24 1566.74 L1325.24 1560.69 Q1328.49 1562.38 1331.64 1563.24 Q1334.79 1564.07 1337.88 1564.07 Q1342.01 1564.07 1344.24 1562.66 Q1346.47 1561.23 1346.47 1558.65 Q1346.47 1556.27 1344.85 1554.99 Q1343.26 1553.72 1337.81 1552.54 L1335.78 1552.07 Q1330.33 1550.92 1327.91 1548.56 Q1325.5 1546.18 1325.5 1542.04 Q1325.5 1537.01 1329.06 1534.27 Q1332.63 1531.54 1339.18 1531.54 Q1342.43 1531.54 1345.29 1532.01 Q1348.16 1532.49 1350.58 1533.45 Z" fill="#000000" fill-rule="nonzero" fill-opacity="1" /><path clip-path="url(#clip000)" d="M1361.81 1532.4 L1367.67 1532.4 L1367.67 1568.04 L1361.81 1568.04 L1361.81 1532.4 M1361.81 1518.52 L1367.67 1518.52 L1367.67 1525.93 L1361.81 1525.93 L1361.81 1518.52 Z" fill="#000000" fill-rule="nonzero" fill-opacity="1" /><path clip-path="url(#clip000)" d="M1377.38 1532.4 L1405.19 1532.4 L1405.19 1537.74 L1383.17 1563.37 L1405.19 1563.37 L1405.19 1568.04 L1376.58 1568.04 L1376.58 1562.7 L1398.61 1537.07 L1377.38 1537.07 L1377.38 1532.4 Z" fill="#000000" fill-rule="nonzero" fill-opacity="1" /><path clip-path="url(#clip000)" d="M1444.63 1548.76 L1444.63 1551.62 L1417.7 1551.62 Q1418.08 1557.67 1421.33 1560.85 Q1424.61 1564 1430.43 1564 Q1433.81 1564 1436.96 1563.17 Q1440.14 1562.35 1443.26 1560.69 L1443.26 1566.23 Q1440.11 1567.57 1436.8 1568.27 Q1433.49 1568.97 1430.08 1568.97 Q1421.55 1568.97 1416.56 1564 Q1411.59 1559.04 1411.59 1550.57 Q1411.59 1541.82 1416.3 1536.69 Q1421.04 1531.54 1429.07 1531.54 Q1436.26 1531.54 1440.43 1536.18 Q1444.63 1540.8 1444.63 1548.76 M1438.77 1547.04 Q1438.71 1542.23 1436.07 1539.37 Q1433.46 1536.5 1429.13 1536.5 Q1424.23 1536.5 1421.27 1539.27 Q1418.34 1542.04 1417.89 1547.07 L1438.77 1547.04 Z" fill="#000000" fill-rule="nonzero" fill-opacity="1" /><polyline clip-path="url(#clip002)" style="stroke:#000000; stroke-linecap:round; stroke-linejoin:round; stroke-width:2; stroke-opacity:0.1; fill:none" points="2352.76,1281.97 289.514,1281.97 "/>
<polyline clip-path="url(#clip002)" style="stroke:#000000; stroke-linecap:round; stroke-linejoin:round; stroke-width:2; stroke-opacity:0.1; fill:none" points="2352.76,1007.64 289.514,1007.64 "/>
<polyline clip-path="url(#clip002)" style="stroke:#000000; stroke-linecap:round; stroke-linejoin:round; stroke-width:2; stroke-opacity:0.1; fill:none" points="2352.76,733.316 289.514,733.316 "/>
<polyline clip-path="url(#clip002)" style="stroke:#000000; stroke-linecap:round; stroke-linejoin:round; stroke-width:2; stroke-opacity:0.1; fill:none" points="2352.76,458.989 289.514,458.989 "/>
<polyline clip-path="url(#clip002)" style="stroke:#000000; stroke-linecap:round; stroke-linejoin:round; stroke-width:2; stroke-opacity:0.1; fill:none" points="2352.76,184.662 289.514,184.662 "/>
<polyline clip-path="url(#clip000)" style="stroke:#000000; stroke-linecap:round; stroke-linejoin:round; stroke-width:4; stroke-opacity:1; fill:none" points="289.514,1423.18 289.514,47.2441 "/>
<polyline clip-path="url(#clip000)" style="stroke:#000000; stroke-linecap:round; stroke-linejoin:round; stroke-width:4; stroke-opacity:1; fill:none" points="289.514,1281.97 308.412,1281.97 "/>
<polyline clip-path="url(#clip000)" style="stroke:#000000; stroke-linecap:round; stroke-linejoin:round; stroke-width:4; stroke-opacity:1; fill:none" points="289.514,1007.64 308.412,1007.64 "/>
<polyline clip-path="url(#clip000)" style="stroke:#000000; stroke-linecap:round; stroke-linejoin:round; stroke-width:4; stroke-opacity:1; fill:none" points="289.514,733.316 308.412,733.316 "/>
<polyline clip-path="url(#clip000)" style="stroke:#000000; stroke-linecap:round; stroke-linejoin:round; stroke-width:4; stroke-opacity:1; fill:none" points="289.514,458.989 308.412,458.989 "/>
<polyline clip-path="url(#clip000)" style="stroke:#000000; stroke-linecap:round; stroke-linejoin:round; stroke-width:4; stroke-opacity:1; fill:none" points="289.514,184.662 308.412,184.662 "/>
<path clip-path="url(#clip000)" d="M114.931 1301.76 L122.57 1301.76 L122.57 1275.4 L114.26 1277.06 L114.26 1272.8 L122.524 1271.14 L127.2 1271.14 L127.2 1301.76 L134.839 1301.76 L134.839 1305.7 L114.931 1305.7 L114.931 1301.76 Z" fill="#000000" fill-rule="nonzero" fill-opacity="1" /><path clip-path="url(#clip000)" d="M154.283 1274.22 Q150.672 1274.22 148.843 1277.78 Q147.038 1281.32 147.038 1288.45 Q147.038 1295.56 148.843 1299.12 Q150.672 1302.66 154.283 1302.66 Q157.917 1302.66 159.723 1299.12 Q161.552 1295.56 161.552 1288.45 Q161.552 1281.32 159.723 1277.78 Q157.917 1274.22 154.283 1274.22 M154.283 1270.51 Q160.093 1270.51 163.149 1275.12 Q166.227 1279.7 166.227 1288.45 Q166.227 1297.18 163.149 1301.78 Q160.093 1306.37 154.283 1306.37 Q148.473 1306.37 145.394 1301.78 Q142.339 1297.18 142.339 1288.45 Q142.339 1279.7 145.394 1275.12 Q148.473 1270.51 154.283 1270.51 Z" fill="#000000" fill-rule="nonzero" fill-opacity="1" /><path clip-path="url(#clip000)" d="M166.227 1264.61 L190.339 1264.61 L190.339 1267.81 L166.227 1267.81 L166.227 1264.61 Z" fill="#000000" fill-rule="nonzero" fill-opacity="1" /><path clip-path="url(#clip000)" d="M208.978 1253.52 L199.386 1268.51 L208.978 1268.51 L208.978 1253.52 M207.981 1250.21 L212.758 1250.21 L212.758 1268.51 L216.764 1268.51 L216.764 1271.67 L212.758 1271.67 L212.758 1278.29 L208.978 1278.29 L208.978 1271.67 L196.301 1271.67 L196.301 1268 L207.981 1250.21 Z" fill="#000000" fill-rule="nonzero" fill-opacity="1" /><path clip-path="url(#clip000)" d="M223.046 1273.51 L227.014 1273.51 L227.014 1278.29 L223.046 1278.29 L223.046 1273.51 Z" fill="#000000" fill-rule="nonzero" fill-opacity="1" /><path clip-path="url(#clip000)" d="M245.728 1253.52 L236.136 1268.51 L245.728 1268.51 L245.728 1253.52 M244.731 1250.21 L249.508 1250.21 L249.508 1268.51 L253.514 1268.51 L253.514 1271.67 L249.508 1271.67 L249.508 1278.29 L245.728 1278.29 L245.728 1271.67 L233.051 1271.67 L233.051 1268 L244.731 1250.21 Z" fill="#000000" fill-rule="nonzero" fill-opacity="1" /><path clip-path="url(#clip000)" d="M116.624 1027.43 L124.263 1027.43 L124.263 1001.07 L115.953 1002.74 L115.953 998.477 L124.217 996.81 L128.893 996.81 L128.893 1027.43 L136.531 1027.43 L136.531 1031.37 L116.624 1031.37 L116.624 1027.43 Z" fill="#000000" fill-rule="nonzero" fill-opacity="1" /><path clip-path="url(#clip000)" d="M155.976 999.889 Q152.365 999.889 150.536 1003.45 Q148.73 1007 148.73 1014.12 Q148.73 1021.23 150.536 1024.8 Q152.365 1028.34 155.976 1028.34 Q159.61 1028.34 161.416 1024.8 Q163.244 1021.23 163.244 1014.12 Q163.244 1007 161.416 1003.45 Q159.61 999.889 155.976 999.889 M155.976 996.185 Q161.786 996.185 164.841 1000.79 Q167.92 1005.37 167.92 1014.12 Q167.92 1022.85 164.841 1027.46 Q161.786 1032.04 155.976 1032.04 Q150.166 1032.04 147.087 1027.46 Q144.031 1022.85 144.031 1014.12 Q144.031 1005.37 147.087 1000.79 Q150.166 996.185 155.976 996.185 Z" fill="#000000" fill-rule="nonzero" fill-opacity="1" /><path clip-path="url(#clip000)" d="M167.92 990.286 L192.032 990.286 L192.032 993.484 L167.92 993.484 L167.92 990.286 Z" fill="#000000" fill-rule="nonzero" fill-opacity="1" /><path clip-path="url(#clip000)" d="M210.67 979.19 L201.078 994.18 L210.67 994.18 L210.67 979.19 M209.673 975.88 L214.451 975.88 L214.451 994.18 L218.457 994.18 L218.457 997.339 L214.451 997.339 L214.451 1003.96 L210.67 1003.96 L210.67 997.339 L197.994 997.339 L197.994 993.672 L209.673 975.88 Z" fill="#000000" fill-rule="nonzero" fill-opacity="1" /><path clip-path="url(#clip000)" d="M224.738 999.182 L228.707 999.182 L228.707 1003.96 L224.738 1003.96 L224.738 999.182 Z" fill="#000000" fill-rule="nonzero" fill-opacity="1" /><path clip-path="url(#clip000)" d="M240.255 1000.76 L253.514 1000.76 L253.514 1003.96 L235.685 1003.96 L235.685 1000.76 Q237.847 998.524 241.571 994.763 Q245.314 990.982 246.273 989.891 Q248.098 987.841 248.812 986.431 Q249.546 985.001 249.546 983.628 Q249.546 981.39 247.966 979.98 Q246.405 978.569 243.885 978.569 Q242.098 978.569 240.104 979.19 Q238.13 979.81 235.873 981.071 L235.873 977.234 Q238.167 976.312 240.161 975.842 Q242.154 975.372 243.81 975.372 Q248.173 975.372 250.768 977.553 Q253.364 979.735 253.364 983.384 Q253.364 985.114 252.706 986.675 Q252.066 988.217 250.355 990.324 Q249.884 990.869 247.364 993.484 Q244.844 996.079 240.255 1000.76 Z" fill="#000000" fill-rule="nonzero" fill-opacity="1" /><path clip-path="url(#clip000)" d="M115.326 753.108 L122.965 753.108 L122.965 726.742 L114.655 728.409 L114.655 724.15 L122.919 722.483 L127.595 722.483 L127.595 753.108 L135.234 753.108 L135.234 757.043 L115.326 757.043 L115.326 753.108 Z" fill="#000000" fill-rule="nonzero" fill-opacity="1" /><path clip-path="url(#clip000)" d="M154.678 725.562 Q151.067 725.562 149.238 729.127 Q147.433 732.668 147.433 739.798 Q147.433 746.904 149.238 750.469 Q151.067 754.011 154.678 754.011 Q158.312 754.011 160.118 750.469 Q161.947 746.904 161.947 739.798 Q161.947 732.668 160.118 729.127 Q158.312 725.562 154.678 725.562 M154.678 721.858 Q160.488 721.858 163.544 726.465 Q166.622 731.048 166.622 739.798 Q166.622 748.525 163.544 753.131 Q160.488 757.714 154.678 757.714 Q148.868 757.714 145.789 753.131 Q142.734 748.525 142.734 739.798 Q142.734 731.048 145.789 726.465 Q148.868 721.858 154.678 721.858 Z" fill="#000000" fill-rule="nonzero" fill-opacity="1" /><path clip-path="url(#clip000)" d="M166.622 715.959 L190.734 715.959 L190.734 719.157 L166.622 719.157 L166.622 715.959 Z" fill="#000000" fill-rule="nonzero" fill-opacity="1" /><path clip-path="url(#clip000)" d="M209.372 704.863 L199.781 719.853 L209.372 719.853 L209.372 704.863 M208.376 701.553 L213.153 701.553 L213.153 719.853 L217.159 719.853 L217.159 723.012 L213.153 723.012 L213.153 729.633 L209.372 729.633 L209.372 723.012 L196.696 723.012 L196.696 719.345 L208.376 701.553 Z" fill="#000000" fill-rule="nonzero" fill-opacity="1" /><path clip-path="url(#clip000)" d="M223.441 724.856 L227.409 724.856 L227.409 729.633 L223.441 729.633 L223.441 724.856 Z" fill="#000000" fill-rule="nonzero" fill-opacity="1" /><path clip-path="url(#clip000)" d="M243.81 704.054 Q240.876 704.054 239.39 706.951 Q237.923 709.828 237.923 715.621 Q237.923 721.395 239.39 724.291 Q240.876 727.169 243.81 727.169 Q246.762 727.169 248.229 724.291 Q249.715 721.395 249.715 715.621 Q249.715 709.828 248.229 706.951 Q246.762 704.054 243.81 704.054 M243.81 701.045 Q248.53 701.045 251.013 704.788 Q253.514 708.512 253.514 715.621 Q253.514 722.711 251.013 726.454 Q248.53 730.178 243.81 730.178 Q239.089 730.178 236.587 726.454 Q234.105 722.711 234.105 715.621 Q234.105 708.512 236.587 704.788 Q239.089 701.045 243.81 701.045 Z" fill="#000000" fill-rule="nonzero" fill-opacity="1" /><path clip-path="url(#clip000)" d="M115.402 478.781 L123.04 478.781 L123.04 452.416 L114.73 454.082 L114.73 449.823 L122.994 448.156 L127.67 448.156 L127.67 478.781 L135.309 478.781 L135.309 482.716 L115.402 482.716 L115.402 478.781 Z" fill="#000000" fill-rule="nonzero" fill-opacity="1" /><path clip-path="url(#clip000)" d="M154.753 451.235 Q151.142 451.235 149.313 454.8 Q147.508 458.341 147.508 465.471 Q147.508 472.577 149.313 476.142 Q151.142 479.684 154.753 479.684 Q158.388 479.684 160.193 476.142 Q162.022 472.577 162.022 465.471 Q162.022 458.341 160.193 454.8 Q158.388 451.235 154.753 451.235 M154.753 447.531 Q160.563 447.531 163.619 452.138 Q166.698 456.721 166.698 465.471 Q166.698 474.198 163.619 478.804 Q160.563 483.388 154.753 483.388 Q148.943 483.388 145.864 478.804 Q142.809 474.198 142.809 465.471 Q142.809 456.721 145.864 452.138 Q148.943 447.531 154.753 447.531 Z" fill="#000000" fill-rule="nonzero" fill-opacity="1" /><path clip-path="url(#clip000)" d="M166.698 441.633 L190.809 441.633 L190.809 444.83 L166.698 444.83 L166.698 441.633 Z" fill="#000000" fill-rule="nonzero" fill-opacity="1" /><path clip-path="url(#clip000)" d="M210.52 440.166 Q213.247 440.749 214.77 442.592 Q216.313 444.435 216.313 447.143 Q216.313 451.3 213.454 453.576 Q210.595 455.851 205.329 455.851 Q203.561 455.851 201.68 455.494 Q199.818 455.155 197.825 454.46 L197.825 450.792 Q199.404 451.714 201.285 452.184 Q203.166 452.654 205.216 452.654 Q208.789 452.654 210.651 451.243 Q212.532 449.833 212.532 447.143 Q212.532 444.661 210.783 443.269 Q209.053 441.858 205.949 441.858 L202.677 441.858 L202.677 438.736 L206.1 438.736 Q208.902 438.736 210.388 437.627 Q211.874 436.498 211.874 434.392 Q211.874 432.229 210.332 431.081 Q208.808 429.915 205.949 429.915 Q204.388 429.915 202.602 430.254 Q200.815 430.592 198.671 431.307 L198.671 427.922 Q200.834 427.32 202.715 427.019 Q204.614 426.718 206.288 426.718 Q210.614 426.718 213.134 428.693 Q215.654 430.649 215.654 433.997 Q215.654 436.329 214.319 437.946 Q212.984 439.545 210.52 440.166 Z" fill="#000000" fill-rule="nonzero" fill-opacity="1" /><path clip-path="url(#clip000)" d="M223.516 450.529 L227.484 450.529 L227.484 455.306 L223.516 455.306 L223.516 450.529 Z" fill="#000000" fill-rule="nonzero" fill-opacity="1" /><path clip-path="url(#clip000)" d="M243.885 441.971 Q241.176 441.971 239.615 443.419 Q238.073 444.868 238.073 447.407 Q238.073 449.946 239.615 451.394 Q241.176 452.842 243.885 452.842 Q246.593 452.842 248.154 451.394 Q249.715 449.927 249.715 447.407 Q249.715 444.868 248.154 443.419 Q246.612 441.971 243.885 441.971 M240.086 440.354 Q237.641 439.752 236.268 438.078 Q234.913 436.404 234.913 433.997 Q234.913 430.63 237.302 428.674 Q239.709 426.718 243.885 426.718 Q248.079 426.718 250.467 428.674 Q252.856 430.63 252.856 433.997 Q252.856 436.404 251.483 438.078 Q250.129 439.752 247.703 440.354 Q250.449 440.993 251.972 442.855 Q253.514 444.717 253.514 447.407 Q253.514 451.488 251.013 453.67 Q248.53 455.851 243.885 455.851 Q239.239 455.851 236.738 453.67 Q234.255 451.488 234.255 447.407 Q234.255 444.717 235.797 442.855 Q237.34 440.993 240.086 440.354 M238.694 434.354 Q238.694 436.536 240.048 437.758 Q241.421 438.981 243.885 438.981 Q246.33 438.981 247.703 437.758 Q249.095 436.536 249.095 434.354 Q249.095 432.172 247.703 430.95 Q246.33 429.727 243.885 429.727 Q241.421 429.727 240.048 430.95 Q238.694 432.172 238.694 434.354 Z" fill="#000000" fill-rule="nonzero" fill-opacity="1" /><path clip-path="url(#clip000)" d="M115.195 204.454 L122.834 204.454 L122.834 178.089 L114.523 179.755 L114.523 175.496 L122.787 173.829 L127.463 173.829 L127.463 204.454 L135.102 204.454 L135.102 208.389 L115.195 208.389 L115.195 204.454 Z" fill="#000000" fill-rule="nonzero" fill-opacity="1" /><path clip-path="url(#clip000)" d="M154.546 176.908 Q150.935 176.908 149.107 180.473 Q147.301 184.015 147.301 191.144 Q147.301 198.251 149.107 201.815 Q150.935 205.357 154.546 205.357 Q158.181 205.357 159.986 201.815 Q161.815 198.251 161.815 191.144 Q161.815 184.015 159.986 180.473 Q158.181 176.908 154.546 176.908 M154.546 173.204 Q160.357 173.204 163.412 177.811 Q166.491 182.394 166.491 191.144 Q166.491 199.871 163.412 204.477 Q160.357 209.061 154.546 209.061 Q148.736 209.061 145.658 204.477 Q142.602 199.871 142.602 191.144 Q142.602 182.394 145.658 177.811 Q148.736 173.204 154.546 173.204 Z" fill="#000000" fill-rule="nonzero" fill-opacity="1" /><path clip-path="url(#clip000)" d="M166.491 167.306 L190.602 167.306 L190.602 170.503 L166.491 170.503 L166.491 167.306 Z" fill="#000000" fill-rule="nonzero" fill-opacity="1" /><path clip-path="url(#clip000)" d="M210.313 165.839 Q213.04 166.422 214.563 168.265 Q216.106 170.108 216.106 172.816 Q216.106 176.973 213.247 179.249 Q210.388 181.524 205.122 181.524 Q203.354 181.524 201.473 181.167 Q199.611 180.829 197.618 180.133 L197.618 176.465 Q199.197 177.387 201.078 177.857 Q202.959 178.327 205.009 178.327 Q208.583 178.327 210.445 176.917 Q212.325 175.506 212.325 172.816 Q212.325 170.334 210.576 168.942 Q208.846 167.532 205.743 167.532 L202.47 167.532 L202.47 164.409 L205.893 164.409 Q208.695 164.409 210.181 163.3 Q211.667 162.171 211.667 160.065 Q211.667 157.902 210.125 156.755 Q208.601 155.589 205.743 155.589 Q204.182 155.589 202.395 155.927 Q200.608 156.266 198.464 156.98 L198.464 153.595 Q200.627 152.993 202.508 152.692 Q204.407 152.391 206.081 152.391 Q210.407 152.391 212.927 154.366 Q215.447 156.322 215.447 159.67 Q215.447 162.002 214.112 163.619 Q212.777 165.218 210.313 165.839 Z" fill="#000000" fill-rule="nonzero" fill-opacity="1" /><path clip-path="url(#clip000)" d="M223.309 176.202 L227.277 176.202 L227.277 180.979 L223.309 180.979 L223.309 176.202 Z" fill="#000000" fill-rule="nonzero" fill-opacity="1" /><path clip-path="url(#clip000)" d="M244.148 165.425 Q241.59 165.425 240.086 167.174 Q238.6 168.923 238.6 171.97 Q238.6 174.998 240.086 176.766 Q241.59 178.515 244.148 178.515 Q246.706 178.515 248.192 176.766 Q249.696 174.998 249.696 171.97 Q249.696 168.923 248.192 167.174 Q246.706 165.425 244.148 165.425 M251.69 153.52 L251.69 156.98 Q250.261 156.303 248.794 155.946 Q247.345 155.589 245.916 155.589 Q242.154 155.589 240.161 158.128 Q238.186 160.667 237.904 165.801 Q239.014 164.165 240.687 163.3 Q242.361 162.416 244.374 162.416 Q248.606 162.416 251.051 164.992 Q253.514 167.55 253.514 171.97 Q253.514 176.296 250.956 178.91 Q248.399 181.524 244.148 181.524 Q239.277 181.524 236.7 177.801 Q234.124 174.058 234.124 166.967 Q234.124 160.309 237.283 156.36 Q240.443 152.391 245.766 152.391 Q247.195 152.391 248.643 152.673 Q250.11 152.955 251.69 153.52 Z" fill="#000000" fill-rule="nonzero" fill-opacity="1" /><path clip-path="url(#clip000)" d="M33.7671 869.783 L14.479 869.783 L14.479 863.927 L64.0042 863.927 L64.0042 869.783 L58.657 869.783 Q61.8398 871.629 63.3994 874.462 Q64.9272 877.263 64.9272 881.209 Q64.9272 887.671 59.771 891.745 Q54.6147 895.787 46.212 895.787 Q37.8093 895.787 32.6531 891.745 Q27.4968 887.671 27.4968 881.209 Q27.4968 877.263 29.0564 874.462 Q30.5842 871.629 33.7671 869.783 M46.212 889.739 Q52.6732 889.739 56.3653 887.098 Q60.0256 884.424 60.0256 879.777 Q60.0256 875.13 56.3653 872.457 Q52.6732 869.783 46.212 869.783 Q39.7508 869.783 36.0905 872.457 Q32.3984 875.13 32.3984 879.777 Q32.3984 884.424 36.0905 887.098 Q39.7508 889.739 46.212 889.739 Z" fill="#000000" fill-rule="nonzero" fill-opacity="1" /><path clip-path="url(#clip000)" d="M28.3562 851.864 L28.3562 846.007 L64.0042 846.007 L64.0042 851.864 L28.3562 851.864 M14.479 851.864 L14.479 846.007 L21.895 846.007 L21.895 851.864 L14.479 851.864 Z" fill="#000000" fill-rule="nonzero" fill-opacity="1" /><path clip-path="url(#clip000)" d="M14.479 815.706 L19.3487 815.706 L19.3487 821.308 Q19.3487 824.459 20.6219 825.7 Q21.895 826.91 25.2052 826.91 L28.3562 826.91 L28.3562 817.266 L32.9077 817.266 L32.9077 826.91 L64.0042 826.91 L64.0042 832.798 L32.9077 832.798 L32.9077 838.4 L28.3562 838.4 L28.3562 832.798 L25.8736 832.798 Q19.9216 832.798 17.2162 830.029 Q14.479 827.26 14.479 821.244 L14.479 815.706 Z" fill="#000000" fill-rule="nonzero" fill-opacity="1" /><path clip-path="url(#clip000)" d="M14.479 792.758 L19.3487 792.758 L19.3487 798.36 Q19.3487 801.511 20.6219 802.752 Q21.895 803.962 25.2052 803.962 L28.3562 803.962 L28.3562 794.318 L32.9077 794.318 L32.9077 803.962 L64.0042 803.962 L64.0042 809.85 L32.9077 809.85 L32.9077 815.452 L28.3562 815.452 L28.3562 809.85 L25.8736 809.85 Q19.9216 809.85 17.2162 807.081 Q14.479 804.312 14.479 798.296 L14.479 792.758 Z" fill="#000000" fill-rule="nonzero" fill-opacity="1" /><path clip-path="url(#clip000)" d="M44.7161 757.365 L47.5806 757.365 L47.5806 784.292 Q53.6281 783.91 56.8109 780.663 Q59.9619 777.385 59.9619 771.56 Q59.9619 768.186 59.1344 765.035 Q58.3069 761.852 56.6518 758.733 L62.1899 758.733 Q63.5267 761.884 64.227 765.194 Q64.9272 768.505 64.9272 771.91 Q64.9272 780.44 59.9619 785.437 Q54.9967 790.403 46.5303 790.403 Q37.7774 790.403 32.6531 785.692 Q27.4968 780.95 27.4968 772.929 Q27.4968 765.736 32.1438 761.566 Q36.7589 757.365 44.7161 757.365 M42.9973 763.221 Q38.1912 763.285 35.3266 765.927 Q32.4621 768.536 32.4621 772.865 Q32.4621 777.767 35.2312 780.727 Q38.0002 783.655 43.0292 784.101 L42.9973 763.221 Z" fill="#000000" fill-rule="nonzero" fill-opacity="1" /><path clip-path="url(#clip000)" d="M33.8307 727.096 Q33.2578 728.082 33.0032 729.26 Q32.7167 730.406 32.7167 731.806 Q32.7167 736.772 35.9632 739.445 Q39.1779 742.087 45.2253 742.087 L64.0042 742.087 L64.0042 747.975 L28.3562 747.975 L28.3562 742.087 L33.8944 742.087 Q30.6479 740.241 29.0883 737.281 Q27.4968 734.321 27.4968 730.088 Q27.4968 729.483 27.5923 728.751 Q27.656 728.019 27.8151 727.128 L33.8307 727.096 Z" fill="#000000" fill-rule="nonzero" fill-opacity="1" /><path clip-path="url(#clip000)" d="M44.7161 691.893 L47.5806 691.893 L47.5806 718.82 Q53.6281 718.438 56.8109 715.192 Q59.9619 711.913 59.9619 706.089 Q59.9619 702.715 59.1344 699.564 Q58.3069 696.381 56.6518 693.262 L62.1899 693.262 Q63.5267 696.413 64.227 699.723 Q64.9272 703.033 64.9272 706.439 Q64.9272 714.969 59.9619 719.966 Q54.9967 724.931 46.5303 724.931 Q37.7774 724.931 32.6531 720.221 Q27.4968 715.478 27.4968 707.457 Q27.4968 700.264 32.1438 696.095 Q36.7589 691.893 44.7161 691.893 M42.9973 697.75 Q38.1912 697.813 35.3266 700.455 Q32.4621 703.065 32.4621 707.394 Q32.4621 712.295 35.2312 715.255 Q38.0002 718.184 43.0292 718.629 L42.9973 697.75 Z" fill="#000000" fill-rule="nonzero" fill-opacity="1" /><path clip-path="url(#clip000)" d="M42.4881 652.649 L64.0042 652.649 L64.0042 658.505 L42.679 658.505 Q37.6183 658.505 35.1038 660.479 Q32.5894 662.452 32.5894 666.399 Q32.5894 671.141 35.6131 673.878 Q38.6368 676.616 43.8567 676.616 L64.0042 676.616 L64.0042 682.504 L28.3562 682.504 L28.3562 676.616 L33.8944 676.616 Q30.6797 674.515 29.0883 671.682 Q27.4968 668.818 27.4968 665.094 Q27.4968 658.951 31.3163 655.8 Q35.1038 652.649 42.4881 652.649 Z" fill="#000000" fill-rule="nonzero" fill-opacity="1" /><path clip-path="url(#clip000)" d="M29.7248 615.314 L35.1993 615.314 Q33.8307 617.797 33.1623 620.311 Q32.4621 622.794 32.4621 625.34 Q32.4621 631.037 36.0905 634.188 Q39.6872 637.339 46.212 637.339 Q52.7369 637.339 56.3653 634.188 Q59.9619 631.037 59.9619 625.34 Q59.9619 622.794 59.2935 620.311 Q58.5933 617.797 57.2247 615.314 L62.6355 615.314 Q63.7814 617.765 64.3543 620.406 Q64.9272 623.016 64.9272 625.976 Q64.9272 634.029 59.8664 638.772 Q54.8057 643.514 46.212 643.514 Q37.491 643.514 32.4939 638.74 Q27.4968 633.934 27.4968 625.595 Q27.4968 622.889 28.0697 620.311 Q28.6108 617.733 29.7248 615.314 Z" fill="#000000" fill-rule="nonzero" fill-opacity="1" /><path clip-path="url(#clip000)" d="M44.7161 574.637 L47.5806 574.637 L47.5806 601.564 Q53.6281 601.182 56.8109 597.936 Q59.9619 594.657 59.9619 588.833 Q59.9619 585.459 59.1344 582.308 Q58.3069 579.125 56.6518 576.006 L62.1899 576.006 Q63.5267 579.157 64.227 582.467 Q64.9272 585.777 64.9272 589.183 Q64.9272 597.713 59.9619 602.71 Q54.9967 607.675 46.5303 607.675 Q37.7774 607.675 32.6531 602.964 Q27.4968 598.222 27.4968 590.201 Q27.4968 583.008 32.1438 578.838 Q36.7589 574.637 44.7161 574.637 M42.9973 580.493 Q38.1912 580.557 35.3266 583.199 Q32.4621 585.809 32.4621 590.138 Q32.4621 595.039 35.2312 597.999 Q38.0002 600.927 43.0292 601.373 L42.9973 580.493 Z" fill="#000000" fill-rule="nonzero" fill-opacity="1" /><circle clip-path="url(#clip002)" cx="2294.36" cy="1384.24" r="14.4" fill="#009af9" fill-rule="evenodd" fill-opacity="1" stroke="#000000" stroke-opacity="1" stroke-width="3.2"/>
<circle clip-path="url(#clip002)" cx="1321.14" cy="846.708" r="14.4" fill="#009af9" fill-rule="evenodd" fill-opacity="1" stroke="#000000" stroke-opacity="1" stroke-width="3.2"/>
<circle clip-path="url(#clip002)" cx="868.61" cy="400.131" r="14.4" fill="#009af9" fill-rule="evenodd" fill-opacity="1" stroke="#000000" stroke-opacity="1" stroke-width="3.2"/>
<circle clip-path="url(#clip002)" cx="570.54" cy="124.986" r="14.4" fill="#009af9" fill-rule="evenodd" fill-opacity="1" stroke="#000000" stroke-opacity="1" stroke-width="3.2"/>
<circle clip-path="url(#clip002)" cx="347.908" cy="86.1857" r="14.4" fill="#009af9" fill-rule="evenodd" fill-opacity="1" stroke="#000000" stroke-opacity="1" stroke-width="3.2"/>
<path clip-path="url(#clip000)" d="M2009.62 196.789 L2283.98 196.789 L2283.98 93.1086 L2009.62 93.1086  Z" fill="#ffffff" fill-rule="evenodd" fill-opacity="1"/>
<polyline clip-path="url(#clip000)" style="stroke:#000000; stroke-linecap:round; stroke-linejoin:round; stroke-width:4; stroke-opacity:1; fill:none" points="2009.62,196.789 2283.98,196.789 2283.98,93.1086 2009.62,93.1086 2009.62,196.789 "/>
<circle clip-path="url(#clip000)" cx="2101.32" cy="144.949" r="20.48" fill="#009af9" fill-rule="evenodd" fill-opacity="1" stroke="#000000" stroke-opacity="1" stroke-width="4.55111"/>
<path clip-path="url(#clip000)" d="M2193.02 156.613 Q2193.02 156.426 2193.66 155.208 Q2194.29 153.966 2196.51 149.539 Q2198.74 145.089 2201.03 140.428 L2209.3 123.798 Q2209.89 122.744 2210.64 122.744 Q2211.32 122.744 2211.62 123.166 Q2211.93 123.587 2213.33 126.421 Q2214.06 127.803 2214.48 128.693 L2228.04 155.84 Q2228.27 156.426 2228.3 156.613 Q2228.3 157.081 2227.48 157.081 L2194.29 157.081 Q2193.02 157.081 2193.02 156.613 M2196.19 153.428 L2222 153.428 L2209.09 127.522 L2196.19 153.428 Z" fill="#000000" fill-rule="nonzero" fill-opacity="1" /><path clip-path="url(#clip000)" d="M2257.92 144.504 Q2257.92 146.869 2256.7 149.235 Q2255.48 151.601 2253.49 153.428 Q2251.5 155.231 2248.78 156.402 Q2246.06 157.573 2243.23 157.667 L2241.4 164.811 Q2241.05 166.544 2240.86 166.731 Q2240.68 166.919 2240.4 166.919 Q2239.81 166.919 2239.81 166.38 Q2239.81 166.216 2240.86 162.164 L2241.99 157.667 Q2237.73 157.433 2235.24 154.973 Q2232.76 152.514 2232.76 148.977 Q2232.76 146.588 2233.98 144.223 Q2235.22 141.833 2237.21 140.03 Q2239.22 138.226 2241.94 137.079 Q2244.66 135.931 2247.45 135.837 L2250.23 124.758 Q2250.37 124.126 2250.49 123.962 Q2250.61 123.798 2250.96 123.798 Q2251.22 123.798 2251.36 123.915 Q2251.5 124.032 2251.5 124.149 L2251.52 124.267 L2251.38 124.946 L2248.69 135.837 Q2251.08 136.001 2252.93 136.844 Q2254.78 137.688 2255.83 138.952 Q2256.89 140.194 2257.4 141.599 Q2257.92 143.005 2257.92 144.504 M2247.17 136.891 Q2244.59 137.126 2242.41 138.39 Q2240.23 139.655 2238.83 141.529 Q2237.42 143.379 2236.65 145.604 Q2235.88 147.806 2235.88 149.984 Q2235.88 151.694 2236.44 153.006 Q2237.02 154.318 2237.98 155.067 Q2238.94 155.793 2240 156.191 Q2241.08 156.566 2242.22 156.613 L2247.17 136.891 M2254.78 143.496 Q2254.78 140.451 2253.02 138.742 Q2251.26 137.032 2248.41 136.891 L2243.46 156.613 Q2245.55 156.449 2247.38 155.582 Q2249.23 154.692 2250.56 153.381 Q2251.9 152.046 2252.86 150.406 Q2253.82 148.743 2254.29 146.986 Q2254.78 145.206 2254.78 143.496 Z" fill="#000000" fill-rule="nonzero" fill-opacity="1" /></svg>
