<?xml version="1.0" encoding="utf-8"?>
<svg xmlns="http://www.w3.org/2000/svg" xmlns:xlink="http://www.w3.org/1999/xlink" width="600" height="400" viewBox="0 0 2400 1600">
<defs>
  <clipPath id="clip950">
    <rect x="0" y="0" width="2400" height="1600"/>
  </clipPath>
</defs>
<path clip-path="url(#clip950)" d="M0 1600 L2400 1600 L2400 0 L0 0  Z" fill="#ffffff" fill-rule="evenodd" fill-opacity="1"/>
<defs>
  <clipPath id="clip951">
    <rect x="480" y="0" width="1681" height="1600"/>
  </clipPath>
</defs>
<path clip-path="url(#clip950)" d="M219.38 1423.18 L2352.76 1423.18 L2352.76 47.2441 L219.38 47.2441  Z" fill="#ffffff" fill-rule="evenodd" fill-opacity="1"/>
<defs>
  <clipPath id="clip952">
    <rect x="219" y="47" width="2134" height="1377"/>
  </clipPath>
</defs>
<polyline clip-path="url(#clip952)" style="stroke:#000000; stroke-linecap:round; stroke-linejoin:round; stroke-width:2; stroke-opacity:0.1; fill:none" points="263.786,1423.18 263.786,47.2441 "/>
<polyline clip-path="url(#clip952)" style="stroke:#000000; stroke-linecap:round; stroke-linejoin:round; stroke-width:2; stroke-opacity:0.1; fill:none" points="583.249,1423.18 583.249,47.2441 "/>
<polyline clip-path="url(#clip952)" style="stroke:#000000; stroke-linecap:round; stroke-linejoin:round; stroke-width:2; stroke-opacity:0.1; fill:none" points="902.712,1423.18 902.712,47.2441 "/>
<polyline clip-path="url(#clip952)" style="stroke:#000000; stroke-linecap:round; stroke-linejoin:round; stroke-width:2; stroke-opacity:0.1; fill:none" points="1222.18,1423.18 1222.18,47.2441 "/>
<polyline clip-path="url(#clip952)" style="stroke:#000000; stroke-linecap:round; stroke-linejoin:round; stroke-width:2; stroke-opacity:0.1; fill:none" points="1541.64,1423.18 1541.64,47.2441 "/>
<polyline clip-path="url(#clip952)" style="stroke:#000000; stroke-linecap:round; stroke-linejoin:round; stroke-width:2; stroke-opacity:0.1; fill:none" points="1861.1,1423.18 1861.1,47.2441 "/>
<polyline clip-path="url(#clip952)" style="stroke:#000000; stroke-linecap:round; stroke-linejoin:round; stroke-width:2; stroke-opacity:0.1; fill:none" points="2180.57,1423.18 2180.57,47.2441 "/>
<polyline clip-path="url(#clip950)" style="stroke:#000000; stroke-linecap:round; stroke-linejoin:round; stroke-width:4; stroke-opacity:1; fill:none" points="219.38,1423.18 2352.76,1423.18 "/>
<polyline clip-path="url(#clip950)" style="stroke:#000000; stroke-linecap:round; stroke-linejoin:round; stroke-width:4; stroke-opacity:1; fill:none" points="263.786,1423.18 263.786,1404.28 "/>
<polyline clip-path="url(#clip950)" style="stroke:#000000; stroke-linecap:round; stroke-linejoin:round; stroke-width:4; stroke-opacity:1; fill:none" points="583.249,1423.18 583.249,1404.28 "/>
<polyline clip-path="url(#clip950)" style="stroke:#000000; stroke-linecap:round; stroke-linejoin:round; stroke-width:4; stroke-opacity:1; fill:none" points="902.712,1423.18 902.712,1404.28 "/>
<polyline clip-path="url(#clip950)" style="stroke:#000000; stroke-linecap:round; stroke-linejoin:round; stroke-width:4; stroke-opacity:1; fill:none" points="1222.18,1423.18 1222.18,1404.28 "/>
<polyline clip-path="url(#clip950)" style="stroke:#000000; stroke-linecap:round; stroke-linejoin:round; stroke-width:4; stroke-opacity:1; fill:none" points="1541.64,1423.18 1541.64,1404.28 "/>
<polyline clip-path="url(#clip950)" style="stroke:#000000; stroke-linecap:round; stroke-linejoin:round; stroke-width:4; stroke-opacity:1; fill:none" points="1861.1,1423.18 1861.1,1404.28 "/>
<polyline clip-path="url(#clip950)" style="stroke:#000000; stroke-linecap:round; stroke-linejoin:round; stroke-width:4; stroke-opacity:1; fill:none" points="2180.57,1423.18 2180.57,1404.28 "/>
<path clip-path="url(#clip950)" d="M263.786 1454.1 Q260.174 1454.1 258.346 1457.66 Q256.54 1461.2 256.54 1468.33 Q256.54 1475.44 258.346 1479.01 Q260.174 1482.55 263.786 1482.55 Q267.42 1482.55 269.225 1479.01 Q271.054 1475.44 271.054 1468.33 Q271.054 1461.2 269.225 1457.66 Q267.42 1454.1 263.786 1454.1 M263.786 1450.39 Q269.596 1450.39 272.651 1455 Q275.73 1459.58 275.73 1468.33 Q275.73 1477.06 272.651 1481.67 Q269.596 1486.25 263.786 1486.25 Q257.975 1486.25 254.897 1481.67 Q251.841 1477.06 251.841 1468.33 Q251.841 1459.58 254.897 1455 Q257.975 1450.39 263.786 1450.39 Z" fill="#000000" fill-rule="nonzero" fill-opacity="1" /><path clip-path="url(#clip950)" d="M562.022 1481.64 L578.341 1481.64 L578.341 1485.58 L556.397 1485.58 L556.397 1481.64 Q559.059 1478.89 563.642 1474.26 Q568.249 1469.61 569.429 1468.27 Q571.675 1465.74 572.554 1464.01 Q573.457 1462.25 573.457 1460.56 Q573.457 1457.8 571.513 1456.07 Q569.591 1454.33 566.49 1454.33 Q564.291 1454.33 561.837 1455.09 Q559.406 1455.86 556.629 1457.41 L556.629 1452.69 Q559.453 1451.55 561.906 1450.97 Q564.36 1450.39 566.397 1450.39 Q571.767 1450.39 574.962 1453.08 Q578.156 1455.77 578.156 1460.26 Q578.156 1462.39 577.346 1464.31 Q576.559 1466.2 574.453 1468.8 Q573.874 1469.47 570.772 1472.69 Q567.67 1475.88 562.022 1481.64 Z" fill="#000000" fill-rule="nonzero" fill-opacity="1" /><path clip-path="url(#clip950)" d="M598.156 1454.1 Q594.545 1454.1 592.716 1457.66 Q590.911 1461.2 590.911 1468.33 Q590.911 1475.44 592.716 1479.01 Q594.545 1482.55 598.156 1482.55 Q601.79 1482.55 603.596 1479.01 Q605.425 1475.44 605.425 1468.33 Q605.425 1461.2 603.596 1457.66 Q601.79 1454.1 598.156 1454.1 M598.156 1450.39 Q603.966 1450.39 607.022 1455 Q610.101 1459.58 610.101 1468.33 Q610.101 1477.06 607.022 1481.67 Q603.966 1486.25 598.156 1486.25 Q592.346 1486.25 589.267 1481.67 Q586.212 1477.06 586.212 1468.33 Q586.212 1459.58 589.267 1455 Q592.346 1450.39 598.156 1450.39 Z" fill="#000000" fill-rule="nonzero" fill-opacity="1" /><path clip-path="url(#clip950)" d="M890.883 1455.09 L879.078 1473.54 L890.883 1473.54 L890.883 1455.09 M889.657 1451.02 L895.536 1451.02 L895.536 1473.54 L900.467 1473.54 L900.467 1477.43 L895.536 1477.43 L895.536 1485.58 L890.883 1485.58 L890.883 1477.43 L875.282 1477.43 L875.282 1472.92 L889.657 1451.02 Z" fill="#000000" fill-rule="nonzero" fill-opacity="1" /><path clip-path="url(#clip950)" d="M918.198 1454.1 Q914.587 1454.1 912.758 1457.66 Q910.953 1461.2 910.953 1468.33 Q910.953 1475.44 912.758 1479.01 Q914.587 1482.55 918.198 1482.55 Q921.832 1482.55 923.638 1479.01 Q925.467 1475.44 925.467 1468.33 Q925.467 1461.2 923.638 1457.66 Q921.832 1454.1 918.198 1454.1 M918.198 1450.39 Q924.008 1450.39 927.064 1455 Q930.143 1459.58 930.143 1468.33 Q930.143 1477.06 927.064 1481.67 Q924.008 1486.25 918.198 1486.25 Q912.388 1486.25 909.309 1481.67 Q906.254 1477.06 906.254 1468.33 Q906.254 1459.58 909.309 1455 Q912.388 1450.39 918.198 1450.39 Z" fill="#000000" fill-rule="nonzero" fill-opacity="1" /><path clip-path="url(#clip950)" d="M1207.58 1466.44 Q1204.43 1466.44 1202.58 1468.59 Q1200.75 1470.74 1200.75 1474.49 Q1200.75 1478.22 1202.58 1480.39 Q1204.43 1482.55 1207.58 1482.55 Q1210.73 1482.55 1212.56 1480.39 Q1214.41 1478.22 1214.41 1474.49 Q1214.41 1470.74 1212.56 1468.59 Q1210.73 1466.44 1207.58 1466.44 M1216.86 1451.78 L1216.86 1456.04 Q1215.1 1455.21 1213.3 1454.77 Q1211.52 1454.33 1209.76 1454.33 Q1205.13 1454.33 1202.67 1457.45 Q1200.24 1460.58 1199.9 1466.9 Q1201.26 1464.89 1203.32 1463.82 Q1205.38 1462.73 1207.86 1462.73 Q1213.07 1462.73 1216.08 1465.9 Q1219.11 1469.05 1219.11 1474.49 Q1219.11 1479.82 1215.96 1483.03 Q1212.81 1486.25 1207.58 1486.25 Q1201.59 1486.25 1198.41 1481.67 Q1195.24 1477.06 1195.24 1468.33 Q1195.24 1460.14 1199.13 1455.28 Q1203.02 1450.39 1209.57 1450.39 Q1211.33 1450.39 1213.11 1450.74 Q1214.92 1451.09 1216.86 1451.78 Z" fill="#000000" fill-rule="nonzero" fill-opacity="1" /><path clip-path="url(#clip950)" d="M1237.16 1454.1 Q1233.55 1454.1 1231.72 1457.66 Q1229.92 1461.2 1229.92 1468.33 Q1229.92 1475.44 1231.72 1479.01 Q1233.55 1482.55 1237.16 1482.55 Q1240.8 1482.55 1242.6 1479.01 Q1244.43 1475.44 1244.43 1468.33 Q1244.43 1461.2 1242.6 1457.66 Q1240.8 1454.1 1237.16 1454.1 M1237.16 1450.39 Q1242.97 1450.39 1246.03 1455 Q1249.11 1459.58 1249.11 1468.33 Q1249.11 1477.06 1246.03 1481.67 Q1242.97 1486.25 1237.16 1486.25 Q1231.35 1486.25 1228.27 1481.67 Q1225.22 1477.06 1225.22 1468.33 Q1225.22 1459.58 1228.27 1455 Q1231.35 1450.39 1237.16 1450.39 Z" fill="#000000" fill-rule="nonzero" fill-opacity="1" /><path clip-path="url(#clip950)" d="M1526.51 1469.17 Q1523.18 1469.17 1521.26 1470.95 Q1519.36 1472.73 1519.36 1475.86 Q1519.36 1478.98 1521.26 1480.77 Q1523.18 1482.55 1526.51 1482.55 Q1529.84 1482.55 1531.77 1480.77 Q1533.69 1478.96 1533.69 1475.86 Q1533.69 1472.73 1531.77 1470.95 Q1529.87 1469.17 1526.51 1469.17 M1521.84 1467.18 Q1518.83 1466.44 1517.14 1464.38 Q1515.47 1462.32 1515.47 1459.35 Q1515.47 1455.21 1518.41 1452.8 Q1521.37 1450.39 1526.51 1450.39 Q1531.67 1450.39 1534.61 1452.8 Q1537.55 1455.21 1537.55 1459.35 Q1537.55 1462.32 1535.86 1464.38 Q1534.2 1466.44 1531.21 1467.18 Q1534.59 1467.96 1536.47 1470.26 Q1538.36 1472.55 1538.36 1475.86 Q1538.36 1480.88 1535.28 1483.57 Q1532.23 1486.25 1526.51 1486.25 Q1520.79 1486.25 1517.72 1483.57 Q1514.66 1480.88 1514.66 1475.86 Q1514.66 1472.55 1516.56 1470.26 Q1518.46 1467.96 1521.84 1467.18 M1520.12 1459.79 Q1520.12 1462.48 1521.79 1463.98 Q1523.48 1465.49 1526.51 1465.49 Q1529.52 1465.49 1531.21 1463.98 Q1532.92 1462.48 1532.92 1459.79 Q1532.92 1457.11 1531.21 1455.6 Q1529.52 1454.1 1526.51 1454.1 Q1523.48 1454.1 1521.79 1455.6 Q1520.12 1457.11 1520.12 1459.79 Z" fill="#000000" fill-rule="nonzero" fill-opacity="1" /><path clip-path="url(#clip950)" d="M1556.67 1454.1 Q1553.06 1454.1 1551.23 1457.66 Q1549.43 1461.2 1549.43 1468.33 Q1549.43 1475.44 1551.23 1479.01 Q1553.06 1482.55 1556.67 1482.55 Q1560.31 1482.55 1562.11 1479.01 Q1563.94 1475.44 1563.94 1468.33 Q1563.94 1461.2 1562.11 1457.66 Q1560.31 1454.1 1556.67 1454.1 M1556.67 1450.39 Q1562.48 1450.39 1565.54 1455 Q1568.62 1459.58 1568.62 1468.33 Q1568.62 1477.06 1565.54 1481.67 Q1562.48 1486.25 1556.67 1486.25 Q1550.86 1486.25 1547.78 1481.67 Q1544.73 1477.06 1544.73 1468.33 Q1544.73 1459.58 1547.78 1455 Q1550.86 1450.39 1556.67 1450.39 Z" fill="#000000" fill-rule="nonzero" fill-opacity="1" /><path clip-path="url(#clip950)" d="M1820.71 1481.64 L1828.35 1481.64 L1828.35 1455.28 L1820.04 1456.95 L1820.04 1452.69 L1828.3 1451.02 L1832.98 1451.02 L1832.98 1481.64 L1840.62 1481.64 L1840.62 1485.58 L1820.71 1485.58 L1820.71 1481.64 Z" fill="#000000" fill-rule="nonzero" fill-opacity="1" /><path clip-path="url(#clip950)" d="M1860.06 1454.1 Q1856.45 1454.1 1854.62 1457.66 Q1852.81 1461.2 1852.81 1468.33 Q1852.81 1475.44 1854.62 1479.01 Q1856.45 1482.55 1860.06 1482.55 Q1863.69 1482.55 1865.5 1479.01 Q1867.33 1475.44 1867.33 1468.33 Q1867.33 1461.2 1865.5 1457.66 Q1863.69 1454.1 1860.06 1454.1 M1860.06 1450.39 Q1865.87 1450.39 1868.93 1455 Q1872 1459.58 1872 1468.33 Q1872 1477.06 1868.93 1481.67 Q1865.87 1486.25 1860.06 1486.25 Q1854.25 1486.25 1851.17 1481.67 Q1848.12 1477.06 1848.12 1468.33 Q1848.12 1459.58 1851.17 1455 Q1854.25 1450.39 1860.06 1450.39 Z" fill="#000000" fill-rule="nonzero" fill-opacity="1" /><path clip-path="url(#clip950)" d="M1890.22 1454.1 Q1886.61 1454.1 1884.78 1457.66 Q1882.98 1461.2 1882.98 1468.33 Q1882.98 1475.44 1884.78 1479.01 Q1886.61 1482.55 1890.22 1482.55 Q1893.86 1482.55 1895.66 1479.01 Q1897.49 1475.44 1897.49 1468.33 Q1897.49 1461.2 1895.66 1457.66 Q1893.86 1454.1 1890.22 1454.1 M1890.22 1450.39 Q1896.03 1450.39 1899.09 1455 Q1902.17 1459.58 1902.17 1468.33 Q1902.17 1477.06 1899.09 1481.67 Q1896.03 1486.25 1890.22 1486.25 Q1884.41 1486.25 1881.33 1481.67 Q1878.28 1477.06 1878.28 1468.33 Q1878.28 1459.58 1881.33 1455 Q1884.41 1450.39 1890.22 1450.39 Z" fill="#000000" fill-rule="nonzero" fill-opacity="1" /><path clip-path="url(#clip950)" d="M2140.17 1481.64 L2147.81 1481.64 L2147.81 1455.28 L2139.5 1456.95 L2139.5 1452.69 L2147.76 1451.02 L2152.44 1451.02 L2152.44 1481.64 L2160.08 1481.64 L2160.08 1485.58 L2140.17 1485.58 L2140.17 1481.64 Z" fill="#000000" fill-rule="nonzero" fill-opacity="1" /><path clip-path="url(#clip950)" d="M2173.55 1481.64 L2189.87 1481.64 L2189.87 1485.58 L2167.93 1485.58 L2167.93 1481.64 Q2170.59 1478.89 2175.17 1474.26 Q2179.78 1469.61 2180.96 1468.27 Q2183.2 1465.74 2184.08 1464.01 Q2184.99 1462.25 2184.99 1460.56 Q2184.99 1457.8 2183.04 1456.07 Q2181.12 1454.33 2178.02 1454.33 Q2175.82 1454.33 2173.37 1455.09 Q2170.94 1455.86 2168.16 1457.41 L2168.16 1452.69 Q2170.98 1451.55 2173.44 1450.97 Q2175.89 1450.39 2177.93 1450.39 Q2183.3 1450.39 2186.49 1453.08 Q2189.69 1455.77 2189.69 1460.26 Q2189.69 1462.39 2188.88 1464.31 Q2188.09 1466.2 2185.98 1468.8 Q2185.4 1469.47 2182.3 1472.69 Q2179.2 1475.88 2173.55 1481.64 Z" fill="#000000" fill-rule="nonzero" fill-opacity="1" /><path clip-path="url(#clip950)" d="M2209.69 1454.1 Q2206.07 1454.1 2204.25 1457.66 Q2202.44 1461.2 2202.44 1468.33 Q2202.44 1475.44 2204.25 1479.01 Q2206.07 1482.55 2209.69 1482.55 Q2213.32 1482.55 2215.13 1479.01 Q2216.95 1475.44 2216.95 1468.33 Q2216.95 1461.2 2215.13 1457.66 Q2213.32 1454.1 2209.69 1454.1 M2209.69 1450.39 Q2215.5 1450.39 2218.55 1455 Q2221.63 1459.58 2221.63 1468.33 Q2221.63 1477.06 2218.55 1481.67 Q2215.5 1486.25 2209.69 1486.25 Q2203.88 1486.25 2200.8 1481.67 Q2197.74 1477.06 2197.74 1468.33 Q2197.74 1459.58 2200.8 1455 Q2203.88 1450.39 2209.69 1450.39 Z" fill="#000000" fill-rule="nonzero" fill-opacity="1" /><path clip-path="url(#clip950)" d="M980.021 1546.53 L980.021 1568.04 L974.164 1568.04 L974.164 1546.72 Q974.164 1541.66 972.191 1539.14 Q970.218 1536.63 966.271 1536.63 Q961.528 1536.63 958.791 1539.65 Q956.054 1542.68 956.054 1547.9 L956.054 1568.04 L950.166 1568.04 L950.166 1532.4 L956.054 1532.4 L956.054 1537.93 Q958.155 1534.72 960.987 1533.13 Q963.852 1531.54 967.576 1531.54 Q973.719 1531.54 976.87 1535.36 Q980.021 1539.14 980.021 1546.53 Z" fill="#000000" fill-rule="nonzero" fill-opacity="1" /><path clip-path="url(#clip950)" d="M991.097 1553.98 L991.097 1532.4 L996.954 1532.4 L996.954 1553.75 Q996.954 1558.81 998.927 1561.36 Q1000.9 1563.87 1004.85 1563.87 Q1009.59 1563.87 1012.33 1560.85 Q1015.1 1557.83 1015.1 1552.61 L1015.1 1532.4 L1020.95 1532.4 L1020.95 1568.04 L1015.1 1568.04 L1015.1 1562.57 Q1012.96 1565.82 1010.13 1567.41 Q1007.33 1568.97 1003.61 1568.97 Q997.463 1568.97 994.28 1565.15 Q991.097 1561.33 991.097 1553.98 M1005.83 1531.54 L1005.83 1531.54 Z" fill="#000000" fill-rule="nonzero" fill-opacity="1" /><path clip-path="url(#clip950)" d="M1060.77 1539.24 Q1062.97 1535.29 1066.02 1533.41 Q1069.08 1531.54 1073.21 1531.54 Q1078.78 1531.54 1081.81 1535.45 Q1084.83 1539.33 1084.83 1546.53 L1084.83 1568.04 L1078.94 1568.04 L1078.94 1546.72 Q1078.94 1541.59 1077.13 1539.11 Q1075.32 1536.63 1071.59 1536.63 Q1067.04 1536.63 1064.4 1539.65 Q1061.76 1542.68 1061.76 1547.9 L1061.76 1568.04 L1055.87 1568.04 L1055.87 1546.72 Q1055.87 1541.56 1054.05 1539.11 Q1052.24 1536.63 1048.45 1536.63 Q1043.96 1536.63 1041.32 1539.68 Q1038.68 1542.71 1038.68 1547.9 L1038.68 1568.04 L1032.79 1568.04 L1032.79 1532.4 L1038.68 1532.4 L1038.68 1537.93 Q1040.69 1534.66 1043.49 1533.1 Q1046.29 1531.54 1050.14 1531.54 Q1054.02 1531.54 1056.73 1533.51 Q1059.46 1535.48 1060.77 1539.24 Z" fill="#000000" fill-rule="nonzero" fill-opacity="1" /><path clip-path="url(#clip950)" d="M1122.1 1550.25 Q1122.1 1543.79 1119.43 1540.13 Q1116.79 1536.44 1112.14 1536.44 Q1107.49 1536.44 1104.82 1540.13 Q1102.18 1543.79 1102.18 1550.25 Q1102.18 1556.71 1104.82 1560.4 Q1107.49 1564.07 1112.14 1564.07 Q1116.79 1564.07 1119.43 1560.4 Q1122.1 1556.71 1122.1 1550.25 M1102.18 1537.81 Q1104.02 1534.62 1106.83 1533.1 Q1109.66 1531.54 1113.57 1531.54 Q1120.07 1531.54 1124.11 1536.69 Q1128.18 1541.85 1128.18 1550.25 Q1128.18 1558.65 1124.11 1563.81 Q1120.07 1568.97 1113.57 1568.97 Q1109.66 1568.97 1106.83 1567.44 Q1104.02 1565.88 1102.18 1562.7 L1102.18 1568.04 L1096.29 1568.04 L1096.29 1518.52 L1102.18 1518.52 L1102.18 1537.81 Z" fill="#000000" fill-rule="nonzero" fill-opacity="1" /><path clip-path="url(#clip950)" d="M1168.38 1548.76 L1168.38 1551.62 L1141.46 1551.62 Q1141.84 1557.67 1145.08 1560.85 Q1148.36 1564 1154.19 1564 Q1157.56 1564 1160.71 1563.17 Q1163.89 1562.35 1167.01 1560.69 L1167.01 1566.23 Q1163.86 1567.57 1160.55 1568.27 Q1157.24 1568.97 1153.84 1568.97 Q1145.31 1568.97 1140.31 1564 Q1135.34 1559.04 1135.34 1550.57 Q1135.34 1541.82 1140.05 1536.69 Q1144.8 1531.54 1152.82 1531.54 Q1160.01 1531.54 1164.18 1536.18 Q1168.38 1540.8 1168.38 1548.76 M1162.53 1547.04 Q1162.46 1542.23 1159.82 1539.37 Q1157.21 1536.5 1152.88 1536.5 Q1147.98 1536.5 1145.02 1539.27 Q1142.09 1542.04 1141.65 1547.07 L1162.53 1547.04 Z" fill="#000000" fill-rule="nonzero" fill-opacity="1" /><path clip-path="url(#clip950)" d="M1198.65 1537.87 Q1197.66 1537.3 1196.49 1537.04 Q1195.34 1536.76 1193.94 1536.76 Q1188.98 1536.76 1186.3 1540 Q1183.66 1543.22 1183.66 1549.27 L1183.66 1568.04 L1177.77 1568.04 L1177.77 1532.4 L1183.66 1532.4 L1183.66 1537.93 Q1185.51 1534.69 1188.47 1533.13 Q1191.43 1531.54 1195.66 1531.54 Q1196.26 1531.54 1197 1531.63 Q1197.73 1531.7 1198.62 1531.85 L1198.65 1537.87 Z" fill="#000000" fill-rule="nonzero" fill-opacity="1" /><path clip-path="url(#clip950)" d="M1239.33 1536.5 Q1234.62 1536.5 1231.88 1540.19 Q1229.14 1543.85 1229.14 1550.25 Q1229.14 1556.65 1231.85 1560.34 Q1234.59 1564 1239.33 1564 Q1244.01 1564 1246.74 1560.31 Q1249.48 1556.62 1249.48 1550.25 Q1249.48 1543.92 1246.74 1540.23 Q1244.01 1536.5 1239.33 1536.5 M1239.33 1531.54 Q1246.97 1531.54 1251.33 1536.5 Q1255.69 1541.47 1255.69 1550.25 Q1255.69 1559 1251.33 1564 Q1246.97 1568.97 1239.33 1568.97 Q1231.66 1568.97 1227.3 1564 Q1222.97 1559 1222.97 1550.25 Q1222.97 1541.47 1227.3 1536.5 Q1231.66 1531.54 1239.33 1531.54 Z" fill="#000000" fill-rule="nonzero" fill-opacity="1" /><path clip-path="url(#clip950)" d="M1283.44 1518.52 L1283.44 1523.39 L1277.84 1523.39 Q1274.69 1523.39 1273.45 1524.66 Q1272.24 1525.93 1272.24 1529.24 L1272.24 1532.4 L1281.88 1532.4 L1281.88 1536.95 L1272.24 1536.95 L1272.24 1568.04 L1266.35 1568.04 L1266.35 1536.95 L1260.75 1536.95 L1260.75 1532.4 L1266.35 1532.4 L1266.35 1529.91 Q1266.35 1523.96 1269.12 1521.26 Q1271.89 1518.52 1277.9 1518.52 L1283.44 1518.52 Z" fill="#000000" fill-rule="nonzero" fill-opacity="1" /><path clip-path="url(#clip950)" d="M1314.86 1522.27 L1314.86 1532.4 L1326.92 1532.4 L1326.92 1536.95 L1314.86 1536.95 L1314.86 1556.3 Q1314.86 1560.66 1316.03 1561.9 Q1317.24 1563.14 1320.9 1563.14 L1326.92 1563.14 L1326.92 1568.04 L1320.9 1568.04 Q1314.12 1568.04 1311.55 1565.53 Q1308.97 1562.98 1308.97 1556.3 L1308.97 1536.95 L1304.67 1536.95 L1304.67 1532.4 L1308.97 1532.4 L1308.97 1522.27 L1314.86 1522.27 Z" fill="#000000" fill-rule="nonzero" fill-opacity="1" /><path clip-path="url(#clip950)" d="M1334.62 1532.4 L1340.48 1532.4 L1340.48 1568.04 L1334.62 1568.04 L1334.62 1532.4 M1334.62 1518.52 L1340.48 1518.52 L1340.48 1525.93 L1334.62 1525.93 L1334.62 1518.52 Z" fill="#000000" fill-rule="nonzero" fill-opacity="1" /><path clip-path="url(#clip950)" d="M1380.49 1539.24 Q1382.68 1535.29 1385.74 1533.41 Q1388.79 1531.54 1392.93 1531.54 Q1398.5 1531.54 1401.53 1535.45 Q1404.55 1539.33 1404.55 1546.53 L1404.55 1568.04 L1398.66 1568.04 L1398.66 1546.72 Q1398.66 1541.59 1396.85 1539.11 Q1395.03 1536.63 1391.31 1536.63 Q1386.76 1536.63 1384.12 1539.65 Q1381.47 1542.68 1381.47 1547.9 L1381.47 1568.04 L1375.59 1568.04 L1375.59 1546.72 Q1375.59 1541.56 1373.77 1539.11 Q1371.96 1536.63 1368.17 1536.63 Q1363.68 1536.63 1361.04 1539.68 Q1358.4 1542.71 1358.4 1547.9 L1358.4 1568.04 L1352.51 1568.04 L1352.51 1532.4 L1358.4 1532.4 L1358.4 1537.93 Q1360.4 1534.66 1363.2 1533.1 Q1366.01 1531.54 1369.86 1531.54 Q1373.74 1531.54 1376.45 1533.51 Q1379.18 1535.48 1380.49 1539.24 Z" fill="#000000" fill-rule="nonzero" fill-opacity="1" /><path clip-path="url(#clip950)" d="M1446.72 1548.76 L1446.72 1551.62 L1419.8 1551.62 Q1420.18 1557.67 1423.42 1560.85 Q1426.7 1564 1432.53 1564 Q1435.9 1564 1439.05 1563.17 Q1442.23 1562.35 1445.35 1560.69 L1445.35 1566.23 Q1442.2 1567.57 1438.89 1568.27 Q1435.58 1568.97 1432.18 1568.97 Q1423.65 1568.97 1418.65 1564 Q1413.68 1559.04 1413.68 1550.57 Q1413.68 1541.82 1418.4 1536.69 Q1423.14 1531.54 1431.16 1531.54 Q1438.35 1531.54 1442.52 1536.18 Q1446.72 1540.8 1446.72 1548.76 M1440.87 1547.04 Q1440.8 1542.23 1438.16 1539.37 Q1435.55 1536.5 1431.22 1536.5 Q1426.32 1536.5 1423.36 1539.27 Q1420.43 1542.04 1419.99 1547.07 L1440.87 1547.04 Z" fill="#000000" fill-rule="nonzero" fill-opacity="1" /><path clip-path="url(#clip950)" d="M1479.06 1533.45 L1479.06 1538.98 Q1476.58 1537.71 1473.9 1537.07 Q1471.23 1536.44 1468.37 1536.44 Q1464.01 1536.44 1461.81 1537.77 Q1459.64 1539.11 1459.64 1541.79 Q1459.64 1543.82 1461.2 1545 Q1462.76 1546.15 1467.47 1547.2 L1469.48 1547.64 Q1475.72 1548.98 1478.33 1551.43 Q1480.97 1553.85 1480.97 1558.21 Q1480.97 1563.17 1477.02 1566.07 Q1473.11 1568.97 1466.23 1568.97 Q1463.37 1568.97 1460.25 1568.39 Q1457.16 1567.85 1453.72 1566.74 L1453.72 1560.69 Q1456.97 1562.38 1460.12 1563.24 Q1463.27 1564.07 1466.36 1564.07 Q1470.5 1564.07 1472.73 1562.66 Q1474.95 1561.23 1474.95 1558.65 Q1474.95 1556.27 1473.33 1554.99 Q1471.74 1553.72 1466.3 1552.54 L1464.26 1552.07 Q1458.82 1550.92 1456.4 1548.56 Q1453.98 1546.18 1453.98 1542.04 Q1453.98 1537.01 1457.54 1534.27 Q1461.11 1531.54 1467.67 1531.54 Q1470.91 1531.54 1473.78 1532.01 Q1476.64 1532.49 1479.06 1533.45 Z" fill="#000000" fill-rule="nonzero" fill-opacity="1" /><path clip-path="url(#clip950)" d="M1496.09 1522.27 L1496.09 1532.4 L1508.15 1532.4 L1508.15 1536.95 L1496.09 1536.95 L1496.09 1556.3 Q1496.09 1560.66 1497.27 1561.9 Q1498.48 1563.14 1502.14 1563.14 L1508.15 1563.14 L1508.15 1568.04 L1502.14 1568.04 Q1495.36 1568.04 1492.78 1565.53 Q1490.2 1562.98 1490.2 1556.3 L1490.2 1536.95 L1485.9 1536.95 L1485.9 1532.4 L1490.2 1532.4 L1490.2 1522.27 L1496.09 1522.27 Z" fill="#000000" fill-rule="nonzero" fill-opacity="1" /><path clip-path="url(#clip950)" d="M1546.35 1548.76 L1546.35 1551.62 L1519.42 1551.62 Q1519.8 1557.67 1523.05 1560.85 Q1526.33 1564 1532.15 1564 Q1535.52 1564 1538.68 1563.17 Q1541.86 1562.35 1544.98 1560.69 L1544.98 1566.23 Q1541.83 1567.57 1538.52 1568.27 Q1535.21 1568.97 1531.8 1568.97 Q1523.27 1568.97 1518.27 1564 Q1513.31 1559.04 1513.31 1550.57 Q1513.31 1541.82 1518.02 1536.69 Q1522.76 1531.54 1530.78 1531.54 Q1537.97 1531.54 1542.14 1536.18 Q1546.35 1540.8 1546.35 1548.76 M1540.49 1547.04 Q1540.43 1542.23 1537.78 1539.37 Q1535.17 1536.5 1530.85 1536.5 Q1525.94 1536.5 1522.98 1539.27 Q1520.06 1542.04 1519.61 1547.07 L1540.49 1547.04 Z" fill="#000000" fill-rule="nonzero" fill-opacity="1" /><path clip-path="url(#clip950)" d="M1561.62 1562.7 L1561.62 1581.6 L1555.74 1581.6 L1555.74 1532.4 L1561.62 1532.4 L1561.62 1537.81 Q1563.47 1534.62 1566.27 1533.1 Q1569.1 1531.54 1573.02 1531.54 Q1579.51 1531.54 1583.55 1536.69 Q1587.63 1541.85 1587.63 1550.25 Q1587.63 1558.65 1583.55 1563.81 Q1579.51 1568.97 1573.02 1568.97 Q1569.1 1568.97 1566.27 1567.44 Q1563.47 1565.88 1561.62 1562.7 M1581.55 1550.25 Q1581.55 1543.79 1578.87 1540.13 Q1576.23 1536.44 1571.59 1536.44 Q1566.94 1536.44 1564.27 1540.13 Q1561.62 1543.79 1561.62 1550.25 Q1561.62 1556.71 1564.27 1560.4 Q1566.94 1564.07 1571.59 1564.07 Q1576.23 1564.07 1578.87 1560.4 Q1581.55 1556.71 1581.55 1550.25 Z" fill="#000000" fill-rule="nonzero" fill-opacity="1" /><path clip-path="url(#clip950)" d="M1620.06 1533.45 L1620.06 1538.98 Q1617.58 1537.71 1614.9 1537.07 Q1612.23 1536.44 1609.37 1536.44 Q1605.01 1536.44 1602.81 1537.77 Q1600.65 1539.11 1600.65 1541.79 Q1600.65 1543.82 1602.2 1545 Q1603.76 1546.15 1608.48 1547.2 L1610.48 1547.64 Q1616.72 1548.98 1619.33 1551.43 Q1621.97 1553.85 1621.97 1558.21 Q1621.97 1563.17 1618.02 1566.07 Q1614.11 1568.97 1607.23 1568.97 Q1604.37 1568.97 1601.25 1568.39 Q1598.16 1567.85 1594.73 1566.74 L1594.73 1560.69 Q1597.97 1562.38 1601.12 1563.24 Q1604.27 1564.07 1607.36 1564.07 Q1611.5 1564.07 1613.73 1562.66 Q1615.95 1561.23 1615.95 1558.65 Q1615.95 1556.27 1614.33 1554.99 Q1612.74 1553.72 1607.3 1552.54 L1605.26 1552.07 Q1599.82 1550.92 1597.4 1548.56 Q1594.98 1546.18 1594.98 1542.04 Q1594.98 1537.01 1598.54 1534.27 Q1602.11 1531.54 1608.67 1531.54 Q1611.91 1531.54 1614.78 1532.01 Q1617.64 1532.49 1620.06 1533.45 Z" fill="#000000" fill-rule="nonzero" fill-opacity="1" /><polyline clip-path="url(#clip952)" style="stroke:#000000; stroke-linecap:round; stroke-linejoin:round; stroke-width:2; stroke-opacity:0.1; fill:none" points="219.38,1411.65 2352.76,1411.65 "/>
<polyline clip-path="url(#clip952)" style="stroke:#000000; stroke-linecap:round; stroke-linejoin:round; stroke-width:2; stroke-opacity:0.1; fill:none" points="219.38,1039.95 2352.76,1039.95 "/>
<polyline clip-path="url(#clip952)" style="stroke:#000000; stroke-linecap:round; stroke-linejoin:round; stroke-width:2; stroke-opacity:0.1; fill:none" points="219.38,668.255 2352.76,668.255 "/>
<polyline clip-path="url(#clip952)" style="stroke:#000000; stroke-linecap:round; stroke-linejoin:round; stroke-width:2; stroke-opacity:0.1; fill:none" points="219.38,296.56 2352.76,296.56 "/>
<polyline clip-path="url(#clip950)" style="stroke:#000000; stroke-linecap:round; stroke-linejoin:round; stroke-width:4; stroke-opacity:1; fill:none" points="219.38,1423.18 219.38,47.2441 "/>
<polyline clip-path="url(#clip950)" style="stroke:#000000; stroke-linecap:round; stroke-linejoin:round; stroke-width:4; stroke-opacity:1; fill:none" points="219.38,1411.65 238.278,1411.65 "/>
<polyline clip-path="url(#clip950)" style="stroke:#000000; stroke-linecap:round; stroke-linejoin:round; stroke-width:4; stroke-opacity:1; fill:none" points="219.38,1039.95 238.278,1039.95 "/>
<polyline clip-path="url(#clip950)" style="stroke:#000000; stroke-linecap:round; stroke-linejoin:round; stroke-width:4; stroke-opacity:1; fill:none" points="219.38,668.255 238.278,668.255 "/>
<polyline clip-path="url(#clip950)" style="stroke:#000000; stroke-linecap:round; stroke-linejoin:round; stroke-width:4; stroke-opacity:1; fill:none" points="219.38,296.56 238.278,296.56 "/>
<path clip-path="url(#clip950)" d="M126.205 1397.44 Q122.593 1397.44 120.765 1401.01 Q118.959 1404.55 118.959 1411.68 Q118.959 1418.79 120.765 1422.35 Q122.593 1425.89 126.205 1425.89 Q129.839 1425.89 131.644 1422.35 Q133.473 1418.79 133.473 1411.68 Q133.473 1404.55 131.644 1401.01 Q129.839 1397.44 126.205 1397.44 M126.205 1393.74 Q132.015 1393.74 135.07 1398.35 Q138.149 1402.93 138.149 1411.68 Q138.149 1420.41 135.07 1425.01 Q132.015 1429.6 126.205 1429.6 Q120.394 1429.6 117.316 1425.01 Q114.26 1420.41 114.26 1411.68 Q114.26 1402.93 117.316 1398.35 Q120.394 1393.74 126.205 1393.74 Z" fill="#000000" fill-rule="nonzero" fill-opacity="1" /><path clip-path="url(#clip950)" d="M146.366 1423.05 L151.251 1423.05 L151.251 1428.93 L146.366 1428.93 L146.366 1423.05 Z" fill="#000000" fill-rule="nonzero" fill-opacity="1" /><path clip-path="url(#clip950)" d="M171.436 1397.44 Q167.825 1397.44 165.996 1401.01 Q164.19 1404.55 164.19 1411.68 Q164.19 1418.79 165.996 1422.35 Q167.825 1425.89 171.436 1425.89 Q175.07 1425.89 176.876 1422.35 Q178.704 1418.79 178.704 1411.68 Q178.704 1404.55 176.876 1401.01 Q175.07 1397.44 171.436 1397.44 M171.436 1393.74 Q177.246 1393.74 180.301 1398.35 Q183.38 1402.93 183.38 1411.68 Q183.38 1420.41 180.301 1425.01 Q177.246 1429.6 171.436 1429.6 Q165.626 1429.6 162.547 1425.01 Q159.491 1420.41 159.491 1411.68 Q159.491 1402.93 162.547 1398.35 Q165.626 1393.74 171.436 1393.74 Z" fill="#000000" fill-rule="nonzero" fill-opacity="1" /><path clip-path="url(#clip950)" d="M127.2 1025.75 Q123.589 1025.75 121.76 1029.31 Q119.955 1032.86 119.955 1039.99 Q119.955 1047.09 121.76 1050.66 Q123.589 1054.2 127.2 1054.2 Q130.834 1054.2 132.64 1050.66 Q134.468 1047.09 134.468 1039.99 Q134.468 1032.86 132.64 1029.31 Q130.834 1025.75 127.2 1025.75 M127.2 1022.05 Q133.01 1022.05 136.066 1026.65 Q139.144 1031.24 139.144 1039.99 Q139.144 1048.71 136.066 1053.32 Q133.01 1057.9 127.2 1057.9 Q121.39 1057.9 118.311 1053.32 Q115.256 1048.71 115.256 1039.99 Q115.256 1031.24 118.311 1026.65 Q121.39 1022.05 127.2 1022.05 Z" fill="#000000" fill-rule="nonzero" fill-opacity="1" /><path clip-path="url(#clip950)" d="M147.362 1051.35 L152.246 1051.35 L152.246 1057.23 L147.362 1057.23 L147.362 1051.35 Z" fill="#000000" fill-rule="nonzero" fill-opacity="1" /><path clip-path="url(#clip950)" d="M162.477 1022.67 L180.834 1022.67 L180.834 1026.61 L166.76 1026.61 L166.76 1035.08 Q167.778 1034.73 168.797 1034.57 Q169.815 1034.38 170.834 1034.38 Q176.621 1034.38 180.001 1037.55 Q183.38 1040.73 183.38 1046.14 Q183.38 1051.72 179.908 1054.82 Q176.436 1057.9 170.116 1057.9 Q167.94 1057.9 165.672 1057.53 Q163.427 1057.16 161.019 1056.42 L161.019 1051.72 Q163.102 1052.86 165.325 1053.41 Q167.547 1053.97 170.024 1053.97 Q174.028 1053.97 176.366 1051.86 Q178.704 1049.75 178.704 1046.14 Q178.704 1042.53 176.366 1040.43 Q174.028 1038.32 170.024 1038.32 Q168.149 1038.32 166.274 1038.74 Q164.422 1039.15 162.477 1040.03 L162.477 1022.67 Z" fill="#000000" fill-rule="nonzero" fill-opacity="1" /><path clip-path="url(#clip950)" d="M117.015 681.6 L124.654 681.6 L124.654 655.234 L116.343 656.901 L116.343 652.642 L124.607 650.975 L129.283 650.975 L129.283 681.6 L136.922 681.6 L136.922 685.535 L117.015 685.535 L117.015 681.6 Z" fill="#000000" fill-rule="nonzero" fill-opacity="1" /><path clip-path="url(#clip950)" d="M146.366 679.656 L151.251 679.656 L151.251 685.535 L146.366 685.535 L146.366 679.656 Z" fill="#000000" fill-rule="nonzero" fill-opacity="1" /><path clip-path="url(#clip950)" d="M171.436 654.054 Q167.825 654.054 165.996 657.619 Q164.19 661.16 164.19 668.29 Q164.19 675.396 165.996 678.961 Q167.825 682.503 171.436 682.503 Q175.07 682.503 176.876 678.961 Q178.704 675.396 178.704 668.29 Q178.704 661.16 176.876 657.619 Q175.07 654.054 171.436 654.054 M171.436 650.35 Q177.246 650.35 180.301 654.957 Q183.38 659.54 183.38 668.29 Q183.38 677.017 180.301 681.623 Q177.246 686.207 171.436 686.207 Q165.626 686.207 162.547 681.623 Q159.491 677.017 159.491 668.29 Q159.491 659.54 162.547 654.957 Q165.626 650.35 171.436 650.35 Z" fill="#000000" fill-rule="nonzero" fill-opacity="1" /><path clip-path="url(#clip950)" d="M118.01 309.905 L125.649 309.905 L125.649 283.539 L117.339 285.206 L117.339 280.947 L125.603 279.28 L130.279 279.28 L130.279 309.905 L137.917 309.905 L137.917 313.84 L118.01 313.84 L118.01 309.905 Z" fill="#000000" fill-rule="nonzero" fill-opacity="1" /><path clip-path="url(#clip950)" d="M147.362 307.96 L152.246 307.96 L152.246 313.84 L147.362 313.84 L147.362 307.96 Z" fill="#000000" fill-rule="nonzero" fill-opacity="1" /><path clip-path="url(#clip950)" d="M162.477 279.28 L180.834 279.28 L180.834 283.215 L166.76 283.215 L166.76 291.687 Q167.778 291.34 168.797 291.178 Q169.815 290.993 170.834 290.993 Q176.621 290.993 180.001 294.164 Q183.38 297.335 183.38 302.752 Q183.38 308.331 179.908 311.433 Q176.436 314.511 170.116 314.511 Q167.94 314.511 165.672 314.141 Q163.427 313.771 161.019 313.03 L161.019 308.331 Q163.102 309.465 165.325 310.021 Q167.547 310.576 170.024 310.576 Q174.028 310.576 176.366 308.47 Q178.704 306.363 178.704 302.752 Q178.704 299.141 176.366 297.035 Q174.028 294.928 170.024 294.928 Q168.149 294.928 166.274 295.345 Q164.422 295.761 162.477 296.641 L162.477 279.28 Z" fill="#000000" fill-rule="nonzero" fill-opacity="1" /><path clip-path="url(#clip950)" d="M33.7671 869.783 L14.479 869.783 L14.479 863.927 L64.0042 863.927 L64.0042 869.783 L58.657 869.783 Q61.8398 871.629 63.3994 874.462 Q64.9272 877.263 64.9272 881.209 Q64.9272 887.671 59.771 891.745 Q54.6147 895.787 46.212 895.787 Q37.8093 895.787 32.6531 891.745 Q27.4968 887.671 27.4968 881.209 Q27.4968 877.263 29.0564 874.462 Q30.5842 871.629 33.7671 869.783 M46.212 889.739 Q52.6732 889.739 56.3653 887.098 Q60.0256 884.424 60.0256 879.777 Q60.0256 875.13 56.3653 872.457 Q52.6732 869.783 46.212 869.783 Q39.7508 869.783 36.0905 872.457 Q32.3984 875.13 32.3984 879.777 Q32.3984 884.424 36.0905 887.098 Q39.7508 889.739 46.212 889.739 Z" fill="#000000" fill-rule="nonzero" fill-opacity="1" /><path clip-path="url(#clip950)" d="M28.3562 851.864 L28.3562 846.007 L64.0042 846.007 L64.0042 851.864 L28.3562 851.864 M14.479 851.864 L14.479 846.007 L21.895 846.007 L21.895 851.864 L14.479 851.864 Z" fill="#000000" fill-rule="nonzero" fill-opacity="1" /><path clip-path="url(#clip950)" d="M14.479 815.706 L19.3487 815.706 L19.3487 821.308 Q19.3487 824.459 20.6219 825.7 Q21.895 826.91 25.2052 826.91 L28.3562 826.91 L28.3562 817.266 L32.9077 817.266 L32.9077 826.91 L64.0042 826.91 L64.0042 832.798 L32.9077 832.798 L32.9077 838.4 L28.3562 838.4 L28.3562 832.798 L25.8736 832.798 Q19.9216 832.798 17.2162 830.029 Q14.479 827.26 14.479 821.244 L14.479 815.706 Z" fill="#000000" fill-rule="nonzero" fill-opacity="1" /><path clip-path="url(#clip950)" d="M14.479 792.758 L19.3487 792.758 L19.3487 798.36 Q19.3487 801.511 20.6219 802.752 Q21.895 803.962 25.2052 803.962 L28.3562 803.962 L28.3562 794.318 L32.9077 794.318 L32.9077 803.962 L64.0042 803.962 L64.0042 809.85 L32.9077 809.85 L32.9077 815.452 L28.3562 815.452 L28.3562 809.85 L25.8736 809.85 Q19.9216 809.85 17.2162 807.081 Q14.479 804.312 14.479 798.296 L14.479 792.758 Z" fill="#000000" fill-rule="nonzero" fill-opacity="1" /><path clip-path="url(#clip950)" d="M44.7161 757.365 L47.5806 757.365 L47.5806 784.292 Q53.6281 783.91 56.8109 780.663 Q59.9619 777.385 59.9619 771.56 Q59.9619 768.186 59.1344 765.035 Q58.3069 761.852 56.6518 758.733 L62.1899 758.733 Q63.5267 761.884 64.227 765.194 Q64.9272 768.505 64.9272 771.91 Q64.9272 780.44 59.9619 785.437 Q54.9967 790.403 46.5303 790.403 Q37.7774 790.403 32.6531 785.692 Q27.4968 780.95 27.4968 772.929 Q27.4968 765.736 32.1438 761.566 Q36.7589 757.365 44.7161 757.365 M42.9973 763.221 Q38.1912 763.285 35.3266 765.927 Q32.4621 768.536 32.4621 772.865 Q32.4621 777.767 35.2312 780.727 Q38.0002 783.655 43.0292 784.101 L42.9973 763.221 Z" fill="#000000" fill-rule="nonzero" fill-opacity="1" /><path clip-path="url(#clip950)" d="M33.8307 727.096 Q33.2578 728.082 33.0032 729.26 Q32.7167 730.406 32.7167 731.806 Q32.7167 736.772 35.9632 739.445 Q39.1779 742.087 45.2253 742.087 L64.0042 742.087 L64.0042 747.975 L28.3562 747.975 L28.3562 742.087 L33.8944 742.087 Q30.6479 740.241 29.0883 737.281 Q27.4968 734.321 27.4968 730.088 Q27.4968 729.483 27.5923 728.751 Q27.656 728.019 27.8151 727.128 L33.8307 727.096 Z" fill="#000000" fill-rule="nonzero" fill-opacity="1" /><path clip-path="url(#clip950)" d="M44.7161 691.893 L47.5806 691.893 L47.5806 718.82 Q53.6281 718.438 56.8109 715.192 Q59.9619 711.913 59.9619 706.089 Q59.9619 702.715 59.1344 699.564 Q58.3069 696.381 56.6518 693.262 L62.1899 693.262 Q63.5267 696.413 64.227 699.723 Q64.9272 703.033 64.9272 706.439 Q64.9272 714.969 59.9619 719.966 Q54.9967 724.931 46.5303 724.931 Q37.7774 724.931 32.6531 720.221 Q27.4968 715.478 27.4968 707.457 Q27.4968 700.264 32.1438 696.095 Q36.7589 691.893 44.7161 691.893 M42.9973 697.75 Q38.1912 697.813 35.3266 700.455 Q32.4621 703.065 32.4621 707.394 Q32.4621 712.295 35.2312 715.255 Q38.0002 718.184 43.0292 718.629 L42.9973 697.75 Z" fill="#000000" fill-rule="nonzero" fill-opacity="1" /><path clip-path="url(#clip950)" d="M42.4881 652.649 L64.0042 652.649 L64.0042 658.505 L42.679 658.505 Q37.6183 658.505 35.1038 660.479 Q32.5894 662.452 32.5894 666.399 Q32.5894 671.141 35.6131 673.878 Q38.6368 676.616 43.8567 676.616 L64.0042 676.616 L64.0042 682.504 L28.3562 682.504 L28.3562 676.616 L33.8944 676.616 Q30.6797 674.515 29.0883 671.682 Q27.4968 668.818 27.4968 665.094 Q27.4968 658.951 31.3163 655.8 Q35.1038 652.649 42.4881 652.649 Z" fill="#000000" fill-rule="nonzero" fill-opacity="1" /><path clip-path="url(#clip950)" d="M29.7248 615.314 L35.1993 615.314 Q33.8307 617.797 33.1623 620.311 Q32.4621 622.794 32.4621 625.34 Q32.4621 631.037 36.0905 634.188 Q39.6872 637.339 46.212 637.339 Q52.7369 637.339 56.3653 634.188 Q59.9619 631.037 59.9619 625.34 Q59.9619 622.794 59.2935 620.311 Q58.5933 617.797 57.2247 615.314 L62.6355 615.314 Q63.7814 617.765 64.3543 620.406 Q64.9272 623.016 64.9272 625.976 Q64.9272 634.029 59.8664 638.772 Q54.8057 643.514 46.212 643.514 Q37.491 643.514 32.4939 638.74 Q27.4968 633.934 27.4968 625.595 Q27.4968 622.889 28.0697 620.311 Q28.6108 617.733 29.7248 615.314 Z" fill="#000000" fill-rule="nonzero" fill-opacity="1" /><path clip-path="url(#clip950)" d="M44.7161 574.637 L47.5806 574.637 L47.5806 601.564 Q53.6281 601.182 56.8109 597.936 Q59.9619 594.657 59.9619 588.833 Q59.9619 585.459 59.1344 582.308 Q58.3069 579.125 56.6518 576.006 L62.1899 576.006 Q63.5267 579.157 64.227 582.467 Q64.9272 585.777 64.9272 589.183 Q64.9272 597.713 59.9619 602.71 Q54.9967 607.675 46.5303 607.675 Q37.7774 607.675 32.6531 602.964 Q27.4968 598.222 27.4968 590.201 Q27.4968 583.008 32.1438 578.838 Q36.7589 574.637 44.7161 574.637 M42.9973 580.493 Q38.1912 580.557 35.3266 583.199 Q32.4621 585.809 32.4621 590.138 Q32.4621 595.039 35.2312 597.999 Q38.0002 600.927 43.0292 601.373 L42.9973 580.493 Z" fill="#000000" fill-rule="nonzero" fill-opacity="1" /><polyline clip-path="url(#clip952)" style="stroke:#009af9; stroke-linecap:round; stroke-linejoin:round; stroke-width:4; stroke-opacity:1; fill:none" points="279.759,86.1857 295.732,682.016 311.705,865.097 327.678,930.231 343.651,969.866 359.625,1010.24 375.598,1047.91 391.571,1074.5 407.544,1089.9 423.517,1097.93 439.49,1101.33 455.464,1101.39 471.437,1098.59 487.41,1092.9 503.383,1084.01 519.356,1071.34 535.329,1054.1 551.302,1031.59 567.276,1004.14 583.249,975.665 599.222,959.28 615.195,983.293 631.168,1076.75 647.141,1203.87 663.115,1268.85 679.088,1287.05 695.061,1296.18 711.034,1302.46 727.007,1307.24 742.98,1311.12 758.954,1314.41 774.927,1317.29 790.9,1319.87 806.873,1322.23 822.846,1324.43 838.819,1326.48 854.793,1328.43 870.766,1330.29 886.739,1332.07 902.712,1333.78 918.685,1335.44 934.658,1337.04 950.632,1338.59 966.605,1340.09 982.578,1341.55 998.551,1342.97 1014.52,1344.35 1030.5,1345.69 1046.47,1346.99 1062.44,1348.26 1078.42,1349.49 1094.39,1350.68 1110.36,1351.83 1126.34,1352.95 1142.31,1354.03 1158.28,1355.08 1174.26,1356.09 1190.23,1357.07 1206.2,1358.02 1222.18,1358.93 1238.15,1359.81 1254.12,1360.66 1270.09,1361.48 1286.07,1362.28 1302.04,1363.04 1318.01,1363.78 1333.99,1364.5 1349.96,1365.19 1365.93,1365.86 1381.91,1366.5 1397.88,1367.12 1413.85,1367.73 1429.83,1368.31 1445.8,1368.88 1461.77,1369.43 1477.75,1369.96 1493.72,1370.47 1509.69,1370.97 1525.67,1371.46 1541.64,1371.93 1557.61,1372.38 1573.58,1372.83 1589.56,1373.26 1605.53,1373.67 1621.5,1374.08 1637.48,1374.48 1653.45,1374.86 1669.42,1375.23 1685.4,1375.6 1701.37,1375.95 1717.34,1376.29 1733.32,1376.63 1749.29,1376.95 1765.26,1377.27 1781.24,1377.58 1797.21,1377.88 1813.18,1378.17 1829.16,1378.45 1845.13,1378.73 1861.1,1379 1877.08,1379.26 1893.05,1379.52 1909.02,1379.77 1924.99,1380.01 1940.97,1380.25 1956.94,1380.48 1972.91,1380.7 1988.89,1380.92 2004.86,1381.13 2020.83,1381.34 2036.81,1381.54 2052.78,1381.74 2068.75,1381.94 2084.73,1382.12 2100.7,1382.31 2116.67,1382.49 2132.65,1382.67 2148.62,1382.84 2164.59,1383.01 2180.57,1383.17 2196.54,1383.33 2212.51,1383.49 2228.48,1383.65 2244.46,1383.8 2260.43,1383.95 2276.4,1384.09 2292.38,1384.24 "/>
<path clip-path="url(#clip950)" d="M2000.27 196.789 L2281.64 196.789 L2281.64 93.1086 L2000.27 93.1086  Z" fill="#ffffff" fill-rule="evenodd" fill-opacity="1"/>
<polyline clip-path="url(#clip950)" style="stroke:#000000; stroke-linecap:round; stroke-linejoin:round; stroke-width:4; stroke-opacity:1; fill:none" points="2000.27,196.789 2281.64,196.789 2281.64,93.1086 2000.27,93.1086 2000.27,196.789 "/>
<polyline clip-path="url(#clip950)" style="stroke:#009af9; stroke-linecap:round; stroke-linejoin:round; stroke-width:4; stroke-opacity:1; fill:none" points="2023.98,144.949 2166.2,144.949 "/>
<path clip-path="url(#clip950)" d="M2189.91 156.613 Q2189.91 156.426 2190.54 155.208 Q2191.17 153.966 2193.4 149.539 Q2195.62 145.089 2197.92 140.428 L2206.19 123.798 Q2206.77 122.744 2207.52 122.744 Q2208.2 122.744 2208.5 123.166 Q2208.81 123.587 2210.21 126.421 Q2210.94 127.803 2211.36 128.693 L2224.92 155.84 Q2225.16 156.426 2225.18 156.613 Q2225.18 157.081 2224.36 157.081 L2191.17 157.081 Q2189.91 157.081 2189.91 156.613 M2193.07 153.428 L2218.88 153.428 L2205.97 127.522 L2193.07 153.428 Z" fill="#000000" fill-rule="nonzero" fill-opacity="1" /><path clip-path="url(#clip950)" d="M2254.8 144.504 Q2254.8 146.869 2253.58 149.235 Q2252.36 151.601 2250.37 153.428 Q2248.38 155.231 2245.66 156.402 Q2242.95 157.573 2240.11 157.667 L2238.29 164.811 Q2237.93 166.544 2237.75 166.731 Q2237.56 166.919 2237.28 166.919 Q2236.69 166.919 2236.69 166.38 Q2236.69 166.216 2237.75 162.164 L2238.87 157.667 Q2234.61 157.433 2232.13 154.973 Q2229.64 152.514 2229.64 148.977 Q2229.64 146.588 2230.86 144.223 Q2232.1 141.833 2234.09 140.03 Q2236.11 138.226 2238.82 137.079 Q2241.54 135.931 2244.33 135.837 L2247.12 124.758 Q2247.26 124.126 2247.37 123.962 Q2247.49 123.798 2247.84 123.798 Q2248.1 123.798 2248.24 123.915 Q2248.38 124.032 2248.38 124.149 L2248.4 124.267 L2248.26 124.946 L2245.57 135.837 Q2247.96 136.001 2249.81 136.844 Q2251.66 137.688 2252.71 138.952 Q2253.77 140.194 2254.28 141.599 Q2254.8 143.005 2254.8 144.504 M2244.05 136.891 Q2241.47 137.126 2239.29 138.39 Q2237.12 139.655 2235.71 141.529 Q2234.3 143.379 2233.53 145.604 Q2232.76 147.806 2232.76 149.984 Q2232.76 151.694 2233.32 153.006 Q2233.91 154.318 2234.87 155.067 Q2235.83 155.793 2236.88 156.191 Q2237.96 156.566 2239.11 156.613 L2244.05 136.891 M2251.66 143.496 Q2251.66 140.451 2249.9 138.742 Q2248.15 137.032 2245.29 136.891 L2240.35 156.613 Q2242.43 156.449 2244.26 155.582 Q2246.11 154.692 2247.44 153.381 Q2248.78 152.046 2249.74 150.406 Q2250.7 148.743 2251.17 146.986 Q2251.66 145.206 2251.66 143.496 Z" fill="#000000" fill-rule="nonzero" fill-opacity="1" /></svg>
