<?xml version="1.0" encoding="utf-8"?>
<svg xmlns="http://www.w3.org/2000/svg" xmlns:xlink="http://www.w3.org/1999/xlink" width="600" height="400" viewBox="0 0 2400 1600">
<defs>
  <clipPath id="clip250">
    <rect x="0" y="0" width="2400" height="1600"/>
  </clipPath>
</defs>
<path clip-path="url(#clip250)" d="M0 1600 L2400 1600 L2400 0 L0 0  Z" fill="#ffffff" fill-rule="evenodd" fill-opacity="1"/>
<defs>
  <clipPath id="clip251">
    <rect x="480" y="0" width="1681" height="1600"/>
  </clipPath>
</defs>
<path clip-path="url(#clip250)" d="M156.112 1486.45 L2352.76 1486.45 L2352.76 47.2441 L156.112 47.2441  Z" fill="#ffffff" fill-rule="evenodd" fill-opacity="1"/>
<defs>
  <clipPath id="clip252">
    <rect x="156" y="47" width="2198" height="1440"/>
  </clipPath>
</defs>
<polyline clip-path="url(#clip252)" style="stroke:#000000; stroke-linecap:round; stroke-linejoin:round; stroke-width:2; stroke-opacity:0.1; fill:none" points="201.834,1486.45 201.834,47.2441 "/>
<polyline clip-path="url(#clip252)" style="stroke:#000000; stroke-linecap:round; stroke-linejoin:round; stroke-width:2; stroke-opacity:0.1; fill:none" points="530.772,1486.45 530.772,47.2441 "/>
<polyline clip-path="url(#clip252)" style="stroke:#000000; stroke-linecap:round; stroke-linejoin:round; stroke-width:2; stroke-opacity:0.1; fill:none" points="859.709,1486.45 859.709,47.2441 "/>
<polyline clip-path="url(#clip252)" style="stroke:#000000; stroke-linecap:round; stroke-linejoin:round; stroke-width:2; stroke-opacity:0.1; fill:none" points="1188.65,1486.45 1188.65,47.2441 "/>
<polyline clip-path="url(#clip252)" style="stroke:#000000; stroke-linecap:round; stroke-linejoin:round; stroke-width:2; stroke-opacity:0.1; fill:none" points="1517.58,1486.45 1517.58,47.2441 "/>
<polyline clip-path="url(#clip252)" style="stroke:#000000; stroke-linecap:round; stroke-linejoin:round; stroke-width:2; stroke-opacity:0.1; fill:none" points="1846.52,1486.45 1846.52,47.2441 "/>
<polyline clip-path="url(#clip252)" style="stroke:#000000; stroke-linecap:round; stroke-linejoin:round; stroke-width:2; stroke-opacity:0.1; fill:none" points="2175.46,1486.45 2175.46,47.2441 "/>
<polyline clip-path="url(#clip250)" style="stroke:#000000; stroke-linecap:round; stroke-linejoin:round; stroke-width:4; stroke-opacity:1; fill:none" points="156.112,1486.45 2352.76,1486.45 "/>
<polyline clip-path="url(#clip250)" style="stroke:#000000; stroke-linecap:round; stroke-linejoin:round; stroke-width:4; stroke-opacity:1; fill:none" points="201.834,1486.45 201.834,1467.55 "/>
<polyline clip-path="url(#clip250)" style="stroke:#000000; stroke-linecap:round; stroke-linejoin:round; stroke-width:4; stroke-opacity:1; fill:none" points="530.772,1486.45 530.772,1467.55 "/>
<polyline clip-path="url(#clip250)" style="stroke:#000000; stroke-linecap:round; stroke-linejoin:round; stroke-width:4; stroke-opacity:1; fill:none" points="859.709,1486.45 859.709,1467.55 "/>
<polyline clip-path="url(#clip250)" style="stroke:#000000; stroke-linecap:round; stroke-linejoin:round; stroke-width:4; stroke-opacity:1; fill:none" points="1188.65,1486.45 1188.65,1467.55 "/>
<polyline clip-path="url(#clip250)" style="stroke:#000000; stroke-linecap:round; stroke-linejoin:round; stroke-width:4; stroke-opacity:1; fill:none" points="1517.58,1486.45 1517.58,1467.55 "/>
<polyline clip-path="url(#clip250)" style="stroke:#000000; stroke-linecap:round; stroke-linejoin:round; stroke-width:4; stroke-opacity:1; fill:none" points="1846.52,1486.45 1846.52,1467.55 "/>
<polyline clip-path="url(#clip250)" style="stroke:#000000; stroke-linecap:round; stroke-linejoin:round; stroke-width:4; stroke-opacity:1; fill:none" points="2175.46,1486.45 2175.46,1467.55 "/>
<path clip-path="url(#clip250)" d="M201.834 1517.37 Q198.223 1517.37 196.395 1520.93 Q194.589 1524.47 194.589 1531.6 Q194.589 1538.71 196.395 1542.27 Q198.223 1545.82 201.834 1545.82 Q205.469 1545.82 207.274 1542.27 Q209.103 1538.71 209.103 1531.6 Q209.103 1524.47 207.274 1520.93 Q205.469 1517.37 201.834 1517.37 M201.834 1513.66 Q207.645 1513.66 210.7 1518.27 Q213.779 1522.85 213.779 1531.6 Q213.779 1540.33 210.7 1544.94 Q207.645 1549.52 201.834 1549.52 Q196.024 1549.52 192.946 1544.94 Q189.89 1540.33 189.89 1531.6 Q189.89 1522.85 192.946 1518.27 Q196.024 1513.66 201.834 1513.66 Z" fill="#000000" fill-rule="nonzero" fill-opacity="1" /><path clip-path="url(#clip250)" d="M509.545 1544.91 L525.864 1544.91 L525.864 1548.85 L503.92 1548.85 L503.92 1544.91 Q506.582 1542.16 511.165 1537.53 Q515.772 1532.88 516.952 1531.53 Q519.198 1529.01 520.077 1527.27 Q520.98 1525.51 520.98 1523.82 Q520.98 1521.07 519.036 1519.33 Q517.114 1517.6 514.013 1517.6 Q511.814 1517.6 509.36 1518.36 Q506.929 1519.13 504.152 1520.68 L504.152 1515.95 Q506.976 1514.82 509.429 1514.24 Q511.883 1513.66 513.92 1513.66 Q519.29 1513.66 522.485 1516.35 Q525.679 1519.03 525.679 1523.52 Q525.679 1525.65 524.869 1527.57 Q524.082 1529.47 521.976 1532.07 Q521.397 1532.74 518.295 1535.95 Q515.193 1539.15 509.545 1544.91 Z" fill="#000000" fill-rule="nonzero" fill-opacity="1" /><path clip-path="url(#clip250)" d="M545.679 1517.37 Q542.068 1517.37 540.239 1520.93 Q538.434 1524.47 538.434 1531.6 Q538.434 1538.71 540.239 1542.27 Q542.068 1545.82 545.679 1545.82 Q549.313 1545.82 551.119 1542.27 Q552.948 1538.71 552.948 1531.6 Q552.948 1524.47 551.119 1520.93 Q549.313 1517.37 545.679 1517.37 M545.679 1513.66 Q551.489 1513.66 554.545 1518.27 Q557.624 1522.85 557.624 1531.6 Q557.624 1540.33 554.545 1544.94 Q551.489 1549.52 545.679 1549.52 Q539.869 1549.52 536.79 1544.94 Q533.735 1540.33 533.735 1531.6 Q533.735 1522.85 536.79 1518.27 Q539.869 1513.66 545.679 1513.66 Z" fill="#000000" fill-rule="nonzero" fill-opacity="1" /><path clip-path="url(#clip250)" d="M847.881 1518.36 L836.075 1536.81 L847.881 1536.81 L847.881 1518.36 M846.654 1514.29 L852.533 1514.29 L852.533 1536.81 L857.464 1536.81 L857.464 1540.7 L852.533 1540.7 L852.533 1548.85 L847.881 1548.85 L847.881 1540.7 L832.279 1540.7 L832.279 1536.19 L846.654 1514.29 Z" fill="#000000" fill-rule="nonzero" fill-opacity="1" /><path clip-path="url(#clip250)" d="M875.195 1517.37 Q871.584 1517.37 869.755 1520.93 Q867.95 1524.47 867.95 1531.6 Q867.95 1538.71 869.755 1542.27 Q871.584 1545.82 875.195 1545.82 Q878.829 1545.82 880.635 1542.27 Q882.464 1538.71 882.464 1531.6 Q882.464 1524.47 880.635 1520.93 Q878.829 1517.37 875.195 1517.37 M875.195 1513.66 Q881.005 1513.66 884.061 1518.27 Q887.14 1522.85 887.14 1531.6 Q887.14 1540.33 884.061 1544.94 Q881.005 1549.52 875.195 1549.52 Q869.385 1549.52 866.306 1544.94 Q863.251 1540.33 863.251 1531.6 Q863.251 1522.85 866.306 1518.27 Q869.385 1513.66 875.195 1513.66 Z" fill="#000000" fill-rule="nonzero" fill-opacity="1" /><path clip-path="url(#clip250)" d="M1174.05 1529.7 Q1170.9 1529.7 1169.05 1531.86 Q1167.22 1534.01 1167.22 1537.76 Q1167.22 1541.49 1169.05 1543.66 Q1170.9 1545.82 1174.05 1545.82 Q1177.2 1545.82 1179.03 1543.66 Q1180.88 1541.49 1180.88 1537.76 Q1180.88 1534.01 1179.03 1531.86 Q1177.2 1529.7 1174.05 1529.7 M1183.33 1515.05 L1183.33 1519.31 Q1181.57 1518.48 1179.77 1518.04 Q1177.99 1517.6 1176.23 1517.6 Q1171.6 1517.6 1169.14 1520.72 Q1166.71 1523.85 1166.37 1530.17 Q1167.73 1528.15 1169.79 1527.09 Q1171.85 1526 1174.33 1526 Q1179.54 1526 1182.55 1529.17 Q1185.58 1532.32 1185.58 1537.76 Q1185.58 1543.08 1182.43 1546.3 Q1179.28 1549.52 1174.05 1549.52 Q1168.06 1549.52 1164.89 1544.94 Q1161.71 1540.33 1161.71 1531.6 Q1161.71 1523.41 1165.6 1518.55 Q1169.49 1513.66 1176.04 1513.66 Q1177.8 1513.66 1179.58 1514.01 Q1181.39 1514.36 1183.33 1515.05 Z" fill="#000000" fill-rule="nonzero" fill-opacity="1" /><path clip-path="url(#clip250)" d="M1203.63 1517.37 Q1200.02 1517.37 1198.2 1520.93 Q1196.39 1524.47 1196.39 1531.6 Q1196.39 1538.71 1198.2 1542.27 Q1200.02 1545.82 1203.63 1545.82 Q1207.27 1545.82 1209.07 1542.27 Q1210.9 1538.71 1210.9 1531.6 Q1210.9 1524.47 1209.07 1520.93 Q1207.27 1517.37 1203.63 1517.37 M1203.63 1513.66 Q1209.45 1513.66 1212.5 1518.27 Q1215.58 1522.85 1215.58 1531.6 Q1215.58 1540.33 1212.5 1544.94 Q1209.45 1549.52 1203.63 1549.52 Q1197.82 1549.52 1194.75 1544.94 Q1191.69 1540.33 1191.69 1531.6 Q1191.69 1522.85 1194.75 1518.27 Q1197.82 1513.66 1203.63 1513.66 Z" fill="#000000" fill-rule="nonzero" fill-opacity="1" /><path clip-path="url(#clip250)" d="M1502.46 1532.44 Q1499.12 1532.44 1497.2 1534.22 Q1495.3 1536 1495.3 1539.13 Q1495.3 1542.25 1497.2 1544.03 Q1499.12 1545.82 1502.46 1545.82 Q1505.79 1545.82 1507.71 1544.03 Q1509.63 1542.23 1509.63 1539.13 Q1509.63 1536 1507.71 1534.22 Q1505.81 1532.44 1502.46 1532.44 M1497.78 1530.45 Q1494.77 1529.7 1493.08 1527.64 Q1491.42 1525.58 1491.42 1522.62 Q1491.42 1518.48 1494.35 1516.07 Q1497.32 1513.66 1502.46 1513.66 Q1507.62 1513.66 1510.56 1516.07 Q1513.5 1518.48 1513.5 1522.62 Q1513.5 1525.58 1511.81 1527.64 Q1510.14 1529.7 1507.16 1530.45 Q1510.54 1531.23 1512.41 1533.52 Q1514.31 1535.82 1514.31 1539.13 Q1514.31 1544.15 1511.23 1546.83 Q1508.17 1549.52 1502.46 1549.52 Q1496.74 1549.52 1493.66 1546.83 Q1490.6 1544.15 1490.6 1539.13 Q1490.6 1535.82 1492.5 1533.52 Q1494.4 1531.23 1497.78 1530.45 M1496.07 1523.06 Q1496.07 1525.75 1497.73 1527.25 Q1499.42 1528.76 1502.46 1528.76 Q1505.47 1528.76 1507.16 1527.25 Q1508.87 1525.75 1508.87 1523.06 Q1508.87 1520.38 1507.16 1518.87 Q1505.47 1517.37 1502.46 1517.37 Q1499.42 1517.37 1497.73 1518.87 Q1496.07 1520.38 1496.07 1523.06 Z" fill="#000000" fill-rule="nonzero" fill-opacity="1" /><path clip-path="url(#clip250)" d="M1532.62 1517.37 Q1529.01 1517.37 1527.18 1520.93 Q1525.37 1524.47 1525.37 1531.6 Q1525.37 1538.71 1527.18 1542.27 Q1529.01 1545.82 1532.62 1545.82 Q1536.25 1545.82 1538.06 1542.27 Q1539.89 1538.71 1539.89 1531.6 Q1539.89 1524.47 1538.06 1520.93 Q1536.25 1517.37 1532.62 1517.37 M1532.62 1513.66 Q1538.43 1513.66 1541.48 1518.27 Q1544.56 1522.85 1544.56 1531.6 Q1544.56 1540.33 1541.48 1544.94 Q1538.43 1549.52 1532.62 1549.52 Q1526.81 1549.52 1523.73 1544.94 Q1520.67 1540.33 1520.67 1531.6 Q1520.67 1522.85 1523.73 1518.27 Q1526.81 1513.66 1532.62 1513.66 Z" fill="#000000" fill-rule="nonzero" fill-opacity="1" /><path clip-path="url(#clip250)" d="M1806.13 1544.91 L1813.77 1544.91 L1813.77 1518.55 L1805.46 1520.21 L1805.46 1515.95 L1813.72 1514.29 L1818.4 1514.29 L1818.4 1544.91 L1826.04 1544.91 L1826.04 1548.85 L1806.13 1548.85 L1806.13 1544.91 Z" fill="#000000" fill-rule="nonzero" fill-opacity="1" /><path clip-path="url(#clip250)" d="M1845.48 1517.37 Q1841.87 1517.37 1840.04 1520.93 Q1838.23 1524.47 1838.23 1531.6 Q1838.23 1538.71 1840.04 1542.27 Q1841.87 1545.82 1845.48 1545.82 Q1849.11 1545.82 1850.92 1542.27 Q1852.75 1538.71 1852.75 1531.6 Q1852.75 1524.47 1850.92 1520.93 Q1849.11 1517.37 1845.48 1517.37 M1845.48 1513.66 Q1851.29 1513.66 1854.35 1518.27 Q1857.42 1522.85 1857.42 1531.6 Q1857.42 1540.33 1854.35 1544.94 Q1851.29 1549.52 1845.48 1549.52 Q1839.67 1549.52 1836.59 1544.94 Q1833.54 1540.33 1833.54 1531.6 Q1833.54 1522.85 1836.59 1518.27 Q1839.67 1513.66 1845.48 1513.66 Z" fill="#000000" fill-rule="nonzero" fill-opacity="1" /><path clip-path="url(#clip250)" d="M1875.64 1517.37 Q1872.03 1517.37 1870.2 1520.93 Q1868.4 1524.47 1868.4 1531.6 Q1868.4 1538.71 1870.2 1542.27 Q1872.03 1545.82 1875.64 1545.82 Q1879.28 1545.82 1881.08 1542.27 Q1882.91 1538.71 1882.91 1531.6 Q1882.91 1524.47 1881.08 1520.93 Q1879.28 1517.37 1875.64 1517.37 M1875.64 1513.66 Q1881.45 1513.66 1884.51 1518.27 Q1887.59 1522.85 1887.59 1531.6 Q1887.59 1540.33 1884.51 1544.94 Q1881.45 1549.52 1875.64 1549.52 Q1869.83 1549.52 1866.75 1544.94 Q1863.7 1540.33 1863.7 1531.6 Q1863.7 1522.85 1866.75 1518.27 Q1869.83 1513.66 1875.64 1513.66 Z" fill="#000000" fill-rule="nonzero" fill-opacity="1" /><path clip-path="url(#clip250)" d="M2135.07 1544.91 L2142.7 1544.91 L2142.7 1518.55 L2134.39 1520.21 L2134.39 1515.95 L2142.66 1514.29 L2147.33 1514.29 L2147.33 1544.91 L2154.97 1544.91 L2154.97 1548.85 L2135.07 1548.85 L2135.07 1544.91 Z" fill="#000000" fill-rule="nonzero" fill-opacity="1" /><path clip-path="url(#clip250)" d="M2168.44 1544.91 L2184.76 1544.91 L2184.76 1548.85 L2162.82 1548.85 L2162.82 1544.91 Q2165.48 1542.16 2170.07 1537.53 Q2174.67 1532.88 2175.85 1531.53 Q2178.1 1529.01 2178.98 1527.27 Q2179.88 1525.51 2179.88 1523.82 Q2179.88 1521.07 2177.94 1519.33 Q2176.01 1517.6 2172.91 1517.6 Q2170.71 1517.6 2168.26 1518.36 Q2165.83 1519.13 2163.05 1520.68 L2163.05 1515.95 Q2165.88 1514.82 2168.33 1514.24 Q2170.78 1513.66 2172.82 1513.66 Q2178.19 1513.66 2181.38 1516.35 Q2184.58 1519.03 2184.58 1523.52 Q2184.58 1525.65 2183.77 1527.57 Q2182.98 1529.47 2180.88 1532.07 Q2180.3 1532.74 2177.19 1535.95 Q2174.09 1539.15 2168.44 1544.91 Z" fill="#000000" fill-rule="nonzero" fill-opacity="1" /><path clip-path="url(#clip250)" d="M2204.58 1517.37 Q2200.97 1517.37 2199.14 1520.93 Q2197.33 1524.47 2197.33 1531.6 Q2197.33 1538.71 2199.14 1542.27 Q2200.97 1545.82 2204.58 1545.82 Q2208.21 1545.82 2210.02 1542.27 Q2211.85 1538.71 2211.85 1531.6 Q2211.85 1524.47 2210.02 1520.93 Q2208.21 1517.37 2204.58 1517.37 M2204.58 1513.66 Q2210.39 1513.66 2213.44 1518.27 Q2216.52 1522.85 2216.52 1531.6 Q2216.52 1540.33 2213.44 1544.94 Q2210.39 1549.52 2204.58 1549.52 Q2198.77 1549.52 2195.69 1544.94 Q2192.63 1540.33 2192.63 1531.6 Q2192.63 1522.85 2195.69 1518.27 Q2198.77 1513.66 2204.58 1513.66 Z" fill="#000000" fill-rule="nonzero" fill-opacity="1" /><polyline clip-path="url(#clip252)" style="stroke:#000000; stroke-linecap:round; stroke-linejoin:round; stroke-width:2; stroke-opacity:0.1; fill:none" points="156.112,1474.38 2352.76,1474.38 "/>
<polyline clip-path="url(#clip252)" style="stroke:#000000; stroke-linecap:round; stroke-linejoin:round; stroke-width:2; stroke-opacity:0.1; fill:none" points="156.112,1085.6 2352.76,1085.6 "/>
<polyline clip-path="url(#clip252)" style="stroke:#000000; stroke-linecap:round; stroke-linejoin:round; stroke-width:2; stroke-opacity:0.1; fill:none" points="156.112,696.81 2352.76,696.81 "/>
<polyline clip-path="url(#clip252)" style="stroke:#000000; stroke-linecap:round; stroke-linejoin:round; stroke-width:2; stroke-opacity:0.1; fill:none" points="156.112,308.024 2352.76,308.024 "/>
<polyline clip-path="url(#clip250)" style="stroke:#000000; stroke-linecap:round; stroke-linejoin:round; stroke-width:4; stroke-opacity:1; fill:none" points="156.112,1486.45 156.112,47.2441 "/>
<polyline clip-path="url(#clip250)" style="stroke:#000000; stroke-linecap:round; stroke-linejoin:round; stroke-width:4; stroke-opacity:1; fill:none" points="156.112,1474.38 175.01,1474.38 "/>
<polyline clip-path="url(#clip250)" style="stroke:#000000; stroke-linecap:round; stroke-linejoin:round; stroke-width:4; stroke-opacity:1; fill:none" points="156.112,1085.6 175.01,1085.6 "/>
<polyline clip-path="url(#clip250)" style="stroke:#000000; stroke-linecap:round; stroke-linejoin:round; stroke-width:4; stroke-opacity:1; fill:none" points="156.112,696.81 175.01,696.81 "/>
<polyline clip-path="url(#clip250)" style="stroke:#000000; stroke-linecap:round; stroke-linejoin:round; stroke-width:4; stroke-opacity:1; fill:none" points="156.112,308.024 175.01,308.024 "/>
<path clip-path="url(#clip250)" d="M62.9365 1460.18 Q59.3254 1460.18 57.4967 1463.75 Q55.6912 1467.29 55.6912 1474.42 Q55.6912 1481.52 57.4967 1485.09 Q59.3254 1488.63 62.9365 1488.63 Q66.5707 1488.63 68.3763 1485.09 Q70.205 1481.52 70.205 1474.42 Q70.205 1467.29 68.3763 1463.75 Q66.5707 1460.18 62.9365 1460.18 M62.9365 1456.48 Q68.7467 1456.48 71.8022 1461.08 Q74.8809 1465.67 74.8809 1474.42 Q74.8809 1483.14 71.8022 1487.75 Q68.7467 1492.33 62.9365 1492.33 Q57.1264 1492.33 54.0477 1487.75 Q50.9921 1483.14 50.9921 1474.42 Q50.9921 1465.67 54.0477 1461.08 Q57.1264 1456.48 62.9365 1456.48 Z" fill="#000000" fill-rule="nonzero" fill-opacity="1" /><path clip-path="url(#clip250)" d="M83.0984 1485.78 L87.9827 1485.78 L87.9827 1491.66 L83.0984 1491.66 L83.0984 1485.78 Z" fill="#000000" fill-rule="nonzero" fill-opacity="1" /><path clip-path="url(#clip250)" d="M108.168 1460.18 Q104.557 1460.18 102.728 1463.75 Q100.922 1467.29 100.922 1474.42 Q100.922 1481.52 102.728 1485.09 Q104.557 1488.63 108.168 1488.63 Q111.802 1488.63 113.608 1485.09 Q115.436 1481.52 115.436 1474.42 Q115.436 1467.29 113.608 1463.75 Q111.802 1460.18 108.168 1460.18 M108.168 1456.48 Q113.978 1456.48 117.033 1461.08 Q120.112 1465.67 120.112 1474.42 Q120.112 1483.14 117.033 1487.75 Q113.978 1492.33 108.168 1492.33 Q102.358 1492.33 99.2789 1487.75 Q96.2234 1483.14 96.2234 1474.42 Q96.2234 1465.67 99.2789 1461.08 Q102.358 1456.48 108.168 1456.48 Z" fill="#000000" fill-rule="nonzero" fill-opacity="1" /><path clip-path="url(#clip250)" d="M63.9319 1071.4 Q60.3208 1071.4 58.4921 1074.96 Q56.6865 1078.5 56.6865 1085.63 Q56.6865 1092.74 58.4921 1096.3 Q60.3208 1099.84 63.9319 1099.84 Q67.5661 1099.84 69.3717 1096.3 Q71.2004 1092.74 71.2004 1085.63 Q71.2004 1078.5 69.3717 1074.96 Q67.5661 1071.4 63.9319 1071.4 M63.9319 1067.69 Q69.742 1067.69 72.7976 1072.3 Q75.8763 1076.88 75.8763 1085.63 Q75.8763 1094.36 72.7976 1098.96 Q69.742 1103.55 63.9319 1103.55 Q58.1217 1103.55 55.043 1098.96 Q51.9875 1094.36 51.9875 1085.63 Q51.9875 1076.88 55.043 1072.3 Q58.1217 1067.69 63.9319 1067.69 Z" fill="#000000" fill-rule="nonzero" fill-opacity="1" /><path clip-path="url(#clip250)" d="M84.0938 1097 L88.978 1097 L88.978 1102.88 L84.0938 1102.88 L84.0938 1097 Z" fill="#000000" fill-rule="nonzero" fill-opacity="1" /><path clip-path="url(#clip250)" d="M99.2095 1068.32 L117.566 1068.32 L117.566 1072.25 L103.492 1072.25 L103.492 1080.72 Q104.51 1080.38 105.529 1080.22 Q106.547 1080.03 107.566 1080.03 Q113.353 1080.03 116.733 1083.2 Q120.112 1086.37 120.112 1091.79 Q120.112 1097.37 116.64 1100.47 Q113.168 1103.55 106.848 1103.55 Q104.672 1103.55 102.404 1103.18 Q100.159 1102.81 97.7511 1102.07 L97.7511 1097.37 Q99.8345 1098.5 102.057 1099.06 Q104.279 1099.61 106.756 1099.61 Q110.76 1099.61 113.098 1097.51 Q115.436 1095.4 115.436 1091.79 Q115.436 1088.18 113.098 1086.07 Q110.76 1083.97 106.756 1083.97 Q104.881 1083.97 103.006 1084.38 Q101.154 1084.8 99.2095 1085.68 L99.2095 1068.32 Z" fill="#000000" fill-rule="nonzero" fill-opacity="1" /><path clip-path="url(#clip250)" d="M53.7467 710.155 L61.3856 710.155 L61.3856 683.79 L53.0754 685.456 L53.0754 681.197 L61.3393 679.53 L66.0152 679.53 L66.0152 710.155 L73.654 710.155 L73.654 714.09 L53.7467 714.09 L53.7467 710.155 Z" fill="#000000" fill-rule="nonzero" fill-opacity="1" /><path clip-path="url(#clip250)" d="M83.0984 708.211 L87.9827 708.211 L87.9827 714.09 L83.0984 714.09 L83.0984 708.211 Z" fill="#000000" fill-rule="nonzero" fill-opacity="1" /><path clip-path="url(#clip250)" d="M108.168 682.609 Q104.557 682.609 102.728 686.174 Q100.922 689.716 100.922 696.845 Q100.922 703.952 102.728 707.516 Q104.557 711.058 108.168 711.058 Q111.802 711.058 113.608 707.516 Q115.436 703.952 115.436 696.845 Q115.436 689.716 113.608 686.174 Q111.802 682.609 108.168 682.609 M108.168 678.905 Q113.978 678.905 117.033 683.512 Q120.112 688.095 120.112 696.845 Q120.112 705.572 117.033 710.178 Q113.978 714.762 108.168 714.762 Q102.358 714.762 99.2789 710.178 Q96.2234 705.572 96.2234 696.845 Q96.2234 688.095 99.2789 683.512 Q102.358 678.905 108.168 678.905 Z" fill="#000000" fill-rule="nonzero" fill-opacity="1" /><path clip-path="url(#clip250)" d="M54.7421 321.369 L62.381 321.369 L62.381 295.003 L54.0708 296.67 L54.0708 292.411 L62.3347 290.744 L67.0106 290.744 L67.0106 321.369 L74.6494 321.369 L74.6494 325.304 L54.7421 325.304 L54.7421 321.369 Z" fill="#000000" fill-rule="nonzero" fill-opacity="1" /><path clip-path="url(#clip250)" d="M84.0938 319.424 L88.978 319.424 L88.978 325.304 L84.0938 325.304 L84.0938 319.424 Z" fill="#000000" fill-rule="nonzero" fill-opacity="1" /><path clip-path="url(#clip250)" d="M99.2095 290.744 L117.566 290.744 L117.566 294.679 L103.492 294.679 L103.492 303.151 Q104.51 302.804 105.529 302.642 Q106.547 302.457 107.566 302.457 Q113.353 302.457 116.733 305.628 Q120.112 308.799 120.112 314.216 Q120.112 319.795 116.64 322.897 Q113.168 325.975 106.848 325.975 Q104.672 325.975 102.404 325.605 Q100.159 325.235 97.7511 324.494 L97.7511 319.795 Q99.8345 320.929 102.057 321.485 Q104.279 322.04 106.756 322.04 Q110.76 322.04 113.098 319.934 Q115.436 317.827 115.436 314.216 Q115.436 310.605 113.098 308.499 Q110.76 306.392 106.756 306.392 Q104.881 306.392 103.006 306.809 Q101.154 307.225 99.2095 308.105 L99.2095 290.744 Z" fill="#000000" fill-rule="nonzero" fill-opacity="1" /><polyline clip-path="url(#clip252)" style="stroke:#009af9; stroke-linecap:round; stroke-linejoin:round; stroke-width:4; stroke-opacity:1; fill:none" points="218.281,87.9763 234.728,711.204 251.175,902.703 267.622,970.832 284.069,1012.29 300.516,1054.52 316.963,1093.93 333.409,1121.74 349.856,1137.84 366.303,1146.24 382.75,1149.79 399.197,1149.87 415.644,1146.93 432.091,1140.98 448.537,1131.68 464.984,1118.43 481.431,1100.4 497.878,1076.85 514.325,1048.14 530.772,1018.36 547.219,1001.22 563.666,1026.33 580.112,1124.09 596.559,1257.06 613.006,1325.02 629.453,1344.06 645.9,1353.61 662.347,1360.17 678.794,1365.18 695.24,1369.24 711.687,1372.68 728.134,1375.69 744.581,1378.39 761.028,1380.86 777.475,1383.15 793.922,1385.31 810.369,1387.34 826.815,1389.29 843.262,1391.15 859.709,1392.94 876.156,1394.67 892.603,1396.34 909.05,1397.96 925.497,1399.54 941.944,1401.07 958.39,1402.55 974.837,1403.99 991.284,1405.4 1007.73,1406.76 1024.18,1408.08 1040.62,1409.37 1057.07,1410.61 1073.52,1411.82 1089.97,1412.99 1106.41,1414.12 1122.86,1415.22 1139.31,1416.27 1155.75,1417.3 1172.2,1418.29 1188.65,1419.24 1205.09,1420.16 1221.54,1421.06 1237.99,1421.91 1254.43,1422.74 1270.88,1423.55 1287.33,1424.32 1303.77,1425.07 1320.22,1425.79 1336.67,1426.49 1353.12,1427.16 1369.56,1427.81 1386.01,1428.45 1402.46,1429.06 1418.9,1429.65 1435.35,1430.22 1451.8,1430.78 1468.24,1431.32 1484.69,1431.84 1501.14,1432.34 1517.58,1432.84 1534.03,1433.31 1550.48,1433.78 1566.92,1434.23 1583.37,1434.67 1599.82,1435.09 1616.27,1435.5 1632.71,1435.91 1649.16,1436.3 1665.61,1436.68 1682.05,1437.05 1698.5,1437.41 1714.95,1437.76 1731.39,1438.1 1747.84,1438.43 1764.29,1438.75 1780.73,1439.06 1797.18,1439.37 1813.63,1439.67 1830.07,1439.96 1846.52,1440.24 1862.97,1440.51 1879.42,1440.78 1895.86,1441.04 1912.31,1441.29 1928.76,1441.54 1945.2,1441.78 1961.65,1442.01 1978.1,1442.24 1994.54,1442.47 2010.99,1442.68 2027.44,1442.9 2043.88,1443.1 2060.33,1443.31 2076.78,1443.5 2093.22,1443.7 2109.67,1443.89 2126.12,1444.07 2142.56,1444.25 2159.01,1444.43 2175.46,1444.6 2191.91,1444.77 2208.35,1444.94 2224.8,1445.1 2241.25,1445.26 2257.69,1445.41 2274.14,1445.57 2290.59,1445.72 "/>
<path clip-path="url(#clip250)" d="M2007.44 198.898 L2279.53 198.898 L2279.53 95.2176 L2007.44 95.2176  Z" fill="#ffffff" fill-rule="evenodd" fill-opacity="1"/>
<polyline clip-path="url(#clip250)" style="stroke:#000000; stroke-linecap:round; stroke-linejoin:round; stroke-width:4; stroke-opacity:1; fill:none" points="2007.44,198.898 2279.53,198.898 2279.53,95.2176 2007.44,95.2176 2007.44,198.898 "/>
<polyline clip-path="url(#clip250)" style="stroke:#009af9; stroke-linecap:round; stroke-linejoin:round; stroke-width:4; stroke-opacity:1; fill:none" points="2031.85,147.058 2178.29,147.058 "/>
<path clip-path="url(#clip250)" d="M2216.54 166.745 Q2214.73 171.375 2213.02 172.787 Q2211.31 174.199 2208.44 174.199 L2205.03 174.199 L2205.03 170.634 L2207.53 170.634 Q2209.29 170.634 2210.27 169.8 Q2211.24 168.967 2212.42 165.865 L2213.18 163.921 L2202.7 138.412 L2207.21 138.412 L2215.31 158.689 L2223.41 138.412 L2227.93 138.412 L2216.54 166.745 Z" fill="#000000" fill-rule="nonzero" fill-opacity="1" /><path clip-path="url(#clip250)" d="M2235.22 160.402 L2242.86 160.402 L2242.86 134.037 L2234.55 135.703 L2234.55 131.444 L2242.81 129.778 L2247.49 129.778 L2247.49 160.402 L2255.13 160.402 L2255.13 164.338 L2235.22 164.338 L2235.22 160.402 Z" fill="#000000" fill-rule="nonzero" fill-opacity="1" /></svg>
